<svg width="274" height="225" viewBox="0 0 274 225" fill="none" xmlns="http://www.w3.org/2000/svg">
<g clip-path="url(#clip0)">
<path d="M374.518 0H124.514V131.425H374.518V0Z" fill="#E8E7E7"/>
<path d="M131.795 124.157H367.236V7.26758H131.795V124.157Z" fill="white"/>
<path d="M140 117H315V15H140V117Z" fill="#BCBCBC"/>
<path d="M250.272 13H228C227.448 13 227 13.4477 227 14V17C227 17.5523 227.448 18 228 18H250.272C250.825 18 251.272 17.5523 251.272 17V14C251.272 13.4477 250.825 13 250.272 13Z" fill="#757575"/>
<g filter="url(#filter0_d)">
<path d="M150.163 100.005C150.07 98.4771 149.926 97.0025 149.9 96.5347C150.7 96.1709 152.903 95.8185 155.043 96.6916C154.782 97.2114 154.215 98.6954 154.028 100.473C153.84 102.251 153.455 103.345 153.286 103.67L152.351 105.004L151.412 105.697C148.852 106.632 148.888 104.735 149.226 103.67C149.578 103.085 150.257 101.533 150.163 100.005Z" fill="#F6DD8D"/>
</g>
<g filter="url(#filter1_d)">
<path d="M149.187 95.406C149.717 96.9654 150.527 96.8614 150.865 96.6145C151.802 96.3338 152.27 96.4976 152.387 96.6145C153.918 97.2694 154.691 97.1213 154.886 96.9653C156.385 95.0941 156.473 92.937 156.33 92.0924L155.198 91.0788C154.386 90.3615 153.637 90.9099 153.363 91.2737C152.864 91.2113 152.062 90.9359 151.724 90.8059C149.694 90.4941 149.187 91.6636 149.187 92.2873V95.406Z" fill="#F7F1D9"/>
</g>
<g filter="url(#filter2_d)">
<path d="M149.313 72.9729C149.844 71.4136 150.654 71.5175 150.992 71.7644C151.929 72.0451 152.397 71.8813 152.514 71.7644C154.045 71.1095 154.818 71.2576 155.013 71.4136C156.512 73.2848 156.6 75.4419 156.457 76.2865L155.325 77.3001C154.513 78.0174 153.764 77.469 153.49 77.1052C152.991 77.1676 152.189 77.443 151.851 77.573C149.821 77.8848 149.313 76.7153 149.313 76.0916V72.9729Z" fill="#F7F1D9"/>
</g>
<g filter="url(#filter3_d)">
<path d="M160.837 102.921C161.368 101.05 161.319 98.191 161.228 96.9955C161.237 96.9912 161.213 96.8749 161.046 96.4441C160.879 96.0133 166.756 96.2611 167.859 96.9955L167.591 100.231C167.395 101.829 166.677 105.447 165.366 107.131C164.054 108.815 163.882 106.676 164.351 105.962C164.894 104.938 165.584 103.178 165.366 101.401C165.147 99.623 164.286 100.114 163.882 100.582L163.102 102.141C162.282 103.194 161.93 106.819 161.228 107.95C160.666 108.854 160.291 108.327 160.174 107.95C160.174 107.053 160.307 104.792 160.837 102.921Z" fill="#F6DD8D"/>
</g>
<g filter="url(#filter4_d)">
<path d="M160.487 92.7859C161.034 89.7062 163.884 90.9147 164.157 90.9927C164.378 91.1226 164.922 91.3045 165.328 90.9927C165.734 90.6808 166.408 90.5249 166.694 90.4859C168.802 90.33 168.724 92.1622 168.802 93.4487C168.88 94.7351 168.373 96.4114 167.787 97.1911C167.319 97.8148 167.002 97.375 166.694 97.1911C166.39 96.9182 165.384 96.9182 165.189 97.1911C165.075 97.3505 164.157 97.5169 163.806 97.1911C163.511 96.9182 163.082 96.7386 162.641 96.8365C162.15 97.0323 161.737 97.0481 161.502 96.9182C160.982 96.5673 160.05 95.2497 160.487 92.7859Z" fill="#F7F1D9"/>
</g>
<g filter="url(#filter5_d)">
<path d="M160.54 76.0051C161.087 79.0848 163.936 77.8763 164.21 77.7983C164.431 77.6684 164.975 77.4865 165.381 77.7983C165.787 78.1102 166.461 78.2661 166.747 78.3051C168.855 78.4611 168.777 76.6288 168.855 75.3424C168.933 74.0559 168.425 72.3796 167.84 71.5999C167.372 70.9762 167.055 71.416 166.747 71.5999C166.443 71.8728 165.437 71.8728 165.242 71.5999C165.128 71.4405 164.21 71.2742 163.858 71.5999C163.564 71.8728 163.134 72.0525 162.693 71.9545C162.203 71.7587 161.789 71.7429 161.555 71.8728C161.035 72.2237 160.103 73.5413 160.54 76.0051Z" fill="#F7F1D9"/>
</g>
<g filter="url(#filter6_d)">
<path d="M172.241 102.16C172.803 99.8833 172.603 97.9108 172.499 97.3131C173.913 96.7922 177.561 96.1302 180.321 96.8191C180.191 97.4429 179.931 99.8588 179.931 100.601C179.931 102.236 180.08 104.142 179.931 105.201C179.814 106.032 179.213 108.031 177.745 109.372C176.277 110.713 176.873 108.813 177.354 107.696C177.641 106.591 178.166 104.062 177.979 102.784C177.745 101.185 177.159 100.445 176.027 100.951C175.122 101.357 174.297 103.953 173.997 105.201C173.698 106.448 173.602 107.912 172.631 109.684C171.659 111.457 171.226 109.515 171.304 108.436C171.382 107.293 171.679 104.437 172.241 102.16Z" fill="#F6DD8D"/>
</g>
<g filter="url(#filter7_d)">
<path d="M172.047 96.7811C171.61 95.9391 171.526 93.4675 171.539 92.337C171.495 90.7776 173.759 90.5957 174.896 90.6997C175.404 91.0505 176.528 91.6041 176.965 91.0115C177.512 90.2709 180.283 90.2319 180.83 91.3234C181.267 92.1967 180.856 94.9879 180.596 96.2743C180.518 96.6512 180.143 97.4049 179.268 97.4049C178.394 97.4049 177.577 97.5608 177.278 97.6388C176.952 97.8727 176.138 98.2703 175.482 97.9896C174.826 97.7089 173.829 97.6388 173.413 97.6388C173.14 97.7038 172.484 97.6232 172.047 96.7811Z" fill="#F7F1D9"/>
</g>
<g filter="url(#filter8_d)">
<path d="M172.058 72.5841C171.62 73.4261 171.537 75.8977 171.55 77.0282C171.505 78.5876 173.769 78.7695 174.907 78.6655C175.415 78.3147 176.539 77.7611 176.976 78.3537C177.523 79.0944 180.294 79.1334 180.841 78.0418C181.278 77.1686 180.867 74.3773 180.606 73.0909C180.528 72.714 180.154 71.9604 179.279 71.9604C178.405 71.9604 177.588 71.8044 177.288 71.7265C176.963 71.4926 176.148 71.0949 175.493 71.3756C174.837 71.6563 173.84 71.7265 173.424 71.7265C173.151 71.6615 172.495 71.742 172.058 72.5841Z" fill="#F7F1D9"/>
</g>
<g filter="url(#filter9_d)">
<path d="M186.72 101.752C186.173 97.308 185.783 96.4504 185.822 96.2944C186.444 95.6187 188.214 94.47 190.311 95.2808L189.53 101.986C189.465 103.935 189.031 108.223 187.813 109.783C186.595 111.342 186.707 109.679 186.915 108.652C187.032 107.834 187.157 105.307 186.72 101.752Z" fill="#F6DD8D"/>
</g>
<g filter="url(#filter10_d)">
<path d="M184.729 93.5658C184.385 91.6945 185.965 90.2651 186.798 89.7843C188.047 89.0358 189.218 89.7843 189.647 90.2521C189.647 90.4081 190.975 90.7589 190.975 92.7861C190.975 94.4078 190.09 95.9827 189.647 96.5675C188.211 98.0957 186.837 97.4641 186.329 96.9573C185.939 96.6065 185.072 95.437 184.729 93.5658Z" fill="#F7F1D9"/>
</g>
<g filter="url(#filter11_d)">
<path d="M184.729 75.2409C184.385 77.1121 185.965 78.5415 186.798 79.0223C188.047 79.7708 189.218 79.0223 189.647 78.5545C189.647 78.3986 190.975 78.0477 190.975 76.0206C190.975 74.3988 190.09 72.8239 189.647 72.2391C188.211 70.711 186.837 71.3425 186.329 71.8493C185.939 72.2002 185.072 73.3697 184.729 75.2409Z" fill="#F7F1D9"/>
</g>
<g filter="url(#filter12_d)">
<path d="M197.688 99.7488C197.414 98.3843 197.102 97.1369 197.141 96.9419C198.06 96.708 200.206 96.2402 201.435 96.2402C201.409 96.799 201.302 98.322 201.084 99.9437C200.909 101.24 200.913 103.216 200.913 104.251C200.913 104.856 200.913 107.408 199.835 109.105C198.979 110.45 198.213 109.3 198.414 108.534C198.663 107.58 198.663 106.54 198.663 104.856C198.663 102.751 197.961 101.113 197.688 99.7488Z" fill="#F6DD8D"/>
</g>
<g filter="url(#filter13_d)">
<path d="M196.946 91.1721L198.82 89.6907C198.976 89.4568 199.593 89.2073 200.811 90.0806C202.028 90.9538 202.385 92.0297 202.411 92.4586C202.359 93.3292 202.13 95.281 201.63 96.123C201.131 96.9651 199.861 97.6434 199.288 97.8773C198.937 97.8903 198.101 97.8149 197.571 97.4095C196.907 96.9027 196.946 96.6688 196.438 94.3688C196.032 92.5287 196.608 91.471 196.946 91.1721Z" fill="#F7F1D9"/>
</g>
<g filter="url(#filter14_d)">
<path d="M196.946 77.9861L198.82 79.4675C198.976 79.7014 199.593 79.9509 200.811 79.0777C202.028 78.2044 202.385 77.1285 202.411 76.6996C202.359 75.829 202.13 73.8772 201.63 73.0352C201.131 72.1931 199.861 71.5148 199.288 71.2809C198.937 71.2679 198.101 71.3433 197.571 71.7487C196.907 72.2555 196.946 72.4894 196.438 74.7894C196.032 76.6295 196.608 77.6872 196.946 77.9861Z" fill="#F7F1D9"/>
</g>
<g filter="url(#filter15_d)">
<path d="M209.401 101.998C209.267 100.851 208.794 96.9727 208.755 95.5433C209.55 94.712 211.597 93.9443 213.187 94.3177C213.057 94.9934 213.187 97.0466 212.875 100.945C212.549 105.018 211.376 109.756 210.764 111.38C209.359 112.877 209.128 111.562 209.128 110.691L209.401 107.689C209.557 106.247 209.588 103.596 209.401 101.998Z" fill="#F6DD8D"/>
</g>
<g filter="url(#filter16_d)">
<path d="M208.466 88.9389C208.855 87.9806 210.176 87.9019 210.301 87.8083C211.355 87.5355 211.472 87.8083 212.37 88.0812C213.088 88.2995 213.814 89.8164 213.814 91.1609C213.634 92.8516 213.197 95.262 212.136 96.3848C211.074 97.5075 209.559 96.8526 208.935 96.3848C208.463 95.4218 208.242 94.0266 207.998 92.4474C207.752 90.8626 208.154 89.4587 208.466 88.9389Z" fill="#F7F1D9"/>
</g>
<g filter="url(#filter17_d)">
<path d="M208.466 79.3424C208.855 80.3007 210.176 80.3793 210.301 80.4729C211.355 80.7458 211.472 80.4729 212.37 80.2C213.088 79.9817 213.814 78.4649 213.814 77.1203C213.634 75.4296 213.197 73.0192 212.136 71.8965C211.074 70.7738 209.559 71.4287 208.935 71.8965C208.463 72.8595 208.242 74.2547 207.998 75.8338C207.752 77.4186 208.154 78.8226 208.466 79.3424Z" fill="#F7F1D9"/>
</g>
<g filter="url(#filter18_d)">
<path d="M223.777 79.1484H221.122C220.092 79.1484 219.99 77.823 220.068 77.1603L221.122 72.4432C221.5 71.7935 222.512 70.7202 223.543 71.6246C224.573 72.529 225.013 73.9506 225.104 74.5484C225.13 75.1981 225.167 76.747 225.104 77.745L225.102 77.7738C225.026 78.9949 225.016 79.1484 223.777 79.1484Z" fill="#F7F1D9"/>
</g>
<g filter="url(#filter19_d)">
<path d="M221.704 99.0793C221.454 98.1749 221.209 96.0256 221.118 95.064C221.129 95.1419 221.125 95.053 221.027 94.4655C220.929 93.878 223.399 94.0085 224.654 94.1473L224.28 99.3522C224.228 101.808 223.835 106.985 222.68 108.046C221.524 109.106 221.288 108.176 221.314 107.578L221.704 105.005C221.808 103.406 221.954 99.9837 221.704 99.0793Z" fill="#F6DD8D"/>
</g>
<g filter="url(#filter20_d)">
<path d="M223.777 88.2031H221.122C220.092 88.2031 219.99 89.5286 220.068 90.1913L221.122 94.9083C221.5 95.5581 222.512 96.6314 223.543 95.727C224.573 94.8226 225.013 93.401 225.104 92.8032C225.13 92.1535 225.167 90.6045 225.104 89.6065L225.102 89.5778C225.026 88.3567 225.016 88.2031 223.777 88.2031Z" fill="#F7F1D9"/>
</g>
<g filter="url(#filter21_d)">
<path d="M235.094 79.1761H233.22C232.479 79.4099 232.049 79.1761 231.932 77.8506C231.838 76.7902 232.231 74.0822 232.44 72.8607C233.689 69.9915 235.146 71.6652 235.719 72.8607C235.888 73.9392 236.226 76.4472 236.226 77.8506C236.226 79.254 235.471 79.319 235.094 79.1761Z" fill="#F7F1D9"/>
</g>
<g filter="url(#filter22_d)">
<path d="M232.911 100.913C232.74 99.5585 232.416 95.9453 232.39 94.334L235.527 94.8318C235.41 98.2104 234.871 105.326 233.653 106.761C232.435 108.195 232.512 106.622 232.677 105.786C233.198 104.223 233.076 102.216 232.911 100.913Z" fill="#F6DD8D"/>
</g>
<g filter="url(#filter23_d)">
<path d="M235.094 88.2829H233.22C232.479 88.049 232.049 88.2829 231.932 89.6084C231.838 90.6687 232.231 93.3768 232.44 94.5983C233.689 97.4675 235.146 95.7938 235.719 94.5983C235.888 93.5197 236.226 91.0118 236.226 89.6084C236.226 88.205 235.471 88.14 235.094 88.2829Z" fill="#F7F1D9"/>
</g>
<g filter="url(#filter24_d)">
<path d="M243.628 77.6178C243.082 80.0348 245.19 79.333 245.385 79.333C245.385 79.2291 245.627 79.0836 246.595 79.333C247.563 79.5825 247.935 79.2291 248 79.0212C248.091 77.137 248.063 73.1035 247.22 72.0431C246.166 70.7177 245.112 71.3024 244.448 72.355C243.917 73.197 243.68 76.2144 243.628 77.6178Z" fill="#F7F1D9"/>
</g>
<g filter="url(#filter25_d)">
<path d="M244.955 102.876C244.424 100.631 244.269 96.6522 244.334 95.0279L247.569 94.832C247.491 94.923 247.25 96.1712 247.063 98.978C246.828 102.487 247.023 103.578 247.297 106.034C247.515 107.999 246.763 107.554 246.36 107.087C246.113 106.619 245.485 105.122 244.955 102.876Z" fill="#F6DD8D"/>
</g>
<g filter="url(#filter26_d)">
<path d="M243.628 90.0111C243.082 87.5942 245.19 88.2959 245.385 88.2959C245.385 88.3998 245.627 88.5453 246.595 88.2959C247.563 88.0464 247.935 88.3998 248 88.6077C248.091 90.4919 248.063 94.5254 247.22 95.5858C246.166 96.9113 245.112 96.3265 244.448 95.2739C243.917 94.4319 243.68 91.4146 243.628 90.0111Z" fill="#F7F1D9"/>
</g>
<g filter="url(#filter27_d)">
<path d="M255.035 78.6232C255.247 79.9293 256.18 79.7927 256.869 79.5588C257.377 79.5588 256.908 79.2781 258.47 79.5588C260.031 79.8395 260.187 78.2983 260.07 77.4927L259.68 74.9977C259.446 73.5813 258.657 70.8654 257.377 71.3332C256.096 71.801 255.412 73.1915 255.23 73.8282C254.895 74.9977 254.8 77.1808 255.035 78.6232Z" fill="#F7F1D9"/>
</g>
<g filter="url(#filter28_d)">
<path d="M256.165 104.576L255.454 94.6453C256.235 94.5525 258.076 94.4602 259.105 94.9635C258.897 96.4189 258.422 99.8592 258.234 101.263C258 103.017 258.508 106.993 258.703 107.539C258.898 108.085 258.625 109.176 257.649 108.436C256.868 107.843 256.335 105.616 256.165 104.576Z" fill="#F6DD8D"/>
</g>
<g filter="url(#filter29_d)">
<path d="M255.035 89.2928C255.247 87.9867 256.18 88.1233 256.869 88.3572C257.377 88.3572 256.908 88.6379 258.47 88.3572C260.031 88.0766 260.187 89.6177 260.07 90.4234L259.68 92.9183C259.446 94.3347 258.657 97.0506 257.377 96.5828C256.096 96.115 255.412 94.7246 255.23 94.0878C254.895 92.9183 254.8 90.7352 255.035 89.2928Z" fill="#F7F1D9"/>
</g>
<g filter="url(#filter30_d)">
<path d="M267.898 107.426C267.195 104.307 266.61 98.0438 266.688 94.6782C267.73 94.4906 270.078 94.3605 271.138 95.3409C271.021 97.0562 270.701 100.838 270.357 102.241C269.928 103.995 270.279 109.063 270.591 110.856C270.904 112.65 269.342 112.065 268.874 111.129C268.499 110.381 268.067 108.348 267.898 107.426Z" fill="#F6DD8D"/>
</g>
<g filter="url(#filter31_d)">
<path d="M266.179 93.2359C265.71 90.7098 266.374 88.9607 266.764 88.4019C267.09 87.9601 268.201 87.2714 270.043 88.0511C271.886 88.8307 272.112 90.1692 271.995 90.7409C272.021 91.0658 271.948 92.2691 271.449 94.4834C270.949 96.6977 269.913 97.1473 269.458 97.0953C268.56 96.8614 266.647 95.762 266.179 93.2359Z" fill="#F7F1D9"/>
</g>
<g filter="url(#filter32_d)">
<path d="M266.179 75.143C265.71 77.6691 266.374 79.4182 266.764 79.977C267.09 80.4188 268.201 81.1075 270.043 80.3278C271.886 79.5482 272.112 78.2097 271.995 77.638C272.021 77.3131 271.948 76.1098 271.449 73.8955C270.949 71.6812 269.913 71.2316 269.458 71.2836C268.56 71.5175 266.647 72.6169 266.179 75.143Z" fill="#F7F1D9"/>
</g>
<line x1="147" y1="66.85" x2="335" y2="66.85" stroke="#F7F7F7" stroke-width="0.3"/>
<g filter="url(#filter33_d)">
<path d="M267.628 31.5497C267.445 33.135 267.089 36.3369 267.12 36.4616C268.632 34.1198 270.479 35.7728 270.96 36.8124C271.038 34.3694 270.624 29.0372 270.403 27.3057C270.012 24.2553 270.012 21.7341 270.012 20.6784C270.012 20.319 269.895 19.7818 269.466 20.0937C269.037 20.4055 268.607 21.9259 268.373 24.5768C268.186 26.6975 267.771 30.2112 267.628 31.5497Z" fill="#F6DD8D"/>
</g>
<g filter="url(#filter34_d)">
<path d="M266.929 37.2853C267.085 36.0768 267.461 35.9266 267.628 35.7841C269.147 34.4868 270.568 35.8331 271.027 36.9344L271.535 38.7666C272.128 39.8582 272.068 41.2746 271.964 41.8464C271.821 42.0153 271.324 42.6182 270.481 43.6786C269.638 44.7389 268.62 44.4063 268.217 44.1074L267.124 42.821C266.694 42.587 265.953 41.7372 266.421 40.209C267.007 38.2988 266.773 38.4938 266.929 37.2853Z" fill="#F7F1D9"/>
</g>
<g filter="url(#filter35_d)">
<path d="M266.929 59.1405C267.085 60.349 267.461 60.4991 267.628 60.6417C269.147 61.939 270.568 60.5927 271.027 59.4914L271.535 57.6591C272.128 56.5676 272.068 55.1512 271.964 54.5794C271.821 54.4105 271.324 53.8075 270.481 52.7472C269.638 51.6868 268.62 52.0195 268.217 52.3184L267.124 53.6048C266.694 53.8387 265.953 54.6886 266.421 56.2167C267.007 58.1269 266.773 57.932 266.929 59.1405Z" fill="#F7F1D9"/>
</g>
<g filter="url(#filter36_d)">
<path d="M257.091 29.3167C256.56 31.1255 256.103 34.7706 256.038 36.109C257.753 33.6368 259.003 35.2278 259.469 36.3293C259.755 32.9118 259.901 25.2546 258.652 23.5081C257.403 21.7616 257.325 23.5601 257.442 24.6776C257.546 25.4703 257.622 27.5078 257.091 29.3167Z" fill="#F6DD8D"/>
</g>
<g filter="url(#filter37_d)">
<path d="M255.724 37.1139C255.974 35.9599 256.31 35.8274 256.466 35.5546C258.027 33.8705 259.133 35.4246 259.472 36.3732L259.628 39.5309C260.065 41.8075 259.55 42.6366 259.237 42.7665C258.704 42.9354 257.332 43.2343 256.115 43.0784C254.897 42.9224 254.826 41.9998 254.943 41.558C255.1 40.5574 255.474 38.2678 255.724 37.1139Z" fill="#F7F1D9"/>
</g>
<g filter="url(#filter38_d)">
<path d="M255.724 58.8685C255.974 60.0225 256.31 60.155 256.466 60.4279C258.027 62.112 259.133 60.5578 259.472 59.6092L259.628 56.4516C260.065 54.1749 259.55 53.3459 259.237 53.2159C258.704 53.047 257.332 52.7481 256.115 52.904C254.897 53.06 254.826 53.9826 254.943 54.4244C255.1 55.425 255.474 57.7146 255.724 58.8685Z" fill="#F7F1D9"/>
</g>
<g filter="url(#filter39_d)">
<path d="M243.561 36.0327L244.647 28.699C244.738 28.3612 244.935 27.319 244.998 25.8532C245.06 24.3874 245.675 23.3713 245.974 23.0464C246.299 22.5916 247.028 22.0172 247.34 23.3583C247.726 25.0149 247.763 34.6322 248.366 35.6099C248.374 35.6203 248.381 35.6307 248.388 35.641C248.381 35.6319 248.373 35.6215 248.366 35.6099C247.261 34.0377 245.411 33.1146 243.561 36.0327Z" fill="#F6DD8D"/>
</g>
<g filter="url(#filter40_d)">
<path d="M242.539 40.4332C243.257 38.9363 243.515 36.8987 243.554 36.0671C245.708 32.7301 247.679 34.4427 248.394 35.7162C248.459 35.8332 248.808 36.7688 249.682 39.5756C250.557 42.3824 249.084 43.6819 248.238 43.9807C247.405 43.9937 245.435 44.0431 244.217 44.1367C242.999 44.2302 242.357 43.474 242.187 43.0841C242.005 42.8242 241.821 41.9302 242.539 40.4332Z" fill="#F7F1D9"/>
</g>
<g filter="url(#filter41_d)">
<path d="M242.539 54.8676C243.257 56.3645 243.515 58.4021 243.554 59.2337C245.708 62.5707 247.679 60.858 248.394 59.5846C248.459 59.4676 248.808 58.532 249.682 55.7252C250.557 52.9184 249.084 51.6189 248.238 51.32C247.405 51.307 245.435 51.2577 244.217 51.1641C242.999 51.0705 242.357 51.8268 242.187 52.2167C242.005 52.4766 241.821 53.3706 242.539 54.8676Z" fill="#F7F1D9"/>
</g>
<g filter="url(#filter42_d)">
<path d="M232.711 25.9033C232.75 29.178 231.691 35.4119 231.617 36.1707C233.455 32.7194 235.664 34.7474 236.445 36.0728L235.717 30.4644C235.522 29.3209 235.131 26.8078 235.131 25.9033C235.131 24.9989 234.767 24.0191 234.585 23.6423C234.364 23.3824 233.851 22.8158 233.57 22.6287C233.289 22.4416 233.141 22.5507 233.102 22.6287C232.958 22.6287 232.68 23.2836 232.711 25.9033Z" fill="#F6DD8D"/>
</g>
<g filter="url(#filter43_d)">
<path d="M230.798 39.2749C231.172 38.3081 231.5 36.7669 231.617 36.1172C233.491 32.7178 235.651 34.7008 236.497 36.1172C236.627 36.9489 237.082 39.0878 237.863 40.9902C238.644 42.8926 237.538 43.888 236.887 44.1479H232.359C231.943 44.1219 231.024 43.8516 230.681 42.9783C230.251 41.8868 230.329 40.4834 230.798 39.2749Z" fill="#F7F1D9"/>
</g>
<g filter="url(#filter44_d)">
<path d="M230.798 56.1392C231.172 57.106 231.5 58.6471 231.617 59.2969C233.491 62.6962 235.651 60.7133 236.497 59.2969C236.627 58.4652 237.082 56.3263 237.863 54.4239C238.644 52.5215 237.538 51.5261 236.887 51.2662H232.359C231.943 51.2922 231.024 51.5625 230.681 52.4357C230.251 53.5273 230.329 54.9307 230.798 56.1392Z" fill="#F7F1D9"/>
</g>
<g filter="url(#filter45_d)">
<path d="M221.292 23.4337C220.277 23.9404 220.45 36.6864 220.45 36.9203C221.16 33.8851 223.317 34.9866 223.954 36.2594C223.719 34.4272 222.971 30.2948 222.541 28.5405C222.244 27.3251 222.398 24.5512 222.541 23.4337C222.167 22.2485 221.553 22.9399 221.292 23.4337Z" fill="#F6DD8D"/>
</g>
<g filter="url(#filter46_d)">
<path d="M220.314 40.1568C220.345 39.3148 220.405 37.441 220.431 36.6093C220.704 35.9336 221.501 34.6679 222.5 35.011C223.499 35.3541 223.931 36.1415 224.062 36.4534C224.374 37.5839 224.413 38.8314 224.764 40.3908C225.17 42.19 224.855 42.7298 224.53 42.8077C224.439 42.8077 223.866 42.8311 222.305 42.9247C220.744 43.0183 220.327 42.5219 220.314 42.262C220.301 41.9111 220.283 40.9989 220.314 40.1568Z" fill="#F7F1D9"/>
</g>
<g filter="url(#filter47_d)">
<path d="M220.314 55.9721C220.345 56.8141 220.405 58.6879 220.431 59.5196C220.704 60.1953 221.501 61.461 222.5 61.1179C223.499 60.7749 223.931 59.9874 224.062 59.6755C224.374 58.545 224.413 57.2975 224.764 55.7382C225.17 53.9389 224.855 53.3991 224.53 53.3212C224.439 53.3212 223.866 53.2978 222.305 53.2042C220.744 53.1107 220.327 53.607 220.314 53.8669C220.301 54.2178 220.283 55.13 220.314 55.9721Z" fill="#F7F1D9"/>
</g>
<g filter="url(#filter48_d)">
<path d="M208.437 57.1372C208.749 57.6985 209.061 58.8264 209.179 59.3202C210.74 62.4 212.145 60.8796 212.848 60.1389C213.551 59.3982 212.848 58.5016 213.551 56.9812C214.113 55.7649 213.967 54.9411 213.824 54.6812L212.38 52.81C212.015 52.3941 211.037 51.734 210.037 52.4201C209.038 53.1062 208.398 54.2134 208.203 54.6812C208.151 55.2659 208.125 56.5758 208.437 57.1372Z" fill="#F7F1D9"/>
</g>
<g filter="url(#filter49_d)">
<path d="M209.725 26.848C209.1 31.0972 209.048 37.4544 209.087 37.7273C210.582 34.227 212.297 35.7201 213.057 36.9685L212.028 28.0175C212.158 26.4971 211.638 22.8716 211.169 21.1564C210.626 19.1649 209.972 20.2078 209.959 20.8835C210.089 21.4552 210.225 23.4486 209.725 26.848Z" fill="#F6DD8D"/>
</g>
<g filter="url(#filter50_d)">
<path d="M208.437 39.5171C208.749 38.9558 209.061 37.8278 209.179 37.3341C210.74 34.2543 212.145 35.7747 212.848 36.5154C213.551 37.2561 212.848 38.1527 213.551 39.6731C214.113 40.8894 213.967 41.7132 213.824 41.9731L212.38 43.8443C212.015 44.2602 211.037 44.9203 210.037 44.2342C209.038 43.5481 208.398 42.4409 208.203 41.9731C208.151 41.3884 208.125 40.0785 208.437 39.5171Z" fill="#F7F1D9"/>
</g>
<g filter="url(#filter51_d)">
<path d="M196.894 57.5482C197.487 60.6668 199.021 61.1989 199.763 61.1729C201.073 61.1402 201.557 59.6333 202.007 58.7956C202.359 58.4968 202.78 56.7841 202.281 55.599C201.781 54.4139 200.797 53.9487 200.056 53.5328C198.82 53.4549 196.3 54.4295 196.894 57.5482Z" fill="#F7F1D9"/>
</g>
<g filter="url(#filter52_d)">
<path d="M198.573 28.4951C198.456 33.2511 197.614 36.4724 197.575 36.7453C199.266 34.1507 201.032 35.5214 201.398 36.5005C201.648 34.7229 201.24 31.159 201.032 29.7426C200.824 28.3262 200.462 26.6115 200.33 25.7273C200.076 24.0305 200.03 23.2193 199.9 23.0374C199.77 22.8555 199.487 22.4993 199.315 22.4137C199.043 22.2786 198.898 22.1811 198.573 22.4137C198.286 22.7196 198.034 23.9106 198.222 24.5968C198.409 25.2829 198.534 27.4816 198.573 28.4951Z" fill="#F6DD8D"/>
</g>
<g filter="url(#filter53_d)">
<path d="M196.894 38.8268C197.487 35.7082 199.021 35.1761 199.763 35.2021C201.073 35.2348 201.557 36.7417 202.007 37.5794C202.359 37.8782 202.78 39.5909 202.281 40.776C201.781 41.9611 200.797 42.4263 200.056 42.8422C198.82 42.9201 196.3 41.9455 196.894 38.8268Z" fill="#F7F1D9"/>
</g>
<g filter="url(#filter54_d)">
<path d="M184.775 57.3528C185.368 60.4715 187 61.1992 187.742 61.1732C189.366 61.0484 189.993 59.6918 190.123 58.9511C190.474 58.6522 191.091 57.6023 190.591 56.4172C190.092 55.2321 188.483 54.1041 187.742 53.6883C186.506 53.6103 184.182 54.2341 184.775 57.3528Z" fill="#F7F1D9"/>
</g>
<g filter="url(#filter55_d)">
<path d="M186.726 25.9603C186.539 31.2309 185.802 35.0125 185.451 36.195C185.998 35.0255 187.877 33.3556 189.813 35.8278C189.813 33.0522 188.769 26.4281 188.209 23.6213C187.793 22.2049 186.913 20.6897 186.726 25.9603Z" fill="#F6DD8D"/>
</g>
<g filter="url(#filter56_d)">
<path d="M184.775 38.2117C185.368 35.093 187 34.3653 187.742 34.3913C189.366 34.5161 189.993 35.8727 190.123 36.6133C190.474 36.9122 191.091 37.9622 190.591 39.1473C190.092 40.3324 188.483 41.4603 187.742 41.8761C186.506 41.9541 184.182 41.3304 184.775 38.2117Z" fill="#F7F1D9"/>
</g>
<g filter="url(#filter57_d)">
<path d="M175.652 30.5652C175.473 30.2141 175.208 29.6304 174.988 29.009C175.236 28.891 175.753 28.195 175.847 26.355C175.941 24.5149 175.756 23.977 175.652 23.938C175.522 23.5352 175.488 22.901 176.394 23.5871C177.299 24.2732 177.812 26.9397 177.955 28.1872L177.965 28.3615C177.651 29.6631 177.047 30.5076 177.018 30.5652C176.474 31.2512 175.88 30.851 175.652 30.5652Z" fill="#F6DD8D"/>
</g>
<g filter="url(#filter58_dd)">
<path d="M172.488 36.5755C172.441 36.6186 172.396 36.6558 172.353 36.6872L172.488 36.5755C173.177 35.9413 174.216 34.0321 173.719 30.5278C173.602 29.4362 173.313 27.1284 173.094 26.6294C172.876 26.1304 172.925 25.3819 172.977 25.07C173.146 24.7062 173.641 24.1968 174.265 25.07C174.382 25.3429 174.609 26.1382 174.578 27.1362C174.562 27.6439 174.74 28.3279 174.968 28.9715C175.188 29.5929 175.453 30.1767 175.632 30.5278C175.86 30.8136 176.453 31.2137 176.998 30.5278C177.027 30.4702 177.631 29.6256 177.944 28.3241C178.055 27.8635 178.13 27.3457 178.13 26.7853C178.13 25.07 178.52 24.7971 178.715 24.8751C178.976 24.9011 179.496 25.226 179.496 26.3175C179.496 27.4091 179.236 33.2956 179.106 36.1024C178.793 35.8217 178.195 35.6736 177.935 35.6346L176.998 35.4397C176.542 35.4137 175.522 35.4163 175.085 35.6346C174.648 35.8529 173.836 35.8035 173.485 35.7516L172.488 36.5755Z" fill="#F6DD8D"/>
</g>
<g filter="url(#filter59_d)">
<path d="M173.346 41.4802C171.191 40.5134 171.745 37.8807 172.292 36.6852L173.619 35.7496H174.829C175.61 35.2818 176.638 35.3467 177.054 35.4377L177.367 35.5546C177.77 35.5286 178.733 35.6482 179.357 36.3343C179.982 37.0204 180.216 38.3615 180.255 38.9462C179.787 41.2073 178.342 41.4802 177.796 41.6751C177.359 41.831 176.573 41.5062 176.234 41.3242C175.948 41.2722 175.243 41.2307 174.712 41.4802C174.181 41.7297 173.58 41.5841 173.346 41.4802Z" fill="#F7F1D9"/>
</g>
<g filter="url(#filter60_d)">
<path d="M173.346 55.0667C171.191 56.0335 171.745 58.6662 172.292 59.8617L173.619 60.7973H174.829C175.61 61.2651 176.638 61.2001 177.054 61.1092L177.367 60.9922C177.77 61.0182 178.733 60.8987 179.357 60.2126C179.982 59.5265 180.216 58.1854 180.255 57.6007C179.787 55.3396 178.342 55.0667 177.796 54.8718C177.359 54.7159 176.573 55.0407 176.234 55.2226C175.948 55.2746 175.243 55.3162 174.712 55.0667C174.181 54.8172 173.58 54.9628 173.346 55.0667Z" fill="#F7F1D9"/>
</g>
<g filter="url(#filter61_d)">
<path d="M163.28 26.206L163.593 29.7535L163.848 31.2485L164.061 32.2485C164.27 32.5818 164.813 33.0484 165.31 32.2485C165.31 28.1942 164.725 26.6738 164.061 26.0501C163.53 25.5511 163.319 25.9461 163.28 26.206Z" fill="#F6DD8D"/>
</g>
<g filter="url(#filter62_dd)">
<path d="M161.966 30.4739C162.56 33.3431 161.719 36.0875 161.225 37.1011C161.818 37.4442 162.591 37.374 162.903 37.296C163.333 37.0881 164.308 36.7035 164.777 36.8282C165.245 36.953 165.571 37.244 165.675 37.374C165.857 37.6209 166.331 38.0289 166.768 37.6858C167.205 37.3428 167.653 37.4909 167.822 37.6079V34.84C167.796 33.6056 167.673 30.8403 167.392 29.6552C167.041 28.1738 166.065 26.6145 165.597 26.4196C165.128 26.2246 165.167 26.5365 165.089 26.5365C165.027 26.5365 165.063 26.7444 165.089 26.8484C165.167 26.8874 165.378 27.2928 165.597 28.6026C165.815 29.9125 165.506 31.5654 165.323 32.2281C164.827 33.0281 164.284 32.5614 164.074 32.2281L163.861 31.2282L163.606 29.7332C163.398 28.8496 162.958 27.0589 162.864 26.9653L162.747 26.8484H162.396C162.005 26.8614 161.373 27.6047 161.966 30.4739Z" fill="#F6DD8D"/>
</g>
<g filter="url(#filter63_d)">
<path d="M160.936 40.0972V37.6802C160.949 37.4463 161.084 37.0097 161.677 37.1345C162.271 37.2592 162.809 37.0825 163.004 36.9785C164.316 36.3236 165.243 36.8615 165.542 37.2124C166.01 37.6802 165.971 37.4463 167.064 37.3683C168.351 37.2766 168.691 38.4469 168.704 39.0836C168.717 39.2785 168.696 39.9257 168.509 40.9548C168.321 41.984 167.728 42.3453 167.455 42.3972C167.025 42.5402 165.917 42.6935 164.917 42.1633C163.668 41.5006 163.746 42.0464 162.887 42.0854C162.2 42.1166 161.794 41.7605 161.677 41.5786C161.482 41.2927 161.076 40.6898 161.014 40.565C160.951 40.4403 160.936 40.2012 160.936 40.0972Z" fill="#F7F1D9"/>
</g>
<g filter="url(#filter64_d)">
<path d="M160.936 57.7485V60.1655C160.949 60.3994 161.084 60.836 161.677 60.7113C162.271 60.5865 162.809 60.7632 163.004 60.8672C164.316 61.5221 165.243 60.9842 165.542 60.6333C166.01 60.1655 165.971 60.3994 167.064 60.4774C168.351 60.5691 168.691 59.3988 168.704 58.7621C168.717 58.5672 168.696 57.92 168.509 56.8909C168.321 55.8617 167.728 55.5004 167.455 55.4485C167.025 55.3055 165.917 55.1522 164.917 55.6824C163.668 56.3451 163.746 55.7993 162.887 55.7603C162.2 55.7291 161.794 56.0852 161.677 56.2671C161.482 56.553 161.076 57.1559 161.014 57.2807C160.951 57.4054 160.936 57.6445 160.936 57.7485Z" fill="#F7F1D9"/>
</g>
<path d="M150.091 27.8705L151.262 31.5739L151.457 26.5059C150.115 25.9134 149.961 27.1688 150.091 27.8705Z" fill="#F6DD8D"/>
<g filter="url(#filter65_d)">
<path d="M151.341 29.8193C151.341 32.7821 150.612 35.7318 150.248 36.8364C150.417 36.6155 150.935 36.2672 151.653 36.6415C152.372 37.0157 152.994 37.2652 153.215 37.3432C154.401 36.4699 155.609 36.8754 156.064 37.1872C155.003 34.9729 154.607 33.1719 154.542 32.5482C154.48 28.9617 154.022 27.5193 153.8 27.2464C152.676 25.0633 151.849 25.4531 151.575 25.9209C151.497 25.9859 151.341 26.8565 151.341 29.8193Z" fill="#F6DD8D"/>
</g>
<g filter="url(#filter66_d)">
<path d="M150.272 36.7294C150.529 36.4356 151.203 36.2643 151.693 36.6559C152.134 36.7907 152.967 37.3261 153.449 37.1353C153.764 37.0108 154.039 36.9702 154.365 36.8273C154.588 36.7294 155.393 36.8273 155.647 37.0097C155.883 37.0097 155.981 37.0721 156.151 37.3261C156.3 37.4656 156.275 37.5616 156.481 37.8132C156.563 38.1246 156.563 38.5458 156.563 38.8527C156.563 39.2743 156.534 39.6717 156.436 40.0831C156.319 40.5717 156.059 41.2402 155.611 41.5293C155.287 41.7385 154.632 41.5317 154.365 41.2833C153.926 40.8739 153.255 40.9348 152.763 41.1778C152.323 41.3947 151.952 41.7101 151.445 41.7101C151.048 41.7101 150.712 41.3561 150.529 41.0322C150.286 40.6006 150.004 40.3513 149.975 39.8389C149.96 39.5679 149.832 39.2931 149.868 38.9883C149.786 38.7372 149.832 38.4231 149.832 38.1597L149.832 38.1544C149.832 37.6837 149.832 36.9577 150.272 36.7294Z" fill="#F7F1D9"/>
</g>
<g filter="url(#filter67_d)">
<path d="M150.272 60.8722C150.529 61.1659 151.203 61.3373 151.693 60.9456C152.134 60.8109 152.967 60.2755 153.449 60.4663C153.764 60.5907 154.039 60.6313 154.365 60.7743C154.588 60.8722 155.393 60.7743 155.647 60.5918C155.883 60.5918 155.981 60.5295 156.151 60.2755C156.3 60.1359 156.275 60.04 156.481 59.7883C156.563 59.477 156.563 59.0558 156.563 58.7488C156.563 58.3272 156.534 57.9298 156.436 57.5185C156.319 57.0298 156.059 56.3614 155.611 56.0722C155.287 55.863 154.632 56.0699 154.365 56.3183C153.926 56.7276 153.255 56.6668 152.763 56.4238C152.323 56.2069 151.952 55.8915 151.445 55.8915C151.048 55.8915 150.712 56.2454 150.529 56.5694C150.286 57.001 150.004 57.2503 149.975 57.7627C149.96 58.0337 149.832 58.3084 149.868 58.6132C149.786 58.8644 149.832 59.1785 149.832 59.4418L149.832 59.4471C149.832 59.9179 149.832 60.6439 150.272 60.8722Z" fill="#F7F1D9"/>
</g>
<path d="M97.7155 162.312H30.9668V236.807H97.7155V162.312Z" fill="#BCBCBC"/>
<path d="M103.41 81.5759L39.165 80.9821C39.3266 71.6427 41.5037 62.4717 46.2627 54.2649C49.3882 48.875 49.3206 43.0092 48.5674 38.0673C47.4051 30.441 50.108 22.6382 56.1143 17.7836C60.7044 14.0671 66.4975 12.1541 72.4026 12.4047L73.6501 12.4565C77.7135 12.6251 81.6694 13.8098 85.1546 15.9019C88.6397 17.994 91.5424 20.9265 93.5962 24.43C95.6836 28.1702 96.5254 32.476 95.9999 36.725C95.5927 40.7231 96.5671 44.7618 98.8462 48.839C102.778 57.792 103.63 69.2485 103.41 81.5759Z" fill="black"/>
<path d="M146.392 328.364L133.783 331.647L72.3843 198.141L76.2217 328.364H63.613C50.1398 267.098 25.8147 196.39 36.751 174.066L101.987 170.236L146.392 328.364Z" fill="#52B6C3"/>
<path d="M71.8361 59.1657C81.2218 59.1657 88.8304 51.5717 88.8304 42.204C88.8304 32.8362 81.2218 25.2422 71.8361 25.2422C62.4504 25.2422 54.8418 32.8362 54.8418 42.204C54.8418 51.5717 62.4504 59.1657 71.8361 59.1657Z" fill="#FFB9B9"/>
<path d="M86.6381 73.3909L58.6797 71.7494C61.4197 65.4727 62.5142 59.4284 61.4207 53.6934H82.2525C82.2053 58.0968 84.4008 65.7138 86.6381 73.3909Z" fill="#FFB9B9"/>
<path d="M104.181 175.162L42.7822 179.54L49.0863 70.9294L59.7765 67.9199L71.8367 70.6556L83.897 64.6367L91.5719 67.373L104.181 175.162Z" fill="#52B6C3"/>
<path d="M53.1974 253.405L11.2598 243.83C23.73 202.556 46.1957 108.134 38.9441 74.4855L60.8723 64.6367L53.1974 253.405Z" fill="#E8E7E7"/>
<path d="M32.9135 134.125L17.0156 124.276L30.5737 84.6435C32.0859 80.5539 34.9823 77.1202 38.7621 74.936L43.3294 72.2969L40.5884 112.239L32.9135 134.125Z" fill="#E8E7E7"/>
<path d="M140.636 244.375C127.4 252.019 94.3133 256.279 79.7857 250.941C78.7167 213.65 76.6202 108.167 83.3491 63.541L107.47 73.3898L105.277 102.936C93.7454 128.211 127.231 216.245 140.636 244.375Z" fill="#E8E7E7"/>
<path d="M138.718 129.201L123.916 124.276L104.181 101.843L107.47 73.3906L140.362 119.352L138.718 129.201Z" fill="#E8E7E7"/>
<path d="M92.33 150.496C92.5722 151.557 93.2259 152.479 94.1479 153.059C95.0698 153.64 96.1848 153.831 97.2483 153.593L109.813 150.753L107.997 142.748L95.4321 145.587C94.3686 145.828 93.4443 146.48 92.8626 147.401C92.2808 148.321 92.0893 149.435 92.33 150.496Z" fill="#FFB9B9"/>
<path d="M86.6376 37.8256C77.1983 33.9516 67.8757 33.6713 58.6792 37.2785L54.8418 23.5996H89.9268L86.6376 37.8256Z" fill="black"/>
<path d="M103.632 141.238L110.758 154.369C122.745 151.033 133.134 140.513 143.103 128.106L140.361 119.352L123.367 123.729L103.632 141.238Z" fill="#E8E7E7"/>
<path d="M98.424 114.153H96.2311C96.2311 83.1981 89.8454 61.6261 83.6224 61.6261L83.0742 59.4375C88.655 59.4375 92.213 68.4156 94.215 75.9475C96.9292 86.1583 98.424 99.7265 98.424 114.153Z" fill="#414141"/>
<path d="M47.9897 106.494H45.7969C45.7969 78.1445 52.2268 60.5332 61.6948 60.5332L61.1466 62.7218C54.5976 62.7218 47.9897 76.2567 47.9897 106.494Z" fill="#414141"/>
<path d="M97.3278 120.172C100.355 120.172 102.81 117.722 102.81 114.7C102.81 111.678 100.355 109.229 97.3278 109.229C94.3001 109.229 91.8457 111.678 91.8457 114.7C91.8457 117.722 94.3001 120.172 97.3278 120.172Z" fill="#414141"/>
<path d="M39.2182 119.626H37.0254C37.0254 111.782 41.452 105.4 46.8931 105.4V107.589C42.6611 107.589 39.2182 112.989 39.2182 119.626Z" fill="#414141"/>
<path d="M56.7602 119.626H54.5674C54.5674 112.989 51.1246 107.589 46.8926 107.589V105.4C52.3337 105.4 56.7602 111.782 56.7602 119.626Z" fill="#414141"/>
<path d="M55.6645 122.362C56.8756 122.362 57.8573 121.382 57.8573 120.173C57.8573 118.964 56.8756 117.984 55.6645 117.984C54.4534 117.984 53.4717 118.964 53.4717 120.173C53.4717 121.382 54.4534 122.362 55.6645 122.362Z" fill="#414141"/>
<path d="M38.1215 122.362C39.3326 122.362 40.3143 121.382 40.3143 120.173C40.3143 118.964 39.3326 117.984 38.1215 117.984C36.9105 117.984 35.9287 118.964 35.9287 120.173C35.9287 121.382 36.9105 122.362 38.1215 122.362Z" fill="#414141"/>
<path d="M10.7119 100.047L24.3936 102.485L55.6647 146.864L39.0516 142.963L10.7119 100.047Z" fill="#52B6C3"/>
<path d="M8.28483 99.5039C8.07634 99.507 7.87253 99.566 7.69471 99.6747C7.51688 99.7834 7.37159 99.9377 7.27401 100.122C7.17642 100.306 7.13012 100.512 7.13997 100.72C7.14983 100.928 7.21548 101.129 7.33003 101.303L36.5607 145.569C36.7238 145.816 36.9758 145.992 37.2647 146.059L50.8649 149.253C51.0942 149.307 51.3345 149.29 51.5539 149.204C51.7733 149.119 51.9614 148.969 52.0934 148.774C52.2253 148.579 52.2948 148.349 52.2926 148.114C52.2905 147.879 52.2167 147.65 52.0812 147.457L19.9877 101.912C19.9007 101.788 19.79 101.682 19.662 101.601C19.534 101.519 19.3911 101.464 19.2417 101.438L8.50406 99.5237C8.43171 99.5107 8.35834 99.5041 8.28483 99.5039Z" fill="#414141"/>
<path d="M26.5195 131.153L27.3319 139.321L40.1515 138.051C41.2367 137.943 42.2346 137.41 42.9257 136.568C43.6169 135.726 43.9446 134.645 43.8369 133.562C43.7292 132.479 43.1949 131.483 42.3515 130.793C41.508 130.103 40.4246 129.776 39.3394 129.883L26.5195 131.153Z" fill="#FFB9B9"/>
<path d="M15.3711 130.207C15.3897 132.992 16.5103 135.657 18.4888 137.62C20.4672 139.584 23.1431 140.688 25.9334 140.691H28.0413L29.576 127.927L16.8696 123.361L15.3711 130.207Z" fill="#E8E7E7"/>
</g>
<defs>
<filter id="filter0_d" x="147.563" y="94.6465" width="9.97922" height="13.802" filterUnits="userSpaceOnUse" color-interpolation-filters="sRGB">
<feFlood flood-opacity="0" result="BackgroundImageFix"/>
<feColorMatrix in="SourceAlpha" type="matrix" values="0 0 0 0 0 0 0 0 0 0 0 0 0 0 0 0 0 0 127 0" result="hardAlpha"/>
<feOffset dx="0.5" dy="0.5"/>
<feGaussianBlur stdDeviation="1"/>
<feColorMatrix type="matrix" values="0 0 0 0 0.458333 0 0 0 0 0.458333 0 0 0 0 0.458333 0 0 0 0.2 0"/>
<feBlend mode="normal" in2="BackgroundImageFix" result="effect1_dropShadow"/>
<feBlend mode="normal" in="SourceGraphic" in2="effect1_dropShadow" result="shape"/>
</filter>
<filter id="filter1_d" x="147.687" y="89.7285" width="11.1923" height="10.3705" filterUnits="userSpaceOnUse" color-interpolation-filters="sRGB">
<feFlood flood-opacity="0" result="BackgroundImageFix"/>
<feColorMatrix in="SourceAlpha" type="matrix" values="0 0 0 0 0 0 0 0 0 0 0 0 0 0 0 0 0 0 127 0" result="hardAlpha"/>
<feOffset dx="0.5" dy="1"/>
<feGaussianBlur stdDeviation="1"/>
<feColorMatrix type="matrix" values="0 0 0 0 0.458333 0 0 0 0 0.458333 0 0 0 0 0.458333 0 0 0 0.2 0"/>
<feBlend mode="normal" in2="BackgroundImageFix" result="effect1_dropShadow"/>
<feBlend mode="normal" in="SourceGraphic" in2="effect1_dropShadow" result="shape"/>
</filter>
<filter id="filter2_d" x="147.813" y="69.7793" width="11.1923" height="10.3705" filterUnits="userSpaceOnUse" color-interpolation-filters="sRGB">
<feFlood flood-opacity="0" result="BackgroundImageFix"/>
<feColorMatrix in="SourceAlpha" type="matrix" values="0 0 0 0 0 0 0 0 0 0 0 0 0 0 0 0 0 0 127 0" result="hardAlpha"/>
<feOffset dx="0.5" dy="0.5"/>
<feGaussianBlur stdDeviation="1"/>
<feColorMatrix type="matrix" values="0 0 0 0 0.458333 0 0 0 0 0.458333 0 0 0 0 0.458333 0 0 0 0.2 0"/>
<feBlend mode="normal" in2="BackgroundImageFix" result="effect1_dropShadow"/>
<feBlend mode="normal" in="SourceGraphic" in2="effect1_dropShadow" result="shape"/>
</filter>
<filter id="filter3_d" x="158.674" y="94.7324" width="11.6849" height="16.2169" filterUnits="userSpaceOnUse" color-interpolation-filters="sRGB">
<feFlood flood-opacity="0" result="BackgroundImageFix"/>
<feColorMatrix in="SourceAlpha" type="matrix" values="0 0 0 0 0 0 0 0 0 0 0 0 0 0 0 0 0 0 127 0" result="hardAlpha"/>
<feOffset dx="0.5" dy="0.5"/>
<feGaussianBlur stdDeviation="1"/>
<feColorMatrix type="matrix" values="0 0 0 0 0.458333 0 0 0 0 0.458333 0 0 0 0 0.458333 0 0 0 0.2 0"/>
<feBlend mode="normal" in2="BackgroundImageFix" result="effect1_dropShadow"/>
<feBlend mode="normal" in="SourceGraphic" in2="effect1_dropShadow" result="shape"/>
</filter>
<filter id="filter4_d" x="158.874" y="89.4766" width="12.4361" height="11.0373" filterUnits="userSpaceOnUse" color-interpolation-filters="sRGB">
<feFlood flood-opacity="0" result="BackgroundImageFix"/>
<feColorMatrix in="SourceAlpha" type="matrix" values="0 0 0 0 0 0 0 0 0 0 0 0 0 0 0 0 0 0 127 0" result="hardAlpha"/>
<feOffset dx="0.5" dy="1"/>
<feGaussianBlur stdDeviation="1"/>
<feColorMatrix type="matrix" values="0 0 0 0 0.458333 0 0 0 0 0.458333 0 0 0 0 0.458333 0 0 0 0.2 0"/>
<feBlend mode="normal" in2="BackgroundImageFix" result="effect1_dropShadow"/>
<feBlend mode="normal" in="SourceGraphic" in2="effect1_dropShadow" result="shape"/>
</filter>
<filter id="filter5_d" x="158.927" y="69.7773" width="12.4361" height="11.0373" filterUnits="userSpaceOnUse" color-interpolation-filters="sRGB">
<feFlood flood-opacity="0" result="BackgroundImageFix"/>
<feColorMatrix in="SourceAlpha" type="matrix" values="0 0 0 0 0 0 0 0 0 0 0 0 0 0 0 0 0 0 127 0" result="hardAlpha"/>
<feOffset dx="0.5" dy="0.5"/>
<feGaussianBlur stdDeviation="1"/>
<feColorMatrix type="matrix" values="0 0 0 0 0.458333 0 0 0 0 0.458333 0 0 0 0 0.458333 0 0 0 0.2 0"/>
<feBlend mode="normal" in2="BackgroundImageFix" result="effect1_dropShadow"/>
<feBlend mode="normal" in="SourceGraphic" in2="effect1_dropShadow" result="shape"/>
</filter>
<filter id="filter6_d" x="169.795" y="95.0234" width="13.0263" height="17.8774" filterUnits="userSpaceOnUse" color-interpolation-filters="sRGB">
<feFlood flood-opacity="0" result="BackgroundImageFix"/>
<feColorMatrix in="SourceAlpha" type="matrix" values="0 0 0 0 0 0 0 0 0 0 0 0 0 0 0 0 0 0 127 0" result="hardAlpha"/>
<feOffset dx="0.5" dy="0.5"/>
<feGaussianBlur stdDeviation="1"/>
<feColorMatrix type="matrix" values="0 0 0 0 0.458333 0 0 0 0 0.458333 0 0 0 0 0.458333 0 0 0 0.2 0"/>
<feBlend mode="normal" in2="BackgroundImageFix" result="effect1_dropShadow"/>
<feBlend mode="normal" in="SourceGraphic" in2="effect1_dropShadow" result="shape"/>
</filter>
<filter id="filter7_d" x="170.038" y="89.4766" width="13.4836" height="11.6096" filterUnits="userSpaceOnUse" color-interpolation-filters="sRGB">
<feFlood flood-opacity="0" result="BackgroundImageFix"/>
<feColorMatrix in="SourceAlpha" type="matrix" values="0 0 0 0 0 0 0 0 0 0 0 0 0 0 0 0 0 0 127 0" result="hardAlpha"/>
<feOffset dx="0.5" dy="1"/>
<feGaussianBlur stdDeviation="1"/>
<feColorMatrix type="matrix" values="0 0 0 0 0.458333 0 0 0 0 0.458333 0 0 0 0 0.458333 0 0 0 0.2 0"/>
<feBlend mode="normal" in2="BackgroundImageFix" result="effect1_dropShadow"/>
<feBlend mode="normal" in="SourceGraphic" in2="effect1_dropShadow" result="shape"/>
</filter>
<filter id="filter8_d" x="170.049" y="69.7793" width="13.4836" height="11.6096" filterUnits="userSpaceOnUse" color-interpolation-filters="sRGB">
<feFlood flood-opacity="0" result="BackgroundImageFix"/>
<feColorMatrix in="SourceAlpha" type="matrix" values="0 0 0 0 0 0 0 0 0 0 0 0 0 0 0 0 0 0 127 0" result="hardAlpha"/>
<feOffset dx="0.5" dy="0.5"/>
<feGaussianBlur stdDeviation="1"/>
<feColorMatrix type="matrix" values="0 0 0 0 0.458333 0 0 0 0 0.458333 0 0 0 0 0.458333 0 0 0 0.2 0"/>
<feBlend mode="normal" in2="BackgroundImageFix" result="effect1_dropShadow"/>
<feBlend mode="normal" in="SourceGraphic" in2="effect1_dropShadow" result="shape"/>
</filter>
<filter id="filter9_d" x="184.319" y="93.502" width="8.49188" height="19.4186" filterUnits="userSpaceOnUse" color-interpolation-filters="sRGB">
<feFlood flood-opacity="0" result="BackgroundImageFix"/>
<feColorMatrix in="SourceAlpha" type="matrix" values="0 0 0 0 0 0 0 0 0 0 0 0 0 0 0 0 0 0 127 0" result="hardAlpha"/>
<feOffset dx="0.5" dy="0.5"/>
<feGaussianBlur stdDeviation="1"/>
<feColorMatrix type="matrix" values="0 0 0 0 0.458333 0 0 0 0 0.458333 0 0 0 0 0.458333 0 0 0 0.2 0"/>
<feBlend mode="normal" in2="BackgroundImageFix" result="effect1_dropShadow"/>
<feBlend mode="normal" in="SourceGraphic" in2="effect1_dropShadow" result="shape"/>
</filter>
<filter id="filter10_d" x="183.181" y="88.4668" width="10.2939" height="12.0614" filterUnits="userSpaceOnUse" color-interpolation-filters="sRGB">
<feFlood flood-opacity="0" result="BackgroundImageFix"/>
<feColorMatrix in="SourceAlpha" type="matrix" values="0 0 0 0 0 0 0 0 0 0 0 0 0 0 0 0 0 0 127 0" result="hardAlpha"/>
<feOffset dx="0.5" dy="1"/>
<feGaussianBlur stdDeviation="1"/>
<feColorMatrix type="matrix" values="0 0 0 0 0.458333 0 0 0 0 0.458333 0 0 0 0 0.458333 0 0 0 0.2 0"/>
<feBlend mode="normal" in2="BackgroundImageFix" result="effect1_dropShadow"/>
<feBlend mode="normal" in="SourceGraphic" in2="effect1_dropShadow" result="shape"/>
</filter>
<filter id="filter11_d" x="183.181" y="69.7793" width="10.2939" height="12.0614" filterUnits="userSpaceOnUse" color-interpolation-filters="sRGB">
<feFlood flood-opacity="0" result="BackgroundImageFix"/>
<feColorMatrix in="SourceAlpha" type="matrix" values="0 0 0 0 0 0 0 0 0 0 0 0 0 0 0 0 0 0 127 0" result="hardAlpha"/>
<feOffset dx="0.5" dy="0.5"/>
<feGaussianBlur stdDeviation="1"/>
<feColorMatrix type="matrix" values="0 0 0 0 0.458333 0 0 0 0 0.458333 0 0 0 0 0.458333 0 0 0 0.2 0"/>
<feBlend mode="normal" in2="BackgroundImageFix" result="effect1_dropShadow"/>
<feBlend mode="normal" in="SourceGraphic" in2="effect1_dropShadow" result="shape"/>
</filter>
<filter id="filter12_d" x="195.638" y="94.7402" width="8.29731" height="17.4848" filterUnits="userSpaceOnUse" color-interpolation-filters="sRGB">
<feFlood flood-opacity="0" result="BackgroundImageFix"/>
<feColorMatrix in="SourceAlpha" type="matrix" values="0 0 0 0 0 0 0 0 0 0 0 0 0 0 0 0 0 0 127 0" result="hardAlpha"/>
<feOffset dx="0.5" dy="0.5"/>
<feGaussianBlur stdDeviation="1"/>
<feColorMatrix type="matrix" values="0 0 0 0 0.458333 0 0 0 0 0.458333 0 0 0 0 0.458333 0 0 0 0.2 0"/>
<feBlend mode="normal" in2="BackgroundImageFix" result="effect1_dropShadow"/>
<feBlend mode="normal" in="SourceGraphic" in2="effect1_dropShadow" result="shape"/>
</filter>
<filter id="filter13_d" x="194.799" y="88.4688" width="10.1122" height="12.4099" filterUnits="userSpaceOnUse" color-interpolation-filters="sRGB">
<feFlood flood-opacity="0" result="BackgroundImageFix"/>
<feColorMatrix in="SourceAlpha" type="matrix" values="0 0 0 0 0 0 0 0 0 0 0 0 0 0 0 0 0 0 127 0" result="hardAlpha"/>
<feOffset dx="0.5" dy="1"/>
<feGaussianBlur stdDeviation="1"/>
<feColorMatrix type="matrix" values="0 0 0 0 0.458333 0 0 0 0 0.458333 0 0 0 0 0.458333 0 0 0 0.2 0"/>
<feBlend mode="normal" in2="BackgroundImageFix" result="effect1_dropShadow"/>
<feBlend mode="normal" in="SourceGraphic" in2="effect1_dropShadow" result="shape"/>
</filter>
<filter id="filter14_d" x="194.799" y="69.7793" width="10.1122" height="12.4099" filterUnits="userSpaceOnUse" color-interpolation-filters="sRGB">
<feFlood flood-opacity="0" result="BackgroundImageFix"/>
<feColorMatrix in="SourceAlpha" type="matrix" values="0 0 0 0 0 0 0 0 0 0 0 0 0 0 0 0 0 0 127 0" result="hardAlpha"/>
<feOffset dx="0.5" dy="0.5"/>
<feGaussianBlur stdDeviation="1"/>
<feColorMatrix type="matrix" values="0 0 0 0 0.458333 0 0 0 0 0.458333 0 0 0 0 0.458333 0 0 0 0.2 0"/>
<feBlend mode="normal" in2="BackgroundImageFix" result="effect1_dropShadow"/>
<feBlend mode="normal" in="SourceGraphic" in2="effect1_dropShadow" result="shape"/>
</filter>
<filter id="filter15_d" x="207.255" y="92.7207" width="8.43254" height="21.8398" filterUnits="userSpaceOnUse" color-interpolation-filters="sRGB">
<feFlood flood-opacity="0" result="BackgroundImageFix"/>
<feColorMatrix in="SourceAlpha" type="matrix" values="0 0 0 0 0 0 0 0 0 0 0 0 0 0 0 0 0 0 127 0" result="hardAlpha"/>
<feOffset dx="0.5" dy="0.5"/>
<feGaussianBlur stdDeviation="1"/>
<feColorMatrix type="matrix" values="0 0 0 0 0.458333 0 0 0 0 0.458333 0 0 0 0 0.458333 0 0 0 0.2 0"/>
<feBlend mode="normal" in2="BackgroundImageFix" result="effect1_dropShadow"/>
<feBlend mode="normal" in="SourceGraphic" in2="effect1_dropShadow" result="shape"/>
</filter>
<filter id="filter16_d" x="206.422" y="86.6953" width="9.89225" height="13.3094" filterUnits="userSpaceOnUse" color-interpolation-filters="sRGB">
<feFlood flood-opacity="0" result="BackgroundImageFix"/>
<feColorMatrix in="SourceAlpha" type="matrix" values="0 0 0 0 0 0 0 0 0 0 0 0 0 0 0 0 0 0 127 0" result="hardAlpha"/>
<feOffset dx="0.5" dy="1"/>
<feGaussianBlur stdDeviation="1"/>
<feColorMatrix type="matrix" values="0 0 0 0 0.458333 0 0 0 0 0.458333 0 0 0 0 0.458333 0 0 0 0.2 0"/>
<feBlend mode="normal" in2="BackgroundImageFix" result="effect1_dropShadow"/>
<feBlend mode="normal" in="SourceGraphic" in2="effect1_dropShadow" result="shape"/>
</filter>
<filter id="filter17_d" x="206.422" y="69.7773" width="9.89225" height="13.3094" filterUnits="userSpaceOnUse" color-interpolation-filters="sRGB">
<feFlood flood-opacity="0" result="BackgroundImageFix"/>
<feColorMatrix in="SourceAlpha" type="matrix" values="0 0 0 0 0 0 0 0 0 0 0 0 0 0 0 0 0 0 127 0" result="hardAlpha"/>
<feOffset dx="0.5" dy="0.5"/>
<feGaussianBlur stdDeviation="1"/>
<feColorMatrix type="matrix" values="0 0 0 0 0.458333 0 0 0 0 0.458333 0 0 0 0 0.458333 0 0 0 0.2 0"/>
<feBlend mode="normal" in2="BackgroundImageFix" result="effect1_dropShadow"/>
<feBlend mode="normal" in="SourceGraphic" in2="effect1_dropShadow" result="shape"/>
</filter>
<filter id="filter18_d" x="218.548" y="69.7773" width="9.09075" height="11.8712" filterUnits="userSpaceOnUse" color-interpolation-filters="sRGB">
<feFlood flood-opacity="0" result="BackgroundImageFix"/>
<feColorMatrix in="SourceAlpha" type="matrix" values="0 0 0 0 0 0 0 0 0 0 0 0 0 0 0 0 0 0 127 0" result="hardAlpha"/>
<feOffset dx="0.5" dy="0.5"/>
<feGaussianBlur stdDeviation="1"/>
<feColorMatrix type="matrix" values="0 0 0 0 0.458333 0 0 0 0 0.458333 0 0 0 0 0.458333 0 0 0 0.2 0"/>
<feBlend mode="normal" in2="BackgroundImageFix" result="effect1_dropShadow"/>
<feBlend mode="normal" in="SourceGraphic" in2="effect1_dropShadow" result="shape"/>
</filter>
<filter id="filter19_d" x="219.524" y="92.5293" width="7.62957" height="18.4991" filterUnits="userSpaceOnUse" color-interpolation-filters="sRGB">
<feFlood flood-opacity="0" result="BackgroundImageFix"/>
<feColorMatrix in="SourceAlpha" type="matrix" values="0 0 0 0 0 0 0 0 0 0 0 0 0 0 0 0 0 0 127 0" result="hardAlpha"/>
<feOffset dx="0.5" dy="0.5"/>
<feGaussianBlur stdDeviation="1"/>
<feColorMatrix type="matrix" values="0 0 0 0 0.458333 0 0 0 0 0.458333 0 0 0 0 0.458333 0 0 0 0.2 0"/>
<feBlend mode="normal" in2="BackgroundImageFix" result="effect1_dropShadow"/>
<feBlend mode="normal" in="SourceGraphic" in2="effect1_dropShadow" result="shape"/>
</filter>
<filter id="filter20_d" x="218.548" y="87.2031" width="9.09075" height="11.8712" filterUnits="userSpaceOnUse" color-interpolation-filters="sRGB">
<feFlood flood-opacity="0" result="BackgroundImageFix"/>
<feColorMatrix in="SourceAlpha" type="matrix" values="0 0 0 0 0 0 0 0 0 0 0 0 0 0 0 0 0 0 127 0" result="hardAlpha"/>
<feOffset dx="0.5" dy="1"/>
<feGaussianBlur stdDeviation="1"/>
<feColorMatrix type="matrix" values="0 0 0 0 0.458333 0 0 0 0 0.458333 0 0 0 0 0.458333 0 0 0 0.2 0"/>
<feBlend mode="normal" in2="BackgroundImageFix" result="effect1_dropShadow"/>
<feBlend mode="normal" in="SourceGraphic" in2="effect1_dropShadow" result="shape"/>
</filter>
<filter id="filter21_d" x="230.418" y="69.7773" width="8.30816" height="11.9794" filterUnits="userSpaceOnUse" color-interpolation-filters="sRGB">
<feFlood flood-opacity="0" result="BackgroundImageFix"/>
<feColorMatrix in="SourceAlpha" type="matrix" values="0 0 0 0 0 0 0 0 0 0 0 0 0 0 0 0 0 0 127 0" result="hardAlpha"/>
<feOffset dx="0.5" dy="0.5"/>
<feGaussianBlur stdDeviation="1"/>
<feColorMatrix type="matrix" values="0 0 0 0 0.458333 0 0 0 0 0.458333 0 0 0 0 0.458333 0 0 0 0.2 0"/>
<feBlend mode="normal" in2="BackgroundImageFix" result="effect1_dropShadow"/>
<feBlend mode="normal" in="SourceGraphic" in2="effect1_dropShadow" result="shape"/>
</filter>
<filter id="filter22_d" x="230.89" y="92.834" width="7.13719" height="17.0074" filterUnits="userSpaceOnUse" color-interpolation-filters="sRGB">
<feFlood flood-opacity="0" result="BackgroundImageFix"/>
<feColorMatrix in="SourceAlpha" type="matrix" values="0 0 0 0 0 0 0 0 0 0 0 0 0 0 0 0 0 0 127 0" result="hardAlpha"/>
<feOffset dx="0.5" dy="0.5"/>
<feGaussianBlur stdDeviation="1"/>
<feColorMatrix type="matrix" values="0 0 0 0 0.458333 0 0 0 0 0.458333 0 0 0 0 0.458333 0 0 0 0.2 0"/>
<feBlend mode="normal" in2="BackgroundImageFix" result="effect1_dropShadow"/>
<feBlend mode="normal" in="SourceGraphic" in2="effect1_dropShadow" result="shape"/>
</filter>
<filter id="filter23_d" x="230.418" y="87.2031" width="8.30816" height="11.9794" filterUnits="userSpaceOnUse" color-interpolation-filters="sRGB">
<feFlood flood-opacity="0" result="BackgroundImageFix"/>
<feColorMatrix in="SourceAlpha" type="matrix" values="0 0 0 0 0 0 0 0 0 0 0 0 0 0 0 0 0 0 127 0" result="hardAlpha"/>
<feOffset dx="0.5" dy="1"/>
<feGaussianBlur stdDeviation="1"/>
<feColorMatrix type="matrix" values="0 0 0 0 0.458333 0 0 0 0 0.458333 0 0 0 0 0.458333 0 0 0 0.2 0"/>
<feBlend mode="normal" in2="BackgroundImageFix" result="effect1_dropShadow"/>
<feBlend mode="normal" in="SourceGraphic" in2="effect1_dropShadow" result="shape"/>
</filter>
<filter id="filter24_d" x="242.038" y="69.7773" width="8.49762" height="12.151" filterUnits="userSpaceOnUse" color-interpolation-filters="sRGB">
<feFlood flood-opacity="0" result="BackgroundImageFix"/>
<feColorMatrix in="SourceAlpha" type="matrix" values="0 0 0 0 0 0 0 0 0 0 0 0 0 0 0 0 0 0 127 0" result="hardAlpha"/>
<feOffset dx="0.5" dy="0.5"/>
<feGaussianBlur stdDeviation="1"/>
<feColorMatrix type="matrix" values="0 0 0 0 0.458333 0 0 0 0 0.458333 0 0 0 0 0.458333 0 0 0 0.2 0"/>
<feBlend mode="normal" in2="BackgroundImageFix" result="effect1_dropShadow"/>
<feBlend mode="normal" in="SourceGraphic" in2="effect1_dropShadow" result="shape"/>
</filter>
<filter id="filter25_d" x="242.82" y="93.332" width="7.24861" height="16.6555" filterUnits="userSpaceOnUse" color-interpolation-filters="sRGB">
<feFlood flood-opacity="0" result="BackgroundImageFix"/>
<feColorMatrix in="SourceAlpha" type="matrix" values="0 0 0 0 0 0 0 0 0 0 0 0 0 0 0 0 0 0 127 0" result="hardAlpha"/>
<feOffset dx="0.5" dy="0.5"/>
<feGaussianBlur stdDeviation="1"/>
<feColorMatrix type="matrix" values="0 0 0 0 0.458333 0 0 0 0 0.458333 0 0 0 0 0.458333 0 0 0 0.2 0"/>
<feBlend mode="normal" in2="BackgroundImageFix" result="effect1_dropShadow"/>
<feBlend mode="normal" in="SourceGraphic" in2="effect1_dropShadow" result="shape"/>
</filter>
<filter id="filter26_d" x="242.038" y="87.2012" width="8.49762" height="12.151" filterUnits="userSpaceOnUse" color-interpolation-filters="sRGB">
<feFlood flood-opacity="0" result="BackgroundImageFix"/>
<feColorMatrix in="SourceAlpha" type="matrix" values="0 0 0 0 0 0 0 0 0 0 0 0 0 0 0 0 0 0 127 0" result="hardAlpha"/>
<feOffset dx="0.5" dy="1"/>
<feGaussianBlur stdDeviation="1"/>
<feColorMatrix type="matrix" values="0 0 0 0 0.458333 0 0 0 0 0.458333 0 0 0 0 0.458333 0 0 0 0.2 0"/>
<feBlend mode="normal" in2="BackgroundImageFix" result="effect1_dropShadow"/>
<feBlend mode="normal" in="SourceGraphic" in2="effect1_dropShadow" result="shape"/>
</filter>
<filter id="filter27_d" x="253.405" y="69.7793" width="9.1956" height="12.4312" filterUnits="userSpaceOnUse" color-interpolation-filters="sRGB">
<feFlood flood-opacity="0" result="BackgroundImageFix"/>
<feColorMatrix in="SourceAlpha" type="matrix" values="0 0 0 0 0 0 0 0 0 0 0 0 0 0 0 0 0 0 127 0" result="hardAlpha"/>
<feOffset dx="0.5" dy="0.5"/>
<feGaussianBlur stdDeviation="1"/>
<feColorMatrix type="matrix" values="0 0 0 0 0.458333 0 0 0 0 0.458333 0 0 0 0 0.458333 0 0 0 0.2 0"/>
<feBlend mode="normal" in2="BackgroundImageFix" result="effect1_dropShadow"/>
<feBlend mode="normal" in="SourceGraphic" in2="effect1_dropShadow" result="shape"/>
</filter>
<filter id="filter28_d" x="253.954" y="93.0723" width="7.65122" height="18.1129" filterUnits="userSpaceOnUse" color-interpolation-filters="sRGB">
<feFlood flood-opacity="0" result="BackgroundImageFix"/>
<feColorMatrix in="SourceAlpha" type="matrix" values="0 0 0 0 0 0 0 0 0 0 0 0 0 0 0 0 0 0 127 0" result="hardAlpha"/>
<feOffset dx="0.5" dy="0.5"/>
<feGaussianBlur stdDeviation="1"/>
<feColorMatrix type="matrix" values="0 0 0 0 0.458333 0 0 0 0 0.458333 0 0 0 0 0.458333 0 0 0 0.2 0"/>
<feBlend mode="normal" in2="BackgroundImageFix" result="effect1_dropShadow"/>
<feBlend mode="normal" in="SourceGraphic" in2="effect1_dropShadow" result="shape"/>
</filter>
<filter id="filter29_d" x="253.405" y="87.2051" width="9.1956" height="12.4312" filterUnits="userSpaceOnUse" color-interpolation-filters="sRGB">
<feFlood flood-opacity="0" result="BackgroundImageFix"/>
<feColorMatrix in="SourceAlpha" type="matrix" values="0 0 0 0 0 0 0 0 0 0 0 0 0 0 0 0 0 0 127 0" result="hardAlpha"/>
<feOffset dx="0.5" dy="1"/>
<feGaussianBlur stdDeviation="1"/>
<feColorMatrix type="matrix" values="0 0 0 0 0.458333 0 0 0 0 0.458333 0 0 0 0 0.458333 0 0 0 0.2 0"/>
<feBlend mode="normal" in2="BackgroundImageFix" result="effect1_dropShadow"/>
<feBlend mode="normal" in="SourceGraphic" in2="effect1_dropShadow" result="shape"/>
</filter>
<filter id="filter30_d" x="265.181" y="93.0469" width="8.45727" height="21.4726" filterUnits="userSpaceOnUse" color-interpolation-filters="sRGB">
<feFlood flood-opacity="0" result="BackgroundImageFix"/>
<feColorMatrix in="SourceAlpha" type="matrix" values="0 0 0 0 0 0 0 0 0 0 0 0 0 0 0 0 0 0 127 0" result="hardAlpha"/>
<feOffset dx="0.5" dy="0.5"/>
<feGaussianBlur stdDeviation="1"/>
<feColorMatrix type="matrix" values="0 0 0 0 0.458333 0 0 0 0 0.458333 0 0 0 0 0.458333 0 0 0 0.2 0"/>
<feBlend mode="normal" in2="BackgroundImageFix" result="effect1_dropShadow"/>
<feBlend mode="normal" in="SourceGraphic" in2="effect1_dropShadow" result="shape"/>
</filter>
<filter id="filter31_d" x="264.518" y="86.6973" width="10.003" height="13.4019" filterUnits="userSpaceOnUse" color-interpolation-filters="sRGB">
<feFlood flood-opacity="0" result="BackgroundImageFix"/>
<feColorMatrix in="SourceAlpha" type="matrix" values="0 0 0 0 0 0 0 0 0 0 0 0 0 0 0 0 0 0 127 0" result="hardAlpha"/>
<feOffset dx="0.5" dy="1"/>
<feGaussianBlur stdDeviation="1"/>
<feColorMatrix type="matrix" values="0 0 0 0 0.458333 0 0 0 0 0.458333 0 0 0 0 0.458333 0 0 0 0.2 0"/>
<feBlend mode="normal" in2="BackgroundImageFix" result="effect1_dropShadow"/>
<feBlend mode="normal" in="SourceGraphic" in2="effect1_dropShadow" result="shape"/>
</filter>
<filter id="filter32_d" x="264.518" y="69.7793" width="10.003" height="13.4019" filterUnits="userSpaceOnUse" color-interpolation-filters="sRGB">
<feFlood flood-opacity="0" result="BackgroundImageFix"/>
<feColorMatrix in="SourceAlpha" type="matrix" values="0 0 0 0 0 0 0 0 0 0 0 0 0 0 0 0 0 0 127 0" result="hardAlpha"/>
<feOffset dx="0.5" dy="0.5"/>
<feGaussianBlur stdDeviation="1"/>
<feColorMatrix type="matrix" values="0 0 0 0 0.458333 0 0 0 0 0.458333 0 0 0 0 0.458333 0 0 0 0.2 0"/>
<feBlend mode="normal" in2="BackgroundImageFix" result="effect1_dropShadow"/>
<feBlend mode="normal" in="SourceGraphic" in2="effect1_dropShadow" result="shape"/>
</filter>
<filter id="filter33_d" x="265.618" y="18.5" width="7.85166" height="20.8124" filterUnits="userSpaceOnUse" color-interpolation-filters="sRGB">
<feFlood flood-opacity="0" result="BackgroundImageFix"/>
<feColorMatrix in="SourceAlpha" type="matrix" values="0 0 0 0 0 0 0 0 0 0 0 0 0 0 0 0 0 0 127 0" result="hardAlpha"/>
<feOffset dx="0.5" dy="0.5"/>
<feGaussianBlur stdDeviation="1"/>
<feColorMatrix type="matrix" values="0 0 0 0 0.458333 0 0 0 0 0.458333 0 0 0 0 0.458333 0 0 0 0.2 0"/>
<feBlend mode="normal" in2="BackgroundImageFix" result="effect1_dropShadow"/>
<feBlend mode="normal" in="SourceGraphic" in2="effect1_dropShadow" result="shape"/>
</filter>
<filter id="filter34_d" x="264.771" y="33.752" width="9.75978" height="13.1514" filterUnits="userSpaceOnUse" color-interpolation-filters="sRGB">
<feFlood flood-opacity="0" result="BackgroundImageFix"/>
<feColorMatrix in="SourceAlpha" type="matrix" values="0 0 0 0 0 0 0 0 0 0 0 0 0 0 0 0 0 0 127 0" result="hardAlpha"/>
<feOffset dx="0.5" dy="0.5"/>
<feGaussianBlur stdDeviation="1"/>
<feColorMatrix type="matrix" values="0 0 0 0 0.458333 0 0 0 0 0.458333 0 0 0 0 0.458333 0 0 0 0.2 0"/>
<feBlend mode="normal" in2="BackgroundImageFix" result="effect1_dropShadow"/>
<feBlend mode="normal" in="SourceGraphic" in2="effect1_dropShadow" result="shape"/>
</filter>
<filter id="filter35_d" x="264.771" y="50.5215" width="9.75978" height="13.1514" filterUnits="userSpaceOnUse" color-interpolation-filters="sRGB">
<feFlood flood-opacity="0" result="BackgroundImageFix"/>
<feColorMatrix in="SourceAlpha" type="matrix" values="0 0 0 0 0 0 0 0 0 0 0 0 0 0 0 0 0 0 127 0" result="hardAlpha"/>
<feOffset dx="0.5" dy="0.5"/>
<feGaussianBlur stdDeviation="1"/>
<feColorMatrix type="matrix" values="0 0 0 0 0.458333 0 0 0 0 0.458333 0 0 0 0 0.458333 0 0 0 0.2 0"/>
<feBlend mode="normal" in2="BackgroundImageFix" result="effect1_dropShadow"/>
<feBlend mode="normal" in="SourceGraphic" in2="effect1_dropShadow" result="shape"/>
</filter>
<filter id="filter36_d" x="254.538" y="21.2793" width="7.62746" height="17.55" filterUnits="userSpaceOnUse" color-interpolation-filters="sRGB">
<feFlood flood-opacity="0" result="BackgroundImageFix"/>
<feColorMatrix in="SourceAlpha" type="matrix" values="0 0 0 0 0 0 0 0 0 0 0 0 0 0 0 0 0 0 127 0" result="hardAlpha"/>
<feOffset dx="0.5" dy="0.5"/>
<feGaussianBlur stdDeviation="1"/>
<feColorMatrix type="matrix" values="0 0 0 0 0.458333 0 0 0 0 0.458333 0 0 0 0 0.458333 0 0 0 0.2 0"/>
<feBlend mode="normal" in2="BackgroundImageFix" result="effect1_dropShadow"/>
<feBlend mode="normal" in="SourceGraphic" in2="effect1_dropShadow" result="shape"/>
</filter>
<filter id="filter37_d" x="253.403" y="33.3066" width="8.89305" height="12.3154" filterUnits="userSpaceOnUse" color-interpolation-filters="sRGB">
<feFlood flood-opacity="0" result="BackgroundImageFix"/>
<feColorMatrix in="SourceAlpha" type="matrix" values="0 0 0 0 0 0 0 0 0 0 0 0 0 0 0 0 0 0 127 0" result="hardAlpha"/>
<feOffset dx="0.5" dy="0.5"/>
<feGaussianBlur stdDeviation="1"/>
<feColorMatrix type="matrix" values="0 0 0 0 0.458333 0 0 0 0 0.458333 0 0 0 0 0.458333 0 0 0 0.2 0"/>
<feBlend mode="normal" in2="BackgroundImageFix" result="effect1_dropShadow"/>
<feBlend mode="normal" in="SourceGraphic" in2="effect1_dropShadow" result="shape"/>
</filter>
<filter id="filter38_d" x="253.403" y="51.3613" width="8.89305" height="12.3154" filterUnits="userSpaceOnUse" color-interpolation-filters="sRGB">
<feFlood flood-opacity="0" result="BackgroundImageFix"/>
<feColorMatrix in="SourceAlpha" type="matrix" values="0 0 0 0 0 0 0 0 0 0 0 0 0 0 0 0 0 0 127 0" result="hardAlpha"/>
<feOffset dx="0.5" dy="0.5"/>
<feGaussianBlur stdDeviation="1"/>
<feColorMatrix type="matrix" values="0 0 0 0 0.458333 0 0 0 0 0.458333 0 0 0 0 0.458333 0 0 0 0.2 0"/>
<feBlend mode="normal" in2="BackgroundImageFix" result="effect1_dropShadow"/>
<feBlend mode="normal" in="SourceGraphic" in2="effect1_dropShadow" result="shape"/>
</filter>
<filter id="filter39_d" x="242.061" y="21.0254" width="8.82746" height="17.5073" filterUnits="userSpaceOnUse" color-interpolation-filters="sRGB">
<feFlood flood-opacity="0" result="BackgroundImageFix"/>
<feColorMatrix in="SourceAlpha" type="matrix" values="0 0 0 0 0 0 0 0 0 0 0 0 0 0 0 0 0 0 127 0" result="hardAlpha"/>
<feOffset dx="0.5" dy="0.5"/>
<feGaussianBlur stdDeviation="1"/>
<feColorMatrix type="matrix" values="0 0 0 0 0.458333 0 0 0 0 0.458333 0 0 0 0 0.458333 0 0 0 0.2 0"/>
<feBlend mode="normal" in2="BackgroundImageFix" result="effect1_dropShadow"/>
<feBlend mode="normal" in="SourceGraphic" in2="effect1_dropShadow" result="shape"/>
</filter>
<filter id="filter40_d" x="240.522" y="32.627" width="11.9279" height="14.0177" filterUnits="userSpaceOnUse" color-interpolation-filters="sRGB">
<feFlood flood-opacity="0" result="BackgroundImageFix"/>
<feColorMatrix in="SourceAlpha" type="matrix" values="0 0 0 0 0 0 0 0 0 0 0 0 0 0 0 0 0 0 127 0" result="hardAlpha"/>
<feOffset dx="0.5" dy="0.5"/>
<feGaussianBlur stdDeviation="1"/>
<feColorMatrix type="matrix" values="0 0 0 0 0.458333 0 0 0 0 0.458333 0 0 0 0 0.458333 0 0 0 0.2 0"/>
<feBlend mode="normal" in2="BackgroundImageFix" result="effect1_dropShadow"/>
<feBlend mode="normal" in="SourceGraphic" in2="effect1_dropShadow" result="shape"/>
</filter>
<filter id="filter41_d" x="240.522" y="49.6562" width="11.9279" height="14.0177" filterUnits="userSpaceOnUse" color-interpolation-filters="sRGB">
<feFlood flood-opacity="0" result="BackgroundImageFix"/>
<feColorMatrix in="SourceAlpha" type="matrix" values="0 0 0 0 0 0 0 0 0 0 0 0 0 0 0 0 0 0 127 0" result="hardAlpha"/>
<feOffset dx="0.5" dy="0.5"/>
<feGaussianBlur stdDeviation="1"/>
<feColorMatrix type="matrix" values="0 0 0 0 0.458333 0 0 0 0 0.458333 0 0 0 0 0.458333 0 0 0 0.2 0"/>
<feBlend mode="normal" in2="BackgroundImageFix" result="effect1_dropShadow"/>
<feBlend mode="normal" in="SourceGraphic" in2="effect1_dropShadow" result="shape"/>
</filter>
<filter id="filter42_d" x="230.117" y="21.0254" width="8.82741" height="17.6453" filterUnits="userSpaceOnUse" color-interpolation-filters="sRGB">
<feFlood flood-opacity="0" result="BackgroundImageFix"/>
<feColorMatrix in="SourceAlpha" type="matrix" values="0 0 0 0 0 0 0 0 0 0 0 0 0 0 0 0 0 0 127 0" result="hardAlpha"/>
<feOffset dx="0.5" dy="0.5"/>
<feGaussianBlur stdDeviation="1"/>
<feColorMatrix type="matrix" values="0 0 0 0 0.458333 0 0 0 0 0.458333 0 0 0 0 0.458333 0 0 0 0.2 0"/>
<feBlend mode="normal" in2="BackgroundImageFix" result="effect1_dropShadow"/>
<feBlend mode="normal" in="SourceGraphic" in2="effect1_dropShadow" result="shape"/>
</filter>
<filter id="filter43_d" x="228.898" y="32.7402" width="11.7332" height="13.9076" filterUnits="userSpaceOnUse" color-interpolation-filters="sRGB">
<feFlood flood-opacity="0" result="BackgroundImageFix"/>
<feColorMatrix in="SourceAlpha" type="matrix" values="0 0 0 0 0 0 0 0 0 0 0 0 0 0 0 0 0 0 127 0" result="hardAlpha"/>
<feOffset dx="0.5" dy="0.5"/>
<feGaussianBlur stdDeviation="1"/>
<feColorMatrix type="matrix" values="0 0 0 0 0.458333 0 0 0 0 0.458333 0 0 0 0 0.458333 0 0 0 0.2 0"/>
<feBlend mode="normal" in2="BackgroundImageFix" result="effect1_dropShadow"/>
<feBlend mode="normal" in="SourceGraphic" in2="effect1_dropShadow" result="shape"/>
</filter>
<filter id="filter44_d" x="228.898" y="49.7656" width="11.7332" height="13.9076" filterUnits="userSpaceOnUse" color-interpolation-filters="sRGB">
<feFlood flood-opacity="0" result="BackgroundImageFix"/>
<feColorMatrix in="SourceAlpha" type="matrix" values="0 0 0 0 0 0 0 0 0 0 0 0 0 0 0 0 0 0 127 0" result="hardAlpha"/>
<feOffset dx="0.5" dy="0.5"/>
<feGaussianBlur stdDeviation="1"/>
<feColorMatrix type="matrix" values="0 0 0 0 0.458333 0 0 0 0 0.458333 0 0 0 0 0.458333 0 0 0 0.2 0"/>
<feBlend mode="normal" in2="BackgroundImageFix" result="effect1_dropShadow"/>
<feBlend mode="normal" in="SourceGraphic" in2="effect1_dropShadow" result="shape"/>
</filter>
<filter id="filter45_d" x="218.938" y="21.2793" width="7.51519" height="18.141" filterUnits="userSpaceOnUse" color-interpolation-filters="sRGB">
<feFlood flood-opacity="0" result="BackgroundImageFix"/>
<feColorMatrix in="SourceAlpha" type="matrix" values="0 0 0 0 0 0 0 0 0 0 0 0 0 0 0 0 0 0 127 0" result="hardAlpha"/>
<feOffset dx="0.5" dy="0.5"/>
<feGaussianBlur stdDeviation="1"/>
<feColorMatrix type="matrix" values="0 0 0 0 0.458333 0 0 0 0 0.458333 0 0 0 0 0.458333 0 0 0 0.2 0"/>
<feBlend mode="normal" in2="BackgroundImageFix" result="effect1_dropShadow"/>
<feBlend mode="normal" in="SourceGraphic" in2="effect1_dropShadow" result="shape"/>
</filter>
<filter id="filter46_d" x="218.797" y="33.4531" width="8.6591" height="11.9831" filterUnits="userSpaceOnUse" color-interpolation-filters="sRGB">
<feFlood flood-opacity="0" result="BackgroundImageFix"/>
<feColorMatrix in="SourceAlpha" type="matrix" values="0 0 0 0 0 0 0 0 0 0 0 0 0 0 0 0 0 0 127 0" result="hardAlpha"/>
<feOffset dx="0.5" dy="0.5"/>
<feGaussianBlur stdDeviation="1"/>
<feColorMatrix type="matrix" values="0 0 0 0 0.458333 0 0 0 0 0.458333 0 0 0 0 0.458333 0 0 0 0.2 0"/>
<feBlend mode="normal" in2="BackgroundImageFix" result="effect1_dropShadow"/>
<feBlend mode="normal" in="SourceGraphic" in2="effect1_dropShadow" result="shape"/>
</filter>
<filter id="filter47_d" x="218.797" y="51.6934" width="8.6591" height="11.9831" filterUnits="userSpaceOnUse" color-interpolation-filters="sRGB">
<feFlood flood-opacity="0" result="BackgroundImageFix"/>
<feColorMatrix in="SourceAlpha" type="matrix" values="0 0 0 0 0 0 0 0 0 0 0 0 0 0 0 0 0 0 127 0" result="hardAlpha"/>
<feOffset dx="0.5" dy="0.5"/>
<feGaussianBlur stdDeviation="1"/>
<feColorMatrix type="matrix" values="0 0 0 0 0.458333 0 0 0 0 0.458333 0 0 0 0 0.458333 0 0 0 0.2 0"/>
<feBlend mode="normal" in2="BackgroundImageFix" result="effect1_dropShadow"/>
<feBlend mode="normal" in="SourceGraphic" in2="effect1_dropShadow" result="shape"/>
</filter>
<filter id="filter48_d" x="206.671" y="50.623" width="9.78312" height="13.0511" filterUnits="userSpaceOnUse" color-interpolation-filters="sRGB">
<feFlood flood-opacity="0" result="BackgroundImageFix"/>
<feColorMatrix in="SourceAlpha" type="matrix" values="0 0 0 0 0 0 0 0 0 0 0 0 0 0 0 0 0 0 127 0" result="hardAlpha"/>
<feOffset dx="0.5" dy="0.5"/>
<feGaussianBlur stdDeviation="1"/>
<feColorMatrix type="matrix" values="0 0 0 0 0.458333 0 0 0 0 0.458333 0 0 0 0 0.458333 0 0 0 0.2 0"/>
<feBlend mode="normal" in2="BackgroundImageFix" result="effect1_dropShadow"/>
<feBlend mode="normal" in="SourceGraphic" in2="effect1_dropShadow" result="shape"/>
</filter>
<filter id="filter49_d" x="207.577" y="18.5" width="7.97956" height="21.7273" filterUnits="userSpaceOnUse" color-interpolation-filters="sRGB">
<feFlood flood-opacity="0" result="BackgroundImageFix"/>
<feColorMatrix in="SourceAlpha" type="matrix" values="0 0 0 0 0 0 0 0 0 0 0 0 0 0 0 0 0 0 127 0" result="hardAlpha"/>
<feOffset dx="0.5" dy="0.5"/>
<feGaussianBlur stdDeviation="1"/>
<feColorMatrix type="matrix" values="0 0 0 0 0.458333 0 0 0 0 0.458333 0 0 0 0 0.458333 0 0 0 0.2 0"/>
<feBlend mode="normal" in2="BackgroundImageFix" result="effect1_dropShadow"/>
<feBlend mode="normal" in="SourceGraphic" in2="effect1_dropShadow" result="shape"/>
</filter>
<filter id="filter50_d" x="206.671" y="33.9805" width="9.78312" height="13.0511" filterUnits="userSpaceOnUse" color-interpolation-filters="sRGB">
<feFlood flood-opacity="0" result="BackgroundImageFix"/>
<feColorMatrix in="SourceAlpha" type="matrix" values="0 0 0 0 0 0 0 0 0 0 0 0 0 0 0 0 0 0 127 0" result="hardAlpha"/>
<feOffset dx="0.5" dy="0.5"/>
<feGaussianBlur stdDeviation="1"/>
<feColorMatrix type="matrix" values="0 0 0 0 0.458333 0 0 0 0 0.458333 0 0 0 0 0.458333 0 0 0 0.2 0"/>
<feBlend mode="normal" in2="BackgroundImageFix" result="effect1_dropShadow"/>
<feBlend mode="normal" in="SourceGraphic" in2="effect1_dropShadow" result="shape"/>
</filter>
<filter id="filter51_d" x="195.305" y="52.0293" width="9.70534" height="11.6453" filterUnits="userSpaceOnUse" color-interpolation-filters="sRGB">
<feFlood flood-opacity="0" result="BackgroundImageFix"/>
<feColorMatrix in="SourceAlpha" type="matrix" values="0 0 0 0 0 0 0 0 0 0 0 0 0 0 0 0 0 0 127 0" result="hardAlpha"/>
<feOffset dx="0.5" dy="0.5"/>
<feGaussianBlur stdDeviation="1"/>
<feColorMatrix type="matrix" values="0 0 0 0 0.458333 0 0 0 0 0.458333 0 0 0 0 0.458333 0 0 0 0.2 0"/>
<feBlend mode="normal" in2="BackgroundImageFix" result="effect1_dropShadow"/>
<feBlend mode="normal" in="SourceGraphic" in2="effect1_dropShadow" result="shape"/>
</filter>
<filter id="filter52_d" x="196.075" y="20.7734" width="7.90136" height="18.4719" filterUnits="userSpaceOnUse" color-interpolation-filters="sRGB">
<feFlood flood-opacity="0" result="BackgroundImageFix"/>
<feColorMatrix in="SourceAlpha" type="matrix" values="0 0 0 0 0 0 0 0 0 0 0 0 0 0 0 0 0 0 127 0" result="hardAlpha"/>
<feOffset dx="0.5" dy="0.5"/>
<feGaussianBlur stdDeviation="1"/>
<feColorMatrix type="matrix" values="0 0 0 0 0.458333 0 0 0 0 0.458333 0 0 0 0 0.458333 0 0 0 0.2 0"/>
<feBlend mode="normal" in2="BackgroundImageFix" result="effect1_dropShadow"/>
<feBlend mode="normal" in="SourceGraphic" in2="effect1_dropShadow" result="shape"/>
</filter>
<filter id="filter53_d" x="195.305" y="33.7012" width="9.70534" height="11.6453" filterUnits="userSpaceOnUse" color-interpolation-filters="sRGB">
<feFlood flood-opacity="0" result="BackgroundImageFix"/>
<feColorMatrix in="SourceAlpha" type="matrix" values="0 0 0 0 0 0 0 0 0 0 0 0 0 0 0 0 0 0 127 0" result="hardAlpha"/>
<feOffset dx="0.5" dy="0.5"/>
<feGaussianBlur stdDeviation="1"/>
<feColorMatrix type="matrix" values="0 0 0 0 0.458333 0 0 0 0 0.458333 0 0 0 0 0.458333 0 0 0 0.2 0"/>
<feBlend mode="normal" in2="BackgroundImageFix" result="effect1_dropShadow"/>
<feBlend mode="normal" in="SourceGraphic" in2="effect1_dropShadow" result="shape"/>
</filter>
<filter id="filter54_d" x="183.18" y="52.1816" width="10.0994" height="11.4917" filterUnits="userSpaceOnUse" color-interpolation-filters="sRGB">
<feFlood flood-opacity="0" result="BackgroundImageFix"/>
<feColorMatrix in="SourceAlpha" type="matrix" values="0 0 0 0 0 0 0 0 0 0 0 0 0 0 0 0 0 0 127 0" result="hardAlpha"/>
<feOffset dx="0.5" dy="0.5"/>
<feGaussianBlur stdDeviation="1"/>
<feColorMatrix type="matrix" values="0 0 0 0 0.458333 0 0 0 0 0.458333 0 0 0 0 0.458333 0 0 0 0.2 0"/>
<feBlend mode="normal" in2="BackgroundImageFix" result="effect1_dropShadow"/>
<feBlend mode="normal" in="SourceGraphic" in2="effect1_dropShadow" result="shape"/>
</filter>
<filter id="filter55_d" x="183.951" y="20.7734" width="8.36187" height="17.9216" filterUnits="userSpaceOnUse" color-interpolation-filters="sRGB">
<feFlood flood-opacity="0" result="BackgroundImageFix"/>
<feColorMatrix in="SourceAlpha" type="matrix" values="0 0 0 0 0 0 0 0 0 0 0 0 0 0 0 0 0 0 127 0" result="hardAlpha"/>
<feOffset dx="0.5" dy="0.5"/>
<feGaussianBlur stdDeviation="1"/>
<feColorMatrix type="matrix" values="0 0 0 0 0.458333 0 0 0 0 0.458333 0 0 0 0 0.458333 0 0 0 0.2 0"/>
<feBlend mode="normal" in2="BackgroundImageFix" result="effect1_dropShadow"/>
<feBlend mode="normal" in="SourceGraphic" in2="effect1_dropShadow" result="shape"/>
</filter>
<filter id="filter56_d" x="183.18" y="32.8906" width="10.0994" height="11.4917" filterUnits="userSpaceOnUse" color-interpolation-filters="sRGB">
<feFlood flood-opacity="0" result="BackgroundImageFix"/>
<feColorMatrix in="SourceAlpha" type="matrix" values="0 0 0 0 0 0 0 0 0 0 0 0 0 0 0 0 0 0 127 0" result="hardAlpha"/>
<feOffset dx="0.5" dy="0.5"/>
<feGaussianBlur stdDeviation="1"/>
<feColorMatrix type="matrix" values="0 0 0 0 0.458333 0 0 0 0 0.458333 0 0 0 0 0.458333 0 0 0 0.2 0"/>
<feBlend mode="normal" in2="BackgroundImageFix" result="effect1_dropShadow"/>
<feBlend mode="normal" in="SourceGraphic" in2="effect1_dropShadow" result="shape"/>
</filter>
<filter id="filter57_d" x="172.488" y="21.2832" width="6.97625" height="11.6608" filterUnits="userSpaceOnUse" color-interpolation-filters="sRGB">
<feFlood flood-opacity="0" result="BackgroundImageFix"/>
<feColorMatrix in="SourceAlpha" type="matrix" values="0 0 0 0 0 0 0 0 0 0 0 0 0 0 0 0 0 0 127 0" result="hardAlpha"/>
<feOffset dx="-0.5"/>
<feGaussianBlur stdDeviation="1"/>
<feColorMatrix type="matrix" values="0 0 0 0 0.458333 0 0 0 0 0.458333 0 0 0 0 0.458333 0 0 0 0.2 0"/>
<feBlend mode="normal" in2="BackgroundImageFix" result="effect1_dropShadow"/>
<feBlend mode="normal" in="SourceGraphic" in2="effect1_dropShadow" result="shape"/>
</filter>
<filter id="filter58_dd" x="169.853" y="22.5879" width="12.1436" height="16.0993" filterUnits="userSpaceOnUse" color-interpolation-filters="sRGB">
<feFlood flood-opacity="0" result="BackgroundImageFix"/>
<feColorMatrix in="SourceAlpha" type="matrix" values="0 0 0 0 0 0 0 0 0 0 0 0 0 0 0 0 0 0 127 0" result="hardAlpha"/>
<feOffset dx="-0.5"/>
<feGaussianBlur stdDeviation="1"/>
<feColorMatrix type="matrix" values="0 0 0 0 0.713726 0 0 0 0 0.580392 0 0 0 0 0.156863 0 0 0 0.2 0"/>
<feBlend mode="normal" in2="BackgroundImageFix" result="effect1_dropShadow"/>
<feColorMatrix in="SourceAlpha" type="matrix" values="0 0 0 0 0 0 0 0 0 0 0 0 0 0 0 0 0 0 127 0" result="hardAlpha"/>
<feOffset dx="0.5"/>
<feGaussianBlur stdDeviation="1"/>
<feColorMatrix type="matrix" values="0 0 0 0 0.7125 0 0 0 0 0.58032 0 0 0 0 0.157344 0 0 0 0.2 0"/>
<feBlend mode="normal" in2="effect1_dropShadow" result="effect2_dropShadow"/>
<feBlend mode="normal" in="SourceGraphic" in2="effect2_dropShadow" result="shape"/>
</filter>
<filter id="filter59_d" x="170.297" y="33.873" width="12.4583" height="10.3432" filterUnits="userSpaceOnUse" color-interpolation-filters="sRGB">
<feFlood flood-opacity="0" result="BackgroundImageFix"/>
<feColorMatrix in="SourceAlpha" type="matrix" values="0 0 0 0 0 0 0 0 0 0 0 0 0 0 0 0 0 0 127 0" result="hardAlpha"/>
<feOffset dx="0.5" dy="0.5"/>
<feGaussianBlur stdDeviation="1"/>
<feColorMatrix type="matrix" values="0 0 0 0 0.458333 0 0 0 0 0.458333 0 0 0 0 0.458333 0 0 0 0.2 0"/>
<feBlend mode="normal" in2="BackgroundImageFix" result="effect1_dropShadow"/>
<feBlend mode="normal" in="SourceGraphic" in2="effect1_dropShadow" result="shape"/>
</filter>
<filter id="filter60_d" x="170.297" y="53.3301" width="12.4583" height="10.3432" filterUnits="userSpaceOnUse" color-interpolation-filters="sRGB">
<feFlood flood-opacity="0" result="BackgroundImageFix"/>
<feColorMatrix in="SourceAlpha" type="matrix" values="0 0 0 0 0 0 0 0 0 0 0 0 0 0 0 0 0 0 127 0" result="hardAlpha"/>
<feOffset dx="0.5" dy="0.5"/>
<feGaussianBlur stdDeviation="1"/>
<feColorMatrix type="matrix" values="0 0 0 0 0.458333 0 0 0 0 0.458333 0 0 0 0 0.458333 0 0 0 0.2 0"/>
<feBlend mode="normal" in2="BackgroundImageFix" result="effect1_dropShadow"/>
<feBlend mode="normal" in="SourceGraphic" in2="effect1_dropShadow" result="shape"/>
</filter>
<filter id="filter61_d" x="160.28" y="23.8105" width="6.02987" height="10.8796" filterUnits="userSpaceOnUse" color-interpolation-filters="sRGB">
<feFlood flood-opacity="0" result="BackgroundImageFix"/>
<feColorMatrix in="SourceAlpha" type="matrix" values="0 0 0 0 0 0 0 0 0 0 0 0 0 0 0 0 0 0 127 0" result="hardAlpha"/>
<feOffset dx="-1"/>
<feGaussianBlur stdDeviation="1"/>
<feColorMatrix type="matrix" values="0 0 0 0 0.458333 0 0 0 0 0.458333 0 0 0 0 0.458333 0 0 0 0.2 0"/>
<feBlend mode="normal" in2="BackgroundImageFix" result="effect1_dropShadow"/>
<feBlend mode="normal" in="SourceGraphic" in2="effect1_dropShadow" result="shape"/>
</filter>
<filter id="filter62_dd" x="158.725" y="24.3555" width="11.5971" height="15.462" filterUnits="userSpaceOnUse" color-interpolation-filters="sRGB">
<feFlood flood-opacity="0" result="BackgroundImageFix"/>
<feColorMatrix in="SourceAlpha" type="matrix" values="0 0 0 0 0 0 0 0 0 0 0 0 0 0 0 0 0 0 127 0" result="hardAlpha"/>
<feOffset dx="-0.5"/>
<feGaussianBlur stdDeviation="1"/>
<feColorMatrix type="matrix" values="0 0 0 0 0.713726 0 0 0 0 0.580392 0 0 0 0 0.156863 0 0 0 0.2 0"/>
<feBlend mode="normal" in2="BackgroundImageFix" result="effect1_dropShadow"/>
<feColorMatrix in="SourceAlpha" type="matrix" values="0 0 0 0 0 0 0 0 0 0 0 0 0 0 0 0 0 0 127 0" result="hardAlpha"/>
<feOffset dx="0.5"/>
<feGaussianBlur stdDeviation="1"/>
<feColorMatrix type="matrix" values="0 0 0 0 0.713726 0 0 0 0 0.580392 0 0 0 0 0.156863 0 0 0 0.2 0"/>
<feBlend mode="normal" in2="effect1_dropShadow" result="effect2_dropShadow"/>
<feBlend mode="normal" in="SourceGraphic" in2="effect2_dropShadow" result="shape"/>
</filter>
<filter id="filter63_d" x="159.436" y="35.1699" width="11.7713" height="9.86371" filterUnits="userSpaceOnUse" color-interpolation-filters="sRGB">
<feFlood flood-opacity="0" result="BackgroundImageFix"/>
<feColorMatrix in="SourceAlpha" type="matrix" values="0 0 0 0 0 0 0 0 0 0 0 0 0 0 0 0 0 0 127 0" result="hardAlpha"/>
<feOffset dx="0.5" dy="0.5"/>
<feGaussianBlur stdDeviation="1"/>
<feColorMatrix type="matrix" values="0 0 0 0 0.458333 0 0 0 0 0.458333 0 0 0 0 0.458333 0 0 0 0.2 0"/>
<feBlend mode="normal" in2="BackgroundImageFix" result="effect1_dropShadow"/>
<feBlend mode="normal" in="SourceGraphic" in2="effect1_dropShadow" result="shape"/>
</filter>
<filter id="filter64_d" x="159.436" y="53.8125" width="11.7713" height="9.86371" filterUnits="userSpaceOnUse" color-interpolation-filters="sRGB">
<feFlood flood-opacity="0" result="BackgroundImageFix"/>
<feColorMatrix in="SourceAlpha" type="matrix" values="0 0 0 0 0 0 0 0 0 0 0 0 0 0 0 0 0 0 127 0" result="hardAlpha"/>
<feOffset dx="0.5" dy="0.5"/>
<feGaussianBlur stdDeviation="1"/>
<feColorMatrix type="matrix" values="0 0 0 0 0.458333 0 0 0 0 0.458333 0 0 0 0 0.458333 0 0 0 0.2 0"/>
<feBlend mode="normal" in2="BackgroundImageFix" result="effect1_dropShadow"/>
<feBlend mode="normal" in="SourceGraphic" in2="effect1_dropShadow" result="shape"/>
</filter>
<filter id="filter65_d" x="147.748" y="23.5566" width="9.81636" height="15.7865" filterUnits="userSpaceOnUse" color-interpolation-filters="sRGB">
<feFlood flood-opacity="0" result="BackgroundImageFix"/>
<feColorMatrix in="SourceAlpha" type="matrix" values="0 0 0 0 0 0 0 0 0 0 0 0 0 0 0 0 0 0 127 0" result="hardAlpha"/>
<feOffset dx="-0.5"/>
<feGaussianBlur stdDeviation="1"/>
<feColorMatrix type="matrix" values="0 0 0 0 0.713726 0 0 0 0 0.580392 0 0 0 0 0.156863 0 0 0 0.2 0"/>
<feBlend mode="normal" in2="BackgroundImageFix" result="effect1_dropShadow"/>
<feBlend mode="normal" in="SourceGraphic" in2="effect1_dropShadow" result="shape"/>
</filter>
<filter id="filter66_d" x="148.319" y="34.9277" width="10.7435" height="9.28238" filterUnits="userSpaceOnUse" color-interpolation-filters="sRGB">
<feFlood flood-opacity="0" result="BackgroundImageFix"/>
<feColorMatrix in="SourceAlpha" type="matrix" values="0 0 0 0 0 0 0 0 0 0 0 0 0 0 0 0 0 0 127 0" result="hardAlpha"/>
<feOffset dx="0.5" dy="0.5"/>
<feGaussianBlur stdDeviation="1"/>
<feColorMatrix type="matrix" values="0 0 0 0 0.458333 0 0 0 0 0.458333 0 0 0 0 0.458333 0 0 0 0.2 0"/>
<feBlend mode="normal" in2="BackgroundImageFix" result="effect1_dropShadow"/>
<feBlend mode="normal" in="SourceGraphic" in2="effect1_dropShadow" result="shape"/>
</filter>
<filter id="filter67_d" x="148.319" y="54.3906" width="10.7435" height="9.28238" filterUnits="userSpaceOnUse" color-interpolation-filters="sRGB">
<feFlood flood-opacity="0" result="BackgroundImageFix"/>
<feColorMatrix in="SourceAlpha" type="matrix" values="0 0 0 0 0 0 0 0 0 0 0 0 0 0 0 0 0 0 127 0" result="hardAlpha"/>
<feOffset dx="0.5" dy="0.5"/>
<feGaussianBlur stdDeviation="1"/>
<feColorMatrix type="matrix" values="0 0 0 0 0.458333 0 0 0 0 0.458333 0 0 0 0 0.458333 0 0 0 0.2 0"/>
<feBlend mode="normal" in2="BackgroundImageFix" result="effect1_dropShadow"/>
<feBlend mode="normal" in="SourceGraphic" in2="effect1_dropShadow" result="shape"/>
</filter>
<clipPath id="clip0">
<rect width="274" height="225" fill="white"/>
</clipPath>
</defs>
</svg>
