<svg width="215" height="37" viewBox="0 0 215 37" fill="none" xmlns="http://www.w3.org/2000/svg">
<g clip-path="url(#clip0)">
<path d="M54.9126 16.9488H57.5539V26.5664H55.1327V25.2894C53.7202 26.2856 51.9317 26.7837 49.7675 26.7837C48.0249 26.7837 46.4016 26.4033 44.8975 25.6426C43.4117 24.8819 42.2194 23.7771 41.3207 22.3281C40.4402 20.861 40 19.1313 40 17.139C40 15.2553 40.4402 13.5709 41.3207 12.0857C42.2194 10.6005 43.4484 9.44129 45.0075 8.60815C46.585 7.75686 48.3551 7.33124 50.3178 7.33124C51.8585 7.33124 53.2524 7.58483 54.4999 8.09195C55.7655 8.58098 56.8386 9.30545 57.719 10.2654L56.0132 11.9498C54.4724 10.4828 52.6108 9.74922 50.4278 9.74922C48.9604 9.74922 47.6397 10.0662 46.4658 10.7001C45.3102 11.334 44.4022 12.2125 43.7419 13.3354C43.0816 14.4584 42.7514 15.7262 42.7514 17.139C42.7514 18.6423 43.0816 19.9464 43.7419 21.0512C44.4206 22.156 45.3102 22.9982 46.4108 23.5779C47.5113 24.1393 48.7036 24.4201 49.9876 24.4201C50.8862 24.4201 51.7578 24.2752 52.6014 23.9854C53.4637 23.6775 54.2341 23.2337 54.9126 22.6541V16.9488ZM63.3171 14.5852C63.7756 13.752 64.4541 13.1181 65.3532 12.6834C66.2518 12.2487 67.343 12.0313 68.6274 12.0313V14.558C68.4804 14.5399 68.2785 14.5308 68.022 14.5308C66.5913 14.5308 65.4632 14.9564 64.6378 15.8077C63.8306 16.6409 63.4272 17.8363 63.4272 19.3939V26.5664H60.7859V12.1672H63.3171V14.5852ZM70.232 12.1672H72.8734V26.5664H70.232V12.1672ZM71.5527 9.39603C71.0388 9.39603 70.6079 9.23302 70.2595 8.907C69.9294 8.58098 69.7643 8.18253 69.7643 7.7116C69.7643 7.24067 69.9294 6.84222 70.2595 6.5162C70.6079 6.17208 71.0388 6 71.5527 6C72.0661 6 72.4882 6.16301 72.8183 6.48903C73.1667 6.79695 73.3411 7.18633 73.3411 7.65726C73.3411 8.14629 73.1667 8.56289 72.8183 8.907C72.4882 9.23302 72.0661 9.39603 71.5527 9.39603ZM84.0519 12.0313C85.9047 12.0313 87.3723 12.5656 88.4542 13.6343C89.5547 14.6848 90.105 16.2334 90.105 18.28V26.5664H87.4637V18.5789C87.4637 17.1842 87.1246 16.1338 86.4456 15.4274C85.7671 14.721 84.7948 14.3678 83.5291 14.3678C82.0984 14.3678 80.9703 14.7844 80.1449 15.6176C79.3195 16.4326 78.9068 17.6099 78.9068 19.1494V26.5664H76.2654V12.1672H78.7967V14.3406C79.3288 13.598 80.0442 13.0275 80.9428 12.629C81.8601 12.2306 82.8963 12.0313 84.0519 12.0313ZM107.18 6.40752V26.5664H104.649V24.2842C104.062 25.0812 103.319 25.6879 102.42 26.1045C101.521 26.5211 100.531 26.7294 99.449 26.7294C98.0364 26.7294 96.7708 26.4214 95.652 25.8056C94.5328 25.1898 93.6523 24.3295 93.0107 23.2247C92.3867 22.1017 92.0752 20.8158 92.0752 19.3668C92.0752 17.9178 92.3867 16.6409 93.0107 15.5361C93.6523 14.4312 94.5328 13.5709 95.652 12.9551C96.7708 12.3393 98.0364 12.0313 99.449 12.0313C100.494 12.0313 101.457 12.2306 102.338 12.629C103.218 13.0094 103.952 13.5799 104.539 14.3406V6.40752H107.18ZM99.6691 24.4472C100.586 24.4472 101.421 24.239 102.173 23.8224C102.925 23.3877 103.512 22.79 103.934 22.0293C104.355 21.2505 104.567 20.3629 104.567 19.3668C104.567 18.3706 104.355 17.4922 103.934 16.7315C103.512 15.9526 102.925 15.3549 102.173 14.9384C101.421 14.5218 100.586 14.3135 99.6691 14.3135C98.7336 14.3135 97.8895 14.5218 97.1378 14.9384C96.4037 15.3549 95.8171 15.9526 95.3769 16.7315C94.9548 17.4922 94.7441 18.3706 94.7441 19.3668C94.7441 20.3629 94.9548 21.2505 95.3769 22.0293C95.8171 22.79 96.4037 23.3877 97.1378 23.8224C97.8895 24.239 98.7336 24.4472 99.6691 24.4472ZM118.809 9.74922C117.048 9.74922 115.718 10.1477 114.819 10.9446C113.939 11.7234 113.498 12.8645 113.498 14.3678V16.5413H122.303V18.8777H113.498V26.5664H110.747V14.3406C110.747 12.1491 111.444 10.4375 112.838 9.20585C114.251 7.95611 116.213 7.33124 118.726 7.33124C119.827 7.33124 120.854 7.45801 121.808 7.7116C122.762 7.94704 123.587 8.30023 124.284 8.77116L123.376 11.0261C122.147 10.1748 120.624 9.74922 118.809 9.74922ZM130.975 26.7294C129.526 26.7294 128.223 26.4124 127.068 25.7785C125.912 25.1445 125.004 24.2752 124.344 23.1703C123.702 22.0474 123.381 20.7795 123.381 19.3668C123.381 17.954 123.702 16.6952 124.344 15.5904C125.004 14.4674 125.912 13.598 127.068 12.9822C128.223 12.3483 129.526 12.0313 130.975 12.0313C132.424 12.0313 133.717 12.3483 134.854 12.9822C136.01 13.598 136.908 14.4674 137.55 15.5904C138.211 16.6952 138.541 17.954 138.541 19.3668C138.541 20.7795 138.211 22.0474 137.55 23.1703C136.908 24.2752 136.01 25.1445 134.854 25.7785C133.717 26.4124 132.424 26.7294 130.975 26.7294ZM130.975 24.4472C131.91 24.4472 132.745 24.239 133.478 23.8224C134.231 23.3877 134.817 22.79 135.239 22.0293C135.661 21.2505 135.872 20.3629 135.872 19.3668C135.872 18.3706 135.661 17.4922 135.239 16.7315C134.817 15.9526 134.231 15.3549 133.478 14.9384C132.745 14.5218 131.91 14.3135 130.975 14.3135C130.039 14.3135 129.196 14.5218 128.443 14.9384C127.71 15.3549 127.123 15.9526 126.682 16.7315C126.26 17.4922 126.05 18.3706 126.05 19.3668C126.05 20.3629 126.26 21.2505 126.682 22.0293C127.123 22.79 127.71 23.3877 128.443 23.8224C129.196 24.239 130.039 24.4472 130.975 24.4472ZM154.135 12.1672V26.5664H151.631V24.3929C151.099 25.1355 150.393 25.7151 149.513 26.1317C148.65 26.5301 147.706 26.7294 146.679 26.7294C144.735 26.7294 143.203 26.2041 142.084 25.1536C140.965 24.085 140.406 22.5183 140.406 20.4535V12.1672H143.047V20.1547C143.047 21.5493 143.386 22.6089 144.065 23.3333C144.743 24.0397 145.716 24.3929 146.981 24.3929C148.375 24.3929 149.476 23.9763 150.283 23.1432C151.09 22.31 151.494 21.1327 151.494 19.6113V12.1672H154.135ZM165.299 12.0313C167.152 12.0313 168.619 12.5656 169.701 13.6343C170.802 14.6848 171.352 16.2334 171.352 18.28V26.5664H168.711V18.5789C168.711 17.1842 168.372 16.1338 167.693 15.4274C167.014 14.721 166.042 14.3678 164.776 14.3678C163.345 14.3678 162.217 14.7844 161.392 15.6176C160.566 16.4326 160.154 17.6099 160.154 19.1494V26.5664H157.512V12.1672H160.044V14.3406C160.576 13.598 161.291 13.0275 162.19 12.629C163.107 12.2306 164.143 12.0313 165.299 12.0313ZM188.427 6.40752V26.5664H185.896V24.2842C185.309 25.0812 184.566 25.6879 183.667 26.1045C182.768 26.5211 181.778 26.7294 180.696 26.7294C179.283 26.7294 178.018 26.4214 176.899 25.8056C175.78 25.1898 174.899 24.3295 174.258 23.2247C173.634 22.1017 173.322 20.8158 173.322 19.3668C173.322 17.9178 173.634 16.6409 174.258 15.5361C174.899 14.4312 175.78 13.5709 176.899 12.9551C178.018 12.3393 179.283 12.0313 180.696 12.0313C181.741 12.0313 182.704 12.2306 183.585 12.629C184.465 13.0094 185.199 13.5799 185.786 14.3406V6.40752H188.427ZM180.916 24.4472C181.833 24.4472 182.668 24.239 183.42 23.8224C184.172 23.3877 184.759 22.79 185.181 22.0293C185.602 21.2505 185.814 20.3629 185.814 19.3668C185.814 18.3706 185.602 17.4922 185.181 16.7315C184.759 15.9526 184.172 15.3549 183.42 14.9384C182.668 14.5218 181.833 14.3135 180.916 14.3135C179.981 14.3135 179.136 14.5218 178.385 14.9384C177.651 15.3549 177.064 15.9526 176.624 16.7315C176.202 17.4922 175.991 18.3706 175.991 19.3668C175.991 20.3629 176.202 21.2505 176.624 22.0293C177.064 22.79 177.651 23.3877 178.385 23.8224C179.136 24.239 179.981 24.4472 180.916 24.4472ZM194.306 14.5852C194.764 13.752 195.442 13.1181 196.342 12.6834C197.24 12.2487 198.331 12.0313 199.616 12.0313V14.558C199.469 14.5399 199.267 14.5308 199.01 14.5308C197.58 14.5308 196.452 14.9564 195.626 15.8077C194.819 16.6409 194.416 17.8363 194.416 19.3939V26.5664H191.774V12.1672H194.306V14.5852ZM215 12.1672V24.6102C215 27.1278 214.404 28.9843 213.212 30.1797C212.02 31.3932 210.231 32 207.846 32C206.544 32 205.297 31.8098 204.104 31.4295C202.931 31.0672 201.968 30.542 201.215 29.8537L202.509 27.8433C203.151 28.4229 203.921 28.8757 204.82 29.2017C205.737 29.5277 206.7 29.6907 207.709 29.6907C209.305 29.6907 210.479 29.2923 211.231 28.4953C211.983 27.7165 212.359 26.512 212.359 24.8819V23.8224C211.827 24.5106 211.139 25.0449 210.295 25.4253C209.452 25.7875 208.534 25.9687 207.544 25.9687C205.6 25.9687 204.068 25.4434 202.949 24.3929C201.83 23.3424 201.27 21.7847 201.27 19.72V12.1672H203.912V19.4211C203.912 20.7976 204.251 21.8482 204.93 22.5726C205.609 23.279 206.581 23.6322 207.846 23.6322C209.241 23.6322 210.341 23.2156 211.148 22.3824C211.955 21.5493 212.359 20.372 212.359 18.8506V12.1672H215Z" fill="white"/>
<g filter="url(#filter0_d)">
<path d="M16.5284 12.8822C16.5284 14.9069 14.889 16.528 12.8917 16.528C10.8943 16.528 9.25488 14.9069 9.25488 12.8822C9.25488 10.8575 10.8943 9.23633 12.8917 9.23633C13.7111 9.23633 14.4704 9.50918 15.0808 9.97084C15.6446 10.3973 16.0815 10.9847 16.3218 11.6669C16.4556 12.0464 16.5284 12.4553 16.5284 12.8822Z" fill="white"/>
<path fill-rule="evenodd" clip-rule="evenodd" d="M0 2.625C0 1.17525 1.17935 0 2.63414 0H33.3659C34.8207 0 36 1.17525 36 2.625V32.375C36 33.8247 34.8207 35 33.3659 35H2.63414C1.17935 35 0 33.8247 0 32.375V2.625ZM4.86448 23.3333C5.45059 27.1864 8.78021 30.1389 12.8 30.1389C16.8197 30.1389 20.1494 27.1864 20.7355 23.3333H17.1501C16.6191 25.2445 14.8667 26.6389 12.8 26.6389C10.7333 26.6389 8.98088 25.2445 8.44993 23.3333H4.86448ZM20.919 12.8819C20.919 17.3117 17.3252 20.9028 12.892 20.9028C8.45878 20.9028 4.86496 17.3117 4.86496 12.8819C4.86496 8.45216 8.45878 4.86111 12.892 4.86111C14.2096 4.86111 15.4531 5.1783 16.5501 5.74049V4.86111H20.9285V12.6389H20.9154C20.9178 12.7196 20.919 12.8006 20.919 12.8819ZM31.135 4.86583V9.24656C31.0438 9.23966 30.9517 9.23616 30.8589 9.23616C29.0143 9.23616 27.475 10.6188 27.2503 12.425H27.2432V16.5278H29.4323V20.0278H27.2432V30.1389H22.8648V12.425H22.8446C23.0817 8.20784 26.5791 4.86116 30.8589 4.86116C30.9513 4.86116 31.0433 4.86272 31.135 4.86583Z" fill="white"/>
</g>
</g>
<defs>
<filter id="filter0_d" x="-3" y="-3" width="44" height="43" filterUnits="userSpaceOnUse" color-interpolation-filters="sRGB">
<feFlood flood-opacity="0" result="BackgroundImageFix"/>
<feColorMatrix in="SourceAlpha" type="matrix" values="0 0 0 0 0 0 0 0 0 0 0 0 0 0 0 0 0 0 127 0" result="hardAlpha"/>
<feOffset dx="1" dy="1"/>
<feGaussianBlur stdDeviation="2"/>
<feColorMatrix type="matrix" values="0 0 0 0 0.254167 0 0 0 0 0.254167 0 0 0 0 0.254167 0 0 0 0.4 0"/>
<feBlend mode="normal" in2="BackgroundImageFix" result="effect1_dropShadow"/>
<feBlend mode="normal" in="SourceGraphic" in2="effect1_dropShadow" result="shape"/>
</filter>
<clipPath id="clip0">
<rect width="215" height="37" fill="white"/>
</clipPath>
</defs>
</svg>
