<svg width="354" height="318" viewBox="0 0 354 318" fill="none" xmlns="http://www.w3.org/2000/svg">
<g clip-path="url(#clip0_2534:47319)">
<path d="M87.9612 80.6658C81.8914 62.523 63.1471 52.4395 50.8161 56.5643C38.4851 60.6892 29.582 80.0209 35.6518 98.1637C41.2702 114.957 58.2946 124.652 70.0061 122.922C69.9217 123.069 69.8661 123.23 69.8423 123.398L69.4842 126.385C69.4569 126.612 69.4883 126.843 69.5753 127.055C69.6624 127.268 69.8022 127.454 69.9815 127.597C70.1608 127.74 70.3737 127.834 70.5999 127.872C70.8262 127.909 71.0582 127.889 71.2741 127.811L77.3069 125.648C77.5228 125.571 77.7153 125.439 77.8661 125.267C78.017 125.094 78.1212 124.886 78.1688 124.661C78.2165 124.437 78.206 124.204 78.1384 123.985C78.0708 123.766 77.9483 123.568 77.7826 123.409L75.6079 121.331C75.5306 121.26 75.4452 121.199 75.3535 121.148C85.7991 115.519 93.5918 97.4957 87.9612 80.6658Z" fill="#153E90"/>
<path d="M65.9876 67.3182C71.0283 69.9195 74.8778 74.3567 76.7416 79.7138C78.6053 85.0709 78.341 90.9391 76.0032 96.107C75.4812 97.2952 77.4009 97.9201 77.9195 96.7396C80.374 91.1479 80.6237 84.8351 78.6184 79.067C76.6131 73.299 72.5011 68.5022 67.1071 65.6388C65.9686 65.0355 64.8406 66.7105 65.9876 67.3182Z" fill="white"/>
<path d="M333.706 54.2205C327.636 36.0777 308.892 25.9942 296.561 30.119C284.23 34.2439 275.327 53.5756 281.396 71.7184C287.015 88.5118 304.039 98.2066 315.751 96.4765C315.666 96.6234 315.611 96.7851 315.587 96.9528L315.229 99.9394C315.202 100.167 315.233 100.398 315.32 100.61C315.407 100.822 315.547 101.009 315.726 101.152C315.905 101.294 316.118 101.389 316.345 101.427C316.571 101.464 316.803 101.443 317.019 101.366L323.052 99.2028C323.267 99.1255 323.46 98.9942 323.611 98.8215C323.762 98.6488 323.866 98.4404 323.913 98.2161C323.961 97.9918 323.951 97.759 323.883 97.5399C323.815 97.3207 323.693 97.1226 323.527 96.9641L321.353 94.8856C321.275 94.8148 321.19 94.7534 321.098 94.7027C331.544 89.0739 339.336 71.0504 333.706 54.2205Z" fill="#E8E7E7"/>
<path d="M311.732 40.8729C316.773 43.4742 320.622 47.9113 322.486 53.2685C324.35 58.6256 324.086 64.4937 321.748 69.6617C321.226 70.8499 323.146 71.4748 323.664 70.2943C326.119 64.7026 326.368 58.3898 324.363 52.6217C322.358 46.8537 318.246 42.0569 312.852 39.1934C311.713 38.5902 310.585 40.2652 311.732 40.8729Z" fill="white"/>
<path d="M190.997 25.0193C184.928 6.87653 166.183 -3.20696 153.852 0.917865C141.521 5.04269 132.618 24.3744 138.688 42.5172C144.306 59.3106 161.331 69.0054 173.042 67.2754C172.958 67.4222 172.902 67.5839 172.878 67.7516L172.52 70.7382C172.493 70.9659 172.524 71.1968 172.611 71.4089C172.698 71.6211 172.838 71.8074 173.018 71.9504C173.197 72.0933 173.41 72.188 173.636 72.2255C173.862 72.263 174.094 72.2421 174.31 72.1647L180.343 70.0017C180.559 69.9243 180.751 69.793 180.902 69.6203C181.053 69.4476 181.157 69.2392 181.205 69.0149C181.253 68.7906 181.242 68.5578 181.175 68.3387C181.107 68.1196 180.984 67.9214 180.819 67.7629L178.644 65.6844C178.567 65.6136 178.481 65.5523 178.39 65.5015C188.835 59.8727 196.628 41.8492 190.997 25.0193Z" fill="#153E90"/>
<path d="M169.024 11.6717C174.065 14.273 177.914 18.7102 179.778 24.0673C181.642 29.4244 181.378 35.2926 179.04 40.4605C178.518 41.6487 180.438 42.2736 180.956 41.0931C183.411 35.5014 183.66 29.1886 181.655 23.4205C179.65 17.6525 175.538 12.8557 170.144 9.99227C169.005 9.389 167.877 11.064 169.024 11.6717Z" fill="white"/>
<path d="M160.555 112.32C161.354 112.32 162.001 111.672 162.001 110.874C162.001 110.075 161.354 109.428 160.555 109.428C159.756 109.428 159.109 110.075 159.109 110.874C159.109 111.672 159.756 112.32 160.555 112.32Z" fill="#153E90"/>
<path d="M157.473 170.322C159.051 170.322 160.33 169.043 160.33 167.466C160.33 165.888 159.051 164.609 157.473 164.609C155.895 164.609 154.616 165.888 154.616 167.466C154.616 169.043 155.895 170.322 157.473 170.322Z" fill="#153E90"/>
<path d="M109.649 159.325C110.56 159.325 111.299 158.586 111.299 157.674C111.299 156.762 110.56 156.023 109.649 156.023C108.737 156.023 107.998 156.762 107.998 157.674C107.998 158.586 108.737 159.325 109.649 159.325Z" fill="#153E90"/>
<path d="M134.726 132.298C135.713 132.298 136.514 131.497 136.514 130.51C136.514 129.523 135.713 128.723 134.726 128.723C133.739 128.723 132.938 129.523 132.938 130.51C132.938 131.497 133.739 132.298 134.726 132.298Z" fill="#153E90"/>
<path d="M222.69 236.95C223.488 236.95 224.136 236.303 224.136 235.505C224.136 234.706 223.488 234.059 222.69 234.059C221.891 234.059 221.244 234.706 221.244 235.505C221.244 236.303 221.891 236.95 222.69 236.95Z" fill="#153E90"/>
<path d="M175.332 207.217C176.909 207.217 178.188 205.938 178.188 204.36C178.188 202.783 176.909 201.504 175.332 201.504C173.754 201.504 172.475 202.783 172.475 204.36C172.475 205.938 173.754 207.217 175.332 207.217Z" fill="#153E90"/>
<path d="M207.862 169.616C208.773 169.616 209.512 168.877 209.512 167.965C209.512 167.053 208.773 166.314 207.862 166.314C206.95 166.314 206.211 167.053 206.211 167.965C206.211 168.877 206.95 169.616 207.862 169.616Z" fill="#153E90"/>
<path d="M218.717 205.091C219.704 205.091 220.504 204.29 220.504 203.303C220.504 202.316 219.704 201.516 218.717 201.516C217.73 201.516 216.929 202.316 216.929 203.303C216.929 204.29 217.73 205.091 218.717 205.091Z" fill="#153E90"/>
<path d="M315.002 297.154C316.579 295.833 314.448 290.69 310.241 285.666C306.034 280.642 301.345 277.64 299.768 278.961C298.191 280.281 300.322 285.424 304.529 290.448C308.736 295.472 313.425 298.474 315.002 297.154Z" fill="#52B6C3"/>
<path d="M282.145 307.665C295.251 307.665 305.875 297.042 305.875 283.937C305.875 270.832 295.251 260.209 282.145 260.209C269.04 260.209 258.416 270.832 258.416 283.937C258.416 297.042 269.04 307.665 282.145 307.665Z" fill="#52B6C3"/>
<path d="M292.19 302.559H284.98V315.474H292.19V302.559Z" fill="#52B6C3"/>
<path d="M277.771 302.559H270.562V315.474H277.771V302.559Z" fill="#52B6C3"/>
<path d="M286.182 317.876C289.5 317.876 292.19 316.868 292.19 315.624C292.19 314.38 289.5 313.371 286.182 313.371C282.864 313.371 280.174 314.38 280.174 315.624C280.174 316.868 282.864 317.876 286.182 317.876Z" fill="#52B6C3"/>
<path d="M271.763 317.576C275.081 317.576 277.771 316.567 277.771 315.323C277.771 314.079 275.081 313.07 271.763 313.07C268.446 313.07 265.756 314.079 265.756 315.323C265.756 316.567 268.446 317.576 271.763 317.576Z" fill="#52B6C3"/>
<path d="M274.694 254.109C276.813 245.577 286.167 240.556 295.585 242.894C305.004 245.233 310.922 254.046 308.803 262.578C306.684 271.111 299.654 271.138 290.236 268.8C280.817 266.461 272.576 262.642 274.694 254.109Z" fill="#E8E7E7"/>
<path d="M266.138 278.01C267.02 276.152 262.934 272.369 257.014 269.561C251.093 266.753 245.579 265.983 244.697 267.842C243.816 269.7 247.901 273.483 253.821 276.291C259.742 279.099 265.256 279.869 266.138 278.01Z" fill="#52B6C3"/>
<path d="M278.598 286.841C282.967 286.841 286.509 283.3 286.509 278.931C286.509 274.561 282.967 271.02 278.598 271.02C274.228 271.02 270.686 274.561 270.686 278.931C270.686 283.3 274.228 286.841 278.598 286.841Z" fill="white"/>
<path d="M275.346 278.731C276.803 278.731 277.983 277.55 277.983 276.094C277.983 274.638 276.803 273.457 275.346 273.457C273.89 273.457 272.709 274.638 272.709 276.094C272.709 277.55 273.89 278.731 275.346 278.731Z" fill="#52B6C3"/>
<path d="M283.561 295.412C283.685 296.093 283.673 296.793 283.527 297.47C283.381 298.147 283.103 298.788 282.709 299.358C282.315 299.927 281.812 300.413 281.23 300.789C280.648 301.164 279.998 301.421 279.316 301.545C278.635 301.669 277.936 301.658 277.259 301.512C276.582 301.366 275.94 301.088 275.37 300.693C274.801 300.299 274.314 299.797 273.939 299.215C273.564 298.633 273.307 297.982 273.183 297.301L273.181 297.291C272.662 294.425 274.878 293.411 277.744 292.892C280.611 292.373 283.042 292.546 283.561 295.412Z" fill="white"/>
<path d="M87.0512 267.349C89.3907 261.228 89.7296 255.671 87.808 254.937C85.8865 254.202 82.4321 258.569 80.0926 264.689C77.753 270.81 77.4142 276.367 79.3357 277.101C81.2573 277.836 84.7116 273.469 87.0512 267.349Z" fill="#52B6C3"/>
<path d="M61.6382 307.665C74.7439 307.665 85.3681 297.042 85.3681 283.937C85.3681 270.832 74.7439 260.209 61.6382 260.209C48.5325 260.209 37.9082 270.832 37.9082 283.937C37.9082 297.042 48.5325 307.665 61.6382 307.665Z" fill="#52B6C3"/>
<path d="M58.0338 302.559H50.8247V315.474H58.0338V302.559Z" fill="#52B6C3"/>
<path d="M72.4518 302.559H65.2427V315.474H72.4518V302.559Z" fill="#52B6C3"/>
<path d="M56.8323 317.876C60.1502 317.876 62.8399 316.868 62.8399 315.624C62.8399 314.38 60.1502 313.371 56.8323 313.371C53.5144 313.371 50.8247 314.38 50.8247 315.624C50.8247 316.868 53.5144 317.876 56.8323 317.876Z" fill="#52B6C3"/>
<path d="M71.2503 317.576C74.5682 317.576 77.2579 316.567 77.2579 315.323C77.2579 314.079 74.5682 313.07 71.2503 313.07C67.9324 313.07 65.2427 314.079 65.2427 315.323C65.2427 316.567 67.9324 317.576 71.2503 317.576Z" fill="#52B6C3"/>
<path d="M62.2391 286.04C66.7183 286.04 70.3494 282.409 70.3494 277.93C70.3494 273.451 66.7183 269.82 62.2391 269.82C57.76 269.82 54.1289 273.451 54.1289 277.93C54.1289 282.409 57.76 286.04 62.2391 286.04Z" fill="white"/>
<path d="M62.2391 280.633C63.7321 280.633 64.9425 279.423 64.9425 277.93C64.9425 276.437 63.7321 275.227 62.2391 275.227C60.746 275.227 59.5356 276.437 59.5356 277.93C59.5356 279.423 60.746 280.633 62.2391 280.633Z" fill="#52B6C3"/>
<path d="M38.6194 261.869C36.7033 253.289 42.8283 244.619 52.2999 242.504C61.7715 240.389 71.003 245.631 72.9191 254.211C74.8352 262.791 68.558 265.956 59.0864 268.071C49.6148 270.186 40.5355 270.45 38.6194 261.869Z" fill="#E8E7E7"/>
<path d="M45.6306 278.01C46.5122 276.152 42.4271 272.369 36.5065 269.561C30.5858 266.753 25.0715 265.983 24.1899 267.842C23.3084 269.7 27.3934 273.483 33.3141 276.291C39.2348 279.099 44.7491 279.869 45.6306 278.01Z" fill="#52B6C3"/>
<path d="M49.9819 292.497C49.9819 294.819 55.9621 299.405 62.5979 299.405C69.2337 299.405 75.4555 292.867 75.4555 290.544C75.4555 288.222 69.2336 290.995 62.5979 290.995C55.9621 290.995 49.9819 290.174 49.9819 292.497Z" fill="white"/>
<path d="M174.989 285.075C188.094 285.075 198.719 274.452 198.719 261.347C198.719 248.243 188.094 237.619 174.989 237.619C161.883 237.619 151.259 248.243 151.259 261.347C151.259 274.452 161.883 285.075 174.989 285.075Z" fill="#52B6C3"/>
<path d="M171.384 279.971H164.175V292.886H171.384V279.971Z" fill="#52B6C3"/>
<path d="M185.802 279.971H178.593V292.886H185.802V279.971Z" fill="#52B6C3"/>
<path d="M170.183 295.289C173.501 295.289 176.19 294.28 176.19 293.036C176.19 291.792 173.501 290.783 170.183 290.783C166.865 290.783 164.175 291.792 164.175 293.036C164.175 294.28 166.865 295.289 170.183 295.289Z" fill="#52B6C3"/>
<path d="M184.601 294.988C187.919 294.988 190.608 293.979 190.608 292.735C190.608 291.491 187.919 290.482 184.601 290.482C181.283 290.482 178.593 291.491 178.593 292.735C178.593 293.979 181.283 294.988 184.601 294.988Z" fill="#52B6C3"/>
<path d="M151.97 239.281C150.054 230.701 156.179 222.031 165.65 219.916C175.122 217.801 184.354 223.043 186.27 231.623C188.186 240.204 181.909 243.368 172.437 245.483C162.965 247.598 153.886 247.862 151.97 239.281Z" fill="#E8E7E7"/>
<path d="M200.56 250.979C205.699 245.837 208.557 240.36 206.942 238.747C205.328 237.134 199.853 239.995 194.713 245.138C189.574 250.28 186.717 255.757 188.332 257.37C189.946 258.983 195.421 256.122 200.56 250.979Z" fill="#52B6C3"/>
<path d="M155.862 259.023C157.476 257.41 154.619 251.933 149.48 246.79C144.341 241.647 138.866 238.786 137.251 240.399C135.637 242.013 138.494 247.489 143.633 252.632C148.772 257.775 154.247 260.636 155.862 259.023Z" fill="#52B6C3"/>
<path d="M319.255 110.754C318.467 86.4238 301.802 67.2193 282.033 67.8593C238.034 69.1629 236.96 149.842 279.439 155.638L278.54 162.786L291.659 162.362L290.299 155.286C307.388 151.509 319.969 132.812 319.255 110.754Z" fill="#E8E7E7"/>
<path d="M260.153 124.244L255.197 124.405C253.254 115.168 252.946 105.663 254.288 96.3206L259.244 96.1602C257.413 105.94 257.716 115.301 260.153 124.244Z" fill="white"/>
<path d="M292.302 155.175L277.433 155.656L277.54 158.96L292.409 158.479L292.302 155.175Z" fill="#52B6C3"/>
<path d="M249.114 281.688L247.617 280.987L284.43 156.156L285.927 156.858L249.114 281.688Z" fill="#153E90"/>
<path d="M349.724 131.327C358.714 108.705 351.101 84.4453 332.719 77.1413C291.857 60.7749 258.665 134.319 295.3 156.588L291.622 162.784L303.82 167.631L305.398 160.6C322.574 163.958 341.573 151.837 349.724 131.327Z" fill="#153E90"/>
<path d="M290.15 120.106L285.542 118.275C287.447 109.031 290.959 100.193 295.919 92.1621L300.527 93.9933C294.945 102.229 291.486 110.933 290.15 120.106Z" fill="white"/>
<path d="M293.453 155.805L292.232 158.877L306.058 164.37L307.279 161.298L293.453 155.805Z" fill="#52B6C3"/>
<path d="M248.823 278.403L247.387 277.586L298.783 160.305L300.219 161.122L248.823 278.403Z" fill="#153E90"/>
<path d="M70.3621 112.325C60.6353 90.0098 38.0509 78.3258 19.9184 86.2282C-20.4817 103.703 8.34696 179.065 49.9598 168.747L51.7671 175.722L63.8004 170.478L59.9209 164.406C74.4026 154.58 79.1805 132.557 70.3621 112.325Z" fill="#E8E7E7"/>
<path d="M20.4336 146.706L15.8877 148.687C10.6678 140.823 6.86768 132.105 4.66016 122.928L9.20611 120.947C11.1207 130.711 14.8632 139.297 20.4336 146.706Z" fill="white"/>
<path d="M61.7409 163.562L48.103 169.506L49.4239 172.536L63.0618 166.593L61.7409 163.562Z" fill="#52B6C3"/>
<path d="M93.2944 282.007C93.0816 282.06 92.8567 282.026 92.669 281.913C92.4812 281.8 92.3461 281.617 92.2933 281.404L56.3643 167.568L57.9686 167.17L93.8976 281.006C93.9237 281.112 93.9289 281.221 93.9127 281.328C93.8965 281.436 93.8594 281.539 93.8033 281.632C93.7473 281.725 93.6735 281.806 93.5862 281.87C93.4989 281.935 93.3997 281.981 93.2944 282.007Z" fill="#153E90"/>
<path d="M173.99 266.094C178.469 266.094 182.1 262.463 182.1 257.985C182.1 253.506 178.469 249.875 173.99 249.875C169.511 249.875 165.88 253.506 165.88 257.985C165.88 262.463 169.511 266.094 173.99 266.094Z" fill="white"/>
<path d="M173.991 260.688C175.484 260.688 176.694 259.477 176.694 257.984C176.694 256.492 175.484 255.281 173.991 255.281C172.497 255.281 171.287 256.492 171.287 257.984C171.287 259.477 172.497 260.688 173.991 260.688Z" fill="#52B6C3"/>
<path d="M180.428 272.982C180.679 274.358 180.372 275.778 179.576 276.928C178.781 278.078 177.56 278.865 176.184 279.116C174.808 279.366 173.388 279.06 172.238 278.264C171.088 277.468 170.301 276.248 170.05 274.871L170.048 274.861C169.529 271.995 171.746 270.981 174.612 270.462C177.478 269.943 179.91 270.116 180.428 272.982Z" fill="white"/>
</g>
<defs>
<clipPath id="clip0_2534:47319">
<rect width="353" height="318" fill="white" transform="translate(0.5)"/>
</clipPath>
</defs>
</svg>
