<svg width="24" height="24" viewBox="0 0 24 24" fill="none" xmlns="http://www.w3.org/2000/svg">
<path d="M12.0253 2C11.9003 2 11.7695 2.00477 11.6395 2.00977C7.63453 2.19477 4.49988 5.57043 4.49988 9.69043V13.3252L3.16981 16.0049C2.90981 16.5499 2.95027 17.1804 3.27527 17.6904C3.59527 18.1954 4.14988 18.5 4.74988 18.5H8.99988C8.99988 20.155 10.3449 21.5 11.9999 21.5C12.1199 21.5 12.2402 21.4946 12.3602 21.4746C11.7002 20.6246 11.2501 19.605 11.0751 18.5C11.0401 18.255 11.0148 18.005 11.0048 17.75C10.9998 17.665 10.9999 17.585 10.9999 17.5C10.9999 17.33 11.0053 17.165 11.0253 17H4.74988C4.62988 17 4.56992 16.9248 4.53992 16.8848C4.51492 16.8398 4.47442 16.7502 4.51942 16.6602L5.91981 13.835C5.97481 13.73 5.99988 13.615 5.99988 13.5V9.69043C5.99988 6.37543 8.50984 3.65988 11.7098 3.50488C13.3748 3.42988 14.9445 4.01516 16.1395 5.16016C17.3395 6.30016 17.9999 7.845 17.9999 9.5V11.0254C18.5199 11.0604 19.0199 11.1603 19.4999 11.3203V9.5C19.4999 7.43 18.6747 5.5002 17.1747 4.0752C15.7747 2.7352 13.9553 2 12.0253 2ZM17.4999 12C14.4624 12 11.9999 14.4625 11.9999 17.5C11.9999 20.5375 14.4624 23 17.4999 23C20.5374 23 22.9999 20.5375 22.9999 17.5C22.9999 14.4625 20.5374 12 17.4999 12ZM17.4999 13.5C17.7759 13.5 17.9999 13.724 17.9999 14V17H20.9999C21.2759 17 21.4999 17.224 21.4999 17.5C21.4999 17.776 21.2759 18 20.9999 18H17.9999V21C17.9999 21.276 17.7759 21.5 17.4999 21.5C17.2239 21.5 16.9999 21.276 16.9999 21V18H13.9999C13.7239 18 13.4999 17.776 13.4999 17.5C13.4999 17.224 13.7239 17 13.9999 17H16.9999V14C16.9999 13.724 17.2239 13.5 17.4999 13.5Z" fill="#414141"/>
</svg>
