<svg width="24" height="24" viewBox="0 0 24 24" fill="none" xmlns="http://www.w3.org/2000/svg">
<path d="M13.9999 2C13.1979 2 12.4448 2.31241 11.8788 2.87891L2.87883 11.8789C1.70933 13.0484 1.70933 14.9516 2.87883 16.1211L7.87883 21.1211C8.44483 21.6881 9.19793 22 9.99993 22C10.7969 22 11.5463 21.6914 12.1113 21.1309C11.8178 20.6969 11.5818 20.2212 11.3993 19.7217L11.0605 20.0605C10.494 20.627 9.50588 20.627 8.93938 20.0605L3.93938 15.0605C3.35488 14.4755 3.35488 13.5245 3.93938 12.9395L12.9394 3.93945C13.2224 3.65595 13.5989 3.5 13.9999 3.5H19.4999C20.0514 3.5 20.4999 3.9485 20.4999 4.5V9.99902C20.4999 10.4 20.3435 10.777 20.0605 11.0605L19.7216 11.3994C20.2216 11.5819 20.6963 11.8178 21.1308 12.1113C21.6908 11.5458 21.9999 10.796 21.9999 9.99902V4.5C21.9999 3.1215 20.8784 2 19.4999 2H13.9999ZM16.9999 5.5C16.1714 5.5 15.4999 6.1715 15.4999 7C15.4999 7.8285 16.1714 8.5 16.9999 8.5C17.8284 8.5 18.4999 7.8285 18.4999 7C18.4999 6.1715 17.8284 5.5 16.9999 5.5ZM17.4999 12C14.4629 12 11.9999 14.463 11.9999 17.5C11.9999 20.537 14.4629 23 17.4999 23C20.5369 23 22.9999 20.537 22.9999 17.5C22.9999 14.463 20.5369 12 17.4999 12ZM17.4999 13.5C17.7754 13.5 17.9999 13.7245 17.9999 14V17H20.9999C21.2754 17 21.4999 17.2245 21.4999 17.5C21.4999 17.7755 21.2754 18 20.9999 18H17.9999V21C17.9999 21.2755 17.7754 21.5 17.4999 21.5C17.2244 21.5 16.9999 21.2755 16.9999 21V18H13.9999C13.7244 18 13.4999 17.7755 13.4999 17.5C13.4999 17.2245 13.7244 17 13.9999 17H16.9999V14C16.9999 13.7245 17.2244 13.5 17.4999 13.5Z" fill="#414141"/>
<circle cx="17.5" cy="6.5" r="2.5" fill="white"/>
</svg>
