<svg width="24" height="24" viewBox="0 0 24 24" fill="none" xmlns="http://www.w3.org/2000/svg">
<path d="M6.74994 4.99995C6.65056 4.99855 6.55188 5.01691 6.45966 5.05397C6.36743 5.09103 6.28349 5.14605 6.21271 5.21583C6.14194 5.28562 6.08573 5.36877 6.04737 5.46046C6.00901 5.55216 5.98926 5.65056 5.98926 5.74995C5.98926 5.84935 6.00901 5.94775 6.04737 6.03944C6.08573 6.13114 6.14194 6.21429 6.21271 6.28407C6.28349 6.35386 6.36743 6.40888 6.45966 6.44594C6.55188 6.483 6.65056 6.50136 6.74994 6.49995H21.2499C21.3493 6.50136 21.448 6.483 21.5402 6.44594C21.6324 6.40888 21.7164 6.35386 21.7872 6.28407C21.8579 6.21429 21.9141 6.13114 21.9525 6.03944C21.9909 5.94775 22.0106 5.84935 22.0106 5.74995C22.0106 5.65056 21.9909 5.55216 21.9525 5.46046C21.9141 5.36877 21.8579 5.28562 21.7872 5.21583C21.7164 5.14605 21.6324 5.09103 21.5402 5.05397C21.448 5.01691 21.3493 4.99855 21.2499 4.99995H6.74994ZM2.74994 11.5C2.65056 11.4985 2.55188 11.5169 2.45966 11.554C2.36743 11.591 2.28349 11.646 2.21271 11.7158C2.14194 11.7856 2.08573 11.8688 2.04737 11.9605C2.00901 12.0522 1.98926 12.1506 1.98926 12.25C1.98926 12.3493 2.00901 12.4477 2.04737 12.5394C2.08573 12.6311 2.14194 12.7143 2.21271 12.7841C2.28349 12.8539 2.36743 12.9089 2.45966 12.9459C2.55188 12.983 2.65056 13.0014 2.74994 13H21.2499C21.3493 13.0014 21.448 12.983 21.5402 12.9459C21.6324 12.9089 21.7164 12.8539 21.7872 12.7841C21.8579 12.7143 21.9141 12.6311 21.9525 12.5394C21.9909 12.4477 22.0106 12.3493 22.0106 12.25C22.0106 12.1506 21.9909 12.0522 21.9525 11.9605C21.9141 11.8688 21.8579 11.7856 21.7872 11.7158C21.7164 11.646 21.6324 11.591 21.5402 11.554C21.448 11.5169 21.3493 11.4985 21.2499 11.5H2.74994ZM10.2499 18C10.1506 17.9985 10.0519 18.0169 9.95966 18.054C9.86743 18.091 9.78349 18.146 9.71271 18.2158C9.64194 18.2856 9.58573 18.3688 9.54737 18.4605C9.50901 18.5522 9.48926 18.6506 9.48926 18.75C9.48926 18.8493 9.50901 18.9478 9.54737 19.0394C9.58573 19.1311 9.64194 19.2143 9.71271 19.2841C9.78349 19.3539 9.86743 19.4089 9.95966 19.4459C10.0519 19.483 10.1506 19.5014 10.2499 19.5H20.7499C20.8493 19.5014 20.948 19.483 21.0402 19.4459C21.1324 19.4089 21.2164 19.3539 21.2872 19.2841C21.3579 19.2143 21.4141 19.1311 21.4525 19.0394C21.4909 18.9478 21.5106 18.8493 21.5106 18.75C21.5106 18.6506 21.4909 18.5522 21.4525 18.4605C21.4141 18.3688 21.3579 18.2856 21.2872 18.2158C21.2164 18.146 21.1324 18.091 21.0402 18.054C20.948 18.0169 20.8493 17.9985 20.7499 18H10.2499Z" fill="#414141"/>
</svg>
