<svg width="24" height="24" viewBox="0 0 24 24" fill="none" xmlns="http://www.w3.org/2000/svg">
<path d="M4.74994 4.99995C4.65056 4.99855 4.55188 5.01691 4.45966 5.05397C4.36743 5.09103 4.28349 5.14605 4.21271 5.21583C4.14194 5.28562 4.08573 5.36877 4.04737 5.46046C4.00901 5.55216 3.98926 5.65056 3.98926 5.74995C3.98926 5.84935 4.00901 5.94775 4.04737 6.03944C4.08573 6.13114 4.14194 6.21429 4.21271 6.28407C4.28349 6.35386 4.36743 6.40888 4.45966 6.44594C4.55188 6.483 4.65056 6.50136 4.74994 6.49995H19.2499C19.3493 6.50136 19.448 6.483 19.5402 6.44594C19.6324 6.40888 19.7164 6.35386 19.7872 6.28407C19.8579 6.21429 19.9141 6.13114 19.9525 6.03944C19.9909 5.94775 20.0106 5.84935 20.0106 5.74995C20.0106 5.65056 19.9909 5.55216 19.9525 5.46046C19.9141 5.36877 19.8579 5.28562 19.7872 5.21583C19.7164 5.14605 19.6324 5.09103 19.5402 5.05397C19.448 5.01691 19.3493 4.99855 19.2499 4.99995H4.74994ZM2.74994 11.5C2.65056 11.4985 2.55188 11.5169 2.45966 11.554C2.36743 11.591 2.28349 11.646 2.21271 11.7158C2.14194 11.7856 2.08573 11.8688 2.04737 11.9605C2.00901 12.0522 1.98926 12.1506 1.98926 12.25C1.98926 12.3493 2.00901 12.4477 2.04737 12.5394C2.08573 12.6311 2.14194 12.7143 2.21271 12.7841C2.28349 12.8539 2.36743 12.9089 2.45966 12.9459C2.55188 12.983 2.65056 13.0014 2.74994 13H21.2499C21.3493 13.0014 21.448 12.983 21.5402 12.9459C21.6324 12.9089 21.7164 12.8539 21.7872 12.7841C21.8579 12.7143 21.9141 12.6311 21.9525 12.5394C21.9909 12.4477 22.0106 12.3493 22.0106 12.25C22.0106 12.1506 21.9909 12.0522 21.9525 11.9605C21.9141 11.8688 21.8579 11.7856 21.7872 11.7158C21.7164 11.646 21.6324 11.591 21.5402 11.554C21.448 11.5169 21.3493 11.4985 21.2499 11.5H2.74994ZM6.74994 18C6.65056 17.9985 6.55188 18.0169 6.45966 18.054C6.36743 18.091 6.28349 18.146 6.21271 18.2158C6.14194 18.2856 6.08573 18.3688 6.04737 18.4605C6.00901 18.5522 5.98926 18.6506 5.98926 18.75C5.98926 18.8493 6.00901 18.9478 6.04737 19.0394C6.08573 19.1311 6.14194 19.2143 6.21271 19.2841C6.28349 19.3539 6.36743 19.4089 6.45966 19.4459C6.55188 19.483 6.65056 19.5014 6.74994 19.5H17.2499C17.3493 19.5014 17.448 19.483 17.5402 19.4459C17.6324 19.4089 17.7164 19.3539 17.7872 19.2841C17.8579 19.2143 17.9141 19.1311 17.9525 19.0394C17.9909 18.9478 18.0106 18.8493 18.0106 18.75C18.0106 18.6506 17.9909 18.5522 17.9525 18.4605C17.9141 18.3688 17.8579 18.2856 17.7872 18.2158C17.7164 18.146 17.6324 18.091 17.5402 18.054C17.448 18.0169 17.3493 17.9985 17.2499 18H6.74994Z" fill="#414141"/>
</svg>
