<svg width="24" height="24" viewBox="0 0 24 24" fill="none" xmlns="http://www.w3.org/2000/svg">
<path d="M2.74994 4.99995C2.65056 4.99855 2.55188 5.01691 2.45966 5.05397C2.36743 5.09103 2.28349 5.14605 2.21271 5.21583C2.14194 5.28562 2.08573 5.36877 2.04737 5.46046C2.00901 5.55216 1.98926 5.65056 1.98926 5.74995C1.98926 5.84935 2.00901 5.94775 2.04737 6.03944C2.08573 6.13114 2.14194 6.21429 2.21271 6.28407C2.28349 6.35386 2.36743 6.40888 2.45966 6.44594C2.55188 6.483 2.65056 6.50136 2.74994 6.49995H17.2499C17.3493 6.50136 17.448 6.483 17.5402 6.44594C17.6324 6.40888 17.7164 6.35386 17.7872 6.28407C17.8579 6.21429 17.9141 6.13114 17.9525 6.03944C17.9909 5.94775 18.0106 5.84935 18.0106 5.74995C18.0106 5.65056 17.9909 5.55216 17.9525 5.46046C17.9141 5.36877 17.8579 5.28562 17.7872 5.21583C17.7164 5.14605 17.6324 5.09103 17.5402 5.05397C17.448 5.01691 17.3493 4.99855 17.2499 4.99995H2.74994ZM2.74994 11.5C2.65056 11.4985 2.55188 11.5169 2.45966 11.554C2.36743 11.591 2.28349 11.646 2.21271 11.7158C2.14194 11.7856 2.08573 11.8688 2.04737 11.9605C2.00901 12.0522 1.98926 12.1506 1.98926 12.25C1.98926 12.3493 2.00901 12.4477 2.04737 12.5394C2.08573 12.6311 2.14194 12.7143 2.21271 12.7841C2.28349 12.8539 2.36743 12.9089 2.45966 12.9459C2.55188 12.983 2.65056 13.0014 2.74994 13H21.2499C21.3493 13.0014 21.448 12.983 21.5402 12.9459C21.6324 12.9089 21.7164 12.8539 21.7872 12.7841C21.8579 12.7143 21.9141 12.6311 21.9525 12.5394C21.9909 12.4477 22.0106 12.3493 22.0106 12.25C22.0106 12.1506 21.9909 12.0522 21.9525 11.9605C21.9141 11.8688 21.8579 11.7856 21.7872 11.7158C21.7164 11.646 21.6324 11.591 21.5402 11.554C21.448 11.5169 21.3493 11.4985 21.2499 11.5H2.74994ZM3.24994 18C3.15056 17.9985 3.05188 18.0169 2.95966 18.054C2.86743 18.091 2.78349 18.146 2.71271 18.2158C2.64194 18.2856 2.58573 18.3688 2.54737 18.4605C2.50901 18.5522 2.48926 18.6506 2.48926 18.75C2.48926 18.8493 2.50901 18.9478 2.54737 19.0394C2.58573 19.1311 2.64194 19.2143 2.71271 19.2841C2.78349 19.3539 2.86743 19.4089 2.95966 19.4459C3.05188 19.483 3.15056 19.5014 3.24994 19.5H13.7499C13.8493 19.5014 13.948 19.483 14.0402 19.4459C14.1324 19.4089 14.2164 19.3539 14.2872 19.2841C14.3579 19.2143 14.4141 19.1311 14.4525 19.0394C14.4909 18.9478 14.5106 18.8493 14.5106 18.75C14.5106 18.6506 14.4909 18.5522 14.4525 18.4605C14.4141 18.3688 14.3579 18.2856 14.2872 18.2158C14.2164 18.146 14.1324 18.091 14.0402 18.054C13.948 18.0169 13.8493 17.9985 13.7499 18H3.24994Z" fill="#414141"/>
</svg>
