<svg width="24" height="24" viewBox="0 0 24 24" fill="none" xmlns="http://www.w3.org/2000/svg">
<path d="M4.25 4.5C2.46403 4.5 1 5.96403 1 7.75V16.25C1 18.036 2.46403 19.5 4.25 19.5H19.75C21.536 19.5 23 18.036 23 16.25V7.75C23 5.96403 21.536 4.5 19.75 4.5H4.25ZM4.25 6H19.75C20.725 6 21.5 6.77497 21.5 7.75V16.25C21.5 17.225 20.725 18 19.75 18H4.25C3.27497 18 2.5 17.225 2.5 16.25V7.75C2.5 6.77497 3.27497 6 4.25 6ZM5.0752 10L3.5 13.9912H4.43164L4.77734 13.0996H6.54102L6.89062 13.9912H8.6709V11.0283L9.85059 13.9912H10.6533L11.8623 11.0781V13.9912H12.7451V10H11.335L10.25 12.6758L9.16992 10H7.78516V13.8438L6.24316 10H5.0752ZM13.9023 10V13.9912H17.2705L18.3311 12.6719L19.3672 14H20.4883L18.918 11.9521L20.5 10.0088H19.376L18.3633 11.2471L17.3848 10H13.9023ZM5.63672 10.8428L6.18555 12.2383H5.11035L5.63672 10.8428ZM14.7734 10.8604L16.9219 10.8662L17.7812 11.9521L16.8096 13.1543H14.7734V12.3652H16.7207V11.6074H14.7734V10.8604Z" fill="#1976D2"/>
</svg>
