<svg width="24" height="24" viewBox="0 0 24 24" fill="none" xmlns="http://www.w3.org/2000/svg">
<path d="M6 1.5C5.0625 1.5 4.26441 1.87857 3.75195 2.45508C3.2395 3.03159 3 3.77083 3 4.5C3 5.22917 3.2395 5.96841 3.75195 6.54492C4.26441 7.12143 5.0625 7.5 6 7.5C6.9375 7.5 7.73559 7.12143 8.24805 6.54492C8.7605 5.96841 9 5.22917 9 4.5C9 3.77083 8.7605 3.03159 8.24805 2.45508C7.73559 1.87857 6.9375 1.5 6 1.5ZM13 1.5C12.0625 1.5 11.2644 1.87857 10.752 2.45508C10.2395 3.03159 10 3.77083 10 4.5C10 5.22917 10.2395 5.96841 10.752 6.54492C11.2644 7.12143 12.0625 7.5 13 7.5C13.9375 7.5 14.7356 7.12143 15.248 6.54492C15.7605 5.96841 16 5.22917 16 4.5C16 3.77083 15.7605 3.03159 15.248 2.45508C14.7356 1.87857 13.9375 1.5 13 1.5ZM6 3C6.5625 3 6.88941 3.18393 7.12695 3.45117C7.3645 3.71841 7.5 4.10417 7.5 4.5C7.5 4.89583 7.3645 5.28159 7.12695 5.54883C6.88941 5.81607 6.5625 6 6 6C5.4375 6 5.11059 5.81607 4.87305 5.54883C4.6355 5.28159 4.5 4.89583 4.5 4.5C4.5 4.10417 4.6355 3.71841 4.87305 3.45117C5.11059 3.18393 5.4375 3 6 3ZM13 3C13.5625 3 13.8894 3.18393 14.127 3.45117C14.3645 3.71841 14.5 4.10417 14.5 4.5C14.5 4.89583 14.3645 5.28159 14.127 5.54883C13.8894 5.81607 13.5625 6 13 6C12.4375 6 12.1106 5.81607 11.873 5.54883C11.6355 5.28159 11.5 4.89583 11.5 4.5C11.5 4.10417 11.6355 3.71841 11.873 3.45117C12.1106 3.18393 12.4375 3 13 3ZM3.25 8.5C2.3 8.5 1.5 9.3 1.5 10.25V15C1.5 17.5 3.5 19.5 6 19.5C7.05 19.5 7.9998 19.1498 8.7998 18.5498C8.4498 18.1498 8.2 17.7 8 17.25C7.45 17.7 6.8 18 6 18C4.35 18 3 16.65 3 15V10.25C3 10.1 3.1 10 3.25 10H7.5C7.55 9.45 7.74961 8.9 8.09961 8.5H3.25ZM10.25 8.5C9.3 8.5 8.5 9.3 8.5 10.25V15C8.5 16.85 9.60019 18.4504 11.2002 19.1504C11.1002 18.6004 11 18.05 11 17.5V17.25C10.4 16.7 10 15.9 10 15V10.25C10 10.1 10.1 10 10.25 10H15.75C15.9 10 16 10.1 16 10.25V11.2002C16.5 11.1002 17 11 17.5 11V10.25C17.5 9.3 16.7 8.5 15.75 8.5H10.25ZM17.5 12C14.45 12 12 14.45 12 17.5C12 20.55 14.45 23 17.5 23C20.55 23 23 20.55 23 17.5C23 14.45 20.55 12 17.5 12ZM17 14C17.3 14 17.5 14.2 17.5 14.5V17.5H20C20.3 17.5 20.5 17.7 20.5 18C20.5 18.3 20.3 18.5 20 18.5H17C16.7 18.5 16.5 18.3 16.5 18V14.5C16.5 14.2 16.7 14 17 14Z" fill="#414141"/>
</svg>
