<svg width="24" height="24" viewBox="0 0 24 24" fill="none" xmlns="http://www.w3.org/2000/svg">
<path d="M4.25 4C3.01625 4 2 5.01625 2 6.25V17.75C2 18.9838 3.01625 20 4.25 20H19.75C20.9838 20 22 18.9838 22 17.75V8.75C22 7.51625 20.9838 6.5 19.75 6.5H12.0215L9.78711 4.6377C9.78678 4.6377 9.78646 4.6377 9.78613 4.6377C9.29205 4.22606 8.66958 4 8.02637 4H4.25ZM4.25 5.5H8.02637C8.31915 5.5 8.60128 5.60268 8.82617 5.79004L11.2695 7.82617C11.4044 7.93856 11.5744 8.00007 11.75 8H19.75C20.1733 8 20.5 8.32675 20.5 8.75V17.75C20.5 18.1732 20.1733 18.5 19.75 18.5H4.25C3.82675 18.5 3.5 18.1732 3.5 17.75V6.25C3.5 5.82675 3.82675 5.5 4.25 5.5ZM11 9C10.9337 8.99906 10.868 9.0113 10.8065 9.03601C10.745 9.06072 10.689 9.0974 10.6418 9.14392C10.5947 9.19044 10.5572 9.24588 10.5316 9.30701C10.506 9.36814 10.4929 9.43374 10.4929 9.5C10.4929 9.56626 10.506 9.63186 10.5316 9.69299C10.5572 9.75412 10.5947 9.80956 10.6418 9.85608C10.689 9.9026 10.745 9.93928 10.8065 9.96399C10.868 9.9887 10.9337 10.0009 11 10H13C13.0663 10.0009 13.132 9.9887 13.1935 9.96399C13.255 9.93928 13.311 9.9026 13.3582 9.85608C13.4053 9.80956 13.4428 9.75412 13.4684 9.69299C13.494 9.63186 13.5071 9.56626 13.5071 9.5C13.5071 9.43374 13.494 9.36814 13.4684 9.30701C13.4428 9.24588 13.4053 9.19044 13.3582 9.14392C13.311 9.0974 13.255 9.06072 13.1935 9.03601C13.132 9.0113 13.0663 8.99906 13 9H11ZM11 11C10.9337 10.9991 10.868 11.0113 10.8065 11.036C10.745 11.0607 10.689 11.0974 10.6418 11.1439C10.5947 11.1904 10.5572 11.2459 10.5316 11.307C10.506 11.3681 10.4929 11.4337 10.4929 11.5C10.4929 11.5663 10.506 11.6319 10.5316 11.693C10.5572 11.7541 10.5947 11.8096 10.6418 11.8561C10.689 11.9026 10.745 11.9393 10.8065 11.964C10.868 11.9887 10.9337 12.0009 11 12H13C13.0663 12.0009 13.132 11.9887 13.1935 11.964C13.255 11.9393 13.311 11.9026 13.3582 11.8561C13.4053 11.8096 13.4428 11.7541 13.4684 11.693C13.494 11.6319 13.5071 11.5663 13.5071 11.5C13.5071 11.4337 13.494 11.3681 13.4684 11.307C13.4428 11.2459 13.4053 11.1904 13.3582 11.1439C13.311 11.0974 13.255 11.0607 13.1935 11.036C13.132 11.0113 13.0663 10.9991 13 11H11ZM11.3691 13C11.1476 13 10.9516 13.1444 10.8896 13.3574C10.7426 13.8629 10.5 14.803 10.5 15.5C10.5 16.3285 11.1715 17 12 17C12.8285 17 13.5 16.3285 13.5 15.5C13.5 14.803 13.2574 13.8629 13.1104 13.3574C13.0484 13.1444 12.8524 13 12.6309 13H11.3691ZM12 15C12.276 15 12.5 15.224 12.5 15.5C12.5 15.776 12.276 16 12 16C11.724 16 11.5 15.776 11.5 15.5C11.5 15.224 11.724 15 12 15Z" fill="#414141"/>
</svg>
