<svg width="24" height="24" viewBox="0 0 24 24" fill="none" xmlns="http://www.w3.org/2000/svg">
<path d="M16.214 2.01855C14.799 2.01855 13.384 2.55556 12.3087 3.63086L2.21984 13.7197C2.14786 13.7888 2.0904 13.8716 2.05081 13.9632C2.01122 14.0548 1.99031 14.1534 1.9893 14.2532C1.98828 14.3529 2.00719 14.4519 2.0449 14.5443C2.08262 14.6367 2.13839 14.7206 2.20895 14.7912C2.27951 14.8617 2.36344 14.9175 2.45582 14.9552C2.5482 14.9929 2.64718 15.0118 2.74696 15.0108C2.84674 15.0098 2.94531 14.9889 3.03691 14.9493C3.1285 14.9097 3.21128 14.8523 3.28039 14.7803L13.3693 4.69141C14.9467 3.114 17.4813 3.114 19.0587 4.69141C20.6361 6.26881 20.6361 8.80346 19.0587 10.3809L9.53723 19.9023C8.71938 20.7202 7.41562 20.7202 6.59777 19.9023C5.77992 19.0845 5.77992 17.7807 6.59777 16.9629L14.2804 9.28027C14.3524 9.21116 14.4098 9.12839 14.4494 9.03679C14.489 8.9452 14.5099 8.84662 14.5109 8.74684C14.5119 8.64706 14.493 8.54808 14.4553 8.4557C14.4176 8.36332 14.3618 8.27939 14.2913 8.20883C14.2207 8.13828 14.1368 8.08251 14.0444 8.04479C13.952 8.00707 13.8531 7.98817 13.7533 7.98918C13.6535 7.9902 13.5549 8.01111 13.4633 8.0507C13.3717 8.09028 13.289 8.14775 13.2198 8.21973L5.53723 15.9023C4.14607 17.2935 4.14607 19.5717 5.53723 20.9629C6.92838 22.354 9.20662 22.354 10.5978 20.9629L20.1193 11.4414C22.2699 9.29081 22.2699 5.78146 20.1193 3.63086C19.044 2.55556 17.629 2.01855 16.214 2.01855Z" fill="#414141"/>
</svg>
