<svg width="24" height="24" viewBox="0 0 24 24" fill="none" xmlns="http://www.w3.org/2000/svg">
<path d="M5.75 3C4.24011 3 3 4.24011 3 5.75V18.25C3 19.7599 4.24011 21 5.75 21H18.25C19.7599 21 21 19.7599 21 18.25V5.75C21 4.24011 19.7599 3 18.25 3H5.75ZM5.75 4.5H18.25C18.9491 4.5 19.5 5.05089 19.5 5.75V18.25C19.5 18.9491 18.9491 19.5 18.25 19.5H5.75C5.05089 19.5 4.5 18.9491 4.5 18.25V5.75C4.5 5.05089 5.05089 4.5 5.75 4.5ZM7.75 11.25C7.65062 11.2486 7.55194 11.267 7.45972 11.304C7.36749 11.3411 7.28355 11.3961 7.21277 11.4659C7.142 11.5357 7.08579 11.6188 7.04743 11.7105C7.00907 11.8022 6.98932 11.9006 6.98932 12C6.98932 12.0994 7.00907 12.1978 7.04743 12.2895C7.08579 12.3812 7.142 12.4643 7.21277 12.5341C7.28355 12.6039 7.36749 12.6589 7.45972 12.696C7.55194 12.733 7.65062 12.7514 7.75 12.75H16.25C16.3494 12.7514 16.4481 12.733 16.5403 12.696C16.6325 12.6589 16.7164 12.6039 16.7872 12.5341C16.858 12.4643 16.9142 12.3812 16.9526 12.2895C16.9909 12.1978 17.0107 12.0994 17.0107 12C17.0107 11.9006 16.9909 11.8022 16.9526 11.7105C16.9142 11.6188 16.858 11.5357 16.7872 11.4659C16.7164 11.3961 16.6325 11.3411 16.5403 11.304C16.4481 11.267 16.3494 11.2486 16.25 11.25H7.75Z" fill="#414141"/>
</svg>
