<svg width="24" height="24" viewBox="0 0 24 24" fill="none" xmlns="http://www.w3.org/2000/svg">
<path d="M12 0C10.6282 0 9.5 1.12817 9.5 2.5V3H6.25C5.01625 3 4 4.01625 4 5.25V19.75C4 20.9838 5.01625 22 6.25 22H17.75C18.9838 22 20 20.9838 20 19.75V5.25C20 4.01625 18.9838 3 17.75 3H14.5V2.5C14.5 1.12817 13.3718 0 12 0ZM12 1.5C12.5612 1.5 13 1.93883 13 2.5V4.5H11V2.5C11 1.93883 11.4388 1.5 12 1.5ZM6.25 4.5H9.5V5.25C9.50002 5.44891 9.57904 5.63966 9.71969 5.78031C9.86034 5.92096 10.0511 5.99998 10.25 6H13.75C13.9489 5.99998 14.1397 5.92096 14.2803 5.78031C14.421 5.63966 14.5 5.44891 14.5 5.25V4.5H17.75C18.1732 4.5 18.5 4.82675 18.5 5.25V19.75C18.5 20.1733 18.1732 20.5 17.75 20.5H6.25C5.82675 20.5 5.5 20.1733 5.5 19.75V5.25C5.5 4.82675 5.82675 4.5 6.25 4.5ZM15.9854 9.49316C15.7906 9.49884 15.6056 9.5801 15.4697 9.71973L11 14.1895L8.53027 11.7197C8.46116 11.6477 8.37839 11.5903 8.28679 11.5507C8.1952 11.5111 8.09662 11.4902 7.99684 11.4892C7.89706 11.4882 7.79808 11.5071 7.7057 11.5448C7.61332 11.5825 7.52939 11.6383 7.45883 11.7088C7.38828 11.7794 7.33251 11.8633 7.29479 11.9557C7.25707 12.0481 7.23817 12.1471 7.23918 12.2468C7.2402 12.3466 7.26111 12.4452 7.3007 12.5368C7.34028 12.6284 7.39775 12.7112 7.46973 12.7803L10.4697 15.7803C10.6104 15.9209 10.8011 15.9999 11 15.9999C11.1989 15.9999 11.3896 15.9209 11.5303 15.7803L16.5303 10.7803C16.6385 10.6749 16.7123 10.5393 16.7422 10.3913C16.7721 10.2432 16.7566 10.0896 16.6977 9.9505C16.6388 9.81141 16.5393 9.69335 16.4122 9.61175C16.2851 9.53015 16.1363 9.48882 15.9854 9.49316Z" fill="#414141"/>
</svg>
