<svg width="24" height="24" viewBox="0 0 24 24" fill="none" xmlns="http://www.w3.org/2000/svg">
<path d="M12.0001 3C8.9651 3 6.27677 4.51161 4.64855 6.81738C4.59173 6.89786 4.55131 6.98873 4.52961 7.08483C4.5079 7.18092 4.50534 7.28035 4.52207 7.37743C4.5388 7.47452 4.57448 7.56736 4.62709 7.65065C4.6797 7.73394 4.7482 7.80605 4.82868 7.86287C4.90916 7.91969 5.00004 7.96009 5.09614 7.98178C5.19223 8.00347 5.29166 8.00602 5.38874 7.98928C5.48583 7.97255 5.57866 7.93685 5.66194 7.88423C5.74523 7.83161 5.81733 7.7631 5.87414 7.68262C7.23293 5.75839 9.46214 4.5 12.0001 4.5C16.0409 4.5 19.3118 7.6754 19.4835 11.6729L18.2804 10.4697C18.2105 10.3977 18.1268 10.3405 18.0344 10.3014C17.942 10.2623 17.8427 10.2422 17.7423 10.2422C17.593 10.2422 17.4472 10.2868 17.3234 10.3702C17.1996 10.4536 17.1035 10.572 17.0474 10.7103C16.9913 10.8486 16.9777 11.0006 17.0085 11.1466C17.0392 11.2927 17.1128 11.4263 17.2198 11.5303L19.4698 13.7803C19.6105 13.9209 19.8012 13.9999 20.0001 13.9999C20.199 13.9999 20.3897 13.9209 20.5304 13.7803L20.7042 13.6064C20.7588 13.5651 20.8074 13.5165 20.8487 13.4619L22.7804 11.5303C22.8524 11.4612 22.9098 11.3784 22.9494 11.2868C22.989 11.1952 23.0099 11.0966 23.0109 10.9968C23.0119 10.8971 22.993 10.7981 22.9553 10.7057C22.9176 10.6133 22.8618 10.5294 22.7913 10.4588C22.7207 10.3883 22.6368 10.3325 22.5444 10.2948C22.452 10.2571 22.3531 10.2382 22.2533 10.2392C22.1535 10.2402 22.0549 10.2611 21.9633 10.3007C21.8717 10.3403 21.789 10.3977 21.7198 10.4697L20.9611 11.2285C20.5676 6.62702 16.7016 3 12.0001 3ZM3.98937 10C3.7942 10.0029 3.60783 10.0817 3.46984 10.2197L3.29894 10.3906C3.24275 10.4329 3.19278 10.4829 3.15051 10.5391L1.21984 12.4697C1.14786 12.5388 1.0904 12.6216 1.05081 12.7132C1.01122 12.8048 0.990311 12.9034 0.989297 13.0032C0.988282 13.1029 1.00719 13.2019 1.0449 13.2943C1.08262 13.3867 1.13839 13.4706 1.20895 13.5412C1.27951 13.6117 1.36344 13.6675 1.45582 13.7052C1.5482 13.7429 1.64718 13.7618 1.74696 13.7608C1.84674 13.7598 1.94531 13.7389 2.03691 13.6993C2.1285 13.6597 2.21128 13.6023 2.28039 13.5303L3.03918 12.7715C3.43259 17.373 7.29866 21 12.0001 21C15.0351 21 17.7235 19.4884 19.3517 17.1826C19.4085 17.1021 19.4489 17.0113 19.4706 16.9152C19.4923 16.8191 19.4949 16.7197 19.4782 16.6226C19.4614 16.5255 19.4258 16.4326 19.3731 16.3494C19.3205 16.2661 19.252 16.1939 19.1716 16.1371C19.0911 16.0803 19.0002 16.0399 18.9041 16.0182C18.808 15.9965 18.7086 15.994 18.6115 16.0107C18.5144 16.0275 18.4216 16.0632 18.3383 16.1158C18.255 16.1684 18.1829 16.2369 18.1261 16.3174C16.7673 18.2416 14.5381 19.5 12.0001 19.5C7.95936 19.5 4.68841 16.3246 4.51672 12.3271L5.71984 13.5303C5.78895 13.6023 5.87173 13.6597 5.96333 13.6993C6.05492 13.7389 6.15349 13.7598 6.25327 13.7608C6.35305 13.7618 6.45203 13.7429 6.54441 13.7052C6.6368 13.6675 6.72072 13.6117 6.79128 13.5412C6.86184 13.4706 6.91761 13.3867 6.95533 13.2943C6.99305 13.2019 7.01195 13.1029 7.01094 13.0032C7.00992 12.9034 6.98901 12.8048 6.94942 12.7132C6.90983 12.6216 6.85237 12.5388 6.78039 12.4697L4.53039 10.2197C4.45948 10.1488 4.37507 10.0928 4.28214 10.0551C4.18922 10.0173 4.08966 9.99859 3.98937 10Z" fill="#414141"/>
</svg>
