<svg width="24" height="24" viewBox="0 0 24 24" fill="none" xmlns="http://www.w3.org/2000/svg">
<path d="M4.75 5C3.24011 5 2 6.24011 2 7.75V15.25C2 16.7599 3.24011 18 4.75 18H17.75C19.2599 18 20.5 16.7599 20.5 15.25V7.75C20.5 6.24011 19.2599 5 17.75 5H4.75ZM4.75 6.5H17.75C18.4491 6.5 19 7.05089 19 7.75V8.5H3.5V7.75C3.5 7.05089 4.05089 6.5 4.75 6.5ZM21.5 7.51465V15.25C21.5 17.32 19.82 19 17.75 19H5.01465C5.59465 19.9 6.605 20.5 7.75 20.5H17.75C20.645 20.5 23 18.145 23 15.25V10.25C23 9.105 22.4 8.09465 21.5 7.51465ZM3.5 10H19V15.25C19 15.9491 18.4491 16.5 17.75 16.5H4.75C4.05089 16.5 3.5 15.9491 3.5 15.25V10ZM14.25 13.5C14.1506 13.4986 14.0519 13.517 13.9597 13.554C13.8675 13.5911 13.7836 13.6461 13.7128 13.7159C13.642 13.7857 13.5858 13.8688 13.5474 13.9605C13.5091 14.0522 13.4893 14.1506 13.4893 14.25C13.4893 14.3494 13.5091 14.4478 13.5474 14.5395C13.5858 14.6312 13.642 14.7143 13.7128 14.7841C13.7836 14.8539 13.8675 14.9089 13.9597 14.946C14.0519 14.983 14.1506 15.0014 14.25 15H16.75C16.8494 15.0014 16.9481 14.983 17.0403 14.946C17.1325 14.9089 17.2164 14.8539 17.2872 14.7841C17.358 14.7143 17.4142 14.6312 17.4526 14.5395C17.4909 14.4478 17.5107 14.3494 17.5107 14.25C17.5107 14.1506 17.4909 14.0522 17.4526 13.9605C17.4142 13.8688 17.358 13.7857 17.2872 13.7159C17.2164 13.6461 17.1325 13.5911 17.0403 13.554C16.9481 13.517 16.8494 13.4986 16.75 13.5H14.25Z" fill="#414141"/>
</svg>
