<svg width="24" height="24" viewBox="0 0 24 24" fill="none" xmlns="http://www.w3.org/2000/svg">
<path d="M6.25 3C4.46403 3 3 4.46403 3 6.25V17.75C3 19.536 4.46403 21 6.25 21H17.75C19.536 21 21 19.536 21 17.75V6.25C21 4.46403 19.536 3 17.75 3H6.25ZM6.25 4.5H17.75C18.725 4.5 19.5 5.27497 19.5 6.25V6.5H4.5V6.25C4.5 5.27497 5.27497 4.5 6.25 4.5ZM4.5 8H19.5V17.75C19.5 18.725 18.725 19.5 17.75 19.5H6.25C5.27497 19.5 4.5 18.725 4.5 17.75V8ZM12 9C12 9 11.1679 10.4949 11.0459 11.0459C10.9679 11.3964 11.1966 11.7082 11.5156 11.874C11.5051 11.9152 11.4998 11.9575 11.5 12V12.5H7.75C7.55109 12.5 7.36034 12.579 7.21969 12.7197C7.07904 12.8603 7.00002 13.0511 7 13.25V16.5H6.75C6.65062 16.4986 6.55194 16.517 6.45972 16.554C6.36749 16.5911 6.28355 16.6461 6.21277 16.7159C6.142 16.7857 6.08579 16.8688 6.04743 16.9605C6.00907 17.0522 5.98932 17.1506 5.98932 17.25C5.98932 17.3494 6.00907 17.4478 6.04743 17.5395C6.08579 17.6312 6.142 17.7143 6.21277 17.7841C6.28355 17.8539 6.36749 17.9089 6.45972 17.946C6.55194 17.983 6.65062 18.0014 6.75 18H7.75H16.25H17.5C17.5994 18.0014 17.6981 17.983 17.7903 17.946C17.8825 17.9089 17.9664 17.8539 18.0372 17.7841C18.108 17.7143 18.1642 17.6312 18.2026 17.5395C18.2409 17.4478 18.2607 17.3494 18.2607 17.25C18.2607 17.1506 18.2409 17.0522 18.2026 16.9605C18.1642 16.8688 18.108 16.7857 18.0372 16.7159C17.9664 16.6461 17.8825 16.5911 17.7903 16.554C17.6981 16.517 17.5994 16.4986 17.5 16.5H17V13.25C17 13.0511 16.921 12.8603 16.7803 12.7197C16.6397 12.579 16.4489 12.5 16.25 12.5H12.5V12C12.5002 11.9575 12.4949 11.9152 12.4844 11.874C12.8034 11.7082 13.0321 11.3964 12.9541 11.0459C12.8321 10.4949 12 9 12 9ZM8.5 14H11.916C11.97 14.0089 12.0251 14.0089 12.0791 14H15.5V16.5H8.5V14Z" fill="#414141"/>
</svg>
