<svg width="24" height="24" viewBox="0 0 24 24" fill="none" xmlns="http://www.w3.org/2000/svg">
<path d="M5.75 3C4.24011 3 3 4.24011 3 5.75V18.25C3 19.7599 4.24011 21 5.75 21H18.25C19.7599 21 21 19.7599 21 18.25V16.25C21.0014 16.1506 20.983 16.0519 20.946 15.9597C20.9089 15.8675 20.8539 15.7836 20.7841 15.7128C20.7143 15.642 20.6312 15.5858 20.5395 15.5474C20.4478 15.5091 20.3494 15.4893 20.25 15.4893C20.1506 15.4893 20.0522 15.5091 19.9605 15.5474C19.8688 15.5858 19.7857 15.642 19.7159 15.7128C19.6461 15.7836 19.5911 15.8675 19.554 15.9597C19.517 16.0519 19.4986 16.1506 19.5 16.25V18.25C19.5 18.9491 18.9491 19.5 18.25 19.5H5.75C5.05089 19.5 4.5 18.9491 4.5 18.25V5.75C4.5 5.05089 5.05089 4.5 5.75 4.5H18.25C18.9491 4.5 19.5 5.05089 19.5 5.75V7.75C19.4986 7.84938 19.517 7.94806 19.554 8.04028C19.5911 8.13251 19.6461 8.21645 19.7159 8.28723C19.7857 8.358 19.8688 8.41421 19.9605 8.45257C20.0522 8.49093 20.1506 8.51068 20.25 8.51068C20.3494 8.51068 20.4478 8.49093 20.5395 8.45257C20.6312 8.41421 20.7143 8.358 20.7841 8.28723C20.8539 8.21645 20.9089 8.13251 20.946 8.04028C20.983 7.94806 21.0014 7.84938 21 7.75V5.75C21 4.24011 19.7599 3 18.25 3H5.75ZM17.2422 8.24219C17.0929 8.24222 16.9471 8.28679 16.8233 8.37019C16.6995 8.45358 16.6034 8.57202 16.5473 8.71033C16.4912 8.84865 16.4776 9.00056 16.5084 9.14662C16.5391 9.29269 16.6127 9.42627 16.7197 9.53027L18.4395 11.25H9.25C9.15062 11.2486 9.05194 11.267 8.95972 11.304C8.86749 11.3411 8.78355 11.3961 8.71277 11.4659C8.642 11.5357 8.58579 11.6188 8.54743 11.7105C8.50907 11.8022 8.48932 11.9006 8.48932 12C8.48932 12.0994 8.50907 12.1978 8.54743 12.2895C8.58579 12.3812 8.642 12.4643 8.71277 12.5341C8.78355 12.6039 8.86749 12.6589 8.95972 12.696C9.05194 12.733 9.15062 12.7514 9.25 12.75H18.4395L16.7197 14.4697C16.6477 14.5388 16.5903 14.6216 16.5507 14.7132C16.5111 14.8048 16.4902 14.9034 16.4892 15.0032C16.4882 15.1029 16.5071 15.2019 16.5448 15.2943C16.5825 15.3867 16.6383 15.4706 16.7088 15.5412C16.7794 15.6117 16.8633 15.6675 16.9557 15.7052C17.0481 15.7429 17.1471 15.7618 17.2468 15.7608C17.3466 15.7598 17.4452 15.7389 17.5368 15.6993C17.6284 15.6597 17.7112 15.6023 17.7803 15.5303L20.7803 12.5303C20.9209 12.3896 20.9999 12.1989 20.9999 12C20.9999 11.8011 20.9209 11.6104 20.7803 11.4697L17.7803 8.46973C17.7104 8.39773 17.6267 8.3405 17.5343 8.30142C17.4419 8.26233 17.3425 8.24219 17.2422 8.24219Z" fill="#414141"/>
</svg>
