<svg width="24" height="24" viewBox="0 0 24 24" fill="none" xmlns="http://www.w3.org/2000/svg">
<path d="M3.25 6C2.91848 6 2.60054 6.1317 2.36612 6.36612C2.1317 6.60054 2 6.91848 2 7.25C2 7.58152 2.1317 7.89946 2.36612 8.13388C2.60054 8.3683 2.91848 8.5 3.25 8.5C3.58152 8.5 3.89946 8.3683 4.13388 8.13388C4.3683 7.89946 4.5 7.58152 4.5 7.25C4.5 6.91848 4.3683 6.60054 4.13388 6.36612C3.89946 6.1317 3.58152 6 3.25 6ZM6.75 6.5C6.65062 6.49859 6.55194 6.51696 6.45972 6.55402C6.36749 6.59108 6.28355 6.6461 6.21277 6.71588C6.142 6.78566 6.08579 6.86882 6.04743 6.96051C6.00907 7.0522 5.98932 7.15061 5.98932 7.25C5.98932 7.34939 6.00907 7.4478 6.04743 7.53949C6.08579 7.63118 6.142 7.71434 6.21277 7.78412C6.28355 7.8539 6.36749 7.90892 6.45972 7.94598C6.55194 7.98304 6.65062 8.00141 6.75 8H21.25C21.3494 8.00141 21.4481 7.98304 21.5403 7.94598C21.6325 7.90892 21.7164 7.8539 21.7872 7.78412C21.858 7.71434 21.9142 7.63118 21.9526 7.53949C21.9909 7.4478 22.0107 7.34939 22.0107 7.25C22.0107 7.15061 21.9909 7.0522 21.9526 6.96051C21.9142 6.86882 21.858 6.78566 21.7872 6.71588C21.7164 6.6461 21.6325 6.59108 21.5403 6.55402C21.4481 6.51696 21.3494 6.49859 21.25 6.5H6.75ZM3.25 11C2.91848 11 2.60054 11.1317 2.36612 11.3661C2.1317 11.6005 2 11.9185 2 12.25C2 12.5815 2.1317 12.8995 2.36612 13.1339C2.60054 13.3683 2.91848 13.5 3.25 13.5C3.58152 13.5 3.89946 13.3683 4.13388 13.1339C4.3683 12.8995 4.5 12.5815 4.5 12.25C4.5 11.9185 4.3683 11.6005 4.13388 11.3661C3.89946 11.1317 3.58152 11 3.25 11ZM6.75 11.5C6.65062 11.4986 6.55194 11.517 6.45972 11.554C6.36749 11.5911 6.28355 11.6461 6.21277 11.7159C6.142 11.7857 6.08579 11.8688 6.04743 11.9605C6.00907 12.0522 5.98932 12.1506 5.98932 12.25C5.98932 12.3494 6.00907 12.4478 6.04743 12.5395C6.08579 12.6312 6.142 12.7143 6.21277 12.7841C6.28355 12.8539 6.36749 12.9089 6.45972 12.946C6.55194 12.983 6.65062 13.0014 6.75 13H21.25C21.3494 13.0014 21.4481 12.983 21.5403 12.946C21.6325 12.9089 21.7164 12.8539 21.7872 12.7841C21.858 12.7143 21.9142 12.6312 21.9526 12.5395C21.9909 12.4478 22.0107 12.3494 22.0107 12.25C22.0107 12.1506 21.9909 12.0522 21.9526 11.9605C21.9142 11.8688 21.858 11.7857 21.7872 11.7159C21.7164 11.6461 21.6325 11.5911 21.5403 11.554C21.4481 11.517 21.3494 11.4986 21.25 11.5H6.75ZM3.25 16C2.91848 16 2.60054 16.1317 2.36612 16.3661C2.1317 16.6005 2 16.9185 2 17.25C2 17.5815 2.1317 17.8995 2.36612 18.1339C2.60054 18.3683 2.91848 18.5 3.25 18.5C3.58152 18.5 3.89946 18.3683 4.13388 18.1339C4.3683 17.8995 4.5 17.5815 4.5 17.25C4.5 16.9185 4.3683 16.6005 4.13388 16.3661C3.89946 16.1317 3.58152 16 3.25 16ZM6.75 16.5C6.65062 16.4986 6.55194 16.517 6.45972 16.554C6.36749 16.5911 6.28355 16.6461 6.21277 16.7159C6.142 16.7857 6.08579 16.8688 6.04743 16.9605C6.00907 17.0522 5.98932 17.1506 5.98932 17.25C5.98932 17.3494 6.00907 17.4478 6.04743 17.5395C6.08579 17.6312 6.142 17.7143 6.21277 17.7841C6.28355 17.8539 6.36749 17.9089 6.45972 17.946C6.55194 17.983 6.65062 18.0014 6.75 18H21.25C21.3494 18.0014 21.4481 17.983 21.5403 17.946C21.6325 17.9089 21.7164 17.8539 21.7872 17.7841C21.858 17.7143 21.9142 17.6312 21.9526 17.5395C21.9909 17.4478 22.0107 17.3494 22.0107 17.25C22.0107 17.1506 21.9909 17.0522 21.9526 16.9605C21.9142 16.8688 21.858 16.7857 21.7872 16.7159C21.7164 16.6461 21.6325 16.5911 21.5403 16.554C21.4481 16.517 21.3494 16.4986 21.25 16.5H6.75Z" fill="#414141"/>
</svg>
