<svg width="24" height="24" viewBox="0 0 24 24" fill="none" xmlns="http://www.w3.org/2000/svg">
<path d="M1.75488 3C1.28946 3 0.843096 3.18964 0.513992 3.52721C0.184888 3.86477 0 4.32261 0 4.8C0 5.27739 0.184888 5.73523 0.513992 6.07279C0.843096 6.41036 1.28946 6.6 1.75488 6.6C2.2203 6.6 2.66666 6.41036 2.99576 6.07279C3.32487 5.73523 3.50976 5.27739 3.50976 4.8C3.50976 4.32261 3.32487 3.86477 2.99576 3.52721C2.66666 3.18964 2.2203 3 1.75488 3ZM7.60447 3.6C7.44944 3.59775 7.29553 3.62713 7.15166 3.68643C7.0078 3.74572 6.87686 3.83375 6.76646 3.94541C6.65605 4.05706 6.56838 4.19011 6.50854 4.33682C6.44871 4.48353 6.41789 4.64097 6.41789 4.8C6.41789 4.95903 6.44871 5.11647 6.50854 5.26318C6.56838 5.40989 6.65605 5.54294 6.76646 5.65459C6.87686 5.76625 7.0078 5.85428 7.15166 5.91357C7.29553 5.97287 7.44944 6.00225 7.60447 6H22.8134C22.9684 6.00225 23.1224 5.97287 23.2662 5.91357C23.4101 5.85428 23.541 5.76625 23.6514 5.65459C23.7618 5.54294 23.8495 5.40989 23.9093 5.26318C23.9692 5.11647 24 4.95903 24 4.8C24 4.64097 23.9692 4.48353 23.9093 4.33682C23.8495 4.19011 23.7618 4.05706 23.6514 3.94541C23.541 3.83375 23.4101 3.74572 23.2662 3.68643C23.1224 3.62713 22.9684 3.59775 22.8134 3.6H7.60447ZM1.75488 10.2C1.28946 10.2 0.843096 10.3896 0.513992 10.7272C0.184888 11.0648 0 11.5226 0 12C0 12.4774 0.184888 12.9352 0.513992 13.2728C0.843096 13.6104 1.28946 13.8 1.75488 13.8C2.2203 13.8 2.66666 13.6104 2.99576 13.2728C3.32487 12.9352 3.50976 12.4774 3.50976 12C3.50976 11.5226 3.32487 11.0648 2.99576 10.7272C2.66666 10.3896 2.2203 10.2 1.75488 10.2ZM7.60447 10.8C7.44944 10.7978 7.29553 10.8271 7.15166 10.8864C7.0078 10.9457 6.87686 11.0338 6.76646 11.1454C6.65605 11.2571 6.56838 11.3901 6.50854 11.5368C6.44871 11.6835 6.41789 11.841 6.41789 12C6.41789 12.159 6.44871 12.3165 6.50854 12.4632C6.56838 12.6099 6.65605 12.7429 6.76646 12.8546C6.87686 12.9662 7.0078 13.0543 7.15166 13.1136C7.29553 13.1729 7.44944 13.2022 7.60447 13.2H22.8134C22.9684 13.2022 23.1224 13.1729 23.2662 13.1136C23.4101 13.0543 23.541 12.9662 23.6514 12.8546C23.7618 12.7429 23.8495 12.6099 23.9093 12.4632C23.9692 12.3165 24 12.159 24 12C24 11.841 23.9692 11.6835 23.9093 11.5368C23.8495 11.3901 23.7618 11.2571 23.6514 11.1454C23.541 11.0338 23.4101 10.9457 23.2662 10.8864C23.1224 10.8271 22.9684 10.7978 22.8134 10.8H7.60447ZM1.75488 17.4C1.28946 17.4 0.843096 17.5896 0.513992 17.9272C0.184888 18.2648 0 18.7226 0 19.2C0 19.6774 0.184888 20.1352 0.513992 20.4728C0.843096 20.8104 1.28946 21 1.75488 21C2.2203 21 2.66666 20.8104 2.99576 20.4728C3.32487 20.1352 3.50976 19.6774 3.50976 19.2C3.50976 18.7226 3.32487 18.2648 2.99576 17.9272C2.66666 17.5896 2.2203 17.4 1.75488 17.4ZM7.60447 18C7.44944 17.9978 7.29553 18.0271 7.15166 18.0864C7.0078 18.1457 6.87686 18.2338 6.76646 18.3454C6.65605 18.4571 6.56838 18.5901 6.50854 18.7368C6.44871 18.8835 6.41789 19.041 6.41789 19.2C6.41789 19.359 6.44871 19.5165 6.50854 19.6632C6.56838 19.8099 6.65605 19.9429 6.76646 20.0546C6.87686 20.1662 7.0078 20.2543 7.15166 20.3136C7.29553 20.3729 7.44944 20.4023 7.60447 20.4H22.8134C22.9684 20.4023 23.1224 20.3729 23.2662 20.3136C23.4101 20.2543 23.541 20.1662 23.6514 20.0546C23.7618 19.9429 23.8495 19.8099 23.9093 19.6632C23.9692 19.5165 24 19.359 24 19.2C24 19.041 23.9692 18.8835 23.9093 18.7368C23.8495 18.5901 23.7618 18.4571 23.6514 18.3454C23.541 18.2338 23.4101 18.1457 23.2662 18.0864C23.1224 18.0271 22.9684 17.9978 22.8134 18H7.60447Z" fill="#414141"/>
</svg>
