<svg width="33" height="32" viewBox="0 0 33 32" fill="none" xmlns="http://www.w3.org/2000/svg">
<path d="M9.375 0C4.62487 0 0.75 3.87487 0.75 8.625C0.75 13.3751 4.62487 17.25 9.375 17.25C14.1251 17.25 18 13.3751 18 8.625C18 3.87487 14.1251 0 9.375 0ZM9.375 2.25C12.9091 2.25 15.75 5.09086 15.75 8.625C15.75 12.1591 12.9091 15 9.375 15C5.84086 15 3 12.1591 3 8.625C3 5.09086 5.84086 2.25 9.375 2.25ZM9.35742 3.73389C9.05931 3.73854 8.77523 3.86134 8.56759 4.0753C8.35995 4.28925 8.24572 4.57688 8.25 4.875V8.625C8.25006 8.92335 8.36861 9.20946 8.57959 9.42041L10.0796 10.9204C10.1833 11.0284 10.3074 11.1146 10.4448 11.174C10.5822 11.2333 10.7301 11.2647 10.8797 11.2662C11.0294 11.2677 11.1779 11.2394 11.3164 11.1828C11.455 11.1262 11.5809 11.0426 11.6867 10.9367C11.7926 10.8309 11.8762 10.705 11.9328 10.5664C11.9894 10.4279 12.0177 10.2794 12.0162 10.1297C12.0147 9.98007 11.9833 9.83221 11.924 9.69481C11.8646 9.55742 11.7784 9.43325 11.6704 9.32959L10.5 8.15918V4.875C10.5022 4.72443 10.4741 4.57495 10.4174 4.43543C10.3607 4.29591 10.2766 4.16919 10.1701 4.06278C10.0635 3.95636 9.93669 3.87242 9.7971 3.81593C9.6575 3.75943 9.50799 3.73153 9.35742 3.73389ZM18.6152 4.5C18.9332 5.211 19.1728 5.964 19.3198 6.75H27.375C28.8225 6.75 30 7.9275 30 9.375V10.5H19.3198C19.1721 11.286 18.9325 12.039 18.6152 12.75H30V26.625C30 28.0725 28.8225 29.25 27.375 29.25H10.125C8.6775 29.25 7.5 28.0725 7.5 26.625V18.5698C6.714 18.4221 5.961 18.1825 5.25 17.8652V26.625C5.25 29.313 7.437 31.5 10.125 31.5H27.375C30.063 31.5 32.25 29.313 32.25 26.625V9.375C32.25 6.687 30.063 4.5 27.375 4.5H18.6152ZM18.75 15.75C18.2527 15.75 17.7758 15.9475 17.4242 16.2992C17.0725 16.6508 16.875 17.1277 16.875 17.625C16.875 18.1223 17.0725 18.5992 17.4242 18.9508C17.7758 19.3025 18.2527 19.5 18.75 19.5C19.2473 19.5 19.7242 19.3025 20.0758 18.9508C20.4275 18.5992 20.625 18.1223 20.625 17.625C20.625 17.1277 20.4275 16.6508 20.0758 16.2992C19.7242 15.9475 19.2473 15.75 18.75 15.75ZM25.125 15.75C24.6277 15.75 24.1508 15.9475 23.7992 16.2992C23.4475 16.6508 23.25 17.1277 23.25 17.625C23.25 18.1223 23.4475 18.5992 23.7992 18.9508C24.1508 19.3025 24.6277 19.5 25.125 19.5C25.6223 19.5 26.0992 19.3025 26.4508 18.9508C26.8025 18.5992 27 18.1223 27 17.625C27 17.1277 26.8025 16.6508 26.4508 16.2992C26.0992 15.9475 25.6223 15.75 25.125 15.75ZM12.375 22.5C11.8777 22.5 11.4008 22.6975 11.0492 23.0492C10.6975 23.4008 10.5 23.8777 10.5 24.375C10.5 24.8723 10.6975 25.3492 11.0492 25.7008C11.4008 26.0525 11.8777 26.25 12.375 26.25C12.8723 26.25 13.3492 26.0525 13.7008 25.7008C14.0525 25.3492 14.25 24.8723 14.25 24.375C14.25 23.8777 14.0525 23.4008 13.7008 23.0492C13.3492 22.6975 12.8723 22.5 12.375 22.5ZM18.75 22.5C18.2527 22.5 17.7758 22.6975 17.4242 23.0492C17.0725 23.4008 16.875 23.8777 16.875 24.375C16.875 24.8723 17.0725 25.3492 17.4242 25.7008C17.7758 26.0525 18.2527 26.25 18.75 26.25C19.2473 26.25 19.7242 26.0525 20.0758 25.7008C20.4275 25.3492 20.625 24.8723 20.625 24.375C20.625 23.8777 20.4275 23.4008 20.0758 23.0492C19.7242 22.6975 19.2473 22.5 18.75 22.5Z" fill="#153E90"/>
</svg>
