<svg width="24" height="24" viewBox="0 0 24 24" fill="none" xmlns="http://www.w3.org/2000/svg">
<path d="M15.5801 21.9998C15.2566 21.9961 14.9313 21.9514 14.6123 21.8641C11.7795 21.0888 9.2731 18.7145 7.07225 14.9773C4.86831 11.235 4.02085 7.9108 4.7617 5.10137C5.09441 3.83857 6.07926 2.83743 7.3408 2.46465L8.52439 2.11406C9.84728 1.72245 11.2784 2.3551 11.8525 3.6082L12.7685 5.6043C13.259 6.67332 12.9956 7.9443 12.1269 8.73906L10.6094 10.1258C10.5629 10.1683 10.5366 10.2222 10.5303 10.2762V10.2771C10.5176 10.3884 10.4969 10.4278 10.583 10.7576C10.6693 11.0881 10.8835 11.6477 11.3877 12.5037C11.8571 13.3012 12.2957 13.8587 12.6133 14.1346C12.7914 14.2885 12.9933 14.4044 13.0801 14.3797H13.081L15.1172 13.7693C16.2477 13.4297 17.4756 13.8337 18.1728 14.7801L18.1738 14.7811L19.4736 16.5477H19.4746C20.2888 17.6545 20.1375 19.2117 19.1299 20.1473L18.2304 20.9832C17.7473 21.4316 17.1612 21.7386 16.5371 21.8904C16.225 21.9664 15.9035 22.0035 15.5801 21.9998ZM15.5967 20.4988C15.794 20.5004 15.9906 20.4769 16.1816 20.4305C16.5636 20.3376 16.9216 20.1512 17.2099 19.8836L18.1094 19.0486C18.5697 18.6212 18.6343 17.9375 18.2656 17.4363L16.9658 15.6697C16.6471 15.2371 16.0793 15.0465 15.5488 15.2059L13.5039 15.8182L13.5019 15.8191C12.5226 16.1048 11.8021 15.4156 11.6308 15.2674H11.6299V15.2664C11.1014 14.8073 10.6113 14.142 10.0947 13.2645C9.54084 12.324 9.26431 11.6478 9.13084 11.1365C8.99737 10.6253 9.02763 10.217 9.04002 10.1072C9.08782 9.6885 9.28737 9.30256 9.59666 9.01933L11.1142 7.63164C11.5145 7.2654 11.6268 6.71324 11.4053 6.23027H11.4043L10.4892 4.2332C10.2313 3.67031 9.56629 3.36917 8.95018 3.55156L7.76658 3.90215V3.90312C7.0058 4.12762 6.40706 4.74245 6.21189 5.4832C5.61974 7.72877 6.27415 10.6649 8.36521 14.2156C10.4534 17.7614 12.7186 19.791 15.0088 20.4178C15.2013 20.4705 15.3993 20.4972 15.5967 20.4988Z" fill="#414141"/>
</svg>
