<svg width="24" height="24" viewBox="0 0 24 24" fill="none" xmlns="http://www.w3.org/2000/svg">
<path d="M10.8245 3C10.0653 3 9.36065 3.40355 8.97832 4.05746L7.93462 5.84211H6.0875C4.39083 5.84211 3 7.22908 3 8.92105V17.9211C3 19.613 4.39083 21 6.0875 21H18.9125C20.6092 21 22 19.613 22 17.9211V8.92105C22 7.22908 20.6092 5.84211 18.9125 5.84211H17.0654L16.0217 4.05746C15.6393 3.40355 14.9347 3 14.1755 3H10.8245ZM10.8245 4.42105H14.1755C14.4299 4.42105 14.6628 4.55493 14.7906 4.77354L16.0412 6.91067C16.1039 7.01788 16.1937 7.10683 16.3016 7.16867C16.4095 7.23052 16.5318 7.26309 16.6562 7.26316H18.9125C19.8388 7.26316 20.575 7.99734 20.575 8.92105V17.9211C20.575 18.8448 19.8388 19.5789 18.9125 19.5789H6.0875C5.16122 19.5789 4.425 18.8448 4.425 17.9211V8.92105C4.425 7.99734 5.16122 7.26316 6.0875 7.26316H8.34375C8.46821 7.26309 8.59049 7.23052 8.69841 7.16867C8.80632 7.10683 8.89611 7.01788 8.95884 6.91067L10.2094 4.77354C10.3372 4.55493 10.5701 4.42105 10.8245 4.42105ZM12.5 8.68421C10.1474 8.68421 8.225 10.6013 8.225 12.9474C8.225 15.2934 10.1474 17.2105 12.5 17.2105C14.8526 17.2105 16.775 15.2934 16.775 12.9474C16.775 10.6013 14.8526 8.68421 12.5 8.68421ZM12.5 10.1053C14.0825 10.1053 15.35 11.3693 15.35 12.9474C15.35 14.5254 14.0825 15.7895 12.5 15.7895C10.9175 15.7895 9.65 14.5254 9.65 12.9474C9.65 11.3693 10.9175 10.1053 12.5 10.1053Z" fill="#414141"/>
</svg>
