<svg width="24" height="24" viewBox="0 0 24 24" fill="none" xmlns="http://www.w3.org/2000/svg">
<path d="M19.7428 3.48935C19.5447 3.49402 19.3565 3.57688 19.2194 3.71981L11.9996 10.9395L4.7799 3.71981C4.70999 3.64782 4.62635 3.59059 4.53392 3.5515C4.4415 3.51242 4.34217 3.49228 4.24182 3.49227C4.09256 3.49231 3.9467 3.53688 3.82291 3.62028C3.69912 3.70367 3.60303 3.8221 3.54692 3.96042C3.49082 4.09874 3.47726 4.25065 3.50798 4.39671C3.5387 4.54278 3.61229 4.67636 3.71935 4.78036L10.9391 12.0001L3.71935 19.2198C3.64738 19.2889 3.58991 19.3717 3.55032 19.4633C3.51074 19.5549 3.48982 19.6535 3.48881 19.7532C3.48779 19.853 3.5067 19.952 3.54442 20.0444C3.58213 20.1368 3.6379 20.2207 3.70846 20.2913C3.77902 20.3618 3.86295 20.4176 3.95533 20.4553C4.04771 20.493 4.14669 20.5119 4.24647 20.5109C4.34625 20.5099 4.44482 20.489 4.53642 20.4494C4.62802 20.4098 4.71079 20.3523 4.7799 20.2804L11.9996 13.0606L19.2194 20.2804C19.2885 20.3523 19.3712 20.4098 19.4628 20.4494C19.5544 20.489 19.653 20.5099 19.7528 20.5109C19.8526 20.5119 19.9515 20.493 20.0439 20.4553C20.1363 20.4176 20.2202 20.3618 20.2908 20.2913C20.3614 20.2207 20.4171 20.1368 20.4548 20.0444C20.4926 19.952 20.5115 19.853 20.5104 19.7532C20.5094 19.6535 20.4885 19.5549 20.4489 19.4633C20.4093 19.3717 20.3519 19.2889 20.2799 19.2198L13.0602 12.0001L20.2799 4.78036C20.389 4.67568 20.4639 4.54049 20.4947 4.39251C20.5256 4.24453 20.5111 4.09067 20.453 3.95109C20.395 3.81152 20.2961 3.69275 20.1693 3.61035C20.0426 3.52795 19.8939 3.48577 19.7428 3.48935Z" fill="#52B6C3"/>
</svg>
