<svg width="24" height="24" viewBox="0 0 24 24" fill="none" xmlns="http://www.w3.org/2000/svg">
<path d="M5.75 3C4.24011 3 3 4.24011 3 5.75V18.25C3 19.7599 4.24011 21 5.75 21H18.25C19.7599 21 21 19.7599 21 18.25V5.75C21 4.24011 19.7599 3 18.25 3H5.75ZM5.75 4.5H18.25C18.9491 4.5 19.5 5.05089 19.5 5.75V18.25C19.5 18.9491 18.9491 19.5 18.25 19.5H5.75C5.05089 19.5 4.5 18.9491 4.5 18.25V5.75C4.5 5.05089 5.05089 4.5 5.75 4.5ZM17.2354 7.99316C17.0406 7.99884 16.8556 8.0801 16.7197 8.21973L10.25 14.6895L7.78027 12.2197C7.71116 12.1477 7.62839 12.0903 7.53679 12.0507C7.4452 12.0111 7.34662 11.9902 7.24684 11.9892C7.14706 11.9882 7.04808 12.0071 6.9557 12.0448C6.86332 12.0825 6.77939 12.1383 6.70883 12.2088C6.63828 12.2794 6.58251 12.3633 6.54479 12.4557C6.50707 12.5481 6.48817 12.6471 6.48918 12.7468C6.4902 12.8466 6.51111 12.9452 6.5507 13.0368C6.59028 13.1284 6.64775 13.2112 6.71973 13.2803L9.71973 16.2803C9.86038 16.4209 10.0511 16.4999 10.25 16.4999C10.4489 16.4999 10.6396 16.4209 10.7803 16.2803L17.7803 9.28027C17.8885 9.1749 17.9623 9.03931 17.9922 8.89126C18.0221 8.7432 18.0066 8.58958 17.9477 8.4505C17.8888 8.31141 17.7893 8.19335 17.6622 8.11175C17.5351 8.03015 17.3863 7.98882 17.2354 7.99316Z" fill="#414141"/>
</svg>
