<svg width="24" height="24" viewBox="0 0 24 24" fill="none" xmlns="http://www.w3.org/2000/svg">
<rect x="4" y="4" width="16" height="16" fill="white"/>
<path d="M18.25 3H5.75C4.234 3 3 4.234 3 5.75V18.25C3 19.766 4.234 21 5.75 21H18.25C19.766 21 21 19.766 21 18.25V5.75C21 4.234 19.766 3 18.25 3ZM17.7805 9.2805L10.7805 16.2805C10.634 16.427 10.442 16.5 10.25 16.5C10.058 16.5 9.866 16.427 9.7195 16.2805L6.7195 13.2805C6.4265 12.9875 6.4265 12.513 6.7195 12.22C7.0125 11.927 7.487 11.927 7.78 12.22L10.2495 14.6895L16.719 8.22C17.012 7.927 17.4865 7.927 17.7795 8.22C18.0725 8.513 18.073 8.9875 17.7805 9.2805Z" fill="#414141"/>
</svg>
