<svg width="24" height="24" viewBox="0 0 24 24" fill="none" xmlns="http://www.w3.org/2000/svg">
<path d="M21.7355 4.49317C21.5407 4.49885 21.3558 4.5801 21.2198 4.71973L8.25012 17.6895L2.78039 12.2197C2.71128 12.1478 2.6285 12.0903 2.53691 12.0507C2.44531 12.0111 2.34674 11.9902 2.24696 11.9892C2.14718 11.9882 2.0482 12.0071 1.95582 12.0448C1.86344 12.0825 1.77951 12.1383 1.70895 12.2088C1.63839 12.2794 1.58262 12.3633 1.5449 12.4557C1.50719 12.5481 1.48828 12.6471 1.4893 12.7468C1.49031 12.8466 1.51122 12.9452 1.55081 13.0368C1.5904 13.1284 1.64786 13.2112 1.71984 13.2803L7.71984 19.2803C7.8605 19.4209 8.05124 19.4999 8.25012 19.4999C8.449 19.4999 8.63973 19.4209 8.78039 19.2803L22.2804 5.78028C22.3886 5.6749 22.4625 5.53931 22.4923 5.39126C22.5222 5.24321 22.5067 5.08959 22.4478 4.9505C22.3889 4.81142 22.2894 4.69335 22.1623 4.61175C22.0352 4.53015 21.8864 4.48882 21.7355 4.49317Z" fill="#414141"/>
</svg>
