<svg width="16" height="16" viewBox="0 0 16 16" fill="none" xmlns="http://www.w3.org/2000/svg">
  <path d="M8.00065 1.33301C4.32467 1.33301 1.33398 4.3237 1.33398 7.99967C1.33398 11.6757 4.32467 14.6663 8.00065 14.6663C11.6766 14.6663 14.6673 11.6757 14.6673 7.99967C14.6673 4.3237 11.6766 1.33301 8.00065 1.33301ZM8.00065 2.33301C11.1362 2.33301 13.6673 4.86414 13.6673 7.99967C13.6673 11.1352 11.1362 13.6663 8.00065 13.6663C4.86511 13.6663 2.33398 11.1352 2.33398 7.99967C2.33398 4.86414 4.86511 2.33301 8.00065 2.33301ZM10.4909 5.99512C10.361 5.9989 10.2377 6.05307 10.1471 6.14616L7.16732 9.12598L5.85417 7.81283C5.80809 7.76484 5.75291 7.72653 5.69185 7.70014C5.63078 7.67375 5.56507 7.6598 5.49855 7.65913C5.43203 7.65845 5.36604 7.67106 5.30445 7.6962C5.24286 7.72134 5.18691 7.75852 5.13987 7.80556C5.09283 7.8526 5.05565 7.90855 5.03051 7.97014C5.00537 8.03173 4.99276 8.09772 4.99344 8.16424C4.99411 8.23076 5.00806 8.29647 5.03445 8.35754C5.06084 8.4186 5.09915 8.47378 5.14714 8.51986L6.8138 10.1865C6.90757 10.2803 7.03473 10.3329 7.16732 10.3329C7.2999 10.3329 7.42706 10.2803 7.52083 10.1865L10.8542 6.85319C10.9263 6.78294 10.9755 6.69255 10.9955 6.59384C11.0154 6.49514 11.005 6.39273 10.9658 6.30001C10.9265 6.20728 10.8602 6.12857 10.7754 6.07417C10.6907 6.01977 10.5915 5.99222 10.4909 5.99512Z" fill="#153E90"/>
  </svg>
  