<svg width="24" height="24" viewBox="0 0 24 24" fill="none" xmlns="http://www.w3.org/2000/svg">
<path d="M12 2C6.48615 2 2 6.48615 2 12C2 17.5139 6.48615 22 12 22C17.5139 22 22 17.5139 22 12C22 6.48615 17.5139 2 12 2ZM12 3.5C16.7031 3.5 20.5 7.29685 20.5 12C20.5 16.7031 16.7031 20.5 12 20.5C7.29685 20.5 3.5 16.7031 3.5 12C3.5 7.29685 7.29685 3.5 12 3.5ZM9.70703 7.58887C9.0789 7.62796 8.5 8.14734 8.5 8.82812V15.1719C8.5 16.0796 9.5291 16.7003 10.332 16.2783V16.2773L16.3584 13.1055V13.1064C17.2114 12.6584 17.2115 11.3424 16.3594 10.8936H16.3584L10.332 7.72168C10.1313 7.61619 9.91641 7.57584 9.70703 7.58887ZM10 9.24121L15.2402 12L10 14.7578V9.24121Z" fill="#414141"/>
</svg>
