<svg width="24" height="24" viewBox="0 0 24 24" fill="none" xmlns="http://www.w3.org/2000/svg">
<path d="M11.9756 2C11.8157 2.00546 11.6617 2.06192 11.5361 2.16113L4.42969 7.75976C3.52774 8.47058 3 9.55675 3 10.7051V18.75C3 20.2599 4.24011 21.5 5.75 21.5H18.25C19.7599 21.5 21 20.2599 21 18.75V10.7051C21 9.55675 20.4723 8.47058 19.5703 7.75976L12.4639 2.16113C12.3252 2.05157 12.1522 1.9945 11.9756 2ZM12 3.70507L18.6426 8.93847C19.1846 9.36566 19.5 10.0154 19.5 10.7051V18.75C19.5 19.4491 18.9491 20 18.25 20H5.75C5.05089 20 4.5 19.4491 4.5 18.75V10.7051C4.5 10.0154 4.81537 9.36566 5.35742 8.93847L12 3.70507ZM11.9883 9.48925C11.7895 9.49236 11.6002 9.57422 11.4617 9.71686C11.3233 9.8595 11.2471 10.0513 11.25 10.25V12.5H9C8.90062 12.4986 8.80194 12.517 8.70972 12.554C8.61749 12.5911 8.53355 12.6461 8.46277 12.7159C8.392 12.7857 8.33579 12.8688 8.29743 12.9605C8.25907 13.0522 8.23932 13.1506 8.23932 13.25C8.23932 13.3494 8.25907 13.4478 8.29743 13.5395C8.33579 13.6312 8.392 13.7143 8.46277 13.7841C8.53355 13.8539 8.61749 13.9089 8.70972 13.946C8.80194 13.983 8.90062 14.0014 9 14H11.25V16.25C11.2486 16.3494 11.267 16.4481 11.304 16.5403C11.3411 16.6325 11.3961 16.7164 11.4659 16.7872C11.5357 16.858 11.6188 16.9142 11.7105 16.9526C11.8022 16.9909 11.9006 17.0107 12 17.0107C12.0994 17.0107 12.1978 16.9909 12.2895 16.9526C12.3812 16.9142 12.4643 16.858 12.5341 16.7872C12.6039 16.7164 12.6589 16.6325 12.696 16.5403C12.733 16.4481 12.7514 16.3494 12.75 16.25V14H15C15.0994 14.0014 15.1981 13.983 15.2903 13.946C15.3825 13.9089 15.4664 13.8539 15.5372 13.7841C15.608 13.7143 15.6642 13.6312 15.7026 13.5395C15.7409 13.4478 15.7607 13.3494 15.7607 13.25C15.7607 13.1506 15.7409 13.0522 15.7026 12.9605C15.6642 12.8688 15.608 12.7857 15.5372 12.7159C15.4664 12.6461 15.3825 12.5911 15.2903 12.554C15.1981 12.517 15.0994 12.4986 15 12.5H12.75V10.25C12.7514 10.1496 12.7327 10.05 12.6949 9.95695C12.6571 9.86394 12.6011 9.77946 12.53 9.70851C12.459 9.63757 12.3745 9.58161 12.2814 9.54395C12.1883 9.50628 12.0887 9.48769 11.9883 9.48925Z" fill="#414141"/>
</svg>
