<svg width="125" height="93" viewBox="0 0 125 93" fill="none" xmlns="http://www.w3.org/2000/svg">
  <g clip-path="url(#clip0_4012:10512)">
  <path d="M12.5741 9.3126C11.7961 9.63533 10.9976 10.0496 10.5701 10.7757C10.1173 11.5428 10.1715 12.4953 10.2558 13.3828C10.9904 21.0802 12.9257 29.2664 9.58378 36.2388C7.96157 39.6214 5.24827 42.3321 3.09015 45.404C0.932024 48.476 -0.697407 52.3114 0.304578 55.9252C1.52816 60.341 6.0949 62.7892 9.17311 66.1875C11.1879 68.4093 12.6006 71.1091 14.4805 73.4465C16.3604 75.7838 18.9364 77.843 21.9376 77.9803C26.2538 78.179 29.7656 74.452 33.9975 73.5886C38.333 72.7047 42.6987 74.9541 46.214 77.6468C49.7294 80.3394 52.9269 83.6016 57.0227 85.2827C61.5461 87.1408 66.6451 86.8566 71.407 87.9729C75.7425 88.9904 79.7336 91.1544 84.0378 92.308C88.342 93.4617 93.3868 93.3918 96.7216 90.4451C101.068 86.5916 100.726 79.7276 103.502 74.6302C106.08 69.894 111.128 67.0666 114.525 62.8795C120.638 55.3436 120.438 43.8253 115.247 35.6294C110.057 27.4336 100.655 22.471 91.0408 21.1789C86.7053 20.5973 82.2409 20.6767 78.0728 19.3533C66.9161 15.8129 60.2768 3.12777 48.8864 0.488143C41.6461 -1.18691 34.6045 1.71403 28.4372 5.28451C23.0841 8.38415 18.1452 7.00172 12.5741 9.3126Z" fill="#F2FAFF"/>
  <path d="M23.446 34.1797C23.446 34.1797 19.3357 38.0584 14.9243 38.1741C13.0719 38.2109 11.2814 38.8477 9.82169 39.9888C9.13172 40.5342 8.49318 41.1416 7.91406 41.8035" stroke="#414141" stroke-miterlimit="10"/>
  <path d="M5.13208 41.8977C5.7246 41.5965 7.98629 41.7965 7.98629 41.7965C7.98629 41.7965 6.81329 43.742 6.22077 44.0431C6.07887 44.1273 5.92119 44.1814 5.75753 44.202C5.59386 44.2227 5.4277 44.2095 5.26934 44.1633C5.11097 44.1171 4.96379 44.0388 4.83692 43.9334C4.71005 43.8279 4.60619 43.6975 4.53179 43.5502C4.45739 43.4029 4.41403 43.2419 4.4044 43.0772C4.39477 42.9125 4.41908 42.7475 4.47581 42.5926C4.53255 42.4377 4.6205 42.296 4.73422 42.1765C4.84794 42.057 4.985 41.9621 5.1369 41.8977H5.13208Z" fill="#52B6C3"/>
  <path d="M7.51243 38.4602C8.17359 38.53 9.96319 39.9274 9.96319 39.9274C9.96319 39.9274 7.91587 40.9224 7.26073 40.8537C6.95421 40.8074 6.67736 40.6447 6.48779 40.3993C6.29821 40.154 6.21051 39.845 6.24294 39.5366C6.27537 39.2283 6.42542 38.9443 6.66188 38.7438C6.89834 38.5433 7.20299 38.4417 7.51243 38.4602Z" fill="#52B6C3"/>
  <path d="M13.1573 35.6895C13.692 36.0834 14.5326 38.1939 14.5326 38.1939C14.5326 38.1939 12.2673 38.0216 11.7326 37.6289C11.4916 37.4342 11.3349 37.154 11.2951 36.8466C11.2553 36.5393 11.3355 36.2284 11.519 35.9786C11.7024 35.7289 11.9751 35.5595 12.2802 35.5056C12.5853 35.4518 12.8995 35.5176 13.1573 35.6895Z" fill="#52B6C3"/>
  <path d="M17.9025 34.5565C18.4963 34.8541 19.6813 36.7923 19.6813 36.7923C19.6813 36.7923 17.4196 37.0055 16.8259 36.708C16.6761 36.6426 16.5412 36.5473 16.4294 36.4281C16.3175 36.3088 16.2312 36.168 16.1755 36.0143C16.1198 35.8605 16.096 35.6971 16.1056 35.5338C16.1151 35.3706 16.1577 35.211 16.2309 35.0648C16.3041 34.9186 16.4062 34.7888 16.5312 34.6834C16.6561 34.5779 16.8012 34.499 16.9576 34.4515C17.114 34.4039 17.2784 34.3887 17.4409 34.4068C17.6033 34.4248 17.7604 34.4758 17.9025 34.5565Z" fill="#52B6C3"/>
  <path d="M11.2218 42.1202C11.4193 41.4855 10.8412 39.2891 10.8412 39.2891C10.8412 39.2891 9.12146 40.7726 8.92396 41.4073C8.8683 41.5604 8.84432 41.7233 8.85346 41.886C8.8626 42.0487 8.90467 42.2079 8.97713 42.3539C9.0496 42.4998 9.15093 42.6296 9.27501 42.7353C9.39909 42.8409 9.54333 42.9203 9.69899 42.9686C9.85465 43.0169 10.0185 43.0331 10.1806 43.0162C10.3427 42.9993 10.4997 42.9497 10.6421 42.8704C10.7844 42.7911 10.9092 42.6837 11.0089 42.5547C11.1085 42.4258 11.1809 42.2779 11.2218 42.1202Z" fill="#52B6C3"/>
  <path d="M16.7539 40.7195C16.7539 40.0547 15.5435 38.1328 15.5435 38.1328C15.5435 38.1328 14.3465 40.0596 14.3477 40.7267C14.3486 41.0461 14.4764 41.352 14.7029 41.5771C14.9295 41.8023 15.2362 41.9282 15.5556 41.9273C15.875 41.9263 16.1809 41.7985 16.4061 41.572C16.6313 41.3455 16.7572 41.0388 16.7563 40.7195H16.7539Z" fill="#52B6C3"/>
  <path d="M21.9417 38.629C22.0525 37.9739 21.1854 35.875 21.1854 35.875C21.1854 35.875 19.6788 37.5753 19.5692 38.2304C19.5322 38.5378 19.615 38.8476 19.8003 39.0955C19.9857 39.3434 20.2594 39.5104 20.5647 39.5619C20.87 39.6133 21.1834 39.5452 21.4398 39.3717C21.6962 39.1983 21.8759 38.9327 21.9417 38.6302V38.629Z" fill="#52B6C3"/>
  <path d="M28.7859 23.9073C28.7859 23.9073 23.8349 21.1882 22.3633 17.0229C21.7587 15.2713 20.602 13.7632 19.0671 12.725C18.3346 12.2377 17.559 11.8185 16.75 11.4727" stroke="#414141" stroke-miterlimit="10"/>
  <path d="M15.8108 8.85356C16.2793 9.32441 16.7839 11.5389 16.7839 11.5389C16.7839 11.5389 14.5728 11.0211 14.1043 10.5491C13.8974 10.3194 13.7868 10.0189 13.7954 9.70986C13.804 9.40084 13.9311 9.10696 14.1504 8.88906C14.3697 8.67116 14.6644 8.54595 14.9735 8.53934C15.2826 8.53273 15.5824 8.64524 15.8108 8.85356Z" fill="#52B6C3"/>
  <path d="M19.8154 10.0616C19.9527 10.7119 19.1735 12.8445 19.1735 12.8445C19.1735 12.8445 17.5995 11.208 17.4622 10.5565C17.4214 10.399 17.413 10.2348 17.4375 10.0739C17.462 9.913 17.5188 9.75875 17.6046 9.62043C17.6904 9.48212 17.8033 9.36263 17.9365 9.26917C18.0697 9.17571 18.2205 9.11022 18.3798 9.07666C18.5391 9.0431 18.7035 9.04217 18.8631 9.07392C19.0227 9.10567 19.1742 9.16944 19.3085 9.26138C19.4428 9.35332 19.5571 9.47152 19.6444 9.60885C19.7317 9.74618 19.7903 9.89978 19.8166 10.0604L19.8154 10.0616Z" fill="#52B6C3"/>
  <path d="M24.1865 14.5873C23.9769 15.2171 22.2271 16.6658 22.2271 16.6658C22.2271 16.6658 21.6948 14.4585 21.9043 13.8275C22.0051 13.5241 22.2223 13.2731 22.5081 13.1298C22.7939 12.9865 23.1249 12.9626 23.4284 13.0634C23.7318 13.1642 23.9828 13.3813 24.1261 13.6671C24.2694 13.9529 24.2933 14.2839 24.1925 14.5873H24.1865Z" fill="#52B6C3"/>
  <path d="M26.7261 18.7484C26.6262 19.4047 25.1461 21.1279 25.1461 21.1279C25.1461 21.1279 24.2476 19.0422 24.3476 18.3859C24.3643 18.2237 24.4137 18.0666 24.4929 17.9241C24.5721 17.7815 24.6794 17.6566 24.8083 17.5567C24.9372 17.4569 25.0851 17.3843 25.2429 17.3433C25.4008 17.3024 25.5653 17.2939 25.7265 17.3183C25.8877 17.3428 26.0423 17.3998 26.1808 17.4858C26.3193 17.5718 26.439 17.685 26.5324 17.8186C26.6259 17.9522 26.6913 18.1034 26.7246 18.263C26.7579 18.4226 26.7584 18.5873 26.7261 18.7472V18.7484Z" fill="#52B6C3"/>
  <path d="M17.4721 14.7174C18.1369 14.7102 20.0494 13.4839 20.0494 13.4839C20.0494 13.4839 18.1092 12.3034 17.4444 12.3106C17.125 12.3143 16.8202 12.4447 16.5969 12.6732C16.3737 12.9017 16.2503 13.2096 16.254 13.5291C16.2577 13.8485 16.3881 14.1535 16.6165 14.3768C16.845 14.6001 17.1527 14.7235 17.4721 14.7198V14.7174Z" fill="#52B6C3"/>
  <path d="M20.5013 19.5508C21.1324 19.3448 22.5908 17.603 22.5908 17.603C22.5908 17.603 20.3857 17.0573 19.7547 17.2633C19.5989 17.3077 19.4538 17.3831 19.3279 17.485C19.2019 17.5869 19.0979 17.7131 19.0218 17.8561C18.9458 17.9991 18.8994 18.156 18.8854 18.3174C18.8714 18.4788 18.89 18.6413 18.9403 18.7953C18.9905 18.9493 19.0713 19.0916 19.1778 19.2136C19.2842 19.3357 19.4142 19.435 19.56 19.5057C19.7057 19.5763 19.8642 19.6168 20.0259 19.6248C20.1877 19.6328 20.3494 19.608 20.5013 19.552V19.5508Z" fill="#52B6C3"/>
  <path d="M24.091 23.8455C24.7485 23.7491 26.4803 22.2795 26.4803 22.2795C26.4803 22.2795 24.3993 21.3688 23.7429 21.4652C23.5813 21.4818 23.4247 21.531 23.2826 21.6098C23.1404 21.6886 23.0157 21.7954 22.9159 21.9237C22.8161 22.052 22.7433 22.1991 22.7019 22.3563C22.6605 22.5135 22.6513 22.6774 22.6749 22.8383C22.6984 22.9991 22.7543 23.1535 22.8391 23.2921C22.9239 23.4308 23.0359 23.5508 23.1684 23.645C23.3008 23.7393 23.4509 23.8057 23.6097 23.8403C23.7684 23.875 23.9326 23.8772 24.0922 23.8467L24.091 23.8455Z" fill="#52B6C3"/>
  <path d="M62.8578 89.1607C86.5361 89.1607 105.731 69.9672 105.731 46.2908C105.731 22.6144 86.5361 3.4209 62.8578 3.4209C39.1794 3.4209 19.9844 22.6144 19.9844 46.2908C19.9844 69.9672 39.1794 89.1607 62.8578 89.1607Z" fill="#52B6C3"/>
  <path d="M62.8573 80.3702C81.6803 80.3702 96.9393 65.1125 96.9393 46.2911C96.9393 27.4697 81.6803 12.2119 62.8573 12.2119C44.0344 12.2119 28.7754 27.4697 28.7754 46.2911C28.7754 65.1125 44.0344 80.3702 62.8573 80.3702Z" fill="#F7F7F7"/>
  <path opacity="0.3" d="M63.8214 18.2334H61.8945V48.3387H63.8214V18.2334Z" fill="#414141"/>
  <g opacity="0.1">
  <path opacity="0.1" d="M92.1236 45.5684H64.9062V47.9776H92.1236V45.5684Z" fill="black"/>
  <path opacity="0.1" d="M45.6894 36.5587L44.5723 38.6924L61.6965 47.6622L62.8136 45.5285L45.6894 36.5587Z" fill="black"/>
  <path opacity="0.1" d="M62.859 50.3854C64.8544 50.3854 66.4719 48.768 66.4719 46.7728C66.4719 44.7776 64.8544 43.1602 62.859 43.1602C60.8637 43.1602 59.2461 44.7776 59.2461 46.7728C59.2461 48.768 60.8637 50.3854 62.859 50.3854Z" fill="black"/>
  </g>
  <path d="M92.1217 45.0869H64.9043V47.4961H92.1217V45.0869Z" fill="#414141"/>
  <path d="M62.8227 45.0466L45.6973 36.0791L44.5799 38.2127L61.7053 47.1801L62.8227 45.0466Z" fill="#414141"/>
  <path d="M62.8571 49.904C64.8524 49.904 66.47 48.2865 66.47 46.2913C66.47 44.2961 64.8524 42.6787 62.8571 42.6787C60.8617 42.6787 59.2441 44.2961 59.2441 46.2913C59.2441 48.2865 60.8617 49.904 62.8571 49.904Z" fill="#414141"/>
  <g opacity="0.1">
  <path opacity="0.1" d="M31.423 50.3854C31.423 31.5636 46.6815 16.3062 65.5049 16.3062C70.7881 16.3016 75.9999 17.527 80.7273 19.8855C85.4548 22.2441 89.5681 25.6709 92.7415 29.8945C86.9416 19.3553 75.7415 12.2119 62.8554 12.2119C44.0321 12.2119 28.7735 27.4693 28.7735 46.2911C28.7624 53.6852 31.1674 60.8804 35.6224 66.7819C32.8596 61.759 31.4148 56.1179 31.423 50.3854Z" fill="black"/>
  </g>
  <g opacity="0.1">
  <path opacity="0.1" d="M80.2101 56.7729C80.2101 56.7729 79.956 57.2825 79.6079 57.8944C79.0763 57.6102 78.5623 57.294 78.0688 56.9476L77.9629 56.8729L77.9062 56.8319L78.5084 56.167L80.2101 56.7729Z" fill="black"/>
  </g>
  <g opacity="0.1">
  <path opacity="0.1" d="M76.2489 57.4331C76.0928 57.5817 75.9658 57.7582 75.8744 57.9535C75.0181 57.5668 74.1185 57.0789 73.7909 56.8982L73.7656 56.885C73.9289 56.6792 74.1161 56.4936 74.3232 56.332C74.3232 56.332 76.6897 57.0476 76.2489 57.4331Z" fill="black"/>
  </g>
  <g opacity="0.1">
  <path opacity="0.1" d="M76.5115 19.2095C76.9535 19.2095 77.3003 18.741 77.7423 18.7651C77.9711 18.7771 78.1674 18.9229 78.3565 19.0541C79.0709 19.5488 79.866 19.9155 80.7061 20.1379C81.0325 20.2246 81.3781 20.2896 81.7057 20.2102C82.0332 20.1307 82.3403 19.873 82.3777 19.537C82.3868 19.3889 82.3672 19.2405 82.3199 19.0999C81.949 17.808 81.11 16.7008 79.9666 15.9942C79.509 15.7136 78.9502 15.4993 78.4432 15.6751C77.9855 15.8328 77.6905 16.2615 77.3593 16.6144C77.1097 16.8786 76.8262 17.1086 76.5163 17.2984C76.2754 17.4441 75.9141 17.5392 75.7756 17.8066C75.5143 18.3051 75.925 19.2046 76.5115 19.2095Z" fill="black"/>
  </g>
  <path d="M116.013 53.501C116.013 53.501 110.974 58.5394 113.818 66.0151C116.663 73.4909 108.943 85.9231 108.943 85.9231C108.943 85.9231 109.026 85.9111 109.184 85.8846C119.533 84.0578 124.674 72.224 118.92 63.4321C116.775 60.1627 115.019 56.3285 116.013 53.501Z" fill="#52B6C3"/>
  <path opacity="0.1" d="M116.013 53.585C116.013 53.585 110.974 58.6234 113.818 66.0991C116.663 73.5749 108.943 86.0059 108.943 86.0059C108.943 86.0059 109.026 85.9939 109.184 85.9674C119.533 84.1406 124.674 72.3068 118.92 63.5149C116.775 60.2467 115.019 56.4124 116.013 53.585Z" fill="black"/>
  <path d="M116.014 53.501C116.014 53.501 113.169 59.6762 116.014 64.7146C118.858 69.753 116.496 83.8916 108.943 85.9231" stroke="white" stroke-miterlimit="10" stroke-linecap="round"/>
  <path d="M124.989 73.8783C124.989 73.8783 119.239 72.9631 118.715 78.1147C118.192 83.2664 107.656 83.9805 107.656 83.9805L107.854 84.1117C116.549 89.8197 124.862 87.7472 123.609 80.1679C123.146 77.3513 123.185 74.5214 124.989 73.8783Z" fill="#52B6C3"/>
  <path d="M124.988 73.8779C124.988 73.8779 120.525 74.857 120.893 78.9152C121.262 82.9734 114.269 87.8372 107.66 83.9813" stroke="white" stroke-miterlimit="10" stroke-linecap="round" stroke-linejoin="round"/>
  <path d="M119.931 84.1686C119.931 84.1686 115.403 83.2631 114.195 82.0553C112.987 80.8474 107.553 78.7352 106.95 80.2489C106.346 81.7626 98.7988 86.8902 103.93 87.7957C109.062 88.7013 116.006 88.9999 117.515 88.3978C119.024 87.7957 119.931 84.1686 119.931 84.1686Z" fill="#BCBCBC"/>
  <path opacity="0.2" d="M103.929 87.2306C109.062 88.1361 116.005 88.4348 117.514 87.8327C118.664 87.3726 119.462 85.1641 119.778 84.1357L119.928 84.1671C119.928 84.1671 119.023 87.7893 117.514 88.3926C116.005 88.9959 109.061 88.6949 103.929 87.7905C102.448 87.5292 102.024 86.915 102.184 86.1383C102.309 86.6453 102.826 87.0355 103.929 87.2306Z" fill="black"/>
  </g>
  <defs>
  <clipPath id="clip0_4012:10512">
  <rect width="125" height="93" fill="white"/>
  </clipPath>
  </defs>
  </svg>
  