<svg width="24" height="24" viewBox="0 0 24 24" fill="none" xmlns="http://www.w3.org/2000/svg">
<path d="M11.9894 5.75001C11.7942 5.75287 11.6078 5.83169 11.4698 5.96974L1.71984 15.7197C1.64786 15.7888 1.5904 15.8716 1.55081 15.9632C1.51122 16.0548 1.49031 16.1534 1.4893 16.2532C1.48828 16.353 1.50719 16.4519 1.5449 16.5443C1.58262 16.6367 1.63839 16.7206 1.70895 16.7912C1.77951 16.8617 1.86344 16.9175 1.95582 16.9552C2.0482 16.9929 2.14718 17.0118 2.24696 17.0108C2.34674 17.0098 2.44531 16.9889 2.53691 16.9493C2.6285 16.9097 2.71128 16.8523 2.78039 16.7803L12.0001 7.56056L21.2198 16.7803C21.289 16.8523 21.3717 16.9097 21.4633 16.9493C21.5549 16.9889 21.6535 17.0098 21.7533 17.0108C21.8531 17.0118 21.952 16.9929 22.0444 16.9552C22.1368 16.9175 22.2207 16.8617 22.2913 16.7912C22.3618 16.7206 22.4176 16.6367 22.4553 16.5443C22.493 16.4519 22.5119 16.353 22.5109 16.2532C22.5099 16.1534 22.489 16.0548 22.4494 15.9632C22.4098 15.8716 22.3524 15.7888 22.2804 15.7197L12.5304 5.96974C12.4595 5.8988 12.3751 5.84281 12.2821 5.80507C12.1892 5.76733 12.0897 5.74861 11.9894 5.75001Z" fill="#414141"/>
</svg>
