<svg width="16" height="16" viewBox="0 0 16 16" fill="none" xmlns="http://www.w3.org/2000/svg">
  <path d="M14.4532 0.907401C14.2882 0.911299 14.1313 0.980343 14.017 1.09946L8.00058 7.1159L1.98415 1.09946C1.92589 1.03946 1.85619 0.99177 1.77916 0.9592C1.70214 0.926629 1.61937 0.909846 1.53574 0.909842C1.41136 0.909873 1.28981 0.947012 1.18665 1.01651C1.0835 1.08601 1.00342 1.1847 0.956666 1.29996C0.909914 1.41523 0.898614 1.54182 0.924211 1.66354C0.949809 1.78526 1.01114 1.89658 1.10036 1.98325L7.1168 7.99969L1.10036 14.0161C1.04038 14.0737 0.992487 14.1427 0.959498 14.219C0.926509 14.2954 0.909081 14.3775 0.908235 14.4607C0.90739 14.5438 0.923144 14.6263 0.954575 14.7033C0.986005 14.7803 1.03248 14.8502 1.09128 14.909C1.15008 14.9678 1.22002 15.0143 1.297 15.0457C1.37399 15.0771 1.45647 15.0929 1.53962 15.092C1.62277 15.0912 1.70492 15.0738 1.78125 15.0408C1.85758 15.0078 1.92656 14.9599 1.98415 14.8999L8.00058 8.88348L14.017 14.8999C14.0746 14.9599 14.1436 15.0078 14.2199 15.0408C14.2963 15.0738 14.3784 15.0912 14.4615 15.092C14.5447 15.0929 14.6272 15.0771 14.7042 15.0457C14.7811 15.0143 14.8511 14.9678 14.9099 14.909C14.9687 14.8502 15.0152 14.7803 15.0466 14.7033C15.078 14.6263 15.0938 14.5438 15.0929 14.4607C15.0921 14.3775 15.0747 14.2954 15.0417 14.219C15.0087 14.1427 14.9608 14.0737 14.9008 14.0161L8.88437 7.99969L14.9008 1.98325C14.9917 1.89601 15.0541 1.78336 15.0799 1.66004C15.1056 1.53672 15.0935 1.4085 15.0451 1.29219C14.9967 1.17588 14.9143 1.0769 14.8087 1.00824C14.7031 0.939574 14.5792 0.904426 14.4532 0.907401Z" fill="#52B6C3"/>
  </svg>
  