<svg width="24" height="24" viewBox="0 0 24 24" fill="none" xmlns="http://www.w3.org/2000/svg">
<path d="M5.79004 3C4.28015 3 3.04004 4.24011 3.04004 5.75V18.25C3.04004 19.7599 4.28015 21 5.79004 21H18.29C19.7999 21 21.04 19.7599 21.04 18.25V5.75C21.04 4.24011 19.7999 3 18.29 3H15C14.8011 3.00002 14.6103 3.07904 14.4697 3.21969C14.329 3.36034 14.25 3.55109 14.25 3.75C14.25 4.55338 13.9606 5.06978 13.5439 5.4375C13.1273 5.80522 12.553 6 12.04 6C11.5271 6 10.9538 5.80522 10.5371 5.4375C10.1204 5.06978 9.83105 4.55338 9.83105 3.75C9.83103 3.55109 9.75201 3.36034 9.61136 3.21969C9.47071 3.07904 9.27996 3.00002 9.08105 3H5.79004ZM5.79004 4.5H8.4873C8.65284 5.33774 8.99449 6.07673 9.54492 6.5625C10.2614 7.19478 11.1665 7.5 12.04 7.5C12.9136 7.5 13.8197 7.19478 14.5361 6.5625C15.0866 6.07673 15.4282 5.33774 15.5938 4.5H18.29C18.9892 4.5 19.54 5.05089 19.54 5.75V18.25C19.54 18.9491 18.9892 19.5 18.29 19.5H5.79004C5.09093 19.5 4.54004 18.9491 4.54004 18.25V5.75C4.54004 5.05089 5.09093 4.5 5.79004 4.5ZM12 9C9.5145 9 7.5 11.0145 7.5 13.5C7.5 15.985 9.5145 18 12 18C14.4855 18 16.5 15.985 16.5 13.5C16.5 11.0145 14.4855 9 12 9ZM12 10.5C12.276 10.5 12.5 10.724 12.5 11V13H14C14.276 13 14.5 13.224 14.5 13.5C14.5 13.776 14.276 14 14 14H12C11.724 14 11.5 13.776 11.5 13.5V11C11.5 10.724 11.724 10.5 12 10.5Z" fill="#414141"/>
</svg>
