<svg width="24" height="24" viewBox="0 0 24 24" fill="none" xmlns="http://www.w3.org/2000/svg">
<path d="M11.9999 2C10.352 2 8.99994 3.35207 8.99994 5H3.74994C3.65056 4.99859 3.55188 5.01696 3.45966 5.05402C3.36743 5.09108 3.28349 5.1461 3.21271 5.21588C3.14194 5.28566 3.08573 5.36882 3.04737 5.46051C3.00901 5.5522 2.98926 5.65061 2.98926 5.75C2.98926 5.84939 3.00901 5.9478 3.04737 6.03949C3.08573 6.13118 3.14194 6.21434 3.21271 6.28412C3.28349 6.3539 3.36743 6.40892 3.45966 6.44598C3.55188 6.48304 3.65056 6.50141 3.74994 6.5H4.99994V19.25C4.99994 20.7665 6.23344 22 7.74994 22H12.8163C12.3888 21.5555 12.0252 21.0515 11.7372 20.5H7.74994C7.06094 20.5 6.49994 19.939 6.49994 19.25V6.5H17.4999V11C18.0169 11 18.5174 11.0667 18.9999 11.1807V6.5H20.2499C20.3493 6.50141 20.448 6.48304 20.5402 6.44598C20.6324 6.40892 20.7164 6.3539 20.7872 6.28412C20.8579 6.21434 20.9141 6.13118 20.9525 6.03949C20.9909 5.9478 21.0106 5.84939 21.0106 5.75C21.0106 5.65061 20.9909 5.5522 20.9525 5.46051C20.9141 5.36882 20.8579 5.28566 20.7872 5.21588C20.7164 5.1461 20.6324 5.09108 20.5402 5.05402C20.448 5.01696 20.3493 4.99859 20.2499 5H14.9999C14.9999 3.35207 13.6479 2 11.9999 2ZM11.9999 3.5C12.837 3.5 13.4999 4.16293 13.4999 5H10.4999C10.4999 4.16293 11.1629 3.5 11.9999 3.5ZM10.2382 8.98926C10.0395 8.99236 9.8501 9.07423 9.71167 9.21686C9.57324 9.3595 9.49709 9.55125 9.49994 9.75V17.25C9.49853 17.3494 9.5169 17.4481 9.55396 17.5403C9.59102 17.6325 9.64604 17.7164 9.71582 17.7872C9.7856 17.858 9.86876 17.9142 9.96045 17.9526C10.0521 17.9909 10.1505 18.0107 10.2499 18.0107C10.3493 18.0107 10.4477 17.9909 10.5394 17.9526C10.6311 17.9142 10.7143 17.858 10.7841 17.7872C10.8538 17.7164 10.9089 17.6325 10.9459 17.5403C10.983 17.4481 11.0013 17.3494 10.9999 17.25V9.75C11.0014 9.64962 10.9827 9.54997 10.9449 9.45695C10.9071 9.36394 10.851 9.27946 10.78 9.20852C10.709 9.13758 10.6244 9.08161 10.5313 9.04395C10.4383 9.00629 10.3386 8.98769 10.2382 8.98926ZM13.7499 9C13.3354 9 12.9999 9.3355 12.9999 9.75V12.8164C13.4444 12.3889 13.9484 12.0253 14.4999 11.7373V9.75C14.4999 9.3355 14.1644 9 13.7499 9ZM17.4999 12C14.4624 12 11.9999 14.4625 11.9999 17.5C11.9999 20.5375 14.4624 23 17.4999 23C20.5374 23 22.9999 20.5375 22.9999 17.5C22.9999 14.4625 20.5374 12 17.4999 12ZM14.9999 14.5C15.1278 14.5 15.2557 14.5487 15.3535 14.6465L17.4999 16.793L19.6464 14.6465C19.8419 14.451 20.158 14.451 20.3535 14.6465C20.549 14.842 20.549 15.158 20.3535 15.3535L18.207 17.5L20.3535 19.6465C20.549 19.842 20.549 20.158 20.3535 20.3535C20.256 20.451 20.1279 20.5 19.9999 20.5C19.8719 20.5 19.7439 20.451 19.6464 20.3535L17.4999 18.207L15.3535 20.3535C15.256 20.451 15.1279 20.5 14.9999 20.5C14.8719 20.5 14.7439 20.451 14.6464 20.3535C14.4509 20.158 14.4509 19.842 14.6464 19.6465L16.7929 17.5L14.6464 15.3535C14.4509 15.158 14.4509 14.842 14.6464 14.6465C14.7442 14.5487 14.8721 14.5 14.9999 14.5Z" fill="#414141"/>
</svg>
