<svg width="24" height="24" viewBox="0 0 24 24" fill="none" xmlns="http://www.w3.org/2000/svg">
<path d="M9.72949 1.5C7.70524 1.5 5.98884 2.20147 4.80762 3.43359C3.62639 4.66572 3 6.39406 3 8.34961C3 8.93776 3.09343 9.4626 3.21387 9.93457L3.36035 10.5H9V15V16.5V19.9863C9.00019 20.0998 9.02613 20.2118 9.07587 20.3138C9.1256 20.4158 9.19783 20.5052 9.28711 20.5752L11.5371 22.3389C11.6692 22.4424 11.8322 22.4987 12 22.4987C12.1678 22.4987 12.3308 22.4424 12.4629 22.3389L14.7129 20.5752C14.8022 20.5052 14.8744 20.4158 14.9241 20.3138C14.9739 20.2118 14.9998 20.0998 15 19.9863V10.5H20.6396L20.7861 9.93457C20.9066 9.4626 21 8.93776 21 8.34961C21 6.39406 20.3736 4.66572 19.1924 3.43359C18.0112 2.20147 16.2948 1.5 14.2705 1.5C13.4672 1.5 12.6927 1.6259 12 1.83398C11.3075 1.6256 10.5328 1.5 9.72949 1.5ZM9.72949 3C10.4881 3 11.2561 3.11003 11.751 3.28418L12 3.37207L12.249 3.28418C12.7464 3.10956 13.5119 3 14.2705 3C15.9573 3 17.2301 3.55145 18.1113 4.4707C18.9926 5.38995 19.5 6.70966 19.5 8.34961C19.5 8.57902 19.4426 8.7864 19.4092 9H14.25H9.75H4.59082C4.5574 8.7864 4.5 8.57902 4.5 8.34961C4.5 6.70966 5.0074 5.38995 5.88867 4.4707C6.76995 3.55145 8.04275 3 9.72949 3ZM10.5 10.5H13.5V15H10.5V10.5ZM10.5 16.5H13.5V19.6201L12 20.7979L10.5 19.6201V16.5Z" fill="#414141"/>
</svg>
