<svg width="24" height="24" viewBox="0 0 24 24" fill="none" xmlns="http://www.w3.org/2000/svg">
<path d="M12 3C11.1003 3 10.2003 3.24995 9.41016 3.74902L8.25977 4.47559C7.52132 4.94202 6.63019 5.10108 5.77539 4.91992H5.77441L4.01074 4.54492C3.24879 4.38225 2.5 4.98889 2.5 5.76758V10.5V10.75V11.25C2.5 11.6279 2.64816 11.9621 2.85645 12.25C2.64816 12.5379 2.5 12.8721 2.5 13.25V13.75V14V16.25C2.5 16.9866 2.88 17.6448 3.42188 18.1572C3.96375 18.6697 4.68139 19.0798 5.53418 19.4209C7.23976 20.1031 9.50268 20.5 12 20.5C14.4973 20.5 16.7602 20.1031 18.4658 19.4209C19.3186 19.0798 20.0362 18.6697 20.5781 18.1572C21.12 17.6448 21.5 16.9866 21.5 16.25V14V13.75V13.25C21.5 12.8721 21.3518 12.5379 21.1436 12.25C21.3518 11.9621 21.5 11.6279 21.5 11.25V10.75V10.5V5.76758C21.5 4.98889 20.7515 4.38337 19.9902 4.54492L18.2256 4.91992C17.3709 5.10173 16.4791 4.9423 15.7402 4.47559L14.5898 3.74902C13.7995 3.25001 12.8997 3 12 3ZM12 4.49902C12.6208 4.49901 13.2419 4.67209 13.7891 5.01758L14.9395 5.74316C16.0086 6.41845 17.2998 6.64991 18.5371 6.38672L20 6.07617V8.57227C19.839 8.52977 19.6734 8.5 19.5 8.5C19.111 8.5 18.7668 8.64282 18.458 8.83887C18.0438 8.33898 17.4431 8 16.75 8C16.3851 8 16.0532 8.10948 15.7471 8.2666C15.377 7.52598 14.6274 7 13.75 7H13.5C12.921 7 12.4006 7.23747 12 7.60254C11.5994 7.23747 11.079 7 10.5 7H10.25C9.37263 7 8.62305 7.52598 8.25293 8.2666C7.94676 8.10948 7.61489 8 7.25 8C6.55686 8 5.95619 8.33898 5.54199 8.83887C5.23315 8.64282 4.88896 8.5 4.5 8.5C4.32657 8.5 4.16102 8.52977 4 8.57227V6.07617L5.46289 6.38672C6.69979 6.64924 7.99128 6.41855 9.06055 5.74316L10.2119 5.01758C10.7588 4.67215 11.3792 4.49904 12 4.49902ZM10.25 8.5H10.5C10.9232 8.5 11.25 8.82675 11.25 9.25V11.25C11.25 11.3975 11.1475 11.5 11 11.5H9.75C9.60248 11.5 9.5 11.3975 9.5 11.25V10.25V9.25C9.5 8.82675 9.82675 8.5 10.25 8.5ZM13.5 8.5H13.75C14.1732 8.5 14.5 8.82675 14.5 9.25V10.25V11.25C14.5 11.3975 14.3975 11.5 14.25 11.5H13C12.8525 11.5 12.75 11.3975 12.75 11.25V9.25C12.75 8.82675 13.0768 8.5 13.5 8.5ZM7.25 9.5C7.67325 9.5 8 9.82675 8 10.25V11.25C8 11.3975 7.89752 11.5 7.75 11.5H6.75C6.60248 11.5 6.5 11.3975 6.5 11.25V10.5V10.25C6.5 9.82675 6.82675 9.5 7.25 9.5ZM16.75 9.5C17.1732 9.5 17.5 9.82675 17.5 10.25V10.5V11.25C17.5 11.3975 17.3975 11.5 17.25 11.5H16.25C16.1025 11.5 16 11.3975 16 11.25V10.25C16 9.82675 16.3268 9.5 16.75 9.5ZM4.5 10C4.78536 10 5 10.2146 5 10.5V11.25C5 11.3975 4.89752 11.5 4.75 11.5H4.25C4.10248 11.5 4 11.3975 4 11.25V10.75V10.5C4 10.2146 4.21464 10 4.5 10ZM19.5 10C19.7854 10 20 10.2146 20 10.5V10.75V11.25C20 11.3975 19.8975 11.5 19.75 11.5H19.25C19.1025 11.5 19 11.3975 19 11.25V10.5C19 10.2146 19.2146 10 19.5 10ZM4.25 13H4.75C4.89752 13 5 13.1025 5 13.25V14C5 14.2854 4.78536 14.5 4.5 14.5C4.21464 14.5 4 14.2854 4 14V13.75V13.25C4 13.1025 4.10248 13 4.25 13ZM6.75 13H7.75C7.89752 13 8 13.1025 8 13.25V14.25C8 14.6732 7.67325 15 7.25 15C6.82675 15 6.5 14.6732 6.5 14.25V14V13.25C6.5 13.1025 6.60248 13 6.75 13ZM9.75 13H11C11.1475 13 11.25 13.1025 11.25 13.25V14.75C11.25 15.1732 10.9232 15.5 10.5 15.5H10.25C9.82675 15.5 9.5 15.1732 9.5 14.75V14.25V13.25C9.5 13.1025 9.60248 13 9.75 13ZM13 13H14.25C14.3975 13 14.5 13.1025 14.5 13.25V14.25V14.75C14.5 15.1732 14.1732 15.5 13.75 15.5H13.5C13.0768 15.5 12.75 15.1732 12.75 14.75V13.25C12.75 13.1025 12.8525 13 13 13ZM16.25 13H17.25C17.3975 13 17.5 13.1025 17.5 13.25V14V14.25C17.5 14.6732 17.1732 15 16.75 15C16.3268 15 16 14.6732 16 14.25V13.25C16 13.1025 16.1025 13 16.25 13ZM19.25 13H19.75C19.8975 13 20 13.1025 20 13.25V13.75V14C20 14.2854 19.7854 14.5 19.5 14.5C19.2146 14.5 19 14.2854 19 14V13.25C19 13.1025 19.1025 13 19.25 13ZM5.54199 15.6611C5.95619 16.161 6.55686 16.5 7.25 16.5C7.71502 16.5 8.1249 16.3222 8.48535 16.0762C8.89764 16.6218 9.52042 17 10.25 17H10.5C11.079 17 11.5994 16.7625 12 16.3975C12.4006 16.7625 12.921 17 13.5 17H13.75C14.4796 17 15.1024 16.6218 15.5146 16.0762C15.8751 16.3222 16.285 16.5 16.75 16.5C17.4431 16.5 18.0438 16.161 18.458 15.6611C18.7668 15.8572 19.111 16 19.5 16C19.6734 16 19.839 15.9702 20 15.9277V16.25C20 16.4799 19.8905 16.7424 19.5469 17.0674C19.2032 17.3924 18.6389 17.7361 17.9082 18.0283C16.4469 18.6128 14.3352 19 12 19C9.66482 19 7.5531 18.6128 6.0918 18.0283C5.36115 17.7361 4.79679 17.3924 4.45312 17.0674C4.10946 16.7424 4 16.4799 4 16.25V15.9277C4.16102 15.9702 4.32657 16 4.5 16C4.88896 16 5.23315 15.8572 5.54199 15.6611Z" fill="#414141"/>
</svg>
