<svg width="37" height="37" viewBox="0 0 37 37" fill="none" xmlns="http://www.w3.org/2000/svg">
<mask id="path-1-outside-1" maskUnits="userSpaceOnUse" x="2" y="1.75" width="33" height="33" fill="black">
<rect fill="white" x="2" y="1.75" width="33" height="33"/>
<path d="M16.545 2.75C14.2534 2.75 12.9319 3.07636 12.135 3.45752C11.7366 3.6481 11.4706 3.85478 11.2983 4.0383C11.1259 4.22182 11.0214 4.45666 11.0214 4.45666C11.0048 4.50278 10.9937 4.55069 10.9882 4.59939L10.0617 12.5925C10.0393 12.6444 10.024 12.699 10.0161 12.7549C9.73087 14.6375 9.16187 15.556 8.1692 16.8573C8.11689 16.9258 8.07917 17.0043 8.0584 17.0879C8.03762 17.1715 8.03422 17.2585 8.04841 17.3435C8.06259 17.4285 8.09406 17.5097 8.14087 17.5821C8.18768 17.6544 8.24883 17.7164 8.32055 17.7642C10.3427 19.1123 12.2032 19.0871 14.2785 19.1288C14.9626 19.5177 15.7268 19.7428 16.545 19.7428C17.3632 19.7428 18.1274 19.5177 18.8115 19.1288C20.8868 19.0871 22.7473 19.1123 24.7695 17.7642C24.8412 17.7164 24.9023 17.6544 24.9491 17.5821C24.9959 17.5097 25.0274 17.4285 25.0416 17.3435C25.0558 17.2585 25.0524 17.1715 25.0316 17.0879C25.0108 17.0043 24.9731 16.9258 24.9208 16.8573C23.9281 15.556 23.3591 14.6375 23.0739 12.7549C23.066 12.699 23.0507 12.6444 23.0283 12.5925L22.1018 4.59939C22.0963 4.55069 22.0852 4.50278 22.0686 4.45666C22.0686 4.45666 21.9641 4.22182 21.7917 4.0383C21.6194 3.85478 21.3534 3.6481 20.955 3.45752C20.1581 3.07636 18.8366 2.75 16.545 2.75ZM16.545 4.01C18.715 4.01 19.8592 4.32988 20.4124 4.59447C20.6854 4.72506 20.8113 4.83783 20.8676 4.89717L21.6121 11.3128C21.6051 11.2971 21.601 11.2792 21.5936 11.2636C21.3511 10.7487 20.8489 10.4043 20.3459 10.3002C19.3399 10.0918 18.2333 10.3814 16.545 10.3814C15.7008 10.3814 15.0016 10.3086 14.388 10.262C13.7744 10.2154 13.2471 10.196 12.7441 10.3002C12.2411 10.4043 11.7389 10.7487 11.4964 11.2636C11.489 11.2792 11.4849 11.2971 11.4779 11.3128L12.2224 4.89717C12.2787 4.83783 12.4046 4.72506 12.6776 4.59447C13.2308 4.32988 14.375 4.01 16.545 4.01ZM15.915 5.1408V6.85977H14.1973V8.11977H15.915V9.8375H17.175V8.11977H18.8927V6.85977H17.175V5.1408H15.915ZM13.5021 11.5085C14.1435 11.5249 15.1889 11.6414 16.545 11.6414C18.3532 11.6414 19.6089 11.4332 20.0912 11.5331C20.3324 11.583 20.3559 11.594 20.453 11.8001C20.55 12.0062 20.64 12.475 20.64 13.2422C20.64 16.1944 18.7168 18.4828 16.545 18.4828C14.3732 18.4828 12.45 16.1944 12.45 13.2422C12.45 12.475 12.54 12.0062 12.637 11.8001C12.7341 11.594 12.7576 11.583 12.9988 11.5331C13.1194 11.5081 13.2882 11.503 13.5021 11.5085ZM11.1925 13.316C11.2087 15.0446 11.7892 16.6449 12.7404 17.8159C11.6022 17.746 10.6141 17.5682 9.56578 17.0013C10.3082 15.9445 10.8962 14.8758 11.1925 13.316ZM21.8975 13.316C22.1938 14.8758 22.7818 15.9445 23.5242 17.0013C22.4759 17.5682 21.4878 17.746 20.3496 17.8159C21.3008 16.6449 21.8813 15.0446 21.8975 13.316ZM16.545 20.39C12.889 20.39 9.57032 21.2918 7.1233 22.6221C4.67628 23.9523 3 25.7186 3 27.6695V32.36H22.1879C22.2714 32.3612 22.3543 32.3458 22.4318 32.3146C22.5092 32.2835 22.5797 32.2373 22.6392 32.1787C22.6987 32.12 22.7459 32.0502 22.7781 31.9732C22.8103 31.8961 22.8269 31.8135 22.8269 31.73C22.8269 31.6465 22.8103 31.5638 22.7781 31.4868C22.7459 31.4098 22.6987 31.34 22.6392 31.2813C22.5797 31.2227 22.5092 31.1765 22.4318 31.1454C22.3543 31.1142 22.2714 31.0988 22.1879 31.1H4.26V27.6695C4.26 26.5012 5.49033 24.9431 7.725 23.7283C9.05829 23.0035 10.7179 22.4084 12.5681 22.0425L15.9728 29.4721C16.0232 29.5814 16.1039 29.674 16.2053 29.7389C16.3067 29.8038 16.4246 29.8383 16.545 29.8383C16.6654 29.8383 16.7833 29.8038 16.8847 29.7389C16.9861 29.674 17.0668 29.5814 17.1172 29.4721L20.5231 22.0425C20.8409 22.1053 21.1575 22.1694 21.4632 22.2455C21.5435 22.2655 21.627 22.2695 21.7088 22.2572C21.7906 22.2449 21.8693 22.2166 21.9402 22.1739C22.0111 22.1313 22.0729 22.075 22.1221 22.0085C22.1713 21.9419 22.2068 21.8663 22.2268 21.786C22.2468 21.7057 22.2507 21.6222 22.2384 21.5404C22.2261 21.4585 22.1978 21.3799 22.1551 21.309C22.1124 21.2381 22.0562 21.1763 21.9896 21.1271C21.923 21.078 21.8474 21.0424 21.7671 21.0225C20.1591 20.6221 18.3952 20.39 16.545 20.39ZM27.0224 21.0188C26.9874 21.0183 26.9524 21.0208 26.9179 21.0262C25.6406 21.0566 24.5404 21.4805 23.7654 22.2369C22.9608 23.0223 22.53 24.1401 22.53 25.3906C22.53 26.3394 22.8814 27.0852 23.2363 27.7297C23.5911 28.3743 23.9474 28.9411 24.1382 29.6456C24.3704 30.5248 24.5377 31.5581 24.8125 32.4314C24.9501 32.8686 25.1104 33.2716 25.3748 33.6163C25.6393 33.961 26.079 34.25 26.5758 34.25C27.0267 34.25 27.4906 34.0617 27.7804 33.7061C28.0702 33.3506 28.1815 32.8935 28.1815 32.3981C28.1815 31.5911 28.3561 30.5255 28.515 29.5213C28.6739 30.5197 28.8485 31.5904 28.8485 32.3981C28.8485 32.8935 28.9598 33.3506 29.2496 33.7061C29.5394 34.0617 30.0033 34.25 30.4542 34.25C30.9532 34.25 31.3927 33.9578 31.6564 33.6114C31.9201 33.265 32.08 32.8599 32.2175 32.4215C32.4921 31.5454 32.6601 30.5112 32.8918 29.6456C33.0829 28.9411 33.4388 28.3742 33.7937 27.7297C34.1481 27.0862 34.4977 26.3411 34.4988 25.3943C34.5113 24.1439 34.0869 23.0239 33.2855 22.2382C32.4833 21.4516 31.3313 21.02 29.9916 21.02C29.4539 21.02 28.9795 21.1128 28.531 21.2476C28.0868 21.1136 27.6154 21.0238 27.0852 21.0212C27.0643 21.0194 27.0434 21.0185 27.0224 21.0188ZM16.545 21.65C17.4691 21.65 18.368 21.7146 19.236 21.8284L16.545 27.699L13.8552 21.8296C14.7228 21.7156 15.6216 21.65 16.545 21.65ZM29.9916 22.28C31.0666 22.28 31.865 22.6086 32.4045 23.1376C32.944 23.6666 33.2504 24.417 33.24 25.3845V25.3869V25.3906C33.24 26.0376 33.0183 26.5259 32.69 27.1219C32.3617 27.7179 31.9247 28.3994 31.6761 29.3158H31.6748V29.3171C31.4192 30.2716 31.2466 31.3071 31.0153 32.045C30.8997 32.4139 30.7642 32.702 30.6536 32.8473C30.5429 32.9926 30.5285 32.99 30.4542 32.99C30.2953 32.99 30.271 32.966 30.2254 32.91C30.1797 32.854 30.1085 32.7009 30.1085 32.3981C30.1085 31.1974 29.8825 29.7165 29.6606 28.4816C29.5661 27.9026 29.0261 27.5033 28.5236 27.5033C28.0212 27.5033 27.4901 27.8841 27.3731 28.457L27.3707 28.4643L27.3694 28.4729C27.1482 29.7308 26.9215 31.1938 26.9215 32.3981C26.9215 32.7009 26.8491 32.854 26.8034 32.91C26.7578 32.966 26.7347 32.99 26.5758 32.99C26.4992 32.99 26.4839 32.9929 26.374 32.8497C26.2641 32.7065 26.1302 32.4206 26.0147 32.0536C25.7837 31.3196 25.6101 30.2841 25.3552 29.3195L25.3539 29.3183V29.3158C25.1057 28.3993 24.6682 27.7193 24.34 27.1231C24.0118 26.5269 23.79 26.0376 23.79 25.3906C23.79 24.4217 24.1031 23.6691 24.6464 23.1389C25.1807 22.6174 25.9628 22.2931 27.0114 22.2825C27.8617 22.3497 28.5958 22.7358 29.1204 23.3542C29.2286 23.4816 29.3829 23.5609 29.5496 23.5745C29.7162 23.5881 29.8814 23.535 30.0088 23.4268C30.1362 23.3186 30.2155 23.1642 30.2291 22.9976C30.2427 22.831 30.1896 22.6658 30.0814 22.5384C30.0078 22.4517 29.9286 22.3702 29.8488 22.2898C29.899 22.2884 29.9394 22.28 29.9916 22.28Z"/>
</mask>
<path d="M16.545 2.75C14.2534 2.75 12.9319 3.07636 12.135 3.45752C11.7366 3.6481 11.4706 3.85478 11.2983 4.0383C11.1259 4.22182 11.0214 4.45666 11.0214 4.45666C11.0048 4.50278 10.9937 4.55069 10.9882 4.59939L10.0617 12.5925C10.0393 12.6444 10.024 12.699 10.0161 12.7549C9.73087 14.6375 9.16187 15.556 8.1692 16.8573C8.11689 16.9258 8.07917 17.0043 8.0584 17.0879C8.03762 17.1715 8.03422 17.2585 8.04841 17.3435C8.06259 17.4285 8.09406 17.5097 8.14087 17.5821C8.18768 17.6544 8.24883 17.7164 8.32055 17.7642C10.3427 19.1123 12.2032 19.0871 14.2785 19.1288C14.9626 19.5177 15.7268 19.7428 16.545 19.7428C17.3632 19.7428 18.1274 19.5177 18.8115 19.1288C20.8868 19.0871 22.7473 19.1123 24.7695 17.7642C24.8412 17.7164 24.9023 17.6544 24.9491 17.5821C24.9959 17.5097 25.0274 17.4285 25.0416 17.3435C25.0558 17.2585 25.0524 17.1715 25.0316 17.0879C25.0108 17.0043 24.9731 16.9258 24.9208 16.8573C23.9281 15.556 23.3591 14.6375 23.0739 12.7549C23.066 12.699 23.0507 12.6444 23.0283 12.5925L22.1018 4.59939C22.0963 4.55069 22.0852 4.50278 22.0686 4.45666C22.0686 4.45666 21.9641 4.22182 21.7917 4.0383C21.6194 3.85478 21.3534 3.6481 20.955 3.45752C20.1581 3.07636 18.8366 2.75 16.545 2.75ZM16.545 4.01C18.715 4.01 19.8592 4.32988 20.4124 4.59447C20.6854 4.72506 20.8113 4.83783 20.8676 4.89717L21.6121 11.3128C21.6051 11.2971 21.601 11.2792 21.5936 11.2636C21.3511 10.7487 20.8489 10.4043 20.3459 10.3002C19.3399 10.0918 18.2333 10.3814 16.545 10.3814C15.7008 10.3814 15.0016 10.3086 14.388 10.262C13.7744 10.2154 13.2471 10.196 12.7441 10.3002C12.2411 10.4043 11.7389 10.7487 11.4964 11.2636C11.489 11.2792 11.4849 11.2971 11.4779 11.3128L12.2224 4.89717C12.2787 4.83783 12.4046 4.72506 12.6776 4.59447C13.2308 4.32988 14.375 4.01 16.545 4.01ZM15.915 5.1408V6.85977H14.1973V8.11977H15.915V9.8375H17.175V8.11977H18.8927V6.85977H17.175V5.1408H15.915ZM13.5021 11.5085C14.1435 11.5249 15.1889 11.6414 16.545 11.6414C18.3532 11.6414 19.6089 11.4332 20.0912 11.5331C20.3324 11.583 20.3559 11.594 20.453 11.8001C20.55 12.0062 20.64 12.475 20.64 13.2422C20.64 16.1944 18.7168 18.4828 16.545 18.4828C14.3732 18.4828 12.45 16.1944 12.45 13.2422C12.45 12.475 12.54 12.0062 12.637 11.8001C12.7341 11.594 12.7576 11.583 12.9988 11.5331C13.1194 11.5081 13.2882 11.503 13.5021 11.5085ZM11.1925 13.316C11.2087 15.0446 11.7892 16.6449 12.7404 17.8159C11.6022 17.746 10.6141 17.5682 9.56578 17.0013C10.3082 15.9445 10.8962 14.8758 11.1925 13.316ZM21.8975 13.316C22.1938 14.8758 22.7818 15.9445 23.5242 17.0013C22.4759 17.5682 21.4878 17.746 20.3496 17.8159C21.3008 16.6449 21.8813 15.0446 21.8975 13.316ZM16.545 20.39C12.889 20.39 9.57032 21.2918 7.1233 22.6221C4.67628 23.9523 3 25.7186 3 27.6695V32.36H22.1879C22.2714 32.3612 22.3543 32.3458 22.4318 32.3146C22.5092 32.2835 22.5797 32.2373 22.6392 32.1787C22.6987 32.12 22.7459 32.0502 22.7781 31.9732C22.8103 31.8961 22.8269 31.8135 22.8269 31.73C22.8269 31.6465 22.8103 31.5638 22.7781 31.4868C22.7459 31.4098 22.6987 31.34 22.6392 31.2813C22.5797 31.2227 22.5092 31.1765 22.4318 31.1454C22.3543 31.1142 22.2714 31.0988 22.1879 31.1H4.26V27.6695C4.26 26.5012 5.49033 24.9431 7.725 23.7283C9.05829 23.0035 10.7179 22.4084 12.5681 22.0425L15.9728 29.4721C16.0232 29.5814 16.1039 29.674 16.2053 29.7389C16.3067 29.8038 16.4246 29.8383 16.545 29.8383C16.6654 29.8383 16.7833 29.8038 16.8847 29.7389C16.9861 29.674 17.0668 29.5814 17.1172 29.4721L20.5231 22.0425C20.8409 22.1053 21.1575 22.1694 21.4632 22.2455C21.5435 22.2655 21.627 22.2695 21.7088 22.2572C21.7906 22.2449 21.8693 22.2166 21.9402 22.1739C22.0111 22.1313 22.0729 22.075 22.1221 22.0085C22.1713 21.9419 22.2068 21.8663 22.2268 21.786C22.2468 21.7057 22.2507 21.6222 22.2384 21.5404C22.2261 21.4585 22.1978 21.3799 22.1551 21.309C22.1124 21.2381 22.0562 21.1763 21.9896 21.1271C21.923 21.078 21.8474 21.0424 21.7671 21.0225C20.1591 20.6221 18.3952 20.39 16.545 20.39ZM27.0224 21.0188C26.9874 21.0183 26.9524 21.0208 26.9179 21.0262C25.6406 21.0566 24.5404 21.4805 23.7654 22.2369C22.9608 23.0223 22.53 24.1401 22.53 25.3906C22.53 26.3394 22.8814 27.0852 23.2363 27.7297C23.5911 28.3743 23.9474 28.9411 24.1382 29.6456C24.3704 30.5248 24.5377 31.5581 24.8125 32.4314C24.9501 32.8686 25.1104 33.2716 25.3748 33.6163C25.6393 33.961 26.079 34.25 26.5758 34.25C27.0267 34.25 27.4906 34.0617 27.7804 33.7061C28.0702 33.3506 28.1815 32.8935 28.1815 32.3981C28.1815 31.5911 28.3561 30.5255 28.515 29.5213C28.6739 30.5197 28.8485 31.5904 28.8485 32.3981C28.8485 32.8935 28.9598 33.3506 29.2496 33.7061C29.5394 34.0617 30.0033 34.25 30.4542 34.25C30.9532 34.25 31.3927 33.9578 31.6564 33.6114C31.9201 33.265 32.08 32.8599 32.2175 32.4215C32.4921 31.5454 32.6601 30.5112 32.8918 29.6456C33.0829 28.9411 33.4388 28.3742 33.7937 27.7297C34.1481 27.0862 34.4977 26.3411 34.4988 25.3943C34.5113 24.1439 34.0869 23.0239 33.2855 22.2382C32.4833 21.4516 31.3313 21.02 29.9916 21.02C29.4539 21.02 28.9795 21.1128 28.531 21.2476C28.0868 21.1136 27.6154 21.0238 27.0852 21.0212C27.0643 21.0194 27.0434 21.0185 27.0224 21.0188ZM16.545 21.65C17.4691 21.65 18.368 21.7146 19.236 21.8284L16.545 27.699L13.8552 21.8296C14.7228 21.7156 15.6216 21.65 16.545 21.65ZM29.9916 22.28C31.0666 22.28 31.865 22.6086 32.4045 23.1376C32.944 23.6666 33.2504 24.417 33.24 25.3845V25.3869V25.3906C33.24 26.0376 33.0183 26.5259 32.69 27.1219C32.3617 27.7179 31.9247 28.3994 31.6761 29.3158H31.6748V29.3171C31.4192 30.2716 31.2466 31.3071 31.0153 32.045C30.8997 32.4139 30.7642 32.702 30.6536 32.8473C30.5429 32.9926 30.5285 32.99 30.4542 32.99C30.2953 32.99 30.271 32.966 30.2254 32.91C30.1797 32.854 30.1085 32.7009 30.1085 32.3981C30.1085 31.1974 29.8825 29.7165 29.6606 28.4816C29.5661 27.9026 29.0261 27.5033 28.5236 27.5033C28.0212 27.5033 27.4901 27.8841 27.3731 28.457L27.3707 28.4643L27.3694 28.4729C27.1482 29.7308 26.9215 31.1938 26.9215 32.3981C26.9215 32.7009 26.8491 32.854 26.8034 32.91C26.7578 32.966 26.7347 32.99 26.5758 32.99C26.4992 32.99 26.4839 32.9929 26.374 32.8497C26.2641 32.7065 26.1302 32.4206 26.0147 32.0536C25.7837 31.3196 25.6101 30.2841 25.3552 29.3195L25.3539 29.3183V29.3158C25.1057 28.3993 24.6682 27.7193 24.34 27.1231C24.0118 26.5269 23.79 26.0376 23.79 25.3906C23.79 24.4217 24.1031 23.6691 24.6464 23.1389C25.1807 22.6174 25.9628 22.2931 27.0114 22.2825C27.8617 22.3497 28.5958 22.7358 29.1204 23.3542C29.2286 23.4816 29.3829 23.5609 29.5496 23.5745C29.7162 23.5881 29.8814 23.535 30.0088 23.4268C30.1362 23.3186 30.2155 23.1642 30.2291 22.9976C30.2427 22.831 30.1896 22.6658 30.0814 22.5384C30.0078 22.4517 29.9286 22.3702 29.8488 22.2898C29.899 22.2884 29.9394 22.28 29.9916 22.28Z" fill="#153E90"/>
<path d="M16.545 2.75C14.2534 2.75 12.9319 3.07636 12.135 3.45752C11.7366 3.6481 11.4706 3.85478 11.2983 4.0383C11.1259 4.22182 11.0214 4.45666 11.0214 4.45666C11.0048 4.50278 10.9937 4.55069 10.9882 4.59939L10.0617 12.5925C10.0393 12.6444 10.024 12.699 10.0161 12.7549C9.73087 14.6375 9.16187 15.556 8.1692 16.8573C8.11689 16.9258 8.07917 17.0043 8.0584 17.0879C8.03762 17.1715 8.03422 17.2585 8.04841 17.3435C8.06259 17.4285 8.09406 17.5097 8.14087 17.5821C8.18768 17.6544 8.24883 17.7164 8.32055 17.7642C10.3427 19.1123 12.2032 19.0871 14.2785 19.1288C14.9626 19.5177 15.7268 19.7428 16.545 19.7428C17.3632 19.7428 18.1274 19.5177 18.8115 19.1288C20.8868 19.0871 22.7473 19.1123 24.7695 17.7642C24.8412 17.7164 24.9023 17.6544 24.9491 17.5821C24.9959 17.5097 25.0274 17.4285 25.0416 17.3435C25.0558 17.2585 25.0524 17.1715 25.0316 17.0879C25.0108 17.0043 24.9731 16.9258 24.9208 16.8573C23.9281 15.556 23.3591 14.6375 23.0739 12.7549C23.066 12.699 23.0507 12.6444 23.0283 12.5925L22.1018 4.59939C22.0963 4.55069 22.0852 4.50278 22.0686 4.45666C22.0686 4.45666 21.9641 4.22182 21.7917 4.0383C21.6194 3.85478 21.3534 3.6481 20.955 3.45752C20.1581 3.07636 18.8366 2.75 16.545 2.75ZM16.545 4.01C18.715 4.01 19.8592 4.32988 20.4124 4.59447C20.6854 4.72506 20.8113 4.83783 20.8676 4.89717L21.6121 11.3128C21.6051 11.2971 21.601 11.2792 21.5936 11.2636C21.3511 10.7487 20.8489 10.4043 20.3459 10.3002C19.3399 10.0918 18.2333 10.3814 16.545 10.3814C15.7008 10.3814 15.0016 10.3086 14.388 10.262C13.7744 10.2154 13.2471 10.196 12.7441 10.3002C12.2411 10.4043 11.7389 10.7487 11.4964 11.2636C11.489 11.2792 11.4849 11.2971 11.4779 11.3128L12.2224 4.89717C12.2787 4.83783 12.4046 4.72506 12.6776 4.59447C13.2308 4.32988 14.375 4.01 16.545 4.01ZM15.915 5.1408V6.85977H14.1973V8.11977H15.915V9.8375H17.175V8.11977H18.8927V6.85977H17.175V5.1408H15.915ZM13.5021 11.5085C14.1435 11.5249 15.1889 11.6414 16.545 11.6414C18.3532 11.6414 19.6089 11.4332 20.0912 11.5331C20.3324 11.583 20.3559 11.594 20.453 11.8001C20.55 12.0062 20.64 12.475 20.64 13.2422C20.64 16.1944 18.7168 18.4828 16.545 18.4828C14.3732 18.4828 12.45 16.1944 12.45 13.2422C12.45 12.475 12.54 12.0062 12.637 11.8001C12.7341 11.594 12.7576 11.583 12.9988 11.5331C13.1194 11.5081 13.2882 11.503 13.5021 11.5085ZM11.1925 13.316C11.2087 15.0446 11.7892 16.6449 12.7404 17.8159C11.6022 17.746 10.6141 17.5682 9.56578 17.0013C10.3082 15.9445 10.8962 14.8758 11.1925 13.316ZM21.8975 13.316C22.1938 14.8758 22.7818 15.9445 23.5242 17.0013C22.4759 17.5682 21.4878 17.746 20.3496 17.8159C21.3008 16.6449 21.8813 15.0446 21.8975 13.316ZM16.545 20.39C12.889 20.39 9.57032 21.2918 7.1233 22.6221C4.67628 23.9523 3 25.7186 3 27.6695V32.36H22.1879C22.2714 32.3612 22.3543 32.3458 22.4318 32.3146C22.5092 32.2835 22.5797 32.2373 22.6392 32.1787C22.6987 32.12 22.7459 32.0502 22.7781 31.9732C22.8103 31.8961 22.8269 31.8135 22.8269 31.73C22.8269 31.6465 22.8103 31.5638 22.7781 31.4868C22.7459 31.4098 22.6987 31.34 22.6392 31.2813C22.5797 31.2227 22.5092 31.1765 22.4318 31.1454C22.3543 31.1142 22.2714 31.0988 22.1879 31.1H4.26V27.6695C4.26 26.5012 5.49033 24.9431 7.725 23.7283C9.05829 23.0035 10.7179 22.4084 12.5681 22.0425L15.9728 29.4721C16.0232 29.5814 16.1039 29.674 16.2053 29.7389C16.3067 29.8038 16.4246 29.8383 16.545 29.8383C16.6654 29.8383 16.7833 29.8038 16.8847 29.7389C16.9861 29.674 17.0668 29.5814 17.1172 29.4721L20.5231 22.0425C20.8409 22.1053 21.1575 22.1694 21.4632 22.2455C21.5435 22.2655 21.627 22.2695 21.7088 22.2572C21.7906 22.2449 21.8693 22.2166 21.9402 22.1739C22.0111 22.1313 22.0729 22.075 22.1221 22.0085C22.1713 21.9419 22.2068 21.8663 22.2268 21.786C22.2468 21.7057 22.2507 21.6222 22.2384 21.5404C22.2261 21.4585 22.1978 21.3799 22.1551 21.309C22.1124 21.2381 22.0562 21.1763 21.9896 21.1271C21.923 21.078 21.8474 21.0424 21.7671 21.0225C20.1591 20.6221 18.3952 20.39 16.545 20.39ZM27.0224 21.0188C26.9874 21.0183 26.9524 21.0208 26.9179 21.0262C25.6406 21.0566 24.5404 21.4805 23.7654 22.2369C22.9608 23.0223 22.53 24.1401 22.53 25.3906C22.53 26.3394 22.8814 27.0852 23.2363 27.7297C23.5911 28.3743 23.9474 28.9411 24.1382 29.6456C24.3704 30.5248 24.5377 31.5581 24.8125 32.4314C24.9501 32.8686 25.1104 33.2716 25.3748 33.6163C25.6393 33.961 26.079 34.25 26.5758 34.25C27.0267 34.25 27.4906 34.0617 27.7804 33.7061C28.0702 33.3506 28.1815 32.8935 28.1815 32.3981C28.1815 31.5911 28.3561 30.5255 28.515 29.5213C28.6739 30.5197 28.8485 31.5904 28.8485 32.3981C28.8485 32.8935 28.9598 33.3506 29.2496 33.7061C29.5394 34.0617 30.0033 34.25 30.4542 34.25C30.9532 34.25 31.3927 33.9578 31.6564 33.6114C31.9201 33.265 32.08 32.8599 32.2175 32.4215C32.4921 31.5454 32.6601 30.5112 32.8918 29.6456C33.0829 28.9411 33.4388 28.3742 33.7937 27.7297C34.1481 27.0862 34.4977 26.3411 34.4988 25.3943C34.5113 24.1439 34.0869 23.0239 33.2855 22.2382C32.4833 21.4516 31.3313 21.02 29.9916 21.02C29.4539 21.02 28.9795 21.1128 28.531 21.2476C28.0868 21.1136 27.6154 21.0238 27.0852 21.0212C27.0643 21.0194 27.0434 21.0185 27.0224 21.0188ZM16.545 21.65C17.4691 21.65 18.368 21.7146 19.236 21.8284L16.545 27.699L13.8552 21.8296C14.7228 21.7156 15.6216 21.65 16.545 21.65ZM29.9916 22.28C31.0666 22.28 31.865 22.6086 32.4045 23.1376C32.944 23.6666 33.2504 24.417 33.24 25.3845V25.3869V25.3906C33.24 26.0376 33.0183 26.5259 32.69 27.1219C32.3617 27.7179 31.9247 28.3994 31.6761 29.3158H31.6748V29.3171C31.4192 30.2716 31.2466 31.3071 31.0153 32.045C30.8997 32.4139 30.7642 32.702 30.6536 32.8473C30.5429 32.9926 30.5285 32.99 30.4542 32.99C30.2953 32.99 30.271 32.966 30.2254 32.91C30.1797 32.854 30.1085 32.7009 30.1085 32.3981C30.1085 31.1974 29.8825 29.7165 29.6606 28.4816C29.5661 27.9026 29.0261 27.5033 28.5236 27.5033C28.0212 27.5033 27.4901 27.8841 27.3731 28.457L27.3707 28.4643L27.3694 28.4729C27.1482 29.7308 26.9215 31.1938 26.9215 32.3981C26.9215 32.7009 26.8491 32.854 26.8034 32.91C26.7578 32.966 26.7347 32.99 26.5758 32.99C26.4992 32.99 26.4839 32.9929 26.374 32.8497C26.2641 32.7065 26.1302 32.4206 26.0147 32.0536C25.7837 31.3196 25.6101 30.2841 25.3552 29.3195L25.3539 29.3183V29.3158C25.1057 28.3993 24.6682 27.7193 24.34 27.1231C24.0118 26.5269 23.79 26.0376 23.79 25.3906C23.79 24.4217 24.1031 23.6691 24.6464 23.1389C25.1807 22.6174 25.9628 22.2931 27.0114 22.2825C27.8617 22.3497 28.5958 22.7358 29.1204 23.3542C29.2286 23.4816 29.3829 23.5609 29.5496 23.5745C29.7162 23.5881 29.8814 23.535 30.0088 23.4268C30.1362 23.3186 30.2155 23.1642 30.2291 22.9976C30.2427 22.831 30.1896 22.6658 30.0814 22.5384C30.0078 22.4517 29.9286 22.3702 29.8488 22.2898C29.899 22.2884 29.9394 22.28 29.9916 22.28Z" stroke="#153E90" stroke-width="0.6" mask="url(#path-1-outside-1)"/>
</svg>
