<svg width="26" height="24" viewBox="0 0 26 24" fill="none" xmlns="http://www.w3.org/2000/svg">
<path d="M18.25 11.4923C17.8 11.3231 17.35 11.1538 17.05 11.1538H13V9.46154H17.5C17.5 8.44615 16.9 7.76923 16 7.76923H10C10 8.78462 10.6 9.46154 11.5 9.46154V11.1538C10.75 11.1538 10 10.8154 9.7 10.1385L8.05 7.09231C7.6 6.41538 7 6.07692 6.4 6.07692H5.5V4.89231C5.5 4.38462 5.35 4.04615 5.2 3.53846L4.75 2.35385C4.3 1.50769 3.4 1 2.5 1H1L8.5 12.8462C9.1 13.8615 10.15 14.5385 11.2 14.5385H13V16.2308H11.5V19.6154H10.6C9.25 19.6154 7.9 20.2923 7 21.3077H5.5V23H22V21.3077H20.5C19.6 20.2923 18.25 19.6154 16.9 19.6154H16V16.2308H14.5V14.5385H16.9C17.2 14.5385 17.65 14.7077 17.95 14.8769L20.5 16.4C21.85 17.2462 23.5 17.2462 24.85 16.4H25L18.25 11.4923Z" fill="#414141"/>
</svg>
