<svg width="24" height="24" viewBox="0 0 24 24" fill="none" xmlns="http://www.w3.org/2000/svg">
<path d="M12 0C10.17 0 8.98125 0.511875 8.085 0.99C7.18875 1.46813 6.61125 1.86 5.79 1.86C3.60187 1.86 2.35875 1.5225 1.575 1.335C1.18313 1.24125 0.89625 1.11187 0.495 1.275C0.294375 1.35563 0.136875 1.55813 0.075 1.74C0.013125 1.92187 0 2.09812 0 2.295C0 3.24375 0.215625 4.74 1.44 6.075V7.845C1.44 8.36812 1.64813 9.55312 2.925 10.2C3.30375 10.3912 3.76125 10.5675 4.275 10.5C4.335 10.4925 4.39313 10.4719 4.455 10.455C4.49437 10.5544 4.53937 10.665 4.605 10.77C4.87875 11.2181 5.43187 11.6925 6.375 11.91C6.85313 12.0206 7.25063 12.0281 7.59 11.925C7.75312 11.8744 7.89937 11.8069 8.025 11.715C8.36438 12.1294 9.0225 12.48 10.08 12.48C10.9913 12.48 11.6287 12.1838 12 11.79C12.3713 12.1838 13.0087 12.48 13.92 12.48C14.9775 12.48 15.6356 12.1294 15.975 11.715C16.1006 11.8069 16.2469 11.8744 16.41 11.925C16.7494 12.0281 17.1469 12.0206 17.625 11.91C18.5681 11.6925 19.1213 11.2181 19.395 10.77C19.4606 10.665 19.5056 10.5544 19.545 10.455C19.6069 10.4719 19.665 10.4925 19.725 10.5C20.2388 10.5675 20.6962 10.3912 21.075 10.2C22.3519 9.55312 22.56 8.36812 22.56 7.845V6.075C23.7844 4.74 24 3.24375 24 2.295C24 2.09812 23.9869 1.92187 23.925 1.74C23.8631 1.55813 23.7056 1.35563 23.505 1.275C23.1038 1.11187 22.8169 1.24125 22.425 1.335C21.6413 1.5225 20.3981 1.86 18.21 1.86C17.3888 1.86 16.7981 1.46813 15.9 0.99C15.0019 0.511875 13.83 0 12 0ZM12 0.96C13.6594 0.96 14.6025 1.37813 15.45 1.83C16.2975 2.28187 17.0831 2.82 18.21 2.82C20.4994 2.82 21.8944 2.445 22.65 2.265C22.9462 2.19375 23.0194 2.205 23.04 2.19C23.0437 2.22937 23.04 2.23125 23.04 2.295C23.04 3.13125 22.8862 4.365 21.795 5.505C21.7762 5.52563 21.7556 5.54437 21.735 5.565C21.6394 5.6625 21.5456 5.75437 21.435 5.85C20.4 6.7425 18.6562 7.55625 15.78 7.935C14.7019 8.0775 13.4662 8.15812 12.045 8.16C12.03 8.16 12.015 8.16 12 8.16C11.985 8.16 11.97 8.16 11.955 8.16C10.5525 8.15812 9.33375 8.07375 8.265 7.935C8.25 7.93313 8.235 7.93687 8.22 7.935C5.34375 7.55625 3.6 6.7425 2.565 5.85C2.46563 5.76375 2.38313 5.68125 2.295 5.595C2.27625 5.5725 2.2575 5.55375 2.235 5.535C1.1175 4.3875 0.96 3.13875 0.96 2.295C0.96 2.23125 0.95625 2.22937 0.96 2.19C0.980625 2.205 1.05375 2.19375 1.35 2.265C2.10563 2.445 3.50063 2.82 5.79 2.82C6.91687 2.82 7.69125 2.28187 8.535 1.83C9.37875 1.37813 10.3406 0.96 12 0.96ZM2.4 6.93C2.92313 7.30875 3.5625 7.64625 4.32 7.95V9.195C4.32 9.40312 4.27875 9.48563 4.26 9.51C4.24125 9.53437 4.23187 9.54562 4.155 9.555C4.00125 9.57562 3.6225 9.48563 3.345 9.345C2.42813 8.88188 2.4 8.19563 2.4 7.845V6.93ZM21.6 6.93V7.845C21.6 8.19563 21.5719 8.88188 20.655 9.345C20.3775 9.48563 19.9988 9.57562 19.845 9.555C19.7681 9.54562 19.7587 9.53437 19.74 9.51C19.7213 9.48563 19.68 9.40312 19.68 9.195V7.95C20.4375 7.64625 21.0769 7.30875 21.6 6.93ZM5.28 8.295C5.98687 8.51062 6.77625 8.69812 7.68 8.835V10.23C7.68 10.38 7.65 10.6725 7.545 10.83C7.4925 10.9087 7.43813 10.9688 7.305 11.01C7.17187 11.0513 6.94687 11.0644 6.585 10.98C5.84812 10.8094 5.56125 10.5131 5.415 10.275C5.26875 10.0369 5.28 9.885 5.28 9.885V8.295ZM18.72 8.295V9.885C18.72 9.885 18.7313 10.0369 18.585 10.275C18.4387 10.5131 18.1519 10.8094 17.415 10.98C17.0531 11.0644 16.8281 11.0513 16.695 11.01C16.5619 10.9688 16.5075 10.9087 16.455 10.83C16.35 10.6725 16.32 10.38 16.32 10.23V8.835C17.2237 8.69812 18.0131 8.51062 18.72 8.295ZM8.64 8.955C9.51 9.05062 10.4681 9.10687 11.52 9.12V10.41C11.52 10.5581 11.505 10.83 11.355 11.055C11.205 11.28 10.9331 11.52 10.08 11.52C9.2175 11.52 8.91562 11.2856 8.775 11.115C8.63437 10.9444 8.64 10.83 8.64 10.83V10.41C8.64187 10.3331 8.64 10.2675 8.64 10.23V8.955ZM15.36 8.955V10.83C15.36 10.83 15.3656 10.9444 15.225 11.115C15.0844 11.2856 14.7825 11.52 13.92 11.52C13.0669 11.52 12.795 11.28 12.645 11.055C12.495 10.83 12.48 10.5581 12.48 10.41V9.12C13.5319 9.10687 14.49 9.05062 15.36 8.955ZM2.445 15.48C2.20125 15.495 1.91063 15.5887 1.71 15.825C1.51875 16.05 1.44563 16.35 1.44 16.68C1.395 16.6537 1.33125 16.6144 1.29 16.59C1.08937 16.4719 0.954375 16.3706 0.765 16.305C0.669375 16.2731 0.530625 16.2206 0.3 16.335C0.185625 16.3913 0.0862502 16.5075 0.045 16.605C0.00375 16.7025 0 16.7681 0 16.83C0 18.075 0.924375 19.7887 2.865 21.285C4.80562 22.7812 7.79812 24 12 24C16.2019 24 19.1944 22.7812 21.135 21.285C23.0756 19.7887 24 18.075 24 16.83C24 16.7681 23.9963 16.7025 23.955 16.605C23.9137 16.5075 23.8144 16.3913 23.7 16.335C23.4694 16.2206 23.3306 16.2731 23.235 16.305C23.0456 16.3706 22.9106 16.4719 22.71 16.59C22.6687 16.6144 22.605 16.6537 22.56 16.68C22.5544 16.35 22.4812 16.05 22.29 15.825C22.0894 15.5887 21.7987 15.495 21.555 15.48C21.0694 15.4481 20.64 15.6112 20.325 15.675C19.7981 15.78 19.41 16.0669 19.155 16.395C18.7838 16.0912 18.2044 15.9262 17.37 16.005C16.575 16.08 16.0462 16.4569 15.75 16.86C15.375 16.5506 14.7787 16.32 13.92 16.32C13.0087 16.32 12.3713 16.6162 12 17.01C11.6287 16.6162 10.9913 16.32 10.08 16.32C9.22125 16.32 8.625 16.5506 8.25 16.86C7.95375 16.4569 7.425 16.08 6.63 16.005C5.79563 15.9262 5.21625 16.0912 4.845 16.395C4.59 16.0669 4.20187 15.78 3.675 15.675C3.36 15.6112 2.93062 15.4481 2.445 15.48ZM2.52 16.44C2.68687 16.4287 3.09 16.5394 3.495 16.62C3.97125 16.7156 4.10813 16.92 4.215 17.205C4.31437 17.4694 4.32 17.7844 4.32 18.015C3.89437 17.8631 3.48937 17.7169 3.15 17.565C2.87063 17.4412 2.625 17.3194 2.4 17.205V16.725C2.4 16.5112 2.445 16.455 2.445 16.455C2.445 16.455 2.4375 16.4456 2.52 16.44ZM21.48 16.44C21.5625 16.4456 21.555 16.455 21.555 16.455C21.555 16.455 21.6 16.5112 21.6 16.725V17.205C21.375 17.3194 21.1294 17.4412 20.85 17.565C20.5106 17.7169 20.1056 17.8631 19.68 18.015C19.68 17.7844 19.6856 17.4694 19.785 17.205C19.8919 16.92 20.0287 16.7156 20.505 16.62C20.91 16.5394 21.3131 16.4287 21.48 16.44ZM6.045 16.95C6.18187 16.9425 6.33937 16.9462 6.54 16.965C7.17937 17.025 7.40812 17.28 7.545 17.52C7.67812 17.7525 7.68 17.9419 7.68 17.955V17.97V18.87C6.77437 18.7219 5.98313 18.5344 5.28 18.33V17.61C5.28 17.4675 5.29875 17.2931 5.4 17.175C5.47687 17.0869 5.63625 16.9706 6.045 16.95ZM17.955 16.95C18.3638 16.9706 18.5231 17.0869 18.6 17.175C18.7013 17.2931 18.72 17.4675 18.72 17.61V18.33C18.0169 18.5344 17.2256 18.7219 16.32 18.87V17.97C16.32 17.97 16.3256 17.9456 16.32 17.895C16.3256 17.8294 16.3519 17.7019 16.455 17.52C16.5919 17.28 16.8206 17.025 17.46 16.965C17.6606 16.9462 17.8181 16.9425 17.955 16.95ZM10.08 17.28C10.9331 17.28 11.205 17.52 11.355 17.745C11.505 17.97 11.52 18.2419 11.52 18.39V19.185C10.4681 19.1681 9.51187 19.11 8.64 19.005V17.955C8.64 17.9363 8.6475 17.8406 8.775 17.685C8.91562 17.5144 9.2175 17.28 10.08 17.28ZM13.92 17.28C14.7825 17.28 15.0844 17.5144 15.225 17.685C15.3525 17.8406 15.36 17.9363 15.36 17.955C15.36 17.9569 15.36 17.97 15.36 17.97V19.005C14.4862 19.11 13.5319 19.1681 12.48 19.185V18.39C12.48 18.2419 12.495 17.97 12.645 17.745C12.795 17.52 13.0669 17.28 13.92 17.28ZM1.26 17.655C1.65375 17.8856 2.05125 18.135 2.76 18.45C4.60125 19.2694 7.56375 20.16 12 20.16C13.4156 20.16 14.6681 20.055 15.795 19.905C15.8287 19.9012 15.8663 19.9088 15.9 19.905C15.93 19.9031 15.96 19.8975 15.99 19.89C16.005 19.8881 16.02 19.8769 16.035 19.875C18.3206 19.5487 20.0269 18.99 21.24 18.45C21.9487 18.135 22.3463 17.8856 22.74 17.655C22.4475 18.4725 21.8606 19.5244 20.55 20.535C18.7856 21.8944 16.0181 23.04 12 23.04C7.98187 23.04 5.21437 21.8944 3.45 20.535C2.13937 19.5244 1.5525 18.4725 1.26 17.655Z" fill="#414141"/>
</svg>
