<svg width="24" height="24" viewBox="0 0 24 24" fill="none" xmlns="http://www.w3.org/2000/svg">
<path d="M9.34024 0.959063C9.3101 0.95842 9.27996 0.960617 9.25024 0.965626C7.05299 0.996224 5.22157 1.696 3.94211 2.925C2.63367 4.18184 1.91992 5.97307 1.91992 8.04C1.91992 9.56486 2.48419 10.7529 3.1068 11.8659C3.7294 12.9789 4.40822 14.0353 4.7793 15.3834V15.3806C5.20804 16.9761 5.51196 18.8022 5.98305 20.2753C6.21859 21.0119 6.4925 21.6649 6.88773 22.1719C7.28297 22.6789 7.85134 23.04 8.52274 23.04C9.17888 23.04 9.78248 22.793 10.1774 22.3163C10.5724 21.8395 10.7521 21.1825 10.7521 20.4038C10.7521 18.4905 11.1389 15.9558 11.5302 13.7672C11.5964 13.4528 11.7963 13.3594 12.0159 13.3594C12.236 13.3594 12.4151 13.4386 12.4668 13.7503L12.4677 13.7541V13.7578C12.8593 15.9026 13.2477 18.4874 13.2477 20.4038C13.2477 21.1822 13.4275 21.8395 13.8224 22.3163C14.2173 22.793 14.8209 23.04 15.4771 23.04C16.1502 23.04 16.7184 22.6747 17.113 22.1644C17.5077 21.6541 17.7814 20.9975 18.0168 20.2584C18.4875 18.7809 18.7926 16.9549 19.2205 15.3834C19.5916 14.0353 20.2704 12.979 20.893 11.8659C21.5154 10.7534 22.0794 9.56554 22.0799 8.04188C22.1018 5.97539 21.3989 4.18296 20.0962 2.92594C18.7926 1.66813 16.9095 0.960001 14.6455 0.960001C13.662 0.960001 12.7936 1.09248 12.0215 1.34438C11.2494 1.09248 10.381 0.960001 9.39742 0.960001C9.39167 0.960001 9.3863 0.960929 9.38055 0.960938C9.36714 0.959748 9.35369 0.959123 9.34024 0.959063ZM14.6455 1.92C16.7112 1.92 18.3277 2.55364 19.4296 3.61688C20.5315 4.68011 21.1403 6.18665 21.1199 8.03438V8.03719V8.04C21.1199 8.42386 21.0752 8.77918 21.0018 9.12H15.8399V7.68C15.8399 7.5527 15.7893 7.43062 15.6993 7.3406C15.6093 7.25059 15.4872 7.20001 15.3599 7.2H8.63992C8.51262 7.20001 8.39054 7.25059 8.30053 7.3406C8.21051 7.43062 8.15994 7.5527 8.15992 7.68V9.12H2.99805C2.92469 8.77917 2.87992 8.42393 2.87992 8.04C2.87992 6.19109 3.49985 4.68201 4.60773 3.61781C5.7058 2.56305 7.30458 1.93299 9.34399 1.92188C11.0462 2.05058 12.5319 2.82212 13.5824 4.04156C13.6231 4.09072 13.6732 4.13126 13.7298 4.16083C13.7863 4.1904 13.8482 4.20839 13.9118 4.21376C13.9754 4.21913 14.0394 4.21177 14.1001 4.1921C14.1608 4.17244 14.217 4.14087 14.2654 4.09923C14.3137 4.0576 14.3533 4.00674 14.3818 3.94963C14.4103 3.89252 14.4271 3.83031 14.4312 3.76663C14.4354 3.70295 14.4268 3.63908 14.4059 3.57876C14.3851 3.51843 14.3525 3.46287 14.3099 3.41531C13.8743 2.90961 13.3692 2.47312 12.8137 2.11031C13.3539 1.98699 13.9616 1.92 14.6455 1.92ZM9.11992 8.16H14.8799V9.6C14.8799 9.7273 14.9305 9.84938 15.0205 9.9394C15.1105 10.0294 15.2326 10.08 15.3599 10.08H20.7046C20.5262 10.5225 20.3036 10.9527 20.0549 11.3972C19.453 12.4732 18.7104 13.6167 18.2943 15.1284V15.1294C17.8475 16.7697 17.5395 18.5959 17.1027 19.9669C16.8844 20.6524 16.63 21.2192 16.3537 21.5766C16.0773 21.9338 15.8317 22.08 15.4771 22.08C15.0399 22.08 14.7686 21.9534 14.5621 21.7041C14.3556 21.4547 14.2077 21.0331 14.2077 20.4038C14.2077 18.3623 13.8089 15.7589 13.4137 13.5928C13.2902 12.8486 12.6375 12.3994 12.0159 12.3994C11.3942 12.3994 10.7432 12.8346 10.5899 13.5741L10.588 13.5806L10.5871 13.5872C10.1919 15.7958 9.79211 18.3601 9.79211 20.4038C9.79211 21.0334 9.64424 21.4548 9.43774 21.7041C9.23126 21.9533 8.96003 22.08 8.52274 22.08C8.16645 22.08 7.92009 21.935 7.6443 21.5813C7.3685 21.2275 7.11535 20.6653 6.89711 19.9828C6.46064 18.6179 6.15278 16.7921 5.70648 15.1313L5.70555 15.1303V15.1284C5.28945 13.6167 4.5468 12.4731 3.94492 11.3972C3.69629 10.9527 3.47364 10.5224 3.29523 10.08H8.63992C8.76722 10.08 8.8893 10.0294 8.97932 9.9394C9.06933 9.84938 9.11991 9.7273 9.11992 9.6V8.16Z" fill="#414141"/>
</svg>
