<svg width="24" height="24" viewBox="0 0 24 24" fill="none" xmlns="http://www.w3.org/2000/svg">
<path d="M6.25 0C5.29252 0 4.5 0.792523 4.5 1.75V8.39648C2.42334 10.1674 1.5 13.2899 1.5 16.75V19.25C1.5 20.7599 2.74011 22 4.25 22H8.75C8.80079 22.0006 8.8515 21.996 8.90137 21.9863C9.82749 22.6235 10.8779 23 12 23C13.1597 23 14.2573 22.6359 15.2266 22C15.2344 22.0001 15.2422 22.0001 15.25 22H19.75C21.2599 22 22.5 20.7599 22.5 19.25V16.75C22.5 13.1015 21.4742 10.5291 19.5 8.44922V1.75C19.5 0.792523 18.7075 0 17.75 0H6.25ZM6.25 1.5H17.75C17.8975 1.5 18 1.60248 18 1.75V8.5H12.8613C12.82 8.49392 12.7781 8.4913 12.7363 8.49219C12.7072 8.4931 12.6782 8.49571 12.6494 8.5H11.3428C11.3088 8.49505 11.2746 8.49244 11.2402 8.49219C11.2069 8.49257 11.1736 8.49518 11.1406 8.5H6V1.75C6 1.60248 6.10248 1.5 6.25 1.5ZM11.75 3C11.336 3 11 3.336 11 3.75V4.5H10.25C9.836 4.5 9.5 4.836 9.5 5.25C9.5 5.664 9.836 6 10.25 6H11V6.75C11 7.164 11.336 7.5 11.75 7.5C12.164 7.5 12.5 7.164 12.5 6.75V6H13.25C13.664 6 14 5.664 14 5.25C14 4.836 13.664 4.5 13.25 4.5H12.5V3.75C12.5 3.336 12.164 3 11.75 3ZM5.03418 9.96777C5.10416 9.98898 5.17687 9.99984 5.25 10H10.8672C9.93738 10.7546 8.58861 11.6236 7.02344 11.8906C5.93534 12.076 5.09208 12.9814 5.01465 14.0879C4.99888 14.1636 4.99492 14.2414 5.00293 14.3184C5.00464 14.3462 5.0079 14.3739 5.0127 14.4014C5.24111 16.7554 6.03882 18.8539 7.24219 20.4053C7.26777 20.4383 7.29628 20.4675 7.32227 20.5H4.25C3.55089 20.5 3 19.9491 3 19.25V16.75C3 13.8749 3.73716 11.4144 5.03418 9.96777ZM18.8721 9.98926C20.3084 11.6969 21 13.6751 21 16.75V19.25C21 19.9491 20.4491 20.5 19.75 20.5H16.8789C18.1696 18.9264 18.9814 16.7404 18.9971 14.3203C18.9991 14.2969 19.0001 14.2735 19 14.25C19.0007 14.1972 18.9958 14.1445 18.9854 14.0928C18.9101 12.9841 18.0663 12.0763 16.9766 11.8906C15.4114 11.6236 14.0626 10.7546 13.1328 10H18.75C18.7909 9.99975 18.8317 9.99616 18.8721 9.98926ZM12 11.0312C13.0619 11.9319 14.6923 13.0225 16.7246 13.3691C17.1851 13.4476 17.5 13.8065 17.5 14.25C17.5 18.422 14.7674 21.5 12 21.5C10.6809 21.5 9.43606 20.7853 8.42773 19.4854C7.42612 18.1941 6.70185 16.3388 6.50195 14.2236C6.51441 13.7926 6.8243 13.446 7.27539 13.3691C9.30766 13.0225 10.9381 11.9319 12 11.0312ZM9.5 14C9.23478 14 8.98043 14.1054 8.79289 14.2929C8.60536 14.4804 8.5 14.7348 8.5 15C8.5 15.2652 8.60536 15.5196 8.79289 15.7071C8.98043 15.8946 9.23478 16 9.5 16C9.76522 16 10.0196 15.8946 10.2071 15.7071C10.3946 15.5196 10.5 15.2652 10.5 15C10.5 14.7348 10.3946 14.4804 10.2071 14.2929C10.0196 14.1054 9.76522 14 9.5 14ZM14.5 14C14.2348 14 13.9804 14.1054 13.7929 14.2929C13.6054 14.4804 13.5 14.7348 13.5 15C13.5 15.2652 13.6054 15.5196 13.7929 15.7071C13.9804 15.8946 14.2348 16 14.5 16C14.7652 16 15.0196 15.8946 15.2071 15.7071C15.3946 15.5196 15.5 15.2652 15.5 15C15.5 14.7348 15.3946 14.4804 15.2071 14.2929C15.0196 14.1054 14.7652 14 14.5 14Z" fill="#414141"/>
</svg>
