<svg width="24" height="24" viewBox="0 0 24 24" fill="none" xmlns="http://www.w3.org/2000/svg">
<path d="M9.25 2.5C8.29252 2.5 7.5 3.29252 7.5 4.25V6.5H4.75C3.24011 6.5 2 7.74011 2 9.25V18.75C2 20.2599 3.24011 21.5 4.75 21.5H19.25C20.7599 21.5 22 20.2599 22 18.75V9.25C22 7.74011 20.7599 6.5 19.25 6.5H16.5V4.25C16.5 3.29252 15.7075 2.5 14.75 2.5H9.25ZM9.25 4H14.75C14.8975 4 15 4.10248 15 4.25V6.5H9V4.25C9 4.10248 9.10248 4 9.25 4ZM4.75 8H19.25C19.9491 8 20.5 8.55089 20.5 9.25V9.5H3.5V9.25C3.5 8.55089 4.05089 8 4.75 8ZM3.5 11H20.5V18.75C20.5 19.4491 19.9491 20 19.25 20H4.75C4.05089 20 3.5 19.4491 3.5 18.75V11ZM11.9883 12.9893C11.7895 12.9924 11.6002 13.0742 11.4617 13.2169C11.3233 13.3595 11.2471 13.5513 11.25 13.75V14.75H10.25C10.1506 14.7486 10.0519 14.767 9.95972 14.804C9.86749 14.8411 9.78355 14.8961 9.71277 14.9659C9.642 15.0357 9.58579 15.1188 9.54743 15.2105C9.50907 15.3022 9.48932 15.4006 9.48932 15.5C9.48932 15.5994 9.50907 15.6978 9.54743 15.7895C9.58579 15.8812 9.642 15.9643 9.71277 16.0341C9.78355 16.1039 9.86749 16.1589 9.95972 16.196C10.0519 16.233 10.1506 16.2514 10.25 16.25H11.25V17.25C11.2486 17.3494 11.267 17.4481 11.304 17.5403C11.3411 17.6325 11.3961 17.7164 11.4659 17.7872C11.5357 17.858 11.6188 17.9142 11.7105 17.9526C11.8022 17.9909 11.9006 18.0107 12 18.0107C12.0994 18.0107 12.1978 17.9909 12.2895 17.9526C12.3812 17.9142 12.4643 17.858 12.5341 17.7872C12.6039 17.7164 12.6589 17.6325 12.696 17.5403C12.733 17.4481 12.7514 17.3494 12.75 17.25V16.25H13.75C13.8494 16.2514 13.9481 16.233 14.0403 16.196C14.1325 16.1589 14.2164 16.1039 14.2872 16.0341C14.358 15.9643 14.4142 15.8812 14.4526 15.7895C14.4909 15.6978 14.5107 15.5994 14.5107 15.5C14.5107 15.4006 14.4909 15.3022 14.4526 15.2105C14.4142 15.1188 14.358 15.0357 14.2872 14.9659C14.2164 14.8961 14.1325 14.8411 14.0403 14.804C13.9481 14.767 13.8494 14.7486 13.75 14.75H12.75V13.75C12.7514 13.6496 12.7327 13.55 12.6949 13.457C12.6571 13.3639 12.6011 13.2795 12.53 13.2085C12.459 13.1376 12.3745 13.0816 12.2814 13.044C12.1883 13.0063 12.0887 12.9877 11.9883 12.9893Z" fill="#414141"/>
</svg>
