<svg width="24" height="24" viewBox="0 0 24 24" fill="none" xmlns="http://www.w3.org/2000/svg">
<path d="M8.11111 1C8.11111 1 7.55556 5.4 7.55556 7.6C7.55556 10.0266 9.54889 12 12 12C14.4511 12 16.4444 10.0266 16.4444 7.6C16.4444 5.4 15.8889 1 15.8889 1H8.11111ZM10.0946 3.2H13.9054C13.9765 3.8732 14.0527 4.6487 14.1115 5.4H9.88846C9.94846 4.6487 10.0235 3.8732 10.0946 3.2ZM9.77778 7.6H14.2222C14.2222 8.8133 13.2256 9.8 12 9.8C10.7744 9.8 9.77778 8.8133 9.77778 7.6ZM12 15.3C8.51 15.3 2 17.0006 2 20.25V23H22V20.25C22 17.0006 15.49 15.3 12 15.3ZM10.0968 17.6611L12 20.8L13.9032 17.6611C16.9504 18.108 19.7778 19.4587 19.7778 20.25V20.8H12H4.22222V20.25C4.22222 19.4587 7.0496 18.108 10.0968 17.6611Z" fill="#414141"/>
</svg>
