<svg width="16" height="16" viewBox="0 0 16 16" fill="none" xmlns="http://www.w3.org/2000/svg">
<path d="M2.83325 2.66669C2.01075 2.66669 1.33325 3.34419 1.33325 4.16669V11.8334C1.33325 12.6559 2.01075 13.3334 2.83325 13.3334H13.1666C13.9891 13.3334 14.6666 12.6559 14.6666 11.8334V5.83335C14.6666 5.01085 13.9891 4.33335 13.1666 4.33335H8.01424L6.52466 3.09182C6.52444 3.09182 6.52422 3.09182 6.52401 3.09182C6.19462 2.81739 5.77964 2.66669 5.35083 2.66669H2.83325ZM2.83325 3.66669H5.35083C5.54602 3.66669 5.7341 3.73514 5.88403 3.86005L7.51294 5.21747C7.60286 5.29239 7.71621 5.3334 7.83325 5.33335H13.1666C13.4488 5.33335 13.6666 5.55119 13.6666 5.83335V11.8334C13.6666 12.1155 13.4488 12.3334 13.1666 12.3334H2.83325C2.55109 12.3334 2.33325 12.1155 2.33325 11.8334V4.16669C2.33325 3.88452 2.55109 3.66669 2.83325 3.66669ZM7.99211 6.3301C7.85961 6.33217 7.73336 6.38674 7.64107 6.48184C7.54879 6.57693 7.49802 6.70476 7.49992 6.83726V9.72007L6.83195 9.12632C6.745 9.04669 6.6327 9.00034 6.51489 8.99546C6.41121 8.99124 6.30877 9.01938 6.22179 9.07598C6.13482 9.13258 6.0676 9.21483 6.02947 9.31135C5.99133 9.40786 5.98417 9.51385 6.00897 9.61461C6.03378 9.71538 6.08931 9.80593 6.16789 9.87372L7.66789 11.2071C7.7594 11.2883 7.87753 11.3332 7.99992 11.3332C8.1223 11.3332 8.24044 11.2883 8.33195 11.2071L9.83195 9.87372C9.88291 9.83066 9.92474 9.77784 9.95498 9.71837C9.98521 9.6589 10.0032 9.59398 10.008 9.52743C10.0128 9.46089 10.0042 9.39406 9.9827 9.3309C9.96124 9.26773 9.92735 9.20949 9.88304 9.15962C9.83873 9.10974 9.78488 9.06924 9.72468 9.0405C9.66447 9.01175 9.59912 8.99534 9.53248 8.99224C9.46584 8.98914 9.39925 8.9994 9.33663 9.02243C9.27402 9.04546 9.21664 9.08078 9.16789 9.12632L8.49992 9.72007V6.83726C8.50088 6.77034 8.48839 6.7039 8.46321 6.6419C8.43802 6.57989 8.40064 6.52357 8.35328 6.47627C8.30593 6.42898 8.24956 6.39167 8.18752 6.36656C8.12548 6.34145 8.05903 6.32905 7.99211 6.3301Z" fill="#414141"/>
<rect x="4" y="6" width="8" height="6" fill="white"/>
<g clip-path="url(#clip0)">
<path d="M2.6875 16C1.76219 16 1 15.2378 1 14.3125V5.6875C1 4.76219 1.76219 4 2.6875 4H14.3125C15.2378 4 16 4.76219 16 5.6875V12.4375C16 13.3628 15.2378 14.125 14.3125 14.125H8.51611L6.84033 15.5217C6.84009 15.5217 6.83984 15.5217 6.8396 15.5217C6.46904 15.8305 6.00219 16 5.51978 16H2.6875ZM2.6875 14.875H5.51978C5.73937 14.875 5.95096 14.798 6.11963 14.6575L7.95215 13.1304C8.05331 13.0461 8.18083 12.9999 8.3125 13H14.3125C14.6299 13 14.875 12.7549 14.875 12.4375V5.6875C14.875 5.37006 14.6299 5.125 14.3125 5.125H2.6875C2.37006 5.125 2.125 5.37006 2.125 5.6875V14.3125C2.125 14.6299 2.37006 14.875 2.6875 14.875ZM8.49121 11.8787C8.34215 11.8763 8.20012 11.8149 8.0963 11.708C7.99248 11.601 7.93536 11.4572 7.9375 11.3081V8.06494L7.18604 8.73291C7.08821 8.8225 6.96188 8.87464 6.82935 8.88013C6.7127 8.88488 6.59746 8.85323 6.49961 8.78955C6.40176 8.72587 6.32614 8.63333 6.28324 8.52476C6.24034 8.41618 6.23229 8.29695 6.26019 8.18358C6.28809 8.07022 6.35057 7.96835 6.43896 7.89209L8.12646 6.39209C8.22941 6.30067 8.36232 6.25018 8.5 6.25018C8.63768 6.25018 8.77059 6.30067 8.87354 6.39209L10.561 7.89209C10.6184 7.94053 10.6654 7.99995 10.6994 8.06686C10.7335 8.13376 10.7537 8.20679 10.7591 8.28166C10.7644 8.35652 10.7548 8.4317 10.7306 8.50277C10.7065 8.57383 10.6684 8.63935 10.6185 8.69545C10.5687 8.75156 10.5081 8.79713 10.4404 8.82946C10.3726 8.8618 10.2991 8.88026 10.2241 8.88375C10.1492 8.88724 10.0742 8.87569 10.0038 8.84979C9.93336 8.82388 9.86881 8.78414 9.81396 8.73291L9.0625 8.06494V11.3081C9.06358 11.3834 9.04953 11.4581 9.0212 11.5279C8.99286 11.5976 8.95081 11.661 8.89753 11.7142C8.84426 11.7674 8.78084 11.8094 8.71105 11.8376C8.64125 11.8659 8.5665 11.8798 8.49121 11.8787Z" fill="#414141"/>
</g>
<defs>
<clipPath id="clip0">
<rect width="9.33333" height="6.66667" fill="white" transform="matrix(1 0 0 -1 3.33325 12)"/>
</clipPath>
</defs>
</svg>
