<svg width="24" height="24" viewBox="0 0 24 24" fill="none" xmlns="http://www.w3.org/2000/svg">
<path d="M11.9884 2.98929C11.7896 2.99239 11.6002 3.07426 11.4618 3.21689C11.3234 3.35953 11.2472 3.55128 11.2501 3.75003V14.4395L9.53035 12.7198C9.46044 12.6478 9.3768 12.5905 9.28437 12.5514C9.19195 12.5124 9.09262 12.4922 8.99226 12.4922C8.843 12.4923 8.69715 12.5368 8.57336 12.6202C8.44957 12.7036 8.35348 12.822 8.29737 12.9604C8.24127 13.0987 8.22771 13.2506 8.25843 13.3967C8.28914 13.5427 8.36274 13.6763 8.4698 13.7803L11.4698 16.7803C11.6105 16.9209 11.8012 16.9999 12.0001 16.9999C12.199 16.9999 12.3897 16.9209 12.5304 16.7803L15.5304 13.7803C15.6023 13.7112 15.6598 13.6284 15.6994 13.5368C15.739 13.4452 15.7599 13.3467 15.7609 13.2469C15.7619 13.1471 15.743 13.0481 15.7053 12.9557C15.6676 12.8634 15.6118 12.7794 15.5412 12.7089C15.4707 12.6383 15.3868 12.5825 15.2944 12.5448C15.202 12.5071 15.103 12.4882 15.0032 12.4892C14.9035 12.4902 14.8049 12.5111 14.7133 12.5507C14.6217 12.5903 14.5389 12.6478 14.4698 12.7198L12.7501 14.4395V3.75003C12.7515 3.64965 12.7328 3.55 12.695 3.45699C12.6572 3.36397 12.6012 3.27949 12.5301 3.20855C12.4591 3.13761 12.3745 3.08164 12.2815 3.04398C12.1884 3.00632 12.0887 2.98772 11.9884 2.98929ZM3.73836 15.4893C3.53962 15.4924 3.35023 15.5743 3.21181 15.7169C3.07338 15.8595 2.99723 16.0513 3.00008 16.25V18.25C3.00008 19.7599 4.24019 21 5.75008 21H18.2501C19.76 21 21.0001 19.7599 21.0001 18.25V16.25C21.0015 16.1506 20.9831 16.052 20.9461 15.9597C20.909 15.8675 20.854 15.7836 20.7842 15.7128C20.7144 15.642 20.6313 15.5858 20.5396 15.5475C20.4479 15.5091 20.3495 15.4893 20.2501 15.4893C20.1507 15.4893 20.0523 15.5091 19.9606 15.5475C19.8689 15.5858 19.7857 15.642 19.716 15.7128C19.6462 15.7836 19.5912 15.8675 19.5541 15.9597C19.517 16.052 19.4987 16.1506 19.5001 16.25V18.25C19.5001 18.9491 18.9492 19.5 18.2501 19.5H5.75008C5.05096 19.5 4.50008 18.9491 4.50008 18.25V16.25C4.50152 16.1496 4.48279 16.05 4.44501 15.957C4.40723 15.864 4.35116 15.7795 4.28012 15.7085C4.20909 15.6376 4.12454 15.5816 4.03147 15.544C3.93841 15.5063 3.83874 15.4877 3.73836 15.4893Z" fill="#414141"/>
</svg>
