<svg width="24" height="24" viewBox="0 0 24 24" fill="none" xmlns="http://www.w3.org/2000/svg">
<path d="M4.00032 13.2693C4.00617 13.464 4.08995 13.6488 4.23392 13.7846L11.4513 20.7805C11.5964 20.9211 11.793 21 11.9981 21C12.2031 21 12.3998 20.9211 12.5448 20.7805L19.7623 13.7846C19.8365 13.7156 19.8957 13.6328 19.9365 13.5413C19.9774 13.4498 19.9989 13.3512 20 13.2515C20.001 13.1518 19.9815 13.0529 19.9426 12.9606C19.9037 12.8682 19.8462 12.7843 19.7735 12.7138C19.7007 12.6433 19.6142 12.5876 19.5189 12.5499C19.4237 12.5122 19.3216 12.4933 19.2188 12.4943C19.1159 12.4953 19.0143 12.5162 18.9198 12.5558C18.8254 12.5953 18.74 12.6528 18.6688 12.7247L12.7714 18.4411L12.7714 3.76024C12.7728 3.66091 12.7539 3.5623 12.7157 3.47012C12.6775 3.37795 12.6207 3.29406 12.5488 3.22333C12.4768 3.15259 12.3911 3.09642 12.2966 3.05808C12.202 3.01974 12.1006 3 11.9981 3C11.8956 3 11.7941 3.01974 11.6996 3.05808C11.6051 3.09642 11.5193 3.15259 11.4474 3.22333C11.3754 3.29406 11.3187 3.37795 11.2805 3.47012C11.2423 3.5623 11.2233 3.66091 11.2248 3.76024V18.4411L5.32741 12.7247C5.21876 12.6166 5.07896 12.5428 4.92631 12.5129C4.77366 12.4831 4.61526 12.4986 4.47186 12.5574C4.32846 12.6163 4.20672 12.7157 4.12259 12.8427C4.03845 12.9698 3.99584 13.1184 4.00032 13.2693Z" fill="#414141"/>
</svg>
