<svg width="24" height="24" viewBox="0 0 24 24" fill="none" xmlns="http://www.w3.org/2000/svg">
<path d="M6.73134 5C5.71667 5 4.75941 5.47524 4.14541 6.28223L1.06142 10.335C0.314813 11.316 0.314813 12.684 1.06142 13.665L4.14541 17.7178C4.75989 18.5252 5.71734 19 6.73134 19H20.2421C21.7517 19 22.9921 17.7599 22.9921 16.25V7.75C22.9921 6.24011 21.752 5 20.2421 5H6.73134ZM6.73134 6.5H20.2421C20.9412 6.5 21.4921 7.05089 21.4921 7.75V16.25C21.4921 16.9491 20.9405 17.5 20.2421 17.5H6.73134C6.18435 17.5 5.67028 17.2452 5.33876 16.8096L2.25478 12.7568C1.91239 12.3069 1.91239 11.6931 2.25478 11.2432L5.33876 7.19043C5.66976 6.75541 6.18402 6.5 6.73134 6.5ZM4.4999 10C4.2239 10 3.9999 10.224 3.9999 10.5V13.5C3.9999 13.776 4.2239 14 4.4999 14H4.9999C6.1029 14 6.9999 13.103 6.9999 12C6.9999 10.897 6.1029 10 4.9999 10H4.4999ZM7.9999 10C7.7239 10 7.4999 10.224 7.4999 10.5V13.5C7.4999 13.776 7.7239 14 7.9999 14C8.2759 14 8.4999 13.776 8.4999 13.5V13H8.9999L9.59951 13.7998C9.69801 13.9308 9.84887 14 10.0009 14C10.1049 14 10.2097 13.9679 10.2997 13.9004C10.5207 13.7349 10.5663 13.4212 10.4003 13.2002L9.97353 12.6318C10.2931 12.3565 10.4999 11.9539 10.4999 11.5C10.4999 10.673 9.8269 10 8.9999 10H7.9999ZM12.7499 10C12.5479 10 12.3655 10.1216 12.288 10.3076L11.038 13.3076C10.932 13.5626 11.0525 13.8559 11.3075 13.9619C11.563 14.0679 11.8558 13.9469 11.9618 13.6924L12.0419 13.5H13.4579L13.538 13.6924C13.6175 13.8844 13.8039 14 13.9999 14C14.0639 14 14.1293 13.9884 14.1923 13.9619C14.4473 13.8554 14.5678 13.5626 14.4618 13.3076L13.2118 10.3076C13.1343 10.1216 12.9519 10 12.7499 10ZM15.4999 10C15.2239 10 14.9999 10.224 14.9999 10.5V13.5C14.9999 13.776 15.2239 14 15.4999 14C15.7759 14 15.9999 13.776 15.9999 13.5V12.5H16.7499C17.0259 12.5 17.2499 12.276 17.2499 12C17.2499 11.724 17.0259 11.5 16.7499 11.5H15.9999V11H16.9999C17.2759 11 17.4999 10.776 17.4999 10.5C17.4999 10.224 17.2759 10 16.9999 10H15.4999ZM18.4999 10C18.2239 10 17.9999 10.224 17.9999 10.5C17.9999 10.776 18.2239 11 18.4999 11H18.9999V13.5C18.9999 13.776 19.2239 14 19.4999 14C19.7759 14 19.9999 13.776 19.9999 13.5V11H20.4999C20.7759 11 20.9999 10.776 20.9999 10.5C20.9999 10.224 20.7759 10 20.4999 10H18.4999ZM4.9999 11C5.5514 11 5.9999 11.4485 5.9999 12C5.9999 12.5515 5.5514 13 4.9999 13V11ZM8.4999 11H8.9999C9.2754 11 9.4999 11.2245 9.4999 11.5C9.4999 11.7755 9.2754 12 8.9999 12H8.4999V11ZM12.7499 11.7998L13.0419 12.5H12.4579L12.7499 11.7998Z" fill="#414141"/>
</svg>
