<svg width="24" height="24" viewBox="0 0 24 24" fill="none" xmlns="http://www.w3.org/2000/svg">
<path d="M11.9892 2.00001C11.794 2.00287 11.6077 2.08169 11.4697 2.21974L8.96967 4.71974C8.89769 4.78885 8.84022 4.87163 8.80064 4.96322C8.76105 5.05482 8.74013 5.15339 8.73912 5.25317C8.73811 5.35295 8.75701 5.45193 8.79473 5.54431C8.83244 5.63669 8.88822 5.72062 8.95877 5.79118C9.02933 5.86174 9.11326 5.91751 9.20564 5.95523C9.29802 5.99294 9.397 6.01185 9.49678 6.01083C9.59656 6.00982 9.69514 5.9889 9.78673 5.94932C9.87833 5.90973 9.9611 5.85226 10.0302 5.78029L11.9999 3.81056L13.9697 5.78029C14.0388 5.85226 14.1216 5.90973 14.2131 5.94932C14.3047 5.9889 14.4033 6.00982 14.5031 6.01083C14.6029 6.01185 14.7019 5.99294 14.7942 5.95523C14.8866 5.91751 14.9705 5.86174 15.0411 5.79118C15.1117 5.72062 15.1674 5.63669 15.2052 5.54431C15.2429 5.45193 15.2618 5.35295 15.2608 5.25317C15.2597 5.15339 15.2388 5.05482 15.1992 4.96322C15.1597 4.87163 15.1022 4.78885 15.0302 4.71974L12.5302 2.21974C12.4593 2.1488 12.3749 2.09281 12.282 2.05507C12.189 2.01733 12.0895 1.99861 11.9892 2.00001ZM2.74994 8.00001C2.65056 7.99861 2.55188 8.01697 2.45966 8.05403C2.36743 8.09109 2.28349 8.14611 2.21271 8.21589C2.14194 8.28568 2.08573 8.36883 2.04737 8.46052C2.00901 8.55222 1.98926 8.65062 1.98926 8.75001C1.98926 8.84941 2.00901 8.94781 2.04737 9.0395C2.08573 9.1312 2.14194 9.21435 2.21271 9.28413C2.28349 9.35392 2.36743 9.40894 2.45966 9.446C2.55188 9.48306 2.65056 9.50142 2.74994 9.50001H21.2499C21.3493 9.50142 21.448 9.48306 21.5402 9.446C21.6324 9.40894 21.7164 9.35392 21.7872 9.28413C21.8579 9.21435 21.9141 9.1312 21.9525 9.0395C21.9909 8.94781 22.0106 8.84941 22.0106 8.75001C22.0106 8.65062 21.9909 8.55222 21.9525 8.46052C21.9141 8.36883 21.8579 8.28568 21.7872 8.21589C21.7164 8.14611 21.6324 8.09109 21.5402 8.05403C21.448 8.01697 21.3493 7.99861 21.2499 8.00001H2.74994ZM2.74994 11.5C2.65056 11.4986 2.55188 11.517 2.45966 11.554C2.36743 11.5911 2.28349 11.6461 2.21271 11.7159C2.14194 11.7857 2.08573 11.8688 2.04737 11.9605C2.00901 12.0522 1.98926 12.1506 1.98926 12.25C1.98926 12.3494 2.00901 12.4478 2.04737 12.5395C2.08573 12.6312 2.14194 12.7143 2.21271 12.7841C2.28349 12.8539 2.36743 12.9089 2.45966 12.946C2.55188 12.9831 2.65056 13.0014 2.74994 13H21.2499C21.3493 13.0014 21.448 12.9831 21.5402 12.946C21.6324 12.9089 21.7164 12.8539 21.7872 12.7841C21.8579 12.7143 21.9141 12.6312 21.9525 12.5395C21.9909 12.4478 22.0106 12.3494 22.0106 12.25C22.0106 12.1506 21.9909 12.0522 21.9525 11.9605C21.9141 11.8688 21.8579 11.7857 21.7872 11.7159C21.7164 11.6461 21.6324 11.5911 21.5402 11.554C21.448 11.517 21.3493 11.4986 21.2499 11.5H2.74994ZM2.74994 15C2.65056 14.9986 2.55188 15.017 2.45966 15.054C2.36743 15.0911 2.28349 15.1461 2.21271 15.2159C2.14194 15.2857 2.08573 15.3688 2.04737 15.4605C2.00901 15.5522 1.98926 15.6506 1.98926 15.75C1.98926 15.8494 2.00901 15.9478 2.04737 16.0395C2.08573 16.1312 2.14194 16.2143 2.21271 16.2841C2.28349 16.3539 2.36743 16.4089 2.45966 16.446C2.55188 16.4831 2.65056 16.5014 2.74994 16.5H21.2499C21.3493 16.5014 21.448 16.4831 21.5402 16.446C21.6324 16.4089 21.7164 16.3539 21.7872 16.2841C21.8579 16.2143 21.9141 16.1312 21.9525 16.0395C21.9909 15.9478 22.0106 15.8494 22.0106 15.75C22.0106 15.6506 21.9909 15.5522 21.9525 15.4605C21.9141 15.3688 21.8579 15.2857 21.7872 15.2159C21.7164 15.1461 21.6324 15.0911 21.5402 15.054C21.448 15.017 21.3493 14.9986 21.2499 15H2.74994ZM14.4931 18.4893C14.295 18.4939 14.1069 18.5768 13.9697 18.7197L11.9999 20.6895L10.0302 18.7197C9.9603 18.6477 9.87666 18.5905 9.78423 18.5514C9.69181 18.5123 9.59248 18.4922 9.49213 18.4922C9.34287 18.4922 9.19701 18.5368 9.07322 18.6202C8.94943 18.7036 8.85334 18.822 8.79724 18.9603C8.74113 19.0987 8.72757 19.2506 8.75829 19.3966C8.78901 19.5427 8.86261 19.6763 8.96967 19.7803L11.4697 22.2803C11.6103 22.4209 11.8011 22.4999 11.9999 22.4999C12.1988 22.4999 12.3896 22.4209 12.5302 22.2803L15.0302 19.7803C15.1393 19.6756 15.2142 19.5404 15.2451 19.3924C15.276 19.2445 15.2614 19.0906 15.2034 18.951C15.1453 18.8114 15.0464 18.6927 14.9197 18.6103C14.7929 18.5279 14.6442 18.4857 14.4931 18.4893Z" fill="#414141"/>
</svg>
