<svg width="24" height="24" viewBox="0 0 24 24" fill="none" xmlns="http://www.w3.org/2000/svg">
<path d="M5.25 3C3.46 3 2 4.46 2 6.25V15.75C2 17.54 3.46 19 5.25 19H11.8652L11.875 18.9697C11.99 18.5647 12.2099 18.1945 12.5049 17.8945L12.9004 17.5H5.25C4.285 17.5 3.5 16.715 3.5 15.75V8.50781L11.6436 12.9102C11.7531 12.9693 11.8755 13.0003 12 13.0003C12.1245 13.0003 12.2469 12.9693 12.3564 12.9102L20.5 8.50781V11.0098C20.585 11.0048 20.6651 11 20.7451 11H20.7549C21.1899 11 21.61 11.0851 22 11.2451V6.25C22 4.46 20.54 3 18.75 3H5.25ZM5.25 4.5H18.75C19.715 4.5 20.5 5.285 20.5 6.25V6.80273L12 11.3975L3.5 6.80273V6.25C3.5 5.285 4.285 4.5 5.25 4.5ZM20.749 12C20.612 12.0005 20.4735 12.0126 20.334 12.0381C19.892 12.1176 19.4698 12.3481 19.1133 12.7051L13.2139 18.6045C13.0354 18.783 12.904 19.0056 12.834 19.2471L12.0488 21.9873C12.0128 22.0823 11.9965 22.1827 12 22.2832C12.0065 22.4647 12.0778 22.6442 12.2168 22.7832C12.3553 22.9217 12.5338 22.993 12.7148 23C12.8153 23.0035 12.9172 22.9877 13.0127 22.9512L15.7529 22.166C15.9944 22.096 16.2155 21.9651 16.3945 21.7861L22.2949 15.8867C22.6519 15.5302 22.8824 15.108 22.9619 14.666C22.9869 14.5265 22.9985 14.388 22.999 14.251C23.0005 13.654 22.7703 13.0897 22.3398 12.6602C21.9103 12.2302 21.346 11.999 20.749 12Z" fill="#414141"/>
</svg>
