<svg width="24" height="24" viewBox="0 0 24 24" fill="none" xmlns="http://www.w3.org/2000/svg">
<path d="M6.25 2C5.0095 2 4 3.0095 4 4.25V19.75C4 20.9905 5.0095 22 6.25 22H11.0215C11.0395 21.8755 11.0693 21.7523 11.1143 21.6328L11.1152 21.6338C11.1417 21.5218 11.1755 21.4047 11.21 21.2832L11.4346 20.5H6.25C5.8365 20.5 5.5 20.1635 5.5 19.75V4.25C5.5 3.8365 5.8365 3.5 6.25 3.5H12V7.75C12 8.9905 13.0095 10 14.25 10H18.5V11.916C18.9405 11.504 19.4535 11.2247 20 11.0957V9.25C20 9.04275 19.916 8.85541 19.7803 8.71973L13.2803 2.21973C13.1446 2.08404 12.9572 2 12.75 2H6.25ZM13.5 4.56055L17.4395 8.5H14.25C13.8365 8.5 13.5 8.1635 13.5 7.75V4.56055ZM20.749 12C20.612 12.0005 20.4735 12.0126 20.334 12.0381C19.892 12.1176 19.4698 12.3481 19.1133 12.7051L13.2139 18.6045C13.0354 18.783 12.904 19.0056 12.834 19.2471L12.0488 21.9873C12.0128 22.0823 11.9965 22.1827 12 22.2832C12.0065 22.4647 12.0778 22.6442 12.2168 22.7832C12.3553 22.9217 12.5338 22.993 12.7148 23C12.8153 23.0035 12.9172 22.9877 13.0127 22.9512L15.7529 22.166C15.9944 22.096 16.2155 21.9651 16.3945 21.7861L22.2949 15.8867C22.6519 15.5302 22.8824 15.108 22.9619 14.666C22.9869 14.5265 22.9985 14.388 22.999 14.251C23.0005 13.654 22.7703 13.0897 22.3398 12.6602C21.9103 12.2302 21.346 11.999 20.749 12Z" fill="#414141"/>
</svg>
