<svg width="34" height="30" viewBox="0 0 34 30" fill="none" xmlns="http://www.w3.org/2000/svg">
<path d="M5.25 10C3.46403 10 2 11.464 2 13.25V22.75C2 24.536 3.46403 26 5.25 26H18.75C20.536 26 22 24.536 22 22.75V13.25C22 11.464 20.536 10 18.75 10H5.25ZM5.25 11.5H18.75C19.725 11.5 20.5 12.275 20.5 13.25V13.8027L12 18.3975L3.5 13.8027V13.25C3.5 12.275 4.27497 11.5 5.25 11.5ZM3.5 15.5078L11.6436 19.9102C11.7531 19.9693 11.8755 20.0003 12 20.0003C12.1245 20.0003 12.2469 19.9693 12.3564 19.9102L20.5 15.5078V22.75C20.5 23.725 19.725 24.5 18.75 24.5H5.25C4.27497 24.5 3.5 23.725 3.5 22.75V15.5078Z" fill="#414141"/>
<circle cx="24.5" cy="9.5" r="9.5" fill="#EB5757"/>
<path d="M26.4551 10.459H27.5156V11.6016H26.4551V13.5H25.0312V11.6016H21.3457L21.3047 10.7344L24.9844 4.96875H26.4551V10.459ZM22.7988 10.459H25.0312V6.89648L24.9258 7.08398L22.7988 10.459Z" fill="white"/>
</svg>
