<svg width="24" height="24" viewBox="0 0 24 24" fill="none" xmlns="http://www.w3.org/2000/svg">
<path d="M8.625 2.5C4.97512 2.5 2 5.47512 2 9.125C2 12.7749 4.97512 15.75 8.625 15.75C8.90201 15.75 9.1737 15.7276 9.44238 15.6943L7.72754 18.8066C7.07805 19.9852 7.96358 21.5 9.31055 21.5H20.1895C21.5361 21.5 22.4225 19.9863 21.7734 18.8076L21.7725 18.8066L16.333 8.93652C16.0737 8.46649 15.6393 8.18065 15.166 8.0752C14.6618 4.9184 11.9179 2.5 8.625 2.5ZM8.625 4C11.2028 4 13.3214 5.88796 13.6904 8.35742C13.4825 8.50291 13.3007 8.69421 13.167 8.93652L10.4209 13.9199C9.86165 14.1297 9.25991 14.25 8.625 14.25C5.78588 14.25 3.5 11.9641 3.5 9.125C3.5 6.28588 5.78588 4 8.625 4ZM8.73828 5.48926C8.53954 5.49236 8.35016 5.57423 8.21173 5.71686C8.0733 5.8595 7.99715 6.05125 8 6.25V8.5H6.75C6.65062 8.49859 6.55194 8.51696 6.45972 8.55402C6.36749 8.59108 6.28355 8.6461 6.21277 8.71588C6.142 8.78566 6.08579 8.86882 6.04743 8.96051C6.00907 9.0522 5.98932 9.15061 5.98932 9.25C5.98932 9.34939 6.00907 9.4478 6.04743 9.53949C6.08579 9.63118 6.142 9.71434 6.21277 9.78412C6.28355 9.8539 6.36749 9.90892 6.45972 9.94598C6.55194 9.98304 6.65062 10.0014 6.75 10H8.75C8.94891 9.99998 9.13966 9.92096 9.28031 9.78031C9.42096 9.63966 9.49998 9.44891 9.5 9.25V6.25C9.50144 6.14962 9.48271 6.04997 9.44493 5.95695C9.40715 5.86394 9.35108 5.77946 9.28004 5.70852C9.20901 5.63757 9.12446 5.58161 9.0314 5.54395C8.93834 5.50629 8.83866 5.48769 8.73828 5.48926ZM14.75 9.47168C14.8502 9.47168 14.9502 9.53538 15.0195 9.66113L20.459 19.5312C20.5919 19.7726 20.4568 20 20.1895 20H9.31055C9.04351 20 8.90851 19.7717 9.04102 19.5312L14.4805 9.66113C14.5498 9.53538 14.6498 9.47168 14.75 9.47168ZM14.7383 11.9893C14.5395 11.9924 14.3502 12.0742 14.2117 12.2169C14.0733 12.3595 13.9971 12.5513 14 12.75V15.25C13.9986 15.3494 14.017 15.4481 14.054 15.5403C14.0911 15.6325 14.1461 15.7164 14.2159 15.7872C14.2857 15.858 14.3688 15.9142 14.4605 15.9526C14.5522 15.9909 14.6506 16.0107 14.75 16.0107C14.8494 16.0107 14.9478 15.9909 15.0395 15.9526C15.1312 15.9142 15.2143 15.858 15.2841 15.7872C15.3539 15.7164 15.4089 15.6325 15.446 15.5403C15.483 15.4481 15.5014 15.3494 15.5 15.25V12.75C15.5014 12.6496 15.4827 12.55 15.4449 12.457C15.4071 12.3639 15.3511 12.2795 15.28 12.2085C15.209 12.1376 15.1245 12.0816 15.0314 12.044C14.9383 12.0063 14.8387 11.9877 14.7383 11.9893ZM14.75 17C14.4848 17 14.2304 17.1054 14.0429 17.2929C13.8554 17.4804 13.75 17.7348 13.75 18C13.75 18.2652 13.8554 18.5196 14.0429 18.7071C14.2304 18.8946 14.4848 19 14.75 19C15.0152 19 15.2696 18.8946 15.4571 18.7071C15.6446 18.5196 15.75 18.2652 15.75 18C15.75 17.7348 15.6446 17.4804 15.4571 17.2929C15.2696 17.1054 15.0152 17 14.75 17Z" fill="#414141"/>
</svg>
