<svg width="24" height="24" viewBox="0 0 24 24" fill="none" xmlns="http://www.w3.org/2000/svg">
<path d="M20.4805 2.49021C20.4435 2.49142 20.4067 2.49468 20.3701 2.49997H14C13.8675 2.4981 13.7359 2.52258 13.613 2.572C13.49 2.62141 13.3781 2.69477 13.2837 2.78781C13.1893 2.88086 13.1144 2.99173 13.0632 3.11399C13.0121 3.23625 12.9858 3.36745 12.9858 3.49997C12.9858 3.6325 13.0121 3.7637 13.0632 3.88596C13.1144 4.00822 13.1893 4.11909 13.2837 4.21213C13.3781 4.30518 13.49 4.37854 13.613 4.42795C13.7359 4.47737 13.8675 4.50185 14 4.49997H18.0859L11.293 11.2929C11.197 11.3851 11.1204 11.4955 11.0676 11.6176C11.0148 11.7397 10.9869 11.8711 10.9856 12.0042C10.9842 12.1372 11.0094 12.2692 11.0597 12.3924C11.11 12.5156 11.1844 12.6275 11.2784 12.7215C11.3725 12.8156 11.4844 12.89 11.6076 12.9403C11.7308 12.9906 11.8627 13.0158 11.9958 13.0144C12.1288 13.0131 12.2603 12.9852 12.3824 12.9324C12.5045 12.8796 12.6149 12.803 12.707 12.707L19.5 5.91404V9.99997C19.4981 10.1325 19.5226 10.264 19.572 10.387C19.6214 10.51 19.6948 10.6219 19.7878 10.7163C19.8809 10.8106 19.9918 10.8856 20.114 10.9367C20.2363 10.9879 20.3675 11.0142 20.5 11.0142C20.6325 11.0142 20.7637 10.9879 20.886 10.9367C21.0082 10.8856 21.1191 10.8106 21.2122 10.7163C21.3052 10.6219 21.3786 10.51 21.428 10.387C21.4774 10.264 21.5019 10.1325 21.5 9.99997V3.62302C21.5193 3.47934 21.5071 3.33319 21.4643 3.19468C21.4215 3.05618 21.3491 2.92863 21.2522 2.82088C21.1552 2.71312 21.0359 2.62774 20.9027 2.57064C20.7694 2.51355 20.6254 2.4861 20.4805 2.49021ZM6.25 3.99997C4.19134 3.99997 2.5 5.69132 2.5 7.74997V17.75C2.5 19.8086 4.19134 21.5 6.25 21.5H16.25C18.3087 21.5 20 19.8086 20 17.75V13C20.0019 12.8675 19.9774 12.7359 19.928 12.6129C19.8786 12.49 19.8052 12.378 19.7122 12.2837C19.6191 12.1893 19.5082 12.1144 19.386 12.0632C19.2637 12.0121 19.1325 11.9857 19 11.9857C18.8675 11.9857 18.7363 12.0121 18.614 12.0632C18.4918 12.1144 18.3809 12.1893 18.2878 12.2837C18.1948 12.378 18.1214 12.49 18.072 12.6129C18.0226 12.7359 17.9981 12.8675 18 13V17.75C18 18.7233 17.2233 19.5 16.25 19.5H6.25C5.27666 19.5 4.5 18.7233 4.5 17.75V7.74997C4.5 6.77663 5.27666 5.99997 6.25 5.99997H11C11.1325 6.00185 11.2641 5.97737 11.387 5.92795C11.51 5.87854 11.6219 5.80518 11.7163 5.71213C11.8107 5.61909 11.8856 5.50822 11.9368 5.38596C11.9879 5.2637 12.0142 5.1325 12.0142 4.99997C12.0142 4.86745 11.9879 4.73625 11.9368 4.61399C11.8856 4.49173 11.8107 4.38086 11.7163 4.28781C11.6219 4.19477 11.51 4.12141 11.387 4.072C11.2641 4.02258 11.1325 3.9981 11 3.99997H6.25Z" fill="#414141"/>
</svg>
