<svg width="24" height="24" viewBox="0 0 24 24" fill="none" xmlns="http://www.w3.org/2000/svg">
<path d="M13.8448 1.01855C12.2052 1.01855 10.8137 1.52623 9.87606 2.54492C8.93847 3.56361 8.49911 5.01642 8.49911 6.75V8.5H6.75887C5.79505 8.5 4.99934 9.3024 5.00887 10.2666L5.02352 11.7686C5.02352 11.7689 5.02352 11.7692 5.02352 11.7695C5.03478 12.7203 5.82369 13.5028 6.77548 13.502L8.50009 13.501V21.75C8.50009 22.7075 9.29261 23.5 10.2501 23.5H12.2501C13.2076 23.5 14.0001 22.7075 14.0001 21.75V13.5H15.5479C16.4298 13.5 17.1838 12.8281 17.2862 11.9521L17.461 10.4521C17.5803 9.42537 16.7569 8.5 15.7227 8.5H14.0099L14.0313 6.85645C14.0314 6.85319 14.0314 6.84994 14.0313 6.84668C14.0313 6.50376 14.2919 6.24316 14.6349 6.24316H16.089C16.868 6.24316 17.5157 5.59549 17.5157 4.81641V2.53125C17.5157 1.79844 16.9456 1.17515 16.2169 1.10938C16.2162 1.10937 16.2156 1.10937 16.2149 1.10938C16.0727 1.09693 15.089 1.01855 13.8448 1.01855ZM13.8448 2.51855C14.9837 2.51855 16.0067 2.60037 16.0157 2.60059V4.74316H14.6349C13.4818 4.74316 12.5313 5.6936 12.5313 6.84668L12.5001 9.24023C12.4988 9.33954 12.5173 9.43812 12.5544 9.53024C12.5915 9.62236 12.6465 9.70619 12.7163 9.77687C12.7861 9.84755 12.8692 9.90367 12.9608 9.94197C13.0524 9.98027 13.1508 10 13.2501 10H15.7227C15.8856 10 15.9895 10.1181 15.9708 10.2793L15.797 11.7783C15.7814 11.9113 15.6811 12 15.5479 12H13.2501C13.0512 12 12.8604 12.079 12.7198 12.2197C12.5791 12.3603 12.5001 12.5511 12.5001 12.75V21.75C12.5001 21.8975 12.3976 22 12.2501 22H10.2501C10.1026 22 10.0001 21.8975 10.0001 21.75V12.75C10.0001 12.5511 9.92104 12.3603 9.78039 12.2197C9.63975 12.079 9.44899 12 9.25009 12L6.7745 12.002C6.77417 12.002 6.77385 12.002 6.77352 12.002C6.62888 12.0021 6.52605 11.8992 6.52352 11.7529L6.50887 10.252C6.50744 10.1042 6.6107 10 6.75887 10H9.24911C9.44802 9.99998 9.63877 9.92096 9.77942 9.78031C9.92006 9.63966 9.99909 9.44891 9.99911 9.25V6.75C9.99911 5.26708 10.366 4.22921 10.9806 3.56152C11.5951 2.89384 12.5009 2.51855 13.8448 2.51855Z" fill="#414141"/>
</svg>
