<svg width="24" height="24" viewBox="0 0 24 24" fill="none" xmlns="http://www.w3.org/2000/svg">
<path d="M5.75 3C4.24011 3 3 4.24011 3 5.75V18.25C3 19.7599 4.24011 21 5.75 21H18.25C19.7599 21 21 19.7599 21 18.25V5.75C21 4.24011 19.7599 3 18.25 3H5.75ZM5.75 4.5H18.25C18.9491 4.5 19.5 5.05089 19.5 5.75V18.25C19.5 18.9491 18.9491 19.5 18.25 19.5H15V14.5H16.8125C17.0645 14.5 17.2776 14.3115 17.3086 14.0615L17.4961 12.5615C17.5141 12.4195 17.469 12.2769 17.374 12.1689C17.2795 12.0614 17.1435 12 17 12H15V10.25C15 9.6985 15.4485 9.25 16 9.25H17C17.276 9.25 17.5 9.0265 17.5 8.75V7.0625C17.5 6.8035 17.3024 6.58745 17.0449 6.56445C17.0154 6.56195 16.31 6.5 15.417 6.5C13.2135 6.5 12 7.80809 12 10.1836V12H10C9.724 12 9.5 12.2235 9.5 12.5V14C9.5 14.2765 9.724 14.5 10 14.5H12V19.5H5.75C5.05089 19.5 4.5 18.9491 4.5 18.25V5.75C4.5 5.05089 5.05089 4.5 5.75 4.5Z" fill="#414141"/>
</svg>
