<svg width="20" height="20" viewBox="0 0 20 20" fill="none" xmlns="http://www.w3.org/2000/svg">
<g clip-path="url(#clip0_5537:50236)">
<path d="M3.5415 3.33337C2.51338 3.33337 1.6665 4.18025 1.6665 5.20837V14.7917C1.6665 15.8198 2.51338 16.6667 3.5415 16.6667H16.4582C17.4863 16.6667 18.3332 15.8198 18.3332 14.7917V7.29171C18.3332 6.26358 17.4863 5.41671 16.4582 5.41671H10.0177L8.15495 3.86479C7.74319 3.52175 7.22449 3.33337 6.68848 3.33337H3.5415ZM3.5415 4.58337H6.68848C6.93247 4.58337 7.16757 4.66894 7.35498 4.82507L8.81494 6.04171L7.35498 7.25834C7.16757 7.41447 6.93247 7.50004 6.68848 7.50004H2.9165V5.20837C2.9165 4.85567 3.1888 4.58337 3.5415 4.58337ZM10.0177 6.66671H16.4582C16.8109 6.66671 17.0832 6.939 17.0832 7.29171V14.7917C17.0832 15.1444 16.8109 15.4167 16.4582 15.4167H3.5415C3.1888 15.4167 2.9165 15.1444 2.9165 14.7917V8.75004H6.68848C7.22449 8.75004 7.74319 8.56166 8.15495 8.21863L10.0177 6.66671Z" fill="#757575"/>
<circle cx="14" cy="14.0001" r="6" fill="white"/>
<path d="M14 11.7499C13.5875 11.7499 13.25 12.0874 13.25 12.4999V12.9999H14.75V12.4999C14.75 12.0874 14.4125 11.7499 14 11.7499ZM14 13.9999C13.585 13.9999 13.25 14.3349 13.25 14.7499C13.25 15.1649 13.585 15.4999 14 15.4999C14.415 15.4999 14.75 15.1649 14.75 14.7499C14.75 14.3349 14.415 13.9999 14 13.9999ZM14 11.7499C13.5875 11.7499 13.25 12.0874 13.25 12.4999V12.9999H14.75V12.4999C14.75 12.0874 14.4125 11.7499 14 11.7499ZM14 13.9999C13.585 13.9999 13.25 14.3349 13.25 14.7499C13.25 15.1649 13.585 15.4999 14 15.4999C14.415 15.4999 14.75 15.1649 14.75 14.7499C14.75 14.3349 14.415 13.9999 14 13.9999ZM14 8.99988C11.2425 8.99988 9 11.2424 9 13.9999C9 16.7574 11.2425 18.9999 14 18.9999C16.7575 18.9999 19 16.7574 19 13.9999C19 11.2424 16.7575 8.99988 14 8.99988ZM16.25 15.7499C16.25 16.1624 15.9125 16.4999 15.5 16.4999H12.5C12.0875 16.4999 11.75 16.1624 11.75 15.7499V13.7499C11.75 13.3374 12.0875 12.9999 12.5 12.9999V12.4999C12.5 11.6724 13.1725 10.9999 14 10.9999C14.8275 10.9999 15.5 11.6724 15.5 12.4999V12.9999C15.9125 12.9999 16.25 13.3374 16.25 13.7499V15.7499ZM14 11.7499C13.5875 11.7499 13.25 12.0874 13.25 12.4999V12.9999H14.75V12.4999C14.75 12.0874 14.4125 11.7499 14 11.7499ZM14 13.9999C13.585 13.9999 13.25 14.3349 13.25 14.7499C13.25 15.1649 13.585 15.4999 14 15.4999C14.415 15.4999 14.75 15.1649 14.75 14.7499C14.75 14.3349 14.415 13.9999 14 13.9999Z" fill="#757575"/>
</g>
<defs>
<clipPath id="clip0_5537:50236">
<rect width="20" height="20" fill="white"/>
</clipPath>
</defs>
</svg>
