<svg width="24" height="24" viewBox="0 0 24 24" fill="none" xmlns="http://www.w3.org/2000/svg">
<path d="M4.25 3.5C3.01625 3.5 2 4.51625 2 5.75V17.75C2 18.9838 3.01625 20 4.25 20H19.75C20.9838 20 22 18.9838 22 17.75V8.25C22 7.01625 20.9838 6 19.75 6H12.0215L9.78613 4.1377C9.29203 3.72606 8.66958 3.5 8.02637 3.5H4.25ZM4.25 5H8.02637C8.31915 5 8.60128 5.10268 8.82617 5.29004L10.5781 6.75L8.82617 8.20996C8.60128 8.39732 8.31915 8.5 8.02637 8.5H3.5V5.75C3.5 5.32675 3.82675 5 4.25 5ZM12.0215 7.5H19.75C20.1733 7.5 20.5 7.82675 20.5 8.25V17.75C20.5 18.1732 20.1733 18.5 19.75 18.5H4.25C3.82675 18.5 3.5 18.1732 3.5 17.75V10H8.02637C8.66958 10 9.29203 9.77394 9.78613 9.3623L12.0215 7.5ZM15.501 8.5C15.087 8.5 14.751 8.8355 14.751 9.25V9.58398C13.8345 9.83298 13.1357 10.662 13.1357 11.625C13.1357 12.7965 14.0887 13.75 15.2607 13.75H15.876C16.2205 13.75 16.501 14.0305 16.501 14.375C16.501 14.7195 16.22 15 15.875 15H15.0195C14.6095 15 14.4484 14.7201 14.4209 14.6641C14.2359 14.2936 13.7856 14.1451 13.4141 14.3291C13.0436 14.5146 12.8941 14.9649 13.0791 15.3359C13.3346 15.8459 13.901 16.383 14.75 16.4805V16.75C14.75 17.1645 15.086 17.5 15.5 17.5C15.914 17.5 16.25 17.1645 16.25 16.75V16.4619C17.243 16.2839 18 15.4185 18 14.375C18 13.2035 17.047 12.25 15.875 12.25H15.2598C14.9153 12.25 14.6348 11.9695 14.6348 11.625C14.6348 11.292 14.9491 11 15.3076 11H15.7314C16.1104 11 16.2421 11.1614 16.3291 11.3359C16.5146 11.7069 16.9649 11.8559 17.3359 11.6709C17.7064 11.4854 17.8569 11.0351 17.6719 10.6641C17.3744 10.0696 16.8785 9.69064 16.251 9.55664V9.25C16.251 8.8355 15.915 8.5 15.501 8.5Z" fill="#414141"/>
</svg>
