<svg width="24" height="24" viewBox="0 0 24 24" fill="none" xmlns="http://www.w3.org/2000/svg">
<path d="M5.75 3C4.24011 3 3 4.24011 3 5.75V18.25C3 19.7599 4.24011 21 5.75 21H18.25C19.7599 21 21 19.7599 21 18.25V5.75C21 4.24011 19.7599 3 18.25 3H5.75ZM5.75 4.5H18.25C18.9491 4.5 19.5 5.05089 19.5 5.75V18.25C19.5 18.9491 18.9491 19.5 18.25 19.5H5.75C5.05089 19.5 4.5 18.9491 4.5 18.25V5.75C4.5 5.05089 5.05089 4.5 5.75 4.5ZM11.25 6C11.0511 6.00002 10.8603 6.07904 10.7197 6.21969C10.579 6.36034 10.5 6.55109 10.5 6.75V9.25C10.5 9.44891 10.579 9.63966 10.7197 9.78031C10.8603 9.92096 11.0511 9.99998 11.25 10H17.25C17.4489 9.99998 17.6397 9.92096 17.7803 9.78031C17.921 9.63966 18 9.44891 18 9.25V6.75C18 6.55109 17.921 6.36034 17.7803 6.21969C17.6397 6.07904 17.4489 6.00002 17.25 6H11.25ZM6.75 7C6.65062 6.99859 6.55194 7.01696 6.45972 7.05402C6.36749 7.09108 6.28355 7.1461 6.21277 7.21588C6.142 7.28566 6.08579 7.36882 6.04743 7.46051C6.00907 7.5522 5.98932 7.65061 5.98932 7.75C5.98932 7.84939 6.00907 7.9478 6.04743 8.03949C6.08579 8.13118 6.142 8.21434 6.21277 8.28412C6.28355 8.3539 6.36749 8.40892 6.45972 8.44598C6.55194 8.48304 6.65062 8.50141 6.75 8.5H8.25C8.34938 8.50141 8.44806 8.48304 8.54028 8.44598C8.63251 8.40892 8.71645 8.3539 8.78723 8.28412C8.858 8.21434 8.91421 8.13118 8.95257 8.03949C8.99093 7.9478 9.01068 7.84939 9.01068 7.75C9.01068 7.65061 8.99093 7.5522 8.95257 7.46051C8.91421 7.36882 8.858 7.28566 8.78723 7.21588C8.71645 7.1461 8.63251 7.09108 8.54028 7.05402C8.44806 7.01696 8.34938 6.99859 8.25 7H6.75ZM12 7.5H16.5V8.5H12V7.5ZM11.25 11C11.0511 11 10.8603 11.079 10.7197 11.2197C10.579 11.3603 10.5 11.5511 10.5 11.75V14.25C10.5 14.4489 10.579 14.6397 10.7197 14.7803C10.8603 14.921 11.0511 15 11.25 15H17.25C17.4489 15 17.6397 14.921 17.7803 14.7803C17.921 14.6397 18 14.4489 18 14.25V11.75C18 11.5511 17.921 11.3603 17.7803 11.2197C17.6397 11.079 17.4489 11 17.25 11H11.25ZM6.75 12C6.65062 11.9986 6.55194 12.017 6.45972 12.054C6.36749 12.0911 6.28355 12.1461 6.21277 12.2159C6.142 12.2857 6.08579 12.3688 6.04743 12.4605C6.00907 12.5522 5.98932 12.6506 5.98932 12.75C5.98932 12.8494 6.00907 12.9478 6.04743 13.0395C6.08579 13.1312 6.142 13.2143 6.21277 13.2841C6.28355 13.3539 6.36749 13.4089 6.45972 13.446C6.55194 13.483 6.65062 13.5014 6.75 13.5H8.25C8.34938 13.5014 8.44806 13.483 8.54028 13.446C8.63251 13.4089 8.71645 13.3539 8.78723 13.2841C8.858 13.2143 8.91421 13.1312 8.95257 13.0395C8.99093 12.9478 9.01068 12.8494 9.01068 12.75C9.01068 12.6506 8.99093 12.5522 8.95257 12.4605C8.91421 12.3688 8.858 12.2857 8.78723 12.2159C8.71645 12.1461 8.63251 12.0911 8.54028 12.054C8.44806 12.017 8.34938 11.9986 8.25 12H6.75ZM12 12.5H16.5V13.5H12V12.5ZM9.25 16.5C9.15062 16.4986 9.05194 16.517 8.95972 16.554C8.86749 16.5911 8.78355 16.6461 8.71277 16.7159C8.642 16.7857 8.58579 16.8688 8.54743 16.9605C8.50907 17.0522 8.48932 17.1506 8.48932 17.25C8.48932 17.3494 8.50907 17.4478 8.54743 17.5395C8.58579 17.6312 8.642 17.7143 8.71277 17.7841C8.78355 17.8539 8.86749 17.9089 8.95972 17.946C9.05194 17.983 9.15062 18.0014 9.25 18H17.25C17.3494 18.0014 17.4481 17.983 17.5403 17.946C17.6325 17.9089 17.7164 17.8539 17.7872 17.7841C17.858 17.7143 17.9142 17.6312 17.9526 17.5395C17.9909 17.4478 18.0107 17.3494 18.0107 17.25C18.0107 17.1506 17.9909 17.0522 17.9526 16.9605C17.9142 16.8688 17.858 16.7857 17.7872 16.7159C17.7164 16.6461 17.6325 16.5911 17.5403 16.554C17.4481 16.517 17.3494 16.4986 17.25 16.5H9.25Z" fill="#414141"/>
</svg>
