<svg width="24" height="24" viewBox="0 0 24 24" fill="none" xmlns="http://www.w3.org/2000/svg">
<path d="M8.99994 2C8.22911 2 7.55601 2.31607 7.12689 2.79883C6.69777 3.28159 6.49994 3.89583 6.49994 4.5C6.49994 5.10417 6.69777 5.71841 7.12689 6.20117C7.55601 6.68393 8.22911 7 8.99994 7C9.77077 7 10.4439 6.68393 10.873 6.20117C11.3021 5.71841 11.4999 5.10417 11.4999 4.5C11.4999 3.89583 11.3021 3.28159 10.873 2.79883C10.4439 2.31607 9.77077 2 8.99994 2ZM8.99994 3.5C9.39577 3.5 9.59768 3.62143 9.75189 3.79492C9.90611 3.96841 9.99994 4.22917 9.99994 4.5C9.99994 4.77083 9.90611 5.03159 9.75189 5.20508C9.59768 5.37857 9.39577 5.5 8.99994 5.5C8.60411 5.5 8.4022 5.37857 8.24799 5.20508C8.09377 5.03159 7.99994 4.77083 7.99994 4.5C7.99994 4.22917 8.09377 3.96841 8.24799 3.79492C8.4022 3.62143 8.60411 3.5 8.99994 3.5ZM7.74994 7.5C6.24005 7.5 4.99994 8.74011 4.99994 10.25V12H3.74994H2.24994C2.15056 11.9986 2.05188 12.017 1.95966 12.054C1.86743 12.0911 1.78349 12.1461 1.71271 12.2159C1.64194 12.2857 1.58573 12.3688 1.54737 12.4605C1.50901 12.5522 1.48926 12.6506 1.48926 12.75C1.48926 12.8494 1.50901 12.9478 1.54737 13.0395C1.58573 13.1312 1.64194 13.2143 1.71271 13.2841C1.78349 13.3539 1.86743 13.4089 1.95966 13.446C2.05188 13.483 2.15056 13.5014 2.24994 13.5H2.99994V19.75C2.99994 20.7075 3.79246 21.5 4.74994 21.5H19.2499C20.2074 21.5 20.9999 20.7075 20.9999 19.75V13.5H21.7499C21.8493 13.5014 21.948 13.483 22.0402 13.446C22.1324 13.4089 22.2164 13.3539 22.2872 13.2841C22.3579 13.2143 22.4141 13.1312 22.4525 13.0395C22.4909 12.9478 22.5106 12.8494 22.5106 12.75C22.5106 12.6506 22.4909 12.5522 22.4525 12.4605C22.4141 12.3688 22.3579 12.2857 22.2872 12.2159C22.2164 12.1461 22.1324 12.0911 22.0402 12.054C21.948 12.017 21.8493 11.9986 21.7499 12H20.2499H18.9999V11.25C18.9999 10.0162 17.9837 9 16.7499 9C15.5162 9 14.4999 10.0162 14.4999 11.25V12H12.9999V10.25C12.9999 8.74011 11.7598 7.5 10.2499 7.5H7.74994ZM7.74994 9H10.2499C10.9491 9 11.4999 9.55089 11.4999 10.25V12H6.49994V10.25C6.49994 9.55089 7.05083 9 7.74994 9ZM16.7499 10.5C17.1732 10.5 17.4999 10.8268 17.4999 11.25V12H15.9999V11.25C15.9999 10.8268 16.3267 10.5 16.7499 10.5ZM4.49994 13.5H19.4999V19.75C19.4999 19.8975 19.3975 20 19.2499 20H4.74994C4.60242 20 4.49994 19.8975 4.49994 19.75V13.5Z" fill="#414141"/>
</svg>
