<svg width="24" height="24" viewBox="0 0 24 24" fill="none" xmlns="http://www.w3.org/2000/svg">
<path d="M3.73836 2.98917C3.53962 2.99227 3.35023 3.07413 3.21181 3.21677C3.07338 3.35941 2.99723 3.55116 3.00008 3.74991V20.2499C3.0001 20.4488 3.07912 20.6396 3.21977 20.7802C3.36042 20.9209 3.55117 20.9999 3.75008 20.9999H20.2501C20.3495 21.0013 20.4481 20.983 20.5404 20.9459C20.6326 20.9088 20.7165 20.8538 20.7873 20.784C20.8581 20.7142 20.9143 20.6311 20.9526 20.5394C20.991 20.4477 21.0108 20.3493 21.0108 20.2499C21.0108 20.1505 20.991 20.0521 20.9526 19.9604C20.9143 19.8687 20.8581 19.7856 20.7873 19.7158C20.7165 19.646 20.6326 19.591 20.5404 19.5539C20.4481 19.5169 20.3495 19.4985 20.2501 19.4999H4.50008V3.74991C4.50152 3.64953 4.48279 3.54988 4.44501 3.45686C4.40723 3.36385 4.35116 3.27937 4.28012 3.20843C4.20909 3.13748 4.12454 3.08152 4.03147 3.04386C3.93841 3.0062 3.83874 2.9876 3.73836 2.98917ZM20.2882 4.49112C20.1538 4.48539 20.0203 4.51591 19.9018 4.57948C19.7832 4.64305 19.6839 4.73733 19.6143 4.85245L16.4434 9.92569L14.8497 7.79971C14.7759 7.70136 14.679 7.62267 14.5676 7.57056C14.4562 7.51845 14.3337 7.49452 14.2109 7.50089C14.0881 7.50726 13.9688 7.54372 13.8634 7.60707C13.758 7.67042 13.6698 7.75871 13.6065 7.86417L11.1807 11.9071L9.59969 9.79971C9.52702 9.70303 9.43206 9.62536 9.32289 9.57331C9.21372 9.52126 9.09358 9.49638 8.97272 9.50079C8.85186 9.50521 8.73385 9.53878 8.62877 9.59865C8.52369 9.65852 8.43464 9.74291 8.36922 9.84464L6.11922 13.3446C6.06291 13.4275 6.02376 13.5207 6.00407 13.6189C5.98438 13.7171 5.98456 13.8182 6.00459 13.9164C6.02462 14.0145 6.06409 14.1076 6.12068 14.1902C6.17728 14.2728 6.24984 14.3433 6.3341 14.3974C6.41836 14.4516 6.5126 14.4883 6.61127 14.5054C6.70995 14.5225 6.81105 14.5197 6.90862 14.4971C7.00619 14.4745 7.09824 14.4327 7.17936 14.3739C7.26048 14.3152 7.32902 14.2408 7.38094 14.1552L9.04793 11.5624L10.6505 13.7001C10.7243 13.7985 10.8211 13.8772 10.9325 13.9293C11.0439 13.9814 11.1664 14.0053 11.2892 13.9989C11.412 13.9926 11.5314 13.9561 11.6368 13.8927C11.7422 13.8294 11.8304 13.7411 11.8936 13.6357L14.3194 9.59268L15.9005 11.7001C15.9736 11.7974 16.0693 11.8754 16.1793 11.9275C16.2894 11.9795 16.4104 12.004 16.532 11.9988C16.6536 11.9936 16.7721 11.9589 16.8773 11.8977C16.9825 11.8364 17.0712 11.7505 17.1358 11.6474L20.8858 5.64737C20.9575 5.53641 20.9985 5.40851 21.0049 5.27659C21.0113 5.14466 20.9827 5.0134 20.922 4.89607C20.8614 4.77874 20.7708 4.67951 20.6595 4.6084C20.5482 4.5373 20.4201 4.49684 20.2882 4.49112Z" fill="#414141"/>
</svg>
