<svg width="24" height="24" viewBox="0 0 24 24" fill="none" xmlns="http://www.w3.org/2000/svg">
<path d="M12 2C6.48603 2 2 6.48604 2 12C2 17.514 6.48603 22 12 22C17.514 22 22 17.514 22 12C22 6.48604 17.514 2 12 2ZM12 3.5C16.7033 3.5 20.5 7.2967 20.5 12C20.5 16.7033 16.7033 20.5 12 20.5C7.29669 20.5 3.5 16.7033 3.5 12C3.5 7.2967 7.29669 3.5 12 3.5ZM9 8.25C8.66848 8.25 8.35054 8.3817 8.11612 8.61612C7.8817 8.85054 7.75 9.16848 7.75 9.5C7.75 9.83152 7.8817 10.1495 8.11612 10.3839C8.35054 10.6183 8.66848 10.75 9 10.75C9.33152 10.75 9.64946 10.6183 9.88388 10.3839C10.1183 10.1495 10.25 9.83152 10.25 9.5C10.25 9.16848 10.1183 8.85054 9.88388 8.61612C9.64946 8.3817 9.33152 8.25 9 8.25ZM15 8.25C14.6685 8.25 14.3505 8.3817 14.1161 8.61612C13.8817 8.85054 13.75 9.16848 13.75 9.5C13.75 9.83152 13.8817 10.1495 14.1161 10.3839C14.3505 10.6183 14.6685 10.75 15 10.75C15.3315 10.75 15.6495 10.6183 15.8839 10.3839C16.1183 10.1495 16.25 9.83152 16.25 9.5C16.25 9.16848 16.1183 8.85054 15.8839 8.61612C15.6495 8.3817 15.3315 8.25 15 8.25ZM7.88672 13.9922C7.74404 13.9898 7.60365 14.0282 7.48201 14.1028C7.36037 14.1774 7.26254 14.2852 7.2 14.4134C7.13746 14.5417 7.1128 14.6851 7.12893 14.8269C7.14505 14.9687 7.20128 15.1029 7.29102 15.2139C8.38816 16.6082 10.0965 17.5 12 17.5C13.9035 17.5 15.6118 16.6082 16.709 15.2139C16.7715 15.1366 16.818 15.0478 16.8458 14.9524C16.8737 14.857 16.8823 14.7571 16.8712 14.6584C16.8601 14.5596 16.8295 14.4641 16.7812 14.3773C16.7329 14.2905 16.6678 14.2142 16.5897 14.1527C16.5117 14.0913 16.4222 14.046 16.3264 14.0194C16.2307 13.9928 16.1307 13.9855 16.0321 13.9979C15.9335 14.0104 15.8384 14.0422 15.7523 14.0917C15.6661 14.1412 15.5907 14.2073 15.5303 14.2861C14.7074 15.3318 13.4365 16 12 16C10.5635 16 9.29258 15.3318 8.46973 14.2861C8.40099 14.1964 8.31284 14.1233 8.21188 14.0724C8.11093 14.0215 7.99977 13.9941 7.88672 13.9922Z" fill="#414141"/>
</svg>
