<svg width="24" height="24" viewBox="0 0 24 24" fill="none" xmlns="http://www.w3.org/2000/svg">
<path d="M21.2353 1.99317C21.0406 1.99885 20.8556 2.0801 20.7197 2.21973L14.0127 8.92676C14.0103 8.9257 14.0082 8.92392 14.0058 8.92286L12.8262 10.1025C12.8289 10.1032 12.8312 10.1048 12.834 10.1055L8.60545 14.334C8.6047 14.331 8.60326 14.3282 8.60252 14.3252L7.42283 15.5049C7.42401 15.5076 7.42556 15.51 7.42674 15.5127L2.21971 20.7197C2.14773 20.7888 2.09026 20.8716 2.05068 20.9632C2.01109 21.0548 1.99018 21.1534 1.98916 21.2532C1.98815 21.3529 2.00705 21.4519 2.04477 21.5443C2.08249 21.6367 2.13826 21.7206 2.20881 21.7912C2.27937 21.8617 2.3633 21.9175 2.45568 21.9552C2.54806 21.9929 2.64704 22.0118 2.74682 22.0108C2.8466 22.0098 2.94518 21.9889 3.03677 21.9493C3.12837 21.9097 3.21115 21.8523 3.28026 21.7803L8.25682 16.8037C9.17285 17.8419 10.5095 18.5 12 18.5C14.757 18.5 17 16.257 17 13.5C17 12.0098 16.3418 10.673 15.3037 9.75684L17.5264 7.53419C19.9522 8.95457 21.8344 11.2484 22.5254 13.9346C22.6104 14.2746 22.915 14.5 23.25 14.5C23.31 14.5 23.3746 14.4946 23.4346 14.4746C23.8396 14.3746 24.0796 13.9654 23.9746 13.5654C23.2047 10.5641 21.2306 8.03655 18.6387 6.42188L21.7803 3.28028C21.8885 3.1749 21.9623 3.03931 21.9922 2.89126C22.0221 2.74321 22.0065 2.58959 21.9477 2.4505C21.8888 2.31142 21.7893 2.19335 21.6622 2.11175C21.5351 2.03015 21.3863 1.98882 21.2353 1.99317ZM11.9951 4.50001C6.4101 4.50001 1.37537 8.31044 0.0253725 13.5654C-0.0796274 13.9654 0.160412 14.3746 0.565412 14.4746C0.965412 14.5796 1.37459 14.3396 1.47459 13.9346C2.63959 9.40958 7.1651 6.00001 11.9951 6.00001C12.8501 6.00001 13.6947 6.10458 14.5097 6.30958L15.7402 5.08008C14.5452 4.70008 13.2851 4.50001 11.9951 4.50001ZM12 8.50001C9.24298 8.50001 6.99998 10.743 6.99998 13.5C6.99998 13.5985 7.00863 13.6955 7.01463 13.793L8.87596 11.9316C9.21446 11.2606 9.76062 10.7145 10.4316 10.376L12.292 8.51465C12.195 8.50865 12.0985 8.50001 12 8.50001ZM14.2363 10.8242C15.0045 11.4657 15.5 12.4229 15.5 13.5C15.5 15.4295 13.93 17 12 17C10.9228 17 9.96564 16.5047 9.3242 15.7363L10.7441 14.3164C10.88 14.5259 11.0661 14.6981 11.2854 14.8175C11.5047 14.9368 11.7503 14.9996 12 15C12.3228 14.9992 12.6367 14.8942 12.8951 14.7008C13.1536 14.5073 13.3427 14.2356 13.4344 13.9261C13.5261 13.6166 13.5154 13.2857 13.4041 12.9827C13.2928 12.6797 13.0867 12.4207 12.8164 12.2441L14.2363 10.8242Z" fill="#414141"/>
</svg>
