<svg width="24" height="24" viewBox="0 0 24 24" fill="none" xmlns="http://www.w3.org/2000/svg">
<path d="M11.9141 1.50485C11.1953 1.51067 10.4791 1.78842 9.93946 2.33689L2.3047 10.0976C1.22543 11.1945 1.23999 12.9812 2.33692 14.0605L10.0977 21.6953C11.1946 22.7746 12.9813 22.76 14.0606 21.6631L21.6953 13.9033C21.6956 13.903 21.696 13.9026 21.6963 13.9023C22.7747 12.8049 22.76 11.0187 21.6631 9.93943L13.9024 2.30466C13.3539 1.76502 12.6328 1.49904 11.9141 1.50485ZM11.9268 2.99509C12.2585 2.9924 12.5911 3.11863 12.8506 3.37399L20.6113 11.0088C21.1304 11.5195 21.1366 12.332 20.626 12.8515L12.9912 20.6113C12.4805 21.1304 11.6685 21.1367 11.1494 20.6259L3.38868 12.9912C2.86962 12.4805 2.86331 11.6685 3.37403 11.1494L11.0088 3.38864C11.2642 3.12911 11.595 2.99777 11.9268 2.99509ZM11.9883 6.48923C11.7897 6.49234 11.6005 6.57406 11.4621 6.71649C11.3237 6.85892 11.2474 7.05042 11.25 7.249V13.249C11.2486 13.3484 11.267 13.4471 11.304 13.5393C11.3411 13.6315 11.3961 13.7154 11.4659 13.7862C11.5357 13.857 11.6188 13.9132 11.7105 13.9516C11.8022 13.9899 11.9006 14.0097 12 14.0097C12.0994 14.0097 12.1978 13.9899 12.2895 13.9516C12.3812 13.9132 12.4643 13.857 12.5341 13.7862C12.6039 13.7154 12.6589 13.6315 12.696 13.5393C12.7331 13.4471 12.7514 13.3484 12.75 13.249V7.249C12.7513 7.14869 12.7325 7.04915 12.6947 6.95625C12.6568 6.86335 12.6007 6.77899 12.5297 6.70815C12.4587 6.63731 12.3742 6.58144 12.2812 6.54383C12.1882 6.50623 12.0886 6.48766 11.9883 6.48923ZM12 15.499C11.7348 15.499 11.4804 15.6044 11.2929 15.7919C11.1054 15.9794 11 16.2338 11 16.499C11 16.7642 11.1054 17.0186 11.2929 17.2061C11.4804 17.3936 11.7348 17.499 12 17.499C12.2652 17.499 12.5196 17.3936 12.7071 17.2061C12.8947 17.0186 13 16.7642 13 16.499C13 16.2338 12.8947 15.9794 12.7071 15.7919C12.5196 15.6044 12.2652 15.499 12 15.499Z" fill="#414141"/>
</svg>
