<svg width="24" height="24" viewBox="0 0 24 24" fill="none" xmlns="http://www.w3.org/2000/svg">
<rect width="24" height="24" fill="white"/>
<path d="M12 2.52539C11.3979 2.52539 10.7955 2.72046 10.2979 3.1123C10.2979 3.11198 10.2979 3.11263 10.2979 3.1123L4.42969 7.7373C3.52774 8.44812 3 9.53429 3 10.6826V19.25C3 20.4838 4.01625 21.5 5.25 21.5H18.75C19.9838 21.5 21 20.4838 21 19.25V10.6826C21 9.53429 20.4723 8.44812 19.5703 7.7373L13.7021 3.11328C13.7021 3.11361 13.7021 3.11296 13.7021 3.11328C13.2045 2.72144 12.6021 2.52539 12 2.52539ZM12 4.02148C12.2726 4.02148 12.5456 4.11086 12.7744 4.29102L18.6426 8.91504C19.1846 9.34222 19.5 9.99294 19.5 10.6826V19.25C19.5 19.6733 19.1733 20 18.75 20H5.25C4.82675 20 4.5 19.6733 4.5 19.25V10.6826C4.5 9.99294 4.81537 9.34222 5.35742 8.91504L11.2256 4.29102C11.4544 4.11086 11.7274 4.02148 12 4.02148ZM11.9883 8.98926C11.7895 8.99236 11.6002 9.07423 11.4617 9.21686C11.3233 9.3595 11.2471 9.55125 11.25 9.75V12.5H8.5C8.40062 12.4986 8.30194 12.517 8.20972 12.554C8.11749 12.5911 8.03355 12.6461 7.96277 12.7159C7.892 12.7857 7.83579 12.8688 7.79743 12.9605C7.75907 13.0522 7.73932 13.1506 7.73932 13.25C7.73932 13.3494 7.75907 13.4478 7.79743 13.5395C7.83579 13.6312 7.892 13.7143 7.96277 13.7841C8.03355 13.8539 8.11749 13.9089 8.20972 13.946C8.30194 13.983 8.40062 14.0014 8.5 14H11.25V16.75C11.2486 16.8494 11.267 16.9481 11.304 17.0403C11.3411 17.1325 11.3961 17.2164 11.4659 17.2872C11.5357 17.358 11.6188 17.4142 11.7105 17.4526C11.8022 17.4909 11.9006 17.5107 12 17.5107C12.0994 17.5107 12.1978 17.4909 12.2895 17.4526C12.3812 17.4142 12.4643 17.358 12.5341 17.2872C12.6039 17.2164 12.6589 17.1325 12.696 17.0403C12.733 16.9481 12.7514 16.8494 12.75 16.75V14H15.5C15.5994 14.0014 15.6981 13.983 15.7903 13.946C15.8825 13.9089 15.9664 13.8539 16.0372 13.7841C16.108 13.7143 16.1642 13.6312 16.2026 13.5395C16.2409 13.4478 16.2607 13.3494 16.2607 13.25C16.2607 13.1506 16.2409 13.0522 16.2026 12.9605C16.1642 12.8688 16.108 12.7857 16.0372 12.7159C15.9664 12.6461 15.8825 12.5911 15.7903 12.554C15.6981 12.517 15.5994 12.4986 15.5 12.5H12.75V9.75C12.7514 9.64962 12.7327 9.54997 12.6949 9.45695C12.6571 9.36394 12.6011 9.27946 12.53 9.20852C12.459 9.13758 12.3745 9.08161 12.2814 9.04395C12.1883 9.00629 12.0887 8.98769 11.9883 8.98926Z" fill="#414141"/>
<rect width="10" height="10" transform="translate(7 8)" fill="white"/>
<path d="M13.1484 8C12.7852 8 12.4572 8.04313 12.1649 8.12313C12.5132 8.38661 12.8104 8.73394 13.0275 9.14937C13.0827 9.25481 13.0456 9.38707 12.9445 9.44446C12.9131 9.46251 12.8788 9.47079 12.8448 9.47079C12.7711 9.47079 12.6996 9.42981 12.6617 9.35742C12.3371 8.73633 11.5832 7.99984 10.7057 8.00679C9.08317 7.99984 7.625 9.34391 7.625 11.2065C7.625 11.38 7.64228 11.5411 7.66895 11.6957H10.3334V11.0435C10.3334 10.9235 10.4265 10.8261 10.5417 10.8261H13.4584C13.5737 10.8261 13.6668 10.9235 13.6668 11.0435V11.6957H16.3312C16.3577 11.5417 16.3748 11.3815 16.3748 11.2091C16.3845 10.296 16.1023 9.51035 15.5585 8.93665C14.9779 8.32404 14.1444 8 13.1484 8ZM10.7501 11.2609V11.913C10.7501 12.033 10.6569 12.1304 10.5417 12.1304H7.7784C7.90091 12.5 8.0816 12.834 8.27036 13.1775C8.49619 13.5886 8.72961 14.0139 8.86607 14.5311C8.94545 14.8391 9.01585 15.1684 9.08377 15.4868C9.36002 16.7792 9.62084 18 10.4909 18C11.0967 18 11.4585 17.5537 11.4585 16.806C11.4585 15.8778 11.6516 14.6432 11.7958 13.8012C11.8229 13.6642 11.9216 13.6157 12.007 13.6157H12.0119C12.0502 13.6165 12.1769 13.6315 12.2031 13.7961C12.4275 15.0792 12.5417 16.0919 12.5417 16.806C12.5417 17.5537 12.9033 17.9996 13.5093 17.9996C14.3756 17.9996 14.6365 16.784 14.9123 15.497C14.9817 15.1744 15.0531 14.8408 15.1337 14.5324C15.2706 14.0139 15.504 13.5883 15.7298 13.1775C15.9186 12.8338 16.0997 12.4998 16.2222 12.1304H13.4584C13.3432 12.1304 13.2501 12.033 13.2501 11.913V11.2609H10.7501Z" fill="#414141"/>
</svg>
