<svg width="24" height="24" viewBox="0 0 24 24" fill="none" xmlns="http://www.w3.org/2000/svg">
<rect width="24" height="24" fill="white"/>
<path d="M12 2.52539C11.3979 2.52539 10.7955 2.72046 10.2979 3.1123C10.2979 3.11198 10.2979 3.11263 10.2979 3.1123L4.42969 7.7373C3.52774 8.44812 3 9.53429 3 10.6826V19.25C3 20.4838 4.01625 21.5 5.25 21.5H18.75C19.9838 21.5 21 20.4838 21 19.25V10.6826C21 9.53429 20.4723 8.44812 19.5703 7.7373L13.7021 3.11328C13.7021 3.11361 13.7021 3.11296 13.7021 3.11328C13.2045 2.72144 12.6021 2.52539 12 2.52539ZM12 4.02148C12.2726 4.02148 12.5456 4.11086 12.7744 4.29102L18.6426 8.91504C19.1846 9.34222 19.5 9.99294 19.5 10.6826V19.25C19.5 19.6733 19.1733 20 18.75 20H5.25C4.82675 20 4.5 19.6733 4.5 19.25V10.6826C4.5 9.99294 4.81537 9.34222 5.35742 8.91504L11.2256 4.29102C11.4544 4.11086 11.7274 4.02148 12 4.02148ZM11.9883 8.98926C11.7895 8.99236 11.6002 9.07423 11.4617 9.21686C11.3233 9.3595 11.2471 9.55125 11.25 9.75V12.5H8.5C8.40062 12.4986 8.30194 12.517 8.20972 12.554C8.11749 12.5911 8.03355 12.6461 7.96277 12.7159C7.892 12.7857 7.83579 12.8688 7.79743 12.9605C7.75907 13.0522 7.73932 13.1506 7.73932 13.25C7.73932 13.3494 7.75907 13.4478 7.79743 13.5395C7.83579 13.6312 7.892 13.7143 7.96277 13.7841C8.03355 13.8539 8.11749 13.9089 8.20972 13.946C8.30194 13.983 8.40062 14.0014 8.5 14H11.25V16.75C11.2486 16.8494 11.267 16.9481 11.304 17.0403C11.3411 17.1325 11.3961 17.2164 11.4659 17.2872C11.5357 17.358 11.6188 17.4142 11.7105 17.4526C11.8022 17.4909 11.9006 17.5107 12 17.5107C12.0994 17.5107 12.1978 17.4909 12.2895 17.4526C12.3812 17.4142 12.4643 17.358 12.5341 17.2872C12.6039 17.2164 12.6589 17.1325 12.696 17.0403C12.733 16.9481 12.7514 16.8494 12.75 16.75V14H15.5C15.5994 14.0014 15.6981 13.983 15.7903 13.946C15.8825 13.9089 15.9664 13.8539 16.0372 13.7841C16.108 13.7143 16.1642 13.6312 16.2026 13.5395C16.2409 13.4478 16.2607 13.3494 16.2607 13.25C16.2607 13.1506 16.2409 13.0522 16.2026 12.9605C16.1642 12.8688 16.108 12.7857 16.0372 12.7159C15.9664 12.6461 15.8825 12.5911 15.7903 12.554C15.6981 12.517 15.5994 12.4986 15.5 12.5H12.75V9.75C12.7514 9.64962 12.7327 9.54997 12.6949 9.45695C12.6571 9.36394 12.6011 9.27946 12.53 9.20852C12.459 9.13758 12.3745 9.08161 12.2814 9.04395C12.1883 9.00629 12.0887 8.98769 11.9883 8.98926Z" fill="#414141"/>
<rect width="10" height="10" transform="translate(7 8)" fill="white"/>
<path d="M10.8 8.83337C10.7777 8.8331 10.7554 8.83501 10.7335 8.83906C10.7192 8.83877 10.7062 8.83418 10.6918 8.83418C9.58253 8.83418 8.88284 9.22148 8.54381 9.75979C8.20478 10.2981 8.21648 10.9169 8.29767 11.3852C8.3955 11.9496 8.69943 12.9429 9.0297 13.9582C9.36002 14.9736 9.71554 15.9943 9.90908 16.5434C9.90908 16.5435 9.90908 16.5436 9.90908 16.5438C10.0403 16.9157 10.4085 17.1667 10.8183 17.1667C11.3466 17.1667 11.7812 16.7493 11.7781 16.2447V16.2443L11.7649 13.6347C11.769 13.51 11.8694 13.4171 12 13.4171C12.1306 13.4171 12.231 13.51 12.2351 13.6347L12.2219 16.2443V16.2447C12.2192 16.7493 12.6537 17.1667 13.1817 17.1667C13.5915 17.1667 13.9597 16.9157 14.0909 16.5438C14.0909 16.5436 14.0909 16.5435 14.0909 16.5434C14.2845 15.9943 14.64 14.9736 14.9703 13.9582C15.3006 12.9429 15.6045 11.9496 15.7023 11.3852C15.7835 10.9169 15.7952 10.2981 15.4562 9.75979C15.1172 9.22149 14.4175 8.83418 13.3082 8.83418C12.7908 8.83418 12.3508 9.06175 12 9.37612C11.7019 9.10897 11.3442 8.90825 10.9175 8.86022C10.898 8.85601 10.8849 8.84406 10.8651 8.84029C10.8437 8.8359 10.8219 8.83358 10.8 8.83337ZM10.6918 9.45912C10.7438 9.45912 10.7854 9.48646 10.8357 9.49208C11.6861 9.71421 12.2645 10.5572 12.2645 10.5572C12.2865 10.5925 12.3157 10.6232 12.3502 10.6476C12.3847 10.6721 12.4239 10.6898 12.4656 10.6998C12.5073 10.7098 12.5506 10.7118 12.5931 10.7058C12.6356 10.6998 12.6765 10.6858 12.7133 10.6647C12.7502 10.6436 12.7823 10.6158 12.8079 10.5828C12.8335 10.5498 12.8521 10.5123 12.8625 10.4725C12.873 10.4327 12.8751 10.3913 12.8688 10.3507C12.8624 10.3101 12.8478 10.271 12.8257 10.2358C12.8257 10.2358 12.6367 10.0015 12.4629 9.79885C12.6933 9.60228 12.9736 9.45912 13.3082 9.45912C14.2703 9.45912 14.6801 9.73953 14.8958 10.082C15.1115 10.4245 15.1232 10.8995 15.0567 11.2827C15.0567 11.2828 15.0567 11.2829 15.0567 11.2831C14.9755 11.7518 14.6733 12.7652 14.3456 13.7727C14.0179 14.7801 13.6635 15.7976 13.4709 16.344C13.4285 16.4641 13.3153 16.5417 13.1817 16.5417C13.0083 16.5417 12.875 16.414 12.876 16.248C12.876 16.2479 12.876 16.2477 12.876 16.2476L12.8892 13.6266C12.8892 13.6229 12.8892 13.6193 12.8892 13.6156C12.8745 13.16 12.4768 12.7921 12 12.7921C11.5232 12.7921 11.1255 13.16 11.1108 13.6156C11.1108 13.6193 11.1108 13.6229 11.1108 13.6266L11.124 16.2476C11.124 16.2477 11.124 16.2479 11.124 16.248C11.1251 16.4135 10.9919 16.5417 10.8183 16.5417C10.6847 16.5417 10.5715 16.4641 10.5291 16.344C10.3365 15.7976 9.98214 14.7801 9.65442 13.7727C9.32671 12.7652 9.02447 11.7518 8.94325 11.2831C8.94325 11.2829 8.94325 11.2828 8.94325 11.2827C8.87683 10.8996 8.88852 10.4245 9.10423 10.082C9.31993 9.73953 9.72972 9.45912 10.6918 9.45912Z" fill="#414141"/>
</svg>
