<svg width="24" height="24" viewBox="0 0 24 24" fill="none" xmlns="http://www.w3.org/2000/svg">
<g clip-path="url(#clip0)">
<path d="M18.551 17.9077L18.5797 19.7921L18.1607 19.7921H18.1606C18.0095 19.7921 17.8645 19.8505 17.7576 19.9544C17.6508 20.0583 17.5907 20.1992 17.5907 20.3462V20.3462L17.5914 22.8712L17.5914 22.9205L17.6421 22.9205L18.6807 22.9205L18.7314 22.9205L18.7314 22.8712L18.7307 20.9004H19.6692L19.6685 22.8712L19.6685 22.9205L19.7192 22.9205L20.7578 22.9205L20.8085 22.9205L20.8085 22.8712L20.8092 20.3462C20.8092 20.272 20.7939 20.1985 20.7642 20.1301C20.7344 20.0618 20.6908 19.9999 20.636 19.9482L20.636 19.9482C20.5296 19.848 20.3873 19.792 20.2392 19.7921C20.2392 19.7921 20.2392 19.7921 20.2392 19.7921L19.7197 19.7921L19.6917 17.9311C20.3989 17.8325 21.0807 17.524 21.6228 16.9969C22.9566 15.7002 22.9566 13.5825 21.6228 12.2858C20.289 10.9891 18.1109 10.9891 16.7771 12.2858C15.4433 13.5825 15.4433 15.7002 16.7771 16.9969C17.2788 17.4848 17.9003 17.7869 18.551 17.9077ZM20.8166 13.0696C21.7139 13.9419 21.7139 15.3409 20.8166 16.2132C19.9194 17.0855 18.4805 17.0855 17.5833 16.2132C16.686 15.3409 16.686 13.9419 17.5833 13.0696C18.4805 12.1973 19.9194 12.1973 20.8166 13.0696Z" fill="#414141" stroke="#414141" stroke-width="0.1"/>
</g>
<mask id="path-2-outside-1" maskUnits="userSpaceOnUse" x="0.5" y="0.5" width="16" height="21" fill="black">
<rect fill="white" x="0.5" y="0.5" width="16" height="21"/>
<path fill-rule="evenodd" clip-rule="evenodd" d="M7.59 1.97168C8.12126 1.71758 9.00225 1.5 10.53 1.5C12.0577 1.5 12.9387 1.71758 13.47 1.97168C13.7356 2.09873 13.9129 2.23652 14.0278 2.35887C14.1427 2.48121 14.2124 2.63777 14.2124 2.63777C14.2234 2.66852 14.2309 2.70046 14.2345 2.73293L14.8522 8.06168C14.8672 8.09625 14.8774 8.13267 14.8826 8.16996C15.0728 9.42503 15.4521 10.0373 16.1139 10.9049C16.1487 10.9505 16.1739 11.0029 16.1877 11.0586C16.2016 11.1144 16.2039 11.1724 16.1944 11.229C16.1849 11.2857 16.164 11.3398 16.1328 11.388C16.1015 11.4363 16.0608 11.4776 16.013 11.5095C14.724 12.3688 13.5334 12.3911 12.2221 12.4157C12.162 12.4168 12.1017 12.418 12.041 12.4192C11.585 12.6785 11.0755 12.8285 10.53 12.8285C9.98451 12.8285 9.47504 12.6785 9.01898 12.4192C8.95834 12.418 8.89798 12.4168 8.83787 12.4157C7.52655 12.3911 6.33602 12.3688 5.04703 11.5095C4.99922 11.4776 4.95845 11.4363 4.92725 11.388C4.89604 11.3398 4.87506 11.2857 4.8656 11.229C4.85615 11.1724 4.85841 11.1144 4.87227 11.0586C4.88612 11.0029 4.91126 10.9505 4.94613 10.9049C5.60791 10.0373 5.98725 9.42503 6.17742 8.16996C6.18264 8.13267 6.19285 8.09625 6.20777 8.06168L6.82547 2.73293C6.82913 2.70046 6.83656 2.66852 6.84762 2.63777C6.84762 2.63777 6.91728 2.48121 7.03219 2.35887C7.14709 2.23652 7.32437 2.09873 7.59 1.97168ZM13.1082 2.72965C12.7394 2.55325 11.9767 2.34 10.53 2.34C9.08331 2.34 8.32056 2.55325 7.95176 2.72965C7.76974 2.81671 7.68577 2.89189 7.64824 2.93145L7.15195 7.20855C7.15417 7.20356 7.15595 7.19826 7.15774 7.19295C7.15971 7.18708 7.16169 7.1812 7.16426 7.17574C7.32595 6.83248 7.66071 6.60288 7.99605 6.53344C8.3314 6.46399 8.68295 6.47693 9.09199 6.50801C9.16744 6.51374 9.24483 6.52006 9.32441 6.52657C9.67629 6.55532 10.071 6.58758 10.53 6.58758C10.9887 6.58758 11.383 6.55552 11.7346 6.52693C12.2457 6.48537 12.6666 6.45115 13.0639 6.53344C13.3993 6.60288 13.734 6.83248 13.8957 7.17574C13.8983 7.1812 13.9003 7.18708 13.9023 7.19296C13.904 7.19826 13.9058 7.20356 13.908 7.20855L13.4118 2.93145C13.3742 2.89189 13.2903 2.81671 13.1082 2.72965ZM10.11 4.23984V3.09387H10.95V4.23984H12.0952V5.07984H10.95V6.225H10.11V5.07984H8.96484V4.23984H10.11ZM9.04578 7.36874C8.83318 7.35478 8.65082 7.34281 8.50137 7.33898C8.35883 7.33534 8.24625 7.33874 8.16586 7.35539C8.00508 7.38869 7.9894 7.39601 7.92469 7.5334C7.85997 7.67078 7.8 7.98331 7.8 8.4948C7.8 10.4629 9.08212 11.9885 10.53 11.9885C11.9779 11.9885 13.26 10.4629 13.26 8.4948C13.26 7.98331 13.2 7.67078 13.1353 7.5334C13.0706 7.39601 13.0549 7.38869 12.8941 7.35539C12.7294 7.32127 12.4293 7.34107 12.0136 7.36849C11.618 7.39458 11.1178 7.42758 10.53 7.42758C9.9419 7.42758 9.44146 7.39472 9.04578 7.36874ZM7.99359 11.5439C7.35946 10.7633 6.97249 9.69641 6.96164 8.54402C6.76413 9.58386 6.37212 10.2963 5.87719 11.0009C6.57605 11.3788 7.23481 11.4973 7.99359 11.5439ZM15.1828 11.0009C14.6879 10.2963 14.2959 9.58386 14.0984 8.54402C14.0875 9.69641 13.7005 10.7633 13.0664 11.5439C13.8252 11.4973 14.484 11.3788 15.1828 11.0009ZM4.24887 14.748C5.88021 13.8612 8.09267 13.26 10.53 13.26C11.7635 13.26 12.9394 13.4147 14.0114 13.6816C14.065 13.6949 14.1154 13.7187 14.1597 13.7514C14.2041 13.7842 14.2416 13.8254 14.2701 13.8727C14.2985 13.9199 14.3174 13.9724 14.3256 14.0269C14.3338 14.0815 14.3312 14.1371 14.3179 14.1907C14.3046 14.2442 14.2808 14.2946 14.248 14.339C14.2153 14.3834 14.1741 14.4208 14.1268 14.4493C14.0795 14.4777 14.0271 14.4966 13.9725 14.5048C13.918 14.513 13.8623 14.5103 13.8088 14.497C13.605 14.4463 13.3939 14.4035 13.1821 14.3617L10.9114 19.3147C10.8778 19.3876 10.824 19.4493 10.7564 19.4926C10.6888 19.5359 10.6103 19.5589 10.53 19.5589C10.4497 19.5589 10.3712 19.5359 10.3036 19.4926C10.236 19.4493 10.1822 19.3876 10.1486 19.3147L7.87875 14.3617C6.64524 14.6056 5.53886 15.0023 4.65 15.4855C3.16022 16.2954 2.34 17.3341 2.34 18.113V20.4H14.292C14.3476 20.3992 14.4029 20.4095 14.4545 20.4302C14.5062 20.451 14.5532 20.4818 14.5928 20.5209C14.6324 20.56 14.6639 20.6065 14.6854 20.6579C14.7069 20.7092 14.7179 20.7643 14.7179 20.82C14.7179 20.8757 14.7069 20.9308 14.6854 20.9821C14.6639 21.0335 14.6324 21.08 14.5928 21.1191C14.5532 21.1582 14.5062 21.189 14.4545 21.2098C14.4029 21.2305 14.3476 21.2408 14.292 21.24H1.5V18.113C1.5 16.8124 2.61752 15.6349 4.24887 14.748ZM12.324 14.2189C11.7454 14.143 11.1461 14.1 10.53 14.1C9.91443 14.1 9.31518 14.1437 8.7368 14.2198L10.53 18.1327L12.324 14.2189Z"/>
</mask>
<path fill-rule="evenodd" clip-rule="evenodd" d="M7.59 1.97168C8.12126 1.71758 9.00225 1.5 10.53 1.5C12.0577 1.5 12.9387 1.71758 13.47 1.97168C13.7356 2.09873 13.9129 2.23652 14.0278 2.35887C14.1427 2.48121 14.2124 2.63777 14.2124 2.63777C14.2234 2.66852 14.2309 2.70046 14.2345 2.73293L14.8522 8.06168C14.8672 8.09625 14.8774 8.13267 14.8826 8.16996C15.0728 9.42503 15.4521 10.0373 16.1139 10.9049C16.1487 10.9505 16.1739 11.0029 16.1877 11.0586C16.2016 11.1144 16.2039 11.1724 16.1944 11.229C16.1849 11.2857 16.164 11.3398 16.1328 11.388C16.1015 11.4363 16.0608 11.4776 16.013 11.5095C14.724 12.3688 13.5334 12.3911 12.2221 12.4157C12.162 12.4168 12.1017 12.418 12.041 12.4192C11.585 12.6785 11.0755 12.8285 10.53 12.8285C9.98451 12.8285 9.47504 12.6785 9.01898 12.4192C8.95834 12.418 8.89798 12.4168 8.83787 12.4157C7.52655 12.3911 6.33602 12.3688 5.04703 11.5095C4.99922 11.4776 4.95845 11.4363 4.92725 11.388C4.89604 11.3398 4.87506 11.2857 4.8656 11.229C4.85615 11.1724 4.85841 11.1144 4.87227 11.0586C4.88612 11.0029 4.91126 10.9505 4.94613 10.9049C5.60791 10.0373 5.98725 9.42503 6.17742 8.16996C6.18264 8.13267 6.19285 8.09625 6.20777 8.06168L6.82547 2.73293C6.82913 2.70046 6.83656 2.66852 6.84762 2.63777C6.84762 2.63777 6.91728 2.48121 7.03219 2.35887C7.14709 2.23652 7.32437 2.09873 7.59 1.97168ZM13.1082 2.72965C12.7394 2.55325 11.9767 2.34 10.53 2.34C9.08331 2.34 8.32056 2.55325 7.95176 2.72965C7.76974 2.81671 7.68577 2.89189 7.64824 2.93145L7.15195 7.20855C7.15417 7.20356 7.15595 7.19826 7.15774 7.19295C7.15971 7.18708 7.16169 7.1812 7.16426 7.17574C7.32595 6.83248 7.66071 6.60288 7.99605 6.53344C8.3314 6.46399 8.68295 6.47693 9.09199 6.50801C9.16744 6.51374 9.24483 6.52006 9.32441 6.52657C9.67629 6.55532 10.071 6.58758 10.53 6.58758C10.9887 6.58758 11.383 6.55552 11.7346 6.52693C12.2457 6.48537 12.6666 6.45115 13.0639 6.53344C13.3993 6.60288 13.734 6.83248 13.8957 7.17574C13.8983 7.1812 13.9003 7.18708 13.9023 7.19296C13.904 7.19826 13.9058 7.20356 13.908 7.20855L13.4118 2.93145C13.3742 2.89189 13.2903 2.81671 13.1082 2.72965ZM10.11 4.23984V3.09387H10.95V4.23984H12.0952V5.07984H10.95V6.225H10.11V5.07984H8.96484V4.23984H10.11ZM9.04578 7.36874C8.83318 7.35478 8.65082 7.34281 8.50137 7.33898C8.35883 7.33534 8.24625 7.33874 8.16586 7.35539C8.00508 7.38869 7.9894 7.39601 7.92469 7.5334C7.85997 7.67078 7.8 7.98331 7.8 8.4948C7.8 10.4629 9.08212 11.9885 10.53 11.9885C11.9779 11.9885 13.26 10.4629 13.26 8.4948C13.26 7.98331 13.2 7.67078 13.1353 7.5334C13.0706 7.39601 13.0549 7.38869 12.8941 7.35539C12.7294 7.32127 12.4293 7.34107 12.0136 7.36849C11.618 7.39458 11.1178 7.42758 10.53 7.42758C9.9419 7.42758 9.44146 7.39472 9.04578 7.36874ZM7.99359 11.5439C7.35946 10.7633 6.97249 9.69641 6.96164 8.54402C6.76413 9.58386 6.37212 10.2963 5.87719 11.0009C6.57605 11.3788 7.23481 11.4973 7.99359 11.5439ZM15.1828 11.0009C14.6879 10.2963 14.2959 9.58386 14.0984 8.54402C14.0875 9.69641 13.7005 10.7633 13.0664 11.5439C13.8252 11.4973 14.484 11.3788 15.1828 11.0009ZM4.24887 14.748C5.88021 13.8612 8.09267 13.26 10.53 13.26C11.7635 13.26 12.9394 13.4147 14.0114 13.6816C14.065 13.6949 14.1154 13.7187 14.1597 13.7514C14.2041 13.7842 14.2416 13.8254 14.2701 13.8727C14.2985 13.9199 14.3174 13.9724 14.3256 14.0269C14.3338 14.0815 14.3312 14.1371 14.3179 14.1907C14.3046 14.2442 14.2808 14.2946 14.248 14.339C14.2153 14.3834 14.1741 14.4208 14.1268 14.4493C14.0795 14.4777 14.0271 14.4966 13.9725 14.5048C13.918 14.513 13.8623 14.5103 13.8088 14.497C13.605 14.4463 13.3939 14.4035 13.1821 14.3617L10.9114 19.3147C10.8778 19.3876 10.824 19.4493 10.7564 19.4926C10.6888 19.5359 10.6103 19.5589 10.53 19.5589C10.4497 19.5589 10.3712 19.5359 10.3036 19.4926C10.236 19.4493 10.1822 19.3876 10.1486 19.3147L7.87875 14.3617C6.64524 14.6056 5.53886 15.0023 4.65 15.4855C3.16022 16.2954 2.34 17.3341 2.34 18.113V20.4H14.292C14.3476 20.3992 14.4029 20.4095 14.4545 20.4302C14.5062 20.451 14.5532 20.4818 14.5928 20.5209C14.6324 20.56 14.6639 20.6065 14.6854 20.6579C14.7069 20.7092 14.7179 20.7643 14.7179 20.82C14.7179 20.8757 14.7069 20.9308 14.6854 20.9821C14.6639 21.0335 14.6324 21.08 14.5928 21.1191C14.5532 21.1582 14.5062 21.189 14.4545 21.2098C14.4029 21.2305 14.3476 21.2408 14.292 21.24H1.5V18.113C1.5 16.8124 2.61752 15.6349 4.24887 14.748ZM12.324 14.2189C11.7454 14.143 11.1461 14.1 10.53 14.1C9.91443 14.1 9.31518 14.1437 8.7368 14.2198L10.53 18.1327L12.324 14.2189Z" fill="#414141"/>
<path d="M7.59 1.97168L7.5037 1.79126V1.79126L7.59 1.97168ZM13.47 1.97168L13.3837 2.1521V2.1521L13.47 1.97168ZM14.0278 2.35887L14.1736 2.22195L14.1736 2.22195L14.0278 2.35887ZM14.2124 2.63777L14.4006 2.57009L14.3981 2.56318L14.3951 2.55646L14.2124 2.63777ZM14.2345 2.73293L14.0358 2.7553L14.0359 2.75596L14.2345 2.73293ZM14.8522 8.06168L14.6536 8.08471L14.6569 8.11394L14.6686 8.14095L14.8522 8.06168ZM14.8826 8.16996L14.6845 8.19768L14.6848 8.19992L14.8826 8.16996ZM16.1139 10.9049L15.9549 11.0262L15.9549 11.0263L16.1139 10.9049ZM16.013 11.5095L15.9021 11.343L15.902 11.343L16.013 11.5095ZM12.2221 12.4157L12.2259 12.6157L12.2221 12.4157ZM12.041 12.4192L12.037 12.2192L11.9863 12.2202L11.9422 12.2453L12.041 12.4192ZM9.01898 12.4192L9.11784 12.2453L9.07373 12.2202L9.023 12.2192L9.01898 12.4192ZM8.83787 12.4157L8.83412 12.6157H8.83412L8.83787 12.4157ZM5.04703 11.5095L5.15797 11.343L5.15792 11.343L5.04703 11.5095ZM4.92725 11.388L5.09517 11.2794L5.09517 11.2794L4.92725 11.388ZM4.94613 10.9049L5.10506 11.0263L5.10515 11.0262L4.94613 10.9049ZM6.17742 8.16996L6.37518 8.19993L6.37549 8.19768L6.17742 8.16996ZM6.20777 8.06168L6.39139 8.14095L6.40305 8.11394L6.40644 8.08471L6.20777 8.06168ZM6.82547 2.73293L7.02414 2.75596L7.02421 2.75531L6.82547 2.73293ZM6.84762 2.63777L6.66489 2.55646L6.6619 2.56317L6.65942 2.57009L6.84762 2.63777ZM13.1082 2.72965L13.1945 2.54922V2.54922L13.1082 2.72965ZM7.95176 2.72965L7.86546 2.54922V2.54922L7.95176 2.72965ZM7.64824 2.93145L7.50315 2.79379L7.45726 2.84216L7.44957 2.90839L7.64824 2.93145ZM7.15195 7.20855L6.95329 7.1855L7.33469 7.28984L7.15195 7.20855ZM7.15774 7.19295L7.34732 7.25665L7.34732 7.25665L7.15774 7.19295ZM7.16426 7.17574L7.34519 7.26097L7.34519 7.26097L7.16426 7.17574ZM7.99605 6.53344L8.03661 6.72928H8.03661L7.99605 6.53344ZM9.09199 6.50801L9.07684 6.70743H9.07684L9.09199 6.50801ZM9.32441 6.52657L9.3407 6.32723L9.32441 6.52657ZM11.7346 6.52693L11.7508 6.72627L11.7346 6.52693ZM13.0639 6.53344L13.0234 6.72928H13.0234L13.0639 6.53344ZM13.8957 7.17574L14.0767 7.09052L14.0767 7.09052L13.8957 7.17574ZM13.9023 7.19296L14.0918 7.12926L14.0918 7.12925L13.9023 7.19296ZM13.908 7.20855L13.7253 7.28984L14.1067 7.1855L13.908 7.20855ZM13.4118 2.93145L13.6104 2.90839L13.6027 2.84216L13.5569 2.7938L13.4118 2.93145ZM10.11 3.09387V2.89387H9.91V3.09387H10.11ZM10.11 4.23984V4.43984H10.31V4.23984H10.11ZM10.95 3.09387H11.15V2.89387H10.95V3.09387ZM10.95 4.23984H10.75V4.43984H10.95V4.23984ZM12.0952 4.23984H12.2952V4.03984H12.0952V4.23984ZM12.0952 5.07984V5.27984H12.2952V5.07984H12.0952ZM10.95 5.07984V4.87984H10.75V5.07984H10.95ZM10.95 6.225V6.425H11.15V6.225H10.95ZM10.11 6.225H9.91V6.425H10.11V6.225ZM10.11 5.07984H10.31V4.87984H10.11V5.07984ZM8.96484 5.07984H8.76484V5.27984H8.96484V5.07984ZM8.96484 4.23984V4.03984H8.76484V4.23984H8.96484ZM8.50137 7.33898L8.49625 7.53892L8.50137 7.33898ZM9.04578 7.36874L9.03267 7.56831H9.03267L9.04578 7.36874ZM7.92469 7.5334L7.74376 7.44817L7.92469 7.5334ZM13.1353 7.5334L12.9544 7.61863L13.1353 7.5334ZM12.8941 7.35539L12.9347 7.15955L12.9347 7.15955L12.8941 7.35539ZM12.0136 7.36849L12.0267 7.56805L12.0136 7.36849ZM6.96164 8.54402L7.16163 8.54214L6.76515 8.5067L6.96164 8.54402ZM7.99359 11.5439L7.98134 11.7435L8.43611 11.7715L8.14883 11.4178L7.99359 11.5439ZM5.87719 11.0009L5.71353 10.8859L5.58431 11.0698L5.78205 11.1768L5.87719 11.0009ZM14.0984 8.54402L14.2948 8.5067L13.8984 8.54214L14.0984 8.54402ZM15.1828 11.0009L15.2779 11.1768L15.4757 11.0698L15.3465 10.8859L15.1828 11.0009ZM13.0664 11.5439L12.9112 11.4178L12.6239 11.7715L13.0787 11.7435L13.0664 11.5439ZM4.24887 14.748L4.34439 14.9238L4.24887 14.748ZM14.0114 13.6816L13.9631 13.8757L13.9632 13.8757L14.0114 13.6816ZM14.1597 13.7514L14.2786 13.5905L14.2786 13.5905L14.1597 13.7514ZM14.2701 13.8727L14.0987 13.9758L14.0987 13.9758L14.2701 13.8727ZM14.3256 14.0269L14.1278 14.0566V14.0566L14.3256 14.0269ZM14.3179 14.1907L14.1238 14.1424L14.1238 14.1424L14.3179 14.1907ZM14.248 14.339L14.0872 14.2201L14.0872 14.2201L14.248 14.339ZM14.1268 14.4493L14.0237 14.2779L14.0237 14.2779L14.1268 14.4493ZM13.9725 14.5048L13.9428 14.307H13.9428L13.9725 14.5048ZM13.8088 14.497L13.7605 14.6911L13.7605 14.6911L13.8088 14.497ZM13.1821 14.3617L13.2208 14.1655L13.066 14.1349L13.0003 14.2783L13.1821 14.3617ZM10.9114 19.3147L11.0931 19.3985L11.0933 19.3981L10.9114 19.3147ZM10.1486 19.3147L9.96674 19.398L9.96693 19.3985L10.1486 19.3147ZM7.87875 14.3617L8.06057 14.2784L7.99481 14.1349L7.83995 14.1655L7.87875 14.3617ZM4.65 15.4855L4.55448 15.3098L4.65 15.4855ZM2.34 20.4H2.14V20.6H2.34V20.4ZM14.292 20.4V20.6L14.2948 20.6L14.292 20.4ZM14.4545 20.4302L14.3799 20.6158H14.3799L14.4545 20.4302ZM14.5928 20.5209L14.4524 20.6633L14.4524 20.6633L14.5928 20.5209ZM14.6854 20.6579L14.8699 20.5807L14.8699 20.5807L14.6854 20.6579ZM14.6854 20.9821L14.8699 21.0593L14.6854 20.9821ZM14.5928 21.1191L14.7332 21.2615L14.7332 21.2615L14.5928 21.1191ZM14.4545 21.2098L14.3799 21.0242H14.3799L14.4545 21.2098ZM14.292 21.24L14.2948 21.04H14.292V21.24ZM1.5 21.24H1.3V21.44H1.5V21.24ZM12.324 14.2189L12.5058 14.3023L12.6188 14.0559L12.35 14.0206L12.324 14.2189ZM8.7368 14.2198L8.71073 14.0215L8.4421 14.0568L8.55498 14.3031L8.7368 14.2198ZM10.53 18.1327L10.3482 18.216L10.53 18.6127L10.7118 18.216L10.53 18.1327ZM10.53 1.3C8.98578 1.3 8.07183 1.51952 7.5037 1.79126L7.6763 2.1521C8.1707 1.91563 9.01873 1.7 10.53 1.7V1.3ZM13.5563 1.79126C12.9882 1.51952 12.0742 1.3 10.53 1.3V1.7C12.0413 1.7 12.8893 1.91563 13.3837 2.1521L13.5563 1.79126ZM14.1736 2.22195C14.0397 2.07938 13.8414 1.92764 13.5563 1.79126L13.3837 2.1521C13.6298 2.26982 13.7861 2.39366 13.882 2.49579L14.1736 2.22195ZM14.2124 2.63777C14.3951 2.55646 14.3951 2.55644 14.3951 2.55641C14.3951 2.55639 14.3951 2.55636 14.3951 2.55634C14.395 2.5563 14.395 2.55625 14.395 2.55621C14.3949 2.55611 14.3949 2.556 14.3949 2.55589C14.3947 2.55566 14.3946 2.55539 14.3945 2.55508C14.3942 2.55446 14.3939 2.55369 14.3934 2.55278C14.3926 2.55095 14.3915 2.54853 14.3901 2.54557C14.3873 2.53966 14.3834 2.53157 14.3784 2.52168C14.3686 2.50196 14.3543 2.47479 14.3359 2.44336C14.2999 2.38172 14.2451 2.2981 14.1736 2.22195L13.882 2.49579C13.9254 2.54198 13.9629 2.59781 13.9905 2.64504C14.0039 2.66804 14.0142 2.68766 14.021 2.70112C14.0243 2.70782 14.0268 2.71291 14.0282 2.71604C14.029 2.71761 14.0295 2.71867 14.0297 2.71919C14.0298 2.71946 14.0299 2.71958 14.0299 2.71956C14.0299 2.71956 14.0298 2.71951 14.0298 2.71943C14.0298 2.71939 14.0298 2.71934 14.0297 2.71928C14.0297 2.71926 14.0297 2.71922 14.0297 2.71919C14.0297 2.71917 14.0297 2.71915 14.0297 2.71914C14.0297 2.71911 14.0297 2.71908 14.2124 2.63777ZM14.4333 2.71056C14.4279 2.66262 14.4169 2.61547 14.4006 2.57009L14.0242 2.70546C14.03 2.72157 14.0339 2.7383 14.0358 2.7553L14.4333 2.71056ZM15.0509 8.03865L14.4332 2.7099L14.0359 2.75596L14.6536 8.08471L15.0509 8.03865ZM15.0806 8.14224C15.0729 8.0872 15.0579 8.03344 15.0358 7.98241L14.6686 8.14095C14.6764 8.15906 14.6818 8.17814 14.6845 8.19768L15.0806 8.14224ZM16.2729 10.7836C15.9437 10.3521 15.6937 9.99534 15.5016 9.59602C15.3104 9.19877 15.173 8.75172 15.0803 8.14L14.6848 8.19992C14.7823 8.84327 14.9296 9.3299 15.1411 9.76946C15.3517 10.2069 15.6222 10.5901 15.9549 11.0262L16.2729 10.7836ZM16.3818 11.0104C16.3614 10.9281 16.3243 10.8509 16.2728 10.7835L15.9549 11.0263C15.9732 11.0502 15.9864 11.0776 15.9936 11.1068L16.3818 11.0104ZM16.3917 11.2619C16.4056 11.1783 16.4023 11.0927 16.3818 11.0104L15.9936 11.1068C16.0009 11.136 16.0021 11.1664 15.9971 11.1961L16.3917 11.2619ZM16.3007 11.4967C16.3467 11.4255 16.3777 11.3456 16.3917 11.2619L15.9971 11.1961C15.9922 11.2258 15.9812 11.2541 15.9648 11.2794L16.3007 11.4967ZM16.1239 11.6759C16.1944 11.6289 16.2546 11.5679 16.3007 11.4967L15.9648 11.2794C15.9485 11.3047 15.9271 11.3263 15.9021 11.343L16.1239 11.6759ZM12.2259 12.6157C13.5357 12.5911 14.7813 12.571 16.1239 11.6759L15.902 11.343C14.6667 12.1666 13.5312 12.1911 12.2184 12.2157L12.2259 12.6157ZM12.045 12.6191C12.1055 12.6179 12.1657 12.6168 12.2259 12.6157L12.2184 12.2157C12.1583 12.2169 12.0978 12.218 12.037 12.2192L12.045 12.6191ZM10.53 13.0285C11.1133 13.0285 11.6565 12.8679 12.1399 12.593L11.9422 12.2453C11.5134 12.4891 11.0377 12.6285 10.53 12.6285V13.0285ZM8.92013 12.593C9.40348 12.8679 9.94672 13.0285 10.53 13.0285V12.6285C10.0223 12.6285 9.54661 12.4891 9.11784 12.2453L8.92013 12.593ZM8.83412 12.6157C8.89425 12.6168 8.95448 12.6179 9.01497 12.6191L9.023 12.2192C8.9622 12.218 8.90171 12.2169 8.84162 12.2157L8.83412 12.6157ZM4.93609 11.6759C6.27874 12.571 7.52433 12.5911 8.83412 12.6157L8.84162 12.2157C7.52878 12.1911 6.3933 12.1666 5.15797 11.343L4.93609 11.6759ZM4.75933 11.4967C4.80539 11.5679 4.86557 11.6289 4.93615 11.6759L5.15792 11.343C5.13287 11.3263 5.11152 11.3047 5.09517 11.2794L4.75933 11.4967ZM4.66833 11.2619C4.68229 11.3456 4.71326 11.4255 4.75933 11.4967L5.09517 11.2794C5.07882 11.2541 5.06783 11.2258 5.06288 11.1961L4.66833 11.2619ZM4.67817 11.0104C4.65772 11.0927 4.65437 11.1783 4.66833 11.2619L5.06288 11.1961C5.05792 11.1664 5.05911 11.136 5.06637 11.1068L4.67817 11.0104ZM4.7872 10.7835C4.73572 10.8509 4.69861 10.9281 4.67817 11.0104L5.06637 11.1068C5.07362 11.0776 5.08679 11.0502 5.10506 11.0263L4.7872 10.7835ZM5.97968 8.14C5.88699 8.75172 5.74956 9.19877 5.55841 9.59602C5.36626 9.99534 5.11627 10.3521 4.78712 10.7836L5.10515 11.0262C5.43777 10.5901 5.70834 10.2069 5.91885 9.76946C6.13036 9.3299 6.27768 8.84327 6.37516 8.19992L5.97968 8.14ZM6.02415 7.98241C6.00212 8.03344 5.98705 8.0872 5.97935 8.14224L6.37549 8.19768C6.37823 8.17814 6.38357 8.15906 6.39139 8.14095L6.02415 7.98241ZM6.6268 2.7099L6.0091 8.03865L6.40644 8.08471L7.02414 2.75596L6.6268 2.7099ZM6.65942 2.57009C6.64309 2.61548 6.63212 2.66262 6.62673 2.71055L7.02421 2.75531C7.02613 2.73829 7.03002 2.72157 7.03581 2.70546L6.65942 2.57009ZM6.8864 2.22195C6.81489 2.2981 6.76008 2.38172 6.72409 2.44336C6.70574 2.47479 6.69145 2.50196 6.68155 2.52168C6.67659 2.53157 6.67269 2.53966 6.66991 2.54557C6.66851 2.54853 6.6674 2.55095 6.66656 2.55278C6.66614 2.55369 6.66579 2.55446 6.66551 2.55508C6.66537 2.55539 6.66525 2.55566 6.66515 2.55589C6.6651 2.556 6.66505 2.55611 6.66501 2.55621C6.66499 2.55625 6.66496 2.5563 6.66495 2.55634C6.66494 2.55636 6.66492 2.55639 6.66492 2.55641C6.6649 2.55644 6.66489 2.55646 6.84762 2.63777C7.03034 2.71908 7.03033 2.71911 7.03032 2.71914C7.03031 2.71915 7.0303 2.71917 7.0303 2.71919C7.03028 2.71922 7.03027 2.71926 7.03025 2.71928C7.03023 2.71934 7.03021 2.71939 7.03019 2.71943C7.03015 2.71951 7.03013 2.71956 7.03013 2.71956C7.03012 2.71958 7.03018 2.71946 7.0303 2.71919C7.03054 2.71867 7.03103 2.71761 7.03176 2.71604C7.03324 2.71291 7.03568 2.70782 7.03905 2.70112C7.0458 2.68766 7.0561 2.66804 7.06953 2.64504C7.0971 2.59781 7.13458 2.54198 7.17797 2.49579L6.8864 2.22195ZM7.5037 1.79126C7.21856 1.92764 7.0203 2.07938 6.8864 2.22195L7.17797 2.49579C7.27388 2.39366 7.43018 2.26982 7.6763 2.1521L7.5037 1.79126ZM10.53 2.54C11.9602 2.54 12.69 2.7513 13.0219 2.91007L13.1945 2.54922C12.7889 2.3552 11.9932 2.14 10.53 2.14V2.54ZM8.03805 2.91007C8.37001 2.7513 9.0998 2.54 10.53 2.54V2.14C9.06681 2.14 8.27111 2.3552 7.86546 2.54922L8.03805 2.91007ZM7.79333 3.0691C7.81253 3.04887 7.87601 2.98758 8.03805 2.91007L7.86546 2.54922C7.66348 2.64583 7.55902 2.7349 7.50315 2.79379L7.79333 3.0691ZM7.35062 7.23161L7.84691 2.9545L7.44957 2.90839L6.95329 7.1855L7.35062 7.23161ZM6.96815 7.12926C6.96767 7.13068 6.96741 7.13146 6.96718 7.13214C6.96696 7.13277 6.9669 7.13293 6.96695 7.13281C6.967 7.13265 6.96778 7.1305 6.96922 7.12727L7.33469 7.28984C7.34141 7.27472 7.3461 7.26028 7.34732 7.25665L6.96815 7.12926ZM6.98333 7.09051C6.97494 7.10831 6.96943 7.12546 6.96815 7.12926L7.34732 7.25665C7.34847 7.25325 7.34856 7.25302 7.34847 7.25325C7.34829 7.25375 7.34719 7.25671 7.34519 7.26097L6.98333 7.09051ZM7.9555 6.33759C7.56622 6.41821 7.17498 6.68365 6.98333 7.09052L7.34519 7.26097C7.47692 6.98131 7.7552 6.78756 8.03661 6.72928L7.9555 6.33759ZM9.10714 6.30858C8.6973 6.27745 8.32091 6.26192 7.9555 6.33759L8.03661 6.72928C8.34189 6.66606 8.66859 6.67642 9.07684 6.70743L9.10714 6.30858ZM9.3407 6.32723C9.26122 6.32074 9.18326 6.31436 9.10714 6.30858L9.07684 6.70743C9.15162 6.71311 9.22843 6.71939 9.30812 6.7259L9.3407 6.32723ZM10.53 6.38758C10.0801 6.38758 9.6928 6.356 9.3407 6.32723L9.30812 6.7259C9.65979 6.75464 10.0619 6.78758 10.53 6.78758V6.38758ZM11.7184 6.32759C11.3666 6.35619 10.9796 6.38758 10.53 6.38758V6.78758C10.9977 6.78758 11.3994 6.75484 11.7508 6.72627L11.7184 6.32759ZM13.1045 6.33759C12.6736 6.24835 12.2221 6.28663 11.7184 6.32759L11.7508 6.72627C12.2693 6.68412 12.6596 6.65394 13.0234 6.72928L13.1045 6.33759ZM14.0767 7.09052C13.885 6.68364 13.4938 6.41821 13.1045 6.33759L13.0234 6.72928C13.3048 6.78756 13.5831 6.98131 13.7148 7.26097L14.0767 7.09052ZM14.0918 7.12925C14.0906 7.12545 14.0851 7.10831 14.0767 7.09052L13.7148 7.26096C13.7128 7.25671 13.7117 7.25375 13.7115 7.25325C13.7114 7.25303 13.7115 7.25326 13.7127 7.25666L14.0918 7.12925ZM14.0908 7.12727C14.0922 7.1305 14.093 7.13265 14.0931 7.1328C14.0931 7.13293 14.093 7.13277 14.0928 7.13214C14.0926 7.13146 14.0923 7.13068 14.0918 7.12926L13.7127 7.25665C13.7139 7.26029 13.7186 7.27473 13.7253 7.28984L14.0908 7.12727ZM13.2131 2.9545L13.7094 7.23161L14.1067 7.1855L13.6104 2.90839L13.2131 2.9545ZM13.0219 2.91007C13.184 2.98758 13.2475 3.04887 13.2667 3.06909L13.5569 2.7938C13.501 2.7349 13.3965 2.64583 13.1945 2.54922L13.0219 2.91007ZM9.91 3.09387V4.23984H10.31V3.09387H9.91ZM10.95 2.89387H10.11V3.29387H10.95V2.89387ZM11.15 4.23984V3.09387H10.75V4.23984H11.15ZM12.0952 4.03984H10.95V4.43984H12.0952V4.03984ZM12.2952 5.07984V4.23984H11.8952V5.07984H12.2952ZM10.95 5.27984H12.0952V4.87984H10.95V5.27984ZM11.15 6.225V5.07984H10.75V6.225H11.15ZM10.11 6.425H10.95V6.025H10.11V6.425ZM9.91 5.07984V6.225H10.31V5.07984H9.91ZM8.96484 5.27984H10.11V4.87984H8.96484V5.27984ZM8.76484 4.23984V5.07984H9.16484V4.23984H8.76484ZM10.11 4.03984H8.96484V4.43984H10.11V4.03984ZM8.49625 7.53892C8.64083 7.54262 8.81867 7.55426 9.03267 7.56831L9.05888 7.16917C8.84768 7.1553 8.66082 7.143 8.50648 7.13905L8.49625 7.53892ZM8.20642 7.55124C8.26225 7.53967 8.35457 7.53529 8.49625 7.53892L8.50648 7.13905C8.36309 7.13538 8.23025 7.13781 8.1253 7.15955L8.20642 7.55124ZM8.10562 7.61862C8.12184 7.58418 8.13022 7.56843 8.13572 7.5598C8.13943 7.55397 8.13627 7.56033 8.12628 7.56755C8.11749 7.57388 8.11337 7.57355 8.12684 7.56952C8.14215 7.56493 8.16459 7.5599 8.20642 7.55124L8.1253 7.15955C8.05979 7.17311 7.96652 7.18956 7.89222 7.24318C7.81147 7.30144 7.77227 7.38763 7.74376 7.44817L8.10562 7.61862ZM8 8.4948C8 7.98845 8.06081 7.71375 8.10562 7.61862L7.74376 7.44817C7.65913 7.62782 7.6 7.97818 7.6 8.4948H8ZM10.53 11.7885C9.23205 11.7885 8 10.3966 8 8.4948H7.6C7.6 10.5292 8.93218 12.1885 10.53 12.1885V11.7885ZM13.06 8.4948C13.06 10.3966 11.828 11.7885 10.53 11.7885V12.1885C12.1278 12.1885 13.46 10.5292 13.46 8.4948H13.06ZM12.9544 7.61863C12.9992 7.71375 13.06 7.98845 13.06 8.4948H13.46C13.46 7.97818 13.4009 7.62782 13.3162 7.44817L12.9544 7.61863ZM12.8536 7.55123C12.8954 7.5599 12.9178 7.56493 12.9332 7.56952C12.9466 7.57355 12.9425 7.57388 12.9337 7.56755C12.9237 7.56033 12.9206 7.55397 12.9243 7.5598C12.9298 7.56843 12.9382 7.58418 12.9544 7.61863L13.3162 7.44817C13.2877 7.38763 13.2485 7.30144 13.1678 7.24318C13.0935 7.18956 13.0002 7.17311 12.9347 7.15955L12.8536 7.55123ZM12.0267 7.56805C12.2359 7.55426 12.4106 7.54277 12.5535 7.53878C12.6999 7.5347 12.7959 7.53928 12.8536 7.55124L12.9347 7.15955C12.8277 7.13738 12.6911 7.13479 12.5424 7.13894C12.3902 7.14318 12.2069 7.1553 12.0004 7.16892L12.0267 7.56805ZM10.53 7.62758C11.125 7.62758 11.6311 7.59415 12.0267 7.56805L12.0004 7.16892C11.6049 7.19501 11.1105 7.22758 10.53 7.22758V7.62758ZM9.03267 7.56831C9.42842 7.59429 9.93469 7.62758 10.53 7.62758V7.22758C9.94911 7.22758 9.45449 7.19514 9.05888 7.16917L9.03267 7.56831ZM6.76165 8.54591C6.7729 9.74067 7.1739 10.852 7.83836 11.67L8.14883 11.4178C7.54502 10.6745 7.17208 9.65214 7.16163 8.54214L6.76165 8.54591ZM6.04084 11.1158C6.54601 10.3967 6.95363 9.65792 7.15813 8.58135L6.76515 8.5067C6.57462 9.5098 6.19823 10.1959 5.71353 10.8859L6.04084 11.1158ZM8.00585 11.3443C7.26273 11.2987 6.636 11.1838 5.97233 10.8249L5.78205 11.1768C6.51609 11.5738 7.20688 11.696 7.98134 11.7435L8.00585 11.3443ZM13.9019 8.58135C14.1064 9.65792 14.514 10.3967 15.0192 11.1158L15.3465 10.8859C14.8618 10.1959 14.4854 9.5098 14.2948 8.5067L13.9019 8.58135ZM13.2216 11.67C13.8861 10.852 14.2871 9.74067 14.2984 8.54591L13.8984 8.54214C13.8879 9.65214 13.515 10.6745 12.9112 11.4178L13.2216 11.67ZM15.0877 10.8249C14.424 11.1838 13.7973 11.2987 13.0541 11.3443L13.0787 11.7435C13.8531 11.696 14.5439 11.5737 15.2779 11.1768L15.0877 10.8249ZM10.53 13.06C8.06147 13.06 5.81586 13.6686 4.15335 14.5723L4.34439 14.9238C5.94457 14.0539 8.12386 13.46 10.53 13.46V13.06ZM14.0597 13.4876C12.9722 13.2168 11.7801 13.06 10.53 13.06V13.46C11.7469 13.46 12.9066 13.6127 13.9631 13.8757L14.0597 13.4876ZM14.2786 13.5905C14.213 13.5422 14.1386 13.5072 14.0596 13.4875L13.9632 13.8757C13.9913 13.8827 14.0177 13.8951 14.0409 13.9123L14.2786 13.5905ZM14.4414 13.7695C14.3994 13.6997 14.3441 13.6389 14.2786 13.5905L14.0409 13.9123C14.0642 13.9295 14.0838 13.9511 14.0987 13.9758L14.4414 13.7695ZM14.5234 13.9972C14.5113 13.9167 14.4834 13.8393 14.4414 13.7695L14.0987 13.9758C14.1136 14.0006 14.1235 14.0281 14.1278 14.0566L14.5234 13.9972ZM14.512 14.2389C14.5316 14.1599 14.5355 14.0777 14.5234 13.9972L14.1278 14.0566C14.1321 14.0852 14.1307 14.1144 14.1238 14.1424L14.512 14.2389ZM14.4089 14.4578C14.4573 14.3923 14.4923 14.3179 14.512 14.2389L14.1238 14.1424C14.1168 14.1705 14.1044 14.1969 14.0872 14.2201L14.4089 14.4578ZM14.2299 14.6207C14.2997 14.5787 14.3605 14.5233 14.4089 14.4578L14.0872 14.2201C14.07 14.2434 14.0484 14.263 14.0237 14.2779L14.2299 14.6207ZM14.0022 14.7026C14.0828 14.6905 14.1601 14.6626 14.2299 14.6207L14.0237 14.2779C13.9989 14.2928 13.9714 14.3027 13.9428 14.307L14.0022 14.7026ZM13.7605 14.6911C13.8396 14.7108 13.9217 14.7147 14.0022 14.7026L13.9428 14.307C13.9143 14.3113 13.8851 14.3099 13.8571 14.3029L13.7605 14.6911ZM13.1433 14.5579C13.3551 14.5997 13.5619 14.6417 13.7605 14.6911L13.8571 14.303C13.6481 14.2509 13.4327 14.2073 13.2208 14.1655L13.1433 14.5579ZM11.0933 19.3981L13.3639 14.445L13.0003 14.2783L10.7296 19.2314L11.0933 19.3981ZM10.8643 19.6611C10.9641 19.5972 11.0435 19.5061 11.0931 19.3985L10.7298 19.231C10.7122 19.2692 10.684 19.3015 10.6486 19.3242L10.8643 19.6611ZM10.53 19.7589C10.6485 19.7589 10.7645 19.7249 10.8643 19.6611L10.6486 19.3242C10.6132 19.3468 10.572 19.3589 10.53 19.3589V19.7589ZM10.1957 19.6611C10.2955 19.7249 10.4115 19.7589 10.53 19.7589V19.3589C10.488 19.3589 10.4468 19.3468 10.4114 19.3242L10.1957 19.6611ZM9.96693 19.3985C10.0165 19.5061 10.0959 19.5972 10.1957 19.6611L10.4114 19.3242C10.376 19.3015 10.3478 19.2692 10.3302 19.231L9.96693 19.3985ZM7.69693 14.445L9.96674 19.398L10.3304 19.2314L8.06057 14.2784L7.69693 14.445ZM4.74552 15.6612C5.61449 15.1888 6.70135 14.7984 7.91755 14.5579L7.83995 14.1655C6.58913 14.4128 5.46323 14.8158 4.55448 15.3098L4.74552 15.6612ZM2.54 18.113C2.54 17.7902 2.71291 17.3806 3.08843 16.9407C3.46072 16.5047 4.01752 16.057 4.74552 15.6612L4.55448 15.3098C3.7927 15.7239 3.19449 16.2005 2.78423 16.681C2.3772 17.1577 2.14 17.6569 2.14 18.113H2.54ZM2.54 20.4V18.113H2.14V20.4H2.54ZM14.292 20.2H2.34V20.6H14.292V20.2ZM14.5291 20.2447C14.4528 20.214 14.3713 20.1989 14.2891 20.2L14.2948 20.6C14.3239 20.5996 14.3529 20.605 14.3799 20.6158L14.5291 20.2447ZM14.7332 20.3785C14.6747 20.3208 14.6053 20.2753 14.5291 20.2447L14.3799 20.6158C14.407 20.6267 14.4316 20.6428 14.4524 20.6633L14.7332 20.3785ZM14.8699 20.5807C14.8382 20.5049 14.7917 20.4362 14.7332 20.3785L14.4524 20.6633C14.4731 20.6838 14.4896 20.7082 14.5009 20.7351L14.8699 20.5807ZM14.9179 20.82C14.9179 20.7378 14.9016 20.6565 14.8699 20.5807L14.5009 20.7351C14.5121 20.762 14.5179 20.7908 14.5179 20.82H14.9179ZM14.8699 21.0593C14.9016 20.9835 14.9179 20.9022 14.9179 20.82H14.5179C14.5179 20.8492 14.5121 20.878 14.5009 20.9049L14.8699 21.0593ZM14.7332 21.2615C14.7917 21.2038 14.8382 21.1351 14.8699 21.0593L14.5009 20.9049C14.4896 20.9318 14.4731 20.9562 14.4524 20.9767L14.7332 21.2615ZM14.5291 21.3953C14.6053 21.3647 14.6747 21.3192 14.7332 21.2615L14.4524 20.9767C14.4316 20.9972 14.407 21.0133 14.3799 21.0242L14.5291 21.3953ZM14.2891 21.44C14.3713 21.4411 14.4528 21.426 14.5291 21.3953L14.3799 21.0242C14.3529 21.035 14.3239 21.0404 14.2948 21.04L14.2891 21.44ZM1.5 21.44H14.292V21.04H1.5V21.44ZM1.3 18.113V21.24H1.7V18.113H1.3ZM4.15335 14.5723C2.5099 15.4657 1.3 16.6944 1.3 18.113H1.7C1.7 16.9304 2.72515 15.804 4.34439 14.9238L4.15335 14.5723ZM10.53 14.3C11.1368 14.3 11.7273 14.3424 12.298 14.4172L12.35 14.0206C11.7634 13.9437 11.1554 13.9 10.53 13.9V14.3ZM8.76287 14.4181C9.33338 14.3431 9.9239 14.3 10.53 14.3V13.9C9.90496 13.9 9.29697 13.9444 8.71073 14.0215L8.76287 14.4181ZM10.7118 18.0493L8.91861 14.1364L8.55498 14.3031L10.3482 18.216L10.7118 18.0493ZM12.1422 14.1356L10.3482 18.0493L10.7118 18.216L12.5058 14.3023L12.1422 14.1356Z" fill="#414141" mask="url(#path-2-outside-1)"/>
<defs>
<clipPath id="clip0">
<rect width="9" height="13" fill="white" transform="matrix(-1 0 0 1 24 11)"/>
</clipPath>
</defs>
</svg>
