<svg width="16" height="16" viewBox="0 0 16 16" fill="none" xmlns="http://www.w3.org/2000/svg">
<path d="M8.00016 1.33331C4.32419 1.33331 1.3335 4.324 1.3335 7.99998C1.3335 11.676 4.32419 14.6666 8.00016 14.6666C11.6761 14.6666 14.6668 11.676 14.6668 7.99998C14.6668 4.324 11.6761 1.33331 8.00016 1.33331ZM8.00016 2.33331C11.1357 2.33331 13.6668 4.86444 13.6668 7.99998C13.6668 11.1355 11.1357 13.6666 8.00016 13.6666C4.86462 13.6666 2.3335 11.1355 2.3335 7.99998C2.3335 4.86444 4.86462 2.33331 8.00016 2.33331ZM7.99235 4.32615C7.85986 4.32822 7.7336 4.3828 7.64132 4.47789C7.54903 4.57298 7.49826 4.70082 7.50016 4.83331V8.83331C7.49923 8.89957 7.51147 8.96535 7.53617 9.02684C7.56088 9.08832 7.59756 9.14428 7.64408 9.19146C7.69061 9.23865 7.74604 9.27612 7.80717 9.30169C7.8683 9.32727 7.9339 9.34044 8.00016 9.34044C8.06643 9.34044 8.13203 9.32727 8.19316 9.30169C8.25429 9.27612 8.30972 9.23865 8.35624 9.19146C8.40277 9.14428 8.43945 9.08832 8.46415 9.02684C8.48886 8.96535 8.5011 8.89957 8.50016 8.83331V4.83331C8.50112 4.76639 8.48864 4.69996 8.46345 4.63795C8.43826 4.57594 8.40088 4.51962 8.35353 4.47233C8.30617 4.42503 8.2498 4.38772 8.18776 4.36261C8.12572 4.33751 8.05927 4.32511 7.99235 4.32615ZM8.00016 10.3333C7.82335 10.3333 7.65378 10.4036 7.52876 10.5286C7.40373 10.6536 7.3335 10.8232 7.3335 11C7.3335 11.1768 7.40373 11.3464 7.52876 11.4714C7.65378 11.5964 7.82335 11.6666 8.00016 11.6666C8.17697 11.6666 8.34654 11.5964 8.47157 11.4714C8.59659 11.3464 8.66683 11.1768 8.66683 11C8.66683 10.8232 8.59659 10.6536 8.47157 10.5286C8.34654 10.4036 8.17697 10.3333 8.00016 10.3333Z" fill="#EB5757"/>
</svg>
