<svg width="24" height="24" viewBox="0 0 24 24" fill="none" xmlns="http://www.w3.org/2000/svg">
<path d="M6.25 3C4.46403 3 3 4.46403 3 6.25V17.75C3 19.536 4.46403 21 6.25 21H17.75C19.536 21 21 19.536 21 17.75V6.25C21 4.46403 19.536 3 17.75 3H6.25ZM6.25 4.5H17.75C18.725 4.5 19.5 5.27497 19.5 6.25V13.5H15.4297C15.2467 13.5001 15.0701 13.567 14.933 13.6882C14.796 13.8095 14.708 13.9766 14.6855 14.1582C14.4921 15.7323 13.2115 16.5 12 16.5C10.7885 16.5 9.50837 15.7325 9.31445 14.1582C9.29204 13.9766 9.20403 13.8095 9.06697 13.6882C8.92992 13.567 8.75328 13.5001 8.57031 13.5H4.5V6.25C4.5 5.27497 5.27497 4.5 6.25 4.5Z" fill="#414141"/>
</svg>
