<svg width="24" height="24" viewBox="0 0 24 24" fill="none" xmlns="http://www.w3.org/2000/svg">
<path d="M9.6087 1L1 6.43917V16.5929C1 17.5896 1.86087 18.4053 2.91304 18.4053H12.5343C12.4989 18.1104 12.4783 17.8062 12.4783 17.4893V16.5929H2.91304V7.34629L9.6087 3.17567L16.3043 7.34629V11.9213L18.2174 11.1072V6.43917L9.6087 1ZM8.65217 6.61093V9.33051H5.78261V11.143H8.65217V13.8643H10.5652V11.143H13.4348V9.33051H10.5652V6.61093H8.65217ZM18.6957 12.9089L14.3913 14.7411V17.4893C14.3913 19.1323 15.0807 20.4305 15.9139 21.3146C16.7471 22.1987 17.6779 22.6983 18.4136 22.9159L18.6957 23L18.9778 22.9159C19.7134 22.6983 20.6442 22.1987 21.4774 21.3146C22.3106 20.4305 23 19.1323 23 17.4893V14.7411L18.6957 12.9089ZM18.6957 14.9128L21.087 15.9309V17.4893C21.087 18.6558 20.6317 19.476 20.0557 20.0872C19.5788 20.5932 19.0687 20.8231 18.6957 20.98C18.3226 20.8231 17.8125 20.5932 17.3356 20.0872C16.7596 19.476 16.3043 18.6558 16.3043 17.4893V15.9309L18.6957 14.9128Z" fill="#414141"/>
</svg>
