<svg width="24" height="24" viewBox="0 0 24 24" fill="none" xmlns="http://www.w3.org/2000/svg">
<path fill-rule="evenodd" clip-rule="evenodd" d="M10.2979 3.58691C10.7955 3.19507 11.3979 3 12 3C12.6021 3 13.2045 3.19604 13.7021 3.58789L19.5703 8.21191C20.4723 8.92273 21 10.0089 21 11.1572V19.7246C21 20.9584 19.9838 21.9746 18.75 21.9746H5.25C4.01625 21.9746 3 20.9584 3 19.7246V11.1572C3 10.0089 3.52774 8.92273 4.42969 8.21191L10.2979 3.58691ZM12.7744 4.76562C12.5456 4.58547 12.2726 4.49609 12 4.49609C11.7274 4.49609 11.4544 4.58547 11.2256 4.76562L5.35742 9.38965C4.81537 9.81683 4.5 10.4676 4.5 11.1572V19.7246C4.5 20.1479 4.82675 20.4746 5.25 20.4746H18.75C19.1733 20.4746 19.5 20.1479 19.5 19.7246V11.1572C19.5 10.4676 19.1846 9.81683 18.6426 9.38965L12.7744 4.76562Z" fill="#BCBCBC"/>
<path d="M10.5599 9.00003C10.5332 8.99971 10.5065 9.002 10.4802 9.00687C10.4631 9.00651 10.4474 9.00101 10.4301 9.00101C9.09904 9.00101 8.25941 9.46577 7.85257 10.1117C7.44573 10.7577 7.45978 11.5003 7.5572 12.0622C7.6746 12.7395 8.03932 13.9315 8.43564 15.1498C8.83202 16.3683 9.25865 17.5931 9.4909 18.252C9.4909 18.2522 9.4909 18.2524 9.4909 18.2525C9.64834 18.6989 10.0902 19 10.5819 19C11.2159 19 11.7374 18.4992 11.7338 17.8937V17.8932L11.7179 14.7617C11.7228 14.612 11.8433 14.5005 12 14.5005C12.1567 14.5005 12.2772 14.612 12.2821 14.7617L12.2662 17.8932V17.8937C12.263 18.4992 12.7844 19 13.4181 19C13.9098 19 14.3517 18.6989 14.5091 18.2525C14.5091 18.2524 14.5091 18.2522 14.5091 18.252C14.7414 17.5931 15.168 16.3683 15.5644 15.1498C15.9607 13.9315 16.3254 12.7395 16.4428 12.0622C16.5402 11.5003 16.5543 10.7577 16.1474 10.1117C15.7406 9.46578 14.901 9.00101 13.5699 9.00101C12.949 9.00101 12.4209 9.27409 12 9.65133C11.6423 9.33075 11.213 9.08989 10.701 9.03225C10.6776 9.0272 10.6618 9.01286 10.6381 9.00833C10.6124 9.00307 10.5862 9.00029 10.5599 9.00003ZM10.4301 9.75093C10.4926 9.75093 10.5425 9.78374 10.6029 9.79048C11.6233 10.057 12.3173 11.0687 12.3173 11.0687C12.3438 11.1109 12.3788 11.1478 12.4202 11.1772C12.4616 11.2065 12.5087 11.2278 12.5587 11.2398C12.6087 11.2517 12.6607 11.2542 12.7117 11.247C12.7628 11.2397 12.8118 11.223 12.856 11.1976C12.9002 11.1723 12.9388 11.1389 12.9695 11.0993C13.0002 11.0598 13.0225 11.0148 13.035 10.967C13.0475 10.9192 13.0501 10.8695 13.0425 10.8208C13.0349 10.772 13.0174 10.7252 12.9909 10.683C12.9909 10.683 12.7641 10.4018 12.5555 10.1586C12.8319 9.92272 13.1683 9.75093 13.5699 9.75093C14.7243 9.75093 15.2161 10.0874 15.4749 10.4984C15.7338 10.9094 15.7478 11.4794 15.6681 11.9392C15.6681 11.9394 15.6681 11.9395 15.6681 11.9397C15.5706 12.5021 15.2079 13.7183 14.8147 14.9272C14.4214 16.1361 13.9962 17.3571 13.7651 18.0128C13.7142 18.1569 13.5784 18.2501 13.4181 18.2501C13.21 18.2501 13.05 18.0968 13.0512 17.8976C13.0512 17.8974 13.0512 17.8972 13.0512 17.8971L13.067 14.7519C13.0671 14.7475 13.0671 14.7431 13.067 14.7387C13.0493 14.192 12.5722 13.7505 12 13.7505C11.4278 13.7505 10.9507 14.192 10.933 14.7387C10.9329 14.7431 10.9329 14.7475 10.933 14.7519L10.9488 17.8971C10.9488 17.8972 10.9488 17.8974 10.9488 17.8976C10.9501 18.0962 10.7903 18.2501 10.5819 18.2501C10.4216 18.2501 10.2858 18.1569 10.2349 18.0128C10.0038 17.3571 9.57856 16.1361 9.18531 14.9272C8.79205 13.7183 8.42937 12.5021 8.33191 11.9397C8.33191 11.9395 8.33191 11.9394 8.33191 11.9392C8.25219 11.4794 8.26622 10.9094 8.52507 10.4984C8.78392 10.0874 9.27566 9.75093 10.4301 9.75093Z" fill="#BCBCBC" stroke="#BCBCBC" stroke-width="0.3"/>
</svg>
