<svg width="24" height="24" viewBox="0 0 24 24" fill="none" xmlns="http://www.w3.org/2000/svg">
<path d="M5.05556 2C3.3779 2 2 3.3779 2 5.05556V18.9444C2 20.6221 3.3779 22 5.05556 22H18.9444C20.6221 22 22 20.6221 22 18.9444V5.05556C22 3.3779 20.6221 2 18.9444 2H5.05556ZM5.05556 3.66667H18.9444C19.7212 3.66667 20.3333 4.27876 20.3333 5.05556V18.9444C20.3333 19.7212 19.7212 20.3333 18.9444 20.3333H5.05556C4.27876 20.3333 3.66667 19.7212 3.66667 18.9444V5.05556C3.66667 4.27876 4.27876 3.66667 5.05556 3.66667ZM7.27778 5.88889C6.90942 5.88889 6.55615 6.03522 6.29569 6.29569C6.03522 6.55615 5.88889 6.90942 5.88889 7.27778C5.88889 7.64613 6.03522 7.9994 6.29569 8.25987C6.55615 8.52034 6.90942 8.66667 7.27778 8.66667C7.64613 8.66667 7.9994 8.52034 8.25987 8.25987C8.52034 7.9994 8.66667 7.64613 8.66667 7.27778C8.66667 6.90942 8.52034 6.55615 8.25987 6.29569C7.9994 6.03522 7.64613 5.88889 7.27778 5.88889ZM6.44444 9.77778C6.13722 9.77778 5.88889 10.0261 5.88889 10.3333V17.5556C5.88889 17.8628 6.13722 18.1111 6.44444 18.1111H8.11111C8.41833 18.1111 8.66667 17.8628 8.66667 17.5556V10.3333C8.66667 10.0261 8.41833 9.77778 8.11111 9.77778H6.44444ZM10.3333 9.77778C10.0261 9.77778 9.77778 10.0261 9.77778 10.3333V17.5556C9.77778 17.8628 10.0261 18.1111 10.3333 18.1111H12C12.3072 18.1111 12.5556 17.8628 12.5556 17.5556V13.3889C12.5556 12.6228 13.1783 12 13.9444 12C14.7106 12 15.3333 12.6228 15.3333 13.3889V17.5556C15.3333 17.8628 15.5817 18.1111 15.8889 18.1111H17.5556C17.8628 18.1111 18.1111 17.8628 18.1111 17.5556V13.1111C18.1111 11.2728 16.6161 9.77778 14.7778 9.77778C13.9233 9.77778 13.1461 10.1033 12.5556 10.6339V10.3333C12.5556 10.0261 12.3072 9.77778 12 9.77778H10.3333Z" fill="#414141"/>
</svg>
