<svg width="24" height="24" viewBox="0 0 24 24" fill="none" xmlns="http://www.w3.org/2000/svg">
<path d="M12 0.5C9.24759 0.5 7 2.74759 7 5.5V9.25H7.02148C5.18345 10.7174 4 12.972 4 15.5C4 19.9094 7.5906 23.5 12 23.5C16.4094 23.5 20 19.9094 20 15.5C20 12.972 18.8166 10.7174 16.9785 9.25H17V5.5C17 2.74759 14.7524 0.5 12 0.5ZM12 2C13.9416 2 15.5 3.55841 15.5 5.5V8.31836C14.441 7.79979 13.256 7.5 12 7.5C10.744 7.5 9.55904 7.79979 8.5 8.31836V5.5C8.5 3.55841 10.0584 2 12 2ZM12 9C15.5987 9 18.5 11.9013 18.5 15.5C18.5 19.0987 15.5987 22 12 22C8.40126 22 5.5 19.0987 5.5 15.5C5.5 11.9013 8.40126 9 12 9ZM12 12C11.427 12.0017 10.8719 12.2002 10.4277 12.5622C9.98354 12.9243 9.67724 13.4279 9.56008 13.9889C9.44293 14.5498 9.52204 15.134 9.78417 15.6436C10.0463 16.1531 10.4755 16.5572 11 16.7881V18.5C11 19.0525 11.4475 19.5 12 19.5C12.5525 19.5 13 19.0525 13 18.5V16.79C13.5256 16.5598 13.9561 16.1558 14.2191 15.6458C14.4821 15.1358 14.5617 14.5508 14.4444 13.9891C14.3271 13.4274 14.0202 12.9231 13.5751 12.5609C13.13 12.1987 12.5738 12.0007 12 12Z" fill="#414141"/>
</svg>
