<svg width="24" height="24" viewBox="0 0 24 24" fill="none" xmlns="http://www.w3.org/2000/svg">
<path d="M12 2C6.486 2 2 6.486 2 12C2 17.514 6.486 22 12 22C17.514 22 22 17.514 22 12C22 6.486 17.514 2 12 2ZM12 6.5C13.3805 6.5 14.5 7.6195 14.5 9C14.5 10.3805 13.3805 11.5 12 11.5C10.6195 11.5 9.5 10.3805 9.5 9C9.5 7.6195 10.6195 6.5 12 6.5ZM16.5 14.769C16.5 16.1985 14.6765 17.5 12 17.5C9.3235 17.5 7.5 16.1985 7.5 14.769V14.431C7.5 13.917 7.917 13.5 8.431 13.5H15.569C16.083 13.5 16.5 13.917 16.5 14.431V14.769Z" fill="#414141"/>
</svg>
