<svg width="24" height="24" viewBox="0 0 24 24" fill="none" xmlns="http://www.w3.org/2000/svg">
<circle cx="12" cy="12" r="10.2" fill="#BCBCBC"/>
<path d="M12.0001 5.90002C10.3211 5.90002 8.95012 7.27098 8.95012 8.95002C8.95012 10.6291 10.3211 12 12.0001 12C13.6792 12 15.0501 10.6291 15.0501 8.95002C15.0501 7.27098 13.6792 5.90002 12.0001 5.90002ZM12.0001 6.81502C13.1847 6.81502 14.1351 7.76548 14.1351 8.95002C14.1351 10.1346 13.1847 11.085 12.0001 11.085C10.8156 11.085 9.86511 10.1346 9.86511 8.95002C9.86511 7.76548 10.8156 6.81502 12.0001 6.81502ZM8.33356 13.22C7.66872 13.22 7.12012 13.7686 7.12012 14.4335V14.8975C7.12012 15.9968 7.81529 16.8472 8.73864 17.3566C9.66199 17.866 10.8314 18.1 12.0001 18.1C13.1688 18.1 14.3382 17.866 15.2616 17.3566C16.0489 16.9222 16.6414 16.2281 16.8074 15.355H16.8807V14.4335C16.8807 13.7686 16.3315 13.22 15.6667 13.22H8.33356ZM8.33356 14.135H15.6667C15.8369 14.135 15.9657 14.2632 15.9657 14.4335V14.44H15.9651V14.8975C15.9651 15.6283 15.5547 16.1504 14.8196 16.556C14.0845 16.9615 13.0426 17.185 12.0001 17.185C10.9576 17.185 9.91574 16.9615 9.18065 16.556C8.44556 16.1504 8.03512 15.6283 8.03512 14.8975V14.4335C8.03512 14.2632 8.16332 14.135 8.33356 14.135Z" fill="white"/>
</svg>
