<svg width="24" height="24" viewBox="0 0 24 24" fill="none" xmlns="http://www.w3.org/2000/svg">
<path d="M12 1.5C10.0759 1.5 8.5 3.07589 8.5 5C8.5 6.92411 10.0759 8.5 12 8.5C13.9241 8.5 15.5 6.92411 15.5 5C15.5 3.07589 13.9241 1.5 12 1.5ZM12 3C13.1135 3 14 3.88655 14 5C14 6.11345 13.1135 7 12 7C10.8865 7 10 6.11345 10 5C10 3.88655 10.8865 3 12 3ZM8.36719 9.5C7.34442 9.5 6.5 10.345 6.5 11.3672V16.999C6.5 20.0278 8.97122 22.499 12 22.499C15.0288 22.499 17.5 20.0278 17.5 16.999V11.3672C17.5 10.3444 16.655 9.5 15.6328 9.5H8.36719ZM8.36719 11H10.9414L11.3027 11.7236C11.3301 11.7784 11.3697 11.8231 11.4131 11.8633L10.5107 16.1475C10.4797 16.2935 10.5164 16.4455 10.6094 16.5625L11.6094 17.8125C11.7049 17.931 11.848 18 12 18C12.152 18 12.2956 17.931 12.3906 17.8125L13.3906 16.5625C13.4841 16.446 13.5203 16.294 13.4893 16.1475L12.5869 11.8633C12.6304 11.8231 12.6698 11.7784 12.6973 11.7236L13.0596 11H15.6328C15.8446 11 16 11.155 16 11.3672V16.999C16 19.2172 14.2182 20.999 12 20.999C9.78178 20.999 8 19.2172 8 16.999V11.3672C8 11.1554 8.15495 11 8.36719 11Z" fill="#414141"/>
</svg>
