<svg width="24" height="24" viewBox="0 0 24 24" fill="none" xmlns="http://www.w3.org/2000/svg">
<path d="M9.75 0.5C8.24011 0.5 7 1.74011 7 3.25V4.9082C6.30195 5.51489 4.5 7.38512 4.5 10.75V12.6289C3.92989 13.0841 3.5 13.7153 3.5 14.5C3.5 15.6809 4.35224 16.635 5.45996 16.8906C5.90822 18.6682 6.65342 20.2516 7.70312 21.4141C8.85422 22.6888 10.3534 23.5 12 23.5C13.6466 23.5 15.1458 22.6888 16.2969 21.4141C17.3466 20.2516 18.0918 18.6682 18.54 16.8906C19.6478 16.635 20.5 15.6809 20.5 14.5C20.5 13.7151 20.0685 13.0873 19.5 12.6348V11.75C19.5 10.9861 19.3465 10.3423 19.1943 9.87305C19.8645 9.48819 20.2022 8.65056 19.8516 7.91602C19.2451 6.64735 18.0294 5.77715 17 5.0918V3.25C17 1.74011 15.7599 0.5 14.25 0.5H9.75ZM9.75 2H14.25C14.9491 2 15.5 2.55089 15.5 3.25V5.44727C15.5001 5.60676 15.5511 5.76207 15.6455 5.89062L15.6836 5.94336C15.7366 6.01561 15.8021 6.07779 15.877 6.12695C16.9064 6.80266 18.1051 7.74054 18.498 8.5625C18.5084 8.5842 18.5068 8.59105 18.4688 8.60254C17.9156 8.76983 16.5779 9 15 9C13.0938 9 11.8258 8.6448 11.0459 8.31055C10.266 7.9763 10.0303 7.71973 10.0303 7.71973C9.94124 7.63069 9.83123 7.5655 9.71038 7.53017C9.58953 7.49483 9.46173 7.49049 9.33876 7.51753C9.21579 7.54458 9.10161 7.60215 9.00673 7.68493C8.91186 7.76771 8.83936 7.87304 8.7959 7.99121C8.7959 7.99121 8.62875 8.51095 7.79199 9.15527C7.71389 9.21542 7.6484 9.29036 7.59926 9.37582C7.55013 9.46127 7.5183 9.55557 7.5056 9.65333C7.49291 9.75108 7.49959 9.85038 7.52527 9.94555C7.55095 10.0407 7.59513 10.1299 7.65527 10.208C7.71542 10.2861 7.79036 10.3516 7.87582 10.4007C7.96127 10.4499 8.05557 10.4817 8.15333 10.4944C8.25108 10.5071 8.35038 10.5004 8.44555 10.4747C8.54072 10.449 8.62991 10.4049 8.70801 10.3447C9.19883 9.96678 9.49946 9.58119 9.73633 9.25C9.98577 9.42274 9.98507 9.48844 10.4541 9.68945C11.4242 10.1052 12.9062 10.5 15 10.5C16.0958 10.5 16.9815 10.3985 17.7422 10.2705C17.8647 10.6182 18 11.1052 18 11.75V12.9395C17.9999 13.0813 18.0401 13.2203 18.1158 13.3402C18.1915 13.4602 18.2996 13.5562 18.4277 13.6172C18.7713 13.7805 19 14.1014 19 14.5C19 15.0612 18.5612 15.5 18 15.5C18.1324 15.5 18.1231 15.4971 17.9697 15.4971C17.7975 15.497 17.6306 15.5561 17.4968 15.6646C17.3631 15.7731 17.2708 15.9243 17.2354 16.0928C16.8636 17.8643 16.1182 19.3732 15.1836 20.4082C14.2489 21.4433 13.1589 22 12 22C10.8411 22 9.75106 21.4432 8.81641 20.4082C7.88175 19.3732 7.13641 17.8643 6.76465 16.0928C6.72921 15.9243 6.63688 15.7731 6.50316 15.6646C6.36943 15.5561 6.20246 15.497 6.03027 15.4971C5.87692 15.4971 5.86764 15.5 6 15.5C5.43883 15.5 5 15.0612 5 14.5C5 14.0982 5.23075 13.7708 5.57129 13.6094C5.69956 13.5486 5.80793 13.4526 5.88382 13.3326C5.95971 13.2126 6 13.0736 6 12.9316V10.75C6 7.27134 8.1709 5.87109 8.1709 5.87109C8.27231 5.80232 8.35533 5.70976 8.41271 5.60148C8.47008 5.49321 8.50005 5.37253 8.5 5.25V3.25C8.5 2.55089 9.05089 2 9.75 2ZM11.9883 2.98926C11.7895 2.99236 11.6002 3.07423 11.4617 3.21686C11.3233 3.3595 11.2471 3.55125 11.25 3.75V4.5H10.25C10.1506 4.49859 10.0519 4.51696 9.95972 4.55402C9.86749 4.59108 9.78355 4.6461 9.71277 4.71588C9.642 4.78566 9.58579 4.86882 9.54743 4.96051C9.50907 5.0522 9.48932 5.15061 9.48932 5.25C9.48932 5.34939 9.50907 5.4478 9.54743 5.53949C9.58579 5.63118 9.642 5.71434 9.71277 5.78412C9.78355 5.8539 9.86749 5.90892 9.95972 5.94598C10.0519 5.98304 10.1506 6.00141 10.25 6H11.25V6.75C11.2486 6.84938 11.267 6.94806 11.304 7.04028C11.3411 7.13251 11.3961 7.21645 11.4659 7.28723C11.5357 7.358 11.6188 7.41421 11.7105 7.45257C11.8022 7.49093 11.9006 7.51068 12 7.51068C12.0994 7.51068 12.1978 7.49093 12.2895 7.45257C12.3812 7.41421 12.4643 7.358 12.5341 7.28723C12.6039 7.21645 12.6589 7.13251 12.696 7.04028C12.733 6.94806 12.7514 6.84938 12.75 6.75V6H13.75C13.8494 6.00141 13.9481 5.98304 14.0403 5.94598C14.1325 5.90892 14.2164 5.8539 14.2872 5.78412C14.358 5.71434 14.4142 5.63118 14.4526 5.53949C14.4909 5.4478 14.5107 5.34939 14.5107 5.25C14.5107 5.15061 14.4909 5.0522 14.4526 4.96051C14.4142 4.86882 14.358 4.78566 14.2872 4.71588C14.2164 4.6461 14.1325 4.59108 14.0403 4.55402C13.9481 4.51696 13.8494 4.49859 13.75 4.5H12.75V3.75C12.7514 3.64962 12.7327 3.54997 12.6949 3.45695C12.6571 3.36394 12.6011 3.27946 12.53 3.20852C12.459 3.13757 12.3745 3.08161 12.2814 3.04395C12.1883 3.00629 12.0887 2.98769 11.9883 2.98926ZM9.5 13.5C9.23478 13.5 8.98043 13.6054 8.79289 13.7929C8.60536 13.9804 8.5 14.2348 8.5 14.5C8.5 14.7652 8.60536 15.0196 8.79289 15.2071C8.98043 15.3946 9.23478 15.5 9.5 15.5C9.76522 15.5 10.0196 15.3946 10.2071 15.2071C10.3946 15.0196 10.5 14.7652 10.5 14.5C10.5 14.2348 10.3946 13.9804 10.2071 13.7929C10.0196 13.6054 9.76522 13.5 9.5 13.5ZM14.5 13.5C14.2348 13.5 13.9804 13.6054 13.7929 13.7929C13.6054 13.9804 13.5 14.2348 13.5 14.5C13.5 14.7652 13.6054 15.0196 13.7929 15.2071C13.9804 15.3946 14.2348 15.5 14.5 15.5C14.7652 15.5 15.0196 15.3946 15.2071 15.2071C15.3946 15.0196 15.5 14.7652 15.5 14.5C15.5 14.2348 15.3946 13.9804 15.2071 13.7929C15.0196 13.6054 14.7652 13.5 14.5 13.5Z" fill="#414141"/>
</svg>
