<svg width="34" height="30" viewBox="0 0 34 30" fill="none" xmlns="http://www.w3.org/2000/svg">
<path d="M5.25 9.5C3.46403 9.5 2 10.964 2 12.75V21.25C2 23.036 3.46403 24.5 5.25 24.5H6V27.25C6 28.233 7.21365 28.8395 8 28.25L13 24.5H18.75C20.536 24.5 22 23.036 22 21.25V12.75C22 10.964 20.536 9.5 18.75 9.5H5.25ZM5.25 11H18.75C19.725 11 20.5 11.775 20.5 12.75V21.25C20.5 22.225 19.725 23 18.75 23H12.75C12.5876 23.0001 12.4296 23.0528 12.2998 23.1504L7.5 26.75V23.75C7.49998 23.5511 7.42096 23.3603 7.28031 23.2197C7.13966 23.079 6.94891 23 6.75 23H5.25C4.27497 23 3.5 22.225 3.5 21.25V12.75C3.5 11.775 4.27497 11 5.25 11Z" fill="#414141"/>
<circle cx="24.5" cy="9.5" r="9.5" fill="#EB5757"/>
<path d="M26.0684 4.92773V6.10547H25.8926C25.0957 6.11719 24.459 6.33594 23.9824 6.76172C23.5059 7.1875 23.2227 7.79102 23.1328 8.57227C23.5898 8.0918 24.1738 7.85156 24.8848 7.85156C25.6387 7.85156 26.2324 8.11719 26.666 8.64844C27.1035 9.17969 27.3223 9.86523 27.3223 10.7051C27.3223 11.5723 27.0664 12.2754 26.5547 12.8145C26.0469 13.3496 25.3789 13.6172 24.5508 13.6172C23.6992 13.6172 23.0078 13.3027 22.4766 12.6738C21.9492 12.0449 21.6855 11.2207 21.6855 10.2012V9.71484C21.6855 8.21875 22.0488 7.04688 22.7754 6.19922C23.5059 5.35156 24.5547 4.92773 25.9219 4.92773H26.0684ZM24.5391 9C24.2266 9 23.9395 9.08789 23.6777 9.26367C23.4199 9.43945 23.2305 9.67383 23.1094 9.9668V10.4004C23.1094 11.0332 23.2422 11.5371 23.5078 11.9121C23.7734 12.2832 24.1172 12.4688 24.5391 12.4688C24.9609 12.4688 25.2949 12.3105 25.541 11.9941C25.7871 11.6777 25.9102 11.2617 25.9102 10.7461C25.9102 10.2305 25.7852 9.81055 25.5352 9.48633C25.2852 9.16211 24.9531 9 24.5391 9Z" fill="white"/>
</svg>
