<svg width="24" height="24" viewBox="0 0 24 24" fill="none" xmlns="http://www.w3.org/2000/svg">
<path d="M11.9999 2C8.73202 2 5.82552 3.57458 3.99995 6.00586V4.75C4.00139 4.64962 3.98266 4.54997 3.94488 4.45695C3.9071 4.36394 3.85103 4.27946 3.77999 4.20852C3.70896 4.13757 3.6244 4.08161 3.53134 4.04395C3.43828 4.00629 3.33861 3.98769 3.23823 3.98926C3.03949 3.99236 2.8501 4.07423 2.71167 4.21686C2.57325 4.3595 2.4971 4.55125 2.49995 4.75V7.75C2.49997 7.94891 2.57899 8.13966 2.71964 8.28031C2.86029 8.42096 3.05104 8.49998 3.24995 8.5H6.24995C6.34933 8.50141 6.448 8.48304 6.54023 8.44598C6.63245 8.40892 6.7164 8.3539 6.78717 8.28412C6.85795 8.21434 6.91415 8.13118 6.95251 8.03949C6.99087 7.9478 7.01063 7.84939 7.01063 7.75C7.01063 7.65061 6.99087 7.5522 6.95251 7.46051C6.91415 7.36882 6.85795 7.28566 6.78717 7.21588C6.7164 7.1461 6.63245 7.09108 6.54023 7.05402C6.448 7.01696 6.34933 6.99859 6.24995 7H5.12495C6.66949 4.8791 9.16953 3.5 11.9999 3.5C16.6216 3.5 20.3677 7.16783 20.497 11.7559C20.4971 11.8561 20.5173 11.9552 20.5564 12.0475C20.5955 12.1397 20.6526 12.2232 20.7245 12.293C20.7964 12.3628 20.8815 12.4175 20.9749 12.4539C21.0682 12.4902 21.1679 12.5075 21.2681 12.5047C21.3682 12.5019 21.4668 12.4791 21.558 12.4376C21.6492 12.396 21.7311 12.3366 21.799 12.2629C21.8668 12.1892 21.9192 12.1026 21.9531 12.0083C21.9869 11.914 22.0015 11.8139 21.996 11.7139C21.8443 6.32989 17.4183 2 11.9999 2ZM11.7382 5.48926C11.5395 5.49236 11.3501 5.57423 11.2117 5.71686C11.0732 5.8595 10.9971 6.05125 10.9999 6.25V6.82617C9.60384 7.01917 8.49995 8.17879 8.49995 9.625C8.49995 11.2039 9.79604 12.5 11.3749 12.5H12.3749C13.281 12.5 13.9999 13.219 13.9999 14.125C13.9999 15.031 13.281 15.75 12.3749 15.75H11.2499C10.6611 15.75 10.1794 15.3517 10.04 14.8164C10.0174 14.7187 9.97549 14.6266 9.91669 14.5454C9.8579 14.4642 9.78342 14.3956 9.69767 14.3437C9.61192 14.2918 9.51663 14.2576 9.41743 14.2431C9.31824 14.2286 9.21715 14.2342 9.12014 14.2594C9.02313 14.2847 8.93217 14.3292 8.85263 14.3902C8.77309 14.4512 8.70659 14.5275 8.65706 14.6147C8.60753 14.7018 8.57597 14.798 8.56425 14.8976C8.55252 14.9972 8.56088 15.0981 8.58881 15.1943C8.87615 16.2975 9.84312 17.0989 10.9999 17.208V17.75C10.9985 17.8494 11.0169 17.9481 11.054 18.0403C11.091 18.1325 11.146 18.2164 11.2158 18.2872C11.2856 18.358 11.3688 18.4142 11.4605 18.4526C11.5521 18.4909 11.6506 18.5107 11.7499 18.5107C11.8493 18.5107 11.9477 18.4909 12.0394 18.4526C12.1311 18.4142 12.2143 18.358 12.2841 18.2872C12.3538 18.2164 12.4089 18.1325 12.4459 18.0403C12.483 17.9481 12.5014 17.8494 12.4999 17.75V17.2246C14.1564 17.1546 15.4999 15.7977 15.4999 14.125C15.4999 12.408 14.0919 11 12.3749 11H11.3749C10.6069 11 9.99995 10.3931 9.99995 9.625C9.99995 8.85691 10.6069 8.25 11.3749 8.25H11.6269C11.7074 8.26323 11.7895 8.26323 11.8701 8.25H12.2499C12.8345 8.25 13.3139 8.64339 13.457 9.17285C13.4827 9.26796 13.5269 9.35708 13.587 9.43511C13.6471 9.51315 13.7221 9.57857 13.8075 9.62764C13.8929 9.67672 13.9872 9.70848 14.0849 9.72112C14.1826 9.73376 14.2818 9.72703 14.3769 9.70132C14.472 9.6756 14.5612 9.6314 14.6392 9.57124C14.7172 9.51109 14.7826 9.43615 14.8317 9.35071C14.8807 9.26527 14.9125 9.17101 14.9251 9.0733C14.9377 8.97559 14.931 8.87635 14.9052 8.78125C14.6102 7.68983 13.6484 6.90017 12.4999 6.79199V6.25C12.5014 6.14962 12.4827 6.04997 12.4449 5.95695C12.4071 5.86394 12.351 5.77946 12.28 5.70852C12.209 5.63757 12.1244 5.58161 12.0313 5.54395C11.9383 5.50629 11.8386 5.48769 11.7382 5.48926ZM2.72065 11.5049C2.52203 11.5135 2.33496 11.6007 2.20056 11.7472C2.06615 11.8936 1.9954 12.0875 2.00385 12.2861C2.15557 17.6701 6.58164 22 11.9999 22C15.2679 22 18.1744 20.4254 19.9999 17.9941V19.25C19.9985 19.3494 20.0169 19.4481 20.054 19.5403C20.091 19.6325 20.146 19.7164 20.2158 19.7872C20.2856 19.858 20.3688 19.9142 20.4605 19.9526C20.5521 19.9909 20.6506 20.0107 20.7499 20.0107C20.8493 20.0107 20.9477 19.9909 21.0394 19.9526C21.1311 19.9142 21.2143 19.858 21.2841 19.7872C21.3539 19.7164 21.4089 19.6325 21.4459 19.5403C21.483 19.4481 21.5014 19.3494 21.4999 19.25V16.25C21.4999 16.0511 21.4209 15.8603 21.2803 15.7197C21.1396 15.579 20.9489 15.5 20.7499 15.5H17.7499C17.6506 15.4986 17.5519 15.517 17.4597 15.554C17.3674 15.5911 17.2835 15.6461 17.2127 15.7159C17.1419 15.7857 17.0857 15.8688 17.0474 15.9605C17.009 16.0522 16.9893 16.1506 16.9893 16.25C16.9893 16.3494 17.009 16.4478 17.0474 16.5395C17.0857 16.6312 17.1419 16.7143 17.2127 16.7841C17.2835 16.8539 17.3674 16.9089 17.4597 16.946C17.5519 16.983 17.6506 17.0014 17.7499 17H18.8749C17.3304 19.1209 14.8304 20.5 11.9999 20.5C7.37825 20.5 3.63216 16.8322 3.50288 12.2441C3.50152 12.1438 3.48004 12.0447 3.43971 11.9528C3.39938 11.8609 3.34101 11.7781 3.26807 11.7091C3.19513 11.6402 3.10909 11.5866 3.01506 11.5515C2.92103 11.5164 2.82092 11.5006 2.72065 11.5049Z" fill="#414141"/>
</svg>
