<svg width="24" height="24" viewBox="0 0 24 24" fill="none" xmlns="http://www.w3.org/2000/svg">
<path d="M7.73056 2.99221C7.58131 2.99449 7.43612 3.04126 7.3136 3.12652C7.19107 3.21178 7.09676 3.33166 7.04276 3.47082C6.98875 3.60998 6.97749 3.7621 7.01043 3.90769C7.04336 4.05329 7.11899 4.18574 7.22763 4.28811L15.1729 12L7.22763 19.7119C7.15536 19.7802 7.09738 19.8621 7.05704 19.9529C7.0167 20.0437 6.99481 20.1417 6.99265 20.241C6.99049 20.3404 7.0081 20.4392 7.04445 20.5317C7.08081 20.6242 7.13518 20.7086 7.20441 20.7799C7.27365 20.8512 7.35636 20.908 7.44775 20.9471C7.53914 20.9861 7.63737 21.0066 7.73676 21.0074C7.83614 21.0082 7.93468 20.9892 8.02666 20.9515C8.11865 20.9139 8.20223 20.8583 8.27255 20.7881L16.7726 12.5381C16.8445 12.4682 16.9018 12.3846 16.9408 12.2921C16.9799 12.1997 17.0001 12.1004 17.0001 12C17.0001 11.8997 16.9799 11.8004 16.9408 11.7079C16.9018 11.6155 16.8445 11.5319 16.7726 11.4619L8.27255 3.21194C8.20153 3.14089 8.11696 3.08482 8.02386 3.04708C7.93075 3.00933 7.83101 2.99068 7.73056 2.99221Z" fill="#414141"/>
</svg>
