<svg width="34" height="30" viewBox="0 0 34 30" fill="none" xmlns="http://www.w3.org/2000/svg">
<path d="M11.6386 8.00878C7.59682 8.19915 4.49988 11.6717 4.49988 15.6904V19.3242L3.17469 21.9902C3.17236 21.9951 3.17008 22 3.16785 22.0049C2.63472 23.1386 3.49774 24.5 4.75086 24.5H8.99988C8.99988 26.1479 10.352 27.5 11.9999 27.5C13.6478 27.5 14.9999 26.1479 14.9999 24.5H19.2479C20.5011 24.5 21.3652 23.1389 20.8319 22.0049C20.8297 22 20.8274 21.9951 20.8251 21.9902L19.4999 19.3242V15.5C19.4999 11.2469 15.9315 7.80667 11.6386 8.00878ZM11.7089 9.50682C15.1689 9.34393 17.9999 12.0811 17.9999 15.5V19.5C17.9998 19.6159 18.0265 19.7302 18.078 19.834L19.4745 22.6445C19.5643 22.837 19.4604 23 19.2479 23H4.75086C4.5384 23 4.43534 22.8373 4.52527 22.6445V22.6435L5.92176 19.834C5.97325 19.7302 5.99999 19.6159 5.99988 19.5V15.6904C5.99988 12.4402 8.48961 9.65845 11.7089 9.50682ZM10.4999 24.5H13.4999C13.4999 25.3371 12.837 26 11.9999 26C11.1628 26 10.4999 25.3371 10.4999 24.5Z" fill="#414141"/>
<circle cx="24.5" cy="9.5" r="9.5" fill="#EB5757"/>
<path d="M27.375 13.5H21.6387V12.5215L24.4805 9.42188C24.8906 8.96484 25.1816 8.58398 25.3535 8.2793C25.5293 7.9707 25.6172 7.66211 25.6172 7.35352C25.6172 6.94727 25.502 6.61914 25.2715 6.36914C25.0449 6.11914 24.7383 5.99414 24.3516 5.99414C23.8906 5.99414 23.5332 6.13477 23.2793 6.41602C23.0254 6.69727 22.8984 7.08203 22.8984 7.57031H21.4746C21.4746 7.05078 21.5918 6.58398 21.8262 6.16992C22.0645 5.75195 22.4023 5.42773 22.8398 5.19727C23.2812 4.9668 23.7891 4.85156 24.3633 4.85156C25.1914 4.85156 25.8438 5.06055 26.3203 5.47852C26.8008 5.89258 27.041 6.4668 27.041 7.20117C27.041 7.62695 26.9199 8.07422 26.6777 8.54297C26.4395 9.00781 26.0469 9.53711 25.5 10.1309L23.4141 12.3633H27.375V13.5Z" fill="white"/>
</svg>
