<svg width="24" height="24" viewBox="0 0 24 24" fill="none" xmlns="http://www.w3.org/2000/svg">
<path d="M19.2491 18H4.75107C4.14857 18 3.59607 17.6965 3.27357 17.1875C2.95107 16.6785 2.91107 16.05 3.16757 15.505L4.50007 12.824V9.6905C4.50007 5.571 7.63557 2.197 11.6386 2.0085C13.7141 1.9145 15.6786 2.644 17.1761 4.0725C18.6751 5.502 19.5001 7.4295 19.5001 9.5V12.824L20.8251 15.4905C21.0886 16.05 21.0491 16.679 20.7266 17.188C20.4041 17.697 19.8516 18 19.2491 18ZM11.6741 2.758H11.6791H11.6741ZM9.04507 19C9.28407 20.4165 10.5161 21.5 12.0001 21.5C13.4841 21.5 14.7156 20.4165 14.9551 19H9.04507Z" fill="#414141"/>
</svg>
