<svg width="24" height="24" viewBox="0 0 24 24" fill="none" xmlns="http://www.w3.org/2000/svg">
<path d="M12 0C5.3832 0 0 5.3832 0 12C0 18.6168 5.3832 24 12 24C18.6168 24 24 18.6168 24 12C24 5.3832 18.6168 0 12 0ZM17.1366 9.9366L11.1366 15.9366C10.9608 16.1124 10.7304 16.2 10.5 16.2C10.2696 16.2 10.0392 16.1124 9.8634 15.9366L6.8634 12.9366C6.5118 12.585 6.5118 12.0156 6.8634 11.664C7.215 11.3124 7.7844 11.3124 8.136 11.664L10.4994 14.0274L15.8628 8.664C16.2144 8.3124 16.7838 8.3124 17.1354 8.664C17.487 9.0156 17.4876 9.585 17.1366 9.9366Z" fill="#414141"/>
</svg>
