<svg width="24" height="24" viewBox="0 0 24 24" fill="none" xmlns="http://www.w3.org/2000/svg">
<path d="M3.75 3C3.336 3 3 3.3355 3 3.75V18.25C3 19.7665 4.234 21 5.75 21H12.0283C11.7308 20.536 11.4894 20.034 11.3164 19.5H5.75C5.0605 19.5 4.5 18.939 4.5 18.25V4.5H19.5V11.3174C20.034 11.4899 20.5365 11.7318 21 12.0293V3.75C21 3.3355 20.664 3 20.25 3H3.75ZM10.25 6.5C10.1506 6.49859 10.0519 6.51696 9.95972 6.55402C9.86749 6.59108 9.78355 6.6461 9.71277 6.71588C9.642 6.78566 9.58579 6.86882 9.54743 6.96051C9.50907 7.0522 9.48932 7.15061 9.48932 7.25C9.48932 7.34939 9.50907 7.4478 9.54743 7.53949C9.58579 7.63118 9.642 7.71434 9.71277 7.78412C9.78355 7.8539 9.86749 7.90892 9.95972 7.94598C10.0519 7.98304 10.1506 8.00141 10.25 8H13.75C13.8494 8.00141 13.9481 7.98304 14.0403 7.94598C14.1325 7.90892 14.2164 7.8539 14.2872 7.78412C14.358 7.71434 14.4142 7.63118 14.4526 7.53949C14.4909 7.4478 14.5107 7.34939 14.5107 7.25C14.5107 7.15061 14.4909 7.0522 14.4526 6.96051C14.4142 6.86882 14.358 6.78566 14.2872 6.71588C14.2164 6.6461 14.1325 6.59108 14.0403 6.55402C13.9481 6.51696 13.8494 6.49859 13.75 6.5H10.25ZM17.5 12C14.4675 12 12 14.4675 12 17.5C12 20.5325 14.4675 23 17.5 23C20.5325 23 23 20.5325 23 17.5C23 14.4675 20.5325 12 17.5 12ZM17.5 13.5C18.3325 13.5 19.1051 13.7564 19.7461 14.1934L14.1934 19.7461C13.7564 19.1051 13.5 18.3325 13.5 17.5C13.5 15.2945 15.2945 13.5 17.5 13.5ZM20.8066 15.2539C21.2436 15.8949 21.5 16.6675 21.5 17.5C21.5 19.7055 19.7055 21.5 17.5 21.5C16.6675 21.5 15.8949 21.2436 15.2539 20.8066L20.8066 15.2539Z" fill="#414141"/>
</svg>
