<svg width="24" height="24" viewBox="0 0 24 24" fill="none" xmlns="http://www.w3.org/2000/svg">
<path d="M18.0001 2.50488C17.1027 2.50488 16.2055 2.84507 15.5255 3.52539L13.6153 5.43555C13.547 5.48387 13.4873 5.54329 13.4386 5.61133L4.4581 14.5918C4.24811 14.8018 4.09432 15.0629 4.01278 15.3496L2.52939 20.5439C2.4928 20.6725 2.49122 20.8084 2.52481 20.9378C2.5584 21.0671 2.62593 21.1852 2.72042 21.2797C2.81492 21.3742 2.93295 21.4417 3.06229 21.4753C3.19164 21.5089 3.32761 21.5073 3.45614 21.4707L8.65146 19.9873C8.65178 19.987 8.65211 19.9867 8.65243 19.9863C8.93719 19.9045 9.19769 19.7526 9.40829 19.542L18.3702 10.5791C18.4539 10.5236 18.5257 10.4519 18.5811 10.3682L20.4747 8.47461C21.8353 7.11405 21.8353 4.88595 20.4747 3.52539C19.7947 2.84507 18.8974 2.50488 18.0001 2.50488ZM18.0001 3.99609C18.5105 3.99609 19.0202 4.19276 19.4132 4.58594C19.4135 4.58594 19.4138 4.58594 19.4142 4.58594C20.2016 5.37337 20.2016 6.62663 19.4142 7.41406L17.9444 8.88379L15.1163 6.05566L16.586 4.58594C16.979 4.19276 17.4897 3.99609 18.0001 3.99609ZM14.0558 7.11621L16.8839 9.94434L8.34677 18.4814C8.31745 18.5106 8.28032 18.5329 8.23837 18.5449L7.74618 18.6855L5.31454 16.2539L5.45517 15.7607C5.45517 15.7604 5.45517 15.7601 5.45517 15.7598C5.46663 15.7195 5.48763 15.6834 5.51864 15.6523L14.0558 7.11621ZM4.84286 17.9033L6.09677 19.1572L4.34189 19.6582L4.84286 17.9033Z" fill="#414141"/>
</svg>
