<svg width="24" height="24" viewBox="0 0 24 24" fill="none" xmlns="http://www.w3.org/2000/svg">
<path d="M6.25 2.5C4.18775 2.5 2.5 4.18775 2.5 6.25V15.25C2.5 17.3123 4.18775 19 6.25 19H15.25C17.3123 19 19 17.3123 19 15.25V6.25C19 4.18775 17.3123 2.5 15.25 2.5H6.25ZM6.25 4H15.25C16.5017 4 17.5 4.99825 17.5 6.25V15.25C17.5 15.5985 17.4161 15.9236 17.2773 16.2168L12.1367 11.0771C11.7568 10.6972 11.2536 10.5068 10.75 10.5068C10.2464 10.5068 9.74223 10.6972 9.3623 11.0771L4.22266 16.2168C4.08394 15.9236 4 15.5985 4 15.25V6.25C4 4.99825 4.99825 4 6.25 4ZM20 5.75684V15.75C20 18.0935 18.0935 20 15.75 20H5.75684C6.44184 20.909 7.5265 21.5 8.75 21.5H15.75C18.9205 21.5 21.5 18.9205 21.5 15.75V8.75C21.5 7.527 20.909 6.44184 20 5.75684ZM13.75 6.5C13.4185 6.5 13.1005 6.6317 12.8661 6.86612C12.6317 7.10054 12.5 7.41848 12.5 7.75C12.5 8.08152 12.6317 8.39946 12.8661 8.63388C13.1005 8.8683 13.4185 9 13.75 9C14.0815 9 14.3995 8.8683 14.6339 8.63388C14.8683 8.39946 15 8.08152 15 7.75C15 7.41848 14.8683 7.10054 14.6339 6.86612C14.3995 6.6317 14.0815 6.5 13.75 6.5ZM10.75 11.998C10.8668 11.998 10.9831 12.0446 11.0762 12.1377L16.2168 17.2773C15.9236 17.4161 15.5985 17.5 15.25 17.5H6.25C5.90145 17.5 5.57636 17.4161 5.2832 17.2773L10.4229 12.1377C10.5159 12.0446 10.6332 11.998 10.75 11.998Z" fill="#414141"/>
</svg>
