<svg width="24" height="24" viewBox="0 0 24 24" fill="none" xmlns="http://www.w3.org/2000/svg">
<path d="M5.69824 2.05567C4.5521 2.10102 3.5 3.0361 3.5 4.29591V19.7041C3.5 21.3839 5.37138 22.486 6.84082 21.6719L20.7451 13.9678C22.2568 13.1301 22.2568 10.8699 20.7451 10.0322L6.84082 2.32813C6.47346 2.12462 6.08029 2.04056 5.69824 2.05567ZM5.71582 3.53321C5.84512 3.53266 5.98064 3.56618 6.11328 3.63966L20.0186 11.3438C20.5678 11.6481 20.5678 12.3519 20.0186 12.6563L6.11328 20.3604C5.58272 20.6543 5 20.3104 5 19.7041V4.29591C5 3.99278 5.14535 3.75582 5.35742 3.63087C5.46346 3.5684 5.58652 3.53377 5.71582 3.53321Z" fill="#414141"/>
</svg>
