<svg width="24" height="24" viewBox="0 0 24 24" fill="none" xmlns="http://www.w3.org/2000/svg">
<path d="M12 1C9.52 1 7.5 3.02 7.5 5.5V13C7.5 15.14 8.99988 16.9346 11.0049 17.3896C11.0099 16.8746 11.0802 16.3696 11.2002 15.8896C9.9352 15.5396 9 14.38 9 13V5.5C9 5.39656 9.00537 5.29412 9.01562 5.19336C9.16945 3.68192 10.4484 2.5 12 2.5C13.655 2.5 15 3.845 15 5.5V11.5C15.475 11.3 15.975 11.1602 16.5 11.0752V5.5C16.5 3.02 14.48 1 12 1ZM5.25 10.5C4.835 10.5 4.5 10.835 4.5 11.25V13C4.5 16.88 7.465 20.085 11.25 20.46V22.75C11.25 23.165 11.585 23.5 12 23.5C12.415 23.5 12.75 23.165 12.75 22.75V21.9346C12.35 21.5046 12.0055 21.0201 11.7305 20.4951C11.6455 20.3301 11.5664 20.1628 11.4951 19.9922C11.4239 19.8216 11.3597 19.6472 11.3047 19.4697C11.2497 19.2947 11.2002 19.1204 11.1602 18.9404C8.25016 18.5354 6 16.025 6 13V11.25C6 10.835 5.665 10.5 5.25 10.5ZM17.5 12C14.4625 12 12 14.4625 12 17.5C12 20.5375 14.4625 23 17.5 23C20.5375 23 23 20.5375 23 17.5C23 14.4625 20.5375 12 17.5 12ZM16.0127 14.5C16.1004 14.5022 16.1874 14.5269 16.2646 14.5752L20.2646 17.0752C20.4106 17.1672 20.5 17.3275 20.5 17.5C20.5 17.6725 20.4106 17.8323 20.2646 17.9238L16.2646 20.4238C16.1836 20.4743 16.092 20.5 16 20.5C15.9165 20.5 15.8338 20.479 15.7578 20.4375C15.5988 20.349 15.5 20.182 15.5 20V15C15.5 14.818 15.5988 14.651 15.7578 14.5625C15.8373 14.5183 15.925 14.4978 16.0127 14.5Z" fill="#414141"/>
</svg>
