<svg width="24" height="24" viewBox="0 0 24 24" fill="none" xmlns="http://www.w3.org/2000/svg">
<path d="M11.9882 2.48923C11.7895 2.49233 11.6001 2.57419 11.4617 2.71683C11.3232 2.85947 11.2471 3.05122 11.2499 3.24997V11.25H3.24994C3.15056 11.2486 3.05188 11.2669 2.95966 11.304C2.86743 11.341 2.78349 11.3961 2.71271 11.4658C2.64194 11.5356 2.58573 11.6188 2.54737 11.7105C2.50901 11.8022 2.48926 11.9006 2.48926 12C2.48926 12.0994 2.50901 12.1978 2.54737 12.2895C2.58573 12.3812 2.64194 12.4643 2.71271 12.5341C2.78349 12.6039 2.86743 12.6589 2.95966 12.696C3.05188 12.733 3.15056 12.7514 3.24994 12.75H11.2499V20.75C11.2485 20.8494 11.2669 20.948 11.304 21.0403C11.341 21.1325 11.396 21.2164 11.4658 21.2872C11.5356 21.358 11.6188 21.4142 11.7105 21.4525C11.8021 21.4909 11.9005 21.5107 11.9999 21.5107C12.0993 21.5107 12.1977 21.4909 12.2894 21.4525C12.3811 21.4142 12.4643 21.358 12.5341 21.2872C12.6038 21.2164 12.6589 21.1325 12.6959 21.0403C12.733 20.948 12.7513 20.8494 12.7499 20.75V12.75H20.7499C20.8493 12.7514 20.948 12.733 21.0402 12.696C21.1324 12.6589 21.2164 12.6039 21.2872 12.5341C21.3579 12.4643 21.4141 12.3812 21.4525 12.2895C21.4909 12.1978 21.5106 12.0994 21.5106 12C21.5106 11.9006 21.4909 11.8022 21.4525 11.7105C21.4141 11.6188 21.3579 11.5356 21.2872 11.4658C21.2164 11.3961 21.1324 11.341 21.0402 11.304C20.948 11.2669 20.8493 11.2486 20.7499 11.25H12.7499V3.24997C12.7514 3.14959 12.7327 3.04994 12.6949 2.95692C12.6571 2.86391 12.601 2.77943 12.53 2.70849C12.459 2.63754 12.3744 2.58158 12.2813 2.54392C12.1883 2.50626 12.0886 2.48766 11.9882 2.48923Z" fill="#414141"/>
</svg>
