<svg width="24" height="24" viewBox="0 0 24 24" fill="none" xmlns="http://www.w3.org/2000/svg">
<circle cx="12" cy="12" r="10.8" fill="white"/>
<path d="M12 1.20001C6.04483 1.20001 1.19995 6.04489 1.19995 12C1.19995 17.9551 6.04483 22.8 12 22.8C17.9551 22.8 22.7999 17.9551 22.7999 12C22.7999 6.04489 17.9551 1.20001 12 1.20001ZM16.59 12.81H12.8099V16.59C12.8099 17.0377 12.4476 17.4 12 17.4C11.5523 17.4 11.19 17.0377 11.19 16.59V12.81H7.40995C6.96229 12.81 6.59995 12.4477 6.59995 12C6.59995 11.5524 6.96229 11.19 7.40995 11.19H11.19V7.41001C11.19 6.96235 11.5523 6.60001 12 6.60001C12.4476 6.60001 12.8099 6.96235 12.8099 7.41001V11.19H16.59C17.0376 11.19 17.4 11.5524 17.4 12C17.4 12.4477 17.0376 12.81 16.59 12.81Z" fill="#52B6C3"/>
</svg>
