<svg width="24" height="24" viewBox="0 0 24 24" fill="none" xmlns="http://www.w3.org/2000/svg">
<path d="M8.25 2.5C8.05109 2.50002 7.86034 2.57904 7.71969 2.71969C7.57904 2.86034 7.50002 3.05109 7.5 3.25V7H5.75C3.68775 7 2 8.68775 2 10.75V17.75C2 19.8123 3.68775 21.5 5.75 21.5H18.25C20.3123 21.5 22 19.8123 22 17.75V10.75C22 8.68775 20.3123 7 18.25 7H16.5V3.25C16.5 3.05109 16.421 2.86034 16.2803 2.71969C16.1397 2.57904 15.9489 2.50002 15.75 2.5H8.25ZM9 4H15V7H9V4ZM5.75 8.5H8.25H15.75H18.25C19.5017 8.5 20.5 9.49825 20.5 10.75V17.75C20.5 19.0017 19.5017 20 18.25 20H5.75C4.49825 20 3.5 19.0017 3.5 17.75V10.75C3.5 9.49825 4.49825 8.5 5.75 8.5ZM12 10C11.4696 10 10.9609 10.2107 10.5858 10.5858C10.2107 10.9609 10 11.4696 10 12C10 12.5304 10.2107 13.0391 10.5858 13.4142C10.9609 13.7893 11.4696 14 12 14C12.5304 14 13.0391 13.7893 13.4142 13.4142C13.7893 13.0391 14 12.5304 14 12C14 11.4696 13.7893 10.9609 13.4142 10.5858C13.0391 10.2107 12.5304 10 12 10ZM9.22363 15C8.82363 15 8.5 15.3236 8.5 15.7236V16.376C8.5 17.4875 9.9185 18.5 12 18.5C14.0815 18.5 15.5 17.4875 15.5 16.376V15.7236C15.5 15.3236 15.1764 15 14.7764 15H9.22363Z" fill="#414141"/>
</svg>
