<svg width="10" height="14" viewBox="0 0 10 14" fill="none" xmlns="http://www.w3.org/2000/svg">
  <path d="M5 0C3.90039 0 3 0.900391 3 2C3 2.57227 3.25 3.08789 3.64062 3.45312C3.32227 3.67773 3.04492 3.96875 2.8125 4.29688C2.29492 5.0293 1.93555 5.95312 1.67188 6.85938C1.14453 8.67188 1 10.4531 1 10.4531L0.953125 11H3.5V14H4.5V11H5.5V14H6.5V11H9.04688L9 10.4531C9 10.4531 8.85547 8.67188 8.32812 6.85938C8.06445 5.95312 7.70508 5.0293 7.1875 4.29688C6.95508 3.96875 6.67773 3.67773 6.35938 3.45312C6.75 3.08789 7 2.57227 7 2C7 0.900391 6.09961 0 5 0ZM5 1C5.55859 1 6 1.44141 6 2C6 2.55859 5.55859 3 5 3C4.44141 3 4 2.55859 4 2C4 1.44141 4.44141 1 5 1ZM5 4C5.53125 4 5.96289 4.31055 6.375 4.89062C6.78711 5.4707 7.11328 6.29688 7.35938 7.14062C7.72656 8.40039 7.87305 9.43555 7.9375 10H2.0625C2.12695 9.43555 2.27344 8.40039 2.64062 7.14062C2.88672 6.29688 3.21289 5.4707 3.625 4.89062C4.03711 4.31055 4.46875 4 5 4ZM4.25 6.5C3.83594 6.5 3.5 6.83594 3.5 7.25C3.5 7.98242 5 9 5 9C5 9 6.5 8.00391 6.5 7.25C6.5 6.83594 6.16406 6.5 5.75 6.5C5.33594 6.5 5 6.83594 5 7.25C5 6.83594 4.66406 6.5 4.25 6.5Z" fill="#153E90"/>
</svg>
  