<svg width="24" height="24" viewBox="0 0 24 24" fill="none" xmlns="http://www.w3.org/2000/svg">
<path d="M6.25 1.99988C5.0095 1.99988 4 3.00938 4 4.24988V19.7499C4 20.9904 5.0095 21.9999 6.25 21.9999H12.8203C12.3928 21.5554 12.0278 21.0514 11.7393 20.4999H6.25C5.8365 20.4999 5.5 20.1634 5.5 19.7499V4.24988C5.5 3.83638 5.8365 3.49988 6.25 3.49988H12V7.74988C12 8.99038 13.0095 9.99988 14.25 9.99988H18.5V11.0848C19.0225 11.1658 19.5265 11.3033 20 11.5018V9.24988C20 9.04263 19.916 8.85529 19.7803 8.7196L13.2803 2.2196C13.1446 2.08392 12.9572 1.99988 12.75 1.99988H6.25ZM13.5 4.56042L17.4395 8.49988H14.25C13.8365 8.49988 13.5 8.16338 13.5 7.74988V4.56042ZM17.5 11.9999C14.4625 11.9999 12 14.4624 12 17.4999C12 20.5374 14.4625 22.9999 17.5 22.9999C20.5375 22.9999 23 20.5374 23 17.4999C23 14.4624 20.5375 11.9999 17.5 11.9999ZM17.5 14.9999C20.091 14.9999 21.3781 17.1564 21.4316 17.2479C21.5221 17.4039 21.5221 17.5958 21.4316 17.7518C21.3781 17.8438 20.091 19.9999 17.5 19.9999C14.909 19.9999 13.6219 17.8433 13.5684 17.7518C13.4779 17.5958 13.4779 17.4039 13.5684 17.2479C13.6219 17.1564 14.909 14.9999 17.5 14.9999ZM17.5 15.9999C16.6715 15.9999 16 16.6714 16 17.4999C16 18.3284 16.6715 18.9999 17.5 18.9999C18.3285 18.9999 19 18.3284 19 17.4999C19 16.6714 18.3285 15.9999 17.5 15.9999Z" fill="#414141"/>
</svg>
