<svg width="24" height="24" viewBox="0 0 24 24" fill="none" xmlns="http://www.w3.org/2000/svg">
<path d="M14 2C13.2043 2 12.4415 2.31623 11.8789 2.87891L2.87886 11.8789C1.71388 13.0439 1.71388 14.9561 2.87886 16.1211L7.87886 21.1211C8.44154 21.6838 9.20428 22 9.99995 22C10.7956 22 11.5584 21.6838 12.121 21.1211L21.121 12.1211C21.6839 11.5582 22 10.7947 22 9.99902V4.5C22 3.12826 20.8717 2 19.5 2H14ZM14 3.5H19.5C20.0582 3.5 20.5 3.94174 20.5 4.5V9.99902C20.5 10.4053 20.3476 10.7734 20.0605 11.0605L11.0605 20.0605C10.7732 20.3479 10.4063 20.5 9.99995 20.5C9.59363 20.5 9.22673 20.3479 8.9394 20.0605L3.93941 15.0605C3.34938 14.4705 3.34938 13.5295 3.93941 12.9395L12.9394 3.93945C13.2267 3.65213 13.5936 3.5 14 3.5ZM17 5.5C16.1715 5.5 15.5 6.1715 15.5 7C15.5 7.8285 16.1715 8.5 17 8.5C17.8285 8.5 18.5 7.8285 18.5 7C18.5 6.1715 17.8285 5.5 17 5.5Z" fill="#414141"/>
<circle cx="17.5" cy="6.5" r="2.5" fill="white"/>
</svg>
