<svg width="24" height="24" viewBox="0 0 24 24" fill="none" xmlns="http://www.w3.org/2000/svg">
<path d="M11.2499 2.00488C10.697 2.00487 10.144 2.21335 9.7265 2.63086L6.85736 5.5H5.37006L5.33783 5.3291C5.13627 4.27277 4.20342 3.5 3.12787 3.5H1.74994C1.65056 3.49859 1.55188 3.51696 1.45966 3.55402C1.36743 3.59108 1.28349 3.6461 1.21271 3.71588C1.14194 3.78566 1.08573 3.86882 1.04737 3.96051C1.00901 4.0522 0.989258 4.15061 0.989258 4.25C0.989258 4.34939 1.00901 4.4478 1.04737 4.53949C1.08573 4.63118 1.14194 4.71434 1.21271 4.78412C1.28349 4.8539 1.36743 4.90892 1.45966 4.94598C1.55188 4.98304 1.65056 5.00141 1.74994 5H3.12787C3.49184 5 3.79523 5.25146 3.8642 5.60937L4.01166 6.38281C4.01207 6.38511 4.0122 6.38735 4.01263 6.38965L5.62592 14.8584C5.91742 16.3894 7.26078 17.5 8.81928 17.5H10.9999C10.9999 16.9835 11.0603 16.4815 11.1738 16H8.81928C7.98028 16 7.25605 15.4016 7.09955 14.5771L5.65619 7H19.6386C19.7201 7.01355 19.8032 7.01355 19.8847 7H21.3437L20.4482 11.7051C20.9377 11.9546 21.3912 12.264 21.7997 12.624L22.9872 6.38965C23.0287 6.17065 22.9706 5.94298 22.8281 5.77148C22.6851 5.59948 22.4734 5.5 22.2499 5.5H20.0605L17.6494 3.08789C16.883 2.32155 15.6178 2.32155 14.8515 3.08789L14.041 3.89844L12.7734 2.63184L12.7724 2.63086C12.3552 2.21382 11.8024 2.00489 11.2499 2.00488ZM11.2499 3.49512C11.4157 3.49517 11.5812 3.56061 11.7119 3.69141L13.5195 5.5H8.97943L10.787 3.69141C10.918 3.56041 11.0842 3.49507 11.2499 3.49512ZM16.2499 4.00293C16.3707 4.00293 16.492 4.05161 16.5888 4.14844L17.9394 5.5H15.6425L15.1015 4.95898L15.912 4.14844C16.0089 4.05161 16.1292 4.00293 16.2499 4.00293ZM17.4999 12C14.4624 12 11.9999 14.4625 11.9999 17.5C11.9999 20.5375 14.4624 23 17.4999 23C20.5374 23 22.9999 20.5375 22.9999 17.5C22.9999 14.4625 20.5374 12 17.4999 12ZM16.9999 14C17.2759 14 17.4999 14.224 17.4999 14.5V17.5H19.9999C20.2759 17.5 20.4999 17.724 20.4999 18C20.4999 18.276 20.2759 18.5 19.9999 18.5H16.9999C16.7239 18.5 16.4999 18.276 16.4999 18V14.5C16.4999 14.224 16.7239 14 16.9999 14ZM9.99994 18.5C9.60212 18.5 9.22058 18.658 8.93928 18.9393C8.65798 19.2206 8.49994 19.6022 8.49994 20C8.49994 20.3978 8.65798 20.7794 8.93928 21.0607C9.22058 21.342 9.60212 21.5 9.99994 21.5C10.3978 21.5 10.7793 21.342 11.0606 21.0607C11.3419 20.7794 11.4999 20.3978 11.4999 20C11.4999 19.6022 11.3419 19.2206 11.0606 18.9393C10.7793 18.658 10.3978 18.5 9.99994 18.5Z" fill="#414141"/>
</svg>
