<svg width="24" height="24" viewBox="0 0 24 24" fill="none" xmlns="http://www.w3.org/2000/svg">
<path d="M4.25 2.5C3.5682 2.5 3 3.0682 3 3.75V7.25C3 7.84625 3.43494 8.35617 4 8.47461V19.25C4 20.4838 5.01625 21.5 6.25 21.5H17.75C18.9838 21.5 20 20.4838 20 19.25V8.47461C20.5651 8.35617 21 7.84625 21 7.25V3.75C21 3.0682 20.4318 2.5 19.75 2.5H4.25ZM4.5 4H19.5V7H19.25H4.75H4.5V4ZM5.5 8.5H18.5V19.25C18.5 19.6733 18.1732 20 17.75 20H6.25C5.82675 20 5.5 19.6733 5.5 19.25V8.5ZM9.75 10.5C9.65062 10.4986 9.55194 10.517 9.45972 10.554C9.36749 10.5911 9.28355 10.6461 9.21277 10.7159C9.142 10.7857 9.08579 10.8688 9.04743 10.9605C9.00907 11.0522 8.98932 11.1506 8.98932 11.25C8.98932 11.3494 9.00907 11.4478 9.04743 11.5395C9.08579 11.6312 9.142 11.7143 9.21277 11.7841C9.28355 11.8539 9.36749 11.9089 9.45972 11.946C9.55194 11.983 9.65062 12.0014 9.75 12H14.25C14.3494 12.0014 14.4481 11.983 14.5403 11.946C14.6325 11.9089 14.7164 11.8539 14.7872 11.7841C14.858 11.7143 14.9142 11.6312 14.9526 11.5395C14.9909 11.4478 15.0107 11.3494 15.0107 11.25C15.0107 11.1506 14.9909 11.0522 14.9526 10.9605C14.9142 10.8688 14.858 10.7857 14.7872 10.7159C14.7164 10.6461 14.6325 10.5911 14.5403 10.554C14.4481 10.517 14.3494 10.4986 14.25 10.5H9.75Z" fill="#414141"/>
</svg>
