<svg width="24" height="24" viewBox="0 0 24 24" fill="none" xmlns="http://www.w3.org/2000/svg">
<path d="M11.8037 1.99902C9.41504 1.99902 7.45462 2.67093 6.10059 3.95312C4.74655 5.23532 4.05371 7.09093 4.05371 9.24902V11.1279C3.48346 11.5831 3.05371 12.2142 3.05371 12.999C3.05371 14.1795 3.90553 15.1326 5.0127 15.3887C5.46072 17.1669 6.20587 18.7513 7.25586 19.9141C8.40703 21.1889 9.90715 22 11.5537 22C13.2003 22 14.6995 21.1888 15.8506 19.9141C16.9005 18.7514 17.6455 17.1676 18.0938 15.3896C19.2011 15.1338 20.0537 14.1806 20.0537 13C20.0537 12.2156 19.6216 11.5883 19.0537 11.1357V10.25C19.0537 9.48614 18.9002 8.8423 18.748 8.37305C19.4183 7.98819 19.7559 7.15056 19.4053 6.41602C18.1532 3.79841 15.4401 1.99902 11.8037 1.99902ZM11.8037 3.49902C14.9623 3.49902 17.0399 4.94808 18.0518 7.06348C18.0616 7.08437 18.0589 7.09122 18.0215 7.10254C17.4683 7.26983 16.1316 7.5 14.5537 7.5C12.6475 7.5 11.3785 7.1448 10.5986 6.81055C9.81872 6.4763 9.58398 6.21973 9.58398 6.21973C9.49495 6.13069 9.38494 6.0655 9.26409 6.03017C9.14324 5.99483 9.01544 5.99049 8.89247 6.01753C8.7695 6.04458 8.65532 6.10215 8.56045 6.18493C8.46557 6.26771 8.39307 6.37304 8.34961 6.49121C8.34961 6.49121 8.18247 7.01095 7.3457 7.65527C7.18797 7.77662 7.0849 7.95565 7.05917 8.15298C7.03344 8.35031 7.08715 8.54979 7.2085 8.70752C7.32984 8.86525 7.50887 8.96832 7.7062 8.99405C7.90354 9.01978 8.10301 8.96607 8.26074 8.84473C8.75159 8.46676 9.05317 8.0812 9.29004 7.75C9.53948 7.92275 9.53878 7.98844 10.0078 8.18945C10.9779 8.6052 12.46 9 14.5537 9C15.649 9 16.5344 8.89845 17.2949 8.77051C17.4174 9.11817 17.5537 9.60513 17.5537 10.25V11.4395C17.5536 11.5813 17.5938 11.7203 17.6695 11.8402C17.7452 11.9602 17.8534 12.0562 17.9814 12.1172C18.325 12.2805 18.5537 12.6014 18.5537 13C18.5537 13.5612 18.1149 14 17.5537 14C17.6861 14 17.6768 13.9971 17.5234 13.9971C17.3513 13.997 17.1843 14.0561 17.0506 14.1646C16.9168 14.2731 16.8245 14.4243 16.7891 14.5928C16.7066 14.9858 16.6036 15.3637 16.4863 15.7285C15.3413 15.4225 13.4268 15 11.5537 15C9.68059 15 7.76609 15.4225 6.62109 15.7285C6.50395 15.3636 6.40078 14.9858 6.31836 14.5928C6.28312 14.4241 6.19087 14.2727 6.05713 14.164C5.92339 14.0554 5.75631 13.9961 5.58398 13.9961C5.43063 13.9961 5.42136 13.999 5.55371 13.999C4.99254 13.999 4.55371 13.5602 4.55371 12.999C4.55371 12.5972 4.78446 12.2699 5.125 12.1084C5.25327 12.0476 5.36164 11.9516 5.43753 11.8316C5.51342 11.7117 5.55371 11.5726 5.55371 11.4307V9.24902C5.55371 7.40312 6.11087 6.00977 7.13184 5.04297C8.1528 4.07617 9.69238 3.49902 11.8037 3.49902ZM9.05371 12C8.78849 12 8.53414 12.1054 8.3466 12.2929C8.15907 12.4804 8.05371 12.7348 8.05371 13C8.05371 13.2652 8.15907 13.5196 8.3466 13.7071C8.53414 13.8946 8.78849 14 9.05371 14C9.31893 14 9.57328 13.8946 9.76082 13.7071C9.94835 13.5196 10.0537 13.2652 10.0537 13C10.0537 12.7348 9.94835 12.4804 9.76082 12.2929C9.57328 12.1054 9.31893 12 9.05371 12ZM14.0537 12C13.7885 12 13.5341 12.1054 13.3466 12.2929C13.1591 12.4804 13.0537 12.7348 13.0537 13C13.0537 13.2652 13.1591 13.5196 13.3466 13.7071C13.5341 13.8946 13.7885 14 14.0537 14C14.3189 14 14.5733 13.8946 14.7608 13.7071C14.9484 13.5196 15.0537 13.2652 15.0537 13C15.0537 12.7348 14.9484 12.4804 14.7608 12.2929C14.5733 12.1054 14.3189 12 14.0537 12ZM11.5537 16.5C13.1555 16.5 14.8242 16.8629 15.9131 17.1445C15.5756 17.8221 15.1785 18.4196 14.7373 18.9082C13.8026 19.9433 12.7127 20.5 11.5537 20.5C10.3948 20.5 9.30385 19.9433 8.36914 18.9082C7.92793 18.4196 7.53157 17.822 7.19434 17.1445C8.2832 16.8629 9.95196 16.5 11.5537 16.5Z" fill="#414141"/>
</svg>
