<svg width="24" height="24" viewBox="0 0 24 24" fill="none" xmlns="http://www.w3.org/2000/svg">
<path d="M4.25 4C3.01625 4 2 5.01625 2 6.25V17.75C2 18.9838 3.01625 20 4.25 20H19.75C20.9838 20 22 18.9838 22 17.75V6.25C22 5.01625 20.9838 4 19.75 4H4.25ZM4.25 5.5H11.25V18.5H4.25C3.82675 18.5 3.5 18.1732 3.5 17.75V6.25C3.5 5.82675 3.82675 5.5 4.25 5.5ZM12.75 5.5H19.75C20.1733 5.5 20.5 5.82675 20.5 6.25V17.75C20.5 18.1732 20.1733 18.5 19.75 18.5H12.75V5.5ZM5.25 8.5C5.15062 8.49859 5.05194 8.51696 4.95972 8.55402C4.86749 8.59108 4.78355 8.6461 4.71277 8.71588C4.642 8.78566 4.58579 8.86882 4.54743 8.96051C4.50907 9.0522 4.48932 9.15061 4.48932 9.25C4.48932 9.34939 4.50907 9.4478 4.54743 9.53949C4.58579 9.63118 4.642 9.71434 4.71277 9.78412C4.78355 9.8539 4.86749 9.90892 4.95972 9.94598C5.05194 9.98304 5.15062 10.0014 5.25 10H9.25C9.34938 10.0014 9.44806 9.98304 9.54028 9.94598C9.63251 9.90892 9.71645 9.8539 9.78723 9.78412C9.858 9.71434 9.91421 9.63118 9.95257 9.53949C9.99093 9.4478 10.0107 9.34939 10.0107 9.25C10.0107 9.15061 9.99093 9.0522 9.95257 8.96051C9.91421 8.86882 9.858 8.78566 9.78723 8.71588C9.71645 8.6461 9.63251 8.59108 9.54028 8.55402C9.44806 8.51696 9.34938 8.49859 9.25 8.5H5.25ZM14.75 8.5C14.6506 8.49859 14.5519 8.51696 14.4597 8.55402C14.3675 8.59108 14.2836 8.6461 14.2128 8.71588C14.142 8.78566 14.0858 8.86882 14.0474 8.96051C14.0091 9.0522 13.9893 9.15061 13.9893 9.25C13.9893 9.34939 14.0091 9.4478 14.0474 9.53949C14.0858 9.63118 14.142 9.71434 14.2128 9.78412C14.2836 9.8539 14.3675 9.90892 14.4597 9.94598C14.5519 9.98304 14.6506 10.0014 14.75 10H18.75C18.8494 10.0014 18.9481 9.98304 19.0403 9.94598C19.1325 9.90892 19.2164 9.8539 19.2872 9.78412C19.358 9.71434 19.4142 9.63118 19.4526 9.53949C19.4909 9.4478 19.5107 9.34939 19.5107 9.25C19.5107 9.15061 19.4909 9.0522 19.4526 8.96051C19.4142 8.86882 19.358 8.78566 19.2872 8.71588C19.2164 8.6461 19.1325 8.59108 19.0403 8.55402C18.9481 8.51696 18.8494 8.49859 18.75 8.5H14.75ZM5.25 11.5C5.15062 11.4986 5.05194 11.517 4.95972 11.554C4.86749 11.5911 4.78355 11.6461 4.71277 11.7159C4.642 11.7857 4.58579 11.8688 4.54743 11.9605C4.50907 12.0522 4.48932 12.1506 4.48932 12.25C4.48932 12.3494 4.50907 12.4478 4.54743 12.5395C4.58579 12.6312 4.642 12.7143 4.71277 12.7841C4.78355 12.8539 4.86749 12.9089 4.95972 12.946C5.05194 12.983 5.15062 13.0014 5.25 13H9.25C9.34938 13.0014 9.44806 12.983 9.54028 12.946C9.63251 12.9089 9.71645 12.8539 9.78723 12.7841C9.858 12.7143 9.91421 12.6312 9.95257 12.5395C9.99093 12.4478 10.0107 12.3494 10.0107 12.25C10.0107 12.1506 9.99093 12.0522 9.95257 11.9605C9.91421 11.8688 9.858 11.7857 9.78723 11.7159C9.71645 11.6461 9.63251 11.5911 9.54028 11.554C9.44806 11.517 9.34938 11.4986 9.25 11.5H5.25ZM14.75 11.5C14.6506 11.4986 14.5519 11.517 14.4597 11.554C14.3675 11.5911 14.2836 11.6461 14.2128 11.7159C14.142 11.7857 14.0858 11.8688 14.0474 11.9605C14.0091 12.0522 13.9893 12.1506 13.9893 12.25C13.9893 12.3494 14.0091 12.4478 14.0474 12.5395C14.0858 12.6312 14.142 12.7143 14.2128 12.7841C14.2836 12.8539 14.3675 12.9089 14.4597 12.946C14.5519 12.983 14.6506 13.0014 14.75 13H18.75C18.8494 13.0014 18.9481 12.983 19.0403 12.946C19.1325 12.9089 19.2164 12.8539 19.2872 12.7841C19.358 12.7143 19.4142 12.6312 19.4526 12.5395C19.4909 12.4478 19.5107 12.3494 19.5107 12.25C19.5107 12.1506 19.4909 12.0522 19.4526 11.9605C19.4142 11.8688 19.358 11.7857 19.2872 11.7159C19.2164 11.6461 19.1325 11.5911 19.0403 11.554C18.9481 11.517 18.8494 11.4986 18.75 11.5H14.75ZM5.25 14.5C5.15062 14.4986 5.05194 14.517 4.95972 14.554C4.86749 14.5911 4.78355 14.6461 4.71277 14.7159C4.642 14.7857 4.58579 14.8688 4.54743 14.9605C4.50907 15.0522 4.48932 15.1506 4.48932 15.25C4.48932 15.3494 4.50907 15.4478 4.54743 15.5395C4.58579 15.6312 4.642 15.7143 4.71277 15.7841C4.78355 15.8539 4.86749 15.9089 4.95972 15.946C5.05194 15.983 5.15062 16.0014 5.25 16H7.75C7.84938 16.0014 7.94806 15.983 8.04028 15.946C8.13251 15.9089 8.21645 15.8539 8.28723 15.7841C8.358 15.7143 8.41421 15.6312 8.45257 15.5395C8.49093 15.4478 8.51068 15.3494 8.51068 15.25C8.51068 15.1506 8.49093 15.0522 8.45257 14.9605C8.41421 14.8688 8.358 14.7857 8.28723 14.7159C8.21645 14.6461 8.13251 14.5911 8.04028 14.554C7.94806 14.517 7.84938 14.4986 7.75 14.5H5.25ZM14.75 14.5C14.6506 14.4986 14.5519 14.517 14.4597 14.554C14.3675 14.5911 14.2836 14.6461 14.2128 14.7159C14.142 14.7857 14.0858 14.8688 14.0474 14.9605C14.0091 15.0522 13.9893 15.1506 13.9893 15.25C13.9893 15.3494 14.0091 15.4478 14.0474 15.5395C14.0858 15.6312 14.142 15.7143 14.2128 15.7841C14.2836 15.8539 14.3675 15.9089 14.4597 15.946C14.5519 15.983 14.6506 16.0014 14.75 16H17.25C17.3494 16.0014 17.4481 15.983 17.5403 15.946C17.6325 15.9089 17.7164 15.8539 17.7872 15.7841C17.858 15.7143 17.9142 15.6312 17.9526 15.5395C17.9909 15.4478 18.0107 15.3494 18.0107 15.25C18.0107 15.1506 17.9909 15.0522 17.9526 14.9605C17.9142 14.8688 17.858 14.7857 17.7872 14.7159C17.7164 14.6461 17.6325 14.5911 17.5403 14.554C17.4481 14.517 17.3494 14.4986 17.25 14.5H14.75Z" fill="#414141"/>
</svg>
