<svg width="18" height="18" viewBox="0 0 18 18" fill="none" xmlns="http://www.w3.org/2000/svg">
<path d="M8.99984 0.666992C4.40486 0.666992 0.666504 4.40536 0.666504 9.00033C0.666504 13.5953 4.40486 17.3337 8.99984 17.3337C13.5948 17.3337 17.3332 13.5953 17.3332 9.00033C17.3332 4.40536 13.5948 0.666992 8.99984 0.666992ZM8.99984 1.91699C12.9193 1.91699 16.0832 5.08091 16.0832 9.00033C16.0832 12.9197 12.9193 16.0837 8.99984 16.0837C5.08041 16.0837 1.9165 12.9197 1.9165 9.00033C1.9165 5.08091 5.08041 1.91699 8.99984 1.91699ZM5.45817 8.37533C5.37535 8.37415 5.29312 8.38946 5.21627 8.42034C5.13941 8.45122 5.06946 8.49707 5.01048 8.55523C4.9515 8.61338 4.90467 8.68267 4.8727 8.75908C4.84073 8.83549 4.82427 8.9175 4.82427 9.00033C4.82427 9.08315 4.84073 9.16516 4.8727 9.24157C4.90467 9.31798 4.9515 9.38727 5.01048 9.44543C5.06946 9.50358 5.13941 9.54943 5.21627 9.58031C5.29312 9.6112 5.37535 9.6265 5.45817 9.62533H12.5415C12.6243 9.6265 12.7066 9.6112 12.7834 9.58031C12.8603 9.54943 12.9302 9.50358 12.9892 9.44543C13.0482 9.38727 13.095 9.31798 13.127 9.24157C13.1589 9.16516 13.1754 9.08315 13.1754 9.00033C13.1754 8.9175 13.1589 8.83549 13.127 8.75908C13.095 8.68267 13.0482 8.61338 12.9892 8.55523C12.9302 8.49707 12.8603 8.45122 12.7834 8.42034C12.7066 8.38946 12.6243 8.37415 12.5415 8.37533H5.45817Z" fill="#52B6C3"/>
</svg>
