<svg width="24" height="24" viewBox="0 0 24 24" fill="none" xmlns="http://www.w3.org/2000/svg">
<path d="M4.25 21C3.29252 21 2.5 20.2075 2.5 19.25V10.75C2.5 9.79252 3.29252 9 4.25 9H19.75C20.7075 9 21.5 9.79252 21.5 10.75V19.25C21.5 20.2075 20.7075 21 19.75 21H4.25ZM5.5 19.5H18.5C18.5 18.67 19.17 18 20 18V12C19.17 12 18.5 11.33 18.5 10.5H5.5C5.5 11.33 4.83 12 4 12V18C4.83 18 5.5 18.67 5.5 19.5ZM12 18.5C11.0208 18.5 10.1976 18.0079 9.70605 17.332C9.21448 16.6561 9 15.8239 9 15C9 14.1761 9.21448 13.3439 9.70605 12.668C10.1976 11.9921 11.0208 11.5 12 11.5C12.9792 11.5 13.8024 11.9921 14.2939 12.668C14.7855 13.3439 15 14.1761 15 15C15 15.8239 14.7855 16.6561 14.2939 17.332C13.8024 18.0079 12.9792 18.5 12 18.5ZM12 17C12.5208 17 12.8226 16.8046 13.0811 16.4492C13.3395 16.0939 13.5 15.5511 13.5 15C13.5 14.4489 13.3395 13.9061 13.0811 13.5508C12.8226 13.1954 12.5208 13 12 13C11.4792 13 11.1774 13.1954 10.9189 13.5508C10.6605 13.9061 10.5 14.4489 10.5 15C10.5 15.5511 10.6605 16.0939 10.9189 16.4492C11.1774 16.8046 11.4792 17 12 17ZM6 16C5.73478 16 5.48043 15.8946 5.29289 15.7071C5.10536 15.5196 5 15.2652 5 15C5 14.7348 5.10536 14.4804 5.29289 14.2929C5.48043 14.1054 5.73478 14 6 14C6.26522 14 6.51957 14.1054 6.70711 14.2929C6.89464 14.4804 7 14.7348 7 15C7 15.2652 6.89464 15.5196 6.70711 15.7071C6.51957 15.8946 6.26522 16 6 16ZM18 16C17.7348 16 17.4804 15.8946 17.2929 15.7071C17.1054 15.5196 17 15.2652 17 15C17 14.7348 17.1054 14.4804 17.2929 14.2929C17.4804 14.1054 17.7348 14 18 14C18.2652 14 18.5196 14.1054 18.7071 14.2929C18.8946 14.4804 19 14.7348 19 15C19 15.2652 18.8946 15.5196 18.7071 15.7071C18.5196 15.8946 18.2652 16 18 16ZM11.9883 8.01074C11.7895 8.00764 11.6002 7.92578 11.4617 7.78314C11.3233 7.6405 11.2471 7.44875 11.25 7.25V4.56055L10.5303 5.28027C10.4612 5.35225 10.3784 5.40972 10.2868 5.4493C10.1952 5.48889 10.0966 5.5098 9.99684 5.51082C9.89706 5.51183 9.79808 5.49293 9.7057 5.45521C9.61332 5.41749 9.52939 5.36172 9.45883 5.29117C9.38828 5.22061 9.33251 5.13668 9.29479 5.0443C9.25707 4.95192 9.23817 4.85294 9.23918 4.75316C9.24019 4.65338 9.26111 4.55481 9.3007 4.46321C9.34028 4.37161 9.39775 4.28884 9.46973 4.21973L11.4053 2.28418C11.4756 2.19253 11.5661 2.11835 11.6697 2.06742C11.7734 2.01649 11.8874 1.99019 12.0029 1.99057C12.1184 1.99095 12.2323 2.018 12.3356 2.0696C12.4389 2.12121 12.5289 2.19598 12.5986 2.28809L14.5303 4.21973C14.6023 4.28884 14.6597 4.37161 14.6993 4.46321C14.7389 4.55481 14.7598 4.65338 14.7608 4.75316C14.7618 4.85294 14.7429 4.95192 14.7052 5.0443C14.6675 5.13668 14.6117 5.22061 14.5412 5.29117C14.4706 5.36172 14.3867 5.41749 14.2943 5.45521C14.2019 5.49293 14.1029 5.51183 14.0032 5.51082C13.9034 5.5098 13.8048 5.48889 13.7132 5.4493C13.6216 5.40972 13.5388 5.35225 13.4697 5.28027L12.75 4.56055V7.25C12.7514 7.35038 12.7327 7.45003 12.6949 7.54305C12.6571 7.63606 12.6011 7.72054 12.53 7.79148C12.459 7.86242 12.3745 7.91839 12.2814 7.95605C12.1883 7.99371 12.0887 8.01231 11.9883 8.01074Z" fill="#414141"/>
</svg>
