<svg width="24" height="24" viewBox="0 0 24 24" fill="none" xmlns="http://www.w3.org/2000/svg">
<path d="M4.25 3C3.29252 3 2.5 3.79252 2.5 4.75V13.25C2.5 14.2075 3.29252 15 4.25 15H19.75C20.7075 15 21.5 14.2075 21.5 13.25V4.75C21.5 3.79252 20.7075 3 19.75 3H4.25ZM5.5 4.5H18.5C18.5 5.33 19.17 6 20 6V12C19.17 12 18.5 12.67 18.5 13.5H5.5C5.5 12.67 4.83 12 4 12V6C4.83 6 5.5 5.33 5.5 4.5ZM12 5.5C11.0208 5.5 10.1976 5.99205 9.70605 6.66797C9.21448 7.34388 9 8.17614 9 9C9 9.82386 9.21448 10.6561 9.70605 11.332C10.1976 12.0079 11.0208 12.5 12 12.5C12.9792 12.5 13.8024 12.0079 14.2939 11.332C14.7855 10.6561 15 9.82386 15 9C15 8.17614 14.7855 7.34388 14.2939 6.66797C13.8024 5.99205 12.9792 5.5 12 5.5ZM12 7C12.5208 7 12.8226 7.19545 13.0811 7.55078C13.3395 7.90612 13.5 8.44886 13.5 9C13.5 9.55114 13.3395 10.0939 13.0811 10.4492C12.8226 10.8046 12.5208 11 12 11C11.4792 11 11.1774 10.8046 10.9189 10.4492C10.6605 10.0939 10.5 9.55114 10.5 9C10.5 8.44886 10.6605 7.90612 10.9189 7.55078C11.1774 7.19545 11.4792 7 12 7ZM6 8C5.73478 8 5.48043 8.10536 5.29289 8.29289C5.10536 8.48043 5 8.73478 5 9C5 9.26522 5.10536 9.51957 5.29289 9.70711C5.48043 9.89464 5.73478 10 6 10C6.26522 10 6.51957 9.89464 6.70711 9.70711C6.89464 9.51957 7 9.26522 7 9C7 8.73478 6.89464 8.48043 6.70711 8.29289C6.51957 8.10536 6.26522 8 6 8ZM18 8C17.7348 8 17.4804 8.10536 17.2929 8.29289C17.1054 8.48043 17 8.73478 17 9C17 9.26522 17.1054 9.51957 17.2929 9.70711C17.4804 9.89464 17.7348 10 18 10C18.2652 10 18.5196 9.89464 18.7071 9.70711C18.8946 9.51957 19 9.26522 19 9C19 8.73478 18.8946 8.48043 18.7071 8.29289C18.5196 8.10536 18.2652 8 18 8ZM11.9883 15.9893C11.7895 15.9924 11.6002 16.0742 11.4617 16.2169C11.3233 16.3595 11.2471 16.5513 11.25 16.75V19.4395L10.5303 18.7197C10.4612 18.6477 10.3784 18.5903 10.2868 18.5507C10.1952 18.5111 10.0966 18.4902 9.99684 18.4892C9.89706 18.4882 9.79808 18.5071 9.7057 18.5448C9.61332 18.5825 9.52939 18.6383 9.45883 18.7088C9.38828 18.7794 9.33251 18.8633 9.29479 18.9557C9.25707 19.0481 9.23817 19.1471 9.23918 19.2468C9.24019 19.3466 9.26111 19.4452 9.3007 19.5368C9.34028 19.6284 9.39775 19.7112 9.46973 19.7803L11.4053 21.7158C11.4756 21.8075 11.5661 21.8817 11.6697 21.9326C11.7734 21.9835 11.8874 22.0098 12.0029 22.0094C12.1184 22.0091 12.2323 21.982 12.3356 21.9304C12.4389 21.8788 12.5289 21.804 12.5986 21.7119L14.5303 19.7803C14.6023 19.7112 14.6597 19.6284 14.6993 19.5368C14.7389 19.4452 14.7598 19.3466 14.7608 19.2468C14.7618 19.1471 14.7429 19.0481 14.7052 18.9557C14.6675 18.8633 14.6117 18.7794 14.5412 18.7088C14.4706 18.6383 14.3867 18.5825 14.2943 18.5448C14.2019 18.5071 14.1029 18.4882 14.0032 18.4892C13.9034 18.4902 13.8048 18.5111 13.7132 18.5507C13.6216 18.5903 13.5388 18.6477 13.4697 18.7197L12.75 19.4395V16.75C12.7514 16.6496 12.7327 16.55 12.6949 16.457C12.6571 16.3639 12.6011 16.2795 12.53 16.2085C12.459 16.1376 12.3745 16.0816 12.2814 16.044C12.1883 16.0063 12.0887 15.9877 11.9883 15.9893Z" fill="#414141"/>
</svg>
