<svg width="24" height="24" viewBox="0 0 24 24" fill="none" xmlns="http://www.w3.org/2000/svg">
<path d="M6.25 3C4.46403 3 3 4.46403 3 6.25V17.75C3 19.536 4.46403 21 6.25 21H17.75C19.536 21 21 19.536 21 17.75V6.25C21 4.46403 19.536 3 17.75 3H6.25ZM6.25 4.5H17.75C18.725 4.5 19.5 5.27497 19.5 6.25V7H4.5V6.25C4.5 5.27497 5.27497 4.5 6.25 4.5ZM4.5 8.5H19.5V17.75C19.5 18.725 18.725 19.5 17.75 19.5H6.25C5.27497 19.5 4.5 18.725 4.5 17.75V8.5ZM7.75 10C7.28587 10 6.84075 10.1844 6.51256 10.5126C6.18437 10.8408 6 11.2859 6 11.75C6 12.2141 6.18437 12.6592 6.51256 12.9874C6.84075 13.3156 7.28587 13.5 7.75 13.5C8.21413 13.5 8.65925 13.3156 8.98744 12.9874C9.31563 12.6592 9.5 12.2141 9.5 11.75C9.5 11.2859 9.31563 10.8408 8.98744 10.5126C8.65925 10.1844 8.21413 10 7.75 10ZM12 10.5C11.6685 10.5 11.3505 10.6317 11.1161 10.8661C10.8817 11.1005 10.75 11.4185 10.75 11.75C10.75 12.0815 10.8817 12.3995 11.1161 12.6339C11.3505 12.8683 11.6685 13 12 13C12.3315 13 12.6495 12.8683 12.8839 12.6339C13.1183 12.3995 13.25 12.0815 13.25 11.75C13.25 11.4185 13.1183 11.1005 12.8839 10.8661C12.6495 10.6317 12.3315 10.5 12 10.5ZM16.25 10.5C15.9185 10.5 15.6005 10.6317 15.3661 10.8661C15.1317 11.1005 15 11.4185 15 11.75C15 12.0815 15.1317 12.3995 15.3661 12.6339C15.6005 12.8683 15.9185 13 16.25 13C16.5815 13 16.8995 12.8683 17.1339 12.6339C17.3683 12.3995 17.5 12.0815 17.5 11.75C17.5 11.4185 17.3683 11.1005 17.1339 10.8661C16.8995 10.6317 16.5815 10.5 16.25 10.5ZM16.25 14.5C15.7859 14.5 15.3408 14.6844 15.0126 15.0126C14.6844 15.3408 14.5 15.7859 14.5 16.25C14.5 16.7141 14.6844 17.1592 15.0126 17.4874C15.3408 17.8156 15.7859 18 16.25 18C16.7141 18 17.1592 17.8156 17.4874 17.4874C17.8156 17.1592 18 16.7141 18 16.25C18 15.7859 17.8156 15.3408 17.4874 15.0126C17.1592 14.6844 16.7141 14.5 16.25 14.5Z" fill="#414141"/>
</svg>
