<svg width="24" height="24" viewBox="0 0 24 24" fill="none" xmlns="http://www.w3.org/2000/svg">
<path d="M5.75 0C2.58324 0 0 2.58325 0 5.75C0 8.91675 2.58324 11.5 5.75 11.5C8.91676 11.5 11.5 8.91675 11.5 5.75C11.5 2.58325 8.91676 0 5.75 0ZM5.75 1.5C8.1061 1.5 10 3.39391 10 5.75C10 8.10609 8.1061 10 5.75 10C3.3939 10 1.5 8.10609 1.5 5.75C1.5 3.39391 3.3939 1.5 5.75 1.5ZM5.73828 2.48926C5.53954 2.49236 5.35016 2.57423 5.21173 2.71686C5.0733 2.8595 4.99715 3.05125 5 3.25V5.75C5.00004 5.9489 5.07907 6.13964 5.21973 6.28027L6.21973 7.28027C6.28884 7.35225 6.37161 7.40972 6.46321 7.4493C6.5548 7.48889 6.65338 7.5098 6.75316 7.51082C6.85294 7.51183 6.95192 7.49293 7.0443 7.45521C7.13668 7.41749 7.22061 7.36172 7.29117 7.29117C7.36172 7.22061 7.41749 7.13668 7.45521 7.0443C7.49293 6.95192 7.51183 6.85294 7.51082 6.75316C7.5098 6.65338 7.48889 6.5548 7.4493 6.46321C7.40972 6.37161 7.35225 6.28884 7.28027 6.21973L6.5 5.43945V3.25C6.50144 3.14962 6.48271 3.04997 6.44493 2.95695C6.40715 2.86394 6.35108 2.77946 6.28005 2.70852C6.20901 2.63757 6.12446 2.58161 6.0314 2.54395C5.93834 2.50629 5.83866 2.48769 5.73828 2.48926ZM11.9102 3C12.1222 3.474 12.2819 3.976 12.3799 4.5H17.75C18.715 4.5 19.5 5.285 19.5 6.25V7H12.3799C12.2814 7.524 12.1217 8.026 11.9102 8.5H19.5V17.75C19.5 18.715 18.715 19.5 17.75 19.5H6.25C5.285 19.5 4.5 18.715 4.5 17.75V12.3799C3.976 12.2814 3.474 12.1217 3 11.9102V17.75C3 19.542 4.458 21 6.25 21H17.75C19.542 21 21 19.542 21 17.75V6.25C21 4.458 19.542 3 17.75 3H11.9102ZM12 10.5C11.6685 10.5 11.3505 10.6317 11.1161 10.8661C10.8817 11.1005 10.75 11.4185 10.75 11.75C10.75 12.0815 10.8817 12.3995 11.1161 12.6339C11.3505 12.8683 11.6685 13 12 13C12.3315 13 12.6495 12.8683 12.8839 12.6339C13.1183 12.3995 13.25 12.0815 13.25 11.75C13.25 11.4185 13.1183 11.1005 12.8839 10.8661C12.6495 10.6317 12.3315 10.5 12 10.5ZM16.25 10.5C15.9185 10.5 15.6005 10.6317 15.3661 10.8661C15.1317 11.1005 15 11.4185 15 11.75C15 12.0815 15.1317 12.3995 15.3661 12.6339C15.6005 12.8683 15.9185 13 16.25 13C16.5815 13 16.8995 12.8683 17.1339 12.6339C17.3683 12.3995 17.5 12.0815 17.5 11.75C17.5 11.4185 17.3683 11.1005 17.1339 10.8661C16.8995 10.6317 16.5815 10.5 16.25 10.5ZM7.75 15C7.41848 15 7.10054 15.1317 6.86612 15.3661C6.6317 15.6005 6.5 15.9185 6.5 16.25C6.5 16.5815 6.6317 16.8995 6.86612 17.1339C7.10054 17.3683 7.41848 17.5 7.75 17.5C8.08152 17.5 8.39946 17.3683 8.63388 17.1339C8.8683 16.8995 9 16.5815 9 16.25C9 15.9185 8.8683 15.6005 8.63388 15.3661C8.39946 15.1317 8.08152 15 7.75 15ZM12 15C11.6685 15 11.3505 15.1317 11.1161 15.3661C10.8817 15.6005 10.75 15.9185 10.75 16.25C10.75 16.5815 10.8817 16.8995 11.1161 17.1339C11.3505 17.3683 11.6685 17.5 12 17.5C12.3315 17.5 12.6495 17.3683 12.8839 17.1339C13.1183 16.8995 13.25 16.5815 13.25 16.25C13.25 15.9185 13.1183 15.6005 12.8839 15.3661C12.6495 15.1317 12.3315 15 12 15Z" fill="#414141"/>
</svg>
