<svg width="24" height="24" viewBox="0 0 24 24" fill="none" xmlns="http://www.w3.org/2000/svg">
<path d="M12 2C6.48603 2 2 6.48604 2 12C2 17.514 6.48603 22 12 22C17.514 22 22 17.514 22 12C22 6.48604 17.514 2 12 2ZM12 3.5C16.7033 3.5 20.5 7.2967 20.5 12C20.5 16.7033 16.7033 20.5 12 20.5C7.29669 20.5 3.5 16.7033 3.5 12C3.5 7.2967 7.29669 3.5 12 3.5ZM12 6C10.3521 6 9 7.35207 9 9V10.1396C8.13178 10.4525 7.5 11.28 7.5 12.25V14.75C7.5 15.9838 8.51625 17 9.75 17H14.25C15.4838 17 16.5 15.9838 16.5 14.75V12.25C16.5 11.28 15.8682 10.4525 15 10.1396V9C15 7.35207 13.6479 6 12 6ZM12 7.5C12.8371 7.5 13.5 8.16293 13.5 9V10H10.5V9C10.5 8.16293 11.1629 7.5 12 7.5ZM9.75 11.5H14.25C14.6732 11.5 15 11.8268 15 12.25V14.75C15 15.1732 14.6732 15.5 14.25 15.5H9.75C9.32675 15.5 9 15.1732 9 14.75V12.25C9 11.8268 9.32675 11.5 9.75 11.5ZM12 12.5C11.7348 12.5 11.4804 12.6054 11.2929 12.7929C11.1054 12.9804 11 13.2348 11 13.5C11 13.7652 11.1054 14.0196 11.2929 14.2071C11.4804 14.3946 11.7348 14.5 12 14.5C12.2652 14.5 12.5196 14.3946 12.7071 14.2071C12.8946 14.0196 13 13.7652 13 13.5C13 13.2348 12.8946 12.9804 12.7071 12.7929C12.5196 12.6054 12.2652 12.5 12 12.5Z" fill="#414141"/>
</svg>
