<svg width="24" height="24" viewBox="0 0 24 24" fill="none" xmlns="http://www.w3.org/2000/svg">
<path d="M11.9883 0.466766C11.7897 0.469872 11.6005 0.5516 11.4621 0.694027C11.3237 0.836454 11.2474 1.02795 11.25 1.22653V2.47653H10.5C10.1965 2.47653 9.92264 2.6604 9.80664 2.9404C9.76814 3.0334 9.75 3.13003 9.75 3.22653C9.75 3.42203 9.82623 3.61428 9.96973 3.75778L11.4697 5.25778C11.7627 5.55078 12.2373 5.55078 12.5303 5.25778L14.0303 3.75778C14.2443 3.54378 14.3099 3.2214 14.1934 2.9404C14.0774 2.6604 13.8035 2.47653 13.5 2.47653H12.75V1.22653C12.7513 1.12623 12.7325 1.02669 12.6946 0.933787C12.6568 0.840889 12.6007 0.756525 12.5297 0.685686C12.4587 0.614848 12.3742 0.558974 12.2812 0.521371C12.1882 0.483768 12.0886 0.4652 11.9883 0.466766ZM6.73828 2.98923C6.53954 2.99233 6.35016 3.07419 6.21173 3.21683C6.0733 3.35947 5.99715 3.55122 6 3.74997V6.49997H5.25C3.46403 6.49997 2 7.964 2 9.74997V16.75C2 17.9837 3.01625 19 4.25 19H6V20.25C6 21.4837 7.01625 22.5 8.25 22.5H15.75C16.9838 22.5 18 21.4837 18 20.25V19H19.75C20.9838 19 22 17.9837 22 16.75V9.74997C22 7.964 20.536 6.49997 18.75 6.49997H18V3.74997C18.0014 3.64959 17.9827 3.54994 17.9449 3.45692C17.9071 3.36391 17.8511 3.27943 17.78 3.20849C17.709 3.13754 17.6245 3.08158 17.5314 3.04392C17.4383 3.00626 17.3387 2.98766 17.2383 2.98923C17.0395 2.99233 16.8502 3.07419 16.7117 3.21683C16.5733 3.35947 16.4971 3.55122 16.5 3.74997V6.49997H7.5V3.74997C7.50144 3.64959 7.48271 3.54994 7.44493 3.45692C7.40715 3.36391 7.35108 3.27943 7.28005 3.20849C7.20901 3.13754 7.12446 3.08158 7.0314 3.04392C6.93834 3.00626 6.83866 2.98766 6.73828 2.98923ZM5.25 7.99997H6.62695C6.70747 8.0132 6.7896 8.0132 6.87012 7.99997H17.127C17.2075 8.0132 17.2896 8.0132 17.3701 7.99997H18.75C19.725 7.99997 20.5 8.77494 20.5 9.74997V16.75C20.5 17.1732 20.1733 17.5 19.75 17.5H18V15.75C18 14.5162 16.9838 13.5 15.75 13.5H8.25C7.01625 13.5 6 14.5162 6 15.75V17.5H4.25C3.82675 17.5 3.5 17.1732 3.5 16.75V9.74997C3.5 8.77494 4.27497 7.99997 5.25 7.99997ZM8.25 15H15.75C16.1732 15 16.5 15.3267 16.5 15.75V20.25C16.5 20.6732 16.1732 21 15.75 21H8.25C7.82675 21 7.5 20.6732 7.5 20.25V15.75C7.5 15.3267 7.82675 15 8.25 15Z" fill="#414141"/>
</svg>
