<svg width="24" height="24" viewBox="0 0 24 24" fill="none" xmlns="http://www.w3.org/2000/svg">
<path d="M2.72258 2.00095C2.6021 2.00532 2.48445 2.03867 2.3796 2.09817C2.27474 2.15767 2.18578 2.24157 2.12024 2.34275C2.0547 2.44394 2.01451 2.55943 2.00309 2.67945C1.99166 2.79946 2.00934 2.92046 2.05461 3.0322L5.69035 12L2.05461 20.9677C1.99727 21.109 1.98432 21.2643 2.01748 21.4131C2.05064 21.5619 2.12833 21.697 2.24022 21.8005C2.35211 21.904 2.49287 21.971 2.64377 21.9925C2.79467 22.014 2.94853 21.989 3.08488 21.9209L21.5849 12.6709C21.7095 12.6086 21.8143 12.5128 21.8875 12.3943C21.9607 12.2758 21.9995 12.1393 21.9995 12C21.9995 11.8607 21.9607 11.7241 21.8875 11.6056C21.8143 11.4871 21.7095 11.3914 21.5849 11.3291L3.08488 2.07907C2.97255 2.02313 2.84798 1.99627 2.72258 2.00095ZM4.19133 4.30954L19.5732 12L4.19133 19.6904L7.00578 12.75H13.7499C13.8493 12.7514 13.948 12.733 14.0402 12.696C14.1324 12.6589 14.2164 12.6039 14.2871 12.5341C14.3579 12.4643 14.4141 12.3812 14.4525 12.2895C14.4908 12.1978 14.5106 12.0994 14.5106 12C14.5106 11.9006 14.4908 11.8022 14.4525 11.7105C14.4141 11.6188 14.3579 11.5356 14.2871 11.4659C14.2164 11.3961 14.1324 11.341 14.0402 11.304C13.948 11.2669 13.8493 11.2486 13.7499 11.25H7.00578L4.19133 4.30954Z" fill="#414141"/>
</svg>
