<svg width="24" height="24" viewBox="0 0 24 24" fill="none" xmlns="http://www.w3.org/2000/svg">
<path d="M11.9893 2.24995C11.7941 2.25281 11.6077 2.33163 11.4697 2.46968L8.46973 5.46968C8.39775 5.53879 8.34028 5.62156 8.3007 5.71316C8.26111 5.80476 8.2402 5.90333 8.23918 6.00311C8.23817 6.10289 8.25707 6.20187 8.29479 6.29425C8.33251 6.38663 8.38828 6.47056 8.45883 6.54112C8.52939 6.61168 8.61332 6.66745 8.7057 6.70516C8.79808 6.74288 8.89706 6.76179 8.99684 6.76077C9.09662 6.75976 9.1952 6.73884 9.28679 6.69926C9.37839 6.65967 9.46116 6.6022 9.53027 6.53023L11.249 4.81148L11.2402 14.749C11.2387 14.8484 11.2569 14.947 11.2939 15.0393C11.3308 15.1316 11.3857 15.2156 11.4554 15.2865C11.5251 15.3573 11.6082 15.4136 11.6998 15.4521C11.7915 15.4906 11.8899 15.5105 11.9892 15.5106C12.0886 15.5107 12.1871 15.4911 12.2788 15.4529C12.3705 15.4146 12.4538 15.3585 12.5236 15.2878C12.5935 15.2172 12.6486 15.1333 12.6858 15.0411C12.723 14.949 12.7415 14.8503 12.7402 14.7509L12.749 4.80952L14.4697 6.53023C14.5388 6.6022 14.6216 6.65967 14.7132 6.69926C14.8048 6.73884 14.9034 6.75976 15.0032 6.76077C15.1029 6.76179 15.2019 6.74288 15.2943 6.70516C15.3867 6.66745 15.4706 6.61168 15.5412 6.54112C15.6117 6.47056 15.6675 6.38663 15.7052 6.29425C15.7429 6.20187 15.7618 6.10289 15.7608 6.00311C15.7598 5.90333 15.7389 5.80476 15.6993 5.71316C15.6597 5.62156 15.6023 5.53879 15.5303 5.46968L12.5303 2.46968C12.4594 2.39874 12.375 2.34275 12.282 2.30501C12.1891 2.26727 12.0895 2.24854 11.9893 2.24995ZM7.75 8.49995C6.24011 8.49995 5 9.74007 5 11.25V19.25C5 20.7598 6.24011 22 7.75 22H16.25C17.7599 22 19 20.7598 19 19.25V11.25C19 9.74007 17.7599 8.49995 16.25 8.49995H15.25C15.1506 8.49855 15.0519 8.51691 14.9597 8.55397C14.8675 8.59103 14.7836 8.64605 14.7128 8.71583C14.642 8.78562 14.5858 8.86877 14.5474 8.96046C14.5091 9.05216 14.4893 9.15056 14.4893 9.24995C14.4893 9.34935 14.5091 9.44775 14.5474 9.53944C14.5858 9.63114 14.642 9.71429 14.7128 9.78407C14.7836 9.85386 14.8675 9.90888 14.9597 9.94594C15.0519 9.983 15.1506 10.0014 15.25 9.99995H16.25C16.9491 9.99995 17.5 10.5508 17.5 11.25V19.25C17.5 19.9491 16.9491 20.5 16.25 20.5H7.75C7.05089 20.5 6.5 19.9491 6.5 19.25V11.25C6.5 10.5508 7.05089 9.99995 7.75 9.99995H8.75C8.84938 10.0014 8.94806 9.983 9.04028 9.94594C9.13251 9.90888 9.21645 9.85386 9.28723 9.78407C9.358 9.71429 9.41421 9.63114 9.45257 9.53944C9.49093 9.44775 9.51068 9.34935 9.51068 9.24995C9.51068 9.15056 9.49093 9.05216 9.45257 8.96046C9.41421 8.86877 9.358 8.78562 9.28723 8.71583C9.21645 8.64605 9.13251 8.59103 9.04028 8.55397C8.94806 8.51691 8.84938 8.49855 8.75 8.49995H7.75Z" fill="#414141"/>
</svg>
