<svg width="24" height="24" viewBox="0 0 24 24" fill="none" xmlns="http://www.w3.org/2000/svg">
<path d="M12.0009 2.50293C11.4778 2.50293 10.9545 2.66446 10.5126 2.9873C9.29485 3.877 7.06009 5.21401 4.58875 5.47168C3.67463 5.56719 2.96303 6.36829 3.00281 7.29785C3.40938 16.8116 9.47116 20.48 11.2509 21.3271C11.7225 21.5513 12.2782 21.5513 12.7499 21.3271C14.5296 20.48 20.5914 16.8116 20.9979 7.29785C20.9979 7.29753 20.9979 7.2972 20.9979 7.29688C21.0368 6.36766 20.3259 5.56726 19.412 5.47168H19.411C16.9401 5.21378 14.7057 3.87688 13.4882 2.9873C13.0463 2.66446 12.5239 2.50293 12.0009 2.50293ZM12.0009 3.99707C12.2106 3.99707 12.4198 4.06409 12.6034 4.19824C13.9397 5.17455 16.3561 6.66154 19.2557 6.96387C19.2561 6.96387 19.2564 6.96387 19.2567 6.96387C19.4093 6.97974 19.505 7.08891 19.4989 7.23438C19.1181 16.1343 13.5987 19.2612 12.1063 19.9717C12.033 20.0065 11.9677 20.0065 11.8944 19.9717C10.402 19.2611 4.8822 16.1342 4.50183 7.2334C4.49562 7.08828 4.5906 6.97981 4.74402 6.96387C4.74435 6.96387 4.74467 6.96387 4.745 6.96387C7.64465 6.66154 10.0611 5.17455 11.3973 4.19824C11.581 4.06409 11.7911 3.99707 12.0009 3.99707Z" fill="#414141"/>
<path d="M11.9902 7.99092C11.8135 7.99351 11.6451 8.06614 11.5219 8.19285C11.3987 8.31957 11.3309 8.49 11.3333 8.6667V11.3334H8.66664C8.5783 11.3321 8.49059 11.3484 8.40861 11.3814C8.32663 11.4143 8.25202 11.4632 8.18911 11.5253C8.12619 11.5873 8.07623 11.6612 8.04214 11.7427C8.00804 11.8242 7.99048 11.9117 7.99048 12C7.99048 12.0884 8.00804 12.1758 8.04214 12.2574C8.07623 12.3389 8.12619 12.4128 8.18911 12.4748C8.25202 12.5368 8.32663 12.5857 8.40861 12.6187C8.49059 12.6516 8.5783 12.6679 8.66664 12.6667H11.3333V15.3334C11.3321 15.4217 11.3484 15.5094 11.3813 15.5914C11.4143 15.6734 11.4632 15.748 11.5252 15.8109C11.5872 15.8738 11.6611 15.9238 11.7426 15.9579C11.8242 15.992 11.9116 16.0095 12 16.0095C12.0883 16.0095 12.1758 15.992 12.2573 15.9579C12.3388 15.9238 12.4127 15.8738 12.4747 15.8109C12.5368 15.748 12.5857 15.6734 12.6186 15.5914C12.6516 15.5094 12.6679 15.4217 12.6666 15.3334V12.6667H15.3333C15.4216 12.6679 15.5094 12.6516 15.5913 12.6187C15.6733 12.5857 15.7479 12.5368 15.8108 12.4748C15.8738 12.4128 15.9237 12.3389 15.9578 12.2574C15.9919 12.1758 16.0095 12.0884 16.0095 12C16.0095 11.9117 15.9919 11.8242 15.9578 11.7427C15.9237 11.6612 15.8738 11.5873 15.8108 11.5253C15.7479 11.4632 15.6733 11.4143 15.5913 11.3814C15.5094 11.3484 15.4216 11.3321 15.3333 11.3334H12.6666V8.6667C12.6679 8.57756 12.6512 8.48908 12.6176 8.4065C12.584 8.32392 12.5343 8.2489 12.4712 8.1859C12.4081 8.12289 12.3331 8.07318 12.2505 8.03969C12.1678 8.00619 12.0793 7.98961 11.9902 7.99092Z" fill="#414141"/>
</svg>
