<svg width="24" height="24" viewBox="0 0 24 24" fill="none" xmlns="http://www.w3.org/2000/svg">
<path d="M4.25 3.5C2.74011 3.5 1.5 4.74011 1.5 6.25V17.75C1.5 19.2599 2.74011 20.5 4.25 20.5H19.75C21.2599 20.5 22.5 19.2599 22.5 17.75V6.25C22.5 4.74011 21.2599 3.5 19.75 3.5H4.25ZM4.25 5H19.75C20.4491 5 21 5.55089 21 6.25V17.75C21 18.4491 20.4491 19 19.75 19H14V14.75C14 13.2404 12.7596 12 11.25 12H3V6.25C3 5.55089 3.55089 5 4.25 5ZM18.7354 6.49316C18.5406 6.49884 18.3556 6.5801 18.2197 6.71973L15.5 9.43945V8.75C15.5014 8.64962 15.4827 8.54997 15.4449 8.45695C15.4071 8.36394 15.3511 8.27946 15.28 8.20852C15.209 8.13758 15.1245 8.08161 15.0314 8.04395C14.9383 8.00629 14.8387 7.98769 14.7383 7.98926C14.5395 7.99236 14.3502 8.07423 14.2117 8.21686C14.0733 8.3595 13.9971 8.55125 14 8.75V11.1387C13.9808 11.256 13.9898 11.3763 14.0263 11.4895C14.0627 11.6026 14.1255 11.7056 14.2096 11.7897C14.2936 11.8738 14.3964 11.9368 14.5096 11.9733C14.6228 12.0099 14.743 12.019 14.8604 12H17.25C17.3494 12.0014 17.4481 11.983 17.5403 11.946C17.6325 11.9089 17.7164 11.8539 17.7872 11.7841C17.858 11.7143 17.9142 11.6312 17.9526 11.5395C17.9909 11.4478 18.0107 11.3494 18.0107 11.25C18.0107 11.1506 17.9909 11.0522 17.9526 10.9605C17.9142 10.8688 17.858 10.7857 17.7872 10.7159C17.7164 10.6461 17.6325 10.5911 17.5403 10.554C17.4481 10.517 17.3494 10.4986 17.25 10.5H16.5605L19.2803 7.78027C19.3885 7.6749 19.4623 7.53931 19.4922 7.39126C19.5221 7.2432 19.5066 7.08958 19.4477 6.9505C19.3888 6.81141 19.2893 6.69335 19.1622 6.61175C19.0351 6.53015 18.8863 6.48882 18.7354 6.49316ZM3 13.5H11.25C11.9464 13.5 12.5 14.0536 12.5 14.75V19H4.25C3.55089 19 3 18.4491 3 17.75V13.5Z" fill="#414141"/>
</svg>
