<svg width="24" height="24" viewBox="0 0 24 24" fill="none" xmlns="http://www.w3.org/2000/svg">
<path d="M12.5186 4.208C12.2291 3.9305 11.7716 3.9305 11.4821 4.208L5.73212 9.708C5.51062 9.92 5.44062 10.245 5.55462 10.5295C5.66862 10.814 5.94362 11 6.25012 11H17.7501C18.0561 11 18.3321 10.8135 18.4466 10.5295C18.5606 10.2455 18.4901 9.92 18.2691 9.708L12.5186 4.208ZM17.7501 13H6.25012C5.94362 13 5.66812 13.1865 5.55412 13.4705C5.44012 13.7545 5.51062 14.08 5.73162 14.292L11.4816 19.792C11.6266 19.9305 11.8131 20 12.0001 20C12.1871 20 12.3736 19.9305 12.5186 19.792L18.2686 14.292C18.4896 14.08 18.5601 13.755 18.4461 13.4705C18.3321 13.1865 18.0561 13 17.7501 13Z" fill="#414141"/>
</svg>
