<svg width="24" height="24" viewBox="0 0 24 24" fill="none" xmlns="http://www.w3.org/2000/svg">
<path d="M12.5186 4.208C12.2291 3.9305 11.7716 3.9305 11.4821 4.208L5.73212 9.708C5.51062 9.92 5.44062 10.245 5.55462 10.5295C5.66862 10.814 5.94362 11 6.25012 11H17.7501C18.0561 11 18.3321 10.8135 18.4466 10.5295C18.5606 10.2455 18.4901 9.92 18.2691 9.708L12.5186 4.208ZM17.7501 13H6.25012C5.94362 13 5.66812 13.1865 5.55412 13.4705C5.44012 13.7545 5.51062 14.08 5.73162 14.292L11.4816 19.792C11.6266 19.9305 11.8131 20 12.0001 20C12.1871 20 12.3736 19.9305 12.5186 19.792L18.2686 14.292C18.4896 14.08 18.5601 13.755 18.4461 13.4705C18.3321 13.1865 18.0561 13 17.7501 13Z" fill="#BCBCBC"/>
<path fill-rule="evenodd" clip-rule="evenodd" d="M11.4822 19.7919C11.7717 20.0694 12.2292 20.0694 12.5187 19.7919L18.2692 14.2919C18.4902 14.0799 18.5607 13.7544 18.4467 13.4704C18.3322 13.1864 18.0562 12.9999 17.7502 12.9999H6.25021C5.94371 12.9999 5.66871 13.1859 5.55471 13.4704C5.44071 13.7549 5.51071 14.0799 5.73221 14.2919L11.4822 19.7919Z" fill="#414141"/>
</svg>
