<svg width="24" height="24" viewBox="0 0 24 24" fill="none" xmlns="http://www.w3.org/2000/svg">
<path d="M12.0049 2.50001C11.8647 2.49914 11.7271 2.53756 11.6077 2.61092C11.4882 2.68428 11.3917 2.78964 11.3291 2.91505L8.75296 8.0674L2.63578 9.0088C2.49885 9.02996 2.37046 9.08863 2.26485 9.1783C2.15923 9.26798 2.08052 9.38515 2.03743 9.51683C1.99435 9.64851 1.98858 9.78955 2.02076 9.92431C2.05294 10.0591 2.12182 10.1823 2.21976 10.2803L6.45121 14.5117L5.50882 20.6358C5.48774 20.7728 5.50504 20.9129 5.5588 21.0407C5.61256 21.1685 5.70068 21.2789 5.81337 21.3596C5.92607 21.4403 6.05893 21.4882 6.19721 21.498C6.33548 21.5078 6.47377 21.4791 6.59671 21.4151L12 18.5957L17.4034 21.4151C17.5263 21.4791 17.6646 21.5078 17.8029 21.498C17.9411 21.4882 18.074 21.4403 18.1867 21.3596C18.2994 21.2789 18.3875 21.1685 18.4413 21.0407C18.495 20.9129 18.5123 20.7728 18.4912 20.6358L17.5489 14.5117L21.7803 10.2803C21.8782 10.1823 21.9471 10.0591 21.9793 9.92431C22.0115 9.78955 22.0057 9.64851 21.9626 9.51683C21.9195 9.38515 21.8408 9.26798 21.7352 9.1783C21.6296 9.08863 21.5012 9.02996 21.3643 9.0088L15.2471 8.0674L12.6709 2.91505C12.6091 2.79112 12.5141 2.68674 12.3965 2.61349C12.279 2.54023 12.1434 2.50095 12.0049 2.50001ZM12 4.92677L14.0791 9.08498C14.1327 9.19225 14.2112 9.28512 14.308 9.35581C14.4049 9.42649 14.5173 9.47293 14.6358 9.49123L19.6729 10.2666L16.2198 13.7197C16.1364 13.8031 16.0739 13.9048 16.0373 14.0168C16.0006 14.1288 15.9909 14.2478 16.0088 14.3643L16.7832 19.3994L12.3467 17.085C12.2397 17.0292 12.1207 17.0001 12 17.0001C11.8793 17.0001 11.7604 17.0292 11.6534 17.085L7.21683 19.3994L7.99124 14.3643C8.00918 14.2478 7.99943 14.1288 7.96278 14.0168C7.92613 13.9048 7.86362 13.8031 7.78031 13.7197L4.32718 10.2666L9.36429 9.49123C9.48279 9.47293 9.59518 9.42649 9.69203 9.35581C9.78888 9.28512 9.86737 9.19225 9.92093 9.08498L12 4.92677Z" fill="#414141"/>
</svg>
