<svg width="24" height="24" viewBox="0 0 24 24" fill="none" xmlns="http://www.w3.org/2000/svg">
<path d="M3.24994 11.25C3.15056 11.2486 3.05188 11.267 2.95966 11.304C2.86743 11.3411 2.78349 11.3961 2.71271 11.4659C2.64194 11.5357 2.58573 11.6188 2.54737 11.7105C2.50901 11.8022 2.48926 11.9006 2.48926 12C2.48926 12.0994 2.50901 12.1978 2.54737 12.2895C2.58573 12.3812 2.64194 12.4643 2.71271 12.5341C2.78349 12.6039 2.86743 12.6589 2.95966 12.696C3.05188 12.7331 3.15056 12.7514 3.24994 12.75H20.7499C20.8493 12.7514 20.948 12.7331 21.0402 12.696C21.1324 12.6589 21.2164 12.6039 21.2872 12.5341C21.3579 12.4643 21.4141 12.3812 21.4525 12.2895C21.4909 12.1978 21.5106 12.0994 21.5106 12C21.5106 11.9006 21.4909 11.8022 21.4525 11.7105C21.4141 11.6188 21.3579 11.5357 21.2872 11.4659C21.2164 11.3961 21.1324 11.3411 21.0402 11.304C20.948 11.267 20.8493 11.2486 20.7499 11.25H3.24994Z" fill="#414141"/>
</svg>
