<svg width="24" height="24" viewBox="0 0 24 24" fill="none" xmlns="http://www.w3.org/2000/svg">
<path d="M11.5 2C8.74746 2 6.5 4.24746 6.5 7C6.5 9.75254 8.74746 12 11.5 12C14.2525 12 16.5 9.75254 16.5 7C16.5 4.24746 14.2525 2 11.5 2ZM11.5 3.5C13.4419 3.5 15 5.05812 15 7C15 8.94188 13.4419 10.5 11.5 10.5C9.55812 10.5 8 8.94188 8 7C8 5.05812 9.55812 3.5 11.5 3.5ZM18 12C17.7065 12 17.4192 12.0248 17.1387 12.0723L16.9658 12.7881C16.6973 13.9006 15.5526 14.5618 14.4551 14.2373L13.8525 14.0586C13.4905 14.5251 13.2005 15.0554 13 15.6289L13.4473 16.0586C14.2648 16.8456 14.2648 18.1544 13.4473 18.9414L13 19.3721C13.2005 19.9456 13.49 20.4744 13.8525 20.9414L14.4551 20.7637C15.5526 20.4392 16.6973 21.1004 16.9658 22.2129L17.1387 22.9287C17.4192 22.9757 17.707 23 18 23C18.2935 23 18.5808 22.9752 18.8613 22.9277L19.0342 22.2119C19.3027 21.0994 20.4474 20.4382 21.5449 20.7627L22.1475 20.9414C22.5095 20.4749 22.7995 19.9446 23 19.3711L22.5527 18.9414C21.7352 18.1549 21.7352 16.8451 22.5527 16.0586L23 15.6289C22.7995 15.0554 22.51 14.5256 22.1475 14.0586L21.5449 14.2373C20.4474 14.5618 19.3027 13.9006 19.0342 12.7881L18.8613 12.0723C18.5808 12.0248 18.2935 12 18 12ZM6.25 14C5.0095 14 4 15.0095 4 16.25V16.8496C4 19.7376 7.514 22 12 22C12.4295 22 12.8469 21.9726 13.2559 21.9326C12.8539 21.5026 12.5084 21.0207 12.2344 20.4932C12.1554 20.4947 12.08 20.5 12 20.5C7.9855 20.5 5.5 18.6051 5.5 16.8496V16.25C5.5 15.8365 5.8365 15.5 6.25 15.5H11.8174C11.9899 14.966 12.2318 14.4635 12.5293 14H6.25ZM18 16C18.8285 16 19.5 16.6715 19.5 17.5C19.5 18.3285 18.8285 19 18 19C17.1715 19 16.5 18.3285 16.5 17.5C16.5 16.6715 17.1715 16 18 16Z" fill="#414141"/>
</svg>
