<svg width="34" height="30" viewBox="0 0 34 30" fill="none" xmlns="http://www.w3.org/2000/svg">
<path d="M7.73547 8.49317C7.54069 8.49885 7.35576 8.5801 7.21984 8.71973L4.25012 11.6895L3.28039 10.7197C3.21128 10.6478 3.1285 10.5903 3.03691 10.5507C2.94531 10.5111 2.84674 10.4902 2.74696 10.4892C2.64718 10.4882 2.5482 10.5071 2.45582 10.5448C2.36344 10.5825 2.27951 10.6383 2.20895 10.7088C2.13839 10.7794 2.08262 10.8633 2.0449 10.9557C2.00719 11.0481 1.98828 11.1471 1.9893 11.2468C1.99031 11.3466 2.01122 11.4452 2.05081 11.5368C2.0904 11.6284 2.14787 11.7112 2.21984 11.7803L3.71984 13.2803C3.8605 13.4209 4.05124 13.4999 4.25012 13.4999C4.449 13.4999 4.63973 13.4209 4.78039 13.2803L8.28039 9.78028C8.38859 9.6749 8.46246 9.53931 8.49233 9.39126C8.52219 9.24321 8.50667 9.08959 8.44778 8.9505C8.3889 8.81142 8.2894 8.69335 8.16231 8.61175C8.03521 8.53015 7.88644 8.48882 7.73547 8.49317ZM10.7501 10.5C10.6507 10.4986 10.5521 10.517 10.4598 10.554C10.3676 10.5911 10.2837 10.6461 10.2129 10.7159C10.1421 10.7857 10.0859 10.8688 10.0476 10.9605C10.0092 11.0522 9.98944 11.1506 9.98944 11.25C9.98944 11.3494 10.0092 11.4478 10.0476 11.5395C10.0859 11.6312 10.1421 11.7143 10.2129 11.7841C10.2837 11.8539 10.3676 11.9089 10.4598 11.946C10.5521 11.9831 10.6507 12.0014 10.7501 12H21.2501C21.3495 12.0014 21.4482 11.9831 21.5404 11.946C21.6326 11.9089 21.7166 11.8539 21.7873 11.7841C21.8581 11.7143 21.9143 11.6312 21.9527 11.5395C21.991 11.4478 22.0108 11.3494 22.0108 11.25C22.0108 11.1506 21.991 11.0522 21.9527 10.9605C21.9143 10.8688 21.8581 10.7857 21.7873 10.7159C21.7166 10.6461 21.6326 10.5911 21.5404 10.554C21.4482 10.517 21.3495 10.4986 21.2501 10.5H10.7501ZM7.73547 15.2432C7.54069 15.2488 7.35576 15.3301 7.21984 15.4697L4.25012 18.4395L3.28039 17.4697C3.21128 17.3978 3.1285 17.3403 3.03691 17.3007C2.94531 17.2611 2.84674 17.2402 2.74696 17.2392C2.64718 17.2382 2.5482 17.2571 2.45582 17.2948C2.36344 17.3325 2.27951 17.3883 2.20895 17.4588C2.13839 17.5294 2.08262 17.6133 2.0449 17.7057C2.00719 17.7981 1.98828 17.8971 1.9893 17.9968C1.99031 18.0966 2.01123 18.1952 2.05081 18.2868C2.0904 18.3784 2.14787 18.4612 2.21984 18.5303L3.71984 20.0303C3.8605 20.1709 4.05124 20.2499 4.25012 20.2499C4.449 20.2499 4.63973 20.1709 4.78039 20.0303L8.28039 16.5303C8.38859 16.4249 8.46246 16.2893 8.49233 16.1413C8.52219 15.9932 8.50667 15.8396 8.44778 15.7005C8.3889 15.5614 8.2894 15.4434 8.16231 15.3618C8.03521 15.2802 7.88644 15.2388 7.73547 15.2432ZM10.7501 17.25C10.6507 17.2486 10.5521 17.267 10.4598 17.304C10.3676 17.3411 10.2837 17.3961 10.2129 17.4659C10.1421 17.5357 10.0859 17.6188 10.0476 17.7105C10.0092 17.8022 9.98944 17.9006 9.98944 18C9.98944 18.0994 10.0092 18.1978 10.0476 18.2895C10.0859 18.3812 10.1421 18.4643 10.2129 18.5341C10.2837 18.6039 10.3676 18.6589 10.4598 18.696C10.5521 18.7331 10.6507 18.7514 10.7501 18.75H21.2501C21.3495 18.7514 21.4482 18.7331 21.5404 18.696C21.6326 18.6589 21.7166 18.6039 21.7873 18.5341C21.8581 18.4643 21.9143 18.3812 21.9527 18.2895C21.991 18.1978 22.0108 18.0994 22.0108 18C22.0108 17.9006 21.991 17.8022 21.9527 17.7105C21.9143 17.6188 21.8581 17.5357 21.7873 17.4659C21.7166 17.3961 21.6326 17.3411 21.5404 17.304C21.4482 17.267 21.3495 17.2486 21.2501 17.25H10.7501ZM6.74328 21.9893C6.54521 21.9939 6.35704 22.0768 6.21984 22.2197L5.00012 23.4395L3.78039 22.2197C3.71048 22.1477 3.62684 22.0905 3.53441 22.0514C3.44199 22.0123 3.34266 21.9922 3.2423 21.9922C3.09304 21.9922 2.94719 22.0368 2.8234 22.1202C2.69961 22.2036 2.60352 22.322 2.54741 22.4603C2.49131 22.5987 2.47775 22.7506 2.50847 22.8966C2.53919 23.0427 2.61278 23.1763 2.71984 23.2803L3.93957 24.5L2.71984 25.7197C2.64787 25.7888 2.5904 25.8716 2.55081 25.9632C2.51123 26.0548 2.49031 26.1534 2.4893 26.2532C2.48828 26.3529 2.50719 26.4519 2.5449 26.5443C2.58262 26.6367 2.63839 26.7206 2.70895 26.7912C2.77951 26.8617 2.86344 26.9175 2.95582 26.9552C3.0482 26.9929 3.14718 27.0118 3.24696 27.0108C3.34674 27.0098 3.44531 26.9889 3.53691 26.9493C3.6285 26.9097 3.71128 26.8523 3.78039 26.7803L5.00012 25.5606L6.21984 26.7803C6.28895 26.8523 6.37173 26.9097 6.46333 26.9493C6.55492 26.9889 6.6535 27.0098 6.75327 27.0108C6.85305 27.0118 6.95203 26.9929 7.04442 26.9552C7.1368 26.9175 7.22072 26.8617 7.29128 26.7912C7.36184 26.7206 7.41761 26.6367 7.45533 26.5443C7.49305 26.4519 7.51195 26.3529 7.51094 26.2532C7.50992 26.1534 7.48901 26.0548 7.44942 25.9632C7.40983 25.8716 7.35237 25.7888 7.28039 25.7197L6.06066 24.5L7.28039 23.2803C7.38945 23.1756 7.46434 23.0404 7.49524 22.8924C7.52614 22.7444 7.5116 22.5906 7.45353 22.451C7.39546 22.3114 7.29657 22.1927 7.16983 22.1103C7.04309 22.0279 6.89441 21.9857 6.74328 21.9893ZM10.7501 24C10.6507 23.9986 10.5521 24.017 10.4598 24.054C10.3676 24.0911 10.2837 24.1461 10.2129 24.2159C10.1421 24.2857 10.0859 24.3688 10.0476 24.4605C10.0092 24.5522 9.98944 24.6506 9.98944 24.75C9.98944 24.8494 10.0092 24.9478 10.0476 25.0395C10.0859 25.1312 10.1421 25.2143 10.2129 25.2841C10.2837 25.3539 10.3676 25.4089 10.4598 25.446C10.5521 25.483 10.6507 25.5014 10.7501 25.5H21.2501C21.3495 25.5014 21.4482 25.483 21.5404 25.446C21.6326 25.4089 21.7166 25.3539 21.7873 25.2841C21.8581 25.2143 21.9143 25.1312 21.9527 25.0395C21.991 24.9478 22.0108 24.8494 22.0108 24.75C22.0108 24.6506 21.991 24.5522 21.9527 24.4605C21.9143 24.3688 21.8581 24.2857 21.7873 24.2159C21.7166 24.1461 21.6326 24.0911 21.5404 24.054C21.4482 24.017 21.3495 23.9986 21.2501 24H10.7501Z" fill="#414141"/>
<circle cx="24.5" cy="9.5" r="9.5" fill="#EB5757"/>
<path d="M23.2852 8.58398H24.1523C24.5898 8.58008 24.9355 8.4668 25.1895 8.24414C25.4473 8.02148 25.5762 7.69922 25.5762 7.27734C25.5762 6.87109 25.4688 6.55664 25.2539 6.33398C25.043 6.10742 24.7188 5.99414 24.2812 5.99414C23.8984 5.99414 23.584 6.10547 23.3379 6.32812C23.0918 6.54688 22.9688 6.83398 22.9688 7.18945H21.5449C21.5449 6.75195 21.6602 6.35352 21.8906 5.99414C22.125 5.63477 22.4492 5.35547 22.8633 5.15625C23.2812 4.95312 23.748 4.85156 24.2637 4.85156C25.1152 4.85156 25.7832 5.06641 26.2676 5.49609C26.7559 5.92188 27 6.51562 27 7.27734C27 7.66016 26.877 8.02148 26.6309 8.36133C26.3887 8.69727 26.0742 8.95117 25.6875 9.12305C26.1562 9.2832 26.5117 9.53516 26.7539 9.87891C27 10.2227 27.123 10.6328 27.123 11.1094C27.123 11.875 26.8594 12.4844 26.332 12.9375C25.8086 13.3906 25.1191 13.6172 24.2637 13.6172C23.4434 13.6172 22.7715 13.3984 22.248 12.9609C21.7246 12.5234 21.4629 11.9414 21.4629 11.2148H22.8867C22.8867 11.5898 23.0117 11.8945 23.2617 12.1289C23.5156 12.3633 23.8555 12.4805 24.2812 12.4805C24.7227 12.4805 25.0703 12.3633 25.3242 12.1289C25.5781 11.8945 25.7051 11.5547 25.7051 11.1094C25.7051 10.6602 25.5723 10.3145 25.3066 10.0723C25.041 9.83008 24.6465 9.70898 24.123 9.70898H23.2852V8.58398Z" fill="white"/>
</svg>
