<svg width="34" height="30" viewBox="0 0 34 30" fill="none" xmlns="http://www.w3.org/2000/svg">
<path d="M12 6C10.6282 6 9.5 7.12817 9.5 8.5V9H6.25C5.01625 9 4 10.0162 4 11.25V25.75C4 26.9838 5.01625 28 6.25 28H17.75C18.9838 28 20 26.9838 20 25.75V11.25C20 10.0162 18.9838 9 17.75 9H14.5V8.5C14.5 7.12817 13.3718 6 12 6ZM12 7.5C12.5612 7.5 13 7.93883 13 8.5V10.5H11V8.5C11 7.93883 11.4388 7.5 12 7.5ZM6.25 10.5H9.5V11.25C9.50002 11.4489 9.57904 11.6397 9.71969 11.7803C9.86034 11.921 10.0511 12 10.25 12H13.75C13.9489 12 14.1397 11.921 14.2803 11.7803C14.421 11.6397 14.5 11.4489 14.5 11.25V10.5H17.75C18.1732 10.5 18.5 10.8268 18.5 11.25V25.75C18.5 26.1733 18.1732 26.5 17.75 26.5H6.25C5.82675 26.5 5.5 26.1733 5.5 25.75V11.25C5.5 10.8268 5.82675 10.5 6.25 10.5ZM15.9854 15.4932C15.7906 15.4988 15.6056 15.5801 15.4697 15.7197L11 20.1895L8.53027 17.7197C8.46116 17.6477 8.37839 17.5903 8.28679 17.5507C8.1952 17.5111 8.09662 17.4902 7.99684 17.4892C7.89706 17.4882 7.79808 17.5071 7.7057 17.5448C7.61332 17.5825 7.52939 17.6383 7.45883 17.7088C7.38828 17.7794 7.33251 17.8633 7.29479 17.9557C7.25707 18.0481 7.23817 18.1471 7.23918 18.2468C7.2402 18.3466 7.26111 18.4452 7.3007 18.5368C7.34028 18.6284 7.39775 18.7112 7.46973 18.7803L10.4697 21.7803C10.6104 21.9209 10.8011 21.9999 11 21.9999C11.1989 21.9999 11.3896 21.9209 11.5303 21.7803L16.5303 16.7803C16.6385 16.6749 16.7123 16.5393 16.7422 16.3913C16.7721 16.2432 16.7566 16.0896 16.6977 15.9505C16.6388 15.8114 16.5393 15.6933 16.4122 15.6117C16.2851 15.5301 16.1363 15.4888 15.9854 15.4932Z" fill="#414141"/>
<circle cx="24.5" cy="9.5" r="9.5" fill="#EB5757"/>
<path d="M23.2852 8.58398H24.1523C24.5898 8.58008 24.9355 8.4668 25.1895 8.24414C25.4473 8.02148 25.5762 7.69922 25.5762 7.27734C25.5762 6.87109 25.4688 6.55664 25.2539 6.33398C25.043 6.10742 24.7188 5.99414 24.2812 5.99414C23.8984 5.99414 23.584 6.10547 23.3379 6.32812C23.0918 6.54688 22.9688 6.83398 22.9688 7.18945H21.5449C21.5449 6.75195 21.6602 6.35352 21.8906 5.99414C22.125 5.63477 22.4492 5.35547 22.8633 5.15625C23.2812 4.95312 23.748 4.85156 24.2637 4.85156C25.1152 4.85156 25.7832 5.06641 26.2676 5.49609C26.7559 5.92188 27 6.51562 27 7.27734C27 7.66016 26.877 8.02148 26.6309 8.36133C26.3887 8.69727 26.0742 8.95117 25.6875 9.12305C26.1562 9.2832 26.5117 9.53516 26.7539 9.87891C27 10.2227 27.123 10.6328 27.123 11.1094C27.123 11.875 26.8594 12.4844 26.332 12.9375C25.8086 13.3906 25.1191 13.6172 24.2637 13.6172C23.4434 13.6172 22.7715 13.3984 22.248 12.9609C21.7246 12.5234 21.4629 11.9414 21.4629 11.2148H22.8867C22.8867 11.5898 23.0117 11.8945 23.2617 12.1289C23.5156 12.3633 23.8555 12.4805 24.2812 12.4805C24.7227 12.4805 25.0703 12.3633 25.3242 12.1289C25.5781 11.8945 25.7051 11.5547 25.7051 11.1094C25.7051 10.6602 25.5723 10.3145 25.3066 10.0723C25.041 9.83008 24.6465 9.70898 24.123 9.70898H23.2852V8.58398Z" fill="white"/>
</svg>
