<svg width="34" height="30" viewBox="0 0 34 30" fill="none" xmlns="http://www.w3.org/2000/svg">
<path d="M10.25 7.5C9.1017 7.5 8.15285 8.38331 8.02539 9.5H6.25C5.01625 9.5 4 10.5162 4 11.75V25.25C4 26.4838 5.01625 27.5 6.25 27.5H17.75C18.9838 27.5 20 26.4838 20 25.25V11.75C20 10.5162 18.9838 9.5 17.75 9.5H15.9746C15.8471 8.38331 14.8983 7.5 13.75 7.5H10.25ZM10.25 9H13.75C14.1732 9 14.5 9.32675 14.5 9.75C14.5 10.1732 14.1732 10.5 13.75 10.5H10.25C9.82675 10.5 9.5 10.1732 9.5 9.75C9.5 9.32675 9.82675 9 10.25 9ZM6.25 11H8.38477C8.79062 11.601 9.47736 12 10.25 12H13.75C14.5226 12 15.2094 11.601 15.6152 11H17.75C18.1732 11 18.5 11.3268 18.5 11.75V25.25C18.5 25.6733 18.1732 26 17.75 26H6.25C5.82675 26 5.5 25.6733 5.5 25.25V11.75C5.5 11.3268 5.82675 11 6.25 11ZM14.3008 14.5049C13.7366 14.5049 13.1732 14.7174 12.7471 15.1436L8.37109 19.5195C8.27331 19.6171 8.20437 19.7398 8.17188 19.874L7.52051 22.5742C7.49032 22.6991 7.49274 22.8297 7.52753 22.9535C7.56233 23.0772 7.62833 23.1899 7.71921 23.2808C7.8101 23.3717 7.92281 23.4377 8.04653 23.4725C8.17026 23.5073 8.30085 23.5097 8.42578 23.4795L11.126 22.8271C11.2601 22.7949 11.3828 22.7263 11.4805 22.6289L15.8555 18.2529C15.8558 18.2529 15.8561 18.2529 15.8564 18.2529C16.7084 17.4002 16.7078 15.9959 15.8555 15.1436C15.4293 14.7174 14.865 14.5049 14.3008 14.5049ZM14.3008 15.9951C14.4781 15.9951 14.6556 16.0648 14.7949 16.2041C15.0736 16.4828 15.074 16.914 14.7949 17.1934L10.5693 21.4189L9.26758 21.7324L9.58105 20.4307L13.8076 16.2041C13.947 16.0648 14.1235 15.9951 14.3008 15.9951Z" fill="#414141"/>
<circle cx="24.5" cy="9.5" r="9.5" fill="#EB5757"/>
<path d="M23.2852 8.58398H24.1523C24.5898 8.58008 24.9355 8.4668 25.1895 8.24414C25.4473 8.02148 25.5762 7.69922 25.5762 7.27734C25.5762 6.87109 25.4688 6.55664 25.2539 6.33398C25.043 6.10742 24.7188 5.99414 24.2812 5.99414C23.8984 5.99414 23.584 6.10547 23.3379 6.32812C23.0918 6.54688 22.9688 6.83398 22.9688 7.18945H21.5449C21.5449 6.75195 21.6602 6.35352 21.8906 5.99414C22.125 5.63477 22.4492 5.35547 22.8633 5.15625C23.2812 4.95312 23.748 4.85156 24.2637 4.85156C25.1152 4.85156 25.7832 5.06641 26.2676 5.49609C26.7559 5.92188 27 6.51562 27 7.27734C27 7.66016 26.877 8.02148 26.6309 8.36133C26.3887 8.69727 26.0742 8.95117 25.6875 9.12305C26.1562 9.2832 26.5117 9.53516 26.7539 9.87891C27 10.2227 27.123 10.6328 27.123 11.1094C27.123 11.875 26.8594 12.4844 26.332 12.9375C25.8086 13.3906 25.1191 13.6172 24.2637 13.6172C23.4434 13.6172 22.7715 13.3984 22.248 12.9609C21.7246 12.5234 21.4629 11.9414 21.4629 11.2148H22.8867C22.8867 11.5898 23.0117 11.8945 23.2617 12.1289C23.5156 12.3633 23.8555 12.4805 24.2812 12.4805C24.7227 12.4805 25.0703 12.3633 25.3242 12.1289C25.5781 11.8945 25.7051 11.5547 25.7051 11.1094C25.7051 10.6602 25.5723 10.3145 25.3066 10.0723C25.041 9.83008 24.6465 9.70898 24.123 9.70898H23.2852V8.58398Z" fill="white"/>
</svg>
