<svg width="24" height="24" viewBox="0 0 24 24" fill="none" xmlns="http://www.w3.org/2000/svg">
<path d="M10.25 1.5C9.1017 1.5 8.15285 2.38331 8.02539 3.5H6.25C5.01 3.5 4 4.51 4 5.75V19.25C4 20.49 5.01 21.5 6.25 21.5H12.3799C12.0199 21.045 11.725 20.54 11.5 20H6.25C5.835 20 5.5 19.665 5.5 19.25V5.75C5.5 5.335 5.835 5 6.25 5H8.38477C8.79062 5.60095 9.47736 6 10.25 6H13.75C14.5226 6 15.2094 5.60095 15.6152 5H17.75C18.165 5 18.5 5.335 18.5 5.75V11.0752C19.02 11.1602 19.525 11.3 20 11.5V5.75C20 4.51 18.99 3.5 17.75 3.5H15.9746C15.8471 2.38331 14.8983 1.5 13.75 1.5H10.25ZM10.25 3H13.75C14.1732 3 14.5 3.32675 14.5 3.75C14.5 4.17325 14.1732 4.5 13.75 4.5H10.25C9.82675 4.5 9.5 4.17325 9.5 3.75C9.5 3.32675 9.82675 3 10.25 3ZM8.25 8.5C8.05109 8.5 7.86032 8.57902 7.71967 8.71967C7.57902 8.86032 7.5 9.05109 7.5 9.25C7.5 9.44891 7.57902 9.63968 7.71967 9.78033C7.86032 9.92098 8.05109 10 8.25 10C8.44891 10 8.63968 9.92098 8.78033 9.78033C8.92098 9.63968 9 9.44891 9 9.25C9 9.05109 8.92098 8.86032 8.78033 8.71967C8.63968 8.57902 8.44891 8.5 8.25 8.5ZM11.25 8.5C11.1506 8.49859 11.0519 8.51696 10.9597 8.55402C10.8675 8.59108 10.7836 8.6461 10.7128 8.71588C10.642 8.78566 10.5858 8.86882 10.5474 8.96051C10.5091 9.0522 10.4893 9.15061 10.4893 9.25C10.4893 9.34939 10.5091 9.4478 10.5474 9.53949C10.5858 9.63118 10.642 9.71434 10.7128 9.78412C10.7836 9.8539 10.8675 9.90892 10.9597 9.94598C11.0519 9.98304 11.1506 10.0014 11.25 10H15.75C15.8494 10.0014 15.9481 9.98304 16.0403 9.94598C16.1325 9.90892 16.2164 9.8539 16.2872 9.78412C16.358 9.71434 16.4142 9.63118 16.4526 9.53949C16.4909 9.4478 16.5107 9.34939 16.5107 9.25C16.5107 9.15061 16.4909 9.0522 16.4526 8.96051C16.4142 8.86882 16.358 8.78566 16.2872 8.71588C16.2164 8.6461 16.1325 8.59108 16.0403 8.55402C15.9481 8.51696 15.8494 8.49859 15.75 8.5H11.25ZM17.5 12C14.4625 12 12 14.4625 12 17.5C12 20.5375 14.4625 23 17.5 23C20.5375 23 23 20.5375 23 17.5C23 14.4625 20.5375 12 17.5 12ZM8.25 12.5C7.8365 12.5 7.5 12.8365 7.5 13.25C7.5 13.6635 7.8365 14 8.25 14C8.6635 14 9 13.6635 9 13.25C9 12.8365 8.6635 12.5 8.25 12.5ZM11.25 12.5C10.835 12.5 10.5 12.835 10.5 13.25C10.5 13.665 10.835 14 11.25 14H12.0254C12.3854 13.435 12.8346 12.925 13.3496 12.5H11.25ZM17 14C17.276 14 17.5 14.224 17.5 14.5V17.5H20C20.276 17.5 20.5 17.724 20.5 18C20.5 18.276 20.276 18.5 20 18.5H17C16.724 18.5 16.5 18.276 16.5 18V14.5C16.5 14.224 16.724 14 17 14ZM8.25 16.5C8.05109 16.5 7.86032 16.579 7.71967 16.7197C7.57902 16.8603 7.5 17.0511 7.5 17.25C7.5 17.4489 7.57902 17.6397 7.71967 17.7803C7.86032 17.921 8.05109 18 8.25 18C8.44891 18 8.63968 17.921 8.78033 17.7803C8.92098 17.6397 9 17.4489 9 17.25C9 17.0511 8.92098 16.8603 8.78033 16.7197C8.63968 16.579 8.44891 16.5 8.25 16.5Z" fill="#414141"/>
</svg>
