<svg width="24" height="24" viewBox="0 0 24 24" fill="none" xmlns="http://www.w3.org/2000/svg">
<path d="M4.22222 2C3.00771 2 2 3.00771 2 4.22222V8.66667C2 9.88118 3.00771 10.8889 4.22222 10.8889H8.66667C9.88118 10.8889 10.8889 9.88118 10.8889 8.66667V4.22222C10.8889 3.00771 9.88118 2 8.66667 2H4.22222ZM15.3333 2C14.1188 2 13.1111 3.00771 13.1111 4.22222V8.66667C13.1111 9.88118 14.1188 10.8889 15.3333 10.8889H19.7778C20.9923 10.8889 22 9.88118 22 8.66667V4.22222C22 3.00771 20.9923 2 19.7778 2H15.3333ZM4.22222 4.22222H8.66667V8.66667H4.22222V4.22222ZM15.3333 4.22222H19.7778V8.66667H15.3333V4.22222ZM4.22222 13.1111C3.00771 13.1111 2 14.1188 2 15.3333V19.7778C2 20.9923 3.00771 22 4.22222 22H8.66667C9.88118 22 10.8889 20.9923 10.8889 19.7778V15.3333C10.8889 14.1188 9.88118 13.1111 8.66667 13.1111H4.22222ZM15.3333 13.1111C14.1188 13.1111 13.1111 14.1188 13.1111 15.3333V19.7778C13.1111 20.9923 14.1188 22 15.3333 22H19.7778C20.9923 22 22 20.9923 22 19.7778V15.3333C22 14.1188 20.9923 13.1111 19.7778 13.1111H15.3333ZM4.22222 15.3333H8.66667V19.7778H4.22222V15.3333ZM15.3333 15.3333H19.7778V19.7778H15.3333V15.3333Z" fill="#414141"/>
</svg>
