<svg width="24" height="24" viewBox="0 0 24 24" fill="none" xmlns="http://www.w3.org/2000/svg">
<path d="M7.73547 2.49317C7.54069 2.49885 7.35576 2.5801 7.21984 2.71973L4.25012 5.68946L3.28039 4.71973C3.21128 4.64775 3.1285 4.59029 3.03691 4.5507C2.94531 4.51111 2.84674 4.4902 2.74696 4.48918C2.64718 4.48817 2.5482 4.50707 2.45582 4.54479C2.36344 4.58251 2.27951 4.63828 2.20895 4.70884C2.13839 4.7794 2.08262 4.86332 2.0449 4.95571C2.00719 5.04809 1.98828 5.14707 1.9893 5.24685C1.99031 5.34663 2.01122 5.4452 2.05081 5.5368C2.0904 5.62839 2.14787 5.71117 2.21984 5.78028L3.71984 7.28028C3.8605 7.42088 4.05124 7.49986 4.25012 7.49986C4.449 7.49986 4.63973 7.42088 4.78039 7.28028L8.28039 3.78028C8.38859 3.6749 8.46246 3.53931 8.49233 3.39126C8.52219 3.24321 8.50667 3.08959 8.44778 2.9505C8.3889 2.81142 8.2894 2.69335 8.16231 2.61175C8.03521 2.53015 7.88644 2.48882 7.73547 2.49317ZM10.7501 4.50001C10.6507 4.4986 10.5521 4.51696 10.4598 4.55402C10.3676 4.59108 10.2837 4.6461 10.2129 4.71589C10.1421 4.78567 10.0859 4.86882 10.0476 4.96052C10.0092 5.05221 9.98944 5.15061 9.98944 5.25001C9.98944 5.3494 10.0092 5.4478 10.0476 5.53949C10.0859 5.63119 10.1421 5.71434 10.2129 5.78413C10.2837 5.85391 10.3676 5.90893 10.4598 5.94599C10.5521 5.98305 10.6507 6.00141 10.7501 6.00001H21.2501C21.3495 6.00141 21.4482 5.98305 21.5404 5.94599C21.6326 5.90893 21.7166 5.85391 21.7873 5.78413C21.8581 5.71434 21.9143 5.63119 21.9527 5.53949C21.991 5.4478 22.0108 5.3494 22.0108 5.25001C22.0108 5.15061 21.991 5.05221 21.9527 4.96052C21.9143 4.86882 21.8581 4.78567 21.7873 4.71589C21.7166 4.6461 21.6326 4.59108 21.5404 4.55402C21.4482 4.51696 21.3495 4.4986 21.2501 4.50001H10.7501ZM7.73547 9.24317C7.54069 9.24885 7.35576 9.3301 7.21984 9.46973L4.25012 12.4395L3.28039 11.4697C3.21128 11.3978 3.1285 11.3403 3.03691 11.3007C2.94531 11.2611 2.84674 11.2402 2.74696 11.2392C2.64718 11.2382 2.5482 11.2571 2.45582 11.2948C2.36344 11.3325 2.27951 11.3883 2.20895 11.4588C2.13839 11.5294 2.08262 11.6133 2.0449 11.7057C2.00719 11.7981 1.98828 11.8971 1.9893 11.9968C1.99031 12.0966 2.01123 12.1952 2.05081 12.2868C2.0904 12.3784 2.14787 12.4612 2.21984 12.5303L3.71984 14.0303C3.8605 14.1709 4.05124 14.2499 4.25012 14.2499C4.449 14.2499 4.63973 14.1709 4.78039 14.0303L8.28039 10.5303C8.38859 10.4249 8.46246 10.2893 8.49233 10.1413C8.52219 9.99321 8.50667 9.83959 8.44778 9.7005C8.3889 9.56142 8.2894 9.44335 8.16231 9.36175C8.03521 9.28015 7.88644 9.23882 7.73547 9.24317ZM10.7501 11.25C10.6507 11.2486 10.5521 11.267 10.4598 11.304C10.3676 11.3411 10.2837 11.3961 10.2129 11.4659C10.1421 11.5357 10.0859 11.6188 10.0476 11.7105C10.0092 11.8022 9.98944 11.9006 9.98944 12C9.98944 12.0994 10.0092 12.1978 10.0476 12.2895C10.0859 12.3812 10.1421 12.4643 10.2129 12.5341C10.2837 12.6039 10.3676 12.6589 10.4598 12.696C10.5521 12.7331 10.6507 12.7514 10.7501 12.75H21.2501C21.3495 12.7514 21.4482 12.7331 21.5404 12.696C21.6326 12.6589 21.7166 12.6039 21.7873 12.5341C21.8581 12.4643 21.9143 12.3812 21.9527 12.2895C21.991 12.1978 22.0108 12.0994 22.0108 12C22.0108 11.9006 21.991 11.8022 21.9527 11.7105C21.9143 11.6188 21.8581 11.5357 21.7873 11.4659C21.7166 11.3961 21.6326 11.3411 21.5404 11.304C21.4482 11.267 21.3495 11.2486 21.2501 11.25H10.7501ZM6.74328 15.9893C6.54521 15.9939 6.35704 16.0768 6.21984 16.2197L5.00012 17.4395L3.78039 16.2197C3.71048 16.1477 3.62684 16.0905 3.53441 16.0514C3.44199 16.0123 3.34266 15.9922 3.2423 15.9922C3.09304 15.9922 2.94719 16.0368 2.8234 16.1202C2.69961 16.2036 2.60352 16.322 2.54741 16.4603C2.49131 16.5987 2.47775 16.7506 2.50847 16.8966C2.53919 17.0427 2.61278 17.1763 2.71984 17.2803L3.93957 18.5L2.71984 19.7197C2.64787 19.7888 2.5904 19.8716 2.55081 19.9632C2.51123 20.0548 2.49031 20.1534 2.4893 20.2532C2.48828 20.3529 2.50719 20.4519 2.5449 20.5443C2.58262 20.6367 2.63839 20.7206 2.70895 20.7912C2.77951 20.8617 2.86344 20.9175 2.95582 20.9552C3.0482 20.9929 3.14718 21.0118 3.24696 21.0108C3.34674 21.0098 3.44531 20.9889 3.53691 20.9493C3.6285 20.9097 3.71128 20.8523 3.78039 20.7803L5.00012 19.5606L6.21984 20.7803C6.28895 20.8523 6.37173 20.9097 6.46333 20.9493C6.55492 20.9889 6.6535 21.0098 6.75327 21.0108C6.85305 21.0118 6.95203 20.9929 7.04442 20.9552C7.1368 20.9175 7.22072 20.8617 7.29128 20.7912C7.36184 20.7206 7.41761 20.6367 7.45533 20.5443C7.49305 20.4519 7.51195 20.3529 7.51094 20.2532C7.50992 20.1534 7.48901 20.0548 7.44942 19.9632C7.40983 19.8716 7.35237 19.7888 7.28039 19.7197L6.06066 18.5L7.28039 17.2803C7.38945 17.1756 7.46434 17.0404 7.49524 16.8924C7.52614 16.7444 7.5116 16.5906 7.45353 16.451C7.39546 16.3114 7.29657 16.1927 7.16983 16.1103C7.04309 16.0279 6.89441 15.9857 6.74328 15.9893ZM10.7501 18C10.6507 17.9986 10.5521 18.017 10.4598 18.054C10.3676 18.0911 10.2837 18.1461 10.2129 18.2159C10.1421 18.2857 10.0859 18.3688 10.0476 18.4605C10.0092 18.5522 9.98944 18.6506 9.98944 18.75C9.98944 18.8494 10.0092 18.9478 10.0476 19.0395C10.0859 19.1312 10.1421 19.2143 10.2129 19.2841C10.2837 19.3539 10.3676 19.4089 10.4598 19.446C10.5521 19.483 10.6507 19.5014 10.7501 19.5H21.2501C21.3495 19.5014 21.4482 19.483 21.5404 19.446C21.6326 19.4089 21.7166 19.3539 21.7873 19.2841C21.8581 19.2143 21.9143 19.1312 21.9527 19.0395C21.991 18.9478 22.0108 18.8494 22.0108 18.75C22.0108 18.6506 21.991 18.5522 21.9527 18.4605C21.9143 18.3688 21.8581 18.2857 21.7873 18.2159C21.7166 18.1461 21.6326 18.0911 21.5404 18.054C21.4482 18.017 21.3495 17.9986 21.2501 18H10.7501Z" fill="#414141"/>
</svg>
