<svg width="24" height="24" viewBox="0 0 24 24" fill="none" xmlns="http://www.w3.org/2000/svg">
<path d="M4.25 3.5C2.74011 3.5 1.5 4.74011 1.5 6.25V17.75C1.5 19.2599 2.74011 20.5 4.25 20.5H19.75C21.2599 20.5 22.5 19.2599 22.5 17.75V6.25C22.5 4.74011 21.2599 3.5 19.75 3.5H4.25ZM4.25 5H19.75C20.4491 5 21 5.55089 21 6.25V17.75C21 18.4491 20.4491 19 19.75 19H14V14.75C14 13.2404 12.7596 12 11.25 12H3V6.25C3 5.55089 3.55089 5 4.25 5ZM18.7354 6.49316C18.7086 6.49401 18.6818 6.49629 18.6553 6.5H16.25C16.1506 6.49859 16.0519 6.51696 15.9597 6.55402C15.8675 6.59108 15.7836 6.6461 15.7128 6.71588C15.642 6.78566 15.5858 6.86882 15.5474 6.96051C15.5091 7.0522 15.4893 7.15061 15.4893 7.25C15.4893 7.34939 15.5091 7.4478 15.5474 7.53949C15.5858 7.63118 15.642 7.71434 15.7128 7.78412C15.7836 7.8539 15.8675 7.90892 15.9597 7.94598C16.0519 7.98304 16.1506 8.00141 16.25 8H16.9395L14.2197 10.7197C14.1477 10.7888 14.0903 10.8716 14.0507 10.9632C14.0111 11.0548 13.9902 11.1534 13.9892 11.2532C13.9882 11.3529 14.0071 11.4519 14.0448 11.5443C14.0825 11.6367 14.1383 11.7206 14.2088 11.7912C14.2794 11.8617 14.3633 11.9175 14.4557 11.9552C14.5481 11.9929 14.6471 12.0118 14.7468 12.0108C14.8466 12.0098 14.9452 11.9889 15.0368 11.9493C15.1284 11.9097 15.2112 11.8523 15.2803 11.7803L18 9.06055V9.75C17.9986 9.84938 18.017 9.94806 18.054 10.0403C18.0911 10.1325 18.1461 10.2164 18.2159 10.2872C18.2857 10.358 18.3688 10.4142 18.4605 10.4526C18.5522 10.4909 18.6506 10.5107 18.75 10.5107C18.8494 10.5107 18.9478 10.4909 19.0395 10.4526C19.1312 10.4142 19.2143 10.358 19.2841 10.2872C19.3539 10.2164 19.4089 10.1325 19.446 10.0403C19.483 9.94806 19.5014 9.84938 19.5 9.75V7.33691C19.5135 7.22961 19.5037 7.12064 19.4712 7.01748C19.4387 6.91432 19.3843 6.81941 19.3116 6.73927C19.239 6.65912 19.1499 6.59563 19.0504 6.55315C18.951 6.51068 18.8435 6.49021 18.7354 6.49316ZM3 13.5H11.25C11.9464 13.5 12.5 14.0536 12.5 14.75V19H4.25C3.55089 19 3 18.4491 3 17.75V13.5Z" fill="#414141"/>
</svg>
