<svg width="24" height="24" viewBox="0 0 24 24" fill="none" xmlns="http://www.w3.org/2000/svg">
<path d="M10.4199 5.00004C10.3813 4.99959 10.3427 5.0028 10.3048 5.00961C10.28 5.00911 10.2573 5.00141 10.2324 5.00141C8.30973 5.00141 7.09692 5.65208 6.50927 6.55643C5.92162 7.46078 5.9419 8.50045 6.08262 9.28711C6.2522 10.2352 6.77902 11.9041 7.35148 13.6097C7.92403 15.3156 8.54027 17.0304 8.87574 17.9528C8.87574 17.9531 8.87574 17.9533 8.87574 17.9535C9.10316 18.5784 9.74146 19 10.4517 19C11.3674 19 12.1207 18.2989 12.1154 17.4511V17.4504L12.0925 13.0663C12.0995 12.8568 12.2736 12.7006 12.5 12.7006C12.7264 12.7006 12.9005 12.8568 12.9075 13.0663L12.8846 17.4504V17.4511C12.8799 18.2988 13.633 19 14.5483 19C15.2585 19 15.8968 18.5784 16.1243 17.9535C16.1243 17.9533 16.1243 17.9531 16.1243 17.9528C16.4597 17.0304 17.076 15.3156 17.6485 13.6097C18.221 11.9041 18.7478 10.2352 18.9174 9.28711C19.0581 8.50045 19.0784 7.46078 18.4907 6.55643C17.9031 5.65209 16.6903 5.00141 14.7676 5.00141C13.8707 5.00141 13.108 5.38373 12.5 5.91186C11.9833 5.46305 11.3633 5.12585 10.6237 5.04515C10.5899 5.03809 10.5671 5.01801 10.5329 5.01166C10.4957 5.0043 10.4579 5.0004 10.4199 5.00004ZM10.2324 6.0513C10.3227 6.0513 10.3947 6.09724 10.4819 6.10667C11.9558 6.47985 12.9584 7.89614 12.9584 7.89614C12.9967 7.95531 13.0472 8.00692 13.107 8.04802C13.1668 8.08911 13.2348 8.1189 13.307 8.13566C13.3793 8.15243 13.4544 8.15585 13.5281 8.14574C13.6018 8.13562 13.6726 8.11216 13.7365 8.0767C13.8003 8.04124 13.8561 7.99447 13.9004 7.93906C13.9448 7.88366 13.9769 7.8207 13.995 7.75379C14.0131 7.68688 14.0168 7.61732 14.0059 7.5491C13.9949 7.48087 13.9696 7.41531 13.9313 7.35615C13.9313 7.35615 13.6036 6.96251 13.3024 6.62205C13.7017 6.29181 14.1876 6.0513 14.7676 6.0513C16.4352 6.0513 17.1455 6.52239 17.5193 7.09778C17.8932 7.67317 17.9135 8.47121 17.7984 9.11486C17.7984 9.11509 17.7984 9.11532 17.7984 9.11555C17.6576 9.90296 17.1337 11.6056 16.5657 13.298C15.9976 14.9905 15.3834 16.6999 15.0495 17.6179C14.9761 17.8196 14.7799 17.9501 14.5483 17.9501C14.2477 17.9501 14.0167 17.7355 14.0184 17.4566C14.0184 17.4564 14.0184 17.4561 14.0184 17.4559L14.0412 13.0527C14.0414 13.0465 14.0414 13.0403 14.0412 13.0342C14.0157 12.2688 13.3265 11.6507 12.5 11.6507C11.6735 11.6507 10.9843 12.2688 10.9588 13.0342C10.9586 13.0403 10.9586 13.0465 10.9588 13.0527L10.9816 17.4559C10.9816 17.4561 10.9816 17.4564 10.9816 17.4566C10.9835 17.7347 10.7526 17.9501 10.4517 17.9501C10.2201 17.9501 10.0239 17.8196 9.95047 17.6179C9.61664 16.6999 9.00237 14.9905 8.43433 13.298C7.8663 11.6056 7.34242 9.90296 7.20164 9.11555C7.20164 9.11532 7.20164 9.11509 7.20164 9.11486C7.0865 8.47123 7.10677 7.67317 7.48066 7.09778C7.85455 6.52239 8.56485 6.0513 10.2324 6.0513Z" fill="#414141"/>
<g clip-path="url(#clip0)">
<path d="M4.41921 0.830719C4.46896 0.830731 4.51758 0.845587 4.55885 0.873386C4.60011 0.901185 4.63214 0.940662 4.65084 0.986768C4.66954 1.03287 4.67406 1.08351 4.66382 1.1322C4.65358 1.18089 4.62905 1.22541 4.59336 1.26008L3.68679 2.16666H8.91661C8.94973 2.16619 8.98262 2.17231 9.01337 2.18466C9.04411 2.19702 9.07209 2.21536 9.09568 2.23862C9.11927 2.26188 9.13801 2.2896 9.15079 2.32016C9.16358 2.35072 9.17017 2.38353 9.17017 2.41666C9.17017 2.44979 9.16358 2.48259 9.15079 2.51315C9.13801 2.54372 9.11927 2.57144 9.09568 2.5947C9.07209 2.61796 9.04411 2.6363 9.01337 2.64865C8.98262 2.661 8.94973 2.66713 8.91661 2.66666H3.68679L4.59336 3.57323C4.61736 3.59627 4.63651 3.62386 4.64971 3.65439C4.6629 3.68492 4.66987 3.71778 4.67021 3.75104C4.67055 3.7843 4.66425 3.8173 4.65168 3.84809C4.6391 3.87888 4.62051 3.90686 4.59699 3.93038C4.57347 3.9539 4.5455 3.97249 4.5147 3.98506C4.48391 3.99763 4.45092 4.00393 4.41766 4.0036C4.3844 4.00326 4.35154 3.99629 4.32101 3.98309C4.29048 3.9699 4.26288 3.95074 4.23985 3.92675L2.90651 2.59341C2.85965 2.54653 2.83332 2.48295 2.83332 2.41666C2.83332 2.35036 2.85965 2.28678 2.90651 2.2399L4.23985 0.906565C4.26315 0.882568 4.29103 0.86349 4.32184 0.850462C4.35265 0.837434 4.38576 0.83072 4.41921 0.830719ZM7.58815 3.99771C7.65308 3.9996 7.71472 4.02669 7.76003 4.07323L9.09336 5.40657C9.14023 5.45345 9.16656 5.51703 9.16656 5.58332C9.16656 5.64962 9.14023 5.7132 9.09336 5.76008L7.76003 7.09341C7.73699 7.11741 7.7094 7.13656 7.67887 7.14976C7.64834 7.16295 7.61548 7.16992 7.58222 7.17026C7.54896 7.1706 7.51597 7.1643 7.48517 7.15173C7.45438 7.13915 7.4264 7.12056 7.40288 7.09705C7.37936 7.07353 7.36077 7.04555 7.3482 7.01476C7.33563 6.98396 7.32933 6.95097 7.32967 6.91771C7.33 6.88445 7.33697 6.85159 7.35017 6.82106C7.36337 6.79053 7.38252 6.76294 7.40651 6.7399L8.31309 5.83332H3.08327C3.05014 5.83379 3.01725 5.82767 2.98651 5.81532C2.95577 5.80296 2.92779 5.78462 2.9042 5.76136C2.8806 5.7381 2.86187 5.71038 2.84908 5.67982C2.8363 5.64926 2.82971 5.61645 2.82971 5.58332C2.82971 5.55019 2.8363 5.51739 2.84908 5.48683C2.86187 5.45626 2.8806 5.42854 2.9042 5.40528C2.92779 5.38202 2.95577 5.36368 2.98651 5.35133C3.01725 5.33898 3.05014 5.33285 3.08327 5.33332H8.31309L7.40651 4.42675C7.37045 4.39162 7.34583 4.34643 7.33587 4.29708C7.32591 4.24772 7.33109 4.19652 7.35072 4.15016C7.37034 4.10379 7.40351 4.06444 7.44588 4.03724C7.48824 4.01004 7.53783 3.99626 7.58815 3.99771Z" fill="#414141"/>
</g>
<g clip-path="url(#clip1)">
<path d="M16.4192 16.8307C16.469 16.8307 16.5176 16.8456 16.5588 16.8734C16.6001 16.9012 16.6321 16.9407 16.6508 16.9868C16.6695 17.0329 16.6741 17.0835 16.6638 17.1322C16.6536 17.1809 16.6291 17.2254 16.5934 17.2601L15.6868 18.1667H20.9166C20.9497 18.1662 20.9826 18.1723 21.0134 18.1847C21.0441 18.197 21.0721 18.2154 21.0957 18.2386C21.1193 18.2619 21.138 18.2896 21.1508 18.3202C21.1636 18.3507 21.1702 18.3835 21.1702 18.4167C21.1702 18.4498 21.1636 18.4826 21.1508 18.5132C21.138 18.5437 21.1193 18.5714 21.0957 18.5947C21.0721 18.618 21.0441 18.6363 21.0134 18.6487C20.9826 18.661 20.9497 18.6671 20.9166 18.6667H15.6868L16.5934 19.5732C16.6174 19.5963 16.6365 19.6239 16.6497 19.6544C16.6629 19.6849 16.6699 19.7178 16.6702 19.751C16.6705 19.7843 16.6642 19.8173 16.6517 19.8481C16.6391 19.8789 16.6205 19.9069 16.597 19.9304C16.5735 19.9539 16.5455 19.9725 16.5147 19.9851C16.4839 19.9976 16.4509 20.0039 16.4177 20.0036C16.3844 20.0033 16.3515 19.9963 16.321 19.9831C16.2905 19.9699 16.2629 19.9507 16.2398 19.9267L14.9065 18.5934C14.8596 18.5465 14.8333 18.4829 14.8333 18.4167C14.8333 18.3504 14.8596 18.2868 14.9065 18.2399L16.2398 16.9066C16.2632 16.8826 16.291 16.8635 16.3218 16.8505C16.3526 16.8374 16.3858 16.8307 16.4192 16.8307ZM19.5882 19.9977C19.6531 19.9996 19.7147 20.0267 19.76 20.0732L21.0934 21.4066C21.1402 21.4535 21.1666 21.517 21.1666 21.5833C21.1666 21.6496 21.1402 21.7132 21.0934 21.7601L19.76 23.0934C19.737 23.1174 19.7094 23.1366 19.6789 23.1498C19.6483 23.163 19.6155 23.1699 19.5822 23.1703C19.549 23.1706 19.516 23.1643 19.4852 23.1517C19.4544 23.1392 19.4264 23.1206 19.4029 23.097C19.3794 23.0735 19.3608 23.0455 19.3482 23.0148C19.3356 22.984 19.3293 22.951 19.3297 22.9177C19.33 22.8844 19.337 22.8516 19.3502 22.8211C19.3634 22.7905 19.3825 22.7629 19.4065 22.7399L20.3131 21.8333H15.0833C15.0501 21.8338 15.0173 21.8277 14.9865 21.8153C14.9558 21.803 14.9278 21.7846 14.9042 21.7614C14.8806 21.7381 14.8619 21.7104 14.8491 21.6798C14.8363 21.6493 14.8297 21.6165 14.8297 21.5833C14.8297 21.5502 14.8363 21.5174 14.8491 21.4868C14.8619 21.4563 14.8806 21.4285 14.9042 21.4053C14.9278 21.382 14.9558 21.3637 14.9865 21.3513C15.0173 21.339 15.0501 21.3329 15.0833 21.3333H20.3131L19.4065 20.4267C19.3704 20.3916 19.3458 20.3464 19.3359 20.2971C19.3259 20.2477 19.3311 20.1965 19.3507 20.1502C19.3703 20.1038 19.4035 20.0644 19.4459 20.0372C19.4882 20.01 19.5378 19.9963 19.5882 19.9977Z" fill="#414141"/>
</g>
<defs>
<clipPath id="clip0">
<rect width="8" height="4" fill="white" transform="matrix(-1 0 0 1 10 0)"/>
</clipPath>
<clipPath id="clip1">
<rect width="8" height="4" fill="white" transform="matrix(-1 0 0 1 22 20)"/>
</clipPath>
</defs>
</svg>
