<svg width="24" height="24" viewBox="0 0 24 24" fill="none" xmlns="http://www.w3.org/2000/svg">
<path d="M12.0001 0.959991C7.76444 0.959991 4.32007 4.40437 4.32007 8.63999C4.32007 11.685 6.17444 15.1987 7.99507 18C9.81569 20.8012 11.6401 22.875 11.6401 22.875C11.7319 22.9781 11.8632 23.0381 12.0001 23.0381C12.1369 23.0381 12.2682 22.9781 12.3601 22.875C12.3601 22.875 14.1844 20.7975 16.0051 18C17.8257 15.2025 19.6801 11.7 19.6801 8.63999C19.6801 4.40437 16.2357 0.959991 12.0001 0.959991ZM12.0001 1.91999C15.7163 1.91999 18.7201 4.92374 18.7201 8.63999C18.7201 11.2987 16.9744 14.7562 15.1951 17.49C13.7026 19.7812 12.4426 21.2906 12.0001 21.81C11.5594 21.2906 10.2994 19.7737 8.80507 17.475C7.02569 14.7375 5.28007 11.28 5.28007 8.63999C5.28007 4.92374 8.28382 1.91999 12.0001 1.91999ZM8.64007 6.23999V12.48H15.3601V6.23999H8.64007ZM9.60007 7.19999H14.4001V11.52H9.60007V7.19999ZM10.9501 8.15999C10.6857 8.18437 10.4907 8.42062 10.5151 8.68499C10.5394 8.94937 10.7757 9.14437 11.0401 9.11999H12.9601C13.1326 9.12187 13.2938 9.03187 13.3819 8.88187C13.4682 8.73187 13.4682 8.54812 13.3819 8.39812C13.2938 8.24812 13.1326 8.15812 12.9601 8.15999H11.0401C11.0251 8.15999 11.0101 8.15999 10.9951 8.15999C10.9801 8.15999 10.9651 8.15999 10.9501 8.15999Z" fill="#414141"/>
<rect width="8" height="8" transform="translate(8 6)" fill="white"/>
<path d="M12.9187 6C12.6282 6 12.3657 6.03451 12.1319 6.09851C12.4106 6.30929 12.6483 6.58715 12.822 6.9195C12.8662 7.00385 12.8364 7.10966 12.7556 7.15557C12.7304 7.17001 12.703 7.17663 12.6759 7.17663C12.6169 7.17663 12.5597 7.14385 12.5294 7.08594C12.2697 6.58907 11.6666 5.99987 10.9646 6.00543C9.66654 5.99987 8.5 7.07513 8.5 8.56522C8.5 8.704 8.51382 8.83287 8.53516 8.95652H10.6667V8.43478C10.6667 8.33878 10.7412 8.26087 10.8334 8.26087H13.1668C13.2589 8.26087 13.3334 8.33878 13.3334 8.43478V8.95652H15.465C15.4861 8.83339 15.4998 8.70517 15.4998 8.56726C15.5076 7.83682 15.2818 7.20828 14.8468 6.74932C14.3823 6.25923 13.7155 6 12.9187 6ZM11 8.6087V9.13043C11 9.22643 10.9255 9.30435 10.8334 9.30435H8.62272C8.72073 9.6 8.86528 9.8672 9.01629 10.142C9.19696 10.4709 9.38369 10.8111 9.49286 11.2249C9.55636 11.4713 9.61268 11.7347 9.66701 11.9895C9.88802 13.0234 10.0967 14 10.7927 14C11.2774 14 11.5668 13.6429 11.5668 13.0448C11.5668 12.3022 11.7213 11.3145 11.8366 10.641C11.8583 10.5314 11.9373 10.4925 12.0056 10.4925H12.0095C12.0402 10.4932 12.1415 10.5052 12.1625 10.6369C12.342 11.6633 12.4333 12.4735 12.4333 13.0448C12.4333 13.6429 12.7226 13.9997 13.2074 13.9997C13.9005 13.9997 14.1092 13.0272 14.3299 11.9976C14.3854 11.7395 14.4424 11.4727 14.5069 11.2259C14.6164 10.8111 14.8032 10.4707 14.9838 10.142C15.1348 9.86703 15.2797 9.59983 15.3777 9.30435H13.1668C13.0746 9.30435 13.0001 9.22643 13.0001 9.13043V8.6087H11Z" fill="#414141"/>
</svg>
