<svg width="24" height="24" viewBox="0 0 24 24" fill="none" xmlns="http://www.w3.org/2000/svg">
<path d="M12 2C7.31463 2 3.5 5.81463 3.5 10.5C3.5 12.6034 4.27165 14.5324 5.53906 16.0156L5.54297 16.0195L5.5459 16.0234C5.5459 16.0234 9.16186 20.1495 10.4492 21.3779C11.3113 22.1998 12.6877 22.1998 13.5498 21.3779C15.0172 19.9783 18.4551 16.0215 18.4551 16.0215L18.457 16.0186L18.46 16.0156C19.7285 14.5324 20.5 12.6034 20.5 10.5C20.5 5.81463 16.6854 2 12 2ZM12 3.5C15.8746 3.5 19 6.62537 19 10.5C19 12.2376 18.3668 13.8163 17.3193 15.041C17.3125 15.0488 13.795 19.0718 12.5146 20.293C12.2177 20.5761 11.7813 20.5761 11.4844 20.293C10.4143 19.2719 6.69055 15.0533 6.67969 15.041L6.67871 15.04C5.63266 13.8154 5 12.2371 5 10.5C5 6.62537 8.12537 3.5 12 3.5ZM8.75 7C8.55109 7.00002 8.36034 7.07904 8.21969 7.21969C8.07904 7.36034 8.00002 7.55109 8 7.75V12.75C8 13.9838 9.01625 15 10.25 15H13.75C14.9838 15 16 13.9838 16 12.75V7.75C16 7.55109 15.921 7.36034 15.7803 7.21969C15.6397 7.07904 15.4489 7.00002 15.25 7H8.75ZM9.5 8.5H14.5V12.75C14.5 13.1732 14.1732 13.5 13.75 13.5H10.25C9.82675 13.5 9.5 13.1732 9.5 12.75V8.5ZM11.25 9.5C11.1506 9.49859 11.0519 9.51696 10.9597 9.55402C10.8675 9.59108 10.7836 9.6461 10.7128 9.71588C10.642 9.78566 10.5858 9.86882 10.5474 9.96051C10.5091 10.0522 10.4893 10.1506 10.4893 10.25C10.4893 10.3494 10.5091 10.4478 10.5474 10.5395C10.5858 10.6312 10.642 10.7143 10.7128 10.7841C10.7836 10.8539 10.8675 10.9089 10.9597 10.946C11.0519 10.983 11.1506 11.0014 11.25 11H12.75C12.8494 11.0014 12.9481 10.983 13.0403 10.946C13.1325 10.9089 13.2164 10.8539 13.2872 10.7841C13.358 10.7143 13.4142 10.6312 13.4526 10.5395C13.4909 10.4478 13.5107 10.3494 13.5107 10.25C13.5107 10.1506 13.4909 10.0522 13.4526 9.96051C13.4142 9.86882 13.358 9.78566 13.2872 9.71588C13.2164 9.6461 13.1325 9.59108 13.0403 9.55402C12.9481 9.51696 12.8494 9.49859 12.75 9.5H11.25Z" fill="#414141"/>
</svg>
