<svg width="16" height="16" viewBox="0 0 16 16" fill="none" xmlns="http://www.w3.org/2000/svg">
<path fill-rule="evenodd" clip-rule="evenodd" d="M4.6665 3.66668C4.6665 1.83174 6.1649 0.333344 7.99984 0.333344C9.22851 0.333344 10.3063 1.00517 10.8844 2.00001H9.63717C9.21683 1.58709 8.63953 1.33334 7.99984 1.33334C6.70544 1.33334 5.6665 2.37228 5.6665 3.66668V5.54558C6.37253 5.19987 7.16254 5.00001 7.99984 5.00001C10.9394 5.00001 13.3332 7.39375 13.3332 10.3333C13.3332 13.2729 10.9394 15.6667 7.99984 15.6667C5.06024 15.6667 2.6665 13.2729 2.6665 10.3333C2.6665 8.65419 3.44946 7.15561 4.66715 6.17709L4.6665 6.16668V3.66668ZM11.3332 3.68083C11.3332 3.67611 11.3332 3.6714 11.3332 3.66668V3.68083ZM12.3332 10.3333C12.3332 7.93419 10.399 6.00001 7.99984 6.00001C5.60068 6.00001 3.6665 7.93419 3.6665 10.3333C3.6665 12.7325 5.60068 14.6667 7.99984 14.6667C10.399 14.6667 12.3332 12.7325 12.3332 10.3333ZM6.95165 8.37482C7.24776 8.13344 7.61781 8.00112 7.99984 8.00001C8.3824 8.00045 8.75316 8.13248 9.04989 8.37394C9.34662 8.6154 9.55125 8.95159 9.62943 9.32607C9.70761 9.70056 9.65458 10.0905 9.47924 10.4306C9.3039 10.7706 9.01693 11.0399 8.6665 11.1934V12.3333C8.6665 12.7017 8.36817 13 7.99984 13C7.6315 13 7.33317 12.7017 7.33317 12.3333V11.1921C6.98352 11.0381 6.69737 10.7688 6.52262 10.4291C6.34786 10.0893 6.29512 9.6999 6.37323 9.32594C6.45133 8.95197 6.65553 8.6162 6.95165 8.37482Z" fill="#757575"/>
</svg>
