<svg width="24" height="24" viewBox="0 0 24 24" fill="none" xmlns="http://www.w3.org/2000/svg">
<path d="M19.9997 10.7307C19.9938 10.536 19.91 10.3512 19.7661 10.2154L12.5487 3.21945C12.4036 3.07894 12.207 3 12.0019 3C11.7969 3 11.6002 3.07894 11.4552 3.21945L4.23775 10.2154C4.16353 10.2844 4.10428 10.3672 4.06346 10.4587C4.02265 10.5502 4.00109 10.6488 4.00004 10.7485C3.99899 10.8482 4.01849 10.9471 4.05737 11.0394C4.09626 11.1318 4.15376 11.2157 4.22651 11.2862C4.29926 11.3567 4.3858 11.4124 4.48105 11.4501C4.5763 11.4878 4.67835 11.5067 4.78123 11.5057C4.88411 11.5047 4.98575 11.4838 5.08019 11.4442C5.17463 11.4047 5.25998 11.3472 5.33123 11.2753L11.2286 5.5589L11.2286 20.2398C11.2272 20.3391 11.2461 20.4377 11.2843 20.5299C11.3225 20.622 11.3793 20.7059 11.4512 20.7767C11.5232 20.8474 11.6089 20.9036 11.7034 20.9419C11.798 20.9803 11.8994 21 12.0019 21C12.1044 21 12.2059 20.9803 12.3004 20.9419C12.3949 20.9036 12.4807 20.8474 12.5526 20.7767C12.6246 20.7059 12.6813 20.622 12.7195 20.5299C12.7577 20.4377 12.7767 20.3391 12.7752 20.2398V5.5589L18.6726 11.2753C18.7812 11.3834 18.921 11.4572 19.0737 11.4871C19.2263 11.5169 19.3847 11.5014 19.5281 11.4426C19.6715 11.3837 19.7933 11.2843 19.8774 11.1573C19.9615 11.0302 20.0042 10.8816 19.9997 10.7307Z" fill="#414141"/>
</svg>
