<svg width="24" height="24" viewBox="0 0 24 24" fill="none" xmlns="http://www.w3.org/2000/svg">
<path d="M11.9893 3.00007C11.7941 3.00293 11.6077 3.08175 11.4697 3.2198L8.46973 6.2198C8.39775 6.28891 8.34028 6.37169 8.3007 6.46328C8.26111 6.55488 8.24019 6.65345 8.23918 6.75323C8.23817 6.85301 8.25707 6.95199 8.29479 7.04437C8.33251 7.13675 8.38828 7.22068 8.45883 7.29124C8.52939 7.3618 8.61332 7.41757 8.7057 7.45529C8.79808 7.493 8.89706 7.51191 8.99684 7.51089C9.09662 7.50988 9.1952 7.48897 9.28679 7.44938C9.37839 7.40979 9.46116 7.35233 9.53027 7.28035L11.25 5.56062V16.2501C11.2486 16.3495 11.267 16.4481 11.304 16.5404C11.3411 16.6326 11.3961 16.7165 11.4659 16.7873C11.5357 16.8581 11.6188 16.9143 11.7105 16.9526C11.8022 16.991 11.9006 17.0108 12 17.0108C12.0994 17.0108 12.1978 16.991 12.2895 16.9526C12.3812 16.9143 12.4643 16.8581 12.5341 16.7873C12.6039 16.7165 12.6589 16.6326 12.696 16.5404C12.733 16.4481 12.7514 16.3495 12.75 16.2501V5.56062L14.4697 7.28035C14.5388 7.35233 14.6216 7.40979 14.7132 7.44938C14.8048 7.48897 14.9034 7.50988 15.0032 7.51089C15.1029 7.51191 15.2019 7.493 15.2943 7.45529C15.3867 7.41757 15.4706 7.3618 15.5412 7.29124C15.6117 7.22068 15.6675 7.13675 15.7052 7.04437C15.7429 6.95199 15.7618 6.85301 15.7608 6.75323C15.7598 6.65345 15.7389 6.55488 15.6993 6.46328C15.6597 6.37169 15.6023 6.28891 15.5303 6.2198L12.5303 3.2198C12.4594 3.14886 12.375 3.09287 12.282 3.05513C12.1891 3.01739 12.0895 2.99867 11.9893 3.00007ZM5.75 8.50007C4.24011 8.50007 3 9.74019 3 11.2501V18.2501C3 19.76 4.24011 21.0001 5.75 21.0001H18.25C19.7599 21.0001 21 19.76 21 18.2501V11.2501C21 9.74019 19.7599 8.50007 18.25 8.50007H17.25C17.1506 8.49867 17.0519 8.51703 16.9597 8.55409C16.8675 8.59115 16.7836 8.64617 16.7128 8.71595C16.642 8.78574 16.5858 8.86889 16.5474 8.96058C16.5091 9.05228 16.4893 9.15068 16.4893 9.25007C16.4893 9.34947 16.5091 9.44787 16.5474 9.53956C16.5858 9.63126 16.642 9.71441 16.7128 9.78419C16.7836 9.85398 16.8675 9.909 16.9597 9.94606C17.0519 9.98312 17.1506 10.0015 17.25 10.0001H18.25C18.9491 10.0001 19.5 10.551 19.5 11.2501V18.2501C19.5 18.9492 18.9491 19.5001 18.25 19.5001H5.75C5.05089 19.5001 4.5 18.9492 4.5 18.2501V11.2501C4.5 10.551 5.05089 10.0001 5.75 10.0001H6.75C6.84938 10.0015 6.94806 9.98312 7.04028 9.94606C7.13251 9.909 7.21645 9.85398 7.28723 9.78419C7.358 9.71441 7.41421 9.63126 7.45257 9.53956C7.49093 9.44787 7.51068 9.34947 7.51068 9.25007C7.51068 9.15068 7.49093 9.05228 7.45257 8.96058C7.41421 8.86889 7.358 8.78574 7.28723 8.71595C7.21645 8.64617 7.13251 8.59115 7.04028 8.55409C6.94806 8.51703 6.84938 8.49867 6.75 8.50007H5.75Z" fill="#414141"/>
</svg>
