<svg width="24" height="24" viewBox="0 0 24 24" fill="none" xmlns="http://www.w3.org/2000/svg">
<path d="M12 3.5C8.255 3.5 5.16504 6.355 4.79004 10H4.5C2.02 10 0 12.02 0 14.5C0 16.98 2.02 19 4.5 19H9.87988C9.79488 18.765 9.75 18.515 9.75 18.25V17.5H4.5C2.845 17.5 1.5 16.155 1.5 14.5C1.5 12.845 2.845 11.5 4.5 11.5H5.5C5.915 11.5 6.25 11.165 6.25 10.75C6.25 7.58 8.83 5 12 5C15.17 5 17.75 7.58 17.75 10.75C17.75 11.165 18.085 11.5 18.5 11.5H19.5C21.155 11.5 22.5 12.845 22.5 14.5C22.5 16.155 21.155 17.5 19.5 17.5H14.25V18.25C14.25 18.515 14.2051 18.765 14.1201 19H19.5C21.98 19 24 16.98 24 14.5C24 12.02 21.98 10 19.5 10H19.21C18.835 6.355 15.745 3.5 12 3.5ZM11.9629 9.00098C11.7859 9.00986 11.6178 9.08113 11.4883 9.20215L7.73828 12.7021C7.66254 12.7683 7.60089 12.8491 7.55699 12.9396C7.5131 13.0301 7.48785 13.1285 7.48276 13.229C7.47767 13.3294 7.49284 13.4299 7.52737 13.5244C7.56189 13.6188 7.61507 13.7054 7.68373 13.7789C7.75239 13.8524 7.83513 13.9114 7.92704 13.9523C8.01895 13.9931 8.11814 14.0151 8.21871 14.0169C8.31928 14.0187 8.41918 14.0002 8.51247 13.9625C8.60576 13.9249 8.69052 13.8689 8.76172 13.7979L11.25 11.4766V18.25C11.2486 18.3494 11.267 18.4481 11.304 18.5403C11.3411 18.6325 11.3961 18.7164 11.4659 18.7872C11.5357 18.858 11.6188 18.9142 11.7105 18.9526C11.8022 18.9909 11.9006 19.0107 12 19.0107C12.0994 19.0107 12.1978 18.9909 12.2895 18.9526C12.3812 18.9142 12.4643 18.858 12.5341 18.7872C12.6039 18.7164 12.6589 18.6325 12.696 18.5403C12.733 18.4481 12.7514 18.3494 12.75 18.25V11.4766L15.2383 13.7979C15.3095 13.8689 15.3942 13.9249 15.4875 13.9625C15.5808 14.0002 15.6807 14.0187 15.7813 14.0169C15.8819 14.0151 15.9811 13.9931 16.073 13.9523C16.1649 13.9114 16.2476 13.8524 16.3163 13.7789C16.3849 13.7054 16.4381 13.6188 16.4726 13.5244C16.5072 13.4299 16.5223 13.3294 16.5172 13.229C16.5121 13.1285 16.4869 13.0301 16.443 12.9396C16.3991 12.8491 16.3375 12.7683 16.2617 12.7021L12.5117 9.20215C12.4384 9.13359 12.352 9.08046 12.2577 9.0459C12.1634 9.01134 12.0632 8.99607 11.9629 9.00098Z" fill="#414141"/>
</svg>
