<svg width="24" height="24" viewBox="0 0 24 24" fill="none" xmlns="http://www.w3.org/2000/svg">
<path d="M15.2423 1.49219C15.093 1.49222 14.9471 1.53679 14.8234 1.62019C14.6996 1.70358 14.6035 1.82202 14.5474 1.96033C14.4913 2.09865 14.4777 2.25056 14.5084 2.39662C14.5391 2.54269 14.6127 2.67627 14.7198 2.78027L18.4395 6.5H6.75008C4.68782 6.5 3.00008 8.18775 3.00008 10.25V21.75C2.99867 21.8494 3.01703 21.9481 3.05409 22.0403C3.09115 22.1325 3.14617 22.2164 3.21595 22.2872C3.28574 22.358 3.36889 22.4142 3.46059 22.4526C3.55228 22.4909 3.65068 22.5107 3.75007 22.5107C3.84947 22.5107 3.94787 22.4909 4.03956 22.4526C4.13126 22.4142 4.21441 22.358 4.2842 22.2872C4.35398 22.2164 4.409 22.1325 4.44606 22.0403C4.48312 21.9481 4.50148 21.8494 4.50007 21.75V10.25C4.50007 8.99825 5.49833 8 6.75008 8H18.4395L14.7198 11.7197C14.6478 11.7888 14.5904 11.8716 14.5508 11.9632C14.5112 12.0548 14.4903 12.1534 14.4893 12.2532C14.4882 12.3529 14.5071 12.4519 14.5449 12.5443C14.5826 12.6367 14.6384 12.7206 14.7089 12.7912C14.7795 12.8617 14.8634 12.9175 14.9558 12.9552C15.0482 12.9929 15.1471 13.0118 15.2469 13.0108C15.3467 13.0098 15.4453 12.9889 15.5369 12.9493C15.6285 12.9097 15.7112 12.8523 15.7803 12.7803L20.7803 7.78027C20.9209 7.63962 20.9999 7.44888 20.9999 7.25C20.9999 7.05112 20.9209 6.86038 20.7803 6.71973L15.7803 1.71973C15.7104 1.64773 15.6268 1.5905 15.5344 1.55142C15.4419 1.51233 15.3426 1.49219 15.2423 1.49219Z" fill="#414141"/>
</svg>
