<svg width="24" height="24" viewBox="0 0 24 24" fill="none" xmlns="http://www.w3.org/2000/svg">
<path d="M14.293 15.707C14.4885 15.9025 14.744 16 15 16C15.256 16 15.5115 15.9025 15.707 15.707L20.707 10.707C21.0975 10.3165 21.0975 9.6835 20.707 9.293L15.707 4.293C15.3165 3.9025 14.6835 3.9025 14.293 4.293C13.9025 4.6835 13.9025 5.3165 14.293 5.707L17.586 9H6C4.402 9 3 10.519 3 12.25V19C3 19.552 3.448 20 4 20C4.552 20 5 19.552 5 19V12.25C5 11.6425 5.514 11 6 11H17.586L14.293 14.293C13.9025 14.6835 13.9025 15.3165 14.293 15.707Z" fill="#414141"/>
</svg>
