<svg width="24" height="24" viewBox="0 0 24 24" fill="none" xmlns="http://www.w3.org/2000/svg">
<path d="M5.25 2.5C3.46 2.5 2 3.96 2 5.75V15.25C2 17.04 3.46 18.5 5.25 18.5H11.0752C11.0252 18.175 11 17.84 11 17.5C11 17.33 11.0054 17.165 11.0254 17H5.25C4.285 17 3.5 16.215 3.5 15.25V8.00781L11.6436 12.4102C11.7531 12.4693 11.8755 12.5003 12 12.5003C12.1245 12.5003 12.2469 12.4693 12.3564 12.4102L20.5 8.00781V11.7354C21.05 12.0204 21.555 12.3854 22 12.8154V5.75C22 3.96 20.54 2.5 18.75 2.5H5.25ZM5.25 4H18.75C19.715 4 20.5 4.785 20.5 5.75V6.30273L12 10.8975L3.5 6.30273V5.75C3.5 4.785 4.285 4 5.25 4ZM17.5 12C14.4625 12 12 14.4625 12 17.5C12 20.5375 14.4625 23 17.5 23C20.5375 23 23 20.5375 23 17.5C23 14.4625 20.5375 12 17.5 12ZM17.5 14C17.7765 14 18 14.224 18 14.5V18.5C18 18.776 17.7765 19 17.5 19C17.2235 19 17 18.776 17 18.5V14.5C17 14.224 17.2235 14 17.5 14ZM17.5 19.875C17.845 19.875 18.125 20.155 18.125 20.5C18.125 20.845 17.845 21.125 17.5 21.125C17.155 21.125 16.875 20.845 16.875 20.5C16.875 20.155 17.155 19.875 17.5 19.875Z" fill="#414141"/>
</svg>
