<svg width="24" height="24" viewBox="0 0 24 24" fill="none" xmlns="http://www.w3.org/2000/svg">
<path d="M4.25 4.5C2.46403 4.5 1 5.96403 1 7.75V16.25C1 18.036 2.46403 19.5 4.25 19.5H19.75C21.536 19.5 23 18.036 23 16.25V7.75C23 5.96403 21.536 4.5 19.75 4.5H4.25ZM4.25 6H19.75C20.725 6 21.5 6.77497 21.5 7.75V16.25C21.5 17.225 20.725 18 19.75 18H4.25C3.27497 18 2.5 17.225 2.5 16.25V7.75C2.5 6.77497 3.27497 6 4.25 6ZM14.0771 9.25C12.6171 9.25 11.8633 9.97174 11.8633 10.8857C11.8633 12.5377 13.7881 12.3126 13.7881 13.1621C13.7881 13.3061 13.675 13.6426 12.874 13.6426C12.071 13.6426 11.542 13.3379 11.542 13.3379L11.3018 14.4463C11.3018 14.4463 11.816 14.75 12.8105 14.75C13.805 14.75 15.1846 13.98 15.1846 12.873C15.1841 11.5425 13.2588 11.4465 13.2588 10.8535C13.2588 10.5505 13.4999 10.3242 14.1904 10.3242C14.6389 10.3242 15.1523 10.6621 15.1523 10.6621L15.377 9.50684C15.377 9.50684 14.7196 9.25 14.0771 9.25ZM9.33691 9.35547L7.85156 9.35645L6.58105 13.0801C6.58105 13.0801 6.50804 12.7629 6.47754 12.5654C5.75404 10.9444 4.58105 10.3496 4.58105 10.3496L5.69531 14.585H7.22461L9.33691 9.35547ZM9.88574 9.35547L9.0625 14.5859H10.4502L11.29 9.35547H9.88574ZM17.4248 9.35645L15.1465 14.5859H16.5244L16.8096 13.8398H18.5469L18.6963 14.5859H19.959L18.8848 9.35645H17.4248ZM3.04004 9.36719C3.04004 9.36719 5.77706 10.2029 6.41406 12.2549L5.94727 9.88184C5.94727 9.88184 5.736 9.36719 5.1875 9.36719H3.04004ZM17.9512 10.8633L18.3467 12.8398H17.1953L17.9512 10.8633Z" fill="#153E90"/>
</svg>
