<svg width="24" height="24" viewBox="0 0 24 24" fill="none" xmlns="http://www.w3.org/2000/svg">
<path d="M10.25 3C6.25482 3 3 6.25482 3 10.25C3 14.2452 6.25482 17.5 10.25 17.5C11.9782 17.5 13.5669 16.8895 14.8145 15.875L19.7197 20.7803C19.7888 20.8523 19.8716 20.9097 19.9632 20.9493C20.0548 20.9889 20.1534 21.0098 20.2532 21.0108C20.3529 21.0118 20.4519 20.9929 20.5443 20.9552C20.6367 20.9175 20.7206 20.8617 20.7912 20.7912C20.8617 20.7206 20.9175 20.6367 20.9552 20.5443C20.9929 20.4519 21.0118 20.3529 21.0108 20.2532C21.0098 20.1534 20.9889 20.0548 20.9493 19.9632C20.9097 19.8716 20.8523 19.7888 20.7803 19.7197L15.875 14.8145C16.8895 13.5669 17.5 11.9782 17.5 10.25C17.5 6.25482 14.2452 3 10.25 3ZM10.25 4.5C13.4345 4.5 16 7.06548 16 10.25C16 11.8013 15.3881 13.2029 14.3955 14.2354C14.3343 14.2803 14.2803 14.3343 14.2354 14.3955C13.2029 15.3881 11.8013 16 10.25 16C7.06548 16 4.5 13.4345 4.5 10.25C4.5 7.06548 7.06548 4.5 10.25 4.5ZM10.2256 5.5C10.0307 5.50414 9.84504 5.584 9.70801 5.72266L8.7168 6.72266C8.64529 6.79218 8.58837 6.87527 8.54936 6.96706C8.51035 7.05886 8.49004 7.1575 8.48961 7.25724C8.48919 7.35698 8.50866 7.45579 8.54688 7.54791C8.58511 7.64003 8.64132 7.72361 8.71224 7.79374C8.78315 7.86387 8.86734 7.91916 8.95987 7.95637C9.05241 7.99357 9.15144 8.01195 9.25116 8.01042C9.35089 8.00889 9.44931 7.98749 9.54066 7.94747C9.63201 7.90745 9.71447 7.84962 9.7832 7.77734L10.2451 7.31055L10.7227 7.7832C10.7922 7.85471 10.8753 7.91163 10.9671 7.95064C11.0589 7.98965 11.1575 8.00996 11.2572 8.01039C11.357 8.01081 11.4558 7.99134 11.5479 7.95312C11.64 7.91489 11.7236 7.85868 11.7937 7.78776C11.8639 7.71685 11.9192 7.63266 11.9564 7.54013C11.9936 7.44759 12.0119 7.34856 12.0104 7.24884C12.0089 7.14911 11.9875 7.05069 11.9475 6.95934C11.9075 6.86799 11.8496 6.78553 11.7773 6.7168L10.7686 5.7168C10.6972 5.64615 10.6123 5.59056 10.5191 5.55332C10.4258 5.51608 10.326 5.49795 10.2256 5.5ZM13.2461 8.49219C13.0969 8.49146 12.9508 8.53526 12.8266 8.61799C12.7024 8.70072 12.6057 8.81862 12.5489 8.95661C12.492 9.0946 12.4777 9.2464 12.5076 9.3926C12.5375 9.53881 12.6103 9.67277 12.7168 9.77734L13.1895 10.2549L12.7227 10.7168C12.6504 10.7855 12.5925 10.868 12.5525 10.9593C12.5125 11.0507 12.4911 11.1491 12.4896 11.2488C12.4881 11.3486 12.5064 11.4476 12.5436 11.5401C12.5808 11.6327 12.6361 11.7169 12.7063 11.7878C12.7764 11.8587 12.86 11.9149 12.9521 11.9531C13.0442 11.9913 13.143 12.0108 13.2428 12.0104C13.3425 12.01 13.4411 11.9897 13.5329 11.9506C13.6247 11.9116 13.7078 11.8547 13.7773 11.7832L14.7773 10.792C14.9187 10.6521 14.9988 10.4618 14.9999 10.2629C15.001 10.0641 14.923 9.87288 14.7832 9.73145L13.7832 8.72266C13.7137 8.65025 13.6303 8.59254 13.538 8.55295C13.4458 8.51337 13.3465 8.4927 13.2461 8.49219ZM7.23145 8.49316C7.03659 8.49987 6.852 8.58218 6.7168 8.72266L5.7168 9.73145C5.57697 9.87288 5.49904 10.0641 5.50014 10.2629C5.50124 10.4618 5.58128 10.6521 5.72266 10.792L6.72266 11.7832C6.79218 11.8547 6.87527 11.9116 6.96706 11.9506C7.05886 11.9897 7.1575 12.01 7.25724 12.0104C7.35698 12.0108 7.45579 11.9913 7.54791 11.9531C7.64003 11.9149 7.72361 11.8587 7.79374 11.7878C7.86387 11.7169 7.91916 11.6327 7.95637 11.5401C7.99357 11.4476 8.01195 11.3486 8.01042 11.2488C8.00889 11.1491 7.98749 11.0507 7.94747 10.9593C7.90745 10.868 7.84962 10.7855 7.77734 10.7168L7.31055 10.2549L7.7832 9.77734C7.89084 9.67139 7.96398 9.53542 7.99305 9.38721C8.02213 9.239 8.00579 9.08547 7.94617 8.9467C7.88655 8.80794 7.78642 8.6904 7.6589 8.60948C7.53137 8.52856 7.38239 8.48802 7.23145 8.49316ZM11.2461 12.4902C11.0486 12.4939 10.8605 12.5753 10.7227 12.7168L10.2451 13.1895L9.7832 12.7227C9.71366 12.6503 9.63028 12.5925 9.53802 12.553C9.44576 12.5134 9.34649 12.4927 9.24609 12.4922C9.09686 12.4915 8.95081 12.5353 8.82661 12.618C8.7024 12.7007 8.60571 12.8186 8.54887 12.9566C8.49204 13.0946 8.47767 13.2464 8.50758 13.3926C8.53749 13.5388 8.61034 13.6728 8.7168 13.7773L9.70801 14.7773C9.84789 14.9187 10.0382 14.9988 10.2371 14.9999C10.4359 15.001 10.6271 14.923 10.7686 14.7832L11.7773 13.7832C11.8867 13.679 11.9621 13.5442 11.9935 13.3964C12.025 13.2487 12.0111 13.0949 11.9537 12.9551C11.8963 12.8154 11.798 12.6962 11.6718 12.6133C11.5455 12.5303 11.3971 12.4875 11.2461 12.4902Z" fill="#414141"/>
</svg>
