<svg width="24" height="24" viewBox="0 0 24 24" fill="none" xmlns="http://www.w3.org/2000/svg">
<path d="M10.25 3C6.25482 3 3 6.25482 3 10.25C3 14.2452 6.25482 17.5 10.25 17.5C11.9782 17.5 13.5669 16.8895 14.8145 15.875L19.7197 20.7803C19.7888 20.8523 19.8716 20.9097 19.9632 20.9493C20.0548 20.9889 20.1534 21.0098 20.2532 21.0108C20.3529 21.0118 20.4519 20.9929 20.5443 20.9552C20.6367 20.9175 20.7206 20.8617 20.7912 20.7912C20.8617 20.7206 20.9175 20.6367 20.9552 20.5443C20.9929 20.4519 21.0118 20.3529 21.0108 20.2532C21.0098 20.1534 20.9889 20.0548 20.9493 19.9632C20.9097 19.8716 20.8523 19.7888 20.7803 19.7197L15.875 14.8145C16.8895 13.5669 17.5 11.9782 17.5 10.25C17.5 6.25482 14.2452 3 10.25 3ZM10.25 4.5C13.4345 4.5 16 7.06548 16 10.25C16 11.8013 15.3881 13.2029 14.3955 14.2354C14.3343 14.2803 14.2803 14.3343 14.2354 14.3955C13.2029 15.3881 11.8013 16 10.25 16C7.06548 16 4.5 13.4345 4.5 10.25C4.5 7.06548 7.06548 4.5 10.25 4.5ZM7.75 9.5C7.65062 9.49859 7.55194 9.51696 7.45972 9.55402C7.36749 9.59108 7.28355 9.6461 7.21277 9.71588C7.142 9.78566 7.08579 9.86882 7.04743 9.96051C7.00907 10.0522 6.98932 10.1506 6.98932 10.25C6.98932 10.3494 7.00907 10.4478 7.04743 10.5395C7.08579 10.6312 7.142 10.7143 7.21277 10.7841C7.28355 10.8539 7.36749 10.9089 7.45972 10.946C7.55194 10.983 7.65062 11.0014 7.75 11H12.75C12.8494 11.0014 12.9481 10.983 13.0403 10.946C13.1325 10.9089 13.2164 10.8539 13.2872 10.7841C13.358 10.7143 13.4142 10.6312 13.4526 10.5395C13.4909 10.4478 13.5107 10.3494 13.5107 10.25C13.5107 10.1506 13.4909 10.0522 13.4526 9.96051C13.4142 9.86882 13.358 9.78566 13.2872 9.71588C13.2164 9.6461 13.1325 9.59108 13.0403 9.55402C12.9481 9.51696 12.8494 9.49859 12.75 9.5H7.75Z" fill="#414141"/>
</svg>
