<svg width="130" height="130" viewBox="0 0 130 130" fill="none" xmlns="http://www.w3.org/2000/svg">
<g clip-path="url(#clip0)">
<path d="M32.177 21.1333C32.177 21.1333 51.8179 36.1749 81.6771 8.04986C108.195 -16.9273 129.847 22.4811 129.999 41.3531C130.195 65.7996 103.481 85.3606 116.445 101.418C129.41 117.474 90.7351 143.99 69.8914 121.042C43.9627 92.497 36.9383 115.69 22.159 115.69C11.5518 115.69 -10.2259 89.0921 4.48031 69.3038C16.8554 52.6523 10.1063 47.126 6.83789 41.3531C2.12319 33.0273 13.3197 10.4288 32.177 21.1333Z" fill="#E2FCFF" fill-opacity="0.5"/>
<path d="M64.2105 57.7767L57.9036 83.5511C57.6694 84.507 57.6266 85.4994 57.7775 86.4717C57.9285 87.444 58.2702 88.3772 58.7832 89.2179C59.2963 90.0586 59.9705 90.7903 60.7675 91.3713C61.5644 91.9523 62.4685 92.3711 63.428 92.6039L94.7949 100.223C95.6013 109.045 102.93 109.698 105.821 110C105.849 110.001 105.878 109.993 105.901 109.977C105.925 109.961 105.942 109.938 105.951 109.911C105.96 109.884 105.959 109.855 105.95 109.828C105.94 109.801 105.922 109.778 105.898 109.763C103.822 108.502 103.202 105.045 103.064 102.231L105.392 102.797C106.352 103.03 107.348 103.073 108.324 102.922C109.3 102.772 110.236 102.431 111.08 101.92C111.924 101.409 112.658 100.737 113.241 99.9434C113.824 99.1493 114.245 98.2486 114.478 97.2927L120.785 71.5182C121.019 70.5624 121.062 69.57 120.911 68.5977C120.76 67.6254 120.419 66.6922 119.906 65.8516C119.393 65.0109 118.718 64.2791 117.921 63.6981C117.124 63.1171 116.22 62.6983 115.261 62.4655L73.2967 52.2727C72.3373 52.0394 71.3413 51.9967 70.3653 52.1471C69.3894 52.2974 68.4528 52.6379 67.609 53.1491C66.7652 53.6602 66.0307 54.332 65.4476 55.126C64.8645 55.92 64.4441 56.8208 64.2105 57.7767Z" fill="#153E90"/>
<path d="M116.241 70.4917L98.7018 66.2315C98.5863 66.2034 98.4698 66.274 98.4416 66.389L97.5418 70.0663C97.5137 70.1814 97.5845 70.2974 97.7 70.3255L115.24 74.5858C115.355 74.6138 115.472 74.5433 115.5 74.4282L116.4 70.7509C116.428 70.6358 116.357 70.5198 116.241 70.4917Z" fill="white"/>
<path d="M113.736 80.727L66.2138 69.1841C66.0983 69.156 65.9819 69.2266 65.9537 69.3417L65.0539 73.019C65.0257 73.134 65.0966 73.2501 65.2121 73.2781L112.735 84.8211C112.85 84.8491 112.967 84.7786 112.995 84.6635L113.895 80.9862C113.923 80.8711 113.852 80.7551 113.736 80.727Z" fill="#52B6C3"/>
<path d="M111.232 90.9622L63.7095 79.4192C63.594 79.3912 63.4775 79.4617 63.4494 79.5768L62.5496 83.2541C62.5214 83.3691 62.5922 83.4852 62.7077 83.5132L110.23 95.0562C110.346 95.0842 110.462 95.0137 110.49 94.8986L111.39 91.2213C111.418 91.1062 111.348 90.9902 111.232 90.9622Z" fill="#52B6C3"/>
<path d="M81.8712 26.8582L92.1846 59.8554C92.5674 61.079 92.7045 62.3658 92.588 63.6423C92.4715 64.9187 92.1037 66.1597 91.5057 67.2945C90.9076 68.4292 90.091 69.4355 89.1025 70.2557C88.114 71.0759 86.9729 71.6941 85.7446 72.0748L45.5883 84.5331C45.2633 96.069 35.7891 97.5137 32.0549 98.1416C32.0178 98.1465 31.9802 98.1389 31.948 98.1201C31.9157 98.1012 31.8908 98.0722 31.877 98.0375C31.8632 98.0029 31.8615 97.9647 31.872 97.929C31.8825 97.8932 31.9047 97.862 31.9351 97.8403C34.5309 96.032 35.0534 91.4874 35.0027 87.8171L32.0212 88.742C30.7931 89.1233 29.5016 89.2599 28.2205 89.1438C26.9394 89.0277 25.6939 88.6613 24.555 88.0655C23.4161 87.4696 22.4061 86.6561 21.5829 85.6713C20.7597 84.6865 20.1392 83.5498 19.757 82.326L9.44365 49.3288C9.06083 48.1052 8.92374 46.8184 9.04023 45.542C9.15671 44.2655 9.52449 43.0245 10.1225 41.8897C10.7206 40.7549 11.5372 39.7487 12.5257 38.9285C13.5142 38.1082 14.6552 37.4901 15.8836 37.1093L69.6065 20.442C70.8347 20.0606 72.1262 19.924 73.4074 20.0401C74.6885 20.1561 75.9342 20.5226 77.0731 21.1184C78.2121 21.7142 79.2221 22.5278 80.0453 23.5127C80.8686 24.4975 81.4891 25.6344 81.8712 26.8582Z" fill="#153E90"/>
<path d="M43.9303 38.6762L15.1616 47.5901C15.048 47.6253 14.9846 47.7455 15.0199 47.8586L16.5285 52.6915C16.5638 52.8046 16.6845 52.8678 16.798 52.8326L45.5667 43.9187C45.6802 43.8835 45.7436 43.7633 45.7083 43.6502L44.1998 38.8173C44.1645 38.7042 44.0438 38.641 43.9303 38.6762Z" fill="white"/>
<path d="M80.2356 41.7393L19.2724 60.6538C19.1589 60.689 19.0955 60.8092 19.1308 60.9223L20.641 65.754C20.6764 65.8671 20.7971 65.9302 20.9106 65.895L81.8738 46.9806C81.9873 46.9454 82.0507 46.8252 82.0153 46.7121L80.5051 41.8803C80.4698 41.7673 80.3491 41.7041 80.2356 41.7393Z" fill="#52B6C3"/>
<path d="M84.3255 54.9097L23.348 73.8035C23.2344 73.8387 23.171 73.9589 23.2063 74.072L24.7149 78.9049C24.7502 79.018 24.8709 79.0812 24.9844 79.046L85.9619 60.1522C86.0755 60.1171 86.1389 59.9968 86.1036 59.8837L84.595 55.0509C84.5597 54.9377 84.4391 54.8746 84.3255 54.9097Z" fill="#52B6C3"/>
</g>
<defs>
<clipPath id="clip0">
<rect width="130" height="130" fill="white"/>
</clipPath>
</defs>
</svg>
