<svg width="130" height="130" viewBox="0 0 130 130" fill="none" xmlns="http://www.w3.org/2000/svg">
<g clip-path="url(#clip0)">
<path d="M32.177 21.1333C32.177 21.1333 51.8179 36.1749 81.6772 8.04986C108.195 -16.9273 129.847 22.4811 129.999 41.3531C130.195 65.7996 103.481 85.3606 116.445 101.418C129.41 117.474 90.7351 143.99 69.8915 121.042C43.9627 92.497 36.9383 115.69 22.1591 115.69C11.5518 115.69 -10.2259 89.0921 4.48033 69.3038C16.8555 52.6523 10.1063 47.126 6.8379 41.3531C2.1232 33.0273 13.3197 10.4288 32.177 21.1333Z" fill="#E2FCFF" fill-opacity="0.5"/>
<g clip-path="url(#clip1)">
<path d="M77.1354 40.7909H52.8843C52.3317 40.7916 51.8019 41.0118 51.4111 41.4032C51.0203 41.7946 50.8005 42.3254 50.7998 42.8789V96.8685L50.5219 96.9534L44.5727 98.7784C44.2907 98.8645 43.9862 98.835 43.7259 98.6964C43.4657 98.5578 43.2709 98.3215 43.1845 98.0392L25.4884 40.138C25.4022 39.8556 25.4316 39.5505 25.57 39.2897C25.7083 39.029 25.9444 38.8339 26.2263 38.7474L35.394 35.9355L61.9714 27.7866L71.139 24.9747C71.2785 24.9317 71.4251 24.9167 71.5704 24.9305C71.7158 24.9443 71.8569 24.9867 71.9859 25.0552C72.1148 25.1238 72.229 25.2171 72.3219 25.3299C72.4148 25.4427 72.4846 25.5727 72.5273 25.7125L77.0506 40.5125L77.1354 40.7909Z" fill="#153E90"/>
<path d="M82.4279 40.5131L76.9762 22.6757C76.8855 22.3785 76.7372 22.1021 76.5398 21.8623C76.3425 21.6226 76.0998 21.4241 75.8259 21.2783C75.5519 21.1325 75.2519 21.0421 74.9431 21.0125C74.6342 20.9829 74.3226 21.0145 74.0259 21.1055L61.1367 25.0575L34.5608 33.2078L21.6716 37.1611C21.0728 37.3453 20.5715 37.7599 20.2776 38.3139C19.9837 38.868 19.9212 39.5162 20.104 40.1164L38.7367 101.077C38.8851 101.562 39.1847 101.986 39.5914 102.287C39.998 102.588 40.4904 102.751 40.9963 102.752C41.2305 102.752 41.4633 102.717 41.6869 102.647L50.5225 99.9385L50.8004 99.8522V99.5613L50.5225 99.6462L41.605 102.382C41.0765 102.543 40.5056 102.488 40.0177 102.228C39.5297 101.968 39.1645 101.525 39.0021 100.996L20.3709 40.0342C20.2904 39.7721 20.2624 39.4967 20.2883 39.2236C20.3143 38.9507 20.3938 38.6855 20.5222 38.4433C20.6507 38.2011 20.8255 37.9867 21.0368 37.8123C21.2481 37.6379 21.4917 37.5069 21.7535 37.427L34.6427 33.4736L61.2188 25.3247L74.108 21.3714C74.3066 21.3107 74.5131 21.2797 74.7208 21.2795C75.1665 21.2805 75.6001 21.4244 75.9582 21.6902C76.3163 21.956 76.5801 22.3296 76.7108 22.7565L82.1374 40.5131L82.2236 40.7915H82.5127L82.4279 40.5131Z" fill="#153E90"/>
<path d="M37.0487 38.793C36.7808 38.7928 36.5201 38.7066 36.3047 38.5471C36.0894 38.3876 35.9307 38.1631 35.852 37.9067L34.062 32.0502C34.0139 31.8929 33.9973 31.7276 34.0129 31.5639C34.0286 31.4001 34.0763 31.241 34.1534 31.0957C34.2304 30.9504 34.3353 30.8217 34.462 30.717C34.5887 30.6123 34.7348 30.5337 34.8918 30.4855L59.3415 22.9876C59.6587 22.8906 60.0013 22.9237 60.2942 23.0795C60.5871 23.2353 60.8062 23.5012 60.9036 23.8187L62.6936 29.6753C62.7903 29.993 62.7573 30.3362 62.6017 30.6295C62.4462 30.9228 62.1808 31.1424 61.8638 31.24L37.4141 38.738C37.2957 38.7744 37.1725 38.7929 37.0487 38.793Z" fill="#52B6C3"/>
<path d="M46.425 27.2578C47.9599 27.2578 49.2043 26.0113 49.2043 24.4737C49.2043 22.9362 47.9599 21.6897 46.425 21.6897C44.89 21.6897 43.6456 22.9362 43.6456 24.4737C43.6456 26.0113 44.89 27.2578 46.425 27.2578Z" fill="#52B6C3"/>
<path d="M46.425 26.2367C47.397 26.2367 48.185 25.4474 48.185 24.4738C48.185 23.5001 47.397 22.7108 46.425 22.7108C45.453 22.7108 44.6651 23.5001 44.6651 24.4738C44.6651 25.4474 45.453 26.2367 46.425 26.2367Z" fill="white"/>
<path d="M103.747 102.04H56.7757C56.4625 102.039 56.1623 101.915 55.9408 101.693C55.7194 101.471 55.5948 101.17 55.5945 100.857V44.4797C55.5948 44.166 55.7194 43.8653 55.9408 43.6435C56.1623 43.4216 56.4625 43.2969 56.7757 43.2965H103.747C104.06 43.2969 104.36 43.4216 104.581 43.6435C104.803 43.8653 104.927 44.166 104.928 44.4797V100.857C104.927 101.17 104.803 101.471 104.581 101.693C104.36 101.915 104.06 102.039 103.747 102.04Z" fill="#153E90"/>
<path d="M82.1368 40.5126H52.8843C52.258 40.5135 51.6576 40.7631 51.2148 41.2067C50.7719 41.6503 50.5227 42.2517 50.5218 42.879V99.6457L50.7998 99.5608V42.879C50.8004 42.3254 51.0203 41.7947 51.4111 41.4033C51.8018 41.0119 52.3316 40.7917 52.8843 40.791H82.223L82.1368 40.5126ZM107.637 40.5126H52.8843C52.258 40.5135 51.6576 40.7631 51.2148 41.2067C50.7719 41.6503 50.5227 42.2517 50.5218 42.879V106.634C50.5227 107.261 50.7719 107.862 51.2148 108.306C51.6576 108.75 52.258 108.999 52.8843 109H107.637C108.264 108.999 108.864 108.75 109.307 108.306C109.75 107.862 109.999 107.261 110 106.634V42.879C109.999 42.2517 109.75 41.6503 109.307 41.2067C108.864 40.7631 108.264 40.5135 107.637 40.5126ZM109.722 106.634C109.721 107.187 109.501 107.718 109.11 108.109C108.72 108.501 108.19 108.721 107.637 108.722H52.8843C52.3316 108.721 51.8018 108.501 51.4111 108.109C51.0203 107.718 50.8004 107.187 50.7998 106.634V42.879C50.8004 42.3254 51.0203 41.7947 51.4111 41.4033C51.8018 41.0119 52.3316 40.7917 52.8843 40.791H107.637C108.19 40.7917 108.72 41.0119 109.11 41.4033C109.501 41.7947 109.721 42.3254 109.722 42.879V106.634Z" fill="#153E90"/>
<path d="M93.0463 46.6374H67.4764C67.1448 46.637 66.8269 46.5049 66.5924 46.27C66.3579 46.0351 66.2261 45.7167 66.2257 45.3846V39.2597C66.2261 38.9275 66.3579 38.6091 66.5924 38.3742C66.8269 38.1393 67.1448 38.0072 67.4764 38.0068H93.0463C93.3779 38.0072 93.6958 38.1393 93.9303 38.3742C94.1647 38.6091 94.2966 38.9275 94.297 39.2597V45.3846C94.2966 45.7167 94.1647 46.0351 93.9303 46.27C93.6958 46.5049 93.3779 46.637 93.0463 46.6374Z" fill="#52B6C3"/>
<path d="M80.2611 38.4245C81.7961 38.4245 83.0405 37.1781 83.0405 35.6405C83.0405 34.1029 81.7961 32.8564 80.2611 32.8564C78.7261 32.8564 77.4818 34.1029 77.4818 35.6405C77.4818 37.1781 78.7261 38.4245 80.2611 38.4245Z" fill="#52B6C3"/>
<path d="M80.2608 37.3361C81.1957 37.3361 81.9536 36.5769 81.9536 35.6403C81.9536 34.7038 81.1957 33.9446 80.2608 33.9446C79.3258 33.9446 78.5679 34.7038 78.5679 35.6403C78.5679 36.5769 79.3258 37.3361 80.2608 37.3361Z" fill="white"/>
</g>
</g>
<defs>
<clipPath id="clip0">
<rect width="130" height="130" fill="white"/>
</clipPath>
<clipPath id="clip1">
<rect width="90" height="88" fill="white" transform="translate(20 21)"/>
</clipPath>
</defs>
</svg>
