<svg width="130" height="130" viewBox="0 0 130 130" fill="none" xmlns="http://www.w3.org/2000/svg">
<g clip-path="url(#clip0)">
<path d="M32.177 21.1333C32.177 21.1333 51.8179 36.1749 81.6771 8.04986C108.195 -16.9273 129.847 22.4811 129.999 41.3531C130.195 65.7996 103.481 85.3606 116.445 101.418C129.41 117.474 90.7351 143.99 69.8914 121.042C43.9627 92.497 36.9383 115.69 22.159 115.69C11.5518 115.69 -10.2259 89.0921 4.48031 69.3038C16.8554 52.6523 10.1063 47.126 6.83789 41.3531C2.12319 33.0273 13.3197 10.4288 32.177 21.1333Z" fill="#E2FCFF" fill-opacity="0.5"/>
<g clip-path="url(#clip1)">
<path d="M70.443 51.4321H48.9582C48.4879 51.4335 48.0234 51.3279 47.6001 51.1232C47.1768 50.9186 46.8059 50.6203 46.5156 50.2511C46.22 49.8784 46.0136 49.4434 45.9119 48.9791C45.8103 48.5148 45.8162 48.0335 45.9292 47.5718C47.9093 39.2974 47.9093 30.6741 45.9291 22.3997C45.8162 21.9381 45.8103 21.4568 45.912 20.9925C46.0136 20.5282 46.22 20.0932 46.5156 19.7205C46.8059 19.3513 47.1768 19.053 47.6001 18.8484C48.0233 18.6437 48.4878 18.5381 48.9582 18.5396H70.443C71.1848 18.5417 71.9017 18.8064 72.4662 19.2866C73.0306 19.7669 73.4058 20.4314 73.525 21.1618C74.939 30.3238 74.939 39.6478 73.525 48.8098C73.4058 49.5403 73.0306 50.2048 72.4662 50.685C71.9017 51.1652 71.1848 51.4299 70.443 51.4321Z" fill="white"/>
<path d="M48.9579 20.1524C48.732 20.1516 48.5089 20.2022 48.3056 20.3005C48.1023 20.3987 47.9241 20.5418 47.7846 20.7191C47.641 20.9007 47.5408 21.1126 47.4916 21.3387C47.4424 21.5647 47.4455 21.799 47.5007 22.0237C49.5401 30.5453 49.5402 39.4263 47.5009 47.9479C47.4456 48.1726 47.4424 48.4068 47.4916 48.6328C47.5407 48.8589 47.6409 49.0707 47.7846 49.2523L47.7847 49.2524C47.9241 49.4297 48.1023 49.5729 48.3056 49.6712C48.5089 49.7694 48.732 49.82 48.9579 49.8193H70.4427C70.7989 49.8194 71.1436 49.6934 71.4154 49.4637C71.6872 49.2339 71.8685 48.9154 71.9269 48.5648C73.3158 39.5652 73.3158 30.4065 71.9269 21.4068C71.8685 21.0562 71.6872 20.7377 71.4154 20.508C71.1436 20.2783 70.7989 20.1522 70.4427 20.1523L48.9579 20.1524Z" fill="#153E90"/>
<path d="M65.7547 27.9074H54.4804C54.0518 27.907 53.6409 27.7369 53.3379 27.4346C53.0348 27.1322 52.8644 26.7223 52.8639 26.2947V25.6645C52.8644 25.2369 53.0348 24.827 53.3379 24.5246C53.6409 24.2223 54.0518 24.0522 54.4804 24.0518H65.7547C66.1833 24.0522 66.5942 24.2223 66.8973 24.5246C67.2003 24.827 67.3708 25.2369 67.3713 25.6645V26.2947C67.3708 26.7223 67.2003 27.1322 66.8973 27.4346C66.5942 27.7369 66.1833 27.907 65.7547 27.9074Z" fill="white"/>
<path d="M65.7547 35.8708H54.4804C54.0518 35.8703 53.6409 35.7003 53.3379 35.3979C53.0348 35.0956 52.8644 34.6857 52.8639 34.2581V33.6279C52.8644 33.2003 53.0348 32.7903 53.3379 32.488C53.6409 32.1857 54.0518 32.0156 54.4804 32.0151H65.7547C66.1833 32.0156 66.5942 32.1857 66.8973 32.488C67.2003 32.7903 67.3708 33.2003 67.3713 33.6279V34.2581C67.3708 34.6857 67.2003 35.0956 66.8973 35.3979C66.5942 35.7003 66.1833 35.8703 65.7547 35.8708Z" fill="white"/>
<path d="M65.7547 43.8342H54.4804C54.0518 43.8337 53.6409 43.6637 53.3379 43.3613C53.0348 43.059 52.8644 42.649 52.8639 42.2215V41.5912C52.8644 41.1637 53.0348 40.7537 53.3379 40.4514C53.6409 40.149 54.0518 39.979 54.4804 39.9785H65.7547C66.1833 39.979 66.5942 40.149 66.8973 40.4514C67.2003 40.7537 67.3708 41.1637 67.3713 41.5912V42.2215C67.3708 42.649 67.2003 43.059 66.8973 43.3613C66.5942 43.6637 66.1833 43.8337 65.7547 43.8342Z" fill="white"/>
<path d="M110.857 71.8608H89.3726C88.9023 71.8622 88.4378 71.7566 88.0145 71.5519C87.5913 71.3473 87.2204 71.049 86.9301 70.6798C86.6345 70.3071 86.428 69.8721 86.3264 69.4078C86.2248 68.9435 86.2307 68.4622 86.3436 68.0005C88.3238 59.7261 88.3237 51.1028 86.3435 42.8284C86.2306 42.3668 86.2248 41.8855 86.3264 41.4212C86.428 40.957 86.6345 40.5219 86.93 40.1493C87.2203 39.78 87.5912 39.4818 88.0145 39.2771C88.4378 39.0725 88.9023 38.9668 89.3726 38.9683H110.857C111.599 38.9704 112.316 39.2351 112.881 39.7154C113.445 40.1956 113.82 40.8601 113.939 41.5905C115.353 50.7525 115.353 60.0765 113.939 69.2386C113.82 69.969 113.445 70.6335 112.881 71.1137C112.316 71.5939 111.599 71.8587 110.857 71.8608Z" fill="white"/>
<path d="M89.3729 40.5811C89.147 40.5803 88.9239 40.631 88.7206 40.7292C88.5173 40.8274 88.3392 40.9705 88.1997 41.1478C88.056 41.3294 87.9558 41.5413 87.9066 41.7674C87.8574 41.9934 87.8605 42.2277 87.9158 42.4524C89.9551 50.9741 89.9552 59.855 87.9159 68.3766C87.8606 68.6013 87.8575 68.8355 87.9066 69.0615C87.9558 69.2876 88.056 69.4994 88.1996 69.681L88.1997 69.6811C88.3392 69.8584 88.5173 70.0016 88.7206 70.0999C88.9239 70.1981 89.147 70.2488 89.3729 70.248H110.858C111.214 70.2481 111.559 70.1221 111.83 69.8924C112.102 69.6626 112.284 69.3441 112.342 68.9935C113.731 59.9939 113.731 50.8352 112.342 41.8355C112.284 41.485 112.102 41.1664 111.83 40.9367C111.559 40.707 111.214 40.5809 110.858 40.5811L89.3729 40.5811Z" fill="#153E90"/>
<path d="M68.0179 95.1117H46.5331C46.0424 95.1132 45.5578 95.003 45.1162 94.7895C44.6746 94.576 44.2876 94.2648 43.9848 93.8796C43.6765 93.491 43.4612 93.0373 43.3552 92.5532C43.2492 92.069 43.2554 91.5671 43.3731 91.0857C45.3483 82.8319 45.3483 74.2302 43.373 65.9764C43.2553 65.495 43.2492 64.9931 43.3552 64.509C43.4612 64.0249 43.6765 63.5712 43.9847 63.1826C44.2876 62.7974 44.6745 62.4862 45.1161 62.2727C45.5578 62.0592 46.0424 61.949 46.5331 61.9505H68.0179C68.7918 61.9528 69.5398 62.2291 70.1286 62.7301C70.7174 63.2312 71.1088 63.9245 71.233 64.6866C72.6491 73.8622 72.6491 83.2 71.233 92.3756C71.1088 93.1377 70.7174 93.831 70.1286 94.3321C69.5398 94.8331 68.7918 95.1094 68.0179 95.1117Z" fill="#153E90"/>
<path d="M106.169 52.3681H94.8948C94.4663 52.3677 94.0554 52.1976 93.7523 51.8953C93.4493 51.5929 93.2788 51.183 93.2783 50.7554V50.1252C93.2788 49.6976 93.4493 49.2877 93.7523 48.9853C94.0554 48.683 94.4663 48.5129 94.8948 48.5125H106.169C106.598 48.5129 107.009 48.683 107.312 48.9853C107.615 49.2877 107.785 49.6976 107.786 50.1252V50.7554C107.785 51.183 107.615 51.5929 107.312 51.8953C107.009 52.1976 106.598 52.3677 106.169 52.3681Z" fill="white"/>
<path d="M106.169 60.3313H94.8948C94.4663 60.3308 94.0554 60.1607 93.7523 59.8584C93.4493 59.556 93.2788 59.1461 93.2783 58.7185V58.0883C93.2788 57.6607 93.4493 57.2508 93.7523 56.9485C94.0554 56.6461 94.4663 56.4761 94.8948 56.4756H106.169C106.598 56.4761 107.009 56.6461 107.312 56.9485C107.615 57.2508 107.785 57.6607 107.786 58.0883V58.7185C107.785 59.1461 107.615 59.556 107.312 59.8584C107.009 60.1607 106.598 60.3308 106.169 60.3313Z" fill="white"/>
<path d="M57.3358 84.6025C60.7583 84.6025 63.5327 81.8345 63.5327 78.4201C63.5327 75.0057 60.7583 72.2378 57.3358 72.2378C53.9134 72.2378 51.1389 75.0057 51.1389 78.4201C51.1389 81.8345 53.9134 84.6025 57.3358 84.6025Z" fill="white"/>
<path d="M60.2993 77.6138H58.1439V75.4634C58.1439 75.2495 58.0587 75.0444 57.9071 74.8932C57.7555 74.7419 57.5499 74.657 57.3356 74.657C57.1212 74.657 56.9156 74.7419 56.764 74.8932C56.6124 75.0444 56.5273 75.2495 56.5273 75.4634V77.6138H54.3718C54.1575 77.6138 53.9519 77.6987 53.8003 77.8499C53.6487 78.0012 53.5635 78.2063 53.5635 78.4201C53.5635 78.634 53.6487 78.8391 53.8003 78.9904C53.9519 79.1416 54.1575 79.2265 54.3718 79.2265H56.5273V81.3769C56.5273 81.5908 56.6124 81.7959 56.764 81.9471C56.9156 82.0984 57.1212 82.1833 57.3356 82.1833C57.5499 82.1833 57.7555 82.0984 57.9071 81.9471C58.0587 81.7959 58.1439 81.5908 58.1439 81.3769V79.2265H60.2993C60.5137 79.2265 60.7193 79.1416 60.8708 78.9904C61.0224 78.8391 61.1076 78.634 61.1076 78.4201C61.1076 78.2063 61.0224 78.0012 60.8708 77.8499C60.7193 77.6987 60.5137 77.6138 60.2993 77.6138Z" fill="#52B6C3"/>
<path d="M65.1495 21.5696H53.8335C53.512 21.5692 53.2038 21.4416 52.9766 21.2149C52.7493 20.9881 52.6214 20.6807 52.621 20.36V18.2096C52.6214 17.8889 52.7493 17.5814 52.9766 17.3547C53.2038 17.1279 53.512 17.0004 53.8335 17H65.1495C65.471 17.0004 65.7792 17.1279 66.0065 17.3547C66.2338 17.5814 66.3616 17.8889 66.362 18.2096V20.36C66.3616 20.6807 66.2338 20.9881 66.0065 21.2149C65.7792 21.4416 65.471 21.5692 65.1495 21.5696Z" fill="#52B6C3"/>
<path d="M106.103 42.2671H94.7867C94.4653 42.2667 94.1571 42.1391 93.9298 41.9124C93.7025 41.6856 93.5746 41.3782 93.5743 41.0575V38.9071C93.5746 38.5864 93.7025 38.279 93.9298 38.0522C94.1571 37.8254 94.4653 37.6979 94.7867 37.6975H106.103C106.424 37.6979 106.732 37.8254 106.96 38.0522C107.187 38.279 107.315 38.5864 107.315 38.9071V41.0575C107.315 41.3782 107.187 41.6856 106.96 41.9124C106.732 42.1391 106.424 42.2667 106.103 42.2671Z" fill="#52B6C3"/>
<path d="M37.1998 112.687L17.3593 104.463C16.9244 104.284 16.5361 104.009 16.224 103.658C15.9118 103.307 15.684 102.89 15.5579 102.438C15.4282 101.98 15.4049 101.5 15.4896 101.032C15.5743 100.564 15.7649 100.122 16.0468 99.7389C21.0576 92.8558 24.374 84.8925 25.7275 76.4934C25.8008 76.0238 25.9805 75.5772 26.2529 75.1873C26.5253 74.7975 26.8833 74.4748 27.2995 74.2438C27.7096 74.0139 28.1668 73.8804 28.6364 73.8535C29.106 73.8265 29.5756 73.9068 30.0094 74.0882L49.8498 82.3122C50.534 82.5981 51.0943 83.117 51.4308 83.7765C51.7673 84.436 51.8583 85.1933 51.6875 85.9134C49.4696 94.9155 45.8837 103.526 41.0544 111.445C40.6634 112.074 40.0613 112.544 39.3554 112.772C38.6495 112.999 37.8856 112.969 37.1998 112.687Z" fill="white"/>
<path d="M29.3893 75.5775C29.181 75.4903 28.9556 75.4517 28.73 75.4646C28.5045 75.4774 28.2849 75.5415 28.0879 75.6518C27.8855 75.7645 27.7114 75.9218 27.579 76.1117C27.4467 76.3017 27.3594 76.5192 27.324 76.7478C25.93 85.3979 22.5146 93.5991 17.354 100.688C17.2166 100.874 17.1236 101.089 17.082 101.317C17.0405 101.544 17.0515 101.778 17.1143 102.001L17.1144 102.001C17.175 102.218 17.2845 102.419 17.4344 102.587C17.5844 102.756 17.7709 102.888 17.9798 102.974L37.8202 111.198C38.1492 111.334 38.516 111.35 38.8553 111.242C39.1947 111.134 39.4846 110.909 39.6733 110.607C44.417 102.828 47.9394 94.3706 50.118 85.5281C50.1988 85.182 50.154 84.8184 49.9913 84.5022C49.8287 84.1861 49.5588 83.9377 49.2298 83.8015L29.3893 75.5775Z" fill="#153E90"/>
<path d="M39.9541 93.8846L29.5427 89.569C29.1471 89.4045 28.833 89.0901 28.6695 88.6949C28.5059 88.2997 28.5061 87.8559 28.6701 87.4609L28.9125 86.8789C29.0774 86.4842 29.3924 86.1709 29.7886 86.0077C30.1847 85.8445 30.6296 85.8448 31.0255 86.0084L41.437 90.324C41.8326 90.4885 42.1466 90.8028 42.3102 91.198C42.4738 91.5932 42.4735 92.037 42.3095 92.4321L42.0672 93.0141C41.9023 93.4087 41.5872 93.722 41.1911 93.8852C40.7949 94.0484 40.3501 94.0482 39.9541 93.8846Z" fill="white"/>
<path d="M36.8914 101.238L26.48 96.9227C26.0844 96.7582 25.7703 96.4439 25.6068 96.0487C25.4432 95.6535 25.4434 95.2097 25.6074 94.8147L25.8498 94.2327C26.0147 93.838 26.3298 93.5247 26.7259 93.3615C27.122 93.1983 27.5669 93.1985 27.9628 93.3621L38.3743 97.6778C38.7699 97.8422 39.0839 98.1566 39.2475 98.5518C39.4111 98.947 39.4109 99.3908 39.2469 99.7858L39.0045 100.368C38.8396 100.763 38.5245 101.076 38.1284 101.239C37.7323 101.402 37.2874 101.402 36.8914 101.238Z" fill="white"/>
<path d="M44.1251 83.5495C43.9693 83.5494 43.8149 83.5192 43.6705 83.4606L33.1794 79.229C32.8816 79.1085 32.6438 78.875 32.5183 78.5798C32.3927 78.2846 32.3897 77.9518 32.5098 77.6543L33.3178 75.6606C33.4383 75.3633 33.6724 75.1258 33.9684 75.0006C34.2644 74.8753 34.5982 74.8725 34.8963 74.9927L45.3874 79.2243C45.6852 79.3448 45.923 79.5783 46.0485 79.8735C46.1741 80.1687 46.1771 80.5016 46.057 80.799L45.249 82.7927C45.1583 83.016 45.0029 83.2072 44.8027 83.342C44.6025 83.4768 44.3666 83.549 44.1251 83.5495Z" fill="#52B6C3"/>
</g>
</g>
<defs>
<clipPath id="clip0">
<rect width="130" height="130" fill="white"/>
</clipPath>
<clipPath id="clip1">
<rect width="100" height="95.6044" fill="white" transform="translate(15 17)"/>
</clipPath>
</defs>
</svg>
