<svg width="130" height="130" viewBox="0 0 130 130" fill="none" xmlns="http://www.w3.org/2000/svg">
<g clip-path="url(#clip0)">
<path d="M32.177 21.1333C32.177 21.1333 51.8179 36.1749 81.6772 8.04986C108.195 -16.9273 129.847 22.4811 129.999 41.3531C130.195 65.7996 103.481 85.3606 116.445 101.418C129.41 117.474 90.7351 143.99 69.8915 121.042C43.9627 92.497 36.9383 115.69 22.1591 115.69C11.5518 115.69 -10.2259 89.0921 4.48033 69.3038C16.8555 52.6523 10.1063 47.126 6.8379 41.3531C2.1232 33.0273 13.3197 10.4288 32.177 21.1333Z" fill="#E2FCFF" fill-opacity="0.5"/>
<path opacity="0.8" d="M16.6983 94.1994C17.1585 93.9384 22.3524 91.7604 48.191 103.692C48.1157 103.794 48.0837 103.842 48.0837 103.842C48.0837 103.842 21.222 112.802 15.9589 101.763C14.3873 98.4772 14.8376 96.2142 16.6535 94.2249L16.6983 94.1994Z" fill="#153E90"/>
<path opacity="0.8" d="M103.544 98.7145C97.9303 103.389 89.1268 106.782 80.6322 102.27C81.9746 101.421 83.361 100.546 84.7751 99.6403C93.3058 94.211 100.82 97.8438 103.544 98.7145Z" fill="#153E90"/>
<path d="M113.6 41.2212C119.335 88.5275 105.705 97.113 104.188 98.4171C103.748 98.7947 103.57 98.7672 102.906 98.5978L102.895 98.6042C100.084 97.866 93.3062 94.2108 84.7752 99.6395C83.3612 100.545 81.9743 101.42 80.6324 102.269C71.9298 107.737 64.9022 111.589 59.8391 109.353C55.5446 107.183 51.6725 105.305 48.1914 103.692C22.3528 91.7601 17.1589 93.9381 16.6987 94.1991C17.2327 93.9111 22.1309 91.2216 28.7263 86.4921C28.7488 86.4793 28.7712 86.4667 28.776 86.4492C37.5917 80.1209 49.3977 70.1482 57.8839 57.3195C63.6609 48.5961 69.3125 26.481 80.217 22.1418C102.628 13.8607 112.669 31.5988 113.6 41.2212Z" fill="#153E90"/>
<path d="M88.8192 40.3913C89.5149 38.5717 89.4471 36.8597 88.6678 36.5674C87.8885 36.2751 86.6928 37.5131 85.9971 39.3327C85.3015 41.1522 85.3693 42.8642 86.1486 43.1565C86.9279 43.4488 88.1236 42.2108 88.8192 40.3913Z" fill="white"/>
<path d="M103.088 42.7127C103.581 40.8293 103.327 39.1346 102.521 38.9274C101.714 38.7202 100.66 40.0791 100.167 41.9624C99.6743 43.8458 99.9285 45.5405 100.735 45.7477C101.542 45.9549 102.595 44.5961 103.088 42.7127Z" fill="white"/>
<path d="M94.4026 49.6279C94.2857 49.6278 94.1724 49.5881 94.0814 49.5154C93.9905 49.4427 93.9273 49.3414 93.9025 49.2282C93.8112 48.8186 93.4048 47.6065 92.7605 47.4263C92.1162 47.2462 90.8522 47.9456 90.3409 48.3125C90.2309 48.3915 90.0937 48.4239 89.9595 48.4026C89.8253 48.3813 89.7051 48.3082 89.6254 48.1991C89.5457 48.0901 89.513 47.9542 89.5344 47.8213C89.5559 47.6884 89.6298 47.5693 89.7399 47.4904C89.9414 47.3459 91.7463 46.0882 93.0387 46.4494C94.3867 46.8262 94.8548 48.7896 94.9036 49.0123C94.9199 49.0865 94.9192 49.1633 94.9016 49.2371C94.884 49.3109 94.8499 49.3799 94.8018 49.439C94.7538 49.4981 94.6929 49.5457 94.6238 49.5784C94.5547 49.6111 94.479 49.628 94.4024 49.6279H94.4026Z" fill="white"/>
</g>
<defs>
<clipPath id="clip0">
<rect width="130" height="130" fill="white"/>
</clipPath>
</defs>
</svg>
