<svg width="130" height="130" viewBox="0 0 130 130" fill="none" xmlns="http://www.w3.org/2000/svg">
<g clip-path="url(#clip0)">
<path d="M32.177 21.1333C32.177 21.1333 51.8179 36.1749 81.6771 8.04986C108.195 -16.9273 129.847 22.4811 129.999 41.3531C130.195 65.7996 103.481 85.3606 116.445 101.418C129.41 117.474 90.7351 143.99 69.8914 121.042C43.9627 92.497 36.9383 115.69 22.159 115.69C11.5518 115.69 -10.2259 89.0921 4.48031 69.3038C16.8554 52.6523 10.1063 47.126 6.83789 41.3531C2.12319 33.0273 13.3197 10.4288 32.177 21.1333Z" fill="#E2FCFF" fill-opacity="0.5"/>
<g clip-path="url(#clip1)">
<path d="M110.682 97.5025H35.4143C34.2694 97.5012 33.1718 97.0462 32.3622 96.2373C31.5526 95.4284 31.0972 94.3317 31.0959 93.1877V53.0474C31.0972 51.9035 31.5526 50.8068 32.3622 49.9979C33.1718 49.189 34.2694 48.734 35.4143 48.7327H110.682C111.827 48.734 112.924 49.189 113.734 49.9979C114.543 50.8068 114.999 51.9035 115 53.0474V93.1877C114.999 94.3317 114.543 95.4284 113.734 96.2373C112.924 97.0462 111.827 97.5012 110.682 97.5025Z" fill="white"/>
<path d="M110.682 97.5025H35.4143C34.2694 97.5012 33.1718 97.0462 32.3622 96.2373C31.5526 95.4284 31.0972 94.3317 31.0959 93.1877V53.0474C31.0972 51.9035 31.5526 50.8068 32.3622 49.9979C33.1718 49.189 34.2694 48.734 35.4143 48.7327H110.682C111.827 48.734 112.924 49.189 113.734 49.9979C114.543 50.8068 114.999 51.9035 115 53.0474V93.1877C114.999 94.3317 114.543 95.4284 113.734 96.2373C112.924 97.0462 111.827 97.5012 110.682 97.5025ZM35.4143 48.9942C34.3388 48.9954 33.3077 49.4228 32.5472 50.1827C31.7867 50.9426 31.3589 51.9728 31.3577 53.0474V93.1877C31.3589 94.2624 31.7867 95.2926 32.5472 96.0525C33.3077 96.8123 34.3388 97.2398 35.4143 97.241H110.682C111.757 97.2398 112.788 96.8123 113.549 96.0525C114.309 95.2926 114.737 94.2624 114.738 93.1877V53.0474C114.737 51.9728 114.309 50.9426 113.549 50.1827C112.788 49.4228 111.757 48.9954 110.682 48.9942H35.4143Z" fill="#F7F7F7"/>
<path d="M110.682 94.3647H35.4143C35.102 94.3643 34.8026 94.2402 34.5819 94.0196C34.3611 93.799 34.2369 93.4999 34.2365 93.1879V53.0476C34.2369 52.7356 34.3611 52.4365 34.5819 52.2159C34.8026 51.9953 35.102 51.8712 35.4143 51.8708H110.682C110.994 51.8712 111.293 51.9953 111.514 52.2159C111.735 52.4365 111.859 52.7356 111.859 53.0476V93.1879C111.859 93.4999 111.735 93.799 111.514 94.0196C111.293 94.2402 110.994 94.3643 110.682 94.3647ZM35.4143 52.1324C35.1714 52.1326 34.9386 52.2291 34.7668 52.4007C34.5951 52.5723 34.4985 52.8049 34.4982 53.0476V93.1879C34.4985 93.4306 34.5951 93.6632 34.7668 93.8348C34.9386 94.0064 35.1714 94.1029 35.4143 94.1032H110.682C110.924 94.1029 111.157 94.0064 111.329 93.8348C111.501 93.6632 111.597 93.4306 111.598 93.1879V53.0476C111.597 52.8049 111.501 52.5723 111.329 52.4007C111.157 52.2291 110.924 52.1326 110.682 52.1324H35.4143Z" fill="#F7F7F7"/>
<path d="M91.5251 94.5557L18.7704 75.2861C17.6641 74.9917 16.7198 74.2709 16.1447 73.2818C15.5695 72.2926 15.4106 71.1159 15.7027 70.0098L25.9966 31.2096C26.2912 30.1041 27.0127 29.1606 28.0027 28.586C28.9927 28.0114 30.1703 27.8526 31.2774 28.1444L104.032 47.4141C105.138 47.7084 106.083 48.4293 106.658 49.4184C107.233 50.4076 107.392 51.5843 107.1 52.6904L96.8058 91.4906C96.5112 92.596 95.7897 93.5396 94.7998 94.1142C93.8098 94.6888 92.6321 94.8476 91.5251 94.5557Z" fill="#F7F7F7"/>
<path d="M91.5251 94.5557L18.7704 75.2861C17.6641 74.9917 16.7198 74.2709 16.1447 73.2818C15.5695 72.2926 15.4106 71.1159 15.7027 70.0098L25.9966 31.2096C26.2912 30.1041 27.0127 29.1606 28.0027 28.586C28.9927 28.0114 30.1703 27.8526 31.2774 28.1444L104.032 47.4141C105.138 47.7084 106.083 48.4293 106.658 49.4184C107.233 50.4076 107.392 51.5843 107.1 52.6904L96.8058 91.4906C96.5112 92.596 95.7897 93.5396 94.7998 94.1142C93.8098 94.6888 92.6321 94.8476 91.5251 94.5557ZM31.2103 28.3972C30.1704 28.123 29.0641 28.2722 28.1341 28.812C27.2041 29.3518 26.5264 30.2381 26.2496 31.2766L15.9557 70.0768C15.6813 71.1159 15.8306 72.2213 16.3709 73.1505C16.9111 74.0797 17.7982 74.7568 18.8375 75.0333L91.5921 94.303C92.632 94.5771 93.7384 94.428 94.6684 93.8882C95.5983 93.3484 96.2761 92.462 96.5528 91.4236L106.847 52.6234C107.121 51.5843 106.972 50.4789 106.432 49.5497C105.891 48.6205 105.004 47.9434 103.965 47.6669L31.2103 28.3972Z" fill="#E8E7E7"/>
<path d="M92.3301 91.5227L19.5754 72.2531C19.2737 72.1728 19.0162 71.9762 18.8593 71.7064C18.7025 71.4367 18.6591 71.1158 18.7388 70.8141L29.0327 32.0139C29.113 31.7124 29.3098 31.4551 29.5798 31.2983C29.8498 31.1416 30.171 31.0983 30.4729 31.1779L103.228 50.4476C103.529 50.5278 103.787 50.7244 103.944 50.9942C104.1 51.264 104.144 51.5849 104.064 51.8865L93.7703 90.6868C93.6899 90.9883 93.4931 91.2456 93.2232 91.4023C92.9532 91.559 92.632 91.6023 92.3301 91.5227ZM30.4058 31.4307C30.171 31.3688 29.9212 31.4024 29.7112 31.5243C29.5012 31.6462 29.3482 31.8464 29.2857 32.0809L18.9918 70.8811C18.9298 71.1157 18.9635 71.3653 19.0855 71.5752C19.2075 71.785 19.4078 71.9379 19.6425 72.0003L92.3971 91.27C92.632 91.3319 92.8818 91.2982 93.0918 91.1763C93.3018 91.0544 93.4548 90.8543 93.5173 90.6198L103.811 51.8195C103.873 51.5849 103.839 51.3353 103.717 51.1255C103.595 50.9157 103.395 50.7628 103.16 50.7003L30.4058 31.4307Z" fill="white"/>
<path d="M94.5858 102.863H19.3184C18.1735 102.862 17.0758 102.407 16.2663 101.598C15.4567 100.789 15.0013 99.6925 15 98.5486V58.4083C15.0013 57.2643 15.4567 56.1676 16.2663 55.3587C17.0758 54.5498 18.1735 54.0948 19.3184 54.0935H94.5858C95.7307 54.0948 96.8283 54.5498 97.6379 55.3587C98.4475 56.1676 98.9029 57.2643 98.9042 58.4083V98.5486C98.9029 99.6925 98.4475 100.789 97.6379 101.598C96.8283 102.407 95.7307 102.862 94.5858 102.863Z" fill="white"/>
<path d="M74.1364 99.4638H25.5309C25.4701 99.4641 25.4093 99.4625 25.3493 99.4592L48.3375 86.5236C48.7752 86.2722 49.7572 86.1837 50.5309 86.3259C50.7431 86.3585 50.9485 86.4253 51.1393 86.5236L66.5672 95.2044L67.3063 95.6197L74.1364 99.4638Z" fill="#E8E7E7"/>
<path d="M89.4712 99.4639H47.4315L55.5779 95.6198L56.1642 95.3428L66.7798 90.3332C67.4757 90.0049 69.15 89.9845 69.9682 90.2713C70.0232 90.2909 70.0741 90.3115 70.1211 90.3332L89.4712 99.4639Z" fill="#E8E7E7"/>
<path d="M19.3186 54.355C18.2431 54.3562 17.212 54.7836 16.4515 55.5435C15.691 56.3034 15.2632 57.3336 15.262 58.4082V98.5485C15.2632 99.6232 15.691 100.653 16.4515 101.413C17.212 102.173 18.2431 102.601 19.3186 102.602H94.586C95.6615 102.601 96.6926 102.173 97.4532 101.413C98.2137 100.653 98.6415 99.6232 98.6427 98.5485V58.4082C98.6415 57.3336 98.2137 56.3034 97.4532 55.5435C96.6926 54.7836 95.6615 54.3562 94.586 54.355H19.3186Z" fill="#52B6C3"/>
<path d="M94.5857 99.7253H19.3184C19.0061 99.7249 18.7068 99.6008 18.486 99.3802C18.2652 99.1596 18.141 98.8605 18.1406 98.5485V58.4082C18.141 58.0962 18.2652 57.7971 18.486 57.5765C18.7068 57.3559 19.0061 57.2318 19.3184 57.2314H94.5857C94.898 57.2318 95.1973 57.3559 95.4181 57.5765C95.6389 57.7971 95.7631 58.0962 95.7635 58.4082V98.5485C95.7631 98.8605 95.6389 99.1596 95.4181 99.3802C95.1973 99.6008 94.898 99.7249 94.5857 99.7253ZM19.3184 57.4929C19.0755 57.4932 18.8427 57.5897 18.6709 57.7613C18.4992 57.9329 18.4026 58.1655 18.4023 58.4082V98.5485C18.4026 98.7912 18.4992 99.0238 18.6709 99.1954C18.8427 99.367 19.0755 99.4635 19.3184 99.4638H94.5857C94.8286 99.4635 95.0614 99.367 95.2332 99.1954C95.4049 99.0238 95.5015 98.7912 95.5018 98.5485V58.4082C95.5015 58.1655 95.4049 57.9329 95.2332 57.7613C95.0614 57.5897 94.8286 57.4932 94.5857 57.4929H19.3184Z" fill="#BCBCBC"/>
<path d="M77.8151 64.5788C82.289 64.5788 85.9158 60.9551 85.9158 56.485C85.9158 52.0148 82.289 48.3911 77.8151 48.3911C73.3413 48.3911 69.7145 52.0148 69.7145 56.485C69.7145 60.9551 73.3413 64.5788 77.8151 64.5788Z" fill="#52B6C3"/>
<path d="M81.2016 85.9532C86.868 85.9532 91.4615 80.2084 91.4615 73.1217C91.4615 66.0351 86.868 60.2903 81.2016 60.2903C75.5353 60.2903 70.9418 66.0351 70.9418 73.1217C70.9418 80.2084 75.5353 85.9532 81.2016 85.9532Z" fill="#F7F7F7"/>
<path d="M81.2303 70.5415H81.2584L81.7658 99.6053H80.6947L81.2303 70.5415Z" fill="#BCBCBC"/>
<path d="M82.9798 89.7828C83.0112 89.8423 83.0176 89.9118 82.9976 89.976C82.9777 90.0402 82.933 90.0939 82.8735 90.1252L81.402 90.8993L81.1656 90.4507L82.6372 89.6766C82.6967 89.6453 82.7662 89.6389 82.8305 89.6588C82.8948 89.6788 82.9485 89.7234 82.9798 89.7828Z" fill="#BCBCBC"/>
<path d="M51.7051 85.9532C57.3715 85.9532 61.965 80.2084 61.965 73.1217C61.965 66.0351 57.3715 60.2903 51.7051 60.2903C46.0388 60.2903 41.4453 66.0351 41.4453 73.1217C41.4453 80.2084 46.0388 85.9532 51.7051 85.9532Z" fill="#F7F7F7"/>
<path d="M53.4834 90.2632V90.2632C53.452 90.2037 53.3983 90.1591 53.334 90.1392C53.2698 90.1193 53.2002 90.1257 53.1407 90.157L52.1134 90.6974L51.7615 70.5415H51.7334L51.1979 99.6054H52.2689L52.1233 91.2651L53.3771 90.6056C53.4366 90.5743 53.4812 90.5206 53.5011 90.4564C53.5211 90.3922 53.5147 90.3227 53.4834 90.2632Z" fill="#BCBCBC"/>
<path d="M66.4176 43.551C73.5975 43.551 79.4333 57.0683 79.4333 66.0478C79.4333 75.0273 73.6129 82.3066 66.433 82.3066C59.2531 82.3066 53.4326 75.0273 53.4326 66.0478C53.4326 57.0683 59.2377 43.551 66.4176 43.551Z" fill="#153E90"/>
<path d="M68.6862 87.637C68.6666 87.5997 68.6398 87.5666 68.6073 87.5396C68.5748 87.5127 68.5374 87.4924 68.4971 87.4799C68.4568 87.4674 68.4144 87.4629 68.3723 87.4668C68.3303 87.4707 68.2895 87.4828 68.2521 87.5024L66.9504 88.1872L66.5046 62.6475H66.4689L65.7903 99.4745H67.1475L66.963 88.9065L68.5516 88.0708C68.589 88.0511 68.6221 88.0243 68.6491 87.9919C68.676 87.9595 68.6964 87.922 68.7089 87.8818C68.7214 87.8415 68.7258 87.7991 68.7219 87.7571C68.718 87.7151 68.7059 87.6743 68.6862 87.637Z" fill="#52B6C3"/>
<path d="M94.8477 102.602H19.5804C18.4354 102.601 17.3378 102.146 16.5282 101.337C15.7186 100.528 15.2633 99.4311 15.262 98.2871V58.1468C15.2633 57.0028 15.7186 55.9061 16.5282 55.0972C17.3378 54.2883 18.4354 53.8333 19.5804 53.832H94.8477C95.9926 53.8333 97.0903 54.2883 97.8999 55.0972C98.7094 55.9061 99.1648 57.0028 99.1661 58.1468V98.2871C99.1648 99.4311 98.7094 100.528 97.8999 101.337C97.0903 102.146 95.9926 102.601 94.8477 102.602Z" fill="white"/>
<path d="M74.3979 99.2024H25.7924C25.7315 99.2026 25.6707 99.201 25.6108 99.1977L48.5989 86.2621C49.0367 86.0107 50.0187 85.9223 50.7924 86.0645C51.0046 86.0971 51.21 86.1638 51.4008 86.2621L66.8287 94.9429L67.5678 95.3583L74.3979 99.2024Z" fill="#E8E7E7"/>
<path d="M89.7327 99.2024H47.6929L55.8394 95.3583L56.4257 95.0814L67.0413 90.0718C67.7372 89.7434 69.4115 89.723 70.2297 90.0098C70.2847 90.0294 70.3356 90.0501 70.3826 90.0718L89.7327 99.2024Z" fill="#E8E7E7"/>
<path d="M94.8477 102.602H19.5804C18.4354 102.601 17.3378 102.146 16.5282 101.337C15.7186 100.528 15.2633 99.4311 15.262 98.2871V58.1468C15.2633 57.0028 15.7186 55.9061 16.5282 55.0972C17.3378 54.2883 18.4354 53.8333 19.5804 53.832H94.8477C95.9926 53.8333 97.0903 54.2883 97.8999 55.0972C98.7094 55.9061 99.1648 57.0028 99.1661 58.1468V98.2871C99.1648 99.4311 98.7094 100.528 97.8999 101.337C97.0903 102.146 95.9926 102.601 94.8477 102.602ZM19.5804 54.0935C18.5048 54.0948 17.4737 54.5222 16.7132 55.2821C15.9527 56.0419 15.5249 57.0722 15.5237 58.1468V98.2871C15.5249 99.3617 15.9527 100.392 16.7132 101.152C17.4737 101.912 18.5048 102.339 19.5804 102.34H94.8477C95.9232 102.339 96.9544 101.912 97.7149 101.152C98.4754 100.392 98.9032 99.3617 98.9044 98.2871V58.1468C98.9032 57.0722 98.4754 56.0419 97.7149 55.2821C96.9544 54.5222 95.9232 54.0948 94.8477 54.0935H19.5804Z" fill="#52B6C3"/>
<path d="M94.8472 99.4638H19.5798C19.2676 99.4634 18.9682 99.3393 18.7474 99.1187C18.5267 98.8981 18.4025 98.599 18.4021 98.287V58.1467C18.4025 57.8347 18.5267 57.5356 18.7474 57.315C18.9682 57.0944 19.2676 56.9703 19.5798 56.97H94.8472C95.1595 56.9703 95.4588 57.0944 95.6796 57.315C95.9004 57.5356 96.0246 57.8347 96.025 58.1467V98.287C96.0246 98.599 95.9004 98.8981 95.6796 99.1187C95.4588 99.3393 95.1595 99.4634 94.8472 99.4638ZM19.5798 57.2315C19.337 57.2317 19.1041 57.3283 18.9324 57.4998C18.7607 57.6714 18.6641 57.9041 18.6638 58.1467V98.287C18.6641 98.5297 18.7607 98.7623 18.9324 98.9339C19.1041 99.1055 19.337 99.202 19.5798 99.2023H94.8472C95.0901 99.202 95.3229 99.1055 95.4946 98.9339C95.6664 98.7623 95.763 98.5297 95.7632 98.287V58.1467C95.763 57.9041 95.6664 57.6714 95.4946 57.4998C95.3229 57.3283 95.0901 57.2317 94.8472 57.2315H19.5798Z" fill="#BCBCBC"/>
<path d="M78.0771 64.3173C82.551 64.3173 86.1778 60.6936 86.1778 56.2235C86.1778 51.7534 82.551 48.1296 78.0771 48.1296C73.6032 48.1296 69.9764 51.7534 69.9764 56.2235C69.9764 60.6936 73.6032 64.3173 78.0771 64.3173Z" fill="#52B6C3"/>
<path d="M81.4636 85.6917C87.13 85.6917 91.7235 79.9469 91.7235 72.8603C91.7235 65.7736 87.13 60.0288 81.4636 60.0288C75.7972 60.0288 71.2037 65.7736 71.2037 72.8603C71.2037 79.9469 75.7972 85.6917 81.4636 85.6917Z" fill="#F7F7F7"/>
<path d="M81.4918 70.28H81.5199L82.0273 99.3438H80.9562L81.4918 70.28Z" fill="#BCBCBC"/>
<path d="M83.2413 89.5211C83.2726 89.5806 83.279 89.6501 83.2591 89.7143C83.2392 89.7785 83.1945 89.8322 83.135 89.8635L81.6635 90.6376L81.4271 90.189L82.8986 89.4149C82.9582 89.3836 83.0277 89.3772 83.092 89.3971C83.1562 89.417 83.2099 89.4616 83.2413 89.5211Z" fill="#BCBCBC"/>
<path d="M51.9666 85.6917C57.633 85.6917 62.2265 79.9469 62.2265 72.8603C62.2265 65.7736 57.633 60.0288 51.9666 60.0288C46.3002 60.0288 41.7067 65.7736 41.7067 72.8603C41.7067 79.9469 46.3002 85.6917 51.9666 85.6917Z" fill="#F7F7F7"/>
<path d="M53.7448 90.0018V90.0017C53.7135 89.9423 53.6598 89.8977 53.5955 89.8777C53.5312 89.8578 53.4617 89.8642 53.4022 89.8955L52.3749 90.4359L52.023 70.28H51.9948L51.4594 99.3439H52.5304L52.3848 91.0036L53.6386 90.3441C53.6981 90.3128 53.7427 90.2591 53.7626 90.1949C53.7826 90.1307 53.7762 90.0612 53.7448 90.0018Z" fill="#BCBCBC"/>
<path d="M66.6795 43.2896C73.8594 43.2896 79.6952 56.8068 79.6952 65.7863C79.6952 74.7658 73.8748 82.0452 66.6949 82.0452C59.515 82.0452 53.6945 74.7658 53.6945 65.7863C53.6945 56.8068 59.4996 43.2896 66.6795 43.2896Z" fill="#153E90"/>
<path d="M68.9478 87.3755C68.9281 87.3382 68.9013 87.3051 68.8688 87.2782C68.8364 87.2512 68.7989 87.2309 68.7586 87.2184C68.7183 87.2059 68.6759 87.2015 68.6339 87.2053C68.5919 87.2092 68.551 87.2213 68.5137 87.241L67.2119 87.9257L66.7662 62.386H66.7305L66.0519 99.2131H67.409L67.2245 88.645L68.8131 87.8093C68.8505 87.7897 68.8836 87.7629 68.9106 87.7304C68.9376 87.698 68.9579 87.6606 68.9704 87.6203C68.9829 87.58 68.9873 87.5377 68.9835 87.4957C68.9796 87.4537 68.9675 87.4128 68.9478 87.3755Z" fill="#52B6C3"/>
</g>
</g>
<defs>
<clipPath id="clip0">
<rect width="130" height="130" fill="white"/>
</clipPath>
<clipPath id="clip1">
<rect width="100" height="74.8634" fill="white" transform="translate(15 28)"/>
</clipPath>
</defs>
</svg>
