<svg width="130" height="130" viewBox="0 0 130 130" fill="none" xmlns="http://www.w3.org/2000/svg">
<g clip-path="url(#clip0)">
<path d="M32.177 21.1333C32.177 21.1333 51.8179 36.1749 81.6771 8.04986C108.195 -16.9273 129.847 22.4811 129.999 41.3531C130.195 65.7996 103.481 85.3606 116.445 101.418C129.41 117.474 90.7351 143.99 69.8914 121.042C43.9627 92.497 36.9383 115.69 22.159 115.69C11.5518 115.69 -10.2259 89.0921 4.48031 69.3038C16.8554 52.6523 10.1063 47.126 6.83789 41.3531C2.12319 33.0273 13.3197 10.4288 32.177 21.1333Z" fill="#E2FCFF" fill-opacity="0.5"/>
<g clip-path="url(#clip1)">
<path fill-rule="evenodd" clip-rule="evenodd" d="M63 50H47V72H63V65H73V50H63Z" fill="#52B6C3"/>
<path d="M59.9999 35.5273C59.4924 35.5273 58.9861 35.6743 58.5449 35.9668L38.6816 49.1211C37.9441 49.6086 37.4999 50.4382 37.4999 51.3232V77.5C37.4999 80.2625 39.7374 82.5 42.4999 82.5H67.6464C67.5539 81.695 67.4999 80.865 67.4999 80V69.248L82.4999 62.583V51.3232C82.4999 50.4382 82.0558 49.6135 81.3183 49.126L61.455 35.9668C61.0138 35.6743 60.5074 35.5273 59.9999 35.5273ZM59.9999 50C61.3799 50 62.4999 51.12 62.4999 52.5V57.5H67.4999C68.8799 57.5 69.9999 58.62 69.9999 60C69.9999 61.38 68.8799 62.5 67.4999 62.5H62.4999V67.5C62.4999 68.88 61.3799 70 59.9999 70C58.6199 70 57.4999 68.88 57.4999 67.5V62.5H52.4999C51.1199 62.5 49.9999 61.38 49.9999 60C49.9999 58.62 51.1199 57.5 52.4999 57.5H57.4999V52.5C57.4999 51.12 58.6199 50 59.9999 50ZM83.7499 67.5C83.4387 67.5003 83.1269 67.5663 82.8369 67.7051L73.8378 71.9824C73.0253 72.3649 72.4999 73.2248 72.4999 74.1748V78.9844C72.4999 89.4344 80.5474 94.3125 83.7499 95C86.9524 94.3125 94.9999 89.4344 94.9999 78.9844V74.1748C94.9999 73.2248 94.4745 72.3625 93.662 71.9775L84.663 67.7051C84.373 67.5676 84.0612 67.4997 83.7499 67.5Z" fill="#153E90"/>
</g>
</g>
<defs>
<clipPath id="clip0">
<rect width="130" height="130" fill="white"/>
</clipPath>
<clipPath id="clip1">
<rect width="60" height="60" fill="white" transform="translate(35 35)"/>
</clipPath>
</defs>
</svg>
