<svg width="130" height="130" viewBox="0 0 130 130" fill="none" xmlns="http://www.w3.org/2000/svg">
<g clip-path="url(#clip0)">
<path d="M32.177 21.1333C32.177 21.1333 51.8179 36.1749 81.6771 8.04986C108.195 -16.9273 129.847 22.4811 129.999 41.3531C130.195 65.7996 103.481 85.3606 116.445 101.418C129.41 117.474 90.7351 143.99 69.8914 121.042C43.9627 92.497 36.9383 115.69 22.159 115.69C11.5518 115.69 -10.2259 89.0921 4.48031 69.3038C16.8554 52.6523 10.1063 47.126 6.83789 41.3531C2.12319 33.0273 13.3197 10.4288 32.177 21.1333Z" fill="#E2FCFF" fill-opacity="0.5"/>
<path d="M96.9684 19.4399C95.7134 19.4399 94.5796 19.5828 93.5695 19.8478C94.7733 20.7204 95.8005 21.8707 96.5507 23.2467C96.7415 23.5959 96.613 24.0339 96.2638 24.224C96.1551 24.2838 96.0367 24.3112 95.9193 24.3112C95.6644 24.3112 95.4175 24.1755 95.2865 23.9357C94.1647 21.8787 91.5593 19.4394 88.5267 19.4624C82.9193 19.4394 77.8799 23.891 77.8799 30.0599C77.8799 30.6345 77.9397 31.168 78.0318 31.6799H87.2399V29.5199C87.2399 29.1225 87.5618 28.7999 87.9599 28.7999H98.0399C98.4381 28.7999 98.7599 29.1225 98.7599 29.5199V31.6799H107.968C108.06 31.1702 108.119 30.6393 108.119 30.0684C108.152 27.0444 107.177 24.4422 105.298 22.5421C103.291 20.5132 100.411 19.4399 96.9684 19.4399ZM88.6799 30.2399V32.3999C88.6799 32.7974 88.3581 33.1199 87.9599 33.1199H78.4101C78.8335 34.3439 79.4579 35.4502 80.1103 36.5878C80.8907 37.9493 81.6974 39.358 82.169 41.0709C82.4433 42.0911 82.6866 43.1815 82.9214 44.2363C83.8761 48.5167 84.7774 52.5599 87.7842 52.5599C89.8779 52.5599 91.1282 51.0816 91.1282 48.6056C91.1282 45.5312 91.7958 41.4421 92.294 38.6535C92.3876 38.1999 92.7286 38.039 93.0238 38.039H93.0407C93.1732 38.0419 93.6109 38.0916 93.7017 38.6367C94.4771 42.8861 94.8717 46.2404 94.8717 48.6056C94.8717 51.0816 96.1212 52.5585 98.2157 52.5585C101.209 52.5585 102.111 48.5325 103.064 44.2701C103.304 43.2016 103.551 42.0968 103.829 41.0751C104.303 39.3579 105.109 37.9486 105.89 36.5878C106.542 35.4494 107.168 34.3432 107.591 33.1199H98.0399C97.6418 33.1199 97.3199 32.7974 97.3199 32.3999V30.2399H88.6799Z" fill="#153E90"/>
<path d="M46.5199 58.1362V55.06H36.1999V61.3612L46.5199 58.1362ZM36.1999 69.1012L46.5199 65.8762V59.9387L36.1999 63.1637V69.1012ZM36.1999 70.9037V73.98C36.1999 74.2414 36.3186 74.4882 36.5224 74.6516L40.8224 78.0916C40.9798 78.2172 41.1698 78.28 41.3599 78.28C41.5499 78.28 41.74 78.2172 41.8974 78.0916L46.1974 74.6516C46.4012 74.4882 46.5199 74.2414 46.5199 73.98V67.6787L36.1999 70.9037ZM58.3767 53.34C58.4894 52.7328 58.559 52.0973 58.559 51.4144C58.5994 47.8024 57.4341 44.6944 55.1895 42.4249C52.7927 40.0014 49.3519 38.72 45.2402 38.72C43.7412 38.72 42.3867 38.8903 41.1801 39.2067C42.6181 40.2491 43.8453 41.6242 44.7414 43.2677C44.9693 43.6848 44.8154 44.2068 44.3983 44.4338C44.2684 44.5052 44.1274 44.5387 43.9872 44.5387C43.6827 44.5387 43.3878 44.3771 43.2312 44.0907C41.8914 41.6337 38.7799 38.72 35.1576 38.7475C28.4599 38.72 22.4399 44.0365 22.4399 51.405C22.4399 52.0913 22.5104 52.7294 22.6231 53.34H58.3767Z" fill="#153E90"/>
<path d="M81.5 72C78.0509 72 76.0887 73.0634 74.5287 73.9256C73.4288 74.532 72.5605 75.0225 71.4087 75.0225C68.0846 75.0225 66.0402 74.5167 64.8031 74.2181C64.1968 74.0719 63.7398 73.9744 63.365 73.9744C62.454 73.9744 62 74.5655 62 75.7294C62 77.8043 62.5606 80.0285 64.34 81.945V84.7481C64.34 85.5982 64.6782 87.5238 66.7531 88.575C67.3686 88.8858 68.112 89.1722 68.9469 89.0625C69.0444 89.0503 69.1388 89.0168 69.2394 88.9894C69.3034 89.1509 69.3765 89.3306 69.4831 89.5012C69.928 90.2295 70.8268 91.0003 72.3594 91.3538C73.1363 91.5335 73.7823 91.5457 74.3337 91.3781C74.5988 91.2959 74.8365 91.1862 75.0406 91.0369C75.5921 91.7102 76.6616 92.28 78.38 92.28C79.8608 92.28 80.8967 91.7986 81.5 91.1587C82.1033 91.7986 83.1392 92.28 84.62 92.28C86.3384 92.28 87.4079 91.7102 87.9594 91.0369C88.1635 91.1862 88.4012 91.2959 88.6662 91.3781C89.2177 91.5457 89.8637 91.5335 90.6406 91.3538C92.1732 91.0003 93.072 90.2295 93.5169 89.5012C93.6235 89.3306 93.6966 89.1509 93.7606 88.9894C93.8612 89.0168 93.9556 89.0503 94.0531 89.0625C94.888 89.1722 95.6314 88.8858 96.2469 88.575C98.3218 87.5238 98.66 85.5982 98.66 84.7481V81.945C100.439 80.0285 101 77.8043 101 75.7294C101 74.5655 100.546 73.9744 99.635 73.9744C99.2633 73.9744 98.8032 74.0719 98.1969 74.2181C96.9598 74.5167 94.9154 75.0225 91.5912 75.0225C90.4395 75.0225 89.5529 74.532 88.4469 73.9256C86.8808 73.0634 84.9491 72 81.5 72ZM65.9 83.31C66.7562 83.9224 67.7921 84.4861 69.02 84.9675V86.9419C69.02 87.2801 68.953 87.4141 68.9225 87.4537C68.892 87.4934 68.8768 87.5116 68.7519 87.5269C68.502 87.5604 67.8866 87.4141 67.4356 87.1856C65.9457 86.433 65.9 85.3179 65.9 84.7481V83.31ZM97.1 83.31V84.7481C97.1 85.3179 97.0543 86.433 95.5644 87.1856C95.1134 87.4141 94.498 87.5604 94.2481 87.5269C94.1232 87.5116 94.108 87.4934 94.0775 87.4537C94.047 87.4141 93.98 87.2801 93.98 86.9419V84.9675C95.2079 84.4861 96.2438 83.9224 97.1 83.31ZM70.58 85.5037C71.7226 85.848 73.0358 86.1162 74.48 86.3325V88.6237C74.48 88.8675 74.4312 89.3428 74.2606 89.5987C74.1753 89.7267 74.087 89.8242 73.8706 89.8912C73.6543 89.9583 73.2887 89.9796 72.7006 89.8425C71.5032 89.5652 71.037 89.0838 70.7994 88.6969C70.5617 88.3099 70.58 88.0631 70.58 88.0631V85.5037ZM92.42 85.5037V88.0631C92.42 88.0631 92.4383 88.3099 92.2006 88.6969C91.963 89.0838 91.4968 89.5652 90.2994 89.8425C89.7113 89.9796 89.3457 89.9583 89.1294 89.8912C88.913 89.8242 88.8247 89.7267 88.7394 89.5987C88.5687 89.3428 88.52 88.8675 88.52 88.6237V86.3325C89.9642 86.1162 91.2774 85.848 92.42 85.5037ZM76.04 86.5519C77.4537 86.7042 79.0259 86.7743 80.72 86.7956V88.9163C80.72 89.157 80.6956 89.5987 80.4519 89.9644C80.2081 90.33 79.7663 90.72 78.38 90.72C76.9784 90.72 76.4879 90.3391 76.2594 90.0619C76.0309 89.7846 76.04 89.5987 76.04 89.5987V88.9163C76.043 88.7913 76.04 88.6847 76.04 88.6237V86.5519ZM86.96 86.5519V89.5987C86.96 89.5987 86.9691 89.7846 86.7406 90.0619C86.5121 90.3391 86.0216 90.72 84.62 90.72C83.2337 90.72 82.7919 90.33 82.5481 89.9644C82.3044 89.5987 82.28 89.157 82.28 88.9163V86.7956C83.9741 86.7743 85.5462 86.7042 86.96 86.5519ZM65.9731 97.155C65.577 97.1794 65.1048 97.3317 64.7787 97.7156C64.4741 98.0752 64.3522 98.5535 64.34 99.0806C64.3034 99.0593 64.2516 99.0288 64.2181 99.0075C63.5509 98.6114 63.237 98.4469 62.8775 98.4469C62.3717 98.4469 62 98.8247 62 99.3487C62 102.773 67.6123 111 81.5 111C95.3907 111 101 102.773 101 99.3487C101 98.8247 100.628 98.4469 100.122 98.4469C99.763 98.4469 99.4491 98.6358 98.7819 99.0319C98.7484 99.0532 98.6966 99.0837 98.66 99.105C98.6509 98.5687 98.532 98.0812 98.2212 97.7156C97.8952 97.3317 97.423 97.1794 97.0269 97.155C96.2377 97.1032 95.54 97.3683 95.0281 97.4719C94.172 97.6425 93.5412 98.1087 93.1269 98.6419C92.5236 98.1483 91.5821 97.8802 90.2262 98.0081C88.9344 98.13 88.0752 98.7424 87.5938 99.3975C86.9844 98.8948 86.0155 98.52 84.62 98.52C83.1392 98.52 82.1033 99.0014 81.5 99.6412C80.8967 99.0014 79.8608 98.52 78.38 98.52C76.9845 98.52 76.0156 98.8948 75.4062 99.3975C74.9248 98.7424 74.0656 98.13 72.7737 98.0081C71.4179 97.8802 70.4764 98.1483 69.8731 98.6419C69.4587 98.1087 68.828 97.6425 67.9719 97.4719C67.46 97.3683 66.7623 97.1032 65.9731 97.155ZM66.095 98.715C66.3662 98.6967 67.0212 98.8765 67.6794 99.0075C68.4533 99.1629 68.6757 99.495 68.8494 99.9581C69.0139 100.397 69.02 100.924 69.02 101.299C67.7434 100.848 66.7196 100.379 65.9 99.9581V99.1781C65.9 98.8308 65.9731 98.7394 65.9731 98.7394C65.9731 98.7394 65.9609 98.7241 66.095 98.715ZM96.905 98.715C97.0391 98.7241 97.0269 98.7394 97.0269 98.7394C97.0269 98.7394 97.1 98.8308 97.1 99.1781V99.9581C96.2773 100.382 95.2658 100.845 93.98 101.299C93.98 100.924 93.9861 100.397 94.1506 99.9581C94.3243 99.495 94.5467 99.1629 95.3206 99.0075C95.9787 98.8765 96.6338 98.6967 96.905 98.715ZM71.8231 99.5437C72.0455 99.5316 72.3015 99.5377 72.6275 99.5681C73.6665 99.6656 74.0382 100.08 74.2606 100.47C74.477 100.848 74.48 101.156 74.48 101.177V101.201V102.664C73.0114 102.426 71.7256 102.118 70.58 101.786V100.616C70.58 100.385 70.6105 100.101 70.775 99.9094C70.8999 99.7662 71.1589 99.5773 71.8231 99.5437ZM91.1769 99.5437C91.8411 99.5773 92.1001 99.7662 92.225 99.9094C92.3895 100.101 92.42 100.385 92.42 100.616V101.786C91.2744 102.118 89.9886 102.426 88.52 102.664V101.201C88.52 101.201 88.5291 101.162 88.52 101.079C88.5291 100.973 88.5718 100.766 88.7394 100.47C88.9618 100.08 89.3335 99.6656 90.3725 99.5681C90.6985 99.5377 90.9545 99.5316 91.1769 99.5437ZM78.38 100.08C79.7663 100.08 80.2081 100.47 80.4519 100.836C80.6956 101.201 80.72 101.643 80.72 101.884V103.2C79.0229 103.173 77.4537 103.054 76.04 102.883V101.177C76.04 101.146 76.0522 100.991 76.2594 100.738C76.4879 100.461 76.9784 100.08 78.38 100.08ZM84.62 100.08C86.0216 100.08 86.5121 100.461 86.7406 100.738C86.9691 101.015 86.96 101.201 86.96 101.201V102.883C85.5462 103.054 83.9771 103.173 82.28 103.2V101.884C82.28 101.643 82.3044 101.201 82.5481 100.836C82.7919 100.47 83.2337 100.08 84.62 100.08Z" fill="#153E90"/>
</g>
<defs>
<clipPath id="clip0">
<rect width="130" height="130" fill="white"/>
</clipPath>
</defs>
</svg>
