<svg width="130" height="130" viewBox="0 0 130 130" fill="none" xmlns="http://www.w3.org/2000/svg">
<g clip-path="url(#clip0)">
<path d="M32.177 21.1333C32.177 21.1333 51.8179 36.1749 81.6772 8.04986C108.195 -16.9273 129.847 22.4811 129.999 41.3531C130.195 65.7996 103.481 85.3606 116.445 101.418C129.41 117.474 90.7351 143.99 69.8915 121.042C43.9627 92.497 36.9383 115.69 22.1591 115.69C11.5518 115.69 -10.2259 89.0921 4.48033 69.3038C16.8555 52.6523 10.1063 47.126 6.8379 41.3531C2.1232 33.0273 13.3197 10.4288 32.177 21.1333Z" fill="#E2FCFF" fill-opacity="0.5"/>
<path d="M34.9388 106.764L34.9388 106.764C35.2403 107.745 35.9199 108.567 36.8282 109.048C37.7366 109.53 38.7993 109.631 39.7824 109.33L106.76 88.7933L34.9388 106.764ZM34.9388 106.764L27.1063 81.2911L27.1062 81.291L20.6038 60.1366L20.6033 60.1349M34.9388 106.764L20.6033 60.1349M20.6033 60.1349L20.5602 59.9963L21.2696 59.1791L21.2697 59.179L50.3774 25.6604L50.3791 25.6584M20.6033 60.1349L50.3791 25.6584M50.3791 25.6584C50.4508 25.575 50.5447 25.5135 50.6501 25.4812C50.7555 25.4489 50.8679 25.4471 50.9742 25.476L50.9768 25.4767M50.3791 25.6584L50.9768 25.4767M50.9768 25.4767L93.9214 36.9177L93.9218 36.9178M50.9768 25.4767L93.9218 36.9178M93.9218 36.9178L94.9517 37.1912M93.9218 36.9178L94.9517 37.1912M94.9517 37.1912L95.269 38.2159L95.2693 38.2169L109.33 83.9518C109.631 84.934 109.529 85.9953 109.048 86.9029C108.566 87.8103 107.744 88.4902 106.761 88.7931L94.9517 37.1912Z" fill="#153E90" stroke="#52B6C3"/>
<path d="M95.7472 38.0684L70.3613 67.9363V66.2964L94.0504 36.4341L95.3476 36.7784L95.7472 38.0684Z" fill="#153E90"/>
<path d="M95.406 37.079C95.376 37.0521 95.3392 37.034 95.2996 37.0266C95.26 37.0193 95.2191 37.023 95.1814 37.0374C95.1438 37.0518 95.1109 37.0762 95.0863 37.1081L95.406 37.079ZM95.406 37.079C95.436 37.1059 95.4579 37.1406 95.4694 37.1791L95.406 37.079ZM95.2597 37.2419L95.2597 37.2419L95.2597 37.2419ZM95.2597 37.2419L95.2597 37.2417L95.2597 37.2419ZM72.9803 65.4683L72.9804 65.4681L95.1469 37.8317L109.233 83.6579L109.235 83.6617L109.327 83.9538C109.327 83.9543 109.327 83.9548 109.327 83.9553C109.626 84.9241 109.532 85.9714 109.066 86.8717C108.612 87.7467 107.842 88.415 106.913 88.7417L66.3678 73.7071L72.9803 65.4683ZM94.9902 37.322L94.9915 37.3261L94.9903 37.322L94.9902 37.322Z" fill="#E9F1FF" stroke="#153E90"/>
<path d="M63.2186 72.3259L62.8465 73.1022L20.4051 60.0048C20.3663 59.9928 20.3249 59.9916 20.2855 60.0014C20.2461 60.0111 20.2101 60.0314 20.1814 60.0601C20.1526 60.0888 20.1323 60.1247 20.1225 60.1641C20.1127 60.2035 20.1139 60.2448 20.1259 60.2835L20 59.879L20.8921 58.8513L63.2186 72.3259Z" fill="#153E90"/>
<path d="M39.6278 109.373C38.6762 109.623 37.6639 109.502 36.7971 109.032C35.9039 108.549 35.2368 107.734 34.9392 106.764L34.9391 106.764L27.1066 81.2912L27.1066 81.2911L20.758 60.6369L62.699 73.5798L62.6991 73.5798L64.7376 74.2092L39.6278 109.373Z" fill="#E9F1FF" stroke="#153E90"/>
<path d="M35.1598 106.683L35.1607 106.682L61.8526 63.2602L61.4266 62.9984L61.8526 63.2602C61.9282 63.1371 62.0463 63.0457 62.1848 63.0032C62.3234 62.9608 62.4727 62.9702 62.6047 63.0298L62.6047 63.0298L109.097 84.0109L109.098 84.0115C109.188 84.0517 109.266 84.1134 109.327 84.191C109.387 84.2683 109.426 84.3592 109.443 84.4555C109.595 85.3802 109.407 86.3286 108.914 87.1259C108.42 87.9234 107.654 88.5159 106.758 88.7939C106.757 88.7939 106.757 88.794 106.757 88.7941L39.7856 109.33C39.7853 109.33 39.7851 109.33 39.7848 109.33C38.8863 109.602 37.9196 109.541 37.0628 109.157C36.2063 108.774 35.5177 108.094 35.1238 107.243C35.0834 107.154 35.0655 107.057 35.0716 106.959C35.0778 106.862 35.1081 106.767 35.1598 106.683Z" fill="#E9F1FF" stroke="#153E90"/>
<path d="M93.6847 21.1009C93.645 21.1009 93.606 21.0907 93.5714 21.0715C93.5367 21.0522 93.5075 21.0244 93.4866 20.9907C93.4657 20.957 93.4538 20.9185 93.4519 20.8789C93.45 20.8394 93.4582 20.7999 93.4759 20.7644C93.6758 20.3611 93.7825 20.1399 93.7829 20.1394C93.7955 20.1107 93.8138 20.0849 93.8366 20.0634C93.8594 20.0419 93.8863 20.0253 93.9157 20.0144C93.9451 20.0036 93.9764 19.9988 94.0077 20.0003C94.039 20.0018 94.0697 20.0096 94.098 20.0232C94.1262 20.0368 94.1514 20.0559 94.172 20.0795C94.1927 20.103 94.2084 20.1305 94.2182 20.1602C94.228 20.19 94.2317 20.2214 94.229 20.2526C94.2264 20.2838 94.2175 20.3141 94.2029 20.3418C94.2029 20.3418 94.0953 20.5645 93.8936 20.9713C93.8743 21.0102 93.8446 21.0429 93.8077 21.0658C93.7708 21.0887 93.7282 21.1009 93.6847 21.1009Z" fill="#52B6C3"/>
<path d="M70.1223 54.2975C70.0779 54.2975 70.0344 54.2848 69.997 54.261C69.9596 54.2371 69.9297 54.2031 69.9109 54.1629C69.8922 54.1227 69.8853 54.078 69.8911 54.034C69.8969 53.9901 69.9152 53.9487 69.9437 53.9147C70.2453 53.5558 70.5317 53.1999 70.7953 52.8566C70.8329 52.8075 70.8886 52.7754 70.9499 52.7673C71.0113 52.7593 71.0733 52.7758 71.1224 52.8135C71.1716 52.8511 71.2037 52.9066 71.2118 52.9679C71.2199 53.0292 71.2033 53.0912 71.1656 53.1402C70.8979 53.4888 70.6071 53.8502 70.3013 54.2143C70.2793 54.2404 70.252 54.2613 70.221 54.2757C70.1901 54.2901 70.1564 54.2975 70.1223 54.2975ZM71.7837 52.1239C71.7413 52.1239 71.6997 52.1123 71.6634 52.0905C71.6271 52.0686 71.5974 52.0372 71.5776 51.9998C71.5578 51.9624 71.5485 51.9203 71.5509 51.878C71.5533 51.8357 71.5671 51.7949 71.5909 51.7598C71.8579 51.3678 72.0994 50.9833 72.3089 50.617C72.3241 50.5904 72.3443 50.5671 72.3686 50.5483C72.3928 50.5296 72.4205 50.5158 72.45 50.5077C72.4796 50.4997 72.5105 50.4975 72.5409 50.5014C72.5713 50.5052 72.6006 50.515 72.6272 50.5302C72.6538 50.5454 72.6772 50.5657 72.696 50.5898C72.7147 50.614 72.7285 50.6417 72.7366 50.6712C72.7447 50.7007 72.7468 50.7316 72.743 50.7619C72.7391 50.7923 72.7293 50.8216 72.7141 50.8482C72.4986 51.225 72.2506 51.6198 71.9768 52.022C71.9554 52.0534 71.9266 52.0791 71.8929 52.0969C71.8593 52.1147 71.8218 52.1239 71.7838 52.1239H71.7837ZM71.7357 49.9028H71.7319C71.2602 49.905 70.7939 49.8031 70.3662 49.6045C70.3385 49.5916 70.3135 49.5733 70.2928 49.5507C70.2721 49.5282 70.2561 49.5017 70.2456 49.473C70.2351 49.4442 70.2304 49.4137 70.2318 49.3831C70.2331 49.3525 70.2405 49.3225 70.2535 49.2948C70.2664 49.2671 70.2847 49.2421 70.3073 49.2215C70.3299 49.2008 70.3564 49.1848 70.3852 49.1743C70.414 49.1639 70.4446 49.1592 70.4752 49.1605C70.5058 49.1619 70.5359 49.1692 70.5636 49.1822C70.9297 49.3518 71.3287 49.4385 71.7322 49.4363C71.7508 49.4363 71.7707 49.4363 71.7898 49.4363H71.7943C71.8249 49.436 71.8553 49.4418 71.8838 49.4532C71.9122 49.4647 71.9381 49.4816 71.9599 49.503C71.9818 49.5245 71.9992 49.55 72.0112 49.5782C72.0232 49.6063 72.0295 49.6366 72.0298 49.6672C72.0301 49.6978 72.0243 49.7281 72.0129 49.7565C72.0014 49.7849 71.9844 49.8107 71.963 49.8326C71.9415 49.8544 71.9159 49.8718 71.8877 49.8838C71.8595 49.8958 71.8292 49.9021 71.7986 49.9023C71.7778 49.9026 71.7568 49.9028 71.7358 49.9028H71.7357ZM73.1253 49.7443C73.0717 49.7295 73.023 49.7006 72.9842 49.6607C72.9455 49.6208 72.9181 49.5712 72.9048 49.5172C72.8916 49.4632 72.8931 49.4067 72.909 49.3534C72.925 49.3001 72.9549 49.2521 72.9956 49.2142C73.1331 48.8738 73.2424 48.5227 73.3223 48.1645C73.3284 48.1343 73.3405 48.1056 73.3579 48.0802C73.3752 48.0547 73.3974 48.0329 73.4232 48.016C73.4491 47.9991 73.478 47.9876 73.5083 47.9819C73.5386 47.9763 73.5698 47.9768 73.5999 47.9832C73.6301 47.9897 73.6587 48.0021 73.684 48.0197C73.7094 48.0373 73.731 48.0597 73.7476 48.0856C73.7642 48.1116 73.7755 48.1406 73.7808 48.171C73.7861 48.2013 73.7853 48.2324 73.7785 48.2625C73.7263 48.5008 73.6609 48.7361 73.5825 48.9671C73.7955 48.8672 74.0135 48.7515 74.2348 48.6207C74.2879 48.5916 74.3502 48.5843 74.4086 48.6003C74.467 48.6163 74.5168 48.6543 74.5477 48.7063C74.5785 48.7584 74.5879 48.8203 74.5739 48.8791C74.5598 48.9379 74.5234 48.989 74.4724 49.0215C74.1148 49.2353 73.7402 49.4196 73.3524 49.5724L73.3397 49.6022C73.3218 49.6442 73.292 49.68 73.2539 49.7052C73.2158 49.7304 73.1711 49.7439 73.1254 49.744L73.1253 49.7443ZM69.3434 48.8495C69.2868 48.8496 69.2321 48.8291 69.1896 48.7917C68.8172 48.4805 68.5029 48.106 68.2613 47.6854C68.2453 47.6584 68.235 47.6284 68.231 47.5973C68.2269 47.5662 68.2292 47.5346 68.2376 47.5044C68.2461 47.4742 68.2605 47.4461 68.2802 47.4216C68.2998 47.3971 68.3241 47.3768 68.3518 47.3619C68.3795 47.3471 68.4098 47.338 68.4411 47.3351C68.4724 47.3322 68.5039 47.3357 68.5338 47.3453C68.5637 47.3549 68.5913 47.3705 68.615 47.391C68.6388 47.4115 68.6581 47.4366 68.6719 47.4648C68.8873 47.8362 69.1666 48.1668 69.497 48.4413C69.5327 48.4726 69.5579 48.514 69.5695 48.56C69.581 48.6059 69.5782 48.6543 69.5614 48.6987C69.5447 48.743 69.5148 48.7812 69.4758 48.8082C69.4368 48.8351 69.3905 48.8495 69.343 48.8495H69.3434ZM75.4855 48.2848C75.4367 48.2848 75.3892 48.2696 75.3495 48.2412C75.3098 48.2129 75.28 48.1728 75.2643 48.1267C75.2486 48.0805 75.2478 48.0306 75.262 47.984C75.2762 47.9373 75.3046 47.8963 75.3434 47.8667C75.6784 47.6105 76.0273 47.3191 76.3806 47.0006C76.4034 46.9801 76.4299 46.9643 76.4588 46.954C76.4877 46.9438 76.5183 46.9393 76.5489 46.9409C76.5795 46.9424 76.6095 46.95 76.6372 46.9631C76.6648 46.9763 76.6896 46.9947 76.7102 47.0175C76.7307 47.0402 76.7466 47.0667 76.7568 47.0955C76.7671 47.1244 76.7716 47.1549 76.77 47.1855C76.7684 47.2161 76.7608 47.246 76.7477 47.2737C76.7345 47.3013 76.716 47.3261 76.6933 47.3466C76.3308 47.6734 75.9721 47.9729 75.6272 48.2367C75.5865 48.2676 75.5368 48.2842 75.4856 48.284L75.4855 48.2848ZM73.6228 47.088C73.5668 47.0879 73.5127 47.0678 73.4703 47.0311C73.428 46.9945 73.4002 46.9439 73.3922 46.8885C73.3417 46.4797 73.166 46.0963 72.8891 45.7909C72.8473 45.7455 72.8253 45.6855 72.8277 45.6239C72.8302 45.5623 72.8569 45.5042 72.9022 45.4623C72.9474 45.4204 73.0075 45.3981 73.0691 45.4003C73.1308 45.4025 73.1891 45.429 73.2313 45.474C73.5729 45.8483 73.7904 46.3189 73.854 46.8213C73.8584 46.8516 73.8568 46.8825 73.8493 46.9122C73.8418 46.9418 73.8285 46.9697 73.8102 46.9943C73.7919 47.0188 73.7689 47.0395 73.7426 47.0552C73.7163 47.0708 73.6871 47.0812 73.6568 47.0856C73.6455 47.0872 73.6342 47.088 73.6228 47.088ZM68.3195 46.4909C68.2819 46.4909 68.2449 46.4819 68.2116 46.4645C68.1782 46.4472 68.1496 46.422 68.1281 46.3912C68.1066 46.3605 68.0928 46.3249 68.088 46.2877C68.0832 46.2505 68.0875 46.2127 68.1005 46.1774C68.2618 45.7393 68.6138 45.3577 69.1192 45.0744C69.1732 45.0441 69.2369 45.0365 69.2965 45.0532C69.3561 45.0699 69.4066 45.1095 69.4369 45.1634C69.4673 45.2173 69.4749 45.281 69.4582 45.3406C69.4414 45.4001 69.4017 45.4505 69.3478 45.4808C68.9407 45.7091 68.6609 46.0055 68.5386 46.3383C68.5221 46.3831 68.4922 46.4217 68.4531 46.449C68.4139 46.4763 68.3673 46.4909 68.3195 46.4909ZM77.5267 46.4575C77.4807 46.4575 77.4357 46.4439 77.3974 46.4185C77.3591 46.393 77.3292 46.3568 77.3114 46.3144C77.2937 46.2721 77.2889 46.2254 77.2976 46.1803C77.3063 46.1352 77.3282 46.0936 77.3605 46.0609C77.6646 45.7533 77.9786 45.4199 78.2939 45.071C78.3353 45.0251 78.3933 44.9976 78.4551 44.9944C78.5169 44.9913 78.5775 45.0127 78.6234 45.0541C78.6694 45.0956 78.6969 45.1535 78.7001 45.2152C78.7033 45.2769 78.6818 45.3374 78.6403 45.3833C78.3204 45.7375 78.0016 46.0753 77.6928 46.3881C77.6711 46.4101 77.6452 46.4276 77.6167 46.4395C77.5882 46.4515 77.5576 46.4576 77.5267 46.4575ZM71.8912 45.1881C71.8705 45.1881 71.8499 45.1853 71.83 45.1799C71.4155 45.0727 70.9845 45.0453 70.5598 45.0993C70.5294 45.1029 70.4985 45.1006 70.469 45.0924C70.4395 45.0841 70.4119 45.0702 70.3878 45.0513C70.3637 45.0324 70.3435 45.0089 70.3285 44.9823C70.3134 44.9556 70.3038 44.9263 70.3001 44.8959C70.2965 44.8655 70.2988 44.8347 70.3071 44.8052C70.3153 44.7757 70.3293 44.7482 70.3482 44.7241C70.3671 44.7 70.3906 44.6799 70.4173 44.6649C70.444 44.6499 70.4734 44.6402 70.5038 44.6366C70.9881 44.5754 71.4797 44.607 71.9521 44.7298C72.0068 44.7445 72.0542 44.7785 72.0856 44.8256C72.117 44.8726 72.1302 44.9294 72.1228 44.9855C72.1153 45.0415 72.0877 45.0929 72.0451 45.1302C72.0025 45.1674 71.9478 45.1879 71.8912 45.1878V45.1881ZM79.3672 44.4267C79.3228 44.4266 79.2793 44.4139 79.2418 44.39C79.2044 44.3662 79.1746 44.3321 79.1558 44.2919C79.1371 44.2517 79.1303 44.2069 79.1361 44.163C79.142 44.119 79.1602 44.0776 79.1888 44.0436C79.4712 43.7081 79.7617 43.353 80.0522 42.9874C80.0711 42.9629 80.0947 42.9424 80.1215 42.9271C80.1484 42.9118 80.1781 42.902 80.2088 42.8983C80.2395 42.8945 80.2706 42.8969 80.3004 42.9053C80.3301 42.9137 80.3579 42.9279 80.3822 42.9471C80.4064 42.9663 80.4266 42.9901 80.4415 43.0171C80.4564 43.0442 80.4658 43.0739 80.4691 43.1046C80.4724 43.1353 80.4696 43.1664 80.4608 43.196C80.4519 43.2256 80.4373 43.2532 80.4177 43.2771C80.1245 43.6461 79.8312 44.005 79.5459 44.3436C79.5241 44.3696 79.4968 44.3905 79.466 44.4049C79.4351 44.4192 79.4016 44.4267 79.3676 44.4267H79.3672ZM81.0746 42.2818C81.0312 42.2817 80.9887 42.2696 80.9518 42.2468C80.915 42.224 80.8852 42.1913 80.8659 42.1525C80.8466 42.1137 80.8384 42.0703 80.8425 42.0272C80.8465 41.984 80.8625 41.9429 80.8886 41.9083C81.1553 41.5558 81.4288 41.1865 81.7015 40.8103C81.7378 40.7603 81.7926 40.7267 81.8537 40.7169C81.9148 40.7071 81.9773 40.722 82.0274 40.7583C82.0775 40.7945 82.1112 40.8492 82.121 40.9102C82.1307 40.9713 82.1158 41.0337 82.0795 41.0837C81.8049 41.4624 81.5294 41.8344 81.2609 42.1892C81.2392 42.2179 81.2111 42.2412 81.1788 42.2573C81.1466 42.2734 81.111 42.2817 81.075 42.2818H81.0746ZM82.6852 40.0634C82.6426 40.0633 82.6007 40.0516 82.5643 40.0295C82.5279 40.0074 82.4982 39.9757 82.4785 39.938C82.4588 39.9002 82.4499 39.8578 82.4526 39.8153C82.4554 39.7728 82.4697 39.7318 82.4941 39.6969C82.7485 39.3334 83.009 38.954 83.2688 38.5702C83.3034 38.519 83.3571 38.4836 83.4178 38.4719C83.4786 38.4601 83.5416 38.473 83.5929 38.5076C83.6441 38.5422 83.6796 38.5957 83.6913 38.6564C83.7031 38.7171 83.6902 38.78 83.6556 38.8312C83.3942 39.2169 83.1329 39.598 82.877 39.9639C82.8554 39.9946 82.8268 40.0197 82.7935 40.037C82.7601 40.0543 82.7231 40.0633 82.6856 40.0633L82.6852 40.0634ZM84.2216 37.7928C84.1796 37.7928 84.1383 37.7814 84.1022 37.7599C84.066 37.7383 84.0364 37.7074 84.0164 37.6705C83.9965 37.6335 83.9869 37.5918 83.9887 37.5498C83.9905 37.5078 84.0036 37.4671 84.0267 37.432C84.2734 37.056 84.5241 36.6689 84.7717 36.2813C84.805 36.2292 84.8577 36.1925 84.9181 36.1791C84.9786 36.1658 85.0418 36.177 85.094 36.2102C85.1461 36.2435 85.183 36.2961 85.1963 36.3564C85.2096 36.4168 85.1984 36.48 85.1651 36.5321C84.9165 36.9212 84.6648 37.31 84.417 37.6879C84.3957 37.7201 84.3668 37.7466 84.3328 37.7649C84.2987 37.7832 84.2607 37.7927 84.222 37.7927L84.2216 37.7928ZM85.6995 35.4812C85.6579 35.4811 85.6171 35.47 85.5812 35.4489C85.5454 35.4278 85.5159 35.3975 85.4957 35.3612C85.4755 35.3249 85.4654 35.2838 85.4664 35.2423C85.4675 35.2008 85.4796 35.1603 85.5016 35.125C85.738 34.7458 85.9795 34.3538 86.2194 33.9599C86.2516 33.9071 86.3035 33.8692 86.3636 33.8546C86.4238 33.84 86.4873 33.8498 86.5401 33.882C86.593 33.9141 86.6309 33.9659 86.6456 34.026C86.6602 34.086 86.6503 34.1494 86.6182 34.2022C86.3774 34.5975 86.135 34.9908 85.8977 35.3713C85.8767 35.4048 85.8475 35.4324 85.8129 35.4515C85.7783 35.4706 85.7394 35.4806 85.6998 35.4806L85.6995 35.4812ZM87.1261 33.1401C87.0849 33.14 87.0444 33.1291 87.0088 33.1084C86.9732 33.0876 86.9438 33.0579 86.9234 33.0221C86.9031 32.9863 86.8926 32.9458 86.893 32.9046C86.8935 32.8635 86.9048 32.8232 86.9259 32.7879C87.1616 32.3925 87.3936 31.9996 87.6218 31.6091C87.637 31.5822 87.6574 31.5587 87.6818 31.5398C87.7062 31.5208 87.7342 31.5069 87.764 31.4989C87.7938 31.4908 87.825 31.4888 87.8556 31.4929C87.8862 31.4969 87.9158 31.507 87.9425 31.5226C87.9691 31.5382 87.9925 31.5589 88.0111 31.5835C88.0297 31.6081 88.0432 31.6362 88.0509 31.6661C88.0586 31.696 88.0602 31.7271 88.0557 31.7577C88.0512 31.7882 88.0407 31.8175 88.0248 31.844C87.796 32.2355 87.5633 32.6296 87.3268 33.0263C87.3061 33.0609 87.2768 33.0896 87.2417 33.1095C87.2065 33.1294 87.1668 33.1399 87.1264 33.1399L87.1261 33.1401ZM88.5098 30.7732C88.469 30.7732 88.4288 30.7624 88.3934 30.742C88.358 30.7216 88.3286 30.6923 88.3081 30.6569C88.2876 30.6216 88.2768 30.5815 88.2767 30.5407C88.2766 30.4999 88.2873 30.4597 88.3076 30.4243C88.5383 30.0222 88.7638 29.6254 88.9841 29.2339C88.9991 29.2071 89.0192 29.1835 89.0433 29.1645C89.0674 29.1454 89.095 29.1314 89.1246 29.123C89.1542 29.1147 89.1851 29.1123 89.2156 29.1159C89.2461 29.1195 89.2756 29.1291 89.3024 29.1442C89.3292 29.1592 89.3527 29.1794 89.3717 29.2035C89.3906 29.2277 89.4046 29.2553 89.4128 29.2849C89.421 29.3145 89.4233 29.3454 89.4196 29.3758C89.4158 29.4063 89.4061 29.4357 89.3909 29.4624C89.1701 29.8544 88.944 30.2521 88.7126 30.6555C88.6921 30.691 88.6626 30.7205 88.6271 30.741C88.5916 30.7616 88.5512 30.7724 88.5102 30.7724L88.5098 30.7732ZM89.8557 28.384C89.8151 28.384 89.7753 28.3733 89.7401 28.3532C89.7048 28.3331 89.6755 28.3041 89.6549 28.2692C89.6343 28.2343 89.6232 28.1946 89.6226 28.1541C89.6221 28.1136 89.6321 28.0736 89.6518 28.0382C89.8786 27.6281 90.0982 27.2278 90.3107 26.8374C90.3403 26.7831 90.3902 26.7427 90.4495 26.7252C90.5089 26.7077 90.5728 26.7144 90.6271 26.7439C90.6815 26.7734 90.7219 26.8233 90.7395 26.8826C90.757 26.9418 90.7503 27.0056 90.7207 27.0599C90.5079 27.4509 90.2877 27.8521 90.0602 28.2637C90.04 28.3 90.0104 28.3303 89.9745 28.3513C89.9386 28.3724 89.8977 28.3835 89.8561 28.3834L89.8557 28.384ZM91.1668 25.9747C91.1266 25.9746 91.087 25.9641 91.052 25.9442C91.017 25.9244 90.9877 25.8958 90.967 25.8613C90.9463 25.8267 90.935 25.7874 90.934 25.7472C90.933 25.707 90.9425 25.6672 90.9615 25.6318C91.1869 25.2105 91.401 24.807 91.6038 24.4213C91.6177 24.3936 91.637 24.369 91.6606 24.3488C91.6841 24.3287 91.7115 24.3134 91.741 24.3039C91.7705 24.2945 91.8017 24.291 91.8326 24.2936C91.8635 24.2963 91.8935 24.3051 91.921 24.3195C91.9484 24.3339 91.9727 24.3537 91.9924 24.3776C92.0122 24.4015 92.0269 24.4291 92.0359 24.4587C92.0448 24.4884 92.0477 24.5195 92.0444 24.5503C92.0412 24.5811 92.0318 24.611 92.0168 24.6381C91.8139 25.0238 91.5993 25.4283 91.3728 25.8514C91.3529 25.8885 91.3232 25.9195 91.287 25.9411C91.2508 25.9627 91.2094 25.9741 91.1672 25.9741L91.1668 25.9747ZM92.4446 23.5461C92.4046 23.546 92.3652 23.5357 92.3303 23.5161C92.2954 23.4965 92.2662 23.4683 92.2454 23.4341C92.2246 23.4 92.2129 23.3611 92.2116 23.3211C92.2102 23.2812 92.2191 23.2415 92.2375 23.206C92.4696 22.7572 92.6787 22.3485 92.8628 21.9858C92.8765 21.9583 92.8956 21.9338 92.9189 21.9138C92.9421 21.8937 92.9691 21.8783 92.9983 21.8687C93.0275 21.8591 93.0583 21.8553 93.089 21.8576C93.1197 21.8599 93.1496 21.8682 93.177 21.8821C93.2044 21.896 93.2288 21.9151 93.2488 21.9385C93.2688 21.9618 93.284 21.9889 93.2935 22.0181C93.303 22.0473 93.3066 22.0781 93.3041 22.1087C93.3016 22.1393 93.2931 22.1692 93.2791 22.1965C93.0946 22.56 92.885 22.9701 92.6522 23.42C92.6325 23.4578 92.6028 23.4896 92.5662 23.5117C92.5297 23.5339 92.4877 23.5456 92.445 23.5455L92.4446 23.5461Z" fill="#52B6C3"/>
<path d="M68.7718 55.8235C68.7264 55.8235 68.682 55.8102 68.644 55.7853C68.606 55.7605 68.5761 55.7251 68.558 55.6835C68.5398 55.6419 68.5342 55.5958 68.5418 55.5511C68.5494 55.5063 68.5699 55.4648 68.6007 55.4315C68.762 55.2576 68.9185 55.0862 69.0704 54.9173C69.0907 54.8939 69.1155 54.8748 69.1433 54.8611C69.171 54.8473 69.2013 54.8393 69.2322 54.8374C69.2631 54.8354 69.2941 54.8397 69.3234 54.8499C69.3526 54.8601 69.3796 54.876 69.4026 54.8967C69.4256 54.9174 69.4443 54.9425 69.4576 54.9705C69.4708 54.9985 69.4783 55.0289 69.4797 55.0599C69.4811 55.0908 69.4763 55.1217 69.4656 55.1508C69.4549 55.1799 69.4385 55.2065 69.4174 55.2292C69.264 55.3999 69.1058 55.5731 68.9429 55.7487C68.9211 55.7723 68.8946 55.7912 68.8652 55.804C68.8357 55.8169 68.804 55.8235 68.7718 55.8235Z" fill="#52B6C3"/>
<path d="M59.0034 40.8238C58.9638 40.8238 58.9247 40.8137 58.8901 40.7944C58.8554 40.7751 58.8262 40.7473 58.8053 40.7137C58.7844 40.68 58.7724 40.6415 58.7705 40.602C58.7686 40.5624 58.7769 40.523 58.7945 40.4874C58.9845 40.1036 59.0872 39.8683 59.0882 39.866C59.113 39.8096 59.1592 39.7653 59.2167 39.7429C59.2741 39.7204 59.3381 39.7216 59.3947 39.7461C59.4513 39.7706 59.4959 39.8166 59.5186 39.8738C59.5414 39.9311 59.5405 39.9951 59.5162 40.0517C59.5119 40.0616 59.4085 40.2987 59.2127 40.694C59.1934 40.733 59.1636 40.7658 59.1266 40.7887C59.0896 40.8117 59.047 40.8238 59.0034 40.8238Z" fill="#52B6C3"/>
<path d="M47.7094 52.0101C47.6641 52.01 47.6198 51.9969 47.5818 51.9721C47.5439 51.9474 47.514 51.9121 47.4958 51.8707C47.4776 51.8292 47.4718 51.7834 47.4793 51.7388C47.4867 51.6941 47.507 51.6526 47.5377 51.6193C47.8704 51.2577 48.1867 50.901 48.478 50.5595C48.4977 50.5358 48.522 50.5162 48.5494 50.5019C48.5767 50.4876 48.6067 50.4789 48.6374 50.4762C48.6682 50.4736 48.6992 50.4771 48.7286 50.4865C48.758 50.4959 48.7853 50.511 48.8088 50.531C48.8323 50.551 48.8516 50.5755 48.8656 50.603C48.8795 50.6305 48.8879 50.6605 48.8902 50.6913C48.8925 50.722 48.8886 50.7529 48.8788 50.7822C48.869 50.8114 48.8535 50.8385 48.8332 50.8617C48.5382 51.2077 48.218 51.5687 47.8812 51.9346C47.8594 51.9585 47.8329 51.9775 47.8033 51.9904C47.7737 52.0034 47.7417 52.0101 47.7094 52.0101ZM49.554 49.837C49.5105 49.837 49.4678 49.8248 49.4309 49.8018C49.3939 49.7789 49.3641 49.746 49.3449 49.707C49.3256 49.668 49.3177 49.6244 49.322 49.5811C49.3262 49.5378 49.3426 49.4966 49.3691 49.4621C49.6744 49.0647 49.9499 48.6792 50.1876 48.3168C50.2044 48.2912 50.2261 48.2692 50.2514 48.252C50.2767 48.2347 50.3052 48.2226 50.3352 48.2164C50.3652 48.2102 50.3961 48.2099 50.4262 48.2156C50.4563 48.2213 50.485 48.2328 50.5107 48.2496C50.5363 48.2664 50.5584 48.288 50.5756 48.3133C50.5929 48.3386 50.605 48.367 50.6112 48.397C50.6175 48.427 50.6178 48.4578 50.6121 48.4879C50.6064 48.518 50.5948 48.5466 50.578 48.5722C50.3339 48.9443 50.0518 49.3393 49.7393 49.7459C49.7175 49.7742 49.6895 49.7972 49.6573 49.813C49.6252 49.8288 49.5899 49.8371 49.554 49.837ZM51.167 48.5651C51.1077 48.5649 51.0507 48.5421 51.0075 48.5015C50.9644 48.4608 50.9384 48.4052 50.9348 48.346C50.9313 48.2869 50.9504 48.2286 50.9883 48.1831C51.0263 48.1375 51.0801 48.1081 51.139 48.1008C51.5899 48.0427 52.0306 47.9231 52.4489 47.7451C52.5059 47.7212 52.5702 47.7209 52.6275 47.7443C52.6848 47.7677 52.7304 47.8129 52.7543 47.8699C52.7783 47.9269 52.7786 47.9911 52.7551 48.0483C52.7317 48.1055 52.6864 48.1511 52.6294 48.175C52.1716 48.3693 51.6893 48.5 51.196 48.5634C51.1864 48.5645 51.1767 48.5651 51.167 48.5651ZM49.7484 48.5173C49.7335 48.5173 49.7186 48.5159 49.704 48.5132C49.2157 48.4166 48.7429 48.2533 48.2992 48.0279C48.2444 47.9999 48.2029 47.9514 48.1837 47.8929C48.1646 47.8345 48.1693 47.7708 48.197 47.7159C48.2246 47.6609 48.2729 47.6191 48.3313 47.5995C48.3896 47.58 48.4534 47.5842 48.5086 47.6114C48.914 47.8176 49.3459 47.967 49.7921 48.0555C49.8491 48.0664 49.9 48.0982 49.9348 48.1446C49.9696 48.1909 49.9858 48.2486 49.9804 48.3063C49.9749 48.364 49.9481 48.4176 49.9052 48.4566C49.8623 48.4956 49.8064 48.5173 49.7484 48.5173ZM53.7864 47.5053C53.7366 47.5053 53.688 47.4894 53.6479 47.4599C53.6077 47.4304 53.5781 47.3888 53.5633 47.3413C53.5486 47.2938 53.5494 47.2428 53.5658 47.1957C53.5821 47.1487 53.6132 47.1082 53.6543 47.08C54.0364 46.8159 54.3989 46.5246 54.7391 46.2083C54.7616 46.1875 54.788 46.1714 54.8167 46.1608C54.8455 46.1502 54.876 46.1454 54.9066 46.1466C54.9372 46.1478 54.9673 46.155 54.9952 46.1678C55.023 46.1806 55.048 46.1988 55.0688 46.2213C55.0896 46.2437 55.1058 46.2701 55.1164 46.2988C55.127 46.3275 55.1318 46.358 55.1306 46.3886C55.1294 46.4192 55.1222 46.4492 55.1094 46.477C55.0965 46.5048 55.0783 46.5298 55.0558 46.5506C54.6991 46.882 54.3189 47.1873 53.9181 47.4641C53.8793 47.4909 53.8332 47.5053 53.786 47.5053H53.7864ZM51.0961 47.4448C51.0565 47.4447 51.0176 47.4346 50.9829 47.4154C50.9483 47.3962 50.9192 47.3685 50.8982 47.335C50.8773 47.3014 50.8653 47.2631 50.8633 47.2236C50.8612 47.1841 50.8693 47.1447 50.8867 47.1092C51.0945 46.7044 51.2487 46.2743 51.3456 45.8299C51.3573 45.7692 51.3928 45.7157 51.4441 45.6811C51.4953 45.6465 51.5583 45.6337 51.619 45.6454C51.6798 45.6572 51.7334 45.6926 51.768 45.7438C51.8027 45.795 51.8155 45.8578 51.8037 45.9185C51.6991 46.4033 51.5317 46.8725 51.3058 47.3142C51.2866 47.3534 51.2567 47.3865 51.2195 47.4096C51.1823 47.4327 51.1394 47.4449 51.0956 47.4448H51.0961ZM47.2315 47.2507C47.1698 47.2507 47.1106 47.2263 47.0668 47.1827C46.6678 46.7858 46.4656 46.3625 46.4656 45.9235C46.4656 45.8536 46.4708 45.7839 46.4811 45.7149C46.4903 45.6537 46.5234 45.5988 46.5732 45.562C46.6229 45.5253 46.6853 45.5098 46.7465 45.5189C46.8077 45.5281 46.8627 45.5612 46.8995 45.6109C46.9363 45.6605 46.9519 45.7228 46.9427 45.7839C46.9357 45.8302 46.9323 45.8769 46.9322 45.9237C46.9322 46.234 47.0884 46.5465 47.3963 46.8529C47.429 46.8854 47.4513 46.927 47.4604 46.9722C47.4694 47.0174 47.4649 47.0643 47.4472 47.107C47.4296 47.1496 47.3997 47.186 47.3613 47.2117C47.3229 47.2373 47.2777 47.251 47.2315 47.251V47.2507ZM55.8901 45.5885C55.8453 45.5884 55.8015 45.5755 55.7638 45.5513C55.7262 45.527 55.6963 45.4924 55.6778 45.4517C55.6593 45.4109 55.6529 45.3657 55.6595 45.3214C55.666 45.2771 55.6852 45.2357 55.7147 45.202C56.0101 44.8649 56.3069 44.4958 56.5969 44.1052C56.6339 44.056 56.6889 44.0235 56.7498 44.0146C56.8108 44.0058 56.8728 44.0214 56.9223 44.058C56.9718 44.0946 57.0048 44.1493 57.014 44.2102C57.0233 44.271 57.0081 44.333 56.9718 44.3827C56.6743 44.7835 56.3695 45.1624 56.0658 45.509C56.0439 45.534 56.0168 45.5541 55.9864 45.5679C55.956 45.5816 55.923 45.5886 55.8897 45.5885H55.8901ZM47.5009 44.8381C47.4519 44.8381 47.4042 44.8227 47.3645 44.7941C47.3247 44.7655 47.295 44.7252 47.2795 44.6788C47.2641 44.6324 47.2636 44.5823 47.2782 44.5356C47.2928 44.4889 47.3217 44.448 47.3609 44.4187C47.7686 44.1203 48.2265 43.8971 48.7129 43.7599C48.7718 43.7443 48.8345 43.7523 48.8875 43.7822C48.9406 43.8122 48.9798 43.8616 48.9968 43.9201C49.0138 43.9785 49.0072 44.0412 48.9785 44.0949C48.9498 44.1486 48.9012 44.1889 48.8431 44.2073C48.4113 44.3297 48.0045 44.5274 47.6414 44.791C47.6008 44.8216 47.5513 44.838 47.5004 44.8377L47.5009 44.8381ZM51.4022 44.7291C51.3632 44.7291 51.3249 44.7193 51.2906 44.7007C51.2564 44.6821 51.2274 44.6552 51.2062 44.6225C50.9569 44.2376 50.501 44.1105 50.1625 44.0717C50.1318 44.0685 50.102 44.0593 50.075 44.0446C50.0479 44.0298 50.024 44.0098 50.0047 43.9858C49.9854 43.9618 49.971 43.9342 49.9625 43.9046C49.9539 43.875 49.9513 43.844 49.9548 43.8133C49.9584 43.7827 49.9679 43.7531 49.983 43.7262C49.998 43.6993 50.0183 43.6757 50.0426 43.6567C50.0668 43.6376 50.0946 43.6236 50.1244 43.6154C50.1541 43.6072 50.1852 43.6049 50.2158 43.6088C50.8445 43.6808 51.3224 43.9443 51.598 44.3695C51.6208 44.4046 51.6337 44.4453 51.6353 44.4872C51.6369 44.5291 51.6271 44.5706 51.6071 44.6074C51.587 44.6443 51.5574 44.675 51.5213 44.6964C51.4852 44.7178 51.444 44.7291 51.402 44.7291H51.4022ZM57.5954 43.3029C57.5535 43.3029 57.5124 43.2916 57.4764 43.2702C57.4403 43.2488 57.4107 43.2182 57.3907 43.1814C57.3706 43.1446 57.3609 43.1032 57.3624 43.0613C57.3639 43.0195 57.3767 42.9789 57.3994 42.9437C57.6498 42.5557 57.8959 42.1487 58.1312 41.7341C58.1462 41.7072 58.1663 41.6836 58.1905 41.6646C58.2146 41.6455 58.2423 41.6315 58.272 41.6232C58.3016 41.6149 58.3326 41.6125 58.3632 41.6162C58.3937 41.6199 58.4232 41.6296 58.45 41.6448C58.4768 41.6599 58.5003 41.6802 58.5192 41.7045C58.5381 41.7288 58.552 41.7566 58.5601 41.7862C58.5682 41.8159 58.5703 41.8468 58.5664 41.8773C58.5625 41.9078 58.5525 41.9372 58.5372 41.9639C58.2976 42.3861 58.0468 42.8006 57.7918 43.196C57.7706 43.229 57.7415 43.2561 57.7071 43.2749C57.6726 43.2936 57.634 43.3034 57.5948 43.3033L57.5954 43.3029Z" fill="#52B6C3"/>
<path d="M46.2298 53.551C46.1837 53.551 46.1386 53.5374 46.1002 53.5118C46.0619 53.4862 46.032 53.4499 46.0143 53.4073C45.9966 53.3647 45.9919 53.3179 46.0008 53.2727C46.0097 53.2274 46.0318 53.1858 46.0643 53.1532C46.2323 52.9852 46.3955 52.8197 46.5539 52.6569C46.5971 52.6126 46.6561 52.5872 46.718 52.5864C46.7799 52.5856 46.8396 52.6095 46.8839 52.6527C46.9282 52.6959 46.9536 52.7549 46.9543 52.8168C46.9551 52.8787 46.9313 52.9383 46.8881 52.9826C46.7282 53.1467 46.5637 53.3135 46.3945 53.4829C46.3729 53.5045 46.3472 53.5217 46.3189 53.5334C46.2906 53.5451 46.2603 53.5511 46.2298 53.551Z" fill="#52B6C3"/>
</g>
<defs>
<clipPath id="clip0">
<rect width="130" height="130" fill="white"/>
</clipPath>
</defs>
</svg>
