<svg width="130" height="130" viewBox="0 0 130 130" fill="none" xmlns="http://www.w3.org/2000/svg">
<g clip-path="url(#clip0)">
<path d="M32.177 21.1333C32.177 21.1333 51.8179 36.1749 81.6771 8.04986C108.195 -16.9273 129.847 22.4811 129.999 41.3531C130.195 65.7996 103.481 85.3606 116.445 101.418C129.41 117.474 90.7351 143.99 69.8914 121.042C43.9627 92.497 36.9383 115.69 22.159 115.69C11.5518 115.69 -10.2259 89.0921 4.48031 69.3038C16.8554 52.6523 10.1063 47.126 6.83789 41.3531C2.12319 33.0273 13.3197 10.4288 32.177 21.1333Z" fill="#E2FCFF" fill-opacity="0.5"/>
<path fill-rule="evenodd" clip-rule="evenodd" d="M111.246 69.2875L106.732 119.693L53.6063 106.447L58.1207 56.0417L111.246 69.2875Z" fill="#153E90" stroke="#153E90"/>
<path fill-rule="evenodd" clip-rule="evenodd" d="M111.262 69.2913C111.192 71.3971 110.053 88.9113 91.4687 111.545L33.0383 96.977C50.4618 82.9093 56.3423 58.6372 56.9885 55.7595L111.262 69.2913Z" fill="white" stroke="#153E90"/>
<path d="M70.2551 71.2649L97.9697 78.1749" stroke="#153E90" stroke-linecap="square"/>
<path d="M66.0902 81.0803L90.1816 87.087" stroke="#153E90" stroke-linecap="square"/>
<path d="M60.3972 89.4299L86.3796 95.9081" stroke="#153E90" stroke-linecap="square"/>
<path d="M61.1756 72.7999C62.6876 73.1768 64.1985 72.3386 64.5503 70.9277C64.902 69.5168 63.9615 68.0674 62.4496 67.6904C60.9376 67.3134 59.4267 68.1516 59.0749 69.5625C58.7232 70.9735 59.6637 72.4229 61.1756 72.7999Z" fill="#153E90" stroke="#153E90"/>
<path d="M57.7873 81.7239C59.2993 82.1009 60.8102 81.2627 61.162 79.8518C61.5137 78.4408 60.5732 76.9914 59.0613 76.6145C57.5493 76.2375 56.0384 77.0757 55.6866 78.4866C55.3349 79.8976 56.2754 81.3469 57.7873 81.7239Z" fill="#153E90" stroke="#153E90"/>
<path d="M53.3042 90.3748C54.8162 90.7518 56.3271 89.9136 56.6789 88.5026C57.0307 87.0917 56.0901 85.6423 54.5782 85.2653C53.0662 84.8884 51.5553 85.7266 51.2035 87.1375C50.8518 88.5484 51.7923 89.9978 53.3042 90.3748Z" fill="#153E90" stroke="#153E90"/>
<path d="M34.4377 68.6677L22.6899 81.2658" stroke="#153E90" stroke-linecap="square"/>
<path fill-rule="evenodd" clip-rule="evenodd" d="M62.887 23.698L80.1963 39.8393L44.9528 77.6335L27.6435 61.4922L62.887 23.698Z" fill="#E8E7E7"/>
<path fill-rule="evenodd" clip-rule="evenodd" d="M43.799 42.2397C55.0956 44.0069 50.5405 55.8322 61.1083 58.381C54.549 65.4149 46.5088 74.0371 46.5088 74.0371L29.1995 57.8959C29.1995 57.8959 36.5109 50.0552 43.799 42.2397Z" fill="#52B6C3"/>
<path d="M70.1059 39.6826L73.0509 42.4289" stroke="#153E90" stroke-linecap="square"/>
<path d="M65.9103 44.182L68.8553 46.9283" stroke="#153E90" stroke-linecap="square"/>
<path d="M61.7147 48.6814L64.6597 51.4277" stroke="#153E90" stroke-linecap="square"/>
<path fill-rule="evenodd" clip-rule="evenodd" d="M42.0978 42.5329C47.5005 43.4301 49.1277 46.7276 50.6682 50.1065L50.8103 50.4185C50.8615 50.5311 50.9128 50.6436 50.9641 50.7562L51.1969 51.2617C51.249 51.3739 51.3015 51.4858 51.3544 51.5975L51.5146 51.9318C52.8905 54.7654 54.6432 57.3843 58.7995 58.5322L44.6948 73.6577L27.7813 57.8856L42.0978 42.5329Z" stroke="#153E90"/>
<path d="M72.9564 12.8997L86.4192 25.454" stroke="#153E90" stroke-linecap="square"/>
<path fill-rule="evenodd" clip-rule="evenodd" d="M83.1521 22.7771L75.1299 31.3798L67.8327 24.5751L75.8549 15.9723L83.1521 22.7771Z" stroke="#153E90"/>
<path fill-rule="evenodd" clip-rule="evenodd" d="M38.8826 68.2859L35.8952 71.4896L31.4829 67.375L34.4703 64.1714L38.8826 68.2859Z" fill="#F7F7F7" stroke="#153E90"/>
<path fill-rule="evenodd" clip-rule="evenodd" d="M79.569 36.2594L44.6946 73.6578L27.7811 57.8857L62.6555 20.4873L79.569 36.2594Z" stroke="#153E90"/>
</g>
<defs>
<clipPath id="clip0">
<rect width="130" height="130" fill="white"/>
</clipPath>
</defs>
</svg>
