<svg width="130" height="130" viewBox="0 0 130 130" fill="none" xmlns="http://www.w3.org/2000/svg">
<g clip-path="url(#clip0)">
<path d="M32.177 21.1333C32.177 21.1333 51.8179 36.1749 81.6772 8.04986C108.195 -16.9273 129.847 22.4811 129.999 41.3531C130.195 65.7996 103.481 85.3606 116.445 101.418C129.41 117.474 90.7351 143.99 69.8915 121.042C43.9627 92.497 36.9383 115.69 22.1591 115.69C11.5518 115.69 -10.2259 89.0921 4.48034 69.3038C16.8555 52.6523 10.1063 47.126 6.83792 41.3531C2.12322 33.0273 13.3198 10.4288 32.177 21.1333Z" fill="#E2FCFF" fill-opacity="0.5"/>
<g clip-path="url(#clip1)">
<path d="M19.4795 39.8277C21.3193 39.8277 22.8107 38.3486 22.8107 36.524C22.8107 34.6994 21.3193 33.2202 19.4795 33.2202C17.6398 33.2202 16.1484 34.6994 16.1484 36.524C16.1484 38.3486 17.6398 39.8277 19.4795 39.8277Z" fill="#153E90"/>
<path d="M31.6111 30C31.3452 30.0003 31.0902 30.1052 30.9022 30.2917C30.7141 30.4782 30.6084 30.731 30.6081 30.9948V42.053C30.6084 42.3168 30.7141 42.5696 30.9022 42.7561C31.0902 42.9426 31.3452 43.0475 31.6111 43.0478H84.9972C85.2631 43.0475 85.5181 42.9426 85.7061 42.7561C85.8941 42.5696 85.9999 42.3168 86.0002 42.053V30.9948C85.9999 30.731 85.8941 30.4782 85.7061 30.2917C85.5181 30.1052 85.2631 30.0003 84.9972 30H31.6111Z" fill="#E8E7E7"/>
<path d="M31.9717 30.7756C31.8175 30.7758 31.6696 30.8366 31.5606 30.9447C31.4515 31.0528 31.3902 31.1995 31.39 31.3524V41.6953C31.3902 41.8482 31.4515 41.9948 31.5606 42.103C31.6696 42.2111 31.8175 42.2719 31.9716 42.272H84.6365C84.7907 42.2719 84.9385 42.2111 85.0475 42.1029C85.1565 41.9948 85.2178 41.8482 85.218 41.6953V31.3524C85.2178 31.1995 85.1565 31.0529 85.0475 30.9447C84.9385 30.8366 84.7907 30.7758 84.6365 30.7756H31.9717Z" fill="#153E90"/>
<path d="M81.3296 39.4358C81.4538 39.4359 81.5768 39.4118 81.6916 39.3648C81.8064 39.3178 81.9107 39.2488 81.9986 39.1618C82.0865 39.0747 82.1562 38.9714 82.2038 38.8576C82.2514 38.7438 82.2759 38.6218 82.2759 38.4986C82.2759 38.3755 82.2514 38.2535 82.2038 38.1397C82.1562 38.0259 82.0865 37.9226 81.9986 37.8355C81.9107 37.7485 81.8064 37.6795 81.6916 37.6325C81.5768 37.5855 81.4538 37.5613 81.3296 37.5615H36.7844C36.534 37.5619 36.2941 37.6608 36.1171 37.8365C35.9402 38.0122 35.8409 38.2503 35.8409 38.4986C35.8409 38.7469 35.9402 38.9851 36.1171 39.1608C36.2941 39.3365 36.534 39.4354 36.7844 39.4358H81.3296Z" fill="#52B6C3"/>
<path d="M55.9521 35.3645C56.2027 35.3645 56.443 35.2657 56.6202 35.09C56.7974 34.9143 56.897 34.6759 56.897 34.4274C56.897 34.1788 56.7974 33.9405 56.6202 33.7647C56.443 33.589 56.2027 33.4902 55.9521 33.4902H36.7841C36.5335 33.4902 36.2932 33.589 36.116 33.7647C35.9388 33.9405 35.8392 34.1788 35.8392 34.4274C35.8392 34.6759 35.9388 34.9143 36.116 35.09C36.2932 35.2657 36.5335 35.3645 36.7841 35.3645H55.9521Z" fill="#52B6C3"/>
<path d="M19.4795 61.7122C21.3193 61.7122 22.8107 60.2331 22.8107 58.4085C22.8107 56.5839 21.3193 55.1047 19.4795 55.1047C17.6398 55.1047 16.1484 56.5839 16.1484 58.4085C16.1484 60.2331 17.6398 61.7122 19.4795 61.7122Z" fill="#153E90"/>
<path d="M31.6111 51.8845C31.3452 51.8848 31.0902 51.9897 30.9022 52.1762C30.7141 52.3627 30.6084 52.6155 30.6081 52.8793V63.9376C30.6084 64.2013 30.7141 64.4541 30.9022 64.6406C31.0902 64.8271 31.3452 64.932 31.6111 64.9323H84.9972C85.2631 64.932 85.5181 64.8271 85.7061 64.6406C85.8941 64.4541 85.9999 64.2013 86.0002 63.9376V52.8793C85.9999 52.6155 85.8941 52.3627 85.7061 52.1762C85.5181 51.9897 85.2631 51.8848 84.9972 51.8845H31.6111Z" fill="#E8E7E7"/>
<path d="M31.9717 52.6602C31.8175 52.6603 31.6696 52.7211 31.5606 52.8292C31.4515 52.9374 31.3902 53.084 31.39 53.2369V63.5798C31.3902 63.7328 31.4515 63.8794 31.5606 63.9875C31.6696 64.0956 31.8175 64.1564 31.9716 64.1566H84.6365C84.7907 64.1564 84.9385 64.0956 85.0475 63.9875C85.1565 63.8793 85.2178 63.7327 85.218 63.5798V53.2369C85.2178 53.084 85.1565 52.9374 85.0475 52.8293C84.9385 52.7211 84.7907 52.6603 84.6365 52.6602H31.9717Z" fill="#153E90"/>
<path d="M81.3296 61.3205C81.4538 61.3207 81.5768 61.2966 81.6916 61.2496C81.8064 61.2026 81.9107 61.1336 81.9986 61.0465C82.0865 60.9595 82.1562 60.8561 82.2038 60.7424C82.2514 60.6286 82.2759 60.5066 82.2759 60.3834C82.2759 60.2602 82.2514 60.1383 82.2038 60.0245C82.1562 59.9107 82.0865 59.8073 81.9986 59.7203C81.9107 59.6332 81.8064 59.5642 81.6916 59.5172C81.5768 59.4702 81.4538 59.4461 81.3296 59.4463H36.7844C36.534 59.4467 36.2941 59.5455 36.1171 59.7213C35.9402 59.897 35.8409 60.1351 35.8409 60.3834C35.8409 60.6317 35.9402 60.8699 36.1171 61.0456C36.2941 61.2213 36.534 61.3202 36.7844 61.3205H81.3296Z" fill="#52B6C3"/>
<path d="M55.9521 57.249C56.2027 57.249 56.443 57.1503 56.6202 56.9745C56.7974 56.7988 56.897 56.5604 56.897 56.3119C56.897 56.0633 56.7974 55.825 56.6202 55.6492C56.443 55.4735 56.2027 55.3748 55.9521 55.3748H36.7841C36.66 55.3748 36.5371 55.399 36.4225 55.4461C36.3079 55.4932 36.2037 55.5622 36.116 55.6492C36.0282 55.7363 35.9586 55.8396 35.9111 55.9533C35.8636 56.067 35.8392 56.1888 35.8392 56.3119C35.8392 56.4349 35.8636 56.5568 35.9111 56.6705C35.9586 56.7842 36.0282 56.8875 36.116 56.9745C36.2037 57.0615 36.3079 57.1306 36.4225 57.1777C36.5371 57.2248 36.66 57.249 36.7841 57.249H55.9521Z" fill="#52B6C3"/>
<path d="M19.4795 83.597C21.3193 83.597 22.8107 82.1179 22.8107 80.2933C22.8107 78.4686 21.3193 76.9895 19.4795 76.9895C17.6398 76.9895 16.1484 78.4686 16.1484 80.2933C16.1484 82.1179 17.6398 83.597 19.4795 83.597Z" fill="#153E90"/>
<path d="M31.6111 73.7693C31.3452 73.7696 31.0902 73.8745 30.9022 74.061C30.7141 74.2475 30.6084 74.5003 30.6081 74.764V85.8223C30.6084 86.0861 30.7141 86.3389 30.9022 86.5254C31.0902 86.7119 31.3452 86.8168 31.6111 86.8171H84.9972C85.2631 86.8168 85.5181 86.7119 85.7061 86.5254C85.8941 86.3389 85.9999 86.0861 86.0002 85.8223V74.764C85.9999 74.5003 85.8941 74.2475 85.7061 74.061C85.5181 73.8745 85.2631 73.7696 84.9972 73.7693H31.6111Z" fill="#E8E7E7"/>
<path d="M31.9717 74.5452C31.8175 74.5453 31.6696 74.6061 31.5606 74.7143C31.4515 74.8224 31.3902 74.969 31.39 75.1219V85.4648C31.3902 85.6178 31.4515 85.7644 31.5606 85.8725C31.6696 85.9806 31.8175 86.0414 31.9716 86.0416H84.6365C84.7907 86.0414 84.9385 85.9806 85.0475 85.8725C85.1565 85.7643 85.2178 85.6177 85.218 85.4648V75.1219C85.2178 74.969 85.1565 74.8224 85.0475 74.7143C84.9385 74.6061 84.7907 74.5453 84.6365 74.5452H31.9717Z" fill="#153E90"/>
<path d="M81.3296 83.2051C81.4538 83.2052 81.5768 83.1811 81.6916 83.1341C81.8064 83.0871 81.9107 83.0181 81.9986 82.9311C82.0865 82.844 82.1562 82.7407 82.2038 82.6269C82.2514 82.5131 82.2759 82.3911 82.2759 82.2679C82.2759 82.1448 82.2514 82.0228 82.2038 81.909C82.1562 81.7952 82.0865 81.6918 81.9986 81.6048C81.9107 81.5178 81.8064 81.4488 81.6916 81.4018C81.5768 81.3547 81.4538 81.3306 81.3296 81.3308H36.7844C36.534 81.3312 36.2941 81.4301 36.1171 81.6058C35.9402 81.7815 35.8409 82.0196 35.8409 82.2679C35.8409 82.5162 35.9402 82.7544 36.1171 82.9301C36.2941 83.1058 36.534 83.2047 36.7844 83.2051H81.3296Z" fill="#52B6C3"/>
<path d="M55.9521 79.134C56.2027 79.134 56.443 79.0353 56.6202 78.8595C56.7974 78.6838 56.897 78.4454 56.897 78.1969C56.897 77.9483 56.7974 77.71 56.6202 77.5342C56.443 77.3585 56.2027 77.2598 55.9521 77.2598H36.7841C36.5335 77.2598 36.2932 77.3585 36.116 77.5342C35.9388 77.71 35.8392 77.9483 35.8392 78.1969C35.8392 78.4454 35.9388 78.6838 36.116 78.8595C36.2932 79.0353 36.5335 79.134 36.7841 79.134H55.9521Z" fill="#52B6C3"/>
</g>
<path d="M90.7063 109.199C86.2283 109.199 82.5982 105.62 82.5982 101.205C82.5982 96.7907 86.2283 93.2119 90.7063 93.2119C95.1843 93.2119 98.8145 96.7907 98.8145 101.205C98.8145 105.62 95.1843 109.199 90.7063 109.199Z" fill="#153E90"/>
<path d="M96.1206 92.644C97.2443 92.6441 98.344 92.323 99.2865 91.7197C100.229 91.1165 100.974 90.2568 101.431 89.2448L114.297 60.6803C114.723 59.7341 114.949 58.712 114.96 57.6767C114.97 56.6415 114.766 55.615 114.36 54.6604C113.953 53.7058 113.353 52.8432 112.596 52.1257C111.839 51.4081 110.941 50.8508 109.958 50.488C108.974 50.1251 107.926 49.9644 106.877 50.0157C105.828 50.067 104.801 50.3292 103.859 50.7862C102.916 51.2432 102.079 51.8854 101.398 52.6733C100.716 53.4612 100.206 54.3781 99.897 55.3677L90.5804 85.2418C90.3137 86.0969 90.2541 87.0018 90.4064 87.8837C90.5588 88.7656 90.9188 89.6 91.4576 90.3199C91.9964 91.0397 92.6989 91.625 93.5087 92.0286C94.3186 92.4323 95.2132 92.643 96.1206 92.644H96.1206Z" fill="#153E90"/>
</g>
<defs>
<clipPath id="clip0">
<rect width="130" height="130" fill="white"/>
</clipPath>
<clipPath id="clip1">
<rect width="70" height="57" fill="white" transform="translate(16 30)"/>
</clipPath>
</defs>
</svg>
