<svg width="350" height="350" viewBox="0 0 350 350" fill="none" xmlns="http://www.w3.org/2000/svg">
<g clip-path="url(#clip0)">
<path d="M86.6303 56.8974C86.6303 56.8974 139.51 97.394 219.9 21.6727C291.294 -45.5735 349.589 60.526 349.997 111.335C350.526 177.153 278.602 229.817 313.507 273.047C348.411 316.277 244.287 387.665 188.169 325.884C118.361 249.03 99.4493 311.474 59.659 311.474C31.1009 311.474 -27.5313 239.863 12.0624 186.587C45.3801 141.756 27.2093 126.878 18.4097 111.335C5.71632 88.9196 35.8608 28.0775 86.6303 56.8974Z" fill="#E2FCFF" fill-opacity="0.5"/>
<path d="M298.009 76.2256H50.3171V259.302H298.009V76.2256Z" fill="#52B6C3"/>
<path d="M298.01 76.2256H56.7054V259.302H298.01V76.2256Z" fill="#F6F8FB"/>
<path d="M295.173 79.075H58.8358V91.8975H295.173V79.075Z" fill="white"/>
<path d="M295.173 91.1851H58.8358V256.453H295.173V91.1851Z" fill="#153E90"/>
<path d="M126.914 97.885H97.8474V131.238H126.914V97.885Z" fill="#E8E7E7"/>
<path d="M159.525 97.885H130.459V131.238H159.525V97.885Z" fill="#E8E7E7"/>
<path d="M191.428 97.885H162.361V131.238H191.428V97.885Z" fill="#E8E7E7"/>
<path d="M224.039 97.885H194.972V131.238H224.039V97.885Z" fill="white"/>
<path d="M255.942 97.885H226.875V131.238H255.942V97.885Z" fill="white"/>
<path d="M288.555 97.885H259.488V131.238H288.555V97.885Z" fill="white"/>
<path d="M126.914 136.313H97.8474V169.666H126.914V136.313Z" fill="white"/>
<path d="M159.525 136.313H130.459V169.666H159.525V136.313Z" fill="white"/>
<path d="M191.428 136.313H162.361V169.666H191.428V136.313Z" fill="#F6F8FB"/>
<path d="M224.039 136.313H194.972V169.666H224.039V136.313Z" fill="white"/>
<path d="M255.942 136.313H226.875V169.666H255.942V136.313Z" fill="white"/>
<path d="M288.555 136.313H259.488V169.666H288.555V136.313Z" fill="white"/>
<path d="M126.914 173.292H97.8474V206.645H126.914V173.292Z" fill="white"/>
<path d="M159.525 173.292H130.459V206.645H159.525V173.292Z" fill="white"/>
<path d="M191.428 173.292H162.361V206.645H191.428V173.292Z" fill="#F6F8FB"/>
<path d="M224.039 173.292H194.972V206.645H224.039V173.292Z" fill="white"/>
<path d="M255.942 173.292H226.875V206.645H255.942V173.292Z" fill="#F6F8FB"/>
<path d="M288.555 173.292H259.488V206.645H288.555V173.292Z" fill="white"/>
<path d="M127.625 210.995H98.5584V244.348H127.625V210.995Z" fill="#F6F8FB"/>
<path d="M160.236 210.995H131.169V244.348H160.236V210.995Z" fill="#F6F8FB"/>
<path d="M192.139 210.995H163.072V244.348H192.139V210.995Z" fill="white"/>
<path d="M224.75 210.995H195.683V244.348H224.75V210.995Z" fill="white"/>
<path d="M256.652 210.995H227.586V244.348H256.652V210.995Z" fill="#E8E7E7"/>
<path d="M289.263 210.995H260.196V244.348H289.263V210.995Z" fill="white"/>
<path d="M65.5909 88.4595C66.9613 88.4595 68.0722 87.3233 68.0722 85.9218C68.0722 84.5202 66.9613 83.384 65.5909 83.384C64.2205 83.384 63.1096 84.5202 63.1096 85.9218C63.1096 87.3233 64.2205 88.4595 65.5909 88.4595Z" fill="#52B6C3"/>
<path d="M73.3884 88.4595C74.7588 88.4595 75.8697 87.3233 75.8697 85.9218C75.8697 84.5202 74.7588 83.384 73.3884 83.384C72.018 83.384 70.907 84.5202 70.907 85.9218C70.907 87.3233 72.018 88.4595 73.3884 88.4595Z" fill="#52B6C3"/>
<path d="M81.188 88.4595C82.5584 88.4595 83.6694 87.3233 83.6694 85.9218C83.6694 84.5202 82.5584 83.384 81.188 83.384C79.8176 83.384 78.7067 84.5202 78.7067 85.9218C78.7067 87.3233 79.8176 88.4595 81.188 88.4595Z" fill="#52B6C3"/>
<path d="M69.1348 135.588H88.9853C90.7577 135.588 92.1756 137.039 92.1756 138.851C92.1756 140.664 90.7577 142.114 88.9853 142.114H69.1348C67.3625 142.114 65.9446 140.664 65.9446 138.851C65.9446 137.111 67.3625 135.588 69.1348 135.588Z" fill="white"/>
<path d="M69.1348 173.292H88.9853C90.7577 173.292 92.1756 174.742 92.1756 176.555C92.1756 178.367 90.7577 179.817 88.9853 179.817H69.1348C67.3625 179.817 65.9446 178.367 65.9446 176.555C65.9446 174.814 67.3625 173.292 69.1348 173.292Z" fill="white"/>
<path d="M69.1348 210.995H88.9853C90.7577 210.995 92.1756 212.445 92.1756 214.258C92.1756 216.07 90.7577 217.52 88.9853 217.52H69.1348C67.3625 217.52 65.9446 216.07 65.9446 214.258C65.9446 212.518 67.3625 210.995 69.1348 210.995Z" fill="white"/>
<path d="M103.164 138.489H114.507C115.854 138.489 116.989 139.649 116.989 141.026C116.989 142.404 115.854 143.564 114.507 143.564H103.164C101.817 143.564 100.683 142.404 100.683 141.026C100.683 139.649 101.817 138.489 103.164 138.489Z" fill="#52B6C3"/>
<path d="M102.455 147.915H107.418C108.41 147.915 109.19 148.712 109.19 149.727C109.19 150.742 108.41 151.54 107.418 151.54H102.455C101.463 151.54 100.683 150.742 100.683 149.727C100.683 148.785 101.463 147.915 102.455 147.915Z" fill="#52B6C3"/>
<path d="M136.131 138.489H147.474C148.679 138.489 149.601 139.431 149.601 140.664C149.601 141.896 148.679 142.839 147.474 142.839H136.131C134.926 142.839 134.004 141.896 134.004 140.664C134.004 139.504 134.926 138.489 136.131 138.489Z" fill="#52B6C3"/>
<path d="M232.547 216.071H243.89C245.096 216.071 246.017 217.013 246.017 218.246C246.017 219.478 245.096 220.421 243.89 220.421H232.547C231.342 220.421 230.421 219.478 230.421 218.246C230.421 217.086 231.342 216.071 232.547 216.071Z" fill="white"/>
<path d="M264.45 176.917H275.793C276.999 176.917 277.92 177.86 277.92 179.092C277.92 180.325 276.999 181.267 275.793 181.267H264.45C263.245 181.267 262.323 180.325 262.323 179.092C262.323 177.932 263.245 176.917 264.45 176.917Z" fill="#F6F8FB"/>
<path d="M263.742 139.214H275.085C276.291 139.214 277.212 140.156 277.212 141.389C277.212 142.622 276.291 143.564 275.085 143.564H263.742C262.537 143.564 261.615 142.622 261.615 141.389C261.615 140.229 262.537 139.214 263.742 139.214Z" fill="#F6F8FB"/>
<path d="M231.839 139.214H243.183C244.388 139.214 245.309 140.156 245.309 141.389C245.309 142.622 244.388 143.564 243.183 143.564H231.839C230.634 143.564 229.713 142.622 229.713 141.389C229.713 140.229 230.634 139.214 231.839 139.214Z" fill="#F6F8FB"/>
<path d="M136.84 151.54C138.406 151.54 139.676 150.241 139.676 148.64C139.676 147.038 138.406 145.739 136.84 145.739C135.274 145.739 134.004 147.038 134.004 148.64C134.004 150.241 135.274 151.54 136.84 151.54Z" fill="#52B6C3"/>
<path d="M201.354 146.465C202.92 146.465 204.189 145.166 204.189 143.564C204.189 141.963 202.92 140.664 201.354 140.664C199.787 140.664 198.518 141.963 198.518 143.564C198.518 145.166 199.787 146.465 201.354 146.465Z" fill="#52B6C3"/>
<path d="M211.278 146.465C212.844 146.465 214.114 145.166 214.114 143.564C214.114 141.963 212.844 140.664 211.278 140.664C209.712 140.664 208.442 141.963 208.442 143.564C208.442 145.166 209.712 146.465 211.278 146.465Z" fill="#52B6C3"/>
<path d="M211.278 182.717C212.844 182.717 214.114 181.419 214.114 179.817C214.114 178.215 212.844 176.917 211.278 176.917C209.712 176.917 208.442 178.215 208.442 179.817C208.442 181.419 209.712 182.717 211.278 182.717Z" fill="#52B6C3"/>
<path d="M201.354 182.717C202.92 182.717 204.189 181.419 204.189 179.817C204.189 178.215 202.92 176.917 201.354 176.917C199.787 176.917 198.518 178.215 198.518 179.817C198.518 181.419 199.787 182.717 201.354 182.717Z" fill="#52B6C3"/>
<path d="M210.57 219.696C212.136 219.696 213.406 218.397 213.406 216.796C213.406 215.194 212.136 213.895 210.57 213.895C209.004 213.895 207.734 215.194 207.734 216.796C207.734 218.397 209.004 219.696 210.57 219.696Z" fill="#52B6C3"/>
<path d="M200.646 219.696C202.212 219.696 203.481 218.397 203.481 216.796C203.481 215.194 202.212 213.895 200.646 213.895C199.079 213.895 197.81 215.194 197.81 216.796C197.81 218.397 199.079 219.696 200.646 219.696Z" fill="#52B6C3"/>
<path d="M114.154 220.421C115.72 220.421 116.99 219.122 116.99 217.52C116.99 215.919 115.72 214.62 114.154 214.62C112.588 214.62 111.318 215.919 111.318 217.52C111.318 219.122 112.588 220.421 114.154 220.421Z" fill="#52B6C3"/>
<path d="M104.229 220.421C105.795 220.421 107.065 219.122 107.065 217.52C107.065 215.919 105.795 214.62 104.229 214.62C102.663 214.62 101.393 215.919 101.393 217.52C101.393 219.122 102.663 220.421 104.229 220.421Z" fill="#52B6C3"/>
<path d="M201.354 107.311C202.92 107.311 204.189 106.013 204.189 104.411C204.189 102.809 202.92 101.51 201.354 101.51C199.787 101.51 198.518 102.809 198.518 104.411C198.518 106.013 199.787 107.311 201.354 107.311Z" fill="#52B6C3"/>
<path d="M168.032 107.311C169.598 107.311 170.868 106.013 170.868 104.411C170.868 102.809 169.598 101.51 168.032 101.51C166.466 101.51 165.196 102.809 165.196 104.411C165.196 106.013 166.466 107.311 168.032 107.311Z" fill="white"/>
<path d="M177.959 107.311C179.525 107.311 180.795 106.013 180.795 104.411C180.795 102.809 179.525 101.51 177.959 101.51C176.393 101.51 175.123 102.809 175.123 104.411C175.123 106.013 176.393 107.311 177.959 107.311Z" fill="white"/>
<path d="M136.132 107.311C137.698 107.311 138.968 106.013 138.968 104.411C138.968 102.809 137.698 101.51 136.132 101.51C134.566 101.51 133.296 102.809 133.296 104.411C133.296 106.013 134.566 107.311 136.132 107.311Z" fill="white"/>
<path d="M146.057 107.311C147.623 107.311 148.892 106.013 148.892 104.411C148.892 102.809 147.623 101.51 146.057 101.51C144.49 101.51 143.221 102.809 143.221 104.411C143.221 106.013 144.49 107.311 146.057 107.311Z" fill="white"/>
<path d="M104.229 107.311C105.795 107.311 107.065 106.013 107.065 104.411C107.065 102.809 105.795 101.51 104.229 101.51C102.663 101.51 101.393 102.809 101.393 104.411C101.393 106.013 102.663 107.311 104.229 107.311Z" fill="white"/>
<path d="M114.154 107.311C115.72 107.311 116.99 106.013 116.99 104.411C116.99 102.809 115.72 101.51 114.154 101.51C112.588 101.51 111.318 102.809 111.318 104.411C111.318 106.013 112.588 107.311 114.154 107.311Z" fill="white"/>
<path d="M218.982 120.153H220.758V121.48H218.982V124.451H217.347V121.48H211.52V120.522L217.251 111.654H218.982V120.153ZM213.366 120.153H217.347V113.877L217.154 114.229L213.366 120.153Z" fill="#153E90"/>
<path d="M154.421 124.845H146.036V123.676L150.466 118.754C151.122 118.01 151.573 117.406 151.819 116.944C152.071 116.475 152.197 115.991 152.197 115.493C152.197 114.825 151.995 114.278 151.591 113.85C151.186 113.422 150.647 113.208 149.974 113.208C149.165 113.208 148.535 113.44 148.084 113.903C147.639 114.36 147.416 114.998 147.416 115.819H145.79C145.79 114.641 146.168 113.689 146.924 112.962C147.685 112.236 148.702 111.872 149.974 111.872C151.163 111.872 152.103 112.186 152.795 112.813C153.486 113.434 153.832 114.263 153.832 115.3C153.832 116.56 153.029 118.06 151.424 119.8L147.996 123.518H154.421V124.845Z" fill="#153E90"/>
<path d="M122.99 150.52L117.691 162.403H115.985L121.268 150.942H114.342V149.606H122.99V150.52Z" fill="#153E90"/>
<path d="M205.056 162.437H203.422V151.6L200.143 152.804V151.327L204.801 149.578H205.056V162.437ZM217.844 156.979C217.844 158.883 217.519 160.298 216.869 161.224C216.218 162.149 215.202 162.612 213.819 162.612C212.454 162.612 211.443 162.161 210.787 161.259C210.13 160.351 209.791 158.997 209.767 157.198V155.027C209.767 153.146 210.092 151.749 210.743 150.835C211.393 149.921 212.413 149.464 213.801 149.464C215.178 149.464 216.192 149.906 216.842 150.791C217.493 151.67 217.827 153.029 217.844 154.869V156.979ZM216.218 154.755C216.218 153.378 216.025 152.376 215.638 151.749C215.252 151.116 214.639 150.8 213.801 150.8C212.969 150.8 212.363 151.113 211.982 151.74C211.601 152.367 211.405 153.331 211.393 154.632V157.233C211.393 158.616 211.592 159.639 211.991 160.301C212.395 160.957 213.005 161.285 213.819 161.285C214.622 161.285 215.216 160.975 215.603 160.354C215.996 159.732 216.201 158.754 216.218 157.418V154.755Z" fill="#153E90"/>
<path d="M173.156 200.422H171.521V189.585L168.243 190.789V189.313L172.901 187.564H173.156V200.422ZM178.667 194.006L179.317 187.625H185.874V189.128H180.697L180.31 192.617C180.937 192.248 181.649 192.064 182.446 192.064C183.612 192.064 184.538 192.45 185.224 193.224C185.909 193.991 186.252 195.031 186.252 196.344C186.252 197.662 185.894 198.702 185.18 199.464C184.471 200.22 183.477 200.598 182.2 200.598C181.069 200.598 180.146 200.284 179.432 199.657C178.717 199.031 178.31 198.163 178.21 197.056H179.748C179.848 197.788 180.108 198.342 180.53 198.717C180.952 199.086 181.509 199.271 182.2 199.271C182.956 199.271 183.548 199.013 183.976 198.497C184.409 197.982 184.626 197.27 184.626 196.362C184.626 195.506 184.392 194.821 183.923 194.305C183.46 193.783 182.842 193.523 182.068 193.523C181.359 193.523 180.803 193.678 180.398 193.989L179.968 194.34L178.667 194.006Z" fill="#153E90"/>
<path d="M270.632 200.422H268.997V189.585L265.719 190.789V189.313L270.377 187.564H270.632V200.422ZM283.156 190.965C283.156 191.604 282.987 192.172 282.647 192.67C282.313 193.168 281.859 193.558 281.284 193.839C281.952 194.126 282.48 194.545 282.866 195.096C283.259 195.647 283.455 196.271 283.455 196.968C283.455 198.075 283.08 198.957 282.33 199.614C281.586 200.27 280.605 200.598 279.386 200.598C278.156 200.598 277.168 200.27 276.424 199.614C275.686 198.951 275.317 198.07 275.317 196.968C275.317 196.277 275.504 195.653 275.879 195.096C276.26 194.539 276.784 194.117 277.452 193.83C276.884 193.549 276.436 193.159 276.108 192.661C275.78 192.163 275.615 191.598 275.615 190.965C275.615 189.887 275.961 189.031 276.653 188.399C277.344 187.766 278.255 187.449 279.386 187.449C280.511 187.449 281.419 187.766 282.111 188.399C282.808 189.031 283.156 189.887 283.156 190.965ZM281.829 196.933C281.829 196.218 281.601 195.635 281.144 195.184C280.693 194.733 280.101 194.507 279.368 194.507C278.636 194.507 278.047 194.73 277.602 195.175C277.162 195.62 276.943 196.206 276.943 196.933C276.943 197.659 277.156 198.231 277.584 198.647C278.018 199.063 278.618 199.271 279.386 199.271C280.148 199.271 280.745 199.063 281.179 198.647C281.613 198.225 281.829 197.654 281.829 196.933ZM279.386 188.785C278.747 188.785 278.229 188.985 277.83 189.383C277.438 189.776 277.241 190.312 277.241 190.991C277.241 191.642 277.435 192.169 277.822 192.573C278.214 192.972 278.736 193.171 279.386 193.171C280.036 193.171 280.555 192.972 280.942 192.573C281.334 192.169 281.531 191.642 281.531 190.991C281.531 190.341 281.328 189.811 280.924 189.401C280.52 188.99 280.007 188.785 279.386 188.785Z" fill="#153E90"/>
<path d="M144.297 236.599H135.912V235.43L140.342 230.508C140.998 229.764 141.449 229.16 141.695 228.697C141.947 228.229 142.073 227.745 142.073 227.247C142.073 226.579 141.871 226.031 141.467 225.604C141.063 225.176 140.524 224.962 139.85 224.962C139.041 224.962 138.411 225.193 137.96 225.656C137.515 226.113 137.292 226.752 137.292 227.572H135.666C135.666 226.395 136.044 225.442 136.8 224.716C137.562 223.989 138.578 223.626 139.85 223.626C141.039 223.626 141.98 223.939 142.671 224.566C143.362 225.188 143.708 226.017 143.708 227.054C143.708 228.313 142.905 229.813 141.3 231.554L137.872 235.271H144.297V236.599ZM154.044 231.141C154.044 233.045 153.719 234.46 153.069 235.386C152.418 236.312 151.402 236.774 150.019 236.774C148.654 236.774 147.643 236.323 146.987 235.421C146.33 234.513 145.99 233.159 145.967 231.36V229.189C145.967 227.309 146.292 225.911 146.943 224.997C147.593 224.083 148.612 223.626 150.001 223.626C151.378 223.626 152.392 224.068 153.042 224.953C153.693 225.832 154.027 227.191 154.044 229.031V231.141ZM152.418 228.917C152.418 227.54 152.225 226.538 151.838 225.911C151.451 225.278 150.839 224.962 150.001 224.962C149.169 224.962 148.563 225.275 148.182 225.902C147.801 226.529 147.605 227.493 147.593 228.794V231.396C147.593 232.778 147.792 233.801 148.191 234.463C148.595 235.119 149.204 235.447 150.019 235.447C150.821 235.447 151.416 235.137 151.803 234.516C152.195 233.895 152.401 232.916 152.418 231.58V228.917Z" fill="#153E90"/>
</g>
<defs>
<clipPath id="clip0">
<rect width="350" height="350" fill="white"/>
</clipPath>
</defs>
</svg>
