<svg width="130" height="130" viewBox="0 0 130 130" fill="none" xmlns="http://www.w3.org/2000/svg">
<g clip-path="url(#clip0)">
<path d="M32.177 21.1333C32.177 21.1333 51.8179 36.1749 81.6771 8.04986C108.195 -16.9273 129.847 22.4811 129.999 41.3531C130.195 65.7996 103.481 85.3606 116.445 101.418C129.41 117.474 90.7351 143.99 69.8914 121.042C43.9627 92.497 36.9383 115.69 22.159 115.69C11.5518 115.69 -10.2259 89.0921 4.48031 69.3038C16.8554 52.6523 10.1063 47.126 6.83789 41.3531C2.12319 33.0273 13.3197 10.4288 32.177 21.1333Z" fill="#E2FCFF" fill-opacity="0.5"/>
<path d="M110.689 28.3124H18.6892V96.3124H110.689V28.3124Z" fill="#52B6C3"/>
<path d="M110.689 28.3124H21.0619V96.3124H110.689V28.3124Z" fill="#F6F8FB"/>
<path d="M109.636 29.3707H21.8533V34.1334H109.636V29.3707Z" fill="white"/>
<path d="M109.636 33.8688H21.8533V95.254H109.636V33.8688Z" fill="#153E90"/>
<path d="M47.1396 36.3573H36.3434V48.7455H47.1396V36.3573Z" fill="#E8E7E7"/>
<path d="M59.2522 36.3573H48.456V48.7455H59.2522V36.3573Z" fill="#E8E7E7"/>
<path d="M71.1018 36.3573H60.3056V48.7455H71.1018V36.3573Z" fill="#E8E7E7"/>
<path d="M83.2144 36.3573H72.4182V48.7455H83.2144V36.3573Z" fill="white"/>
<path d="M95.064 36.3573H84.2678V48.7455H95.064V36.3573Z" fill="white"/>
<path d="M107.178 36.3573H96.3814V48.7455H107.178V36.3573Z" fill="white"/>
<path d="M47.1396 50.6309H36.3434V63.0191H47.1396V50.6309Z" fill="white"/>
<path d="M59.2522 50.6309H48.456V63.0191H59.2522V50.6309Z" fill="white"/>
<path d="M71.1018 50.6309H60.3056V63.0191H71.1018V50.6309Z" fill="#F6F8FB"/>
<path d="M83.2144 50.6309H72.4182V63.0191H83.2144V50.6309Z" fill="white"/>
<path d="M95.064 50.6309H84.2678V63.0191H95.064V50.6309Z" fill="white"/>
<path d="M107.178 50.6309H96.3814V63.0191H107.178V50.6309Z" fill="white"/>
<path d="M47.1396 64.3655H36.3434V76.7537H47.1396V64.3655Z" fill="white"/>
<path d="M59.2522 64.3655H48.456V76.7537H59.2522V64.3655Z" fill="white"/>
<path d="M71.1018 64.3655H60.3056V76.7537H71.1018V64.3655Z" fill="#F6F8FB"/>
<path d="M83.2144 64.3655H72.4182V76.7537H83.2144V64.3655Z" fill="white"/>
<path d="M95.064 64.3655H84.2678V76.7537H95.064V64.3655Z" fill="#F6F8FB"/>
<path d="M107.178 64.3655H96.3814V76.7537H107.178V64.3655Z" fill="white"/>
<path d="M47.4036 78.3696H36.6074V90.7578H47.4036V78.3696Z" fill="#F6F8FB"/>
<path d="M59.5163 78.3696H48.72V90.7578H59.5163V78.3696Z" fill="#F6F8FB"/>
<path d="M71.3658 78.3696H60.5696V90.7578H71.3658V78.3696Z" fill="white"/>
<path d="M83.4785 78.3696H72.6823V90.7578H83.4785V78.3696Z" fill="white"/>
<path d="M95.328 78.3696H84.5318V90.7578H95.328V78.3696Z" fill="#E8E7E7"/>
<path d="M107.441 78.3696H96.6444V90.7578H107.441V78.3696Z" fill="white"/>
<path d="M24.3624 32.8564C24.8714 32.8564 25.284 32.4343 25.284 31.9138C25.284 31.3932 24.8714 30.9712 24.3624 30.9712C23.8534 30.9712 23.4407 31.3932 23.4407 31.9138C23.4407 32.4343 23.8534 32.8564 24.3624 32.8564Z" fill="#52B6C3"/>
<path d="M27.2585 32.8564C27.7675 32.8564 28.1802 32.4343 28.1802 31.9138C28.1802 31.3932 27.7675 30.9712 27.2585 30.9712C26.7495 30.9712 26.3369 31.3932 26.3369 31.9138C26.3369 32.4343 26.7495 32.8564 27.2585 32.8564Z" fill="#52B6C3"/>
<path d="M30.1556 32.8564C30.6646 32.8564 31.0773 32.4343 31.0773 31.9138C31.0773 31.3932 30.6646 30.9712 30.1556 30.9712C29.6466 30.9712 29.234 31.3932 29.234 31.9138C29.234 32.4343 29.6466 32.8564 30.1556 32.8564Z" fill="#52B6C3"/>
<path d="M25.6787 50.3613H33.0518C33.7101 50.3613 34.2367 50.8999 34.2367 51.5732C34.2367 52.2465 33.7101 52.7851 33.0518 52.7851H25.6787C25.0204 52.7851 24.4938 52.2465 24.4938 51.5732C24.4938 50.9269 25.0204 50.3613 25.6787 50.3613Z" fill="white"/>
<path d="M25.6787 64.3655H33.0518C33.7101 64.3655 34.2367 64.9041 34.2367 65.5774C34.2367 66.2507 33.7101 66.7893 33.0518 66.7893H25.6787C25.0204 66.7893 24.4938 66.2507 24.4938 65.5774C24.4938 64.931 25.0204 64.3655 25.6787 64.3655Z" fill="white"/>
<path d="M25.6787 78.3696H33.0518C33.7101 78.3696 34.2367 78.9082 34.2367 79.5815C34.2367 80.2548 33.7101 80.7934 33.0518 80.7934H25.6787C25.0204 80.7934 24.4938 80.2548 24.4938 79.5815C24.4938 78.9352 25.0204 78.3696 25.6787 78.3696Z" fill="white"/>
<path d="M38.3181 51.4385H42.5312C43.0315 51.4385 43.4529 51.8694 43.4529 52.3811C43.4529 52.8927 43.0315 53.3236 42.5312 53.3236H38.3181C37.8177 53.3236 37.3964 52.8927 37.3964 52.3811C37.3964 51.8694 37.8177 51.4385 38.3181 51.4385Z" fill="#52B6C3"/>
<path d="M38.0547 54.9397H39.898C40.2666 54.9397 40.5563 55.2359 40.5563 55.613C40.5563 55.99 40.2666 56.2862 39.898 56.2862H38.0547C37.6861 56.2862 37.3964 55.99 37.3964 55.613C37.3964 55.2629 37.6861 54.9397 38.0547 54.9397Z" fill="#52B6C3"/>
<path d="M50.563 51.4385H54.7762C55.2238 51.4385 55.5662 51.7886 55.5662 52.2464C55.5662 52.7042 55.2238 53.0543 54.7762 53.0543H50.563C50.1154 53.0543 49.7731 52.7042 49.7731 52.2464C49.7731 51.8155 50.1154 51.4385 50.563 51.4385Z" fill="#52B6C3"/>
<path d="M86.3749 80.2549H90.588C91.0357 80.2549 91.378 80.605 91.378 81.0628C91.378 81.5206 91.0357 81.8707 90.588 81.8707H86.3749C85.9272 81.8707 85.5849 81.5206 85.5849 81.0628C85.5849 80.6319 85.9272 80.2549 86.3749 80.2549Z" fill="white"/>
<path d="M98.2244 65.7119H102.438C102.885 65.7119 103.228 66.062 103.228 66.5198C103.228 66.9777 102.885 67.3278 102.438 67.3278H98.2244C97.7768 67.3278 97.4344 66.9777 97.4344 66.5198C97.4344 66.0889 97.7768 65.7119 98.2244 65.7119Z" fill="#F6F8FB"/>
<path d="M97.9614 51.708H102.175C102.622 51.708 102.965 52.0581 102.965 52.5159C102.965 52.9738 102.622 53.3239 102.175 53.3239H97.9614C97.5138 53.3239 97.1714 52.9738 97.1714 52.5159C97.1714 52.085 97.5138 51.708 97.9614 51.708Z" fill="#F6F8FB"/>
<path d="M86.1118 51.708H90.325C90.7726 51.708 91.1149 52.0581 91.1149 52.5159C91.1149 52.9738 90.7726 53.3239 90.325 53.3239H86.1118C85.6642 53.3239 85.3218 52.9738 85.3218 52.5159C85.3218 52.085 85.6642 51.708 86.1118 51.708Z" fill="#F6F8FB"/>
<path d="M50.8264 56.2863C51.4081 56.2863 51.8797 55.804 51.8797 55.2091C51.8797 54.6141 51.4081 54.1318 50.8264 54.1318C50.2446 54.1318 49.7731 54.6141 49.7731 55.2091C49.7731 55.804 50.2446 56.2863 50.8264 56.2863Z" fill="#52B6C3"/>
<path d="M74.7886 54.4011C75.3703 54.4011 75.8419 53.9188 75.8419 53.3238C75.8419 52.7289 75.3703 52.2466 74.7886 52.2466C74.2069 52.2466 73.7353 52.7289 73.7353 53.3238C73.7353 53.9188 74.2069 54.4011 74.7886 54.4011Z" fill="#52B6C3"/>
<path d="M78.4747 54.4011C79.0565 54.4011 79.528 53.9188 79.528 53.3238C79.528 52.7289 79.0565 52.2466 78.4747 52.2466C77.893 52.2466 77.4214 52.7289 77.4214 53.3238C77.4214 53.9188 77.893 54.4011 78.4747 54.4011Z" fill="#52B6C3"/>
<path d="M78.4747 67.8664C79.0565 67.8664 79.528 67.3841 79.528 66.7891C79.528 66.1942 79.0565 65.7119 78.4747 65.7119C77.893 65.7119 77.4214 66.1942 77.4214 66.7891C77.4214 67.3841 77.893 67.8664 78.4747 67.8664Z" fill="#52B6C3"/>
<path d="M74.7886 67.8664C75.3703 67.8664 75.8419 67.3841 75.8419 66.7891C75.8419 66.1942 75.3703 65.7119 74.7886 65.7119C74.2069 65.7119 73.7353 66.1942 73.7353 66.7891C73.7353 67.3841 74.2069 67.8664 74.7886 67.8664Z" fill="#52B6C3"/>
<path d="M78.2117 81.6012C78.7935 81.6012 79.265 81.119 79.265 80.524C79.265 79.9291 78.7935 79.4468 78.2117 79.4468C77.63 79.4468 77.1584 79.9291 77.1584 80.524C77.1584 81.119 77.63 81.6012 78.2117 81.6012Z" fill="#52B6C3"/>
<path d="M74.5255 81.6012C75.1072 81.6012 75.5788 81.119 75.5788 80.524C75.5788 79.9291 75.1072 79.4468 74.5255 79.4468C73.9438 79.4468 73.4722 79.9291 73.4722 80.524C73.4722 81.119 73.9438 81.6012 74.5255 81.6012Z" fill="#52B6C3"/>
<path d="M42.3999 81.8705C42.9816 81.8705 43.4532 81.3882 43.4532 80.7933C43.4532 80.1984 42.9816 79.7161 42.3999 79.7161C41.8182 79.7161 41.3466 80.1984 41.3466 80.7933C41.3466 81.3882 41.8182 81.8705 42.3999 81.8705Z" fill="#52B6C3"/>
<path d="M38.7138 81.8705C39.2955 81.8705 39.767 81.3882 39.767 80.7933C39.767 80.1984 39.2955 79.7161 38.7138 79.7161C38.132 79.7161 37.6605 80.1984 37.6605 80.7933C37.6605 81.3882 38.132 81.8705 38.7138 81.8705Z" fill="#52B6C3"/>
<path d="M74.7886 39.8583C75.3703 39.8583 75.8419 39.376 75.8419 38.7811C75.8419 38.1862 75.3703 37.7039 74.7886 37.7039C74.2069 37.7039 73.7353 38.1862 73.7353 38.7811C73.7353 39.376 74.2069 39.8583 74.7886 39.8583Z" fill="#52B6C3"/>
<path d="M62.4119 39.8583C62.9937 39.8583 63.4652 39.376 63.4652 38.7811C63.4652 38.1862 62.9937 37.7039 62.4119 37.7039C61.8302 37.7039 61.3586 38.1862 61.3586 38.7811C61.3586 39.376 61.8302 39.8583 62.4119 39.8583Z" fill="white"/>
<path d="M66.0991 39.8583C66.6808 39.8583 67.1524 39.376 67.1524 38.7811C67.1524 38.1862 66.6808 37.7039 66.0991 37.7039C65.5174 37.7039 65.0458 38.1862 65.0458 38.7811C65.0458 39.376 65.5174 39.8583 66.0991 39.8583Z" fill="white"/>
<path d="M50.5634 39.8583C51.1451 39.8583 51.6166 39.376 51.6166 38.7811C51.6166 38.1862 51.1451 37.7039 50.5634 37.7039C49.9816 37.7039 49.5101 38.1862 49.5101 38.7811C49.5101 39.376 49.9816 39.8583 50.5634 39.8583Z" fill="white"/>
<path d="M54.2495 39.8583C54.8312 39.8583 55.3028 39.376 55.3028 38.7811C55.3028 38.1862 54.8312 37.7039 54.2495 37.7039C53.6678 37.7039 53.1962 38.1862 53.1962 38.7811C53.1962 39.376 53.6678 39.8583 54.2495 39.8583Z" fill="white"/>
<path d="M38.7138 39.8583C39.2955 39.8583 39.767 39.376 39.767 38.7811C39.767 38.1862 39.2955 37.7039 38.7138 37.7039C38.132 37.7039 37.6605 38.1862 37.6605 38.7811C37.6605 39.376 38.132 39.8583 38.7138 39.8583Z" fill="white"/>
<path d="M42.3999 39.8583C42.9816 39.8583 43.4532 39.376 43.4532 38.7811C43.4532 38.1862 42.9816 37.7039 42.3999 37.7039C41.8182 37.7039 41.3466 38.1862 41.3466 38.7811C41.3466 39.376 41.8182 39.8583 42.3999 39.8583Z" fill="white"/>
<path d="M81.9152 45.0001H82.7042V45.59H81.9152V46.9103H81.1886V45.59H78.5988V45.1642L81.1456 41.2228H81.9152V45.0001ZM79.4191 45.0001H81.1886V42.2111L81.1027 42.3673L79.4191 45.0001Z" fill="#153E90"/>
<path d="M58.0462 47.0566H54.3196V46.5371L56.2884 44.3496C56.5801 44.0189 56.7806 43.7507 56.89 43.5449C57.0019 43.3366 57.0579 43.1217 57.0579 42.9004C57.0579 42.6035 56.9681 42.36 56.7884 42.1699C56.6087 41.9798 56.3691 41.8848 56.0696 41.8848C55.7103 41.8848 55.4303 41.9876 55.2298 42.1934C55.0319 42.3965 54.9329 42.6803 54.9329 43.0449H54.2103C54.2103 42.5215 54.3782 42.0983 54.7142 41.7754C55.0527 41.4525 55.5045 41.291 56.0696 41.291C56.5983 41.291 57.0163 41.4303 57.3235 41.709C57.6308 41.985 57.7845 42.3535 57.7845 42.8145C57.7845 43.3743 57.4277 44.041 56.7142 44.8145L55.1907 46.4668H58.0462V47.0566Z" fill="#153E90"/>
<path d="M46.363 55.7256L44.0076 61.0068H43.2498L45.5974 55.9131H42.5193V55.3193H46.363V55.7256Z" fill="#153E90"/>
<path d="M76.6317 61.0193H75.9051V56.2029L74.4481 56.738V56.0818L76.5184 55.3044H76.6317V61.0193ZM82.3152 58.5935C82.3152 59.4399 82.1707 60.0688 81.8817 60.4802C81.5926 60.8917 81.1408 61.0974 80.5262 61.0974C79.9194 61.0974 79.4702 60.8969 79.1785 60.4958C78.8869 60.0922 78.7358 59.4906 78.7254 58.6912V57.7263C78.7254 56.8904 78.8699 56.2693 79.159 55.863C79.4481 55.4568 79.9012 55.2537 80.5184 55.2537C81.1304 55.2537 81.5809 55.4503 81.8699 55.8435C82.159 56.2341 82.3074 56.8383 82.3152 57.656V58.5935ZM81.5926 57.6052C81.5926 56.9932 81.5067 56.5479 81.3348 56.2693C81.1629 55.988 80.8908 55.8474 80.5184 55.8474C80.1486 55.8474 79.879 55.9867 79.7098 56.2654C79.5405 56.544 79.4533 56.9724 79.4481 57.5505V58.7068C79.4481 59.3214 79.5366 59.7758 79.7137 60.0701C79.8934 60.3617 80.1642 60.5076 80.5262 60.5076C80.883 60.5076 81.1473 60.3695 81.3192 60.0935C81.4936 59.8175 81.5848 59.3826 81.5926 58.7888V57.6052Z" fill="#153E90"/>
<path d="M64.783 75.1282H64.0565V70.3118L62.5994 70.8469V70.1907L64.6697 69.4133H64.783V75.1282ZM67.2322 72.2766L67.5213 69.4407H70.4354V70.1086H68.1346L67.9627 71.6594C68.2414 71.4954 68.5578 71.4133 68.9119 71.4133C69.4302 71.4133 69.8416 71.5852 70.1463 71.929C70.451 72.2701 70.6033 72.7323 70.6033 73.3157C70.6033 73.9016 70.4445 74.3639 70.1268 74.7024C69.8117 75.0383 69.3703 75.2063 68.8026 75.2063C68.2999 75.2063 67.8898 75.067 67.5721 74.7883C67.2544 74.5097 67.0734 74.1243 67.0291 73.6321H67.7127C67.757 73.9576 67.8729 74.2037 68.0604 74.3704C68.2479 74.5344 68.4953 74.6165 68.8026 74.6165C69.1385 74.6165 69.4015 74.5019 69.5916 74.2727C69.7843 74.0435 69.8807 73.7271 69.8807 73.3235C69.8807 72.9433 69.7765 72.6386 69.5682 72.4094C69.3624 72.1777 69.0877 72.0618 68.744 72.0618C68.4289 72.0618 68.1815 72.1308 68.0018 72.2688L67.8104 72.425L67.2322 72.2766Z" fill="#153E90"/>
<path d="M100.988 75.1282H100.262V70.3118L98.8048 70.8469V70.1907L100.875 69.4133H100.988V75.1282ZM106.555 70.925C106.555 71.2089 106.479 71.4615 106.328 71.6829C106.18 71.9042 105.978 72.0774 105.723 72.2024C106.02 72.33 106.254 72.5162 106.426 72.761C106.6 73.0058 106.688 73.2831 106.688 73.593C106.688 74.0852 106.521 74.4771 106.188 74.7688C105.857 75.0605 105.421 75.2063 104.879 75.2063C104.332 75.2063 103.893 75.0605 103.563 74.7688C103.234 74.4745 103.07 74.0826 103.07 73.593C103.07 73.2857 103.154 73.0084 103.32 72.761C103.49 72.5136 103.723 72.3261 104.02 72.1985C103.767 72.0735 103.568 71.9003 103.422 71.679C103.276 71.4576 103.203 71.2063 103.203 70.925C103.203 70.4459 103.357 70.0657 103.664 69.7844C103.971 69.5032 104.376 69.3625 104.879 69.3625C105.379 69.3625 105.783 69.5032 106.09 69.7844C106.4 70.0657 106.555 70.4459 106.555 70.925ZM105.965 73.5774C105.965 73.2597 105.863 73.0006 105.66 72.8C105.46 72.5995 105.197 72.4993 104.871 72.4993C104.546 72.4993 104.284 72.5982 104.086 72.7961C103.891 72.9941 103.793 73.2545 103.793 73.5774C103.793 73.9003 103.888 74.1542 104.078 74.3391C104.271 74.524 104.538 74.6165 104.879 74.6165C105.218 74.6165 105.483 74.524 105.676 74.3391C105.869 74.1516 105.965 73.8977 105.965 73.5774ZM104.879 69.9563C104.595 69.9563 104.365 70.0448 104.188 70.2219C104.013 70.3964 103.926 70.6347 103.926 70.9368C103.926 71.2258 104.012 71.4602 104.184 71.6399C104.358 71.817 104.59 71.9055 104.879 71.9055C105.168 71.9055 105.399 71.817 105.57 71.6399C105.745 71.4602 105.832 71.2258 105.832 70.9368C105.832 70.6477 105.742 70.412 105.563 70.2297C105.383 70.0474 105.155 69.9563 104.879 69.9563Z" fill="#153E90"/>
<path d="M54.2859 88.5652H50.5594V88.0457L52.5281 85.8582C52.8198 85.5274 53.0203 85.2592 53.1297 85.0535C53.2417 84.8451 53.2977 84.6303 53.2977 84.4089C53.2977 84.1121 53.2078 83.8686 53.0281 83.6785C52.8484 83.4884 52.6089 83.3933 52.3094 83.3933C51.95 83.3933 51.6701 83.4962 51.4695 83.7019C51.2716 83.905 51.1727 84.1889 51.1727 84.5535H50.45C50.45 84.03 50.618 83.6069 50.9539 83.2839C51.2925 82.961 51.7443 82.7996 52.3094 82.7996C52.838 82.7996 53.256 82.9389 53.5633 83.2175C53.8706 83.4936 54.0242 83.8621 54.0242 84.323C54.0242 84.8829 53.6675 85.5496 52.9539 86.323L51.4305 87.9753H54.2859V88.5652ZM58.618 86.1394C58.618 86.9858 58.4734 87.6147 58.1844 88.0261C57.8953 88.4376 57.4435 88.6433 56.8289 88.6433C56.2221 88.6433 55.7729 88.4428 55.4813 88.0417C55.1896 87.6381 55.0386 87.0365 55.0281 86.2371V85.2722C55.0281 84.4363 55.1727 83.8152 55.4617 83.4089C55.7508 83.0027 56.2039 82.7996 56.8211 82.7996C57.4331 82.7996 57.8836 82.9962 58.1727 83.3894C58.4617 83.78 58.6102 84.3842 58.618 85.2019V86.1394ZM57.8953 85.1511C57.8953 84.5391 57.8094 84.0938 57.6375 83.8152C57.4656 83.5339 57.1935 83.3933 56.8211 83.3933C56.4513 83.3933 56.1818 83.5326 56.0125 83.8113C55.8432 84.0899 55.756 84.5183 55.7508 85.0964V86.2527C55.7508 86.8673 55.8393 87.3217 56.0164 87.616C56.1961 87.9076 56.4669 88.0535 56.8289 88.0535C57.1857 88.0535 57.45 87.9154 57.6219 87.6394C57.7964 87.3634 57.8875 86.9285 57.8953 86.3347V85.1511Z" fill="#153E90"/>
</g>
<defs>
<clipPath id="clip0">
<rect width="130" height="130" fill="white"/>
</clipPath>
</defs>
</svg>
