<svg width="130" height="130" viewBox="0 0 130 130" fill="none" xmlns="http://www.w3.org/2000/svg">
<g clip-path="url(#clip0)">
<path d="M32.177 21.1333C32.177 21.1333 51.8179 36.1749 81.6771 8.04986C108.195 -16.9273 129.847 22.4811 129.999 41.3531C130.195 65.7996 103.481 85.3606 116.445 101.418C129.41 117.474 90.7351 143.99 69.8914 121.042C43.9627 92.497 36.9383 115.69 22.159 115.69C11.5518 115.69 -10.2259 89.0921 4.48031 69.3038C16.8554 52.6523 10.1063 47.126 6.83789 41.3531C2.12319 33.0273 13.3197 10.4288 32.177 21.1333Z" fill="#E2FCFF" fill-opacity="0.5"/>
<g clip-path="url(#clip1)">
<path d="M70.443 51.2146H48.9582C48.4879 51.216 48.0234 51.111 47.6001 50.9077C47.1768 50.7043 46.8059 50.408 46.5156 50.0411C46.22 49.6708 46.0136 49.2385 45.9119 48.7771C45.8103 48.3158 45.8162 47.8375 45.9292 47.3787C47.9093 39.1566 47.9093 30.5879 45.9291 22.3658C45.8162 21.907 45.8103 21.4288 45.912 20.9675C46.0136 20.5061 46.22 20.0739 46.5156 19.7036C46.8059 19.3367 47.1768 19.0403 47.6001 18.8369C48.0233 18.6336 48.4878 18.5286 48.9582 18.53H70.443C71.1848 18.5322 71.9017 18.7952 72.4662 19.2724C73.0306 19.7496 73.4058 20.4099 73.525 21.1357C74.939 30.2398 74.939 39.5048 73.525 48.609C73.4058 49.3348 73.0306 49.9951 72.4662 50.4722C71.9017 50.9494 71.1848 51.2125 70.443 51.2146Z" fill="white"/>
<path d="M48.9579 20.1326C48.732 20.1318 48.5089 20.1822 48.3056 20.2797C48.1023 20.3773 47.9241 20.5196 47.7846 20.6957C47.641 20.8762 47.5408 21.0867 47.4916 21.3114C47.4424 21.536 47.4455 21.7688 47.5007 21.9921C49.5401 30.4599 49.5402 39.2847 47.5009 47.7525C47.4456 47.9757 47.4424 48.2084 47.4916 48.433C47.5407 48.6576 47.6409 48.8681 47.7846 49.0486L47.7847 49.0487C47.9241 49.2249 48.1023 49.3672 48.3056 49.4648C48.5089 49.5624 48.732 49.6127 48.9579 49.612H70.4427C70.7989 49.6121 71.1436 49.4869 71.4154 49.2586C71.6872 49.0303 71.8685 48.7138 71.9269 48.3654C73.3158 39.4227 73.3158 30.3219 71.9269 21.3791C71.8685 21.0307 71.6872 20.7142 71.4154 20.486C71.1436 20.2577 70.7989 20.1325 70.4427 20.1326L48.9579 20.1326Z" fill="#153E90"/>
<path d="M61.75 28.4788H53.9785C53.6831 28.4785 53.3999 28.369 53.191 28.1742C52.9821 27.9794 52.8646 27.7152 52.8643 27.4398V27.0337C52.8646 26.7582 52.9821 26.4941 53.191 26.2993C53.3999 26.1045 53.6831 25.9949 53.9785 25.9946H61.75C62.0454 25.9949 62.3286 26.1045 62.5375 26.2993C62.7464 26.4941 62.8639 26.7582 62.8643 27.0337V27.4398C62.8639 27.7152 62.7464 27.9794 62.5375 28.1742C62.3286 28.369 62.0454 28.4785 61.75 28.4788Z" fill="white"/>
<path d="M67.5088 28.9089C68.8943 28.9089 70.0175 27.8001 70.0175 26.4324C70.0175 25.0646 68.8943 23.9558 67.5088 23.9558C66.1232 23.9558 65 25.0646 65 26.4324C65 27.8001 66.1232 28.9089 67.5088 28.9089Z" fill="white"/>
<path d="M67.2605 27.3772C67.2041 27.3773 67.1491 27.3593 67.104 27.3258L67.1012 27.3238L66.5116 26.8781C66.4842 26.8575 66.4612 26.8318 66.4439 26.8024C66.4266 26.773 66.4153 26.7405 66.4108 26.7068C66.4062 26.673 66.4084 26.6388 66.4173 26.6059C66.4262 26.5731 66.4415 26.5422 66.4625 26.5152C66.4834 26.4882 66.5096 26.4656 66.5394 26.4486C66.5692 26.4316 66.6022 26.4205 66.6363 26.4161C66.6705 26.4117 66.7052 26.414 66.7385 26.4228C66.7717 26.4317 66.8029 26.4469 66.8302 26.4676L67.2121 26.7567L68.1145 25.5949C68.1355 25.5679 68.1616 25.5453 68.1914 25.5283C68.2211 25.5114 68.254 25.5003 68.2881 25.4959C68.3222 25.4914 68.3569 25.4937 68.3901 25.5024C68.4233 25.5112 68.4545 25.5264 68.4818 25.547L68.4762 25.5546L68.4819 25.5471C68.537 25.5889 68.573 25.6505 68.5821 25.7185C68.5912 25.7865 68.5726 25.8552 68.5304 25.9097L67.4689 27.2763C67.4444 27.3077 67.4128 27.3332 67.3767 27.3507C67.3405 27.3682 67.3008 27.3773 67.2605 27.3772Z" fill="#153E90"/>
<path d="M67.5088 36.8584C68.8943 36.8584 70.0175 35.7496 70.0175 34.3818C70.0175 33.0141 68.8943 31.9053 67.5088 31.9053C66.1232 31.9053 65 33.0141 65 34.3818C65 35.7496 66.1232 36.8584 67.5088 36.8584Z" fill="white"/>
<path d="M67.2605 35.3266C67.2041 35.3267 67.1491 35.3087 67.104 35.2753L67.1012 35.2732L66.5116 34.8276C66.4842 34.807 66.4612 34.7812 66.4439 34.7518C66.4266 34.7224 66.4153 34.6899 66.4108 34.6562C66.4062 34.6225 66.4084 34.5882 66.4173 34.5554C66.4262 34.5225 66.4415 34.4917 66.4625 34.4647C66.4834 34.4377 66.5096 34.4151 66.5394 34.398C66.5692 34.381 66.6022 34.37 66.6363 34.3656C66.6705 34.3612 66.7052 34.3634 66.7385 34.3723C66.7717 34.3811 66.8029 34.3964 66.8302 34.4171L67.2121 34.7062L68.1145 33.5444C68.1355 33.5174 68.1616 33.4948 68.1914 33.4778C68.2211 33.4608 68.254 33.4498 68.2881 33.4453C68.3222 33.4409 68.3569 33.4431 68.3901 33.4519C68.4233 33.4607 68.4545 33.4758 68.4818 33.4965L68.4762 33.504L68.4819 33.4966C68.537 33.5384 68.573 33.6 68.5821 33.668C68.5912 33.7359 68.5726 33.8047 68.5304 33.8591L67.4689 35.2257C67.4444 35.2572 67.4128 35.2827 67.3767 35.3002C67.3405 35.3177 67.3008 35.3267 67.2605 35.3266Z" fill="#153E90"/>
<path d="M67.5088 45.8015C68.8943 45.8015 70.0175 44.6927 70.0175 43.3249C70.0175 41.9572 68.8943 40.8484 67.5088 40.8484C66.1232 40.8484 65 41.9572 65 43.3249C65 44.6927 66.1232 45.8015 67.5088 45.8015Z" fill="white"/>
<path d="M67.2605 44.2697C67.2041 44.2699 67.1491 44.2518 67.104 44.2184L67.1012 44.2163L66.5116 43.7707C66.4842 43.7501 66.4612 43.7244 66.4439 43.6949C66.4266 43.6655 66.4153 43.633 66.4108 43.5993C66.4062 43.5656 66.4084 43.5314 66.4173 43.4985C66.4262 43.4656 66.4415 43.4348 66.4625 43.4078C66.4834 43.3808 66.5096 43.3582 66.5394 43.3412C66.5692 43.3242 66.6022 43.3131 66.6363 43.3087C66.6705 43.3043 66.7052 43.3066 66.7385 43.3154C66.7717 43.3242 66.8029 43.3395 66.8302 43.3602L67.2121 43.6493L68.1145 42.4875C68.1355 42.4605 68.1616 42.4379 68.1914 42.4209C68.2211 42.4039 68.254 42.3929 68.2881 42.3885C68.3222 42.384 68.3569 42.3862 68.3901 42.395C68.4233 42.4038 68.4545 42.419 68.4818 42.4396L68.4762 42.4471L68.4819 42.4397C68.537 42.4815 68.573 42.5431 68.5821 42.6111C68.5912 42.6791 68.5726 42.7478 68.5304 42.8023L67.4689 44.1688C67.4444 44.2003 67.4128 44.2258 67.3767 44.2433C67.3405 44.2608 67.3008 44.2699 67.2605 44.2697Z" fill="#153E90"/>
<path d="M61.75 36.3917H53.9785C53.6831 36.3914 53.3999 36.2818 53.191 36.087C52.9821 35.8922 52.8646 35.6281 52.8643 35.3526V34.9465C52.8646 34.6711 52.9821 34.4069 53.191 34.2121C53.3999 34.0173 53.6831 33.9078 53.9785 33.9075H61.75C62.0454 33.9078 62.3286 34.0173 62.5375 34.2121C62.7464 34.4069 62.8639 34.6711 62.8643 34.9465V35.3526C62.8639 35.6281 62.7464 35.8922 62.5375 36.087C62.3286 36.2818 62.0454 36.3914 61.75 36.3917Z" fill="white"/>
<path d="M61.75 44.3048H53.9785C53.6831 44.3045 53.3999 44.1949 53.191 44.0001C52.9821 43.8053 52.8646 43.5412 52.8643 43.2657V42.8596C52.8646 42.5841 52.9821 42.32 53.191 42.1252C53.3999 41.9304 53.6831 41.8209 53.9785 41.8206H61.75C62.0454 41.8209 62.3286 41.9304 62.5375 42.1252C62.7464 42.32 62.8639 42.5841 62.8643 42.8596V43.2657C62.8639 43.5412 62.7464 43.8053 62.5375 44.0001C62.3286 44.1949 62.0454 44.3045 61.75 44.3048Z" fill="white"/>
<path d="M110.857 71.5139H89.3726C88.9023 71.5153 88.4378 71.4104 88.0145 71.207C87.5913 71.0037 87.2204 70.7073 86.9301 70.3404C86.6345 69.9701 86.428 69.5378 86.3264 69.0764C86.2248 68.6151 86.2307 68.1368 86.3436 67.678C88.3238 59.4559 88.3237 50.8872 86.3435 42.6651C86.2306 42.2064 86.2248 41.7281 86.3264 41.2668C86.428 40.8055 86.6345 40.3732 86.93 40.0029C87.2203 39.636 87.5912 39.3396 88.0145 39.1362C88.4378 38.9329 88.9023 38.8279 89.3726 38.8294H110.857C111.599 38.8315 112.316 39.0945 112.881 39.5717C113.445 40.0489 113.82 40.7092 113.939 41.435C115.353 50.5391 115.353 59.8042 113.939 68.9083C113.82 69.6341 113.445 70.2944 112.881 70.7716C112.316 71.2487 111.599 71.5118 110.857 71.5139Z" fill="white"/>
<path d="M89.3729 40.4319C89.147 40.4311 88.9239 40.4815 88.7206 40.5791C88.5173 40.6766 88.3392 40.8189 88.1997 40.995C88.056 41.1755 87.9558 41.3861 87.9066 41.6107C87.8574 41.8353 87.8605 42.0681 87.9158 42.2914C89.9551 50.7592 89.9552 59.584 87.9159 68.0518C87.8606 68.275 87.8575 68.5077 87.9066 68.7323C87.9558 68.9569 88.056 69.1674 88.1996 69.3479L88.1997 69.348C88.3392 69.5242 88.5173 69.6665 88.7206 69.7641C88.9239 69.8617 89.147 69.912 89.3729 69.9113H110.858C111.214 69.9114 111.559 69.7862 111.83 69.5579C112.102 69.3296 112.284 69.0131 112.342 68.6647C113.731 59.722 113.731 50.6212 112.342 41.6784C112.284 41.3301 112.102 41.0136 111.83 40.7853C111.559 40.557 111.214 40.4318 110.858 40.4319L89.3729 40.4319Z" fill="#153E90"/>
<path d="M68.0179 94.6179H46.5331C46.0424 94.6194 45.5578 94.5099 45.1162 94.2977C44.6746 94.0855 44.2876 93.7763 43.9848 93.3936C43.6765 93.0074 43.4612 92.5566 43.3552 92.0755C43.2492 91.5944 43.2554 91.0957 43.3731 90.6173C45.3483 82.4157 45.3483 73.8683 43.373 65.6668C43.2553 65.1884 43.2492 64.6897 43.3552 64.2086C43.4612 63.7276 43.6765 63.2768 43.9847 62.8907C44.2876 62.5079 44.6745 62.1987 45.1161 61.9865C45.5578 61.7743 46.0424 61.6648 46.5331 61.6663H68.0179C68.7918 61.6686 69.5398 61.9431 70.1286 62.441C70.7174 62.9389 71.1088 63.6279 71.233 64.3851C72.6491 73.5027 72.6491 82.7815 71.233 91.8991C71.1088 92.6563 70.7174 93.3453 70.1286 93.8432C69.5398 94.3411 68.7918 94.6156 68.0179 94.6179Z" fill="#153E90"/>
<path d="M57.3358 84.1752C60.7583 84.1752 63.5327 81.4248 63.5327 78.0319C63.5327 74.6391 60.7583 71.8887 57.3358 71.8887C53.9134 71.8887 51.1389 74.6391 51.1389 78.0319C51.1389 81.4248 53.9134 84.1752 57.3358 84.1752Z" fill="white"/>
<path d="M60.2993 77.2306H58.1439V75.0938C58.1439 74.8813 58.0587 74.6775 57.9071 74.5272C57.7555 74.3769 57.5499 74.2925 57.3356 74.2925C57.1212 74.2925 56.9156 74.3769 56.764 74.5272C56.6124 74.6775 56.5273 74.8813 56.5273 75.0938V77.2306H54.3718C54.1575 77.2306 53.9519 77.315 53.8003 77.4653C53.6487 77.6155 53.5635 77.8193 53.5635 78.0319C53.5635 78.2444 53.6487 78.4482 53.8003 78.5985C53.9519 78.7487 54.1575 78.8332 54.3718 78.8332H56.5273V80.9699C56.5273 81.1825 56.6124 81.3863 56.764 81.5365C56.9156 81.6868 57.1212 81.7712 57.3356 81.7712C57.5499 81.7712 57.7555 81.6868 57.9071 81.5365C58.0587 81.3863 58.1439 81.1825 58.1439 80.9699V78.8332H60.2993C60.5137 78.8332 60.7193 78.7487 60.8708 78.5985C61.0224 78.4482 61.1076 78.2444 61.1076 78.0319C61.1076 77.8193 61.0224 77.6155 60.8708 77.4653C60.7193 77.315 60.5137 77.2306 60.2993 77.2306Z" fill="#52B6C3"/>
<path d="M65.1495 21.5407H53.8335C53.512 21.5403 53.2038 21.4136 52.9766 21.1882C52.7493 20.9629 52.6214 20.6574 52.621 20.3387V18.2019C52.6214 17.8833 52.7493 17.5778 52.9766 17.3524C53.2038 17.1271 53.512 17.0004 53.8335 17H65.1495C65.471 17.0004 65.7792 17.1271 66.0065 17.3524C66.2338 17.5778 66.3616 17.8833 66.362 18.2019V20.3387C66.3616 20.6574 66.2338 20.9629 66.0065 21.1882C65.7792 21.4136 65.471 21.5403 65.1495 21.5407Z" fill="#52B6C3"/>
<path d="M106.103 42.1073H94.7867C94.4653 42.107 94.1571 41.9802 93.9298 41.7549C93.7025 41.5295 93.5746 41.224 93.5743 40.9054V38.7686C93.5746 38.4499 93.7025 38.1444 93.9298 37.9191C94.1571 37.6938 94.4653 37.567 94.7867 37.5667H106.103C106.424 37.567 106.732 37.6938 106.96 37.9191C107.187 38.1444 107.315 38.4499 107.315 38.7686V40.9054C107.315 41.224 107.187 41.5295 106.96 41.7549C106.732 41.9802 106.424 42.107 106.103 42.1073Z" fill="#52B6C3"/>
<path d="M37.1998 112.082L17.3593 103.91C16.9244 103.733 16.5361 103.459 16.224 103.11C15.9118 102.762 15.684 102.347 15.5579 101.898C15.4282 101.443 15.4049 100.965 15.4896 100.501C15.5743 100.036 15.7649 99.5966 16.0468 99.2159C21.0576 92.3762 24.374 84.4633 25.7275 76.1173C25.8008 75.6507 25.9805 75.2069 26.2529 74.8195C26.5253 74.4321 26.8833 74.1115 27.2995 73.8819C27.7096 73.6535 28.1668 73.5209 28.6364 73.4941C29.106 73.4673 29.5756 73.547 30.0094 73.7273L49.8498 81.8993C50.534 82.1834 51.0943 82.699 51.4308 83.3544C51.7673 84.0097 51.8583 84.7622 51.6875 85.4778C49.4696 94.4229 45.8837 102.979 41.0544 110.848C40.6634 111.473 40.0613 111.94 39.3554 112.166C38.6495 112.392 37.8856 112.363 37.1998 112.082Z" fill="white"/>
<path d="M29.3893 75.2071C29.181 75.1205 28.9556 75.0821 28.73 75.0949C28.5045 75.1077 28.2849 75.1713 28.0879 75.2809C27.8855 75.3929 27.7114 75.5493 27.579 75.738C27.4467 75.9267 27.3594 76.1429 27.324 76.3701C25.93 84.9655 22.5146 93.1149 17.354 100.159C17.2166 100.344 17.1236 100.558 17.082 100.784C17.0405 101.01 17.0515 101.242 17.1143 101.464L17.1144 101.464C17.175 101.68 17.2845 101.879 17.4344 102.046C17.5844 102.214 17.7709 102.345 17.9798 102.43L37.8202 110.602C38.1492 110.738 38.516 110.753 38.8553 110.646C39.1947 110.539 39.4846 110.315 39.6733 110.016C44.417 102.286 47.9394 93.8814 50.118 85.0948C50.1988 84.7509 50.154 84.3897 49.9913 84.0755C49.8287 83.7613 49.5588 83.5145 49.2298 83.3791L29.3893 75.2071Z" fill="#153E90"/>
<path d="M31.3935 99.4L24.6454 96.7601C24.389 96.6595 24.1854 96.4672 24.0794 96.2254C23.9734 95.9837 23.9735 95.7122 24.0798 95.4705L24.2369 95.1145C24.3438 94.8731 24.548 94.6814 24.8048 94.5816C25.0615 94.4818 25.3498 94.4819 25.6065 94.582L32.3546 97.222C32.611 97.3226 32.8146 97.5149 32.9206 97.7566C33.0266 97.9984 33.0265 98.2699 32.9202 98.5115L32.7631 98.8675C32.6562 99.109 32.452 99.3006 32.1952 99.4005C31.9385 99.5003 31.6502 99.5001 31.3935 99.4Z" fill="white"/>
<path d="M34.3935 93.4381L27.6454 90.7982C27.389 90.6976 27.1854 90.5053 27.0794 90.2635C26.9734 90.0218 26.9735 89.7503 27.0798 89.5086L27.2369 89.1526C27.3438 88.9112 27.548 88.7195 27.8048 88.6197C28.0615 88.5199 28.3498 88.52 28.6065 88.6201L35.3546 91.2601C35.611 91.3607 35.8146 91.553 35.9206 91.7947C36.0266 92.0365 36.0265 92.308 35.9202 92.5496L35.7631 92.9056C35.6562 93.1471 35.452 93.3387 35.1952 93.4385C34.9385 93.5384 34.6502 93.5382 34.3935 93.4381Z" fill="white"/>
<path d="M37.3935 87.476L30.6454 84.836C30.389 84.7354 30.1854 84.5431 30.0794 84.3014C29.9734 84.0596 29.9735 83.7881 30.0798 83.5465L30.2369 83.1905C30.3438 82.949 30.548 82.7574 30.8048 82.6575C31.0615 82.5577 31.3498 82.5578 31.6065 82.6579L38.3546 85.2979C38.611 85.3985 38.8146 85.5908 38.9206 85.8326C39.0266 86.0743 39.0265 86.3458 38.9202 86.5874L38.7631 86.9435C38.6562 87.1849 38.452 87.3766 38.1952 87.4764C37.9385 87.5762 37.6502 87.5761 37.3935 87.476Z" fill="white"/>
<path d="M44.1251 83.1286C43.9693 83.1285 43.8149 83.0985 43.6705 83.0403L33.1794 78.8355C32.8816 78.7157 32.6438 78.4837 32.5183 78.1904C32.3927 77.897 32.3897 77.5663 32.5098 77.2707L33.3178 75.2897C33.4383 74.9941 33.6724 74.7582 33.9684 74.6337C34.2644 74.5093 34.5982 74.5065 34.8963 74.6259L45.3874 78.8308C45.6852 78.9506 45.923 79.1826 46.0485 79.4759C46.1741 79.7693 46.1771 80.1 46.057 80.3956L45.249 82.3766C45.1583 82.5985 45.0029 82.7885 44.8027 82.9224C44.6025 83.0564 44.3666 83.1282 44.1251 83.1286Z" fill="#52B6C3"/>
<path d="M101.886 50.3397H94.1143C93.8188 50.3394 93.5356 50.2298 93.3267 50.035C93.1178 49.8402 93.0003 49.5761 93 49.3006V48.8945C93.0003 48.6191 93.1178 48.3549 93.3267 48.1601C93.5356 47.9653 93.8188 47.8558 94.1143 47.8555H101.886C102.181 47.8558 102.464 47.9653 102.673 48.1601C102.882 48.3549 103 48.6191 103 48.8945V49.3006C103 49.5761 102.882 49.8402 102.673 50.035C102.464 50.2298 102.181 50.3394 101.886 50.3397Z" fill="white"/>
<path d="M107.644 50.7698C109.03 50.7698 110.153 49.661 110.153 48.2932C110.153 46.9254 109.03 45.8167 107.644 45.8167C106.259 45.8167 105.136 46.9254 105.136 48.2932C105.136 49.661 106.259 50.7698 107.644 50.7698Z" fill="white"/>
<path d="M107.396 49.238C107.34 49.2381 107.285 49.2201 107.24 49.1867L107.237 49.1846L106.647 48.739C106.62 48.7184 106.597 48.6926 106.58 48.6632C106.562 48.6338 106.551 48.6013 106.546 48.5676C106.542 48.5339 106.544 48.4996 106.553 48.4668C106.562 48.4339 106.577 48.4031 106.598 48.3761C106.619 48.3491 106.645 48.3264 106.675 48.3094C106.705 48.2924 106.738 48.2814 106.772 48.277C106.806 48.2725 106.841 48.2748 106.874 48.2837C106.907 48.2925 106.939 48.3077 106.966 48.3285L107.348 48.6175L108.25 47.4557C108.271 47.4288 108.297 47.4062 108.327 47.3892C108.357 47.3722 108.39 47.3612 108.424 47.3567C108.458 47.3523 108.493 47.3545 108.526 47.3633C108.559 47.3721 108.59 47.3872 108.618 47.4079L108.612 47.4154L108.618 47.408C108.673 47.4498 108.709 47.5114 108.718 47.5794C108.727 47.6473 108.708 47.7161 108.666 47.7705L107.605 49.1371C107.58 49.1686 107.549 49.1941 107.512 49.2116C107.476 49.2291 107.437 49.2381 107.396 49.238Z" fill="#153E90"/>
<path d="M107.644 58.7192C109.03 58.7192 110.153 57.6104 110.153 56.2427C110.153 54.8749 109.03 53.7661 107.644 53.7661C106.259 53.7661 105.136 54.8749 105.136 56.2427C105.136 57.6104 106.259 58.7192 107.644 58.7192Z" fill="white"/>
<path d="M107.396 57.1875C107.34 57.1876 107.285 57.1696 107.24 57.1361L107.237 57.1341L106.647 56.6884C106.62 56.6678 106.597 56.6421 106.58 56.6127C106.562 56.5833 106.551 56.5508 106.546 56.5171C106.542 56.4833 106.544 56.4491 106.553 56.4162C106.562 56.3834 106.577 56.3525 106.598 56.3255C106.619 56.2985 106.645 56.2759 106.675 56.2589C106.705 56.2419 106.738 56.2309 106.772 56.2264C106.806 56.222 106.841 56.2243 106.874 56.2331C106.907 56.242 106.939 56.2572 106.966 56.278L107.348 56.567L108.25 55.4052C108.271 55.3782 108.297 55.3556 108.327 55.3386C108.357 55.3217 108.39 55.3106 108.424 55.3062C108.458 55.3017 108.493 55.304 108.526 55.3127C108.559 55.3215 108.59 55.3367 108.618 55.3573L108.612 55.3649L108.618 55.3575C108.673 55.3992 108.709 55.4609 108.718 55.5288C108.727 55.5968 108.708 55.6655 108.666 55.72L107.605 57.0866C107.58 57.118 107.549 57.1435 107.512 57.161C107.476 57.1785 107.437 57.1876 107.396 57.1875Z" fill="#153E90"/>
<path d="M101.886 58.2528H94.1143C93.8188 58.2524 93.5356 58.1429 93.3267 57.9481C93.1178 57.7533 93.0003 57.4892 93 57.2137V56.8076C93.0003 56.5321 93.1178 56.268 93.3267 56.0732C93.5356 55.8784 93.8188 55.7689 94.1143 55.7686H101.886C102.181 55.7689 102.464 55.8784 102.673 56.0732C102.882 56.268 103 56.5321 103 56.8076V57.2137C103 57.4892 102.882 57.7533 102.673 57.9481C102.464 58.1429 102.181 58.2524 101.886 58.2528Z" fill="white"/>
<path d="M42.6951 90.3852C44.0037 90.8312 45.4287 90.1428 45.8779 88.8477C46.3271 87.5526 45.6304 86.1411 44.3218 85.6952C43.0132 85.2492 41.5882 85.9376 41.139 87.2327C40.6898 88.5278 41.3865 89.9393 42.6951 90.3852Z" fill="white"/>
<path d="M42.9637 88.8551C42.9103 88.837 42.8643 88.8023 42.8327 88.7561L42.8307 88.7532L42.4202 88.1415C42.401 88.1131 42.3878 88.0813 42.3811 88.0479C42.3744 88.0145 42.3744 87.9801 42.3812 87.9467C42.388 87.9133 42.4013 87.8816 42.4205 87.8533C42.4397 87.825 42.4643 87.8008 42.4929 87.782C42.5216 87.7631 42.5537 87.7501 42.5875 87.7436C42.6213 87.7371 42.656 87.7373 42.6897 87.7441C42.7235 87.7509 42.7555 87.7642 42.784 87.7833C42.8125 87.8024 42.837 87.8268 42.8559 87.8553L43.1217 88.2519L44.3558 87.4422C44.3844 87.4234 44.4165 87.4104 44.4502 87.4039C44.4839 87.3974 44.5186 87.3975 44.5522 87.4043C44.5859 87.4111 44.6179 87.4243 44.6464 87.4434C44.6749 87.4624 44.6994 87.4867 44.7184 87.5151L44.7106 87.5204L44.7185 87.5153C44.7568 87.5725 44.7705 87.6425 44.7568 87.7098C44.7431 87.7771 44.7029 87.8362 44.6452 87.8742L43.1937 88.8266C43.1601 88.8485 43.1219 88.8625 43.0821 88.8675C43.0422 88.8724 43.0017 88.8682 42.9637 88.8551Z" fill="#153E90"/>
<path d="M40.3699 97.0232C41.6785 97.4691 43.1035 96.7807 43.5527 95.4856C44.0019 94.1905 43.3052 92.7791 41.9966 92.3331C40.688 91.8872 39.263 92.5755 38.8138 93.8707C38.3646 95.1658 39.0613 96.5772 40.3699 97.0232Z" fill="white"/>
<path d="M40.6385 95.4931C40.5851 95.475 40.5391 95.4402 40.5075 95.394L40.5055 95.3912L40.095 94.7794C40.0759 94.751 40.0626 94.7193 40.0559 94.6858C40.0492 94.6524 40.0492 94.618 40.056 94.5846C40.0628 94.5512 40.0761 94.5195 40.0953 94.4912C40.1145 94.463 40.1391 94.4387 40.1678 94.4199C40.1964 94.4011 40.2285 94.388 40.2623 94.3815C40.2961 94.375 40.3308 94.3752 40.3645 94.382C40.3983 94.3888 40.4303 94.4021 40.4588 94.4212C40.4873 94.4403 40.5118 94.4648 40.5307 94.4932L40.7965 94.8899L42.0306 94.0801C42.0592 94.0614 42.0913 94.0483 42.125 94.0418C42.1587 94.0353 42.1934 94.0355 42.227 94.0422C42.2607 94.049 42.2927 94.0623 42.3212 94.0813C42.3497 94.1003 42.3742 94.1247 42.3932 94.153L42.3854 94.1584L42.3933 94.1532C42.4316 94.2105 42.4454 94.2804 42.4316 94.3477C42.4179 94.415 42.3777 94.4741 42.32 94.5121L40.8685 95.4646C40.8349 95.4865 40.7967 95.5005 40.7569 95.5054C40.717 95.5103 40.6765 95.5061 40.6385 95.4931Z" fill="#153E90"/>
<path d="M37.3699 102.985C38.6785 103.431 40.1035 102.743 40.5527 101.448C41.0019 100.153 40.3052 98.7412 38.9966 98.2953C37.688 97.8493 36.263 98.5377 35.8138 99.8328C35.3646 101.128 36.0613 102.539 37.3699 102.985Z" fill="white"/>
<path d="M37.6385 101.455C37.5851 101.437 37.5391 101.402 37.5075 101.356L37.5055 101.353L37.095 100.742C37.0759 100.713 37.0626 100.681 37.0559 100.648C37.0492 100.615 37.0492 100.58 37.056 100.547C37.0628 100.513 37.0761 100.482 37.0953 100.453C37.1145 100.425 37.1391 100.401 37.1678 100.382C37.1964 100.363 37.2285 100.35 37.2623 100.344C37.2961 100.337 37.3308 100.337 37.3645 100.344C37.3983 100.351 37.4303 100.364 37.4588 100.383C37.4873 100.402 37.5118 100.427 37.5307 100.455L37.7965 100.852L39.0306 100.042C39.0592 100.024 39.0913 100.011 39.125 100.004C39.1587 99.9975 39.1934 99.9976 39.227 100.004C39.2607 100.011 39.2927 100.024 39.3212 100.043C39.3497 100.062 39.3742 100.087 39.3932 100.115L39.3854 100.121L39.3933 100.115C39.4316 100.173 39.4454 100.243 39.4316 100.31C39.4179 100.377 39.3777 100.436 39.32 100.474L37.8685 101.427C37.8349 101.449 37.7967 101.463 37.7569 101.468C37.717 101.473 37.6765 101.468 37.6385 101.455Z" fill="#153E90"/>
</g>
</g>
<defs>
<clipPath id="clip0">
<rect width="130" height="130" fill="white"/>
</clipPath>
<clipPath id="clip1">
<rect width="100" height="95" fill="white" transform="translate(15 17)"/>
</clipPath>
</defs>
</svg>
