<svg width="36" height="36" viewBox="0 0 36 36" fill="none" xmlns="http://www.w3.org/2000/svg">
<path d="M9 2.25C7.59375 2.25 6.39661 2.81785 5.62793 3.68262C4.85925 4.54738 4.5 5.65625 4.5 6.75C4.5 7.84375 4.85925 8.95262 5.62793 9.81738C6.39661 10.6821 7.59375 11.25 9 11.25C10.4062 11.25 11.6034 10.6821 12.3721 9.81738C13.1408 8.95262 13.5 7.84375 13.5 6.75C13.5 5.65625 13.1408 4.54738 12.3721 3.68262C11.6034 2.81785 10.4062 2.25 9 2.25ZM19.5 2.25C18.0938 2.25 16.8966 2.81785 16.1279 3.68262C15.3592 4.54738 15 5.65625 15 6.75C15 7.84375 15.3592 8.95262 16.1279 9.81738C16.8966 10.6821 18.0938 11.25 19.5 11.25C20.9062 11.25 22.1034 10.6821 22.8721 9.81738C23.6408 8.95262 24 7.84375 24 6.75C24 5.65625 23.6408 4.54738 22.8721 3.68262C22.1034 2.81785 20.9062 2.25 19.5 2.25ZM9 4.5C9.84375 4.5 10.3341 4.7759 10.6904 5.17676C11.0467 5.57762 11.25 6.15625 11.25 6.75C11.25 7.34375 11.0467 7.92238 10.6904 8.32324C10.3341 8.7241 9.84375 9 9 9C8.15625 9 7.66589 8.7241 7.30957 8.32324C6.95325 7.92238 6.75 7.34375 6.75 6.75C6.75 6.15625 6.95325 5.57762 7.30957 5.17676C7.66589 4.7759 8.15625 4.5 9 4.5ZM19.5 4.5C20.3438 4.5 20.8341 4.7759 21.1904 5.17676C21.5467 5.57762 21.75 6.15625 21.75 6.75C21.75 7.34375 21.5467 7.92238 21.1904 8.32324C20.8341 8.7241 20.3438 9 19.5 9C18.6562 9 18.1659 8.7241 17.8096 8.32324C17.4533 7.92238 17.25 7.34375 17.25 6.75C17.25 6.15625 17.4533 5.57762 17.8096 5.17676C18.1659 4.7759 18.6562 4.5 19.5 4.5ZM4.875 12.75C3.45 12.75 2.25 13.95 2.25 15.375V22.5C2.25 26.25 5.25 29.25 9 29.25C10.575 29.25 11.9997 28.7247 13.1997 27.8247C12.6747 27.2247 12.3 26.55 12 25.875C11.175 26.55 10.2 27 9 27C6.525 27 4.5 24.975 4.5 22.5V15.375C4.5 15.15 4.65 15 4.875 15H11.25C11.325 14.175 11.6244 13.35 12.1494 12.75H4.875ZM15.375 12.75C13.95 12.75 12.75 13.95 12.75 15.375V22.5C12.75 25.275 14.4003 27.6756 16.8003 28.7256C16.6503 27.9006 16.5 27.075 16.5 26.25V25.875C15.6 25.05 15 23.85 15 22.5V15.375C15 15.15 15.15 15 15.375 15H23.625C23.85 15 24 15.15 24 15.375V16.8003C24.75 16.6503 25.5 16.5 26.25 16.5V15.375C26.25 13.95 25.05 12.75 23.625 12.75H15.375ZM26.25 18C21.675 18 18 21.675 18 26.25C18 30.825 21.675 34.5 26.25 34.5C30.825 34.5 34.5 30.825 34.5 26.25C34.5 21.675 30.825 18 26.25 18ZM25.5 21C25.95 21 26.25 21.3 26.25 21.75V26.25H30C30.45 26.25 30.75 26.55 30.75 27C30.75 27.45 30.45 27.75 30 27.75H25.5C25.05 27.75 24.75 27.45 24.75 27V21.75C24.75 21.3 25.05 21 25.5 21Z" fill="#153E90"/>
</svg>
