<svg width="125" height="93" viewBox="0 0 125 93" fill="none" xmlns="http://www.w3.org/2000/svg">
<g clip-path="url(#clip0)">
<path d="M12.5736 9.3126C11.7956 9.63533 10.9971 10.0496 10.5696 10.7757C10.1168 11.5428 10.171 12.4953 10.2553 13.3828C10.9899 21.0802 12.9252 29.2664 9.58329 36.2388C7.96109 39.6214 5.24778 42.3321 3.08966 45.404C0.931536 48.476 -0.697895 52.3114 0.30409 55.9252C1.52767 60.341 6.09441 62.7892 9.17262 66.1875C11.1874 68.4093 12.6001 71.1091 14.48 73.4465C16.3599 75.7838 18.936 77.843 21.9371 77.9803C26.2533 78.179 29.7651 74.452 33.997 73.5886C38.3326 72.7047 42.6982 74.9541 46.2136 77.6468C49.7289 80.3394 52.9264 83.6016 57.0222 85.2827C61.5456 87.1408 66.6447 86.8566 71.4065 87.9729C75.742 88.9904 79.7331 91.1544 84.0373 92.308C88.3415 93.4617 93.3863 93.3918 96.7211 90.4451C101.067 86.5916 100.725 79.7276 103.501 74.6302C106.08 69.894 111.127 67.0666 114.524 62.8795C120.637 55.3436 120.438 43.8253 115.247 35.6294C110.056 27.4336 100.654 22.471 91.0403 21.1789C86.7048 20.5973 82.2405 20.6767 78.0723 19.3533C66.9156 15.8129 60.2763 3.12777 48.8859 0.488143C41.6456 -1.18691 34.604 1.71403 28.4368 5.28451C23.0836 8.38415 18.1447 7.00172 12.5736 9.3126Z" fill="#F2FAFF"/>
<path d="M23.4455 34.1797C23.4455 34.1797 19.3352 38.0584 14.9239 38.1741C13.0714 38.2109 11.2809 38.8477 9.8212 39.9888C9.13123 40.5342 8.49269 41.1416 7.91357 41.8035" stroke="#414141" stroke-miterlimit="10"/>
<path d="M5.13159 41.8977C5.72411 41.5965 7.9858 41.7965 7.9858 41.7965C7.9858 41.7965 6.8128 43.742 6.22028 44.0431C6.07838 44.1273 5.92071 44.1814 5.75704 44.202C5.59338 44.2227 5.42721 44.2095 5.26885 44.1633C5.11049 44.1171 4.9633 44.0388 4.83643 43.9334C4.70956 43.8279 4.6057 43.6975 4.5313 43.5502C4.4569 43.4029 4.41354 43.2419 4.40391 43.0772C4.39428 42.9125 4.41859 42.7475 4.47532 42.5926C4.53206 42.4377 4.62001 42.296 4.73373 42.1765C4.84745 42.057 4.98451 41.9621 5.13641 41.8977H5.13159Z" fill="#52B6C3"/>
<path d="M7.51243 38.4602C8.17359 38.53 9.96319 39.9274 9.96319 39.9274C9.96319 39.9274 7.91587 40.9224 7.26073 40.8537C6.95421 40.8074 6.67736 40.6447 6.48779 40.3993C6.29821 40.154 6.21051 39.845 6.24294 39.5366C6.27537 39.2283 6.42542 38.9443 6.66188 38.7438C6.89834 38.5433 7.20299 38.4417 7.51243 38.4602Z" fill="#52B6C3"/>
<path d="M13.1583 35.6895C13.693 36.0834 14.5336 38.1939 14.5336 38.1939C14.5336 38.1939 12.2683 38.0216 11.7336 37.6289C11.4926 37.4342 11.3359 37.154 11.2961 36.8466C11.2563 36.5393 11.3365 36.2284 11.52 35.9786C11.7034 35.7289 11.9761 35.5595 12.2812 35.5056C12.5863 35.4518 12.9005 35.5176 13.1583 35.6895Z" fill="#52B6C3"/>
<path d="M17.9021 34.5565C18.4958 34.8541 19.6808 36.7923 19.6808 36.7923C19.6808 36.7923 17.4191 37.0055 16.8254 36.708C16.6756 36.6426 16.5407 36.5473 16.4289 36.4281C16.317 36.3088 16.2307 36.168 16.175 36.0143C16.1193 35.8605 16.0955 35.6971 16.1051 35.5338C16.1146 35.3706 16.1572 35.211 16.2304 35.0648C16.3036 34.9186 16.4057 34.7888 16.5307 34.6834C16.6556 34.5779 16.8007 34.499 16.9571 34.4515C17.1135 34.4039 17.2779 34.3887 17.4404 34.4068C17.6028 34.4248 17.7599 34.4758 17.9021 34.5565Z" fill="#52B6C3"/>
<path d="M11.2218 42.1202C11.4193 41.4855 10.8412 39.2891 10.8412 39.2891C10.8412 39.2891 9.12146 40.7726 8.92396 41.4073C8.8683 41.5604 8.84432 41.7233 8.85346 41.886C8.8626 42.0487 8.90467 42.2079 8.97713 42.3539C9.0496 42.4998 9.15093 42.6296 9.27501 42.7353C9.39909 42.8409 9.54333 42.9203 9.69899 42.9686C9.85465 43.0169 10.0185 43.0331 10.1806 43.0162C10.3427 42.9993 10.4997 42.9497 10.6421 42.8704C10.7844 42.7911 10.9092 42.6837 11.0089 42.5547C11.1085 42.4258 11.1809 42.2779 11.2218 42.1202Z" fill="#52B6C3"/>
<path d="M16.7534 40.7195C16.7534 40.0547 15.543 38.1328 15.543 38.1328C15.543 38.1328 14.346 40.0596 14.3472 40.7267C14.3481 41.0461 14.4759 41.352 14.7025 41.5771C14.929 41.8023 15.2357 41.9282 15.5551 41.9273C15.8745 41.9263 16.1804 41.7985 16.4056 41.572C16.6308 41.3455 16.7567 41.0388 16.7558 40.7195H16.7534Z" fill="#52B6C3"/>
<path d="M21.9427 38.629C22.0535 37.9739 21.1864 35.875 21.1864 35.875C21.1864 35.875 19.6798 37.5753 19.5702 38.2304C19.5332 38.5378 19.6159 38.8476 19.8013 39.0955C19.9867 39.3434 20.2604 39.5104 20.5657 39.5619C20.871 39.6133 21.1843 39.5452 21.4407 39.3717C21.6971 39.1983 21.8769 38.9327 21.9427 38.6302V38.629Z" fill="#52B6C3"/>
<path d="M28.7868 23.9073C28.7868 23.9073 23.8359 21.1882 22.3643 17.0229C21.7596 15.2713 20.603 13.7632 19.0681 12.725C18.3356 12.2377 17.56 11.8185 16.751 11.4727" stroke="#414141" stroke-miterlimit="10"/>
<path d="M15.8113 8.85356C16.2798 9.32441 16.7844 11.5389 16.7844 11.5389C16.7844 11.5389 14.5733 11.0211 14.1048 10.5491C13.8979 10.3194 13.7873 10.0189 13.7959 9.70986C13.8045 9.40084 13.9316 9.10696 14.1509 8.88906C14.3702 8.67116 14.6649 8.54595 14.974 8.53934C15.2831 8.53273 15.5829 8.64524 15.8113 8.85356Z" fill="#52B6C3"/>
<path d="M19.8159 10.0616C19.9532 10.7119 19.174 12.8445 19.174 12.8445C19.174 12.8445 17.6 11.208 17.4627 10.5565C17.4219 10.399 17.4135 10.2348 17.438 10.0739C17.4625 9.913 17.5193 9.75875 17.6051 9.62043C17.6908 9.48212 17.8038 9.36263 17.937 9.26917C18.0702 9.17571 18.221 9.11022 18.3803 9.07666C18.5395 9.0431 18.7039 9.04217 18.8636 9.07392C19.0232 9.10567 19.1747 9.16944 19.309 9.26138C19.4433 9.35332 19.5576 9.47152 19.6449 9.60885C19.7322 9.74618 19.7908 9.89978 19.8171 10.0604L19.8159 10.0616Z" fill="#52B6C3"/>
<path d="M24.1875 14.5873C23.9779 15.2171 22.2281 16.6658 22.2281 16.6658C22.2281 16.6658 21.6958 14.4585 21.9053 13.8275C22.0061 13.5241 22.2233 13.2731 22.5091 13.1298C22.7949 12.9865 23.1259 12.9626 23.4294 13.0634C23.7328 13.1642 23.9838 13.3813 24.1271 13.6671C24.2704 13.9529 24.2943 14.2839 24.1935 14.5873H24.1875Z" fill="#52B6C3"/>
<path d="M26.7261 18.7484C26.6262 19.4047 25.1461 21.1279 25.1461 21.1279C25.1461 21.1279 24.2476 19.0422 24.3476 18.3859C24.3643 18.2237 24.4137 18.0666 24.4929 17.9241C24.5721 17.7815 24.6794 17.6566 24.8083 17.5567C24.9372 17.4569 25.0851 17.3843 25.2429 17.3433C25.4008 17.3024 25.5653 17.2939 25.7265 17.3183C25.8877 17.3428 26.0423 17.3998 26.1808 17.4858C26.3193 17.5718 26.439 17.685 26.5324 17.8186C26.6259 17.9522 26.6913 18.1034 26.7246 18.263C26.7579 18.4226 26.7584 18.5873 26.7261 18.7472V18.7484Z" fill="#52B6C3"/>
<path d="M17.4721 14.7174C18.1369 14.7102 20.0494 13.4839 20.0494 13.4839C20.0494 13.4839 18.1092 12.3034 17.4444 12.3106C17.125 12.3143 16.8202 12.4447 16.5969 12.6732C16.3737 12.9017 16.2503 13.2096 16.254 13.5291C16.2577 13.8485 16.3881 14.1535 16.6165 14.3768C16.845 14.6001 17.1527 14.7235 17.4721 14.7198V14.7174Z" fill="#52B6C3"/>
<path d="M20.5023 19.5508C21.1334 19.3448 22.5918 17.603 22.5918 17.603C22.5918 17.603 20.3867 17.0573 19.7556 17.2633C19.5999 17.3077 19.4548 17.3831 19.3288 17.485C19.2029 17.5869 19.0988 17.7131 19.0228 17.8561C18.9468 17.9991 18.9004 18.156 18.8864 18.3174C18.8723 18.4788 18.891 18.6413 18.9412 18.7953C18.9915 18.9493 19.0723 19.0916 19.1787 19.2136C19.2852 19.3357 19.4152 19.435 19.5609 19.5057C19.7067 19.5763 19.8652 19.6168 20.0269 19.6248C20.1887 19.6328 20.3503 19.608 20.5023 19.552V19.5508Z" fill="#52B6C3"/>
<path d="M24.091 23.8455C24.7485 23.7491 26.4803 22.2795 26.4803 22.2795C26.4803 22.2795 24.3993 21.3688 23.7429 21.4652C23.5813 21.4818 23.4247 21.531 23.2826 21.6098C23.1404 21.6886 23.0157 21.7954 22.9159 21.9237C22.8161 22.052 22.7433 22.1991 22.7019 22.3563C22.6605 22.5135 22.6513 22.6774 22.6749 22.8383C22.6984 22.9991 22.7543 23.1535 22.8391 23.2921C22.9239 23.4308 23.0359 23.5508 23.1684 23.645C23.3008 23.7393 23.4509 23.8057 23.6097 23.8403C23.7684 23.875 23.9326 23.8772 24.0922 23.8467L24.091 23.8455Z" fill="#52B6C3"/>
<path d="M62.8578 89.1607C86.5361 89.1607 105.731 69.9672 105.731 46.2908C105.731 22.6144 86.5361 3.4209 62.8578 3.4209C39.1794 3.4209 19.9844 22.6144 19.9844 46.2908C19.9844 69.9672 39.1794 89.1607 62.8578 89.1607Z" fill="#52B6C3"/>
<path d="M62.8578 80.3702C81.6807 80.3702 96.9398 65.1125 96.9398 46.2911C96.9398 27.4697 81.6807 12.2119 62.8578 12.2119C44.0349 12.2119 28.7759 27.4697 28.7759 46.2911C28.7759 65.1125 44.0349 80.3702 62.8578 80.3702Z" fill="#F7F7F7"/>
<path opacity="0.3" d="M63.8209 18.2334H61.894V48.3387H63.8209V18.2334Z" fill="#414141"/>
<g opacity="0.1">
<path opacity="0.1" d="M92.1222 45.5684H64.9048V47.9776H92.1222V45.5684Z" fill="black"/>
<path opacity="0.1" d="M45.6889 36.5587L44.5718 38.6924L61.696 47.6622L62.8131 45.5285L45.6889 36.5587Z" fill="black"/>
<path opacity="0.1" d="M62.8575 50.3854C64.8529 50.3854 66.4705 48.768 66.4705 46.7728C66.4705 44.7776 64.8529 43.1602 62.8575 43.1602C60.8622 43.1602 59.2446 44.7776 59.2446 46.7728C59.2446 48.768 60.8622 50.3854 62.8575 50.3854Z" fill="black"/>
</g>
<path d="M92.1226 45.0869H64.9053V47.4961H92.1226V45.0869Z" fill="#414141"/>
<path d="M62.8227 45.0466L45.6973 36.0791L44.5799 38.2127L61.7053 47.1801L62.8227 45.0466Z" fill="#414141"/>
<path d="M62.8575 49.904C64.8529 49.904 66.4705 48.2865 66.4705 46.2913C66.4705 44.2961 64.8529 42.6787 62.8575 42.6787C60.8622 42.6787 59.2446 44.2961 59.2446 46.2913C59.2446 48.2865 60.8622 49.904 62.8575 49.904Z" fill="#414141"/>
<g opacity="0.1">
<path opacity="0.1" d="M31.423 50.3854C31.423 31.5636 46.6815 16.3062 65.5049 16.3062C70.7881 16.3016 75.9999 17.527 80.7273 19.8855C85.4548 22.2441 89.5681 25.6709 92.7415 29.8945C86.9416 19.3553 75.7415 12.2119 62.8554 12.2119C44.0321 12.2119 28.7735 27.4693 28.7735 46.2911C28.7624 53.6852 31.1674 60.8804 35.6224 66.7819C32.8596 61.759 31.4148 56.1179 31.423 50.3854Z" fill="black"/>
</g>
<g opacity="0.1">
<path opacity="0.1" d="M80.2106 56.7729C80.2106 56.7729 79.9565 57.2825 79.6084 57.8944C79.0767 57.6102 78.5628 57.294 78.0693 56.9476L77.9633 56.8729L77.9067 56.8319L78.5089 56.167L80.2106 56.7729Z" fill="black"/>
</g>
<g opacity="0.1">
<path opacity="0.1" d="M76.2494 57.4331C76.0933 57.5817 75.9663 57.7582 75.8749 57.9535C75.0186 57.5668 74.119 57.0789 73.7914 56.8982L73.7661 56.885C73.9294 56.6792 74.1166 56.4936 74.3237 56.332C74.3237 56.332 76.6902 57.0476 76.2494 57.4331Z" fill="black"/>
</g>
<g opacity="0.1">
<path opacity="0.1" d="M76.511 19.2095C76.953 19.2095 77.2998 18.741 77.7418 18.7651C77.9706 18.7771 78.1669 18.9229 78.356 19.0541C79.0705 19.5488 79.8655 19.9155 80.7056 20.1379C81.032 20.2246 81.3776 20.2896 81.7052 20.2102C82.0328 20.1307 82.3398 19.873 82.3772 19.537C82.3863 19.3889 82.3667 19.2405 82.3194 19.0999C81.9485 17.808 81.1095 16.7008 79.9662 15.9942C79.5085 15.7136 78.9497 15.4993 78.4427 15.6751C77.9851 15.8328 77.69 16.2615 77.3588 16.6144C77.1092 16.8786 76.8258 17.1086 76.5158 17.2984C76.2749 17.4441 75.9137 17.5392 75.7752 17.8066C75.5138 18.3051 75.9245 19.2046 76.511 19.2095Z" fill="black"/>
</g>
<path d="M116.014 53.501C116.014 53.501 110.975 58.5394 113.819 66.0151C116.664 73.4909 108.944 85.9231 108.944 85.9231C108.944 85.9231 109.027 85.9111 109.185 85.8846C119.534 84.0578 124.675 72.224 118.921 63.4321C116.776 60.1627 115.02 56.3285 116.014 53.501Z" fill="#52B6C3"/>
<path opacity="0.1" d="M116.014 53.585C116.014 53.585 110.975 58.6234 113.819 66.0991C116.664 73.5749 108.944 86.0059 108.944 86.0059C108.944 86.0059 109.027 85.9939 109.185 85.9674C119.534 84.1406 124.675 72.3068 118.921 63.5149C116.776 60.2467 115.02 56.4124 116.014 53.585Z" fill="black"/>
<path d="M116.013 53.501C116.013 53.501 113.169 59.6762 116.013 64.7146C118.858 69.753 116.495 83.8916 108.943 85.9231" stroke="white" stroke-miterlimit="10" stroke-linecap="round"/>
<path d="M124.988 73.8783C124.988 73.8783 119.239 72.9631 118.715 78.1147C118.191 83.2664 107.656 83.9805 107.656 83.9805L107.853 84.1117C116.548 89.8197 124.862 87.7472 123.608 80.1679C123.146 77.3513 123.184 74.5214 124.988 73.8783Z" fill="#52B6C3"/>
<path d="M124.988 73.8779C124.988 73.8779 120.525 74.857 120.893 78.9152C121.262 82.9734 114.269 87.8372 107.66 83.9813" stroke="white" stroke-miterlimit="10" stroke-linecap="round" stroke-linejoin="round"/>
<path d="M119.93 84.1686C119.93 84.1686 115.402 83.2631 114.194 82.0553C112.986 80.8474 107.552 78.7352 106.949 80.2489C106.345 81.7626 98.7978 86.8902 103.929 87.7957C109.061 88.7013 116.005 88.9999 117.514 88.3978C119.023 87.7957 119.93 84.1686 119.93 84.1686Z" fill="#BCBCBC"/>
<path opacity="0.2" d="M103.929 87.2306C109.062 88.1361 116.005 88.4348 117.514 87.8327C118.664 87.3726 119.462 85.1641 119.778 84.1357L119.928 84.1671C119.928 84.1671 119.023 87.7893 117.514 88.3926C116.005 88.9959 109.061 88.6949 103.929 87.7905C102.448 87.5292 102.024 86.915 102.184 86.1383C102.309 86.6453 102.826 87.0355 103.929 87.2306Z" fill="black"/>
</g>
<defs>
<clipPath id="clip0">
<rect width="125" height="93" fill="white"/>
</clipPath>
</defs>
</svg>
