<svg width="116" height="97" viewBox="0 0 116 97" fill="none" xmlns="http://www.w3.org/2000/svg">
<g clip-path="url(#clip0)">
<path d="M82.9287 10.5931C73.0209 10.5479 64.1161 14.8466 58 21.6952C51.8839 14.8466 42.979 10.5479 33.0712 10.5931C14.4663 10.6781 -0.361325 25.908 0.00670553 44.5343C0.363642 62.5993 15.0998 77.1336 33.2262 77.1336C33.9294 77.1336 34.6274 77.112 35.32 77.0686C50.4252 76.1275 65.5748 76.1275 80.68 77.0686C81.3724 77.1118 82.0703 77.1334 82.7738 77.1336C100.9 77.1336 115.636 62.5993 115.993 44.5343C116.361 25.908 101.534 10.6781 82.9287 10.5931Z" fill="#F2FAFF"/>
<path d="M76.639 0.864258C76.1421 0.892171 75.6628 1.05718 75.2548 1.34079C74.8469 1.6244 74.5265 2.0154 74.3295 2.46993C73.752 3.858 74.4956 5.48848 75.6118 6.50067C76.728 7.51286 78.1619 8.09142 79.4647 8.8519C81.2145 9.87335 82.7869 11.2913 83.6625 13.1114C84.538 14.9316 84.6311 17.1862 83.602 18.9251C82.6467 20.539 80.9098 21.5049 79.2532 22.3958" stroke="#414141" stroke-miterlimit="10"/>
<path d="M78.1105 1.97072C79.2373 1.97072 80.1507 1.52956 80.1507 0.985362C80.1507 0.441161 79.2373 0 78.1105 0C76.9837 0 76.0703 0.441161 76.0703 0.985362C76.0703 1.52956 76.9837 1.97072 78.1105 1.97072Z" fill="#52B6C3"/>
<path d="M79.7423 8.46291C80.8691 8.46291 81.7825 8.02175 81.7825 7.47755C81.7825 6.93335 80.8691 6.49219 79.7423 6.49219C78.6156 6.49219 77.7021 6.93335 77.7021 7.47755C77.7021 8.02175 78.6156 8.46291 79.7423 8.46291Z" fill="#52B6C3"/>
<path d="M76.0119 9.50588C77.1386 9.50588 78.0521 9.06472 78.0521 8.52052C78.0521 7.97632 77.1386 7.53516 76.0119 7.53516C74.8851 7.53516 73.9717 7.97632 73.9717 8.52052C73.9717 9.06472 74.8851 9.50588 76.0119 9.50588Z" fill="#52B6C3"/>
<path d="M81.841 14.9541C82.9677 14.9541 83.8812 14.513 83.8812 13.9688C83.8812 13.4246 82.9677 12.9834 81.841 12.9834C80.7142 12.9834 79.8008 13.4246 79.8008 13.9688C79.8008 14.513 80.7142 14.9541 81.841 14.9541Z" fill="#52B6C3"/>
<path d="M85.9211 14.9541C87.0479 14.9541 87.9613 14.513 87.9613 13.9688C87.9613 13.4246 87.0479 12.9834 85.9211 12.9834C84.7943 12.9834 83.8809 13.4246 83.8809 13.9688C83.8809 14.513 84.7943 14.9541 85.9211 14.9541Z" fill="#52B6C3"/>
<path d="M87.4206 33.1833C86.963 32.9887 86.4598 32.9247 85.9676 32.9985C85.4755 33.0724 85.0137 33.281 84.6341 33.6012C83.4964 34.5895 83.4338 36.3787 83.9814 37.7787C84.529 39.1787 85.5549 40.3306 86.3821 41.5875C87.4932 43.2758 88.2681 45.2408 88.239 47.2583C88.2099 49.2757 87.2857 51.3366 85.5866 52.4396C84.0095 53.4633 82.0218 53.5611 80.1396 53.6271" stroke="#414141" stroke-miterlimit="10"/>
<path d="M90.5127 34.8432C90.7559 34.3557 90.1348 33.5569 89.1254 33.059C88.116 32.561 87.1006 32.5526 86.8574 33.0401C86.6142 33.5276 87.2353 34.3265 88.2447 34.8244C89.2541 35.3223 90.2695 35.3307 90.5127 34.8432Z" fill="#52B6C3"/>
<path d="M89.0733 41.3793C89.3165 40.8918 88.6954 40.093 87.686 39.5951C86.6766 39.0972 85.6611 39.0888 85.4179 39.5763C85.1747 40.0638 85.7958 40.8626 86.8052 41.3605C87.8146 41.8584 88.8301 41.8669 89.0733 41.3793Z" fill="#52B6C3"/>
<path d="M85.2647 40.6664C85.5079 40.1789 84.8868 39.3801 83.8774 38.8822C82.868 38.3843 81.8525 38.3759 81.6093 38.8634C81.3661 39.3509 81.9872 40.1497 82.9966 40.6476C84.006 41.1455 85.0214 41.154 85.2647 40.6664Z" fill="#52B6C3"/>
<path d="M88.0518 48.1225C88.295 47.635 87.6739 46.8362 86.6645 46.3382C85.6551 45.8403 84.6396 45.8319 84.3964 46.3194C84.1532 46.8069 84.7743 47.6058 85.7837 48.1037C86.7931 48.6016 87.8086 48.61 88.0518 48.1225Z" fill="#52B6C3"/>
<path d="M91.7071 49.9262C91.9503 49.4387 91.3292 48.6399 90.3198 48.142C89.3104 47.6441 88.2949 47.6356 88.0517 48.1231C87.8085 48.6107 88.4296 49.4095 89.439 49.9074C90.4484 50.4053 91.4639 50.4137 91.7071 49.9262Z" fill="#52B6C3"/>
<path d="M34.7422 42.4758C35.0952 42.1269 35.539 41.8827 36.0238 41.7705C36.5086 41.6583 37.0152 41.6827 37.4869 41.8408C38.9112 42.3413 39.634 43.9811 39.6451 45.4832C39.6563 46.9853 39.1307 48.4325 38.8289 49.9044C38.4235 51.8814 38.4333 53.992 39.2097 55.8561C39.9861 57.7202 41.6104 59.296 43.599 59.697C45.4448 60.0691 47.3283 59.43 49.1019 58.8001" stroke="#414141" stroke-miterlimit="10"/>
<path d="M34.5868 44.3032C35.3399 43.4698 35.6204 42.4994 35.2133 42.1356C34.8062 41.7719 33.8657 42.1527 33.1126 42.9861C32.3595 43.8195 32.079 44.79 32.4861 45.1537C32.8932 45.5174 33.8337 45.1367 34.5868 44.3032Z" fill="#52B6C3"/>
<path d="M38.3515 49.8491C39.1046 49.0157 39.385 48.0453 38.9779 47.6816C38.5709 47.3178 37.6303 47.6986 36.8773 48.532C36.1242 49.3654 35.8437 50.3359 36.2508 50.6996C36.6579 51.0633 37.5984 50.6825 38.3515 49.8491Z" fill="#52B6C3"/>
<path d="M41.6259 47.7876C42.379 46.9542 42.6594 45.9837 42.2523 45.62C41.8453 45.2563 40.9047 45.6371 40.1517 46.4705C39.3986 47.3039 39.1181 48.2743 39.5252 48.6381C39.9323 49.0018 40.8728 48.621 41.6259 47.7876Z" fill="#52B6C3"/>
<path d="M41.8056 55.7407C42.5587 54.9073 42.8391 53.9369 42.4321 53.5731C42.025 53.2094 41.0844 53.5902 40.3314 54.4236C39.5783 55.257 39.2978 56.2275 39.7049 56.5912C40.112 56.9549 41.0525 56.5742 41.8056 55.7407Z" fill="#52B6C3"/>
<path d="M39.078 58.7583C39.8311 57.9249 40.1116 56.9544 39.7045 56.5907C39.2974 56.227 38.3569 56.6078 37.6038 57.4412C36.8507 58.2746 36.5703 59.245 36.9773 59.6088C37.3844 59.9725 38.325 59.5917 39.078 58.7583Z" fill="#52B6C3"/>
<path d="M81.6638 29.0921L81.3432 31.4303L79.3613 45.8583L76.1156 69.4861L75.303 75.4018C75.2411 75.8534 75.0168 76.2673 74.6714 76.567C74.3261 76.8667 73.8832 77.0318 73.4249 77.0317H51.7813C51.3237 77.0318 50.8815 76.8673 50.5363 76.5686C50.1911 76.2699 49.9662 75.8571 49.9032 75.4064L49.0766 69.4861L45.7761 45.8583L43.7593 31.4199L43.4352 29.0968C43.3977 28.8299 43.4183 28.5581 43.4955 28.2998C43.5726 28.0416 43.7046 27.8027 43.8825 27.5995C44.0604 27.3962 44.2801 27.2332 44.5267 27.1216C44.7733 27.0099 45.0412 26.9521 45.3121 26.9521H79.7857C80.0562 26.9523 80.3236 27.01 80.5699 27.1213C80.8162 27.2327 81.0357 27.3952 81.2136 27.5979C81.3915 27.8006 81.5237 28.0388 81.6014 28.2966C81.679 28.5543 81.7003 28.8255 81.6638 29.0921Z" fill="#153E90" fill-opacity="0.2"/>
<path d="M77.6135 20.6924H47.5958C46.5489 20.6924 45.7002 21.5363 45.7002 22.5773V25.0674C45.7002 26.1084 46.5489 26.9523 47.5958 26.9523H77.6135C78.6605 26.9523 79.5092 26.1084 79.5092 25.0674V22.5773C79.5092 21.5363 78.6605 20.6924 77.6135 20.6924Z" fill="#52B6C3"/>
<path opacity="0.1" d="M79.5092 23.6514V25.068C79.5092 25.5679 79.3095 26.0473 78.954 26.4008C78.5985 26.7543 78.1163 26.9529 77.6136 26.9529H47.5958C47.0931 26.9529 46.6109 26.7543 46.2554 26.4008C45.8999 26.0473 45.7002 25.5679 45.7002 25.068V23.6548C56.9445 24.7202 68.2652 24.719 79.5092 23.6514Z" fill="white"/>
<path d="M53.5701 44.8625C56.4031 44.8625 58.6997 42.5789 58.6997 39.7618C58.6997 36.9448 56.4031 34.6611 53.5701 34.6611C50.737 34.6611 48.4404 36.9448 48.4404 39.7618C48.4404 42.5789 50.737 44.8625 53.5701 44.8625Z" fill="#757575"/>
<path d="M71.7566 44.8625C74.5896 44.8625 76.8862 42.5789 76.8862 39.7618C76.8862 36.9448 74.5896 34.6611 71.7566 34.6611C68.9236 34.6611 66.627 36.9448 66.627 39.7618C66.627 42.5789 68.9236 44.8625 71.7566 44.8625Z" fill="#757575"/>
<path d="M53.3365 41.1533C54.1091 41.1533 54.7355 40.5305 54.7355 39.7622C54.7355 38.9939 54.1091 38.3711 53.3365 38.3711C52.5638 38.3711 51.9375 38.9939 51.9375 39.7622C51.9375 40.5305 52.5638 41.1533 53.3365 41.1533Z" fill="white"/>
<path d="M55.4355 37.6758C55.7574 37.6758 56.0184 37.4163 56.0184 37.0962C56.0184 36.7761 55.7574 36.5166 55.4355 36.5166C55.1135 36.5166 54.8525 36.7761 54.8525 37.0962C54.8525 37.4163 55.1135 37.6758 55.4355 37.6758Z" fill="white"/>
<path d="M71.7564 41.1533C72.529 41.1533 73.1554 40.5305 73.1554 39.7622C73.1554 38.9939 72.529 38.3711 71.7564 38.3711C70.9838 38.3711 70.3574 38.9939 70.3574 39.7622C70.3574 40.5305 70.9838 41.1533 71.7564 41.1533Z" fill="white"/>
<path d="M73.8554 37.6758C74.1773 37.6758 74.4383 37.4163 74.4383 37.0962C74.4383 36.7761 74.1773 36.5166 73.8554 36.5166C73.5334 36.5166 73.2725 36.7761 73.2725 37.0962C73.2725 37.4163 73.5334 37.6758 73.8554 37.6758Z" fill="white"/>
<path opacity="0.1" d="M81.5562 28.1694H81.5565C81.5559 28.1679 81.5552 28.1666 81.5547 28.1652C81.5048 28.0354 81.4406 27.9116 81.3633 27.7958L81.3631 27.7955C81.3403 27.7614 81.3161 27.7283 81.2911 27.6958C81.2828 27.6849 81.2742 27.6742 81.2656 27.6635C81.1929 27.5728 81.112 27.489 81.024 27.413C81.0043 27.396 80.9845 27.3793 80.9641 27.3631C80.9413 27.3449 80.9183 27.3271 80.8946 27.31C80.8649 27.2886 80.8343 27.2684 80.8034 27.2487C80.779 27.2332 80.7545 27.2179 80.7293 27.2035C80.6904 27.1812 80.6507 27.1601 80.6102 27.1404C80.5908 27.1311 80.5712 27.1225 80.5515 27.1138C80.5128 27.0967 80.4733 27.0809 80.4332 27.0664C80.417 27.0606 80.4012 27.0541 80.3848 27.0487C80.3293 27.0303 80.2726 27.0144 80.2147 27.0011C80.2006 26.9978 80.1861 26.9955 80.1718 26.9926C80.1245 26.9828 80.0766 26.9749 80.028 26.9687C80.0104 26.9665 79.9929 26.9642 79.9752 26.9625C79.9129 26.9564 79.8501 26.9522 79.786 26.9522L79.7859 26.9521H45.3123C45.0417 26.953 44.7743 27.0114 44.5282 27.1233C44.2821 27.2353 44.0628 27.3982 43.8851 27.6012C43.7074 27.8042 43.5753 28.0426 43.4977 28.3004C43.4201 28.5582 43.3988 28.8296 43.4352 29.0963L43.49 29.4882L43.7595 31.4199L43.7598 31.4199L45.7765 45.8583H45.7763L48.4237 64.8109L49.9037 75.4062C49.9666 75.8568 50.1914 76.2696 50.5364 76.5684C50.8815 76.8671 51.3236 77.0317 51.7812 77.0317H52.8083C52.7575 76.9 52.7217 76.763 52.7016 76.6234L51.7047 69.4862H76.1158L79.3615 45.8583H48.4045L46.42 31.651C58.0454 32.5885 69.7309 32.5147 81.3434 31.4303L81.664 29.0921C81.7067 28.7804 81.6696 28.463 81.5562 28.1694Z" fill="white"/>
<path d="M84.3756 30.0822C69.9047 31.6528 55.3049 31.6528 40.834 30.0822C40.3313 30.0822 39.8491 29.8836 39.4937 29.5302C39.1382 29.1767 38.9385 28.6973 38.9385 28.1974V25.7071C38.9385 25.2072 39.1382 24.7278 39.4937 24.3743C39.8491 24.0208 40.3313 23.8223 40.834 23.8223C55.2934 25.59 69.9161 25.59 84.3756 23.8223C84.8783 23.8223 85.3604 24.0208 85.7159 24.3743C86.0714 24.7278 86.2711 25.2072 86.2711 25.7071V28.1974C86.2711 28.6973 86.0714 29.1767 85.7159 29.5302C85.3604 29.8836 84.8783 30.0822 84.3756 30.0822Z" fill="#52B6C3"/>
<path d="M77.0069 68.6276H47.8629C47.6013 68.6276 47.3482 68.5348 47.1492 68.3659C46.9503 68.1969 46.8184 67.963 46.7774 67.706L43.6288 47.982C43.6039 47.826 43.6133 47.6664 43.6564 47.5143C43.6995 47.3622 43.7753 47.2212 43.8785 47.101C43.9816 46.9809 44.1098 46.8844 44.2541 46.8182C44.3984 46.752 44.5554 46.7178 44.7143 46.7178H80.3653C80.5252 46.7178 80.6831 46.7524 80.8281 46.8194C80.9731 46.8863 81.1017 46.9839 81.2049 47.1053C81.308 47.2267 81.3833 47.3691 81.4255 47.5224C81.4677 47.6758 81.4757 47.8364 81.449 47.9931L78.0905 67.7172C78.0472 67.9718 77.9146 68.2029 77.7162 68.3695C77.5178 68.5362 77.2665 68.6276 77.0069 68.6276Z" fill="#52B6C3"/>
<path d="M73.6907 54.5686C73.8281 54.5936 73.9562 54.6549 74.0615 54.7462C74.1668 54.8375 74.2453 54.9553 74.2889 55.0873C74.3325 55.2192 74.3395 55.3604 74.3092 55.496C74.2789 55.6316 74.2123 55.7565 74.1166 55.8577C72.2675 57.8176 67.784 61.9042 62.5467 61.9042C57.3094 61.9042 52.8259 57.8176 50.9768 55.8577C50.881 55.7565 50.8145 55.6316 50.7842 55.496C50.7538 55.3604 50.7608 55.2192 50.8044 55.0873C50.848 54.9553 50.9266 54.8375 51.0319 54.7462C51.1372 54.6549 51.2653 54.5936 51.4027 54.5686C58.7702 53.2206 66.3232 53.2206 73.6907 54.5686H73.6907Z" fill="#D0D8E9"/>
<path d="M68.3758 55.7906C68.5177 55.8131 68.6506 55.8743 68.7597 55.9675C68.8687 56.0606 68.9496 56.182 68.9934 56.3182C69.0371 56.4544 69.042 56.5999 69.0075 56.7387C68.973 56.8775 68.9005 57.004 68.798 57.1042C67.5457 58.3182 65.2151 60.1489 62.5469 60.1489C59.8786 60.1489 57.548 58.3182 56.2957 57.1042C56.1932 57.004 56.1207 56.8775 56.0862 56.7387C56.0517 56.5999 56.0566 56.4544 56.1003 56.3182C56.1441 56.182 56.225 56.0606 56.334 55.9675C56.4431 55.8743 56.576 55.8131 56.7179 55.7906C60.5774 55.1531 64.5163 55.1531 68.3758 55.7906Z" fill="white"/>
<path d="M14.748 77.0898H95.3067" stroke="#414141" stroke-miterlimit="10"/>
<path d="M21.4111 66.3604V69.6214L23.0952 71.5604C23.0952 71.5604 23.8043 71.296 23.8043 69.5333L24.0702 66.9773L21.4111 66.3604Z" fill="#F8BDC5"/>
<path d="M23.0947 69.6212C23.0947 69.6212 20.3469 67.7703 20.2583 67.1534C20.1697 66.5364 16.2696 63.7161 16.8901 65.4788C17.5106 67.2415 19.4606 68.0347 19.4606 68.0347C19.4606 68.0347 20.9674 72.089 22.2969 72.0009C23.6265 71.9127 23.6265 70.2381 23.0947 69.6212Z" fill="#F8BDC5"/>
<path d="M24.6904 89.4521L24.9563 91.0386L23.5381 90.686V89.4521H24.6904Z" fill="#414141"/>
<path d="M24.4241 90.3336C24.4241 90.3336 22.7849 89.368 22.7181 89.8067C22.6513 90.2454 21.9422 91.92 21.5877 92.0963C21.2331 92.2726 20.79 94.2116 21.5877 94.1235C22.2055 94.0552 24.4717 92.8767 25.4622 92.3486C25.5842 92.2833 25.6762 92.1739 25.7195 92.0431C25.7628 91.9123 25.754 91.7699 25.6949 91.6453C25.6368 91.5385 25.5968 91.4228 25.5763 91.3031C25.5763 91.1268 24.4241 90.3336 24.4241 90.3336Z" fill="black"/>
<path d="M25.222 72.4414C25.222 72.4414 18.7515 75.4381 19.372 77.7296C19.9925 80.0212 22.297 89.7162 22.297 89.7162C22.297 89.7162 24.8675 90.3331 25.0448 89.7162C25.222 89.0992 23.3607 79.4923 23.5379 79.1398C23.7152 78.7872 26.9947 76.4957 26.9947 76.4957L33.7311 73.6753L30.8948 71.0312L25.222 72.4414Z" fill="black"/>
<path d="M20.3466 89.9814L19.5488 92.0086L20.9671 92.6256L21.8534 91.039L20.3466 89.9814Z" fill="#414141"/>
<path d="M25.1338 57.9876C25.1338 57.9876 25.9315 59.0453 25.3111 59.5741C24.6906 60.1029 25.1338 62.0419 25.1338 62.0419L25.9315 64.2453L29.1225 63.6284V60.0148L28.9452 58.2521C28.9452 58.2521 27.3497 56.7537 27.1725 55.608C26.9952 54.4622 25.1338 57.9876 25.1338 57.9876Z" fill="#F8BDC5"/>
<path opacity="0.1" d="M25.1338 57.9876C25.1338 57.9876 25.9315 59.0453 25.3111 59.5741C24.6906 60.1029 25.1338 62.0419 25.1338 62.0419L25.9315 64.2453L29.1225 63.6284V60.0148L28.9452 58.2521C28.9452 58.2521 27.3497 56.7537 27.1725 55.608C26.9952 54.4622 25.1338 57.9876 25.1338 57.9876Z" fill="white"/>
<path d="M30.4516 71.7363C30.4516 71.7363 26.2857 76.3194 26.2857 76.4957C26.2857 76.672 24.0698 80.2856 24.0698 80.2856L19.7266 89.8924C19.7266 89.8924 21.4107 92.184 22.1197 92.0077C22.8288 91.8314 27.8811 81.6076 27.8811 81.6076C27.8811 81.6076 28.7675 79.3161 31.1607 78.7872C33.5539 78.2584 35.4152 76.4076 34.5289 74.2923C33.6425 72.177 30.4516 71.7363 30.4516 71.7363Z" fill="black"/>
<path d="M25.1332 58.6046C26.6997 58.6046 27.9696 57.3419 27.9696 55.7842C27.9696 54.2266 26.6997 52.9639 25.1332 52.9639C23.5668 52.9639 22.2969 54.2266 22.2969 55.7842C22.2969 57.3419 23.5668 58.6046 25.1332 58.6046Z" fill="#F8BDC5"/>
<path d="M25.2222 60.3677C25.2222 60.3677 25.5768 62.3948 25.9313 62.5711C26.2859 62.7474 26.5518 63.3643 27.3495 62.483C28.1472 61.6016 28.8563 59.8389 28.8563 59.8389L31.6041 63.188L31.87 72.4423C31.87 72.4423 28.7677 71.6491 27.7927 72.4423C26.8177 73.2356 24.6904 73.1474 24.6904 73.1474L25.1336 71.3847L24.7791 68.3881L24.8677 65.6559L24.9563 63.7169L25.2222 60.3677Z" fill="#F7F7F7"/>
<path d="M25.5342 58.8838C25.5342 58.8838 24.3356 59.4859 24.2469 59.8385C24.1583 60.191 22.5628 60.8961 22.5628 60.8961C22.5628 60.8961 21.9424 61.5131 21.9424 61.8656C21.9424 62.2182 24.0697 66.2724 24.0697 66.2724C24.0697 66.2724 24.5128 69.0046 24.3356 69.5335C24.1583 70.0623 24.6901 72.0894 24.6901 72.0894L23.6265 73.3233H24.6015C24.6015 73.3233 25.6651 72.7945 25.6651 72.5301C25.6651 72.2657 25.4878 70.4148 25.3992 69.6216C25.3106 68.8284 25.3106 66.008 25.4878 65.0385C25.6651 64.069 25.5765 61.5131 25.5765 60.8961C25.5765 60.2792 25.5342 58.8838 25.5342 58.8838Z" fill="#52B6C3"/>
<path d="M28.2803 57.5459C28.2803 57.5459 28.6792 57.6355 29.8315 57.988C30.9838 58.3406 32.7565 58.8694 33.3769 59.5745C33.8124 60.0959 34.1982 60.6566 34.5292 61.2491L34.1747 67.5949C34.1747 67.5949 34.8838 68.9169 34.7951 69.622C34.7065 70.3271 33.9974 70.4152 34.5292 71.9136C35.061 73.4119 36.1247 74.7339 35.1497 74.9102C34.1747 75.0865 31.6042 74.4695 30.4519 74.8221C29.2997 75.1746 27.9701 73.5 27.9701 73.5C27.9701 73.5 29.7428 73.6763 29.4769 72.9712C29.211 72.2661 26.286 64.3338 26.9065 62.5711C27.5269 60.8084 28.2803 57.5459 28.2803 57.5459Z" fill="#52B6C3"/>
<path d="M22.3854 61.4248L21.9423 61.7773C21.9423 61.7773 20.7014 66.1842 21.0559 66.6249C21.4104 67.0655 24.2468 68.035 24.4241 67.4181C24.6014 66.8011 22.3854 61.4248 22.3854 61.4248Z" fill="#52B6C3"/>
<path d="M35.5041 64.5098C35.5041 64.5098 36.8336 68.2996 36.8336 69.3573C36.8336 70.4149 36.6563 76.5844 36.6563 76.5844C36.6563 76.5844 36.5677 79.2285 34.7063 78.1709C32.845 77.1133 34.7063 76.4082 34.7063 76.4082C34.7063 76.4082 34.6177 69.4454 33.9086 68.4759C33.1995 67.5064 32.9336 66.0962 32.9336 66.0962L35.5041 64.5098Z" fill="#F8BDC5"/>
<path d="M20.9672 91.9198C20.9672 91.9198 19.6376 91.2147 19.3717 91.7435C19.1058 92.2724 17.6876 95.1809 17.8649 95.5334C18.0422 95.886 19.0172 97.2962 20.1694 96.9436C21.3217 96.5911 21.4103 94.7402 21.4103 94.7402L21.499 92.6249L20.9672 91.9198Z" fill="black"/>
<path d="M24.5781 55.1031C24.7735 55.1946 25.0053 55.2492 25.1281 55.4259C25.219 55.5568 25.2281 55.7269 25.2945 55.8716C25.3669 56.015 25.4916 56.1255 25.6431 56.1806C25.7947 56.2357 25.9616 56.2312 26.11 56.1682C26.1462 55.9926 26.2489 55.8376 26.3968 55.7351C26.4715 55.6863 26.56 55.6625 26.6492 55.6674C26.7385 55.6723 26.8238 55.7055 26.8927 55.7622C27.0754 55.9354 27.0107 56.2374 27.096 56.4736C27.176 56.6398 27.2861 56.7899 27.4208 56.9165C27.6148 57.1391 27.7693 57.4001 28.003 57.5812C28.2366 57.7623 28.5909 57.8407 28.823 57.6577C29.0182 57.5039 29.0586 57.22 29.0112 56.9768C28.9638 56.7337 28.8463 56.5098 28.78 56.271C28.5646 55.4953 28.908 54.6671 28.8018 53.8693C28.6656 52.847 27.7918 52.0395 26.8165 51.6891C26.4106 51.5248 25.9663 51.4779 25.5348 51.5541C25.0887 51.6531 24.7077 51.9355 24.2805 52.097C23.8237 52.2697 23.3269 52.2998 22.8488 52.4008C22.3708 52.5017 21.8788 52.6969 21.6014 53.097C21.4079 53.3761 21.3414 53.7227 21.181 54.0218C20.9964 54.3632 20.6974 54.6295 20.3359 54.7746L20.8413 54.746C20.7566 54.9703 20.6184 55.1708 20.4386 55.3303C20.6756 55.3784 20.922 55.346 21.1382 55.2384C21.1343 55.3417 21.1092 55.4431 21.0643 55.5363C21.0194 55.6295 20.9558 55.7126 20.8774 55.7805C21.2663 55.7688 21.6764 55.751 22.005 55.5439C22.1659 55.4424 22.2972 55.3011 22.4486 55.1861C22.7715 54.941 23.172 54.8246 23.5624 54.7132C23.7675 54.6547 24.0142 54.5733 24.1997 54.7044C24.3541 54.8136 24.3785 55.0097 24.5781 55.1031Z" fill="black"/>
<path d="M33.1997 60.1914L34.5293 61.249L36.302 65.3033C36.302 65.3033 33.8202 67.2423 33.1997 66.9779C32.5793 66.7135 31.5156 62.0423 31.5156 62.0423L33.1997 60.1914Z" fill="#52B6C3"/>
<path d="M19.983 64.286L19.9608 64.448L19.8235 65.4477L19.5986 67.0848L19.5423 67.4946C19.538 67.5259 19.5225 67.5546 19.4985 67.5754C19.4746 67.5961 19.4439 67.6076 19.4122 67.6076H17.9125C17.8808 67.6076 17.8502 67.5962 17.8263 67.5755C17.8024 67.5548 17.7868 67.5262 17.7824 67.495L17.7251 67.0848L17.4965 65.4477L17.3567 64.4473L17.3343 64.2863C17.3317 64.2678 17.3331 64.249 17.3384 64.2311C17.3438 64.2132 17.3529 64.1966 17.3653 64.1825C17.3776 64.1685 17.3928 64.1572 17.4099 64.1494C17.427 64.1417 17.4455 64.1377 17.4643 64.1377H19.8529C19.8716 64.1377 19.8902 64.1417 19.9072 64.1494C19.9243 64.1571 19.9395 64.1684 19.9518 64.1824C19.9642 64.1965 19.9733 64.213 19.9787 64.2309C19.9841 64.2487 19.9856 64.2675 19.983 64.286Z" fill="#52B6C3"/>
<path d="M19.7034 63.7041H17.6235C17.551 63.7041 17.4922 63.7626 17.4922 63.8347V64.0072C17.4922 64.0794 17.551 64.1378 17.6235 64.1378H19.7034C19.7759 64.1378 19.8347 64.0794 19.8347 64.0072V63.8347C19.8347 63.7626 19.7759 63.7041 19.7034 63.7041Z" fill="#757575"/>
<path d="M20.1717 64.3546C19.169 64.4635 18.1574 64.4635 17.1548 64.3546C17.1375 64.3546 17.1204 64.3513 17.1045 64.3447C17.0886 64.3381 17.0741 64.3285 17.0619 64.3164C17.0497 64.3043 17.04 64.2899 17.0334 64.274C17.0268 64.2582 17.0234 64.2412 17.0234 64.224V64.0515C17.0234 64.0169 17.0373 63.9836 17.0619 63.9591C17.0865 63.9347 17.1199 63.9209 17.1548 63.9209C18.1566 64.0434 19.1698 64.0434 20.1717 63.9209C20.2065 63.9209 20.2399 63.9347 20.2645 63.9591C20.2892 63.9836 20.303 64.0169 20.303 64.0515V64.224C20.303 64.2587 20.2892 64.2919 20.2645 64.3164C20.2399 64.3409 20.2065 64.3546 20.1717 64.3546Z" fill="#757575"/>
<path d="M19.6613 67.0249H17.642C17.6238 67.0249 17.6063 67.0185 17.5925 67.0068C17.5787 66.9951 17.5696 66.9789 17.5668 66.9611L17.3486 65.5944C17.3469 65.5836 17.3475 65.5726 17.3505 65.562C17.3535 65.5515 17.3587 65.5417 17.3659 65.5334C17.373 65.5251 17.3819 65.5184 17.3919 65.5138C17.4019 65.5092 17.4128 65.5068 17.4238 65.5068H19.894C19.905 65.5068 19.916 65.5092 19.926 65.5139C19.9361 65.5185 19.945 65.5253 19.9521 65.5337C19.9593 65.5421 19.9645 65.552 19.9674 65.5626C19.9703 65.5732 19.9709 65.5843 19.9691 65.5952L19.7364 66.9618C19.7334 66.9795 19.7242 66.9955 19.7104 67.007C19.6967 67.0186 19.6793 67.0249 19.6613 67.0249Z" fill="#757575"/>
</g>
<defs>
<clipPath id="clip0">
<rect width="116" height="97" fill="white"/>
</clipPath>
</defs>
</svg>
