<svg width="36" height="36" viewBox="0 0 36 36" fill="none" xmlns="http://www.w3.org/2000/svg">
<path d="M8.68555 4.5C6.42072 4.5 4.56055 6.36017 4.56055 8.625V27.375C4.56055 29.6398 6.42072 31.5 8.68555 31.5H27.4355C29.7004 31.5 31.5605 29.6398 31.5605 27.375V8.625C31.5605 6.36017 29.7004 4.5 27.4355 4.5H22.5005C22.2021 4.50003 21.916 4.61857 21.705 4.82954C21.4941 5.04051 21.3755 5.32664 21.3755 5.625C21.3755 6.83006 20.9414 7.60467 20.3164 8.15625C19.6914 8.70783 18.83 9 18.0605 9C17.2911 9 16.4312 8.70783 15.8062 8.15625C15.1811 7.60467 14.7471 6.83006 14.7471 5.625C14.747 5.32664 14.6285 5.04051 14.4175 4.82954C14.2066 4.61857 13.9204 4.50003 13.6221 4.5H8.68555ZM8.68555 6.75H12.7314C12.9797 8.00661 13.4922 9.1151 14.3179 9.84375C15.3925 10.7922 16.7502 11.25 18.0605 11.25C19.3709 11.25 20.73 10.7922 21.8047 9.84375C22.6303 9.1151 23.1428 8.00661 23.3911 6.75H27.4355C28.4842 6.75 29.3105 7.57633 29.3105 8.625V27.375C29.3105 28.4237 28.4842 29.25 27.4355 29.25H8.68555C7.63688 29.25 6.81055 28.4237 6.81055 27.375V8.625C6.81055 7.57633 7.63688 6.75 8.68555 6.75ZM18.0005 13.5C14.2722 13.5 11.2505 16.5217 11.2505 20.25C11.2505 23.9775 14.2722 27 18.0005 27C21.7287 27 24.7505 23.9775 24.7505 20.25C24.7505 16.5217 21.7287 13.5 18.0005 13.5ZM18.0005 15.75C18.4145 15.75 18.7505 16.086 18.7505 16.5V19.5H21.0005C21.4145 19.5 21.7505 19.836 21.7505 20.25C21.7505 20.664 21.4145 21 21.0005 21H18.0005C17.5865 21 17.2505 20.664 17.2505 20.25V16.5C17.2505 16.086 17.5865 15.75 18.0005 15.75Z" fill="#153E90"/>
</svg>
