<svg width="16" height="16" viewBox="0 0 16 16" fill="none" xmlns="http://www.w3.org/2000/svg">
<path d="M13.1619 2.32622C13.0299 2.32934 12.9044 2.38457 12.813 2.47987L7.99983 7.29302L3.18668 2.47987C3.14008 2.43187 3.08431 2.39371 3.0227 2.36766C2.96108 2.3416 2.89486 2.32818 2.82796 2.32817C2.72845 2.3282 2.63121 2.35791 2.54869 2.41351C2.46616 2.4691 2.4021 2.54806 2.3647 2.64027C2.3273 2.73248 2.31826 2.83375 2.33873 2.93113C2.35921 3.02851 2.40828 3.11756 2.47965 3.1869L7.2928 8.00005L2.47965 12.8132C2.43167 12.8593 2.39336 12.9145 2.36696 12.9755C2.34057 13.0366 2.32663 13.1023 2.32595 13.1688C2.32528 13.2353 2.33788 13.3013 2.36302 13.3629C2.38817 13.4245 2.42535 13.4805 2.47239 13.5275C2.51943 13.5745 2.57538 13.6117 2.63697 13.6369C2.69856 13.662 2.76454 13.6746 2.83106 13.6739C2.89758 13.6733 2.9633 13.6593 3.02436 13.6329C3.08543 13.6065 3.14061 13.5682 3.18668 13.5202L7.99983 8.70708L12.813 13.5202C12.8591 13.5682 12.9142 13.6065 12.9753 13.6329C13.0364 13.6593 13.1021 13.6733 13.1686 13.6739C13.2351 13.6746 13.3011 13.662 13.3627 13.6369C13.4243 13.6117 13.4802 13.5745 13.5273 13.5275C13.5743 13.4805 13.6115 13.4245 13.6366 13.3629C13.6618 13.3013 13.6744 13.2353 13.6737 13.1688C13.673 13.1023 13.6591 13.0366 13.6327 12.9755C13.6063 12.9145 13.568 12.8593 13.52 12.8132L8.70686 8.00005L13.52 3.1869C13.5927 3.11711 13.6426 3.02698 13.6632 2.92833C13.6838 2.82968 13.6742 2.7271 13.6354 2.63405C13.5967 2.541 13.5308 2.46182 13.4463 2.40689C13.3618 2.35196 13.2627 2.32384 13.1619 2.32622Z" fill="#52B6C3"/>
</svg>
