<svg width="36" height="36" viewBox="0 0 36 36" fill="none" xmlns="http://www.w3.org/2000/svg">
<path d="M17.9998 3.78955C16.834 3.78955 15.6682 4.35805 15.0379 5.49609L3.42757 26.4712C2.20311 28.6836 3.8609 31.5 6.38949 31.5H29.6117C32.1402 31.5 33.798 28.6836 32.5736 26.4712L20.9618 5.49609C20.3315 4.35805 19.1657 3.78955 17.9998 3.78955ZM17.9998 5.96191C18.3812 5.96191 18.7622 6.16923 18.993 6.58594L30.6048 27.561C31.0499 28.3651 30.5286 29.25 29.6117 29.25H6.38949C5.47257 29.25 4.95129 28.3651 5.39632 27.561L17.0067 6.58594C17.2374 6.16923 17.6184 5.96191 17.9998 5.96191ZM17.9823 11.9839C17.6841 11.9885 17.4001 12.1113 17.1924 12.3253C16.9848 12.5393 16.8706 12.8269 16.8748 13.125V20.625C16.8727 20.7741 16.9003 20.9221 16.9559 21.0604C17.0115 21.1988 17.094 21.3247 17.1987 21.4308C17.3033 21.537 17.4281 21.6213 17.5656 21.6789C17.7031 21.7364 17.8507 21.766 17.9998 21.766C18.1489 21.766 18.2965 21.7364 18.4341 21.6789C18.5716 21.6213 18.6963 21.537 18.801 21.4308C18.9057 21.3247 18.9882 21.1988 19.0438 21.0604C19.0994 20.9221 19.1269 20.7741 19.1248 20.625V13.125C19.127 12.9744 19.0989 12.8249 19.0422 12.6854C18.9856 12.5459 18.9015 12.4192 18.7949 12.3128C18.6884 12.2064 18.5615 12.1224 18.4219 12.0659C18.2823 12.0094 18.1328 11.9815 17.9823 11.9839ZM17.9998 24C17.602 24 17.2205 24.158 16.9392 24.4393C16.6579 24.7206 16.4998 25.1022 16.4998 25.5C16.4998 25.8978 16.6579 26.2794 16.9392 26.5607C17.2205 26.842 17.602 27 17.9998 27C18.3977 27 18.7792 26.842 19.0605 26.5607C19.3418 26.2794 19.4998 25.8978 19.4998 25.5C19.4998 25.1022 19.3418 24.7206 19.0605 24.4393C18.7792 24.158 18.3977 24 17.9998 24Z" fill="#153E90"/>
</svg>
