<svg width="16" height="16" viewBox="0 0 16 16" fill="none" xmlns="http://www.w3.org/2000/svg">
<path d="M7.66699 1.33337C5.83196 1.33337 4.33366 2.83168 4.33366 4.66671C4.33366 6.50173 5.83196 8.00004 7.66699 8.00004C9.50202 8.00004 11.0003 6.50173 11.0003 4.66671C11.0003 2.83168 9.50202 1.33337 7.66699 1.33337ZM7.66699 2.33337C8.96158 2.33337 10.0003 3.37212 10.0003 4.66671C10.0003 5.96129 8.96158 7.00004 7.66699 7.00004C6.3724 7.00004 5.33366 5.96129 5.33366 4.66671C5.33366 3.37212 6.3724 2.33337 7.66699 2.33337ZM12.0003 8.00004C11.8047 8.00004 11.6131 8.01655 11.4261 8.04822L11.3109 8.52543C11.1319 9.2671 10.3687 9.70791 9.63704 9.49158L9.23535 9.37244C8.99402 9.68344 8.80066 10.037 8.66699 10.4193L8.96517 10.7058C9.51017 11.2304 9.51017 12.103 8.96517 12.6276L8.66699 12.9148C8.80066 13.2971 8.99368 13.6496 9.23535 13.961L9.63704 13.8425C10.3687 13.6262 11.1319 14.067 11.3109 14.8086L11.4261 15.2858C11.6131 15.3172 11.805 15.3334 12.0003 15.3334C12.196 15.3334 12.3875 15.3169 12.5745 15.2852L12.6898 14.808C12.8688 14.0663 13.6319 13.6255 14.3636 13.8418L14.7653 13.961C15.0066 13.65 15.2 13.2964 15.3337 12.9141L15.0355 12.6276C14.4905 12.1033 14.4905 11.2301 15.0355 10.7058L15.3337 10.4193C15.2 10.037 15.007 9.68377 14.7653 9.37244L14.3636 9.49158C13.6319 9.70791 12.8688 9.2671 12.6898 8.52543L12.5745 8.04822C12.3875 8.01655 12.196 8.00004 12.0003 8.00004ZM4.16699 9.33337C3.33999 9.33337 2.66699 10.0064 2.66699 10.8334V11.2331C2.66699 13.1584 5.00966 14.6667 8.00033 14.6667C8.28666 14.6667 8.5649 14.6485 8.83756 14.6218C8.56956 14.3351 8.33924 14.0138 8.15658 13.6622C8.10391 13.6632 8.05366 13.6667 8.00033 13.6667C5.32399 13.6667 3.66699 12.4034 3.66699 11.2331V10.8334C3.66699 10.5577 3.89133 10.3334 4.16699 10.3334H7.87858C7.99358 9.97737 8.15486 9.64237 8.35319 9.33337H4.16699ZM12.0003 10.6667C12.5527 10.6667 13.0003 11.1144 13.0003 11.6667C13.0003 12.219 12.5527 12.6667 12.0003 12.6667C11.448 12.6667 11.0003 12.219 11.0003 11.6667C11.0003 11.1144 11.448 10.6667 12.0003 10.6667Z" fill="#414141"/>
</svg>
