<svg width="20" height="20" viewBox="0 0 20 20" fill="none" xmlns="http://www.w3.org/2000/svg">
<path d="M10.4317 3.50645C10.1904 3.2752 9.80915 3.2752 9.5679 3.50645L4.77624 8.08978C4.59166 8.26645 4.53332 8.53728 4.62832 8.77436C4.72332 9.01145 4.95249 9.16645 5.20791 9.16645H14.7912C15.0462 9.16645 15.2762 9.01103 15.3717 8.77436C15.4667 8.5377 15.4079 8.26645 15.2237 8.08978L10.4317 3.50645ZM14.7912 10.8331H5.20791C4.95249 10.8331 4.72291 10.9885 4.62791 11.2252C4.53291 11.4619 4.59166 11.7331 4.77582 11.9098L9.56749 16.4931C9.68832 16.6085 9.84374 16.6664 9.99957 16.6664C10.1554 16.6664 10.3108 16.6085 10.4317 16.4931L15.2233 11.9098C15.4075 11.7331 15.4662 11.4623 15.3712 11.2252C15.2762 10.9885 15.0462 10.8331 14.7912 10.8331Z" fill="#BCBCBC"/>
</svg>
