<svg width="36" height="36" viewBox="0 0 36 36" fill="none" xmlns="http://www.w3.org/2000/svg">
<path d="M18 4.5C16.5938 4.5 15.3966 5.06785 14.6279 5.93262C13.8592 6.79738 13.5 7.90625 13.5 9C13.5 10.0938 13.8592 11.2026 14.6279 12.0674C15.3966 12.9321 16.5938 13.5 18 13.5C19.4062 13.5 20.6034 12.9321 21.3721 12.0674C22.1408 11.2026 22.5 10.0938 22.5 9C22.5 7.90625 22.1408 6.79738 21.3721 5.93262C20.6034 5.06785 19.4062 4.5 18 4.5ZM8.25 6C7.09375 6 6.08411 6.4741 5.44043 7.19824C4.79675 7.92238 4.5 8.84375 4.5 9.75C4.5 10.6562 4.79675 11.5776 5.44043 12.3018C6.08411 13.0259 7.09375 13.5 8.25 13.5C9.40625 13.5 10.4159 13.0259 11.0596 12.3018C11.7033 11.5776 12 10.6562 12 9.75C12 8.84375 11.7033 7.92238 11.0596 7.19824C10.4159 6.4741 9.40625 6 8.25 6ZM27.75 6C26.5938 6 25.5841 6.4741 24.9404 7.19824C24.2967 7.92238 24 8.84375 24 9.75C24 10.6562 24.2967 11.5776 24.9404 12.3018C25.5841 13.0259 26.5938 13.5 27.75 13.5C28.9062 13.5 29.9159 13.0259 30.5596 12.3018C31.2033 11.5776 31.5 10.6562 31.5 9.75C31.5 8.84375 31.2033 7.92238 30.5596 7.19824C29.9159 6.4741 28.9062 6 27.75 6ZM18 6.75C18.8437 6.75 19.3341 7.0259 19.6904 7.42676C20.0467 7.82762 20.25 8.40625 20.25 9C20.25 9.59375 20.0467 10.1724 19.6904 10.5732C19.3341 10.9741 18.8437 11.25 18 11.25C17.1563 11.25 16.6659 10.9741 16.3096 10.5732C15.9533 10.1724 15.75 9.59375 15.75 9C15.75 8.40625 15.9533 7.82762 16.3096 7.42676C16.6659 7.0259 17.1563 6.75 18 6.75ZM8.25 8.25C8.84375 8.25 9.14661 8.43215 9.37793 8.69238C9.60925 8.95262 9.75 9.34375 9.75 9.75C9.75 10.1562 9.60925 10.5474 9.37793 10.8076C9.14661 11.0679 8.84375 11.25 8.25 11.25C7.65625 11.25 7.35339 11.0679 7.12207 10.8076C6.89075 10.5474 6.75 10.1562 6.75 9.75C6.75 9.34375 6.89075 8.95262 7.12207 8.69238C7.35339 8.43215 7.65625 8.25 8.25 8.25ZM27.75 8.25C28.3438 8.25 28.6466 8.43215 28.8779 8.69238C29.1092 8.95262 29.25 9.34375 29.25 9.75C29.25 10.1562 29.1092 10.5474 28.8779 10.8076C28.6466 11.0679 28.3438 11.25 27.75 11.25C27.1562 11.25 26.8534 11.0679 26.6221 10.8076C26.3908 10.5474 26.25 10.1562 26.25 9.75C26.25 9.34375 26.3908 8.95262 26.6221 8.69238C26.8534 8.43215 27.1562 8.25 27.75 8.25ZM5.625 15C4.1775 15 3 16.1775 3 17.625V22.5C3 25.8075 5.6925 28.5 9 28.5C9.5325 28.5 10.0504 28.4329 10.5454 28.2979C10.2304 27.6229 9.99762 26.902 9.87012 26.1445C9.59262 26.212 9.3 26.25 9 26.25C6.93 26.25 5.25 24.57 5.25 22.5V17.625C5.25 17.415 5.415 17.25 5.625 17.25H9.77197C9.84697 16.395 10.1773 15.6225 10.6948 15H5.625ZM13.875 15C12.4388 15 11.25 16.1888 11.25 17.625V24.75C11.25 28.4645 14.2855 31.5 18 31.5C21.7145 31.5 24.75 28.4645 24.75 24.75V17.625C24.75 16.1888 23.5612 15 22.125 15H13.875ZM25.3052 15C25.8227 15.6225 26.153 16.395 26.228 17.25H30.375C30.585 17.25 30.75 17.415 30.75 17.625V22.5C30.75 24.57 29.07 26.25 27 26.25C26.7 26.25 26.4074 26.212 26.1299 26.1445C26.0024 26.902 25.7696 27.6229 25.4546 28.2979C25.9496 28.4329 26.4675 28.5 27 28.5C30.3075 28.5 33 25.8075 33 22.5V17.625C33 16.1775 31.8225 15 30.375 15H25.3052ZM13.875 17.25H22.125C22.3463 17.25 22.5 17.4037 22.5 17.625V24.75C22.5 27.2485 20.4985 29.25 18 29.25C15.5015 29.25 13.5 27.2485 13.5 24.75V17.625C13.5 17.4037 13.6537 17.25 13.875 17.25Z" fill="#153E90"/>
</svg>
