<svg width="16" height="16" viewBox="0 0 16 16" fill="none" xmlns="http://www.w3.org/2000/svg">
<path d="M13.1617 2.32631C13.0297 2.32943 12.9042 2.38467 12.8127 2.47996L7.99959 7.29311L3.18644 2.47996C3.13983 2.43196 3.08407 2.39381 3.02245 2.36775C2.96083 2.34169 2.89461 2.32827 2.82771 2.32826C2.72821 2.32829 2.63097 2.358 2.54844 2.4136C2.46592 2.4692 2.40186 2.54815 2.36445 2.64036C2.32705 2.73257 2.31801 2.83385 2.33849 2.93122C2.35897 3.0286 2.40803 3.11765 2.47941 3.18699L7.29256 8.00014L2.47941 12.8133C2.43142 12.8594 2.39311 12.9145 2.36672 12.9756C2.34033 13.0367 2.32639 13.1024 2.32571 13.1689C2.32503 13.2354 2.33764 13.3014 2.36278 13.363C2.38793 13.4246 2.42511 13.4805 2.47214 13.5276C2.51918 13.5746 2.57514 13.6118 2.63672 13.637C2.69831 13.6621 2.7643 13.6747 2.83082 13.674C2.89734 13.6733 2.96305 13.6594 3.02412 13.633C3.08518 13.6066 3.14037 13.5683 3.18644 13.5203L7.99959 8.70717L12.8127 13.5203C12.8588 13.5683 12.914 13.6066 12.9751 13.633C13.0361 13.6594 13.1018 13.6733 13.1684 13.674C13.2349 13.6747 13.3009 13.6621 13.3625 13.6369C13.424 13.6118 13.48 13.5746 13.527 13.5276C13.5741 13.4805 13.6113 13.4246 13.6364 13.363C13.6615 13.3014 13.6741 13.2354 13.6735 13.1689C13.6728 13.1024 13.6588 13.0367 13.6325 12.9756C13.6061 12.9145 13.5678 12.8594 13.5198 12.8133L8.70662 8.00014L13.5198 3.18699C13.5925 3.1172 13.6424 3.02707 13.663 2.92842C13.6836 2.82977 13.6739 2.72719 13.6352 2.63414C13.5965 2.54109 13.5306 2.46191 13.4461 2.40698C13.3616 2.35205 13.2625 2.32393 13.1617 2.32631Z" fill="white"/>
</svg>
