<svg width="311" height="218" viewBox="0 0 311 218" fill="none" xmlns="http://www.w3.org/2000/svg">
<g clip-path="url(#clip0)">
<path d="M274.644 212.52L269.441 212.519L266.966 192.419L274.645 192.42L274.644 212.52Z" fill="#FFB8B8"/>
<path d="M275.971 217.571L259.194 217.57V217.358C259.194 215.623 259.882 213.96 261.107 212.733C262.332 211.507 263.992 210.818 265.724 210.818H265.725L275.971 210.818L275.971 217.571Z" fill="#2F2E41"/>
<path d="M297.608 199.708L294.23 203.672L277.357 192.511L282.342 186.661L297.608 199.708Z" fill="#FFB8B8"/>
<path d="M302.306 201.976L291.416 214.758L291.254 214.62C289.937 213.494 289.12 211.89 288.983 210.161C288.847 208.432 289.401 206.719 290.525 205.4L290.526 205.399L297.177 197.593L302.306 201.976Z" fill="#2F2E41"/>
<path d="M237.7 113.67L236.08 128.63L301.552 127.695L273 81.0982L249.687 80.2595L237.7 113.67Z" fill="#2F2E41"/>
<path opacity="0.28" d="M237.7 113.67L236.08 128.63L301.552 127.695L273 81.0982L249.687 80.2595L237.7 113.67Z" fill="black"/>
<path d="M250.575 116.238L248.263 129.927V142.162L266.899 148.255C266.899 148.255 264.717 195.779 267.626 198.806L267.554 206.113L275.684 206.484L275.751 201.341L279.197 162.902L281.227 134.681L277.936 113.284L250.575 116.238Z" fill="#2F2E41"/>
<path d="M265.013 128.021L248.264 142.162C248.264 142.162 247.283 167.675 249.773 170.667C251.911 173.237 279.719 195.403 279.719 195.403C279.719 195.403 284.662 199.943 287.431 200.016C290.201 200.088 293.423 194.27 293.423 194.27L287.008 189.388C287.008 189.388 270.39 173.852 265.456 167.675C263.465 165.182 263.465 164.932 263.465 164.932L264.145 154.564L270.99 135.321L265.013 128.021Z" fill="#2F2E41"/>
<path d="M247.23 60.2868L240.008 59.6184L233.458 60.7117L219.588 60.7162L218.406 70.7849L231.064 73.6219L234.148 72.1077L247.006 77.0144L247.23 60.2868Z" fill="#2F2E41"/>
<path d="M255.855 60.2553C255.855 60.2553 271.181 58.817 274.667 61.5597C278.152 64.3023 285.62 118.657 285.62 118.657L255.855 120.339L250.519 116.662L252.034 89.5261L255.855 60.2553Z" fill="#CCCCCC"/>
<path d="M260.533 59.9167L243.627 60.2884L227.865 131.622L240.313 134.365L260.533 59.9167Z" fill="#2F2E41"/>
<path d="M272.552 59.3137L285.869 63.4883L285.112 92.7969L301.552 127.838L282.226 129.876L266.95 92.0393L272.552 59.3137Z" fill="#2F2E41"/>
<path d="M294.511 131.397C294.978 130.985 295.349 130.476 295.598 129.905C295.847 129.334 295.969 128.716 295.953 128.093C295.938 127.47 295.786 126.858 295.509 126.301C295.232 125.743 294.837 125.253 294.35 124.865L297.029 115.504L291.747 112.486L288.149 125.758C287.552 126.62 287.292 127.671 287.417 128.713C287.543 129.754 288.045 130.713 288.829 131.408C289.614 132.103 290.625 132.486 291.672 132.484C292.72 132.482 293.73 132.095 294.511 131.397Z" fill="#FFB8B8"/>
<path d="M278.152 64.3022L286.032 63.6177C286.032 63.6177 293.106 71.0281 294.715 76.7658C296.324 82.5034 298.067 100.455 298.067 100.455L297.34 126.717L288.129 120.452L287.511 97.8638L278.152 64.3022Z" fill="#2F2E41"/>
<path d="M276.251 51.1024C279.21 45.6809 277.221 38.8834 271.808 35.9197C266.395 32.9561 259.608 34.9486 256.649 40.3701C253.69 45.7915 255.679 52.589 261.092 55.5527C266.505 58.5163 273.292 56.5239 276.251 51.1024Z" fill="#FFB8B8"/>
<path d="M265.204 41.0657C263.739 40.7265 262.218 41.1024 260.733 41.346C259.249 41.5897 257.613 41.67 256.358 40.8405C255.43 40.2279 254.86 39.2145 254.325 38.2396C254.101 37.8915 253.953 37.5007 253.888 37.092C253.825 36.3711 254.282 35.7133 254.769 35.1779C257.027 32.6913 260.328 31.3303 263.656 30.898C266.401 30.4883 269.206 30.8313 271.772 31.8906C274.299 33.0005 276.471 35.0332 277.464 37.6112C277.922 38.9307 278.207 40.3038 278.314 41.6965C278.464 42.7211 278.484 43.7608 278.372 44.7903C278.238 45.5535 278.037 46.3035 277.773 47.0317L276.127 52.0084C276.009 52.4786 275.788 52.9168 275.48 53.2912C275.322 53.4746 275.109 53.6017 274.873 53.6536C274.636 53.7054 274.39 53.6792 274.169 53.5788C274.301 53.0383 274.321 52.4765 274.228 51.9279C274.177 51.6545 274.045 51.4028 273.849 51.2053C273.654 51.0077 273.403 50.8733 273.131 50.8194C272.524 50.755 272.006 51.2259 271.431 51.4287C271.168 51.5069 270.891 51.5324 270.618 51.5037C270.345 51.475 270.08 51.3926 269.839 51.2614C269.598 51.1302 269.384 50.9527 269.211 50.7389C269.039 50.5252 268.909 50.2794 268.831 50.0157C268.816 49.9625 268.802 49.9088 268.79 49.8545C268.7 49.2856 268.852 48.6765 268.637 48.1422C268.385 47.5162 267.716 47.1882 267.213 46.7383C266.754 46.3145 266.426 45.7683 266.267 45.164C266.108 44.5597 266.124 43.9224 266.314 43.327C266.448 42.9129 266.828 42.7246 266.752 42.2488C266.653 41.6246 265.734 41.1882 265.204 41.0657Z" fill="#2F2E41"/>
<path d="M141.02 88.3567H0V0H141.02V88.3567Z" fill="white"/>
<path d="M141.02 88.3567H0V0H141.02V88.3567ZM0.643929 87.7117H140.376V0.644941H0.643929V87.7117Z" fill="#3F3D56"/>
<path d="M123.795 210.734H43.3041V122.377H123.795V210.734Z" fill="white"/>
<path d="M123.795 210.734H43.3041V122.377H123.795V210.734ZM43.948 210.089H123.151V123.022H43.948V210.089Z" fill="#3F3D56"/>
<path d="M112.848 202.389H96.1061V203.069H112.848V202.389Z" fill="#3F3D56"/>
<path d="M112.848 204.428H96.1061V205.108H112.848V204.428Z" fill="#3F3D56"/>
<path d="M112.848 206.468H96.1061V207.148H112.848V206.468Z" fill="#3F3D56"/>
<path d="M83.5498 138.178V145.273C87.7526 145.273 91.861 146.521 95.3555 148.86C98.8499 151.198 101.574 154.522 103.182 158.411C104.79 162.3 105.211 166.579 104.391 170.708C103.571 174.836 101.547 178.629 98.5755 181.605L103.584 186.622C107.547 182.653 110.245 177.597 111.338 172.092C112.431 166.587 111.87 160.882 109.726 155.696C107.581 150.511 103.95 146.079 99.2907 142.961C94.6314 139.843 89.1535 138.178 83.5498 138.178Z" fill="#E6E6E6"/>
<path d="M103.584 186.621L98.5754 181.605C94.9424 185.244 90.1156 187.442 84.989 187.79C79.8624 188.138 74.7836 186.613 70.6933 183.498L66.4061 189.148C71.8607 193.301 78.6327 195.332 85.4682 194.868C92.3037 194.403 98.7395 191.474 103.584 186.621Z" fill="#575A89"/>
<path d="M62.3001 166.556C62.3001 163.761 62.8498 160.993 63.9177 158.411C64.9856 155.829 66.5508 153.483 68.524 151.506C70.4972 149.53 72.8398 147.962 75.4179 146.893C77.996 145.823 80.7592 145.273 83.5498 145.273V138.178C77.6186 138.178 71.837 140.043 67.0199 143.508C62.2027 146.974 58.593 151.867 56.6995 157.496C54.806 163.126 54.7242 169.209 56.4657 174.887C58.2071 180.566 61.684 185.554 66.4062 189.148L70.6935 183.499C68.0831 181.515 65.9668 178.954 64.5106 176.014C63.0544 173.075 62.2978 169.837 62.3001 166.556Z" fill="#6C63FF"/>
<path d="M242.922 155.914H162.431V67.5574H242.922V155.914Z" fill="white"/>
<path d="M242.922 155.914H162.431V67.5574H242.922V155.914ZM163.075 155.269H242.278V68.2023H163.075V155.269Z" fill="#3F3D56"/>
<path d="M188.51 121.571H174.021V144.789H188.51V121.571Z" fill="#575A89"/>
<path d="M209.438 105.77H194.949V144.789H209.438V105.77Z" fill="#E6E6E6"/>
<path d="M230.365 87.3894H215.877V144.789H230.365V87.3894Z" fill="#6C63FF"/>
<path d="M235.195 145.434H170.158V78.0376H170.802V144.789H235.195V145.434Z" fill="#3F3D56"/>
<path d="M219.515 69.9097C221.964 69.9097 223.949 67.9212 223.949 65.4683C223.949 63.0153 221.964 61.0269 219.515 61.0269C217.066 61.0269 215.08 63.0153 215.08 65.4683C215.08 67.9212 217.066 69.9097 219.515 69.9097Z" fill="#FFB8B8"/>
<path d="M310.631 218H241.527C241.429 218 241.335 217.961 241.266 217.892C241.196 217.822 241.157 217.728 241.157 217.63C241.157 217.532 241.196 217.438 241.266 217.368C241.335 217.299 241.429 217.26 241.527 217.26H310.631C310.729 217.26 310.823 217.299 310.892 217.368C310.961 217.438 311 217.532 311 217.63C311 217.728 310.961 217.822 310.892 217.892C310.823 217.961 310.729 218 310.631 218Z" fill="#CCCCCC"/>
<path d="M121.436 69.8778H19.5842C19.4997 69.8778 19.4186 69.8442 19.3589 69.7843C19.2991 69.7245 19.2655 69.6432 19.2655 69.5586V20.6645C19.2655 20.5798 19.2991 20.4986 19.3589 20.4387C19.4186 20.3789 19.4997 20.3452 19.5842 20.3452C19.6688 20.3452 19.7499 20.3789 19.8096 20.4387C19.8694 20.4986 19.903 20.5798 19.903 20.6645V69.2393H121.436C121.478 69.2392 121.519 69.2473 121.558 69.2633C121.597 69.2793 121.632 69.3028 121.662 69.3325C121.692 69.3621 121.715 69.3974 121.731 69.4362C121.747 69.475 121.756 69.5166 121.756 69.5586C121.756 69.6006 121.747 69.6422 121.731 69.681C121.715 69.7198 121.692 69.7551 121.662 69.7847C121.632 69.8144 121.597 69.8379 121.558 69.8538C121.519 69.8698 121.478 69.878 121.436 69.8778Z" fill="#3F3D56"/>
<path d="M41.3455 66.3662H32.0817C31.8309 66.3659 31.5904 66.2659 31.413 66.0883C31.2356 65.9106 31.1358 65.6698 31.1355 65.4185V52.6283C31.1358 52.377 31.2356 52.1362 31.413 51.9585C31.5904 51.7809 31.8309 51.6809 32.0817 51.6807H41.3455C41.5963 51.6809 41.8368 51.7809 42.0142 51.9585C42.1916 52.1362 42.2914 52.377 42.2917 52.6283V65.4185C42.2914 65.6698 42.1916 65.9106 42.0142 66.0883C41.8368 66.2659 41.5963 66.3659 41.3455 66.3662Z" fill="#6C63FF"/>
<path d="M58.2392 66.3663H48.9754C48.7245 66.366 48.484 66.2661 48.3066 66.0884C48.1293 65.9108 48.0295 65.6699 48.0292 65.4187V40.4969C48.0295 40.2457 48.1293 40.0048 48.3066 39.8272C48.484 39.6495 48.7245 39.5496 48.9754 39.5493H58.2392C58.49 39.5496 58.7305 39.6495 58.9079 39.8272C59.0853 40.0048 59.1851 40.2457 59.1854 40.4969V65.4187C59.1851 65.6699 59.0853 65.9108 58.9079 66.0884C58.7305 66.2661 58.49 66.366 58.2392 66.3663Z" fill="#6C63FF"/>
<path d="M75.133 66.3662H65.8692C65.6183 66.3659 65.3778 66.2659 65.2005 66.0883C65.0231 65.9106 64.9233 65.6698 64.923 65.4185V52.6283C64.9233 52.377 65.0231 52.1362 65.2005 51.9585C65.3778 51.7809 65.6183 51.6809 65.8692 51.6807H75.133C75.3838 51.6809 75.6243 51.7809 75.8017 51.9585C75.9791 52.1362 76.0789 52.377 76.0792 52.6283V65.4185C76.0789 65.6698 75.9791 65.9106 75.8017 66.0883C75.6243 66.2659 75.3838 66.3659 75.133 66.3662Z" fill="#6C63FF"/>
<path d="M92.0266 66.3662H82.7629C82.5177 66.3714 82.2805 66.2792 82.1031 66.1096C81.9258 65.94 81.8228 65.707 81.8167 65.4615V35.6652C81.8228 35.4197 81.9258 35.1866 82.1031 35.017C82.2805 34.8474 82.5177 34.7552 82.7629 34.7605H92.0266C92.2718 34.7552 92.509 34.8474 92.6864 35.017C92.8637 35.1866 92.9667 35.4197 92.9728 35.6652V65.4615C92.9667 65.707 92.8637 65.94 92.6864 66.1096C92.509 66.2792 92.2718 66.3714 92.0266 66.3662Z" fill="#6C63FF"/>
<path d="M108.92 66.3663H99.6564C99.4056 66.366 99.1651 66.2661 98.9877 66.0884C98.8103 65.9108 98.7105 65.6699 98.7102 65.4187V27.0885C98.7105 26.8372 98.8103 26.5964 98.9877 26.4187C99.1651 26.2411 99.4056 26.1411 99.6564 26.1409H108.92C109.171 26.1411 109.412 26.2411 109.589 26.4187C109.766 26.5964 109.866 26.8372 109.866 27.0885V65.4187C109.866 65.6699 109.766 65.9108 109.589 66.0884C109.412 66.2661 109.171 66.366 108.92 66.3663Z" fill="#6C63FF"/>
<path d="M36.7136 47.8498C37.7699 47.8498 38.6261 46.9922 38.6261 45.9343C38.6261 44.8764 37.7699 44.0188 36.7136 44.0188C35.6574 44.0188 34.8011 44.8764 34.8011 45.9343C34.8011 46.9922 35.6574 47.8498 36.7136 47.8498Z" fill="#3F3D56"/>
<path d="M53.6072 35.3989C54.6634 35.3989 55.5197 34.5413 55.5197 33.4834C55.5197 32.4255 54.6634 31.5679 53.6072 31.5679C52.551 31.5679 51.6947 32.4255 51.6947 33.4834C51.6947 34.5413 52.551 35.3989 53.6072 35.3989Z" fill="#3F3D56"/>
<path d="M70.5011 47.8498C71.5574 47.8498 72.4136 46.9922 72.4136 45.9343C72.4136 44.8764 71.5574 44.0188 70.5011 44.0188C69.4449 44.0188 68.5886 44.8764 68.5886 45.9343C68.5886 46.9922 69.4449 47.8498 70.5011 47.8498Z" fill="#3F3D56"/>
<path d="M87.395 29.3332C88.4513 29.3332 89.3075 28.4756 89.3075 27.4177C89.3075 26.3598 88.4513 25.5022 87.395 25.5022C86.3388 25.5022 85.4825 26.3598 85.4825 27.4177C85.4825 28.4756 86.3388 29.3332 87.395 29.3332Z" fill="#3F3D56"/>
<path d="M104.289 22.3098C105.345 22.3098 106.201 21.4522 106.201 20.3943C106.201 19.3364 105.345 18.4788 104.289 18.4788C103.232 18.4788 102.376 19.3364 102.376 20.3943C102.376 21.4522 103.232 22.3098 104.289 22.3098Z" fill="#3F3D56"/>
<path d="M70.5412 46.3633L53.6075 33.6597L36.9047 46.1897L36.5226 45.6786L53.6075 32.8617L70.4606 45.505L87.2085 27.1489L87.2757 27.1215L104.169 20.304L104.408 20.8965L87.581 27.6867L70.5412 46.3633Z" fill="#3F3D56"/>
</g>
<defs>
<clipPath id="clip0">
<rect width="311" height="218" fill="white"/>
</clipPath>
</defs>
</svg>
