<svg width="16" height="20" viewBox="0 0 16 20" fill="none" xmlns="http://www.w3.org/2000/svg">
<path d="M11.5805 19.9997C11.2571 19.996 10.9318 19.9513 10.6128 19.864C7.77995 19.0887 5.27358 16.7145 3.07273 12.9773C0.868801 9.23496 0.0213418 5.91074 0.762187 3.10131C1.0949 1.8385 2.07975 0.837371 3.34129 0.464586L4.52488 0.114C5.84777 -0.277613 7.2789 0.355038 7.85301 1.60814L8.76902 3.60423C9.25945 4.67326 8.99611 5.94424 8.12742 6.739L6.60984 8.12572C6.56337 8.16827 6.53711 8.22211 6.53074 8.27611V8.27709C6.51812 8.38829 6.49737 8.42771 6.58348 8.75756C6.66976 9.08806 6.88403 9.64762 7.38816 10.5036C7.85759 11.3011 8.29623 11.8587 8.61375 12.1345C8.79189 12.2884 8.99384 12.4044 9.08055 12.3796H9.08152L11.1177 11.7693C12.2482 11.4296 13.4761 11.8336 14.1733 12.78L14.1743 12.781L15.4741 14.5476H15.4751C16.2893 15.6544 16.138 17.2116 15.1304 18.1472L14.2309 18.9831C13.7478 19.4315 13.1617 19.7385 12.5376 19.8904C12.2255 19.9663 11.904 20.0035 11.5805 19.9997ZM11.5971 18.4988C11.7945 18.5004 11.9911 18.4769 12.1821 18.4304C12.5641 18.3375 12.9221 18.1511 13.2104 17.8835L14.1098 17.0486C14.5702 16.6211 14.6348 15.9374 14.2661 15.4363L12.9663 13.6697C12.6475 13.237 12.0798 13.0464 11.5493 13.2058L9.50437 13.8181L9.50242 13.8191C8.52311 14.1048 7.80257 13.4156 7.63133 13.2673H7.63035V13.2663C7.10187 12.8072 6.61177 12.1419 6.0952 11.2644C5.54133 10.3239 5.2648 9.64771 5.13133 9.13646C4.99786 8.62521 5.02812 8.21695 5.04051 8.10716C5.08831 7.68844 5.28786 7.3025 5.59715 7.01927L7.11473 5.63158C7.51504 5.26534 7.62731 4.71318 7.40574 4.23021H7.40477L6.48973 2.23314C6.23184 1.67024 5.56678 1.36911 4.95066 1.5515L3.76707 1.90209V1.90306C3.00629 2.12756 2.40755 2.74238 2.21238 3.48314C1.62023 5.72871 2.27464 8.66489 4.3657 12.2156C6.45385 15.7614 8.71908 17.791 11.0093 18.4177C11.2018 18.4704 11.3998 18.4972 11.5971 18.4988Z" fill="#52B6C3"/>
</svg>
