<svg width="352" height="245" viewBox="0 0 352 245" fill="none" xmlns="http://www.w3.org/2000/svg">
<g clip-path="url(#clip0)">
<path d="M35.2558 41.6728C44.7713 41.6728 52.4852 33.9641 52.4852 24.4548C52.4852 14.9456 44.7713 7.23682 35.2558 7.23682C25.7402 7.23682 18.0264 14.9456 18.0264 24.4548C18.0264 33.9641 25.7402 41.6728 35.2558 41.6728Z" fill="#6C63FF"/>
<path opacity="0.1" d="M33.1505 59.5057C40.3847 75.8348 31.1567 94.6379 20.2943 108.797C16.6586 113.545 12.645 118.522 12.141 124.478C11.5332 131.763 16.4696 138.459 22.3252 142.836C33.006 150.814 47.593 153.281 60.3047 149.255C71.2894 145.777 80.5249 137.922 91.606 134.755C110.136 129.452 129.778 138.244 145.647 149.199C156.88 156.943 168.91 166.38 182.452 164.721C191.98 163.554 200.067 156.869 205.556 148.999C208.206 145.199 210.511 140.94 214.369 138.377C216.663 136.851 219.357 136.044 222.051 135.466C246.656 130.211 272.768 143.036 297.047 136.44C313.446 131.996 326.521 119.033 334.652 104.119C342.783 89.2048 346.578 72.3645 349.739 55.6798C351.985 43.8283 353.849 31.025 348.687 20.1254C343.224 8.58497 330.579 1.58889 317.871 0.277817C305.163 -1.03325 292.418 2.58516 280.711 7.6887C266.083 14.0811 251.744 23.029 235.778 23.0586C224.905 23.0808 214.535 18.9106 204.14 15.7292C186.759 10.4145 168.684 7.77388 150.673 5.33692C133.429 3.00366 116.014 0.833356 98.666 2.21109C86.3915 3.18514 75.5514 7.87388 63.6402 10.0442C55.876 11.459 48.0748 10.4145 40.4551 12.7848C31.0714 15.7181 21.4209 22.5142 20.9021 33.2176C20.4129 43.4061 29.3148 50.843 33.1505 59.5057Z" fill="#6C63FF"/>
<path d="M223.067 74.0459C221.484 69.9238 217.404 60.2352 214.717 62.1573C211.322 64.5869 218.112 75.3199 218.112 75.3199C218.304 77.2902 214.487 81.3901 212.441 83.4345C212.441 83.2715 212.441 83.1789 212.441 83.1789C212.422 83.2567 212.392 83.3314 212.352 83.4011L212.182 83.3086C212.136 83.4719 212.054 83.6227 211.941 83.7493C211.941 83.4715 211.923 83.3086 211.923 83.3086C211.53 84.9715 204.673 87.0788 204.673 87.0788C204.673 87.0788 204.488 87.0788 204.169 87.0788C202.265 87.0788 197.306 86.6492 195.008 82.9752C193.82 80.9849 192.299 79.2125 190.513 77.7347C189.901 77.2556 189.158 76.974 188.382 76.9273C182.033 76.5199 176.893 73.3089 175.866 72.6237L175.677 72.4941L175.637 72.6126C175.396 72.2681 175.162 71.9015 174.944 71.5237L174.832 71.32C176.369 70.5491 177.662 69.368 178.568 67.9076C179.474 66.4471 179.958 64.7645 179.965 63.0462C179.965 62.9832 179.965 62.9166 179.965 62.8536C180.524 61.8889 180.818 60.7941 180.818 59.6796V58.5686L182.267 57.2797C182.93 56.6908 183.616 56.0686 183.953 55.2576C184.088 54.9293 184.149 54.5751 184.131 54.2206C184.163 53.9168 184.118 53.6098 183.998 53.3285C183.879 53.0472 183.69 52.801 183.449 52.6132C182.337 51.8465 180.484 52.6132 179.68 51.5466C179.309 51.0651 179.376 50.4096 179.194 49.8429C178.824 48.6911 177.49 48.0689 176.256 48.0504C175.021 48.0318 173.839 48.48 172.653 48.817C170.162 49.5239 167.561 49.7674 164.982 49.5355C164.284 49.4114 163.568 49.4366 162.88 49.6096C162.461 49.783 162.088 50.0527 161.791 50.3969C161.495 50.7412 161.284 51.1502 161.176 51.591C161.084 51.9222 161.029 52.2625 161.013 52.6058C159.979 53.7712 159.407 55.2741 159.404 56.8316V59.6796C159.406 61.2001 159.952 62.6697 160.942 63.824C161.059 65.1641 161.467 66.4626 162.137 67.6292C162.807 68.7959 163.723 69.8026 164.822 70.5793C164.822 70.6534 164.822 70.7287 164.822 70.8052L164.871 70.8349C164.811 71.7178 164.674 72.5939 164.463 73.4533V73.2644C164.463 73.2644 159.274 76.0236 153.715 76.0903H153.104C152.007 76.0533 150.941 76.453 150.139 77.2013C148.494 78.7494 145.61 81.1975 143.839 81.1975C143.468 81.1975 134.114 83.0234 132.565 83.3271L129.671 80.4938L129.582 80.6605L129.411 80.4938C129.095 80.5182 128.78 80.564 128.47 80.6309C126.987 78.8754 124.023 74.794 123.337 69.3164C123.337 69.3164 129.737 62.0314 127.384 55.2427C125.375 49.4577 119.842 61.8574 118.271 65.5943C117.996 66.2464 117.962 66.9748 118.174 67.6498L123.374 84.3974C122.879 85.6952 122.737 87.1009 122.963 88.4714H122.903L126.691 93.3268C126.691 93.3268 129.541 94.5416 133.999 94.5193C137.267 94.5247 140.505 93.9036 143.539 92.6898H144.417L144.25 92.7527H148.76L151.629 101.423C151.533 102.212 150.146 113.222 149.035 115.685C148.705 116.508 148.556 117.392 148.597 118.278C148.656 119.979 148.933 121.666 149.424 123.296L151.936 123.204L151.84 123.4C149.713 127.759 146.159 135.525 144.057 142.785L140.4 150.192L143.142 183.413H143.253L143.464 183.446C143.761 183.491 144.206 183.557 144.791 183.631L144.576 184.002L138.532 194.001C138.532 194.001 134.222 202.82 143.757 201.157C143.757 201.157 147.282 200.135 148.72 194.12L154.99 188.242C154.99 188.242 155.283 184.339 153.508 182.78C153.397 180.976 153.115 175.709 153.549 174.443C154.071 172.91 151.325 155.277 151.325 155.277C151.325 155.277 161.25 134.703 167.261 134.192C167.702 134.161 168.144 134.219 168.562 134.363C173.502 135.97 179.487 147.907 181.248 151.621L181.329 151.792V151.825L181.396 151.969V152.01L181.455 152.136V152.169L181.507 152.284V152.31L181.551 152.403V152.44L181.585 152.51V152.54L181.607 152.592V152.621V152.655L181.626 152.699L182.408 175.828L182.485 175.869H182.522L182.456 176.346L182.115 178.735C182.115 178.735 186.425 187.809 186.162 188.957C185.899 190.105 189.034 194.709 193.474 193.431C197.914 192.153 195.271 184.95 195.271 184.95L190.994 176.143L190.805 175.75C191.231 175.489 191.633 175.19 192.006 174.858C192.006 174.858 190.702 165.402 192.006 163.358C193.311 161.314 193.704 151.984 193.704 151.984C193.704 151.984 192.788 145.596 191.221 142.785L184.653 119.359C186.621 121.189 188.152 121.904 189.431 121.856H189.642C190.204 121.866 190.759 121.728 191.25 121.456C191.514 121.307 191.762 121.132 191.991 120.933C192.035 120.896 192.076 120.855 192.114 120.811C193.941 119.278 190.023 113.271 187.804 109.7C185.665 106.256 188.611 96.897 188.834 96.2007C189.032 96.0557 189.244 95.9315 189.468 95.8304C189.927 95.6336 190.42 95.5267 190.92 95.5156C193.048 95.5897 195.664 96.8118 198.903 97.4266C201.154 97.8093 203.435 97.9866 205.719 97.9563H205.852C206.76 97.9563 207.583 97.9377 208.25 97.9118C208.858 97.8879 209.454 97.7271 209.992 97.4415C210.453 97.1728 210.87 96.8356 211.229 96.4415L216.915 90.0232L216.766 90.0935C217.042 89.3656 217.042 88.5622 216.766 87.8343L222.774 77.4643C223.077 76.9533 223.261 76.3805 223.312 75.7886C223.362 75.1966 223.279 74.6009 223.067 74.0459Z" fill="url(#paint0_linear)"/>
<path d="M155.572 187.365L149.52 193.161C148.134 199.087 144.728 200.09 144.728 200.09C135.526 201.727 139.684 193.053 139.684 193.053L145.521 183.183L146.24 181.965C146.24 181.965 150.402 180.706 153.174 181.461C153.524 181.557 153.848 181.732 154.119 181.972C155.857 183.48 155.572 187.365 155.572 187.365Z" fill="#444176"/>
<path d="M192.888 192.531C188.6 193.791 185.576 189.257 185.847 188.12C186.117 186.983 181.929 178.054 181.929 178.054L182.256 175.699L182.559 173.517L189.601 174.021L190.264 175.413L194.393 184.098C194.393 184.098 197.176 191.272 192.888 192.531Z" fill="#444176"/>
<path opacity="0.1" d="M154.186 182.957C153.523 184.094 148.145 183.52 145.525 183.165L146.244 181.946C146.244 181.946 150.406 180.687 153.178 181.443C153.528 181.538 153.852 181.713 154.123 181.954C154.16 182.568 154.186 182.957 154.186 182.957Z" fill="black"/>
<path opacity="0.1" d="M190.272 175.406C186.666 177.806 182.827 175.991 182.249 175.691L182.552 173.51L189.594 174.013L190.272 175.406Z" fill="black"/>
<path d="M191.25 162.799C189.99 164.814 191.25 174.139 191.25 174.139C187.088 177.921 182.174 175.147 182.174 175.147L181.433 152.344C181.433 152.344 173.239 133.57 167.439 134.074C161.639 134.577 152.059 154.862 152.059 154.862C152.059 154.862 154.705 172.247 154.201 173.75C153.697 175.254 154.201 182.569 154.201 182.569C153.319 184.08 144.117 182.569 144.117 182.569L141.47 149.81L144.984 142.499C147.004 135.344 150.435 127.685 152.489 123.389C153.508 121.252 154.19 119.948 154.19 119.948L160.898 118.552L182.671 114.041L190.494 142.499C192.006 145.27 192.888 151.57 192.888 151.57C192.888 151.57 192.51 160.784 191.25 162.799Z" fill="#565387"/>
<g opacity="0.1">
<path opacity="0.1" d="M184.19 175.147L183.449 152.344C183.449 152.344 175.255 133.57 169.455 134.074C169.196 134.099 168.94 134.156 168.695 134.244C174.35 136.122 181.433 152.344 181.433 152.344L182.174 175.147C183.72 175.934 185.463 176.252 187.188 176.061C186.143 175.936 185.128 175.626 184.19 175.147Z" fill="black"/>
<path opacity="0.1" d="M146.118 182.58L143.472 149.821L147 142.499C149.02 135.344 152.452 127.685 154.505 123.389C155.524 121.252 156.206 119.948 156.206 119.948L162.914 118.552L182.789 114.422L182.682 114.026L160.898 118.552L154.19 119.948C154.19 119.948 153.508 121.252 152.489 123.389C150.428 127.685 147.004 135.359 144.984 142.499L141.456 149.807L144.102 182.565C144.102 182.565 149.127 183.391 152.107 183.209C150.101 183.1 148.102 182.89 146.118 182.58Z" fill="black"/>
</g>
<path d="M130.786 81.0977C130.786 81.0977 123.6 81.468 124.608 89.0345L126.624 89.2863L129.648 86.0123L131.16 83.242V82.6124L130.786 81.0977Z" fill="#CED2DF"/>
<path opacity="0.1" d="M130.786 81.0977C130.786 81.0977 123.6 81.468 124.608 89.0345L126.624 89.2863L129.648 86.0123L131.16 83.242V82.6124L130.786 81.0977Z" fill="black"/>
<path d="M210.729 83.8679C210.729 83.8679 216.659 87.016 215.143 90.6714L213.253 91.4121L210.733 90.027L210.362 86.753L210.614 84.4864L210.729 83.8679Z" fill="#CED2DF"/>
<path opacity="0.1" d="M210.729 83.8679C210.729 83.8679 216.659 87.016 215.143 90.6714L213.253 91.4121L210.733 90.027L210.362 86.753L210.614 84.4864L210.729 83.8679Z" fill="black"/>
<path d="M172.657 51.3613H167.613C163.297 51.3613 159.797 54.8584 159.797 59.1722C159.797 63.486 163.297 66.9831 167.613 66.9831H172.657C176.974 66.9831 180.473 63.486 180.473 59.1722C180.473 54.8584 176.974 51.3613 172.657 51.3613Z" fill="#88455E"/>
<path d="M130.738 82.1679L126.324 89.2047L125.953 87.9529L119.957 68.4275C119.752 67.7619 119.785 67.0458 120.05 66.4017C121.565 62.7203 126.91 50.4762 128.848 56.1983C131.116 62.8647 124.938 70.0571 124.938 70.0571C125.642 75.894 128.922 80.1235 130.212 81.5901C130.538 81.9716 130.738 82.1679 130.738 82.1679Z" fill="#EC8C9C"/>
<path d="M209.785 85.1901C209.785 85.1901 216.719 78.6385 216.455 75.9941C216.455 75.9941 209.899 65.4129 213.179 63.0315C215.774 61.1353 219.713 70.6905 221.24 74.7534C221.442 75.2946 221.523 75.8733 221.477 76.4491C221.432 77.0249 221.261 77.5837 220.977 78.0866L212.69 92.7491L209.785 85.1901Z" fill="#EC8C9C"/>
<path d="M164.9 66.924C164.9 66.924 166.16 74.9867 162.506 78.0125C158.852 81.0384 172.972 81.0199 172.972 81.0199L178.016 76.357C178.016 76.357 172.216 70.9387 173.98 66.9092L164.9 66.924Z" fill="#EC8C9C"/>
<path opacity="0.1" d="M164.649 76.1199C164.649 76.1199 170.071 80.1531 175.489 75.6162L184.313 93.886L183.809 116.185C183.809 116.185 165.527 125.633 157.963 119.841C150.399 114.048 156.703 111.023 156.703 111.023L154.939 93.8897L156.829 82.8012C156.829 82.8012 160.231 77.5087 160.487 77.5087C160.742 77.5087 164.649 76.1199 164.649 76.1199Z" fill="black"/>
<path d="M164.648 75.8682C164.648 75.8682 170.07 79.9088 175.492 75.3645L184.316 93.6343L183.812 115.934C183.812 115.934 165.53 125.382 157.966 119.589C150.402 113.797 156.706 110.771 156.706 110.771L154.942 93.638L156.832 82.5495C156.832 82.5495 160.234 77.257 160.49 77.257C160.746 77.257 164.648 75.8682 164.648 75.8682Z" fill="#EBF1F6"/>
<path opacity="0.1" d="M164.649 73.9829C164.649 73.9829 159.508 76.9088 153.927 76.7643C153.404 76.7479 152.882 76.8358 152.393 77.0227C151.903 77.2096 151.456 77.4919 151.077 77.8532C149.487 79.379 146.704 81.7938 144.981 81.7938C144.61 81.7938 133.885 83.9345 133.885 83.9345L131.05 81.1012C131.05 81.1012 126.825 89.3528 124.809 88.9751L128.467 93.7638C128.467 93.7638 135.401 96.7859 144.477 93.1342H149.773L152.545 101.701C152.545 101.701 151.159 113.293 150.025 115.811C148.891 118.33 150.395 123.244 150.395 123.244L160.353 122.874C160.353 122.874 160.857 117.959 161.613 117.319C162.369 116.678 158.967 95.0193 158.967 95.0193C158.967 95.0193 156.699 82.7975 165.019 78.3902L164.649 73.9829Z" fill="black"/>
<path opacity="0.1" d="M160.894 118.567C160.527 120.062 160.266 121.58 160.112 123.111L152.489 123.4C153.508 121.263 154.19 119.959 154.19 119.959L160.894 118.567Z" fill="black"/>
<path opacity="0.1" d="M130.738 82.1679L126.324 89.2047L125.953 87.9529C127.573 86.3455 129.47 82.9864 130.226 81.5864C130.538 81.9716 130.738 82.1679 130.738 82.1679Z" fill="black"/>
<path d="M164.649 73.9829C164.649 73.9829 159.253 76.9088 153.675 76.7643C153.151 76.7479 152.63 76.8358 152.141 77.0227C151.651 77.2096 151.204 77.4919 150.825 77.8532C149.235 79.379 146.452 81.7938 144.729 81.7938C144.358 81.7938 133.633 83.9345 133.633 83.9345L130.787 81.0975C130.787 81.0975 126.562 89.3491 124.546 88.9713L128.203 93.7601C128.203 93.7601 135.137 96.7822 144.214 93.1305H149.509L152.282 101.693C152.282 101.693 150.896 113.285 149.761 115.804C148.627 118.322 150.132 123.237 150.132 123.237L160.09 122.867C160.09 122.867 160.594 117.952 161.35 117.311C162.106 116.671 158.704 95.0119 158.704 95.0119C158.704 95.0119 156.436 82.7901 164.756 78.3828L164.649 73.9829Z" fill="#CED2DF"/>
<path opacity="0.1" d="M175.492 73.22C175.492 73.22 180.636 77.1384 187.504 77.5902C188.255 77.6373 188.973 77.9155 189.561 78.3865C191.293 79.8548 192.76 81.6084 193.9 83.5715C196.672 88.1084 203.48 87.6047 203.48 87.6047C203.48 87.6047 210.099 85.527 210.477 83.9011C210.477 83.9011 210.666 92.7898 214.828 90.6417L209.355 96.9452C209.009 97.3434 208.586 97.6668 208.112 97.8954C207.637 98.1241 207.12 98.2532 206.594 98.2748C204.537 98.3562 200.964 98.3822 197.947 97.797C193.407 96.9155 190.131 94.7749 187.737 96.6637C187.737 96.6637 184.587 106.489 186.729 110.019C188.871 113.548 192.659 119.467 190.891 120.981C189.123 122.496 186.981 122.367 183.453 118.715C179.925 115.063 179.543 108.889 179.543 108.889L180.425 93.0157C180.425 93.0157 177.023 81.0457 173.754 78.6531L175.492 73.22Z" fill="black"/>
<path opacity="0.1" d="M215.328 90.4825L209.84 96.812C209.475 97.2318 209.024 97.5679 208.517 97.7971C208.066 98.0004 207.58 98.1148 207.086 98.1341C205.029 98.2193 201.457 98.2452 198.44 97.6564C194.193 96.8305 191.05 94.9046 188.701 96.2046C188.534 96.2962 188.375 96.4015 188.226 96.5194C188.226 96.5194 185.076 106.345 187.218 109.875C189.36 113.404 193.148 119.322 191.38 120.837C191.084 121.097 190.752 121.313 190.394 121.478C188.808 122.193 186.84 121.574 183.942 118.571C180.414 114.915 180.032 108.745 180.032 108.745L180.914 92.8713C180.914 92.8713 177.512 80.9013 174.243 78.5088L175.685 73.3423C176.678 74.0163 181.637 77.1829 187.767 77.5866C188.518 77.6337 189.236 77.9118 189.823 78.3829C191.555 79.8514 193.023 81.605 194.163 83.5679C196.935 88.1048 203.743 87.6011 203.743 87.6011C205.376 87.0808 206.969 86.4472 208.513 85.7049C209.48 85.2308 210.333 84.7123 210.737 84.2234C210.85 84.0958 210.933 83.9437 210.978 83.779C210.978 83.779 211.17 92.6232 215.328 90.4825Z" fill="black"/>
<path d="M215.076 90.6083L209.591 96.9451C209.29 97.2929 208.928 97.5839 208.524 97.8044C208.006 98.0855 207.431 98.2438 206.842 98.2673C204.785 98.3525 201.212 98.3784 198.195 97.7896C194.1 96.9933 191.028 95.1711 188.712 96.2118C188.447 96.327 188.198 96.475 187.97 96.6525C187.97 96.6525 184.82 106.478 186.962 110.008C189.104 113.537 192.892 119.456 191.124 120.97C190.896 121.167 190.647 121.34 190.383 121.485C188.752 122.385 186.736 121.855 183.679 118.704C180.151 115.048 179.769 108.878 179.769 108.878L180.651 93.0045C180.651 93.0045 177.249 81.0345 173.98 78.642L175.492 73.2236L175.674 73.3496C176.667 74.0236 181.626 77.1902 187.755 77.5939C188.507 77.641 189.225 77.9191 189.812 78.3901C191.544 79.8587 193.012 81.6123 194.152 83.5752C196.924 88.1121 203.732 87.6084 203.732 87.6084C205.364 87.0881 206.958 86.4544 208.502 85.7121C209.647 85.127 210.581 84.4862 210.726 83.9011C210.726 83.9011 210.726 84.0159 210.726 84.2196C210.837 85.7492 211.393 92.5008 215.076 90.6083Z" fill="#CED2DF"/>
<path opacity="0.1" d="M174.091 67.1128H164.826C165.03 68.5849 165.088 70.0735 165 71.5571C166.415 72.5517 168.073 73.1427 169.798 73.2666C171.523 73.3906 173.25 73.0429 174.792 72.2608C173.902 70.6164 173.361 68.7498 174.091 67.1128Z" fill="black"/>
<path d="M170.448 73.0942C175.531 73.0942 179.651 68.977 179.651 63.8982C179.651 58.8193 175.531 54.7021 170.448 54.7021C165.366 54.7021 161.246 58.8193 161.246 63.8982C161.246 68.977 165.366 73.0942 170.448 73.0942Z" fill="#EC8C9C"/>
<path opacity="0.1" d="M168.536 62.2612C169.563 62.139 170.589 61.7761 171.601 61.9798C172.52 62.1649 173.302 62.7983 174.221 62.9908C175.993 63.3612 177.638 62.0575 178.976 60.8427L181.867 58.2132C182.508 57.6317 183.168 57.0206 183.497 56.2207C183.827 55.4207 183.712 54.3689 183.008 53.8652C181.952 53.1245 180.132 53.8652 179.369 52.8134C179.024 52.3393 179.076 51.7023 178.898 51.1356C178.528 50.0023 177.253 49.3838 176.059 49.369C174.866 49.3542 173.725 49.7912 172.583 50.1097C170.179 50.8068 167.664 51.0468 165.171 50.8171C164.498 50.694 163.807 50.718 163.144 50.8875C162.736 51.0615 162.375 51.3288 162.089 51.6678C161.803 52.0067 161.601 52.408 161.498 52.8393C160.928 54.854 161.902 58.1021 162.881 59.9057C163.859 61.7094 166.583 62.502 168.536 62.2612Z" fill="black"/>
<path d="M168.536 62.0093C169.563 61.8871 170.589 61.5241 171.601 61.7278C172.52 61.913 173.302 62.5463 174.221 62.7389C175.993 63.1092 177.638 61.8056 178.976 60.5908L181.867 57.9612C182.508 57.3798 183.168 56.7687 183.497 55.9687C183.827 55.1687 183.712 54.1169 183.008 53.6132C181.952 52.8725 180.132 53.6132 179.369 52.5614C179.024 52.0873 179.076 51.4503 178.898 50.8837C178.528 49.7504 177.253 49.1319 176.059 49.1171C174.866 49.1023 173.725 49.5393 172.583 49.8578C170.179 50.5549 167.664 50.7948 165.171 50.5652C164.498 50.4421 163.807 50.4661 163.144 50.6355C162.736 50.8096 162.375 51.0768 162.089 51.4158C161.803 51.7548 161.601 52.156 161.498 52.5873C160.928 54.6021 161.902 57.8501 162.881 59.6538C163.859 61.4574 166.583 62.2315 168.536 62.0093Z" fill="#88455E"/>
<path opacity="0.1" d="M152.485 101.76C152.485 101.76 154.501 102.012 155.509 103.271C156.517 104.53 158.281 104.908 158.281 104.908" fill="black"/>
<path opacity="0.1" d="M134.329 85.127C134.329 85.127 135.975 88.7972 134.959 89.1676C133.944 89.5379 134.329 92.1897 134.329 92.1897" fill="black"/>
<g opacity="0.1">
<path opacity="0.1" d="M134.897 83.8679C134.897 83.8679 145.611 81.7272 145.981 81.7272C147.708 81.7272 150.488 79.3125 152.078 77.7866C152.561 77.3237 153.156 76.9933 153.805 76.8274H153.668C153.144 76.811 152.622 76.8988 152.133 77.0858C151.644 77.2727 151.197 77.555 150.818 77.9162C149.228 79.4421 146.445 81.8568 144.721 81.8568C144.421 81.8568 137.565 83.2161 134.782 83.7679L134.897 83.8679Z" fill="black"/>
<path opacity="0.1" d="M164.664 74.5126V74.0422C162.086 75.3556 159.313 76.2424 156.451 76.6681C159.29 76.4156 162.067 75.6869 164.664 74.5126Z" fill="black"/>
<path opacity="0.1" d="M151.415 123.174C151.415 123.174 149.903 118.259 151.044 115.741C152.185 113.223 153.564 101.63 153.564 101.63L150.799 93.064H145.489L145.166 93.1899H149.521L152.282 101.76C152.282 101.76 150.896 113.352 149.762 115.871C148.628 118.389 150.132 123.304 150.132 123.304L160.09 122.933V122.856L151.415 123.174Z" fill="black"/>
</g>
<g opacity="0.1">
<path opacity="0.1" d="M191.25 118.956C191.022 119.152 190.773 119.325 190.509 119.47C188.878 120.37 186.862 119.841 183.805 116.689C181.003 113.789 180.188 109.282 179.969 107.574L179.895 108.878C179.895 108.878 180.266 115.052 183.805 118.704C186.862 121.867 188.878 122.385 190.509 121.485C190.773 121.34 191.022 121.167 191.25 120.97C191.78 120.515 191.81 119.659 191.532 118.593C191.463 118.731 191.367 118.854 191.25 118.956Z" fill="black"/>
<path opacity="0.1" d="M213.294 90.7972L209.725 94.9193C209.424 95.2671 209.062 95.5581 208.658 95.7785C208.14 96.0596 207.564 96.218 206.975 96.2415C204.919 96.3267 201.346 96.3526 198.329 95.7637C194.234 94.9674 191.162 93.1453 188.845 94.186C188.581 94.3011 188.332 94.4492 188.104 94.6267C188.104 94.6267 186.07 100.975 186.381 105.297C186.622 101.256 188.104 96.6415 188.104 96.6415C188.332 96.464 188.581 96.3159 188.845 96.2007C191.165 95.16 194.234 96.9822 198.329 97.7785C201.346 98.3636 204.915 98.3377 206.975 98.2562C207.564 98.2328 208.14 98.0744 208.658 97.7933C209.061 97.5762 209.423 97.289 209.725 96.9452L215.214 90.6157C214.93 90.7925 214.609 90.9009 214.275 90.9323C213.942 90.9638 213.606 90.9176 213.294 90.7972Z" fill="black"/>
</g>
<path d="M52.1219 136.163C52.1659 136.205 52.2225 136.232 52.2832 136.241C52.344 136.249 52.4057 136.237 52.4592 136.207C52.3452 136.209 52.2315 136.194 52.1219 136.163Z" fill="url(#paint1_linear)"/>
<path d="M89.8901 74.8125C89.223 74.6199 88.2706 74.3052 87.1254 73.9052C88.3154 72.3751 89.1862 70.6221 89.6863 68.7498L89.5899 68.7868C89.6233 68.672 89.6566 68.5609 89.6863 68.4424C87.4886 69.3349 85.0574 67.8239 83.5083 65.8832C81.9592 63.9425 80.9141 61.5352 79.2167 59.75C78.5094 59.0399 77.7486 58.3849 76.9412 57.7908C76.4409 57.4205 75.9035 57.002 75.292 56.9835C74.3025 56.9538 73.5279 57.9242 72.5755 58.2093C71.9488 58.3503 71.2962 58.326 70.6817 58.139C68.2246 57.576 65.8638 56.5353 63.3548 56.2612C62.0125 56.0956 60.65 56.2491 59.3783 56.7094C58.1182 57.1871 57.5438 58.139 56.5246 58.9019C55.4128 59.7204 53.241 59.7019 51.9476 59.8463C50.3781 60.0255 48.7977 60.0911 47.2187 60.0426C46.3113 59.964 45.3977 59.9976 44.4985 60.1426C42.6195 60.5537 41.1112 62.0463 39.7029 63.4758C39.3185 63.7992 39.0418 64.232 38.9098 64.7166C38.8917 64.853 38.8917 64.9912 38.9098 65.1276C38.8956 65.501 38.96 65.8732 39.0988 66.2202C39.5323 67.5058 40.1449 68.7239 40.9184 69.8386C41.4929 70.6608 42.1637 71.4349 42.4898 72.4089C42.6444 72.8878 42.7256 73.3872 42.7307 73.8903C42.7147 74.4246 42.659 74.9569 42.5639 75.4829C42.3153 76.937 41.9063 78.3592 41.3446 79.7235C40.9959 80.4238 40.756 81.1731 40.6331 81.9457C40.6225 82.1035 40.6225 82.2619 40.6331 82.4197C40.5404 84.8641 43.0087 86.6233 43.4867 89.0528C43.526 89.2544 43.5496 89.4587 43.5572 89.6639C43.5053 91.1787 42.6418 92.6601 41.3669 93.249C41.4781 93.2935 41.5929 93.3305 41.7078 93.3675C41.5982 93.4363 41.4843 93.4982 41.3669 93.5527C41.6004 93.6416 41.8375 93.7194 42.0784 93.7823C40.6295 95.0435 39.4118 96.5474 38.4799 98.2266C34.192 106.204 5.15142 121.83 5.15142 121.83L5.58133 122.074L5.23296 122.3C2.72026 123.97 -3.17605 128.841 2.15324 135C2.15324 135 6.31512 128.437 9.23178 125.641C9.36149 125.515 9.4912 125.4 9.60238 125.292C9.66646 125.391 9.70942 125.502 9.72855 125.618C9.74769 125.734 9.74258 125.853 9.71356 125.967L28.8071 115.245C28.8071 115.245 35.5929 110.497 37.4867 109.426C38.8196 108.596 40.2701 107.972 41.7894 107.575L41.567 107.667C42.2809 107.471 43.0169 107.366 43.7573 107.356C47.1372 107.408 50.7988 109.882 52.0032 119.678C53.6191 132.796 52.8704 135.163 52.3516 135.485C52.2876 135.48 52.2243 135.469 52.1626 135.451C52.1786 135.465 52.196 135.478 52.2145 135.488C52.1442 135.484 52.0746 135.471 52.0069 135.451C52.0443 135.486 52.0898 135.51 52.1391 135.521C52.1884 135.533 52.2399 135.532 52.2886 135.518C52.3237 135.529 52.3606 135.532 52.3969 135.527C52.4333 135.523 52.4684 135.511 52.4998 135.492C52.585 135.497 52.6704 135.497 52.7556 135.492C52.7556 135.613 52.7469 135.737 52.7296 135.863C52.7037 135.863 52.5777 135.933 52.7296 135.94C52.6888 136.681 52.6926 137.485 52.7296 138.325C51.0508 138.418 49.3719 138.518 47.9118 138.607L48.0415 137.914L48.1008 137.603C49.3905 137.5 50.6135 137.122 50.758 136.077C51.073 133.781 47.9192 132.555 45.236 132.403C42.5528 132.252 26.4612 133.322 26.4612 133.322C26.4612 133.322 24.0485 136.444 31.7015 137.396C31.9288 137.514 32.1648 137.638 32.4094 137.766C35.4076 139.474 39.4731 142.618 41.4225 144.166L41.693 144.381L40.8184 145.092C45.551 146.162 50.128 164.236 52.6518 172.498C55.1756 180.761 60.6976 180.461 65.2746 179.235C69.5625 178.087 70.0924 165.643 70.1628 164.08V163.921L77.7899 173.335L78.368 174.05C78.5904 174.166 78.8103 174.275 79.0277 174.376C84.8017 177.121 91.1798 171.858 89.3676 165.858C87.5331 159.81 84.6868 150.866 82.7893 147.084C81.1994 143.918 79.1463 138.659 77.9011 135.366C78.0627 135.301 78.22 135.226 78.3717 135.14C78.3717 135.14 78.3421 134.992 78.2939 134.722L78.3717 134.681C78.3717 134.681 76.5187 125.155 76.4372 118.385C76.4372 118.267 76.4372 118.143 76.4372 118.015C76.4372 117.941 76.4372 117.867 76.4372 117.796C77.8158 117.482 78.6904 117.359 78.6904 117.359L78.7164 117.063L78.557 117.096L79.3242 108.323C79.3242 108.323 82.1408 102.334 79.9839 99.8414C79.3281 99.1125 78.8903 98.2142 78.7201 97.2489C78.3495 94.9564 78.7201 91.1306 83.7418 87.9529C91.4726 83.053 94.4893 79.0643 94.4893 79.0643C94.4893 79.0643 94.6227 76.2051 89.8901 74.8125ZM74.536 80.9012V76.8458C75.9702 76.7754 77.4341 76.9421 78.8757 76.8458C79.5835 76.7964 80.2847 76.6786 80.9697 76.494L81.318 76.7347C79.2088 78.356 76.9358 79.7524 74.536 80.9012ZM52.6147 144.47C53.1817 144.862 53.7525 145.27 54.3121 145.681C54.6605 147.681 54.9681 149.092 54.9903 149.192C54.3507 147.546 53.5552 145.965 52.6147 144.47Z" fill="url(#paint2_linear)"/>
<path d="M64.8671 141.136L64.5336 142.948L64.2779 144.333L63.8109 146.866L59.2821 150.033C59.2821 150.033 58.8745 149.684 58.2 149.133C56.3469 147.607 52.4445 144.51 49.5797 142.836C48.8435 142.367 48.0468 141.999 47.2115 141.744L64.8671 141.136Z" fill="#FFBDC6"/>
<path opacity="0.1" d="M64.8669 141.136L64.5334 142.948C63.5351 143.003 62.5338 142.952 61.5463 142.796L50.9804 142.948C50.4801 142.918 50.0131 142.877 49.5758 142.833C48.8396 142.363 48.0429 141.995 47.2076 141.74L64.8669 141.136Z" fill="black"/>
<path d="M61.5459 142.499C61.5459 142.499 66.8307 143.403 67.1309 141.14C67.4311 138.877 64.4144 137.685 61.8535 137.514C59.2926 137.344 43.8866 138.425 43.8866 138.425C43.8866 138.425 41.1701 142.044 50.98 142.647L61.5459 142.499Z" fill="#7679B4"/>
<path opacity="0.1" d="M64.8671 141.136L64.5336 142.948L64.2779 144.333L63.8109 146.866L59.2821 150.033C59.2821 150.033 58.8745 149.684 58.2 149.133C56.3469 147.607 52.4445 144.51 49.5797 142.836C48.8435 142.367 48.0468 141.999 47.2115 141.744L64.8671 141.136Z" fill="black"/>
<path opacity="0.1" d="M64.8669 141.136L64.5334 142.948C63.5351 143.003 62.5338 142.952 61.5463 142.796L50.9804 142.948C50.4801 142.918 50.0131 142.877 49.5758 142.833C48.8396 142.363 48.0429 141.995 47.2076 141.74L64.8669 141.136Z" fill="black"/>
<path opacity="0.1" d="M61.5459 142.499C61.5459 142.499 66.8307 143.403 67.1309 141.14C67.4311 138.877 64.4144 137.685 61.8535 137.514C59.2926 137.344 43.8866 138.425 43.8866 138.425C43.8866 138.425 41.1701 142.044 50.98 142.647L61.5459 142.499Z" fill="black"/>
<path d="M73.0903 68.1277H45.4691V100.86H73.0903V68.1277Z" fill="#A66477"/>
<path opacity="0.1" d="M73.0903 68.1277H45.4691V100.86H73.0903V68.1277Z" fill="black"/>
<path d="M13.0934 124.167C12.6375 124.281 12.0594 124.719 11.4108 125.356C8.6202 128.111 4.63991 134.574 4.63991 134.574C-0.459609 128.507 5.18469 123.711 7.60474 122.063C8.1903 121.663 8.58314 121.448 8.58314 121.448L13.0934 124.167Z" fill="#FFBDC6"/>
<path d="M64.5667 78.4607C64.5667 78.4607 65.9268 87.9641 70.6038 90.227C75.2808 92.4899 64.5667 96.712 64.5667 96.712L49.9241 91.2825C49.9241 91.2825 58.2256 88.5678 56.5653 80.5717L64.5667 78.4607Z" fill="#FFBDC6"/>
<path d="M48.8829 135.629L48.5493 137.44L48.2936 138.826L47.8267 141.359L43.2979 144.525C43.2979 144.525 42.8902 144.177 42.2157 143.625C40.3627 142.1 36.4602 139.003 33.5955 137.329C32.8593 136.86 32.0626 136.492 31.2273 136.237L48.8829 135.629Z" fill="#FFBDC6"/>
<path opacity="0.1" d="M48.8827 135.629L48.5491 137.44C47.5509 137.496 46.5495 137.445 45.5621 137.289L34.9961 137.44C34.4958 137.411 34.0289 137.37 33.5916 137.326C32.8554 136.856 32.0587 136.488 31.2234 136.233L48.8827 135.629Z" fill="black"/>
<path d="M45.5474 136.989C45.5474 136.989 50.8322 137.892 51.1324 135.629C51.4326 133.366 48.4159 132.159 45.8476 132.011C43.2793 131.863 27.8844 132.915 27.8844 132.915C27.8844 132.915 25.1679 136.533 34.9778 137.137L45.5474 136.989Z" fill="#7679B4"/>
<path opacity="0.1" d="M48.2786 138.829L47.8116 141.362L43.2828 144.529C43.2828 144.529 42.8752 144.181 42.2007 143.629L48.1896 138.722L48.2786 138.829Z" fill="black"/>
<path d="M78.1604 173.361C77.9529 173.26 77.7429 173.153 77.5304 173.039L76.9782 172.335L69.6847 163.076V163.239C69.6365 164.776 69.1102 177.035 65.0114 178.165C60.6345 179.372 55.3497 179.672 52.9371 171.528C50.5244 163.384 46.1439 145.584 41.6151 144.529L48.3305 139.022C48.3305 139.022 52.7777 144.207 54.5937 149.199C54.527 148.881 51.4547 134.544 53.9896 132.011H76.0257C76.0257 132.011 79.4205 141.692 81.7627 146.492C83.5786 150.218 86.3026 159.025 88.063 164.984C89.8048 170.88 83.7195 176.065 78.1604 173.361Z" fill="#7679B4"/>
<path opacity="0.1" d="M77.5453 134.722C74.1469 136.733 59.2041 135.914 54.3344 135.588L53.0113 135.492C52.8668 135.492 53.0336 135.411 53.0336 135.411L53.1707 134.04L56.7915 124.841L76.1889 113.611C75.7961 114.793 75.6627 116.604 75.696 118.682C75.7924 125.341 77.5453 134.722 77.5453 134.722Z" fill="black"/>
<path d="M77.5451 134.274C74.1467 136.285 59.2039 135.466 54.3342 135.14L53.0111 135.044H52.7925L53.0334 134.981L54.2267 134.666L56.7913 124.407L76.1887 113.171C75.7959 114.352 75.6625 116.163 75.6958 118.241C75.7922 124.889 77.5451 134.274 77.5451 134.274Z" fill="#F2F1F2"/>
<path opacity="0.1" d="M75.696 118.226C71.7528 119.134 63.0732 121.804 59.7378 128.226C57.5142 132.515 55.6611 134.355 54.3381 135.126L53.015 135.029L53.0373 134.948L54.2306 134.633L56.7952 124.374L76.1926 113.137C75.7924 114.352 75.6627 116.148 75.696 118.226Z" fill="black"/>
<path opacity="0.1" d="M8.56482 121.452L13.0936 124.167C12.6378 124.281 12.0596 124.718 11.4111 125.355C11.0405 124.244 8.66118 122.719 7.58643 122.067C8.17198 121.667 8.56482 121.452 8.56482 121.452Z" fill="black"/>
<path opacity="0.1" d="M52.2181 135.218C52.1676 135.246 52.1094 135.258 52.0521 135.25C51.9947 135.243 51.9412 135.217 51.8994 135.177C52.0031 135.207 52.1105 135.22 52.2181 135.218Z" fill="black"/>
<path d="M62.4506 89.6233C62.4506 89.6233 58.3739 90.0751 55.5054 87.0604C55.5054 87.0604 43.4311 90.5306 39.3545 98.3748C35.2778 106.219 7.50476 121.604 7.50476 121.604C7.50476 121.604 12.3226 124.318 11.8816 125.678L30.145 115.119C30.145 115.119 36.6343 110.441 38.4465 109.386C40.2588 108.33 50.2206 101.845 52.3331 119.493C54.4455 137.14 52.3331 135.048 52.3331 135.048C52.3331 135.048 55.3535 136.103 59.7452 127.641C64.1368 119.178 77.7084 117.234 77.7084 117.234L78.4496 108.345C78.4496 108.345 81.1439 102.449 79.0796 99.9896C78.4501 99.266 78.0321 98.3831 77.8714 97.4378C77.5268 95.1786 77.8714 91.4121 82.6893 88.2826C90.1014 83.4679 92.955 79.5347 92.955 79.5347C92.955 79.5347 93.107 76.6681 88.5782 75.3126C84.0494 73.9571 65.6341 66.5647 65.6341 66.5647L65.03 69.1276L79.5206 79.3865C79.5206 79.3865 72.2753 85.2678 66.5495 85.1197C66.5272 85.0938 67.5834 89.4714 62.4506 89.6233Z" fill="#565388"/>
<path opacity="0.1" d="M65.2483 82.5974C64.8914 81.3819 64.6128 80.1449 64.4144 78.8938L56.413 81.0197C56.7633 82.5455 56.7006 84.137 56.2314 85.6306C57.8667 86.0666 59.5943 86.011 61.1981 85.4708C62.8019 84.9307 64.2107 83.9299 65.2483 82.5937V82.5974Z" fill="black"/>
<path d="M58.6036 85.4751C63.3563 85.4751 67.209 81.6249 67.209 76.8754C67.209 72.1259 63.3563 68.2756 58.6036 68.2756C53.851 68.2756 49.9982 72.1259 49.9982 76.8754C49.9982 81.6249 53.851 85.4751 58.6036 85.4751Z" fill="#FFBDC6"/>
<path opacity="0.1" d="M63.177 57.3168C65.5637 57.5871 67.8355 58.613 70.1851 59.1686C70.7722 59.3526 71.3978 59.3769 71.9974 59.2389C72.909 58.9575 73.6503 58.0019 74.5916 58.0316C75.1734 58.0316 75.7034 58.4464 76.1704 58.8278C76.9439 59.4144 77.6712 60.0595 78.3458 60.7574C79.9654 62.5166 80.9734 64.8869 82.4521 66.798C83.9308 68.709 86.2619 70.1979 88.3633 69.3201C86.9364 74.8755 82.252 79.1235 77.1895 79.468C75.1697 79.605 73.1129 79.1865 71.145 79.7791C70.6573 79.9778 70.1427 80.1026 69.6181 80.1494C68.5063 80.1494 67.5872 79.1161 66.883 78.1125C65.2375 75.7496 63.9182 73.0682 62.0652 70.9164C61.4537 70.2053 60.731 69.5275 59.8675 69.3979C59.004 69.2683 58.2072 69.6794 57.4363 70.0794C56.1651 70.7386 54.8643 71.4201 53.8785 72.546C52.8927 73.6718 52.2701 75.357 52.6778 76.8829C52.8964 77.7051 53.4004 78.4458 53.419 79.3087C53.419 80.679 52.2256 81.6827 51.9847 83.0123C51.9317 83.5736 51.9119 84.1375 51.9254 84.7011C51.818 86.5307 50.6246 88.0344 49.372 89.1788C48.8865 89.6269 48.3454 90.1047 48.2046 90.7973C48.1082 91.2676 48.2046 91.7676 48.1416 92.2454C47.96 93.4342 46.774 94.0342 45.7252 94.1897C44.5003 94.3692 43.2497 94.2209 42.1007 93.7601C43.5831 93.0676 44.4689 91.0935 44.1279 89.3158C43.661 86.8677 41.2001 85.1122 41.4077 82.616C41.5237 81.8516 41.7536 81.1088 42.0896 80.4124C42.6266 79.0657 43.0168 77.665 43.2533 76.2347C43.4958 75.1339 43.4716 73.9911 43.1829 72.9015C42.8679 71.9423 42.2267 71.1793 41.6782 70.3682C40.9354 69.2656 40.3492 68.0653 39.9364 66.8017C39.7868 66.4282 39.7296 66.0242 39.7696 65.6239C39.8891 65.1518 40.1473 64.7261 40.5108 64.4018C41.8598 62.9907 43.3052 61.5204 45.0989 61.113C45.9559 60.9703 46.8276 60.9367 47.6931 61.013C49.2042 61.061 50.7167 60.9966 52.2182 60.8204C53.456 60.6759 55.5536 60.6945 56.5988 59.8871C57.5734 59.1464 58.1256 58.2019 59.3301 57.7279C60.5594 57.2781 61.8804 57.137 63.177 57.3168Z" fill="black"/>
<path opacity="0.1" d="M67.9615 146.114C67.9615 146.114 72.9425 155.917 71.4341 158.936L67.9615 146.114Z" fill="black"/>
<path opacity="0.1" d="M76.9929 172.335L69.6994 163.077V163.239C69.6994 163.239 69.2769 160.247 70.6667 161.254C73.7094 163.454 78.5791 167.062 78.6829 167.684C78.7867 168.306 77.6971 170.802 76.9929 172.335Z" fill="black"/>
<g opacity="0.1">
<path opacity="0.1" d="M66.6714 85.0936C66.6714 85.0936 67.2866 87.6417 65.2965 88.9158C68.3614 88.3899 68.4948 86.0084 68.4022 84.9714C67.8301 85.064 67.2509 85.1049 66.6714 85.0936Z" fill="black"/>
<path opacity="0.1" d="M9.32063 121C9.32063 121 37.0937 105.615 41.1704 97.771C44.0944 92.1415 51.1396 88.7676 54.8827 87.3083C52.1514 88.2231 42.9604 91.7304 39.5064 98.3747C35.4297 106.219 7.65662 121.604 7.65662 121.604L9.32063 121Z" fill="black"/>
<path opacity="0.1" d="M72.0753 83.8973C76.8005 82.4159 81.3182 78.7604 81.3182 78.7604L66.8275 68.5015L67.1574 67.0941L65.7713 66.5386L65.1672 69.1015L79.6579 79.3604C77.3325 81.1871 74.7847 82.7116 72.0753 83.8973Z" fill="black"/>
<path opacity="0.1" d="M72.1675 118.659C74.019 118.028 75.9192 117.548 77.8489 117.226L77.8748 116.933C75.9305 117.36 74.0223 117.937 72.1675 118.659Z" fill="black"/>
<path opacity="0.1" d="M54.6048 134.462H54.4714C54.4209 134.49 54.3627 134.502 54.3053 134.494C54.2479 134.487 54.1944 134.462 54.1527 134.422C54.2564 134.451 54.3637 134.464 54.4714 134.462C54.968 134.173 55.7129 131.922 54.1527 118.885C52.4849 104.967 45.9401 106.059 42.3563 107.659C46.0179 106.652 51.0581 107.522 52.4923 119.489C54.0526 132.525 53.3077 134.781 52.8111 135.066C53.4548 135.042 54.0778 134.832 54.6048 134.462Z" fill="black"/>
<path opacity="0.1" d="M52.8108 135.07C52.7031 135.072 52.5958 135.058 52.4921 135.029C52.5339 135.069 52.5874 135.094 52.6447 135.102C52.7021 135.109 52.7603 135.098 52.8108 135.07Z" fill="black"/>
</g>
<path d="M63.177 57.0243C65.5637 57.2947 67.8355 58.3206 70.1851 58.8761C70.7722 59.0601 71.3978 59.0844 71.9974 58.9465C72.909 58.665 73.6503 57.7095 74.5916 57.7391C75.1734 57.7391 75.7034 58.1539 76.1704 58.5354C76.9439 59.1219 77.6712 59.767 78.3458 60.4649C79.9654 62.2241 80.9734 64.5944 82.4521 66.5055C83.9308 68.4165 86.2619 69.9054 88.3633 69.0276C86.9364 74.583 82.252 78.831 77.1895 79.1755C75.1697 79.3125 73.1129 78.894 71.145 79.4866C70.6573 79.6853 70.1427 79.8101 69.6181 79.8569C68.5063 79.8569 67.5872 78.8236 66.883 77.82C65.2375 75.4571 63.9182 72.7757 62.0652 70.6239C61.4537 69.9128 60.731 69.235 59.8675 69.1054C59.004 68.9758 58.2072 69.3869 57.4363 69.7869C56.1651 70.4461 54.8643 71.1276 53.8785 72.2535C52.8927 73.3794 52.2701 75.0645 52.6778 76.5904C52.8964 77.4126 53.4004 78.1533 53.419 79.0162C53.419 80.3865 52.2256 81.3902 51.9847 82.7198C51.9317 83.2811 51.9119 83.845 51.9254 84.4086C51.818 86.2382 50.6246 87.7419 49.372 88.8863C48.8865 89.3344 48.3454 89.8122 48.2046 90.5048C48.1082 90.9751 48.2046 91.4751 48.1416 91.9529C47.96 93.1417 46.774 93.7417 45.7252 93.8972C44.5003 94.0767 43.2497 93.9284 42.1007 93.4676C43.5831 92.7751 44.4689 90.801 44.1279 89.0233C43.661 86.5752 41.2001 84.8197 41.4077 82.3235C41.5237 81.5591 41.7536 80.8163 42.0896 80.1199C42.6266 78.7732 43.0168 77.3725 43.2533 75.9422C43.4958 74.8414 43.4716 73.6986 43.1829 72.609C42.8679 71.6498 42.2267 70.8868 41.6782 70.0758C40.9354 68.9731 40.3492 67.7728 39.9364 66.5092C39.7868 66.1357 39.7296 65.7317 39.7696 65.3315C39.8891 64.8593 40.1473 64.4336 40.5108 64.1093C41.8598 62.6982 43.3052 61.2279 45.0989 60.8205C45.9559 60.6778 46.8276 60.6442 47.6931 60.7205C49.2042 60.7685 50.7167 60.7042 52.2182 60.5279C53.456 60.3835 55.5536 60.402 56.5988 59.5946C57.5734 58.8539 58.1256 57.9095 59.3301 57.4354C60.5594 56.9857 61.8804 56.8445 63.177 57.0243Z" fill="#A66477"/>
<path d="M308.899 37.721C308.899 37.6728 308.899 37.6284 308.899 37.5839C308.899 37.5395 308.899 37.4876 308.877 37.4432H308.817C308.817 37.3432 308.817 37.2432 308.817 37.1358C308.669 33.7026 303.918 26.3954 302.013 28.5287C300.345 30.4027 302.862 35.1433 304.144 37.2765L304.259 37.4691L304.196 37.4284C304.196 37.4284 298.892 53.2353 298.266 53.8501C297.64 54.4649 293.274 66.8942 287.519 68.2941C286.381 68.5645 285.436 68.8089 284.643 69.0348L284.706 68.8237C285.076 67.6127 285.532 66.4683 285.718 65.1201C285.903 63.772 285.718 62.1388 285.036 61.4832C284.702 61.1573 284.294 61.1129 284.02 60.5944C283.842 60.1396 283.747 59.6567 283.739 59.1685L283.249 53.1761L283.59 53.0724C285.651 52.4131 287.648 50.8502 287.882 48.7466C287.81 48.7738 287.737 48.7973 287.663 48.8169C287.69 48.6946 287.711 48.571 287.726 48.4466C285.995 49.128 284.391 47.3355 282.723 46.5318C279.977 45.1874 276.838 46.454 274.003 46.7614C270.79 47.1133 267.74 45.78 264.456 46.0207C262.67 46.1578 260.683 47.3688 260.78 49.128C260.835 50.0947 261.521 50.9132 261.802 51.8391C262.514 54.0797 260.932 56.3278 259.545 58.2389C258.634 59.4944 257.759 61.024 257.603 62.498C254.413 59.1648 250.962 55.313 250.562 53.8649L241.33 38.058C241.33 38.058 241.112 38.2913 240.76 38.6358C240.704 38.4654 240.637 38.2654 240.563 38.0654C239.385 34.7655 236.049 26.7695 231.821 28.2361C227.592 29.7027 233.574 37.8987 236.175 41.1653L236.546 41.6172C236.328 41.6707 236.099 41.6604 235.886 41.5875L246.181 59.2351C246.181 59.2351 248.053 62.6128 249.769 63.5313C249.769 63.5313 262.558 79.6456 262.714 82.8678C262.87 86.0899 268.466 94.6859 268.466 94.6859C268.466 94.6859 270.337 108.652 267.061 111.108H267.102H267.128H267.169H267.206H267.28H267.328H267.376H267.439H267.491H267.565H267.602C267.447 111.259 267.287 111.426 267.124 111.608C264.697 114.296 261.595 120.059 265.835 129.859C272.072 144.303 273.01 149.962 273.01 149.962C273.01 149.962 261.15 150.577 258.815 151.036C256.747 151.443 248.709 151.729 246.871 151.777C246.215 151.014 244.277 149.325 241.66 151.777C238.384 154.847 236.045 165.11 236.045 165.11C236.045 165.11 234.797 173.398 239.01 171.247C239.01 171.247 244.002 164.339 245.403 164.032C246.1 163.88 246.837 162.854 247.401 161.865L247.43 161.884C247.464 161.884 247.601 161.81 247.823 161.721C248.861 161.31 251.718 160.321 253.972 160.814C255.206 161.084 260.498 161.147 266.046 161.132C264.793 164.132 262.547 171.872 262.547 171.872C262.547 171.872 261.61 179.091 264.723 178.794C266.946 178.576 270.356 172.898 272.135 169.658C273.425 168.713 277.119 165.328 279.851 165.584L298.255 158.525C298.255 158.525 302.621 156.069 300.282 147.936C298.429 141.47 293.156 128.233 291.073 123.074L291.01 122.941C290.506 121.693 290.202 120.952 290.202 120.952C289.346 118.597 288.785 116.145 288.53 113.652C288.512 113.456 288.497 113.256 288.482 113.059C288.74 112.951 288.983 112.811 289.205 112.641C289.205 112.641 287.489 95.3007 289.205 93.4563L289.235 93.423V93.4008L289.264 93.3637L289.331 93.2786L289.412 93.1749C289.505 93.0526 289.616 92.9008 289.742 92.7156C290.724 91.2786 292.555 87.9972 292.029 84.1233C292.007 83.9554 291.979 83.7863 291.947 83.6159C291.746 82.5653 291.386 81.5513 290.88 80.6086C290.806 80.2161 290.76 79.8188 290.743 79.4197C290.743 79.1938 290.743 78.9457 290.743 78.679V78.6346C290.743 78.563 290.743 78.4914 290.743 78.4198V78.3679C290.743 78.1938 290.773 77.9975 290.799 77.8346V77.7679C290.799 77.7012 290.81 77.6334 290.832 77.5642V77.479C290.832 77.4124 290.861 77.3457 290.876 77.279V77.2087C290.899 77.1198 290.921 77.0309 290.95 76.942V76.8976C290.973 76.8235 290.997 76.7507 291.025 76.6791L291.058 76.5939L291.132 76.4161L291.169 76.3272C291.199 76.2605 291.232 76.1939 291.265 76.1272L291.291 76.0717C291.336 75.9902 291.383 75.9099 291.432 75.8309L291.473 75.768L291.595 75.5939L291.655 75.5161L291.784 75.3606L291.844 75.2939C291.91 75.2235 291.977 75.1532 292.051 75.0865C294.078 73.2347 303.125 59.587 303.125 59.587C303.125 59.587 305.308 56.5167 305.308 54.5242C305.43 54.4797 309.288 41.6283 308.899 37.721ZM284.613 152.44C284.391 150.336 284.168 147.729 283.965 145.033L287.493 150.529C287.493 150.529 287.159 152.203 284.613 152.44Z" fill="url(#paint3_linear)"/>
<path d="M247.827 151.277C247.827 151.277 245.714 147.944 242.542 150.977C239.369 154.01 237.109 164.099 237.109 164.099C237.109 164.099 235.901 172.247 239.977 170.132C239.977 170.132 244.795 163.343 246.166 163.043C247.538 162.743 249.035 158.969 249.035 158.969L247.827 151.277Z" fill="#493545"/>
<path d="M270.467 159.421C270.467 159.421 267.598 158.062 266.694 159.121C265.79 160.18 262.769 170.736 262.769 170.736C262.769 170.736 261.865 177.676 264.882 177.372C267.899 177.069 273.183 166.202 273.183 166.202L270.467 159.421Z" fill="#493545"/>
<path opacity="0.05" d="M270.467 159.421C270.467 159.421 267.598 158.062 266.694 159.121C265.79 160.18 262.769 170.736 262.769 170.736C262.769 170.736 261.865 177.676 264.882 177.372C267.899 177.069 273.183 166.202 273.183 166.202L270.467 159.421Z" fill="black"/>
<path d="M280.429 138.907L286.918 149.014C286.918 149.014 286.466 151.277 282.542 150.825L269.107 159.273C269.107 159.273 267.94 169.558 271.672 168.625C272.276 168.473 276.49 164.099 279.521 164.403L297.336 157.462C297.336 157.462 301.561 155.047 299.297 147.055C297.032 139.063 289.546 120.53 289.546 120.53L277.713 127.144L280.429 138.907Z" fill="#3E3D77"/>
<path opacity="0.05" d="M280.429 138.907L286.918 149.014C286.918 149.014 286.466 151.277 282.542 150.825L269.107 159.273C269.107 159.273 267.94 169.558 271.672 168.625C272.276 168.473 276.49 164.099 279.521 164.403L297.336 157.462C297.336 157.462 301.561 155.047 299.297 147.055C297.032 139.063 289.546 120.53 289.546 120.53L277.713 127.144L280.429 138.907Z" fill="black"/>
<path d="M284.505 153.84C285.41 159.573 280.28 160.025 280.28 160.025C280.28 160.025 257.184 160.477 254.468 159.873C251.751 159.269 248.127 160.928 248.127 160.928C243.446 158.062 247.223 150.973 247.223 150.973C247.223 150.973 256.884 150.673 259.149 150.232C261.413 149.792 272.883 149.166 272.883 149.166C272.883 149.166 271.979 143.584 265.938 129.407C261.835 119.778 264.826 114.111 267.187 111.471C267.789 110.77 268.487 110.157 269.259 109.648L287.826 110.552C287.806 111.488 287.841 112.424 287.93 113.356C288.247 116.555 289.079 119.681 290.394 122.615C289.338 122.615 282.545 128.952 282.545 128.952C282.545 128.952 283.597 148.11 284.505 153.84Z" fill="#3E3D77"/>
<path opacity="0.1" d="M248.579 151.577C248.579 151.577 258.241 151.277 260.505 150.836C262.77 150.395 274.24 149.781 274.24 149.781C274.24 149.781 273.336 144.199 267.295 130.022C263.192 120.393 266.183 114.726 268.544 112.086C269.146 111.385 269.843 110.772 270.615 110.263L287.819 111.1C287.819 110.923 287.819 110.73 287.819 110.563L269.251 109.66C268.479 110.168 267.782 110.781 267.18 111.482C264.83 114.126 261.828 119.789 265.931 129.418C271.987 143.585 272.883 149.166 272.883 149.166C272.883 149.166 261.395 149.77 259.149 150.221C256.903 150.673 247.223 150.962 247.223 150.962C247.223 150.962 243.45 158.054 248.127 160.932C248.127 160.932 248.268 160.866 248.498 160.769C245.388 157.573 248.579 151.577 248.579 151.577Z" fill="black"/>
<path d="M276.201 54.2834H266.843V77.9642H276.201V54.2834Z" fill="#493545"/>
<path opacity="0.1" d="M276.201 54.2834H266.843V77.9642H276.201V54.2834Z" fill="black"/>
<path d="M281.552 50.8095C281.874 50.8984 282.237 50.9095 282.456 51.3539C282.592 51.7091 282.666 52.0849 282.675 52.465L283.264 59.7833C283.272 60.2624 283.365 60.7364 283.538 61.1833C283.787 61.6795 284.198 61.7388 284.52 62.0573C285.169 62.7017 285.358 64.3165 285.18 65.6313C285.002 66.946 284.554 68.0719 284.202 69.2608C283.698 70.9644 283.364 72.8792 282.656 74.3162C281.948 75.7532 280.662 76.5384 279.832 75.331C279.002 74.1236 279.113 71.6866 278.958 69.6904C278.698 66.3572 277.397 63.4832 277.308 60.1277C277.234 57.413 277.964 54.8797 278.42 52.3057C278.746 50.5391 278.765 48.3947 279.239 46.8059C279.636 48.6947 280.392 50.491 281.552 50.8095Z" fill="#493545"/>
<path opacity="0.1" d="M281.552 50.8095C281.874 50.8984 282.237 50.9095 282.456 51.3539C282.592 51.7091 282.666 52.0849 282.675 52.465L283.264 59.7833C283.272 60.2624 283.365 60.7364 283.538 61.1833C283.787 61.6795 284.198 61.7388 284.52 62.0573C285.169 62.7017 285.358 64.3165 285.18 65.6313C285.002 66.946 284.554 68.0719 284.202 69.2608C283.698 70.9644 283.364 72.8792 282.656 74.3162C281.948 75.7532 280.662 76.5384 279.832 75.331C279.002 74.1236 279.113 71.6866 278.958 69.6904C278.698 66.3572 277.397 63.4832 277.308 60.1277C277.234 57.413 277.964 54.8797 278.42 52.3057C278.746 50.5391 278.765 48.3947 279.239 46.8059C279.636 48.6947 280.392 50.491 281.552 50.8095Z" fill="black"/>
<path d="M241.938 40.4063L238.317 43.4247C238.317 43.4247 237.887 42.921 237.246 42.1062C234.73 38.8952 228.945 30.8399 233.033 29.3992C237.12 27.9585 240.352 35.8138 241.493 39.0581C241.782 39.8803 241.938 40.4063 241.938 40.4063Z" fill="#C77485"/>
<path d="M307.298 39.3507C305.79 41.6136 303.677 39.3507 303.677 39.3507C303.677 39.3507 303.407 38.947 303.025 38.2951C301.783 36.1952 299.348 31.5398 300.961 29.6954C302.814 27.5881 307.405 34.7804 307.546 38.1544C307.59 38.5692 307.503 38.9874 307.298 39.3507Z" fill="#C77485"/>
<path d="M270.163 63.7869C270.163 63.7869 273.183 73.4422 272.275 76.3051C271.367 79.1679 278.768 82.5012 278.768 82.5012H287.222C287.222 82.5012 290.242 76.3162 289.486 74.5051C288.73 72.6941 282.241 71.3385 282.241 71.3385C282.241 71.3385 278.468 71.3385 278.62 61.2314L270.163 63.7869Z" fill="#C77485"/>
<path opacity="0.1" d="M241.938 40.4062L238.317 43.4246C238.317 43.4246 237.887 42.9209 237.246 42.1062C238.562 41.8728 240.604 39.9544 241.497 39.0581C241.782 39.8803 241.938 40.4062 241.938 40.4062Z" fill="black"/>
<path opacity="0.1" d="M307.297 39.3507C305.789 41.6136 303.677 39.3507 303.677 39.3507C303.677 39.3507 303.406 38.947 303.024 38.2952L303.073 38.1433C304.051 38.8433 307.094 38.247 307.546 38.1433C307.592 38.5618 307.505 38.9842 307.297 39.3507Z" fill="black"/>
<path opacity="0.1" d="M287.922 113.352C283.253 115.482 268.08 111.689 267.168 111.463C267.771 110.763 268.468 110.149 269.24 109.641L287.807 110.545C287.791 111.482 287.829 112.419 287.922 113.352Z" fill="black"/>
<path d="M272.127 72.0829C272.127 72.0829 268.506 73.2903 263.374 68.6126C263.374 68.6126 251.885 57.2982 251.144 54.5834L242.249 39.0284C242.249 39.0284 238.476 43.1023 236.964 42.4986L246.926 59.8462C246.926 59.8462 248.738 63.1795 250.399 64.0683C250.399 64.0683 262.777 79.9086 262.925 83.0752C263.073 86.2417 268.503 94.723 268.503 94.723C268.503 94.723 270.315 108.448 267.143 110.863C267.143 110.863 284.802 115.389 288.575 112.371C288.575 112.371 286.914 95.334 288.575 93.5156C288.575 93.5156 293.707 87.4824 290.235 80.8456C290.235 80.8456 289.494 77.2272 291.443 75.4161C293.392 73.6051 302.161 60.1796 302.161 60.1796C302.161 60.1796 304.273 57.1611 304.273 55.2019C304.273 55.2019 308.198 41.9283 307.609 38.458C307.609 38.458 304.136 39.1987 303.08 38.458C303.08 38.458 297.947 54.0131 297.343 54.5983C296.739 55.1834 292.525 67.4201 286.929 68.7793C281.333 70.1385 280.44 70.7385 280.44 70.7385C280.44 70.7385 291.306 77.5272 286.025 80.5419C280.744 83.5566 272.127 72.0829 272.127 72.0829Z" fill="#FFAAC4"/>
<path opacity="0.1" d="M278.987 66.109C278.808 64.6881 278.735 63.2558 278.769 61.824L270.315 64.3868C270.538 64.9496 270.715 65.5292 270.845 66.1201C271.813 66.546 273.117 67.5534 274.24 67.5534C275.939 67.6089 277.608 67.101 278.987 66.109Z" fill="black"/>
<path d="M274.088 67.1054C278.423 67.1054 281.937 63.5934 281.937 59.2612C281.937 54.929 278.423 51.417 274.088 51.417C269.753 51.417 266.239 54.929 266.239 59.2612C266.239 63.5934 269.753 67.1054 274.088 67.1054Z" fill="#C77485"/>
<path opacity="0.1" d="M264.749 47.1763C263.022 47.3097 261.095 48.5022 261.191 50.2318C261.243 51.1836 261.895 51.9873 262.181 52.8984C262.866 55.102 261.339 57.3131 259.998 59.1945C258.656 61.0759 257.404 63.5684 258.552 65.561C258.88 66.0407 259.234 66.5019 259.612 66.9424C261.032 68.8572 261.013 71.4423 261.643 73.7422C262.448 76.6846 264.35 79.2072 266.958 80.7915C269.566 82.3759 272.683 82.9015 275.667 82.2605C274.544 80.8274 273.983 79.0334 274.092 77.2162C274.177 75.8977 274.603 74.52 274.092 73.3015C273.432 71.7349 271.498 71.1164 270.501 69.746C269.504 68.3757 269.57 66.4758 270.052 64.8425C270.534 63.2092 271.368 61.6944 271.768 60.0278C271.867 59.5416 271.991 59.0607 272.139 58.5871C272.835 56.6094 274.918 55.4613 276.957 54.9687C278.995 54.4761 281.137 54.4465 283.127 53.7984C285.117 53.1502 287.052 51.6318 287.282 49.5466C285.607 50.217 284.054 48.4689 282.438 47.6652C279.777 46.3467 276.742 47.5874 273.999 47.8911C270.875 48.2393 267.91 46.9467 264.749 47.1763Z" fill="black"/>
<path d="M264.597 46.8763C262.87 47.0096 260.943 48.2022 261.039 49.9318C261.091 50.8836 261.743 51.6873 262.029 52.5983C262.714 54.802 261.187 57.013 259.846 58.8945C258.504 60.7759 257.252 63.2684 258.4 65.2609C258.728 65.7406 259.082 66.2018 259.46 66.6424C260.88 68.5571 260.861 71.1422 261.491 73.4422C262.296 76.3845 264.198 78.9071 266.806 80.4915C269.414 82.0758 272.531 82.6015 275.515 81.9604C274.392 80.5274 273.831 78.7333 273.94 76.9161C274.025 75.5976 274.451 74.2199 273.94 73.0014C273.28 71.4348 271.346 70.8163 270.349 69.446C269.352 68.0756 269.418 66.1757 269.9 64.5424C270.382 62.9091 271.216 61.3944 271.616 59.7278C271.715 59.2415 271.839 58.7606 271.987 58.2871C272.684 56.3093 274.766 55.1612 276.805 54.6687C278.843 54.1761 280.985 54.1464 282.975 53.4983C284.965 52.8502 286.9 51.3317 287.13 49.2466C285.455 49.9169 283.902 48.1688 282.286 47.3652C279.625 46.0467 276.59 47.2874 273.847 47.5911C270.73 47.9355 267.777 46.6282 264.597 46.8763Z" fill="#493545"/>
<path opacity="0.1" d="M281.863 76.6865C281.863 76.6865 285.006 79.4901 285.625 80.7271L281.863 76.6865Z" fill="black"/>
<path opacity="0.1" d="M288.664 93.4304C288.664 93.4304 284.739 93.4304 282.927 93.8823C281.115 94.3341 276.738 93.8823 276.738 93.8823" fill="black"/>
<g opacity="0.1">
<path opacity="0.1" d="M286.014 80.531C285.676 80.7245 285.31 80.8644 284.928 80.9458C285.913 81.1638 286.943 81.0164 287.826 80.531C293.111 77.5125 282.241 70.7275 282.241 70.7275H280.429C280.429 70.7275 291.299 77.5162 286.014 80.531Z" fill="black"/>
<path opacity="0.1" d="M307.635 38.7211C307.635 38.6248 307.613 38.5322 307.598 38.447C306.977 38.5756 306.35 38.6708 305.719 38.7322C306.356 38.8022 306.999 38.7985 307.635 38.7211Z" fill="black"/>
<path opacity="0.1" d="M268.959 110.852C272.128 108.438 270.319 94.712 270.319 94.712C270.319 94.712 264.886 86.2641 264.734 83.0975C264.582 79.931 252.208 64.0907 252.208 64.0907C250.547 63.187 248.735 59.8686 248.735 59.8686C248.735 59.8686 238.469 43.1247 236.961 42.521L246.923 59.8686C246.923 59.8686 248.735 63.2019 250.395 64.0907C250.395 64.0907 262.774 79.931 262.922 83.0975C263.07 86.2641 268.503 94.7231 268.503 94.7231C268.503 94.7231 270.315 108.449 267.143 110.863C267.143 110.863 277.998 113.645 284.506 113.393C277.983 113.163 268.959 110.852 268.959 110.852Z" fill="black"/>
<path opacity="0.1" d="M272.217 72.2015L272.128 72.0867C272.024 72.1172 271.919 72.1407 271.813 72.157C271.953 72.1756 272.087 72.1904 272.217 72.2015Z" fill="black"/>
</g>
<g opacity="0.1">
<path opacity="0.1" d="M307.598 38.4285L307.506 38.447C307.346 43.0802 304.13 53.965 304.13 53.965C304.13 55.9242 302.017 58.9427 302.017 58.9427C302.017 58.9427 293.263 72.3682 291.299 74.1792C289.335 75.9903 290.091 79.6087 290.091 79.6087L290.11 79.6457C290.05 78.4273 290.199 76.5384 291.447 75.3829C293.408 73.5718 302.165 60.1463 302.165 60.1463C302.165 60.1463 304.278 57.1279 304.278 55.1687C304.278 55.1909 308.202 41.9172 307.598 38.4285Z" fill="black"/>
<path opacity="0.1" d="M288.431 92.2972C288.657 93.5786 288.505 92.2231 288.583 93.5045C288.583 93.5045 292.289 89.1602 291.277 83.79C291.581 88.5899 288.431 92.2972 288.431 92.2972Z" fill="black"/>
</g>
<path opacity="0.1" d="M174.106 245C261.641 245 332.602 238.188 332.602 229.786C332.602 221.383 261.641 214.571 174.106 214.571C86.571 214.571 15.6097 221.383 15.6097 229.786C15.6097 238.188 86.571 245 174.106 245Z" fill="#6C63FF"/>
<path d="M112.668 214.349C112.668 214.349 107.272 196.035 113.679 182.557C116.405 176.921 117.227 170.553 116.022 164.41C115.427 161.498 114.566 158.647 113.45 155.892" stroke="#535461" stroke-width="2" stroke-miterlimit="10"/>
<path d="M117.444 147.381C117.444 149.625 113.368 156.132 113.368 156.132C113.368 156.132 109.291 149.625 109.291 147.381C109.25 146.822 109.324 146.261 109.51 145.732C109.695 145.203 109.988 144.718 110.37 144.308C110.751 143.897 111.213 143.57 111.727 143.346C112.241 143.122 112.796 143.006 113.357 143.006C113.917 143.006 114.472 143.122 114.986 143.346C115.5 143.57 115.962 143.897 116.344 144.308C116.725 144.718 117.018 145.203 117.204 145.732C117.389 146.261 117.464 146.822 117.422 147.381H117.444Z" fill="#6C63FF"/>
<path d="M124.156 159.81C122.937 161.695 115.984 164.947 115.984 164.947C115.984 164.947 116.11 157.277 117.33 155.392C117.6 154.902 117.968 154.474 118.412 154.133C118.855 153.792 119.364 153.546 119.907 153.41C120.449 153.274 121.014 153.251 121.566 153.342C122.118 153.434 122.645 153.638 123.114 153.942C123.584 154.246 123.986 154.643 124.295 155.109C124.604 155.574 124.815 156.099 124.912 156.649C125.01 157.2 124.993 157.765 124.863 158.308C124.733 158.852 124.492 159.363 124.156 159.81Z" fill="#6C63FF"/>
<path d="M123.864 181.057C121.859 182.069 114.228 181.369 114.228 181.369C114.228 181.369 118.212 174.81 120.217 173.798C120.697 173.51 121.232 173.324 121.788 173.251C122.344 173.179 122.909 173.222 123.448 173.378C123.986 173.533 124.487 173.798 124.918 174.156C125.35 174.514 125.703 174.956 125.955 175.457C126.208 175.957 126.354 176.504 126.385 177.063C126.417 177.623 126.332 178.182 126.138 178.708C125.943 179.233 125.641 179.712 125.253 180.116C124.864 180.52 124.396 180.839 123.878 181.054L123.864 181.057Z" fill="#6C63FF"/>
<path d="M120.02 197.079C118.215 198.412 110.558 199.016 110.558 199.016C110.558 199.016 113.375 191.879 115.184 190.542C116.054 190.014 117.091 189.83 118.09 190.027C119.089 190.224 119.978 190.788 120.582 191.607C121.186 192.426 121.462 193.442 121.354 194.454C121.247 195.466 120.764 196.401 120.001 197.075L120.02 197.079Z" fill="#6C63FF"/>
<path d="M107.438 165.384C109.05 166.947 116.555 168.569 116.555 168.569C116.555 168.569 114.702 161.121 113.105 159.555C112.732 159.137 112.277 158.801 111.769 158.567C111.26 158.332 110.709 158.205 110.149 158.194C109.59 158.182 109.033 158.285 108.515 158.498C107.997 158.71 107.529 159.027 107.139 159.428C106.748 159.829 106.445 160.307 106.248 160.83C106.05 161.354 105.963 161.912 105.991 162.471C106.019 163.03 106.162 163.577 106.411 164.078C106.66 164.579 107.01 165.024 107.438 165.384Z" fill="#6C63FF"/>
<path d="M103.188 184.183C105.193 185.194 112.823 184.494 112.823 184.494C112.823 184.494 108.854 177.935 106.849 176.943C105.899 176.548 104.834 176.528 103.869 176.886C102.904 177.243 102.11 177.952 101.646 178.871C101.183 179.789 101.084 180.849 101.37 181.837C101.656 182.825 102.305 183.669 103.188 184.198V184.183Z" fill="#6C63FF"/>
<path d="M101.557 203.02C103.362 204.353 111.018 204.957 111.018 204.957C111.018 204.957 108.202 197.82 106.393 196.483C105.969 196.108 105.472 195.826 104.933 195.654C104.394 195.482 103.825 195.424 103.262 195.483C102.699 195.543 102.155 195.719 101.664 196C101.173 196.282 100.746 196.662 100.411 197.117C100.075 197.573 99.8377 198.093 99.7141 198.645C99.5905 199.197 99.5833 199.768 99.6929 200.323C99.8024 200.878 100.026 201.404 100.35 201.868C100.675 202.331 101.092 202.722 101.575 203.016L101.557 203.02Z" fill="#6C63FF"/>
<path opacity="0.1" d="M117.444 147.381C117.444 149.625 113.368 156.132 113.368 156.132C113.368 156.132 109.291 149.625 109.291 147.381C109.25 146.822 109.324 146.261 109.51 145.732C109.695 145.203 109.988 144.718 110.37 144.308C110.751 143.897 111.213 143.57 111.727 143.346C112.241 143.122 112.796 143.006 113.357 143.006C113.917 143.006 114.472 143.122 114.986 143.346C115.5 143.57 115.962 143.897 116.344 144.308C116.725 144.718 117.018 145.203 117.204 145.732C117.389 146.261 117.464 146.822 117.422 147.381H117.444Z" fill="#6C63FF"/>
<path opacity="0.1" d="M124.156 159.81C122.937 161.695 115.984 164.947 115.984 164.947C115.984 164.947 116.11 157.277 117.33 155.392C117.6 154.902 117.968 154.474 118.412 154.133C118.855 153.792 119.364 153.546 119.907 153.41C120.449 153.274 121.014 153.251 121.566 153.342C122.118 153.434 122.645 153.638 123.114 153.942C123.584 154.246 123.986 154.643 124.295 155.109C124.604 155.574 124.815 156.099 124.912 156.649C125.01 157.2 124.993 157.765 124.863 158.308C124.733 158.852 124.492 159.363 124.156 159.81Z" fill="#6C63FF"/>
<path opacity="0.1" d="M123.864 181.057C121.859 182.069 114.228 181.369 114.228 181.369C114.228 181.369 118.212 174.81 120.217 173.798C120.697 173.51 121.232 173.324 121.788 173.251C122.344 173.179 122.909 173.222 123.448 173.378C123.986 173.533 124.487 173.798 124.918 174.156C125.35 174.514 125.703 174.956 125.955 175.457C126.208 175.957 126.354 176.504 126.385 177.063C126.417 177.623 126.332 178.182 126.138 178.708C125.943 179.233 125.641 179.712 125.253 180.116C124.864 180.52 124.396 180.839 123.878 181.054L123.864 181.057Z" fill="#6C63FF"/>
<path opacity="0.1" d="M120.02 197.079C118.215 198.412 110.558 199.016 110.558 199.016C110.558 199.016 113.375 191.879 115.184 190.542C116.054 190.014 117.091 189.83 118.09 190.027C119.089 190.224 119.978 190.788 120.582 191.607C121.186 192.426 121.462 193.442 121.354 194.454C121.247 195.466 120.764 196.401 120.001 197.075L120.02 197.079Z" fill="#6C63FF"/>
<path opacity="0.1" d="M107.438 165.384C109.05 166.947 116.555 168.569 116.555 168.569C116.555 168.569 114.702 161.121 113.105 159.555C112.732 159.137 112.277 158.801 111.769 158.567C111.26 158.332 110.709 158.205 110.149 158.194C109.59 158.182 109.033 158.285 108.515 158.498C107.997 158.71 107.529 159.027 107.139 159.428C106.748 159.829 106.445 160.307 106.248 160.83C106.05 161.354 105.963 161.912 105.991 162.471C106.019 163.03 106.162 163.577 106.411 164.078C106.66 164.579 107.01 165.024 107.438 165.384Z" fill="#6C63FF"/>
<path opacity="0.1" d="M103.188 184.183C105.193 185.194 112.823 184.494 112.823 184.494C112.823 184.494 108.854 177.935 106.849 176.943C105.899 176.548 104.834 176.528 103.869 176.886C102.904 177.243 102.11 177.952 101.646 178.871C101.183 179.789 101.084 180.849 101.37 181.837C101.656 182.825 102.305 183.669 103.188 184.198V184.183Z" fill="#6C63FF"/>
<path opacity="0.1" d="M101.557 203.02C103.362 204.353 111.018 204.957 111.018 204.957C111.018 204.957 108.202 197.82 106.393 196.483C105.969 196.108 105.472 195.826 104.933 195.654C104.394 195.482 103.825 195.424 103.262 195.483C102.699 195.543 102.155 195.719 101.664 196C101.173 196.282 100.746 196.662 100.411 197.117C100.075 197.573 99.8377 198.093 99.7141 198.645C99.5905 199.197 99.5833 199.768 99.6929 200.323C99.8024 200.878 100.026 201.404 100.35 201.868C100.675 202.331 101.092 202.722 101.575 203.016L101.557 203.02Z" fill="#6C63FF"/>
<path d="M221.862 214.612C221.862 214.612 216.466 196.298 222.874 182.82C225.599 177.184 226.421 170.816 225.216 164.673C224.621 161.761 223.76 158.909 222.644 156.155" stroke="#535461" stroke-width="2" stroke-miterlimit="10"/>
<path d="M226.632 147.64C226.632 149.884 222.556 156.392 222.556 156.392C222.556 156.392 218.479 149.884 218.479 147.64C218.555 146.614 219.016 145.655 219.77 144.956C220.524 144.256 221.515 143.867 222.545 143.867C223.574 143.867 224.565 144.256 225.319 144.956C226.073 145.655 226.534 146.614 226.61 147.64H226.632Z" fill="#6C63FF"/>
<path d="M233.355 160.069C232.135 161.954 225.183 165.206 225.183 165.206C225.183 165.206 225.309 157.536 226.528 155.651C226.798 155.161 227.167 154.733 227.61 154.392C228.053 154.051 228.562 153.805 229.105 153.669C229.647 153.533 230.212 153.51 230.764 153.601C231.316 153.693 231.843 153.897 232.313 154.201C232.782 154.505 233.184 154.902 233.494 155.368C233.803 155.834 234.013 156.358 234.111 156.909C234.208 157.459 234.192 158.024 234.062 158.568C233.931 159.111 233.691 159.622 233.355 160.069Z" fill="#6C63FF"/>
<path d="M233.073 181.317C231.068 182.328 223.437 181.628 223.437 181.628C223.437 181.628 227.421 175.069 229.426 174.058C229.907 173.767 230.444 173.578 231.001 173.504C231.559 173.43 232.126 173.473 232.666 173.628C233.207 173.784 233.709 174.05 234.142 174.409C234.574 174.768 234.928 175.213 235.18 175.715C235.433 176.217 235.578 176.767 235.608 177.328C235.638 177.889 235.551 178.45 235.353 178.977C235.155 179.503 234.85 179.982 234.458 180.385C234.065 180.788 233.594 181.105 233.073 181.317Z" fill="#6C63FF"/>
<path d="M229.215 197.338C227.41 198.672 219.754 199.275 219.754 199.275C219.754 199.275 222.57 192.139 224.379 190.802C225.249 190.273 226.286 190.089 227.285 190.286C228.284 190.483 229.173 191.047 229.777 191.866C230.382 192.686 230.657 193.701 230.55 194.713C230.442 195.725 229.959 196.66 229.197 197.335L229.215 197.338Z" fill="#6C63FF"/>
<path d="M216.64 165.643C218.253 167.206 225.757 168.828 225.757 168.828C225.757 168.828 223.904 161.38 222.307 159.814C221.934 159.396 221.479 159.06 220.971 158.826C220.462 158.591 219.911 158.464 219.351 158.453C218.792 158.441 218.235 158.544 217.718 158.757C217.2 158.969 216.731 159.286 216.341 159.687C215.951 160.088 215.647 160.566 215.45 161.089C215.253 161.613 215.165 162.171 215.193 162.73C215.221 163.289 215.364 163.836 215.613 164.337C215.862 164.838 216.212 165.283 216.64 165.643Z" fill="#6C63FF"/>
<path d="M212.382 184.443C214.387 185.454 222.018 184.754 222.018 184.754C222.018 184.754 218.034 178.195 216.029 177.183C215.078 176.789 214.014 176.769 213.048 177.126C212.083 177.484 211.289 178.193 210.826 179.111C210.362 180.03 210.264 181.09 210.55 182.078C210.836 183.066 211.485 183.909 212.367 184.439L212.382 184.443Z" fill="#6C63FF"/>
<path d="M210.755 203.279C212.56 204.612 220.217 205.216 220.217 205.216C220.217 205.216 217.4 198.079 215.592 196.742C214.722 196.214 213.685 196.03 212.686 196.227C211.686 196.424 210.797 196.988 210.193 197.807C209.589 198.626 209.313 199.642 209.421 200.654C209.528 201.666 210.011 202.601 210.774 203.275L210.755 203.279Z" fill="#6C63FF"/>
<path opacity="0.1" d="M226.632 147.64C226.632 149.884 222.556 156.392 222.556 156.392C222.556 156.392 218.479 149.884 218.479 147.64C218.555 146.614 219.016 145.655 219.77 144.956C220.524 144.256 221.515 143.867 222.545 143.867C223.574 143.867 224.565 144.256 225.319 144.956C226.073 145.655 226.534 146.614 226.61 147.64H226.632Z" fill="#6C63FF"/>
<path opacity="0.1" d="M233.355 160.069C232.135 161.954 225.183 165.206 225.183 165.206C225.183 165.206 225.309 157.536 226.528 155.651C226.798 155.161 227.167 154.733 227.61 154.392C228.053 154.051 228.562 153.805 229.105 153.669C229.647 153.533 230.212 153.51 230.764 153.601C231.316 153.693 231.843 153.897 232.313 154.201C232.782 154.505 233.184 154.902 233.494 155.368C233.803 155.834 234.013 156.358 234.111 156.909C234.208 157.459 234.192 158.024 234.062 158.568C233.931 159.111 233.691 159.622 233.355 160.069Z" fill="#6C63FF"/>
<path opacity="0.1" d="M233.073 181.317C231.068 182.328 223.437 181.628 223.437 181.628C223.437 181.628 227.421 175.069 229.426 174.058C229.907 173.767 230.444 173.578 231.001 173.504C231.559 173.43 232.126 173.473 232.666 173.628C233.207 173.784 233.709 174.05 234.142 174.409C234.574 174.768 234.928 175.213 235.18 175.715C235.433 176.217 235.578 176.767 235.608 177.328C235.638 177.889 235.551 178.45 235.353 178.977C235.155 179.503 234.85 179.982 234.458 180.385C234.065 180.788 233.594 181.105 233.073 181.317Z" fill="#6C63FF"/>
<path opacity="0.1" d="M229.215 197.338C227.41 198.672 219.754 199.275 219.754 199.275C219.754 199.275 222.57 192.139 224.379 190.802C225.249 190.273 226.286 190.089 227.285 190.286C228.284 190.483 229.173 191.047 229.777 191.866C230.382 192.686 230.657 193.701 230.55 194.713C230.442 195.725 229.959 196.66 229.197 197.335L229.215 197.338Z" fill="#6C63FF"/>
<path opacity="0.1" d="M216.64 165.643C218.253 167.206 225.757 168.828 225.757 168.828C225.757 168.828 223.904 161.38 222.307 159.814C221.934 159.396 221.479 159.06 220.971 158.826C220.462 158.591 219.911 158.464 219.351 158.453C218.792 158.441 218.235 158.544 217.718 158.757C217.2 158.969 216.731 159.286 216.341 159.687C215.951 160.088 215.647 160.566 215.45 161.089C215.253 161.613 215.165 162.171 215.193 162.73C215.221 163.289 215.364 163.836 215.613 164.337C215.862 164.838 216.212 165.283 216.64 165.643Z" fill="#6C63FF"/>
<path opacity="0.1" d="M212.382 184.443C214.387 185.454 222.018 184.754 222.018 184.754C222.018 184.754 218.034 178.195 216.029 177.183C215.078 176.789 214.014 176.769 213.048 177.126C212.083 177.484 211.289 178.193 210.826 179.111C210.362 180.03 210.264 181.09 210.55 182.078C210.836 183.066 211.485 183.909 212.367 184.439L212.382 184.443Z" fill="#6C63FF"/>
<path opacity="0.1" d="M210.755 203.279C212.56 204.612 220.217 205.216 220.217 205.216C220.217 205.216 217.4 198.079 215.592 196.742C214.722 196.214 213.685 196.03 212.686 196.227C211.686 196.424 210.797 196.988 210.193 197.807C209.589 198.626 209.313 199.642 209.421 200.654C209.528 201.666 210.011 202.601 210.774 203.275L210.755 203.279Z" fill="#6C63FF"/>
<path opacity="0.5" d="M248.268 5.67015H245.941C246.161 5.68066 246.381 5.64635 246.588 5.56929C246.795 5.49223 246.984 5.37403 247.144 5.22185C247.303 5.06967 247.431 4.88667 247.517 4.68394C247.604 4.48121 247.649 4.26296 247.649 4.04242C247.649 3.82188 247.604 3.60364 247.517 3.40091C247.431 3.19818 247.303 3.01518 247.144 2.86299C246.984 2.71081 246.795 2.59261 246.588 2.51555C246.381 2.4385 246.161 2.40418 245.941 2.41469H227.069C226.651 2.43465 226.256 2.61486 225.967 2.91793C225.678 3.221 225.517 3.62368 225.517 4.04242C225.517 4.46117 225.678 4.86384 225.967 5.16691C226.256 5.46999 226.651 5.65019 227.069 5.67015H229.397C228.978 5.69011 228.584 5.87032 228.294 6.17339C228.005 6.47646 227.844 6.87914 227.844 7.29788C227.844 7.71663 228.005 8.1193 228.294 8.42237C228.584 8.72544 228.978 8.90565 229.397 8.92561H226.139C225.919 8.9151 225.699 8.94941 225.492 9.02647C225.285 9.10353 225.096 9.22173 224.936 9.37391C224.777 9.52609 224.649 9.70909 224.563 9.91182C224.476 10.1146 224.431 10.3328 224.431 10.5533C224.431 10.7739 224.476 10.9921 224.563 11.1948C224.649 11.3976 224.777 11.5806 224.936 11.7328C225.096 11.8849 225.285 12.0031 225.492 12.0802C225.699 12.1573 225.919 12.1916 226.139 12.1811H244.996C245.216 12.1916 245.436 12.1573 245.643 12.0802C245.85 12.0031 246.039 11.8849 246.199 11.7328C246.358 11.5806 246.485 11.3976 246.572 11.1948C246.659 10.9921 246.704 10.7739 246.704 10.5533C246.704 10.3328 246.659 10.1146 246.572 9.91182C246.485 9.70909 246.358 9.52609 246.199 9.37391C246.039 9.22173 245.85 9.10353 245.643 9.02647C245.436 8.94941 245.216 8.9151 244.996 8.92561H248.268C248.687 8.90565 249.081 8.72544 249.371 8.42237C249.66 8.1193 249.821 7.71663 249.821 7.29788C249.821 6.87914 249.66 6.47646 249.371 6.17339C249.081 5.87032 248.687 5.69011 248.268 5.67015Z" fill="#DEE3F3"/>
<path opacity="0.5" d="M139.228 15.1661H137.457C137.625 15.1753 137.794 15.1501 137.952 15.092C138.111 15.0339 138.256 14.9441 138.378 14.8282C138.501 14.7122 138.598 14.5725 138.665 14.4176C138.732 14.2627 138.766 14.0959 138.766 13.9272C138.766 13.7586 138.732 13.5917 138.665 13.4368C138.598 13.2819 138.501 13.1422 138.378 13.0263C138.256 12.9103 138.111 12.8206 137.952 12.7625C137.794 12.7044 137.625 12.6792 137.457 12.6884H123.107C122.79 12.7057 122.492 12.8438 122.273 13.0742C122.055 13.3046 121.933 13.6099 121.933 13.9272C121.933 14.2446 122.055 14.5498 122.273 14.7802C122.492 15.0107 122.79 15.1487 123.107 15.1661H124.879C124.71 15.1569 124.542 15.1821 124.383 15.2402C124.225 15.2983 124.08 15.388 123.957 15.504C123.835 15.6199 123.737 15.7596 123.67 15.9145C123.604 16.0694 123.569 16.2363 123.569 16.4049C123.569 16.5736 123.604 16.7404 123.67 16.8953C123.737 17.0502 123.835 17.1899 123.957 17.3059C124.08 17.4218 124.225 17.5116 124.383 17.5697C124.542 17.6278 124.71 17.653 124.879 17.6438H122.399C122.231 17.6346 122.062 17.6598 121.904 17.7179C121.745 17.776 121.6 17.8657 121.478 17.9817C121.355 18.0976 121.258 18.2373 121.191 18.3922C121.124 18.5471 121.09 18.714 121.09 18.8826C121.09 19.0513 121.124 19.2181 121.191 19.373C121.258 19.5279 121.355 19.6676 121.478 19.7836C121.6 19.8995 121.745 19.9893 121.904 20.0474C122.062 20.1055 122.231 20.1307 122.399 20.1215H136.749C136.918 20.1307 137.086 20.1055 137.245 20.0474C137.403 19.9893 137.548 19.8995 137.67 19.7836C137.793 19.6676 137.891 19.5279 137.957 19.373C138.024 19.2181 138.058 19.0513 138.058 18.8826C138.058 18.714 138.024 18.5471 137.957 18.3922C137.891 18.2373 137.793 18.0976 137.67 17.9817C137.548 17.8657 137.403 17.776 137.245 17.7179C137.086 17.6598 136.918 17.6346 136.749 17.6438H139.228C139.545 17.6265 139.844 17.4884 140.062 17.2579C140.28 17.0275 140.402 16.7223 140.402 16.4049C140.402 16.0876 140.28 15.7823 140.062 15.5519C139.844 15.3215 139.545 15.1834 139.228 15.1661Z" fill="#DEE3F3"/>
<path d="M18.7824 190.646C18.7824 190.646 25.268 203.368 19.9831 210.327C14.6983 217.286 20.4649 236.252 20.4649 236.252" stroke="#6C63FF" stroke-miterlimit="10"/>
<path d="M20.717 186.668C20.717 189.12 18.9159 191.113 18.9159 191.113C18.9159 191.113 17.1147 189.124 17.1147 186.668C17.1147 184.213 18.9159 182.224 18.9159 182.224C18.9159 182.224 20.717 184.217 20.717 186.668Z" fill="#6C63FF"/>
<path d="M22.1439 190.646C22.1439 190.646 15.6583 203.368 20.9431 210.327C26.2279 217.286 20.4613 236.252 20.4613 236.252" stroke="#6C63FF" stroke-miterlimit="10"/>
<path d="M20.2236 186.668C20.2236 189.12 22.0248 191.113 22.0248 191.113C22.0248 191.113 23.8259 189.124 23.8259 186.668C23.8259 184.213 22.0248 182.224 22.0248 182.224C22.0248 182.224 20.2236 184.217 20.2236 186.668Z" fill="#6C63FF"/>
<path opacity="0.1" d="M20.2236 186.668C20.2236 189.12 22.0248 191.113 22.0248 191.113C22.0248 191.113 23.8259 189.124 23.8259 186.668C23.8259 184.213 22.0248 182.224 22.0248 182.224C22.0248 182.224 20.2236 184.217 20.2236 186.668Z" fill="black"/>
<path d="M24.7937 190.646C24.7937 190.646 31.2793 203.368 25.9945 210.327C20.7097 217.286 26.4763 236.252 26.4763 236.252" stroke="#6C63FF" stroke-miterlimit="10"/>
<path d="M26.7097 186.668C26.7097 189.12 24.9086 191.113 24.9086 191.113C24.9086 191.113 23.1074 189.124 23.1074 186.668C23.1074 184.213 24.9086 182.224 24.9086 182.224C24.9086 182.224 26.7097 184.217 26.7097 186.668Z" fill="#6C63FF"/>
<path d="M25.6981 196.861C23.997 198.627 21.3175 198.813 21.3175 198.813C21.3175 198.813 21.399 196.131 23.1001 194.368C24.8012 192.605 27.4807 192.417 27.4807 192.417C27.4807 192.417 27.388 195.09 25.6981 196.861Z" fill="#6C63FF"/>
<path d="M25.8678 205.638C24.1668 207.405 21.4873 207.59 21.4873 207.59C21.4873 207.59 21.5688 204.909 23.2699 203.146C24.971 201.383 27.6505 201.194 27.6505 201.194C27.6505 201.194 27.5689 203.868 25.8678 205.638Z" fill="#6C63FF"/>
<path d="M16.6402 210.464C18.2487 212.316 18.1931 214.997 18.1931 214.997C18.1931 214.997 15.5284 214.675 13.92 212.823C12.3116 210.971 12.3672 208.29 12.3672 208.29C12.3672 208.29 15.0318 208.612 16.6402 210.464Z" fill="#6C63FF"/>
<path d="M18.1227 191.757C20.1685 193.113 20.8318 195.713 20.8318 195.713C20.8318 195.713 18.1783 196.116 16.1326 194.761C14.0868 193.405 13.4235 190.805 13.4235 190.805C13.4235 190.805 16.0881 190.394 18.1227 191.757Z" fill="#6C63FF"/>
<path opacity="0.1" d="M18.1227 191.757C20.1685 193.113 20.8318 195.713 20.8318 195.713C20.8318 195.713 18.1783 196.116 16.1326 194.761C14.0868 193.405 13.4235 190.805 13.4235 190.805C13.4235 190.805 16.0881 190.394 18.1227 191.757Z" fill="black"/>
<path d="M28.1475 190.646C28.1475 190.646 21.662 203.368 26.9468 210.327C32.2316 217.286 26.465 236.252 26.465 236.252" stroke="#6C63FF" stroke-miterlimit="10"/>
<path d="M26.2279 186.668C26.2279 189.12 28.029 191.113 28.029 191.113C28.029 191.113 29.8302 189.124 29.8302 186.668C29.8302 184.213 28.029 182.224 28.029 182.224C28.029 182.224 26.2279 184.217 26.2279 186.668Z" fill="#6C63FF"/>
<path opacity="0.1" d="M26.2279 186.668C26.2279 189.12 28.029 191.113 28.029 191.113C28.029 191.113 29.8302 189.124 29.8302 186.668C29.8302 184.213 28.029 182.224 28.029 182.224C28.029 182.224 26.2279 184.217 26.2279 186.668Z" fill="black"/>
<path d="M26.7466 197.05C25.0233 198.798 24.8936 201.494 24.8936 201.494C24.8936 201.494 27.573 201.342 29.2963 199.594C31.0196 197.846 31.1494 195.15 31.1494 195.15C31.1494 195.15 28.4699 195.302 26.7466 197.05Z" fill="#6C63FF"/>
<path opacity="0.1" d="M26.7466 197.05C25.0233 198.798 24.8936 201.494 24.8936 201.494C24.8936 201.494 27.573 201.342 29.2963 199.594C31.0196 197.846 31.1494 195.15 31.1494 195.15C31.1494 195.15 28.4699 195.302 26.7466 197.05Z" fill="black"/>
<path d="M30.1226 209.201C28.3992 210.949 28.2695 213.645 28.2695 213.645C28.2695 213.645 30.949 213.493 32.6723 211.745C34.3956 209.997 34.5253 207.301 34.5253 207.301C34.5253 207.301 31.8347 207.453 30.1226 209.201Z" fill="#6C63FF"/>
<path d="M25.1638 206.531C25.1638 206.531 29.0663 200.383 34.5475 200.235" stroke="#6C63FF" stroke-miterlimit="10"/>
<path d="M22.1142 202.816C22.1142 202.816 18.2117 196.668 12.7305 196.52" stroke="#6C63FF" stroke-miterlimit="10"/>
<path d="M21.6063 211.593C21.6063 211.593 25.5088 205.446 30.99 205.297" stroke="#6C63FF" stroke-miterlimit="10"/>
<path d="M34.3584 201.212C34.9172 201.212 35.3702 200.76 35.3702 200.201C35.3702 199.643 34.9172 199.19 34.3584 199.19C33.7997 199.19 33.3467 199.643 33.3467 200.201C33.3467 200.76 33.7997 201.212 34.3584 201.212Z" fill="#6C63FF"/>
<path d="M12.8267 197.583C13.3855 197.583 13.8384 197.13 13.8384 196.572C13.8384 196.013 13.3855 195.561 12.8267 195.561C12.2679 195.561 11.8149 196.013 11.8149 196.572C11.8149 197.13 12.2679 197.583 12.8267 197.583Z" fill="#6C63FF"/>
<path d="M24.4782 213.608C24.4782 213.608 20.5757 207.46 15.0945 207.312" stroke="#6C63FF" stroke-miterlimit="10"/>
<path d="M15.1912 208.383C15.75 208.383 16.2029 207.93 16.2029 207.371C16.2029 206.813 15.75 206.36 15.1912 206.36C14.6324 206.36 14.1794 206.813 14.1794 207.371C14.1794 207.93 14.6324 208.383 15.1912 208.383Z" fill="#6C63FF"/>
<path d="M31.0641 206.36C31.6229 206.36 32.0759 205.908 32.0759 205.349C32.0759 204.791 31.6229 204.338 31.0641 204.338C30.5053 204.338 30.0524 204.791 30.0524 205.349C30.0524 205.908 30.5053 206.36 31.0641 206.36Z" fill="#6C63FF"/>
<path d="M46.0589 228.849C46.0589 228.849 36.6529 226.967 34.1403 224.46C31.6276 221.953 20.3464 217.568 19.09 220.701C17.8337 223.834 2.1571 234.489 12.8194 236.371C23.4817 238.252 37.9056 238.878 41.0409 237.622C44.1762 236.367 46.0589 228.849 46.0589 228.849Z" fill="#A8A8A8"/>
<path opacity="0.2" d="M12.8194 235.204C23.4816 237.085 37.9056 237.711 41.0409 236.456C43.4276 235.5 45.0879 230.9 45.7438 228.782L46.0589 228.849C46.0589 228.849 44.1762 236.371 41.0409 237.622C37.9056 238.874 23.4816 238.248 12.8194 236.371C9.74334 235.826 8.8613 234.552 9.19484 232.941C9.45427 233.978 10.529 234.8 12.8194 235.204Z" fill="black"/>
<path d="M331.628 193.528C331.628 193.528 334.733 197.602 330.193 203.712C325.654 209.823 321.91 215.012 323.426 218.834C323.426 218.834 330.275 207.453 335.849 207.294C341.423 207.135 337.761 200.368 331.628 193.528Z" fill="#6C63FF"/>
<path opacity="0.1" d="M331.628 193.528C331.899 193.92 332.112 194.349 332.262 194.802C337.702 201.187 340.597 207.146 335.371 207.298C330.501 207.438 324.661 216.138 323.26 218.338C323.306 218.508 323.362 218.674 323.426 218.838C323.426 218.838 330.275 207.457 335.849 207.298C341.423 207.138 337.761 200.368 331.628 193.528Z" fill="black"/>
<path d="M337.402 198.698C337.402 200.127 337.242 201.29 337.031 201.29C336.82 201.29 336.661 200.131 336.661 198.698C336.661 197.264 336.861 197.957 337.057 197.957C337.254 197.957 337.402 197.272 337.402 198.698Z" fill="#FFD037"/>
<path d="M339.384 200.405C338.128 201.09 337.035 201.516 336.942 201.327C336.849 201.138 337.787 200.457 339.043 199.775C340.3 199.094 339.803 199.59 339.9 199.775C339.996 199.961 340.637 199.72 339.384 200.405Z" fill="#FFD037"/>
<path d="M315.225 193.528C315.225 193.528 312.119 197.602 316.659 203.712C321.199 209.823 324.942 215.012 323.426 218.834C323.426 218.834 316.577 207.453 311.004 207.294C305.43 207.135 309.091 200.368 315.225 193.528Z" fill="#6C63FF"/>
<path opacity="0.1" d="M315.225 193.528C314.954 193.92 314.741 194.349 314.591 194.802C309.151 201.187 306.256 207.146 311.482 207.298C316.351 207.438 322.192 216.138 323.593 218.338C323.547 218.508 323.491 218.674 323.426 218.838C323.426 218.838 316.577 207.457 311.004 207.298C305.43 207.138 309.091 200.368 315.225 193.528Z" fill="black"/>
<path d="M309.451 198.698C309.451 200.127 309.61 201.29 309.821 201.29C310.033 201.29 310.192 200.131 310.192 198.698C310.192 197.264 309.992 197.957 309.795 197.957C309.599 197.957 309.451 197.272 309.451 198.698Z" fill="#FFD037"/>
<path d="M307.468 200.405C308.724 201.09 309.818 201.516 309.91 201.327C310.003 201.138 309.065 200.457 307.809 199.775C306.553 199.094 307.049 199.59 306.953 199.775C306.857 199.961 306.212 199.72 307.468 200.405Z" fill="#FFD037"/>
<path d="M310.44 218.301C310.44 218.301 319.124 218.034 321.74 216.171C324.357 214.308 335.082 212.097 335.745 215.06C336.409 218.023 348.794 229.915 338.992 229.993C329.189 230.071 316.214 228.467 313.602 226.878C310.989 225.29 310.44 218.301 310.44 218.301Z" fill="#A8A8A8"/>
<path opacity="0.2" d="M339.166 228.967C329.364 229.045 316.389 227.441 313.776 225.852C311.786 224.641 310.993 220.297 310.729 218.293H310.44C310.44 218.293 310.989 225.293 313.602 226.882C316.214 228.471 329.189 230.078 338.992 229.997C341.823 229.975 342.798 228.967 342.746 227.478C342.353 228.386 341.29 228.949 339.166 228.967Z" fill="black"/>
<path opacity="0.5" d="M65.9084 27.6435H63.581C63.8014 27.6541 64.0217 27.6197 64.2285 27.5427C64.4352 27.4656 64.6242 27.3474 64.7839 27.1952C64.9436 27.0431 65.0708 26.8601 65.1577 26.6573C65.2446 26.4546 65.2893 26.2364 65.2893 26.0158C65.2893 25.7953 65.2446 25.577 65.1577 25.3743C65.0708 25.1716 64.9436 24.9886 64.7839 24.8364C64.6242 24.6842 64.4352 24.566 64.2285 24.4889C64.0217 24.4119 63.8014 24.3776 63.581 24.3881H44.7246C44.3061 24.408 43.9113 24.5882 43.6221 24.8913C43.333 25.1944 43.1717 25.5971 43.1717 26.0158C43.1717 26.4346 43.333 26.8372 43.6221 27.1403C43.9113 27.4434 44.3061 27.6236 44.7246 27.6435H47.052C46.6335 27.6635 46.2387 27.8437 45.9495 28.1468C45.6604 28.4498 45.4991 28.8525 45.4991 29.2713C45.4991 29.69 45.6604 30.0927 45.9495 30.3958C46.2387 30.6988 46.6335 30.879 47.052 30.899H43.7944C43.3759 30.919 42.9811 31.0992 42.6919 31.4022C42.4028 31.7053 42.2415 32.108 42.2415 32.5267C42.2415 32.9455 42.4028 33.3481 42.6919 33.6512C42.9811 33.9543 43.3759 34.1345 43.7944 34.1545H62.6507C62.8712 34.165 63.0915 34.1307 63.2982 34.0536C63.505 33.9765 63.694 33.8583 63.8537 33.7061C64.0134 33.554 64.1406 33.371 64.2275 33.1682C64.3143 32.9655 64.3591 32.7473 64.3591 32.5267C64.3591 32.3062 64.3143 32.0879 64.2275 31.8852C64.1406 31.6825 64.0134 31.4995 63.8537 31.3473C63.694 31.1951 63.505 31.0769 63.2982 30.9999C63.0915 30.9228 62.8712 30.8885 62.6507 30.899H65.9084C66.3269 30.879 66.7217 30.6988 67.0109 30.3958C67.3 30.0927 67.4613 29.69 67.4613 29.2713C67.4613 28.8525 67.3 28.4498 67.0109 28.1468C66.7217 27.8437 66.3269 27.6635 65.9084 27.6435Z" fill="#DEE3F3"/>
</g>
<defs>
<linearGradient id="paint0_linear" x1="170.663" y1="201.386" x2="170.663" y2="48.0578" gradientUnits="userSpaceOnUse">
<stop stop-color="#808080" stop-opacity="0.25"/>
<stop offset="0.54" stop-color="#808080" stop-opacity="0.12"/>
<stop offset="1" stop-color="#808080" stop-opacity="0.1"/>
</linearGradient>
<linearGradient id="paint1_linear" x1="141.894" y1="175.303" x2="141.894" y2="175.286" gradientUnits="userSpaceOnUse">
<stop stop-color="#808080" stop-opacity="0.25"/>
<stop offset="0.54" stop-color="#808080" stop-opacity="0.12"/>
<stop offset="1" stop-color="#808080" stop-opacity="0.1"/>
</linearGradient>
<linearGradient id="paint2_linear" x1="23865.3" y1="74886.2" x2="23865.3" y2="33575.1" gradientUnits="userSpaceOnUse">
<stop stop-color="#808080" stop-opacity="0.25"/>
<stop offset="0.54" stop-color="#808080" stop-opacity="0.12"/>
<stop offset="1" stop-color="#808080" stop-opacity="0.1"/>
</linearGradient>
<linearGradient id="paint3_linear" x1="67228.4" y1="90776.6" x2="67228.4" y2="29423.3" gradientUnits="userSpaceOnUse">
<stop stop-color="#808080" stop-opacity="0.25"/>
<stop offset="0.54" stop-color="#808080" stop-opacity="0.12"/>
<stop offset="1" stop-color="#808080" stop-opacity="0.1"/>
</linearGradient>
<clipPath id="clip0">
<rect width="352" height="245" fill="white"/>
</clipPath>
</defs>
</svg>
