<svg width="261" height="235" viewBox="0 0 261 235" fill="none" xmlns="http://www.w3.org/2000/svg">
<g clip-path="url(#clip0)">
<path d="M162.164 136.559H66.5622C63.3202 136.555 60.2121 135.268 57.9197 132.978C55.6273 130.689 54.3378 127.584 54.3341 124.346V12.2126C54.3378 8.97474 55.6273 5.87054 57.9197 3.58103C60.2121 1.29151 63.3202 0.00365748 66.5622 0H155.504L174.392 15.0359V124.346C174.388 127.584 173.099 130.689 170.806 132.978C168.514 135.268 165.406 136.555 162.164 136.559Z" fill="#E6E6E6"/>
<path d="M66.5627 3.51587C64.254 3.51847 62.0406 4.43558 60.4081 6.06599C58.7757 7.6964 57.8574 9.90697 57.8548 12.2127V124.347C57.8574 126.652 58.7757 128.863 60.4081 130.493C62.0406 132.124 64.254 133.041 66.5627 133.043H162.164C164.473 133.041 166.686 132.124 168.319 130.493C169.951 128.863 170.869 126.652 170.872 124.347V16.7297L154.273 3.51587H66.5627Z" fill="white"/>
<path d="M143.569 36.1212H100.043C99.776 36.1212 99.5112 36.0686 99.2641 35.9664C99.0171 35.8641 98.7926 35.7143 98.6035 35.5255C98.4144 35.3366 98.2644 35.1125 98.1621 34.8657C98.0598 34.619 98.0071 34.3545 98.0071 34.0874C98.0071 33.8204 98.0598 33.5559 98.1621 33.3092C98.2644 33.0624 98.4144 32.8382 98.6035 32.6494C98.7926 32.4605 99.0171 32.3107 99.2641 32.2085C99.5112 32.1063 99.776 32.0537 100.043 32.0537H143.569C143.837 32.0537 144.102 32.1063 144.349 32.2085C144.596 32.3107 144.82 32.4605 145.009 32.6494C145.198 32.8382 145.348 33.0624 145.451 33.3092C145.553 33.5559 145.606 33.8204 145.606 34.0874C145.606 34.3545 145.553 34.619 145.451 34.8657C145.348 35.1125 145.198 35.3366 145.009 35.5255C144.82 35.7143 144.596 35.8641 144.349 35.9664C144.102 36.0686 143.837 36.1212 143.569 36.1212Z" fill="#CCCCCC"/>
<path d="M151.969 42.9852H100.043C99.5033 42.9852 98.9854 42.7709 98.6035 42.3895C98.2216 42.0081 98.0071 41.4908 98.0071 40.9515C98.0071 40.4121 98.2216 39.8948 98.6035 39.5134C98.9854 39.132 99.5033 38.9177 100.043 38.9177H151.969C152.509 38.9177 153.027 39.132 153.409 39.5134C153.791 39.8948 154.005 40.4121 154.005 40.9515C154.005 41.4908 153.791 42.0081 153.409 42.3895C153.027 42.7709 152.509 42.9852 151.969 42.9852Z" fill="#CCCCCC"/>
<path d="M143.569 66.8814H100.043C99.5033 66.8814 98.9854 66.6672 98.6035 66.2858C98.2216 65.9044 98.0071 65.3871 98.0071 64.8477C98.0071 64.3083 98.2216 63.791 98.6035 63.4096C98.9854 63.0282 99.5033 62.814 100.043 62.814H143.569C144.109 62.814 144.627 63.0282 145.009 63.4096C145.391 63.791 145.606 64.3083 145.606 64.8477C145.606 65.3871 145.391 65.9044 145.009 66.2858C144.627 66.6672 144.109 66.8814 143.569 66.8814Z" fill="#CCCCCC"/>
<path d="M151.969 73.7452H100.043C99.5033 73.7452 98.9854 73.5309 98.6035 73.1495C98.2216 72.7681 98.0071 72.2508 98.0071 71.7115C98.0071 71.1721 98.2216 70.6548 98.6035 70.2734C98.9854 69.892 99.5033 69.6777 100.043 69.6777H151.969C152.509 69.6777 153.027 69.892 153.409 70.2734C153.791 70.6548 154.005 71.1721 154.005 71.7115C154.005 72.2508 153.791 72.7681 153.409 73.1495C153.027 73.5309 152.509 73.7452 151.969 73.7452Z" fill="#CCCCCC"/>
<path d="M143.569 97.6414H100.043C99.5033 97.6414 98.9854 97.4272 98.6035 97.0458C98.2216 96.6644 98.0071 96.1471 98.0071 95.6077C98.0071 95.0683 98.2216 94.551 98.6035 94.1696C98.9854 93.7882 99.5033 93.574 100.043 93.574H143.569C144.109 93.574 144.627 93.7882 145.009 94.1696C145.391 94.551 145.606 95.0683 145.606 95.6077C145.606 96.1471 145.391 96.6644 145.009 97.0458C144.627 97.4272 144.109 97.6414 143.569 97.6414Z" fill="#CCCCCC"/>
<path d="M151.969 104.505H100.043C99.5033 104.505 98.9854 104.291 98.6035 103.91C98.2216 103.528 98.0071 103.011 98.0071 102.471C98.0071 101.932 98.2216 101.415 98.6035 101.033C98.9854 100.652 99.5033 100.438 100.043 100.438H151.969C152.509 100.438 153.027 100.652 153.409 101.033C153.791 101.415 154.005 101.932 154.005 102.471C154.005 103.011 153.791 103.528 153.409 103.91C153.027 104.291 152.509 104.505 151.969 104.505Z" fill="#CCCCCC"/>
<path d="M81.9182 44.7075C85.8931 44.7075 89.1154 41.4893 89.1154 37.5194C89.1154 33.5495 85.8931 30.3313 81.9182 30.3313C77.9432 30.3313 74.7209 33.5495 74.7209 37.5194C74.7209 41.4893 77.9432 44.7075 81.9182 44.7075Z" fill="#6C63FF"/>
<path d="M81.2049 40.2616C81.043 40.2618 80.8854 40.2095 80.7559 40.1125L80.7478 40.1065L79.0564 38.8142C78.8984 38.693 78.795 38.5141 78.769 38.3168C78.743 38.1196 78.7965 37.92 78.9177 37.7621C79.0389 37.6042 79.218 37.5008 79.4155 37.4747C79.613 37.4485 79.8128 37.5018 79.9711 37.6227L81.0666 38.4618L83.6555 35.0885C83.7156 35.0103 83.7904 34.9447 83.8759 34.8954C83.9613 34.8461 84.0556 34.814 84.1534 34.8011C84.2513 34.7882 84.3507 34.7947 84.446 34.8202C84.5413 34.8456 84.6307 34.8896 84.709 34.9496L84.7092 34.9497L84.6931 34.972L84.7096 34.9497C84.8676 35.071 84.971 35.2499 84.997 35.4472C85.0231 35.6444 84.9697 35.844 84.8486 36.002L81.8035 39.9679C81.733 40.0593 81.6424 40.1332 81.5388 40.184C81.4351 40.2348 81.3211 40.261 81.2056 40.2607L81.2049 40.2616Z" fill="white"/>
<path d="M82.6593 75.4675C86.6342 75.4675 89.8565 72.2493 89.8565 68.2794C89.8565 64.3095 86.6342 61.0913 82.6593 61.0913C78.6843 61.0913 75.462 64.3095 75.462 68.2794C75.462 72.2493 78.6843 75.4675 82.6593 75.4675Z" fill="#CCCCCC"/>
<path d="M81.9182 106.228C85.8931 106.228 89.1154 103.01 89.1154 99.0397C89.1154 95.0698 85.8931 91.8516 81.9182 91.8516C77.9432 91.8516 74.7209 95.0698 74.7209 99.0397C74.7209 103.01 77.9432 106.228 81.9182 106.228Z" fill="#CCCCCC"/>
<path d="M174.024 15.5198H159.228C158.148 15.5198 157.112 15.0913 156.349 14.3285C155.585 13.5657 155.156 12.5311 155.156 11.4524V0.5384C155.156 0.490617 155.169 0.443798 155.195 0.403319C155.22 0.36284 155.257 0.330336 155.3 0.309534C155.343 0.288733 155.391 0.280475 155.438 0.28571C155.486 0.290945 155.531 0.309459 155.568 0.33913L174.182 15.0663C174.224 15.0991 174.254 15.144 174.268 15.1946C174.283 15.2453 174.282 15.2993 174.264 15.3492C174.247 15.399 174.215 15.4423 174.172 15.4728C174.128 15.5034 174.077 15.5198 174.024 15.5198Z" fill="#E6E6E6"/>
<path d="M73.8677 157.569L17.305 169.476C15.6705 169.819 13.9667 169.499 12.5676 168.588C11.1685 167.678 10.1882 166.25 9.84193 164.618L0.135867 118.628C-0.206755 116.996 0.113 115.294 1.02498 113.897C1.93696 112.5 3.36669 111.521 5.0005 111.175L61.5631 99.2675C63.1977 98.9253 64.9015 99.2447 66.3006 100.156C67.6997 101.066 68.6799 102.494 69.0262 104.126L78.7323 150.115C79.0749 151.748 78.7552 153.45 77.8432 154.847C76.9312 156.244 75.5015 157.223 73.8677 157.569Z" fill="white"/>
<path d="M73.8677 157.569L17.305 169.476C15.6705 169.819 13.9667 169.499 12.5676 168.588C11.1685 167.678 10.1882 166.25 9.84193 164.618L0.135867 118.628C-0.206755 116.996 0.113 115.294 1.02498 113.897C1.93696 112.5 3.36669 111.521 5.0005 111.175L61.5631 99.2675C63.1977 98.9253 64.9015 99.2447 66.3006 100.156C67.6997 101.066 68.6799 102.494 69.0262 104.126L78.7323 150.115C79.0749 151.748 78.7552 153.45 77.8432 154.847C76.9312 156.244 75.5015 157.223 73.8677 157.569ZM5.15336 111.899C3.71176 112.204 2.45024 113.068 1.64555 114.301C0.840865 115.534 0.558721 117.035 0.861024 118.476L10.5671 164.465C10.8727 165.905 11.7376 167.165 12.9721 167.969C14.2066 168.772 15.7099 169.054 17.1522 168.752L73.7148 156.845C75.1564 156.54 76.4179 155.676 77.2226 154.443C78.0273 153.21 78.3094 151.709 78.0072 150.268L68.3011 104.279C67.9955 102.839 67.1306 101.579 65.8961 100.775C64.6616 99.9717 63.1583 99.6899 61.716 99.9918L5.15336 111.899Z" fill="#3F3D56"/>
<path d="M58.0493 114.432L29.5029 120.441C29.2531 120.499 28.9906 120.46 28.7684 120.332C28.5463 120.204 28.3811 119.997 28.3063 119.752C28.272 119.624 28.2642 119.491 28.2833 119.36C28.3024 119.229 28.348 119.103 28.4173 118.991C28.4866 118.878 28.5781 118.78 28.6864 118.704C28.7946 118.628 28.9173 118.575 29.0468 118.547L58.1053 112.43C59.2399 113.069 58.8813 114.257 58.0489 114.432L58.0493 114.432Z" fill="#CCCCCC"/>
<path d="M59.1045 119.433L30.5581 125.442C30.3082 125.5 30.0458 125.461 29.8236 125.333C29.6015 125.205 29.4363 124.998 29.3614 124.753C29.3272 124.625 29.3194 124.492 29.3385 124.361C29.3576 124.23 29.4032 124.104 29.4725 123.992C29.5418 123.879 29.6333 123.781 29.7416 123.705C29.8498 123.629 29.9725 123.576 30.102 123.548L59.1605 117.431C60.2951 118.07 59.9365 119.258 59.1041 119.433L59.1045 119.433Z" fill="#CCCCCC"/>
<path d="M24.9879 129.589L16.2758 131.423C15.9912 131.482 15.6947 131.427 15.4511 131.268C15.2076 131.11 15.037 130.861 14.9767 130.577L12.8097 120.309C12.75 120.025 12.8057 119.729 12.9644 119.485C13.1231 119.242 13.372 119.072 13.6564 119.012L22.3685 117.178C22.653 117.118 22.9495 117.174 23.1931 117.332C23.4366 117.491 23.6072 117.739 23.6675 118.023L25.8346 128.291C25.8943 128.575 25.8386 128.872 25.6799 129.115C25.5211 129.358 25.2722 129.528 24.9879 129.589V129.589Z" fill="#CCCCCC"/>
<path d="M61.1827 129.689L17.6156 138.861C17.3658 138.919 17.1033 138.88 16.8812 138.752C16.659 138.624 16.4939 138.416 16.419 138.171C16.3848 138.044 16.377 137.91 16.396 137.779C16.4151 137.649 16.4607 137.523 16.53 137.41C16.5993 137.298 16.6909 137.2 16.7991 137.124C16.9074 137.048 17.03 136.994 17.1596 136.967L61.2391 127.688C62.3737 128.326 62.0151 129.514 61.1827 129.689Z" fill="#CCCCCC"/>
<path d="M62.2381 134.692L18.671 143.863C18.4212 143.921 18.1587 143.882 17.9366 143.754C17.7145 143.626 17.5493 143.419 17.4744 143.174C17.4402 143.046 17.4324 142.913 17.4515 142.782C17.4705 142.651 17.5161 142.525 17.5854 142.413C17.6547 142.3 17.7463 142.203 17.8545 142.126C17.9628 142.05 18.0854 141.997 18.215 141.97L62.2945 132.69C63.4291 133.329 63.0705 134.517 62.2381 134.692Z" fill="#CCCCCC"/>
<path d="M63.2936 139.691L19.7265 148.862C19.4767 148.92 19.2142 148.881 18.9921 148.753C18.7699 148.625 18.6048 148.418 18.5299 148.173C18.4957 148.045 18.4879 147.912 18.5069 147.781C18.526 147.65 18.5716 147.524 18.6409 147.412C18.7102 147.299 18.8018 147.202 18.91 147.125C19.0183 147.049 19.1409 146.996 19.2705 146.969L63.35 137.689C64.4846 138.328 64.126 139.516 63.2936 139.691Z" fill="#CCCCCC"/>
<path d="M64.3488 144.693L20.7818 153.864C20.5319 153.922 20.2694 153.883 20.0473 153.755C19.8252 153.627 19.66 153.42 19.5851 153.175C19.5509 153.047 19.5431 152.914 19.5622 152.783C19.5813 152.652 19.6268 152.526 19.6962 152.414C19.7655 152.301 19.857 152.204 19.9653 152.127C20.0735 152.051 20.1961 151.998 20.3257 151.971L64.4052 142.691C65.5398 143.33 65.1812 144.518 64.3488 144.693Z" fill="#CCCCCC"/>
<path d="M65.4038 149.692L21.8368 158.864C21.587 158.922 21.3245 158.883 21.1024 158.755C20.8802 158.627 20.715 158.419 20.6402 158.174C20.606 158.047 20.5981 157.913 20.6172 157.782C20.6363 157.651 20.6819 157.526 20.7512 157.413C20.8205 157.3 20.9121 157.203 21.0203 157.127C21.1285 157.051 21.2512 156.997 21.3808 156.97L65.4602 147.691C66.5949 148.329 66.2362 149.517 65.4038 149.692Z" fill="#CCCCCC"/>
<path d="M73.0946 126.797C72.9957 126.976 72.911 127.163 72.8415 127.356L55.0057 131.776L51.903 128.57L46.4467 132.614L51.3873 138.823C51.7864 139.324 52.3377 139.683 52.9583 139.845C53.5789 140.007 54.2354 139.964 54.8293 139.721L74.1827 131.823C74.8189 132.291 75.5825 132.554 76.372 132.578C77.1615 132.601 77.9395 132.384 78.6026 131.955C79.2656 131.527 79.7823 130.907 80.0838 130.177C80.3853 129.448 80.4573 128.645 80.2904 127.874C80.1235 127.103 79.7255 126.401 79.1493 125.861C78.5732 125.321 77.8462 124.97 77.065 124.853C76.2839 124.736 75.4856 124.859 74.7763 125.206C74.0671 125.554 73.4805 126.108 73.0947 126.797L73.0946 126.797Z" fill="#A0616A"/>
<path d="M12.215 166.133C12.7711 165.962 13.2827 165.67 13.7139 165.28C14.145 164.89 14.4853 164.41 14.7106 163.874C14.9359 163.338 15.0409 162.759 15.018 162.179C14.9952 161.598 14.8452 161.029 14.5785 160.512L26.8526 126.44L18.3286 124.932L8.94388 158.898C8.10466 159.403 7.48006 160.198 7.18845 161.132C6.89685 162.066 6.95848 163.075 7.36169 163.967C7.7649 164.858 8.48167 165.572 9.37616 165.971C10.2707 166.37 11.2807 166.428 12.215 166.133Z" fill="#A0616A"/>
<path d="M25.2938 132.489L16.8777 129.263C16.6383 129.171 16.4214 129.029 16.242 128.846C16.0625 128.663 15.9247 128.443 15.8379 128.202C15.751 127.961 15.7172 127.704 15.7387 127.449C15.7602 127.194 15.8366 126.946 15.9626 126.723L20.3777 118.905C20.8549 117.684 21.7974 116.702 22.9984 116.174C24.1995 115.646 25.5611 115.615 26.7848 116.089C28.0085 116.562 28.9944 117.5 29.5264 118.698C30.0584 119.896 30.0931 121.256 29.6228 122.48L27.6754 131.212C27.6196 131.463 27.5104 131.698 27.3554 131.902C27.2004 132.106 27.0032 132.274 26.7772 132.395C26.5512 132.516 26.3017 132.587 26.0457 132.604C25.7897 132.62 25.5333 132.58 25.2938 132.489V132.489Z" fill="#6C63FF"/>
<path d="M44.2895 230.102L48.8324 230.102L50.9935 212.602L44.2888 212.602L44.2895 230.102Z" fill="#A0616A"/>
<path d="M43.1309 228.621L52.0774 228.621H52.0777C52.8265 228.621 53.5678 228.768 54.2596 229.054C54.9513 229.34 55.5798 229.76 56.1093 230.288C56.6387 230.817 57.0587 231.445 57.3452 232.136C57.6317 232.827 57.7792 233.567 57.7792 234.315V234.5L43.1312 234.5L43.1309 228.621Z" fill="#2F2E41"/>
<path d="M18.7217 230.102L23.2646 230.102L25.4256 212.602L18.7209 212.602L18.7217 230.102Z" fill="#A0616A"/>
<path d="M17.5631 228.621L26.5095 228.621H26.5099C27.2586 228.621 28 228.768 28.6918 229.054C29.3835 229.34 30.012 229.76 30.5415 230.288C31.0709 230.817 31.4908 231.445 31.7774 232.136C32.0639 232.827 32.2114 233.567 32.2113 234.315V234.5L17.5634 234.5L17.5631 228.621Z" fill="#2F2E41"/>
<path d="M23.4846 223.059H17.7357C17.51 223.059 17.2868 223.013 17.0793 222.924C16.8719 222.836 16.6847 222.706 16.529 222.543C16.3733 222.38 16.2523 222.187 16.1734 221.975C16.0946 221.764 16.0594 221.539 16.0701 221.314L18.8008 162.719L18.9729 162.714L46.734 161.991L52.1664 220.62C52.1873 220.84 52.1642 221.062 52.0985 221.273C52.0329 221.483 51.9259 221.679 51.7838 221.848C51.6417 222.017 51.4673 222.157 51.2709 222.258C51.0744 222.359 50.8598 222.42 50.6395 222.438L44.1822 222.954C43.7765 222.986 43.3731 222.869 43.0477 222.625C42.7224 222.381 42.4977 222.026 42.4158 221.628L34.1561 179.892C34.1336 179.765 34.0663 179.651 33.9664 179.569C33.8665 179.488 33.7407 179.445 33.6118 179.448H33.6095C33.4802 179.445 33.3541 179.489 33.2544 179.571C33.1546 179.653 33.0878 179.769 33.0662 179.896L25.1207 221.715C25.0454 222.093 24.8413 222.434 24.543 222.679C24.2448 222.924 23.8708 223.058 23.4846 223.059Z" fill="#2F2E41"/>
<path d="M34.015 110.459C39.0413 110.459 43.116 106.39 43.116 101.37C43.116 96.3498 39.0413 92.2803 34.015 92.2803C28.9886 92.2803 24.9139 96.3498 24.9139 101.37C24.9139 106.39 28.9886 110.459 34.015 110.459Z" fill="#A0616A"/>
<path d="M30.9633 169.585C26.6255 169.585 22.1701 168.447 18.4765 165.08C18.28 164.902 18.1282 164.68 18.0336 164.433C17.939 164.185 17.9042 163.919 17.932 163.655C18.3274 160.108 20.2451 141.791 19.1651 129.555C18.9543 127.269 19.2783 124.966 20.1114 122.827C20.9446 120.688 22.264 118.772 23.9657 117.229C25.6377 115.69 27.6448 114.561 29.8288 113.929C32.0127 113.297 34.3138 113.181 36.5504 113.59H36.5504C36.6638 113.61 36.7771 113.632 36.8905 113.653C44.1768 115.062 49.2394 121.797 48.6665 129.319C47.8306 140.296 47.0813 155.143 48.2579 163.54C48.3067 163.883 48.2466 164.233 48.0861 164.541C47.9257 164.849 47.6729 165.098 47.3631 165.255C44.6859 166.606 37.9785 169.585 30.9633 169.585Z" fill="#6C63FF"/>
<path d="M42.8393 133.143C42.6258 133.001 42.4454 132.814 42.3105 132.597C42.1756 132.379 42.0894 132.134 42.0577 131.88L40.9489 123.002C40.5969 121.739 40.7606 120.389 41.404 119.247C42.0474 118.104 43.1181 117.264 44.3813 116.909C45.6445 116.553 46.9971 116.713 48.1426 117.353C49.2881 117.992 50.133 119.059 50.492 120.32L54.1442 128.521C54.2484 128.755 54.3009 129.009 54.2981 129.265C54.2953 129.521 54.2372 129.774 54.1278 130.005C54.0185 130.237 53.8604 130.442 53.6644 130.608C53.4683 130.773 53.2389 130.894 52.9918 130.963L44.3072 133.376C44.0601 133.445 43.801 133.46 43.5477 133.419C43.2944 133.379 43.0528 133.285 42.8393 133.143Z" fill="#6C63FF"/>
<path d="M30.8381 110.331C29.9767 110.347 29.1206 110.192 28.3194 109.876C27.9669 109.74 27.6009 109.629 27.249 109.493C24.1414 108.294 22.0942 104.988 22.0209 101.662C21.9476 98.3353 23.6725 95.1066 26.2337 92.9788C28.795 90.8511 32.1125 89.7587 35.4344 89.506C39.0126 89.2339 43.0419 90.1402 45.0413 93.1164C45.5736 93.9086 45.9458 94.8698 45.6304 95.8263C45.5359 96.1149 45.3672 96.3737 45.1412 96.5768C44.2482 97.3702 43.358 96.7736 42.4477 96.7209C41.1966 96.6485 40.0728 97.6599 39.6689 98.8448C39.265 100.03 39.4428 101.334 39.7689 102.543C40.0174 103.27 40.174 104.025 40.2352 104.791C40.2615 105.175 40.1892 105.56 40.025 105.908C39.8609 106.257 39.6104 106.557 39.2973 106.782C38.5155 107.254 37.4888 106.981 36.7065 106.509C35.9242 106.038 35.2482 105.383 34.4032 105.036C33.5582 104.689 32.423 104.766 31.9311 105.535C31.7748 105.815 31.669 106.12 31.6186 106.436C31.1777 108.443 31.279 108.325 30.8381 110.331V110.331Z" fill="#2F2E41"/>
<path d="M71.022 235H0.617923C0.519648 235 0.425397 234.961 0.355906 234.892C0.286415 234.822 0.247375 234.728 0.247375 234.63C0.247375 234.532 0.286415 234.438 0.355906 234.368C0.425397 234.299 0.519648 234.26 0.617923 234.26H71.022C71.1203 234.26 71.2146 234.299 71.2841 234.368C71.3535 234.438 71.3926 234.532 71.3926 234.63C71.3926 234.728 71.3535 234.822 71.2841 234.892C71.2146 234.961 71.1203 235 71.022 235Z" fill="#CCCCCC"/>
<path d="M251.236 158.627L200.82 186.87C199.363 187.685 197.641 187.888 196.034 187.437C194.426 186.985 193.063 185.915 192.244 184.461L169.222 143.469C168.407 142.014 168.203 140.294 168.655 138.689C169.107 137.083 170.179 135.722 171.635 134.904L222.05 106.661C223.508 105.846 225.229 105.643 226.837 106.094C228.445 106.546 229.808 107.616 230.626 109.07L253.648 150.062C254.464 151.518 254.668 153.237 254.216 154.842C253.763 156.448 252.692 157.809 251.236 158.627Z" fill="white"/>
<path d="M251.236 158.627L200.82 186.87C199.363 187.685 197.641 187.888 196.034 187.437C194.426 186.985 193.063 185.915 192.244 184.461L169.222 143.469C168.407 142.014 168.203 140.294 168.655 138.689C169.107 137.083 170.179 135.722 171.635 134.904L222.05 106.661C223.508 105.846 225.229 105.643 226.837 106.094C228.445 106.546 229.808 107.616 230.626 109.07L253.648 150.062C254.464 151.518 254.668 153.237 254.216 154.842C253.763 156.448 252.692 157.809 251.236 158.627ZM171.997 135.55C170.713 136.271 169.767 137.472 169.368 138.889C168.969 140.306 169.149 141.823 169.869 143.107L192.891 184.099C193.613 185.382 194.816 186.326 196.234 186.724C197.653 187.123 199.172 186.943 200.458 186.225L250.874 157.981C252.158 157.26 253.103 156.059 253.502 154.642C253.901 153.225 253.722 151.708 253.002 150.424L229.98 109.432C229.257 108.149 228.055 107.205 226.637 106.807C225.218 106.408 223.699 106.588 222.413 107.306L171.997 135.55Z" fill="#3F3D56"/>
<path d="M223.234 122.181L197.79 136.435C197.569 136.565 197.306 136.606 197.056 136.55C196.806 136.494 196.586 136.345 196.441 136.134C196.37 136.022 196.323 135.897 196.302 135.767C196.281 135.636 196.287 135.503 196.32 135.374C196.352 135.246 196.41 135.126 196.491 135.021C196.571 134.916 196.672 134.828 196.788 134.764L222.688 120.254C223.962 120.525 223.975 121.765 223.234 122.181L223.234 122.181Z" fill="#CCCCCC"/>
<path d="M225.737 126.638L200.292 140.892C200.071 141.022 199.809 141.063 199.559 141.007C199.309 140.952 199.089 140.803 198.944 140.592C198.873 140.48 198.826 140.355 198.805 140.224C198.784 140.094 198.79 139.96 198.822 139.832C198.855 139.704 198.913 139.583 198.994 139.478C199.074 139.373 199.175 139.286 199.291 139.221L225.191 124.711C226.465 124.982 226.478 126.223 225.736 126.638L225.737 126.638Z" fill="#CCCCCC"/>
<path d="M196.218 146.512L188.453 150.862C188.199 151.004 187.899 151.039 187.619 150.96C187.339 150.882 187.102 150.696 186.96 150.442L181.82 141.29C181.678 141.037 181.642 140.738 181.721 140.458C181.8 140.179 181.986 139.942 182.24 139.799L190.005 135.449C190.259 135.308 190.558 135.272 190.838 135.351C191.118 135.429 191.355 135.616 191.498 135.869L196.638 145.021C196.78 145.274 196.815 145.573 196.737 145.853C196.658 146.132 196.471 146.369 196.218 146.512L196.218 146.512Z" fill="#CCCCCC"/>
<path d="M230.789 135.806L191.956 157.561C191.735 157.691 191.473 157.732 191.223 157.676C190.972 157.62 190.753 157.471 190.608 157.26C190.537 157.148 190.49 157.023 190.469 156.893C190.448 156.762 190.454 156.629 190.486 156.5C190.518 156.372 190.577 156.252 190.657 156.147C190.738 156.042 190.839 155.954 190.954 155.89L230.244 133.879C231.517 134.15 231.531 135.391 230.789 135.806Z" fill="#CCCCCC"/>
<path d="M233.293 140.265L194.46 162.019C194.239 162.149 193.977 162.19 193.727 162.135C193.477 162.079 193.257 161.93 193.112 161.719C193.041 161.607 192.994 161.482 192.973 161.351C192.952 161.221 192.958 161.087 192.99 160.959C193.023 160.831 193.081 160.711 193.162 160.606C193.242 160.501 193.343 160.413 193.459 160.348L232.748 138.338C234.022 138.609 234.035 139.85 233.293 140.265V140.265Z" fill="#CCCCCC"/>
<path d="M235.795 144.721L196.963 166.475C196.742 166.605 196.479 166.646 196.229 166.59C195.979 166.535 195.759 166.386 195.614 166.174C195.544 166.063 195.496 165.938 195.475 165.807C195.454 165.677 195.46 165.543 195.493 165.415C195.525 165.287 195.583 165.166 195.664 165.061C195.744 164.956 195.845 164.869 195.961 164.804L235.25 142.794C236.524 143.065 236.537 144.305 235.795 144.721Z" fill="#CCCCCC"/>
<path d="M238.3 149.179L199.467 170.934C199.246 171.063 198.984 171.105 198.734 171.049C198.483 170.993 198.264 170.844 198.119 170.633C198.048 170.521 198.001 170.396 197.98 170.266C197.959 170.135 197.965 170.001 197.997 169.873C198.029 169.745 198.088 169.625 198.168 169.52C198.249 169.415 198.35 169.327 198.465 169.262L237.755 147.252C239.028 147.523 239.042 148.764 238.3 149.179H238.3Z" fill="#CCCCCC"/>
<path d="M240.802 153.636L201.969 175.39C201.748 175.52 201.486 175.561 201.236 175.505C200.985 175.449 200.766 175.3 200.621 175.089C200.55 174.977 200.503 174.852 200.482 174.722C200.461 174.591 200.467 174.458 200.499 174.329C200.532 174.201 200.59 174.081 200.67 173.976C200.751 173.871 200.852 173.783 200.967 173.719L240.257 151.708C241.531 151.979 241.544 153.22 240.802 153.635V153.636Z" fill="#CCCCCC"/>
<path d="M234.028 170.335C234.239 169.869 234.346 169.362 234.34 168.851C234.334 168.339 234.216 167.835 233.994 167.374C233.772 166.913 233.452 166.507 233.056 166.183C232.659 165.859 232.197 165.626 231.7 165.499L230.644 153.111L225.566 157.113L227.347 168.263C227.19 169.11 227.35 169.985 227.796 170.722C228.242 171.459 228.943 172.007 229.766 172.263C230.59 172.518 231.478 172.463 232.264 172.107C233.049 171.752 233.677 171.121 234.028 170.335Z" fill="#FFB8B8"/>
<path d="M230.74 164.202L226.522 164.704C226.308 164.73 226.09 164.711 225.884 164.649C225.677 164.586 225.486 164.482 225.321 164.343C225.157 164.203 225.023 164.031 224.928 163.837C224.833 163.644 224.78 163.433 224.77 163.217L224.155 149.005L216.16 127.191C215.839 126.514 215.693 125.768 215.735 125.02C215.776 124.273 216.004 123.547 216.397 122.91C216.593 122.602 216.818 122.313 217.067 122.046C217.559 121.517 218.172 121.115 218.854 120.873C219.535 120.631 220.265 120.558 220.981 120.659C221.719 120.757 222.422 121.029 223.034 121.453C223.645 121.877 224.146 122.441 224.495 123.097L229.709 134.01C231.89 138.574 232.92 143.602 232.709 148.655L232.121 162.713C232.105 163.081 231.96 163.432 231.712 163.704C231.463 163.975 231.126 164.151 230.761 164.199L230.74 164.202Z" fill="#6C63FF"/>
<path d="M245.72 225.624L241.809 227.338L233.328 213.089L239.099 210.559L245.72 225.624Z" fill="#FFB8B8"/>
<path d="M248.382 228.972L235.772 234.5L235.702 234.341C235.419 233.697 235.266 233.004 235.251 232.301C235.236 231.599 235.36 230.9 235.616 230.245C235.872 229.59 236.254 228.991 236.741 228.484C237.228 227.977 237.811 227.57 238.455 227.288L238.456 227.287L246.157 223.911L248.382 228.972Z" fill="#2F2E41"/>
<path d="M193.218 230.365H188.947L186.915 213.913L193.218 213.913L193.218 230.365Z" fill="#FFB8B8"/>
<path d="M194.307 234.5L180.536 234.5V234.326C180.536 233.623 180.674 232.927 180.944 232.277C181.213 231.628 181.608 231.038 182.105 230.541C182.603 230.043 183.194 229.649 183.844 229.38C184.495 229.111 185.192 228.973 185.896 228.973H185.896L194.307 228.973L194.307 234.5Z" fill="#2F2E41"/>
<path d="M234.798 224.741L211.007 171.715C210.964 171.616 210.891 171.532 210.798 171.476C210.706 171.42 210.598 171.394 210.49 171.401C210.382 171.409 210.279 171.45 210.195 171.519C210.111 171.587 210.051 171.68 210.023 171.785L195.527 223.001C195.431 223.36 195.21 223.673 194.904 223.883C194.598 224.093 194.227 224.188 193.858 224.149L185.941 223.358C185.533 223.315 185.158 223.116 184.895 222.801C184.632 222.486 184.503 222.082 184.533 221.674C187.052 190.393 191.021 160.871 202.913 141.544L202.976 141.441L220.964 144.964L244.979 221.339C245.097 221.732 245.057 222.156 244.867 222.52C244.676 222.884 244.35 223.16 243.959 223.287L236.718 225.612C236.347 225.732 235.944 225.709 235.589 225.548C235.234 225.387 234.952 225.099 234.798 224.741Z" fill="#2F2E41"/>
<path d="M211.671 114.382C216.396 114.382 220.227 110.556 220.227 105.836C220.227 101.117 216.396 97.291 211.671 97.291C206.945 97.291 203.115 101.117 203.115 105.836C203.115 110.556 206.945 114.382 211.671 114.382Z" fill="#FFB8B8"/>
<path d="M201.808 143.024L201.699 143.001L201.673 142.893C200.52 138.032 200.493 132.727 201.591 127.126C202.149 124.263 203.699 121.689 205.971 119.856C208.242 118.023 211.088 117.049 214.007 117.106C217.175 117.17 220.199 118.441 222.459 120.658C224.72 122.876 226.047 125.872 226.168 129.034C226.535 138.668 222.593 147.02 222.553 147.103L222.494 147.226L201.808 143.024Z" fill="#6C63FF"/>
<path d="M178.871 159.281C179.378 159.206 179.862 159.021 180.289 158.739C180.717 158.458 181.077 158.086 181.345 157.65C181.612 157.214 181.781 156.724 181.839 156.216C181.897 155.708 181.843 155.193 181.68 154.708L191.536 147.112L185.417 145.015L176.996 152.55C176.199 152.877 175.549 153.485 175.17 154.259C174.791 155.032 174.709 155.918 174.94 156.747C175.171 157.577 175.699 158.293 176.424 158.76C177.148 159.227 178.019 159.412 178.871 159.281V159.281Z" fill="#FFB8B8"/>
<path d="M184.254 153.552C183.933 153.742 183.555 153.81 183.188 153.746C182.821 153.681 182.489 153.487 182.253 153.2L179.545 149.93C179.408 149.764 179.306 149.572 179.247 149.364C179.187 149.157 179.171 148.94 179.199 148.726C179.228 148.513 179.3 148.307 179.412 148.123C179.524 147.938 179.672 147.779 179.848 147.654L191.477 139.441L205.508 120.913C205.904 120.277 206.453 119.751 207.105 119.381C207.757 119.01 208.491 118.809 209.24 118.794C209.606 118.792 209.97 118.824 210.33 118.889C211.042 119.015 211.712 119.312 212.285 119.753C212.857 120.194 213.315 120.767 213.618 121.423C213.935 122.096 214.086 122.834 214.06 123.577C214.034 124.319 213.831 125.045 213.468 125.694L203.079 142.498L203.056 142.535L184.254 153.552Z" fill="#6C63FF"/>
<path d="M213.201 105.306C212.57 104.27 211.179 103.977 209.971 104.095C208.762 104.214 207.587 104.638 206.373 104.628C203.003 104.602 200.401 100.499 201.818 97.4445C202.98 94.9394 205.883 93.8393 208.509 92.976C214.014 91.1658 220.339 89.4265 225.335 92.3616C226.927 93.3246 228.233 94.6946 229.117 96.3302C230.002 97.9658 230.433 99.8076 230.367 101.665C230.254 103.975 229.369 106.348 230.118 108.536C230.982 111.061 233.722 112.415 236.312 113.07C240.851 114.219 245.637 114.034 250.205 115.064C254.773 116.094 259.454 118.83 260.685 123.342C261.494 126.306 260.65 129.497 259.252 132.233C257.826 135.025 255.845 137.497 253.429 139.497C251.013 141.498 248.214 142.985 245.202 143.867C242.191 144.749 239.031 145.008 235.916 144.628C232.801 144.247 229.797 143.236 227.087 141.656C221.565 138.435 217.578 132.993 215.201 127.064C213.853 123.605 212.905 120.005 212.373 116.331C211.841 112.893 212.292 109.419 213.257 106.075C213.302 105.95 213.321 105.817 213.311 105.685C213.302 105.552 213.264 105.423 213.201 105.306Z" fill="#2F2E41"/>
<path d="M244.068 235H173.664C173.565 235 173.471 234.961 173.402 234.892C173.332 234.822 173.293 234.728 173.293 234.63C173.293 234.532 173.332 234.438 173.402 234.368C173.471 234.299 173.565 234.26 173.664 234.26H244.068C244.166 234.26 244.26 234.299 244.33 234.368C244.399 234.438 244.438 234.532 244.438 234.63C244.438 234.728 244.399 234.822 244.33 234.892C244.26 234.961 244.166 235 244.068 235Z" fill="#CCCCCC"/>
</g>
<defs>
<clipPath id="clip0">
<rect width="261" height="235" fill="white"/>
</clipPath>
</defs>
</svg>
