<svg width="284" height="185" viewBox="0 0 284 185" fill="none" xmlns="http://www.w3.org/2000/svg">
<path d="M224.896 184.167H219.446C218.81 184.167 218.2 183.913 217.75 183.462C217.3 183.011 217.047 182.4 217.046 181.762V136.247C217.047 135.609 217.3 134.998 217.75 134.547C218.2 134.096 218.81 133.843 219.446 133.842H224.896C225.533 133.843 226.143 134.096 226.593 134.547C227.042 134.998 227.296 135.609 227.296 136.247V181.762C227.296 182.4 227.042 183.011 226.593 183.462C226.143 183.913 225.533 184.167 224.896 184.167Z" fill="#6C63FF"/>
<path d="M210.056 184.167H204.606C203.97 184.167 203.359 183.913 202.91 183.462C202.46 183.011 202.207 182.4 202.206 181.762V136.247C202.207 135.609 202.46 134.998 202.91 134.547C203.359 134.096 203.97 133.843 204.606 133.842H210.056C210.692 133.843 211.302 134.096 211.752 134.547C212.202 134.998 212.455 135.609 212.456 136.247V181.762C212.455 182.4 212.202 183.011 211.752 183.462C211.302 183.913 210.692 184.167 210.056 184.167Z" fill="#6C63FF"/>
<path d="M212.36 173.345H201.652C201.212 173.345 200.789 173.169 200.478 172.857C200.166 172.545 199.991 172.121 199.991 171.68V134.31C199.991 133.869 200.166 133.445 200.478 133.133C200.789 132.821 201.212 132.646 201.652 132.645H212.36C212.801 132.646 213.223 132.821 213.535 133.133C213.846 133.445 214.021 133.869 214.022 134.31V171.68C214.021 172.121 213.846 172.545 213.535 172.857C213.223 173.169 212.801 173.345 212.36 173.345Z" fill="#2F2E41"/>
<path d="M227.499 173.345H216.791C216.351 173.345 215.928 173.169 215.617 172.857C215.305 172.545 215.13 172.121 215.13 171.68V134.31C215.13 133.869 215.305 133.445 215.617 133.133C215.928 132.821 216.351 132.646 216.791 132.645H227.499C227.94 132.646 228.362 132.821 228.673 133.133C228.985 133.445 229.16 133.869 229.161 134.31V171.68C229.16 172.121 228.985 172.545 228.673 172.857C228.362 173.169 227.94 173.345 227.499 173.345Z" fill="#2F2E41"/>
<path d="M209.231 108.591C209.078 108.696 208.92 108.793 208.758 108.882L171.237 129.301C170.96 129.451 170.656 129.546 170.343 129.579C170.029 129.612 169.712 129.583 169.41 129.493C169.108 129.404 168.826 129.255 168.581 129.056C168.336 128.858 168.133 128.612 167.983 128.335L165.382 123.536L165.544 123.448L165.382 123.536C165.079 122.975 165.01 122.317 165.191 121.706C165.371 121.094 165.787 120.58 166.345 120.275L203.866 99.8561C205.018 99.2293 206.367 99.0688 207.633 99.4077C208.9 99.7466 209.989 100.559 210.676 101.678C211.363 102.797 211.597 104.137 211.328 105.423C211.059 106.709 210.308 107.843 209.231 108.591Z" fill="#6C63FF"/>
<path d="M215.142 86.342C225.542 86.342 233.973 77.8937 233.973 67.472C233.973 57.0504 225.542 48.6021 215.142 48.6021C204.742 48.6021 196.311 57.0504 196.311 67.472C196.311 77.8937 204.742 86.342 215.142 86.342Z" fill="#6C63FF"/>
<path d="M217.343 75.3933C216.123 75.3594 214.603 75.3169 213.433 74.4602C213.085 74.1946 212.798 73.8559 212.594 73.4678C212.39 73.0796 212.273 72.6515 212.251 72.2133C212.23 71.9018 212.281 71.5897 212.4 71.3013C212.52 71.013 212.704 70.7561 212.938 70.5508C213.55 70.0332 214.442 69.9118 215.404 70.1951L214.408 62.8966L215.139 62.7961L216.311 71.3764L215.7 71.0955C214.992 70.7699 214.019 70.6043 213.415 71.1159C213.267 71.2497 213.151 71.4159 213.077 71.6017C213.004 71.7875 212.973 71.9879 212.989 72.1873C213.007 72.5134 213.095 72.8318 213.247 73.1209C213.399 73.41 213.611 73.6629 213.869 73.8625C214.779 74.5292 215.99 74.6152 217.364 74.6537L217.343 75.3933Z" fill="#2F2E41"/>
<path d="M210.789 63.5259H206.812V64.2659H210.789V63.5259Z" fill="#2F2E41"/>
<path d="M223.344 63.5259H219.366V64.2659H223.344V63.5259Z" fill="#2F2E41"/>
<path d="M216.459 48.5462C216.598 46.3156 217.213 44.1409 218.263 42.1692C219.313 40.1976 220.774 38.4752 222.547 37.1185C224.378 35.7597 226.491 34.8318 228.73 34.4041C230.968 33.9763 233.274 34.0596 235.475 34.6477C237.663 35.2173 239.693 36.2772 241.413 37.7474C243.132 39.2176 244.496 41.0597 245.402 43.1349C246.313 45.1947 246.768 47.4282 246.735 49.6811C246.634 52.1312 246.027 54.5336 244.951 56.736C243.84 59.1603 242.44 61.4347 241.224 63.8046C240.026 66.1415 238.992 68.5594 238.131 71.0406C236.377 76.0964 235.343 81.3743 235.058 86.719C234.606 95.1441 235.41 107.444 244.902 110.678C247.315 111.5 249.919 111.653 252.45 111.646C255.115 111.679 257.773 111.367 260.359 110.718C264.84 109.519 269.094 106.703 271.003 102.329C271.443 101.319 271.738 100.252 271.879 99.1587C271.919 98.8591 271.596 98.6066 271.325 98.6037C271.179 98.6072 271.04 98.6668 270.937 98.7701C270.834 98.8735 270.775 99.0126 270.771 99.1587C270.153 103.82 266.277 107.395 262.069 109.002C259.61 109.895 257.026 110.395 254.412 110.486C251.81 110.617 249.109 110.597 246.561 109.997C244.294 109.505 242.23 108.33 240.649 106.629C239.238 105.002 238.187 103.096 237.562 101.034C236.064 96.4512 235.907 91.4129 236.17 86.6368C236.468 81.3097 237.524 76.0526 239.308 71.0252C240.208 68.4869 241.295 66.0188 242.558 63.6408C243.793 61.3149 245.163 59.0547 246.203 56.6303C247.218 54.402 247.776 51.9921 247.844 49.5436C247.852 47.2822 247.403 45.0427 246.524 42.9601C245.659 40.8692 244.363 38.9852 242.721 37.4318C241.078 35.8783 239.126 34.6906 236.993 33.9466C234.823 33.1896 232.519 32.8957 230.229 33.0837C227.939 33.2717 225.713 33.9374 223.695 35.0381C221.775 36.1441 220.093 37.6203 218.746 39.3816C217.399 41.1428 216.413 43.1542 215.847 45.2993C215.571 46.3618 215.405 47.4498 215.351 48.5462C215.315 49.2601 216.423 49.2581 216.459 48.5462V48.5462Z" fill="#2F2E41"/>
<path d="M220.142 48.9358C220.444 46.8771 221.473 44.9953 223.043 43.6327C224.711 42.2315 226.849 41.5203 229.023 41.6437C229.735 41.6794 229.733 40.5694 229.023 40.5337C226.661 40.427 224.342 41.194 222.507 42.6888C220.673 44.1835 219.451 46.3019 219.073 48.6407C218.967 49.3396 220.034 49.6408 220.142 48.9358H220.142Z" fill="#2F2E41"/>
<path d="M220.539 50.3971C220.323 50.397 220.109 50.3623 219.904 50.2943L214.644 48.5541C214.391 48.4703 214.157 48.3374 213.955 48.1629C213.753 47.9883 213.587 47.7757 213.467 47.537C213.348 47.2983 213.276 47.0383 213.256 46.7718C213.236 46.5053 213.269 46.2375 213.353 45.9838C213.437 45.73 213.569 45.4953 213.743 45.2929C213.918 45.0905 214.13 44.9245 214.368 44.8043C214.606 44.6841 214.866 44.6121 215.132 44.5924C215.398 44.5728 215.665 44.6058 215.918 44.6895L221.177 46.4297C221.636 46.5814 222.025 46.8918 222.276 47.3053C222.527 47.7188 222.622 48.2083 222.545 48.686C222.469 49.1636 222.224 49.5982 221.857 49.9118C221.489 50.2254 221.022 50.3974 220.539 50.3971Z" fill="#2F2E41"/>
<path d="M221.373 93.6099H220.466C220.476 93.5487 220.481 93.4869 220.483 93.4249C220.483 91.8923 218.169 90.6499 215.314 90.6499C212.459 90.6499 210.145 91.8923 210.145 93.4249C210.147 93.4869 210.152 93.5487 210.162 93.6099H209.255C202.201 93.6099 196.483 100.173 196.483 108.27V138.75C196.483 139.142 196.639 139.519 196.915 139.796C197.192 140.074 197.568 140.23 197.96 140.23H232.668C233.06 140.23 233.436 140.074 233.713 139.796C233.99 139.519 234.145 139.142 234.145 138.75V108.27C234.145 100.173 228.427 93.6099 221.373 93.6099Z" fill="#2F2E41"/>
<path d="M65.9977 67.0122C64.9467 67.014 63.9237 66.6733 63.0828 66.0415L63.0306 66.0023L52.0514 57.5862C51.0281 56.796 50.3594 55.6313 50.1918 54.3477C50.0242 53.0641 50.3716 51.7663 51.1576 50.7389C51.9436 49.7115 53.1041 49.0385 54.3847 48.8673C55.6652 48.6962 56.9612 49.0409 57.9885 49.8259L65.0999 55.2906L81.9047 33.3217C82.2944 32.8123 82.7804 32.3849 83.3349 32.0638C83.8894 31.7426 84.5017 31.5341 85.1366 31.45C85.7716 31.366 86.4168 31.4081 87.0355 31.574C87.6542 31.7398 88.2343 32.0261 88.7426 32.4166L88.744 32.4177L88.6397 32.5628L88.7468 32.4177C89.7723 33.2074 90.4432 34.3725 90.6123 35.6574C90.7814 36.9422 90.435 38.2418 89.649 39.271L69.8828 65.0997C69.4255 65.6949 68.8376 66.1764 68.1646 66.5071C67.4916 66.8378 66.7516 67.0086 66.002 67.0064L65.9977 67.0122Z" fill="#6C63FF"/>
<path d="M127.62 98.42H0.369239C0.27131 98.42 0.177393 98.381 0.108147 98.3116C0.0389015 98.2422 0 98.1481 0 98.05V0.37C0 0.27187 0.0389015 0.177759 0.108147 0.10837C0.177393 0.0389818 0.27131 0 0.369239 0H63.9947C64.0926 0 64.1865 0.0389818 64.2558 0.10837C64.325 0.177759 64.3639 0.27187 64.3639 0.37C64.3639 0.46813 64.325 0.562241 64.2558 0.63163C64.1865 0.701018 64.0926 0.74 63.9947 0.74H0.738477V97.68H127.251V49.21C127.251 49.1119 127.29 49.0178 127.359 48.9484C127.428 48.879 127.522 48.84 127.62 48.84C127.718 48.84 127.812 48.879 127.881 48.9484C127.95 49.0178 127.989 49.1119 127.989 49.21V98.05C127.989 98.1481 127.95 98.2422 127.881 98.3116C127.812 98.381 127.718 98.42 127.62 98.42Z" fill="#3F3D56"/>
<path d="M180.398 127.043C180.252 127.043 180.107 127.023 179.965 126.985C179.754 126.929 179.557 126.832 179.383 126.699C179.21 126.565 179.065 126.399 178.957 126.209L173.049 115.956C172.94 115.766 172.869 115.557 172.84 115.34C172.812 115.124 172.826 114.903 172.883 114.692C172.939 114.481 173.037 114.283 173.169 114.11C173.302 113.936 173.468 113.791 173.657 113.681L199.239 98.8812C200.977 97.8754 203.043 97.6028 204.982 98.1235C206.921 98.6441 208.575 99.9153 209.578 101.657C210.582 103.4 210.854 105.47 210.335 107.413C209.815 109.356 208.546 111.013 206.808 112.019L181.226 126.819C180.975 126.965 180.689 127.042 180.398 127.043Z" fill="#2F2E41"/>
<path d="M283.631 185H142.951C142.853 185 142.759 184.961 142.69 184.892C142.62 184.822 142.581 184.728 142.581 184.63C142.581 184.532 142.62 184.438 142.69 184.368C142.759 184.299 142.853 184.26 142.951 184.26H283.631C283.729 184.26 283.822 184.299 283.892 184.368C283.961 184.438 284 184.532 284 184.63C284 184.728 283.961 184.822 283.892 184.892C283.822 184.961 283.729 185 283.631 185Z" fill="#3F3D56"/>
<path d="M231.979 148.888C231.773 149.304 231.452 149.651 231.055 149.889C230.657 150.127 230.199 150.244 229.737 150.228L224.291 150.027C223.655 150.003 223.054 149.727 222.621 149.26C222.188 148.793 221.958 148.172 221.98 147.535L223.549 104.779C223.574 104.105 223.731 103.443 224.011 102.83C224.291 102.217 224.689 101.665 225.182 101.206C225.675 100.747 226.254 100.389 226.884 100.154C227.515 99.9194 228.186 99.8112 228.859 99.836C229.531 99.8608 230.192 100.018 230.804 100.299C231.416 100.58 231.967 100.978 232.425 101.473C232.883 101.967 233.239 102.546 233.474 103.178C233.708 103.811 233.816 104.483 233.792 105.157L232.223 147.913C232.211 148.251 232.128 148.584 231.979 148.888Z" fill="#6C63FF"/>
<path d="M233.776 135.235H221.96C221.52 135.235 221.098 135.059 220.786 134.747C220.475 134.435 220.299 134.011 220.299 133.57V103.97C220.299 101.958 221.096 100.029 222.516 98.6066C223.935 97.1841 225.861 96.385 227.868 96.385C229.876 96.385 231.801 97.1841 233.221 98.6066C234.64 100.029 235.438 101.958 235.438 103.97V133.57C235.437 134.011 235.262 134.435 234.95 134.747C234.639 135.059 234.217 135.235 233.776 135.235Z" fill="#2F2E41"/>
</svg>
