<svg width="237" height="225" viewBox="0 0 237 225" fill="none" xmlns="http://www.w3.org/2000/svg">
<g clip-path="url(#clip0)">
<path d="M85.6442 42.898C85.6494 49.813 83.9837 56.6265 80.7894 62.7566C77.5951 68.8866 72.9671 74.151 67.3007 78.1002C65.7046 79.2191 64.0332 80.2262 62.2985 81.1141C61.7227 81.41 61.143 81.691 60.5525 81.9573C60.0208 82.2014 59.4856 82.4307 58.9429 82.6488C52.212 85.379 44.9004 86.3561 37.6905 85.489C36.4427 85.3411 35.211 85.1377 33.9951 84.8788C33.9435 84.8677 33.888 84.8566 33.8365 84.8455C31.2903 84.3061 28.7999 83.5298 26.3978 82.5268C19.2364 79.5488 13.0164 74.679 8.40147 68.437C3.78656 62.195 0.949874 54.815 0.19407 47.0844C-0.561733 39.3539 0.791707 31.5628 4.10999 24.5424C7.42826 17.5221 12.5869 11.5359 19.0354 7.22258C25.484 2.90927 32.9805 0.430662 40.7251 0.0512268C48.4697 -0.328209 56.1719 1.40576 63.0098 5.06812C69.8478 8.73049 75.5649 14.1838 79.5511 20.8463C83.5374 27.5088 85.6433 35.1304 85.6442 42.898Z" fill="#F1F1F1"/>
<path d="M50.7073 34.8916C50.6704 34.8473 50.6298 34.8066 50.5892 34.7659C48.3012 32.4516 45.1943 31.135 41.943 31.1017C38.6918 31.0685 35.5587 32.3214 33.224 34.5884C33.1982 34.6106 33.1761 34.6328 33.1539 34.655C33.1243 34.6808 33.0985 34.7067 33.0726 34.7326C31.9229 35.8815 31.0108 37.2465 30.3887 38.7492C29.7667 40.2519 29.4468 41.8629 29.4475 43.4897V51.2557C29.4482 51.6969 29.6234 52.1198 29.9348 52.4317C30.2462 52.7437 30.6683 52.9192 31.1087 52.9199H52.5199C52.9603 52.9192 53.3825 52.7437 53.6939 52.4317C54.0053 52.1198 54.1805 51.6969 54.1812 51.2557V43.4897C54.1842 40.28 52.938 37.1956 50.7073 34.8916Z" fill="#2F2E41"/>
<path d="M42.3111 52.8428C47.3186 52.8428 51.378 48.7763 51.378 43.7599C51.378 38.7436 47.3186 34.677 42.3111 34.677C37.3035 34.677 33.2441 38.7436 33.2441 43.7599C33.2441 48.7763 37.3035 52.8428 42.3111 52.8428Z" fill="#FFB7B7"/>
<path d="M51.8412 42.9867L50.7706 35.4943C50.7376 35.2643 50.6205 35.0548 50.442 34.9063C50.3818 34.858 50.3161 34.817 50.2463 34.7843C44.7642 32.2141 39.2048 32.2141 33.7228 34.7769C33.6496 34.8108 33.5813 34.8543 33.5196 34.9063C33.4977 34.9248 33.4755 34.947 33.4533 34.9692C33.3068 35.1208 33.2157 35.3176 33.1948 35.5276L32.4787 43.031C32.4666 43.1593 32.4814 43.2888 32.5221 43.411C32.5628 43.5333 32.6285 43.6457 32.715 43.7411C32.8544 43.8948 33.0419 43.9965 33.2466 44.0295C33.2963 44.0401 33.3471 44.0451 33.398 44.0443H35.2142C35.3898 44.0437 35.5616 43.9934 35.7099 43.8992C35.8582 43.805 35.9768 43.6707 36.0522 43.5118L36.8385 41.8255C36.8888 41.7162 36.9733 41.6263 37.0793 41.5696C37.1853 41.5128 37.3068 41.4923 37.4255 41.5111C37.5442 41.53 37.6535 41.5871 37.7368 41.6739C37.82 41.7607 37.8727 41.8723 37.8868 41.9919L38.0418 43.2344C38.0706 43.4577 38.1793 43.6628 38.3477 43.8118C38.5162 43.9607 38.7329 44.0434 38.9575 44.0443H50.9292C51.0859 44.0451 51.2401 44.0043 51.3759 43.926C51.4705 43.8744 51.5554 43.8069 51.627 43.7263C51.7135 43.6256 51.7774 43.5074 51.8144 43.3798C51.8513 43.2522 51.8605 43.1181 51.8412 42.9867Z" fill="#2F2E41"/>
<path d="M64.7318 69.4836L67.3012 78.1002C65.7051 79.2191 64.0337 80.2262 62.299 81.1141C61.7232 81.41 61.1435 81.691 60.553 81.9573L57.8912 70.5264L56.8577 66.0924L63.5025 65.3528L64.7318 69.4836Z" fill="#FFB7B7"/>
<path d="M34.1546 68.0525L33.933 79.6941L33.8371 84.8456C31.291 84.3061 28.8006 83.5299 26.3984 82.5269L27.2808 71.4991L27.5023 68.7182L34.1546 68.0525Z" fill="#FFB7B7"/>
<path d="M64.7318 69.4836L58.0574 70.4858L58.1387 71.5842L58.9433 82.6489C52.2125 85.379 44.9008 86.3561 37.6909 85.489C36.4432 85.3411 35.2114 85.1377 33.9955 84.8788C34.5419 82.5786 35.0145 80.5077 34.4312 80.1009C34.2554 79.9776 34.0889 79.8416 33.9328 79.6941C31.2121 77.0943 32.2163 71.2255 32.2163 71.2255L27.2806 71.4991L25.5714 71.5952C25.5714 71.5952 26.3097 59.7613 29.6322 59.7613H33.6929L53.2583 57.9123C53.2583 57.9123 58.7957 56.0632 60.2724 58.6519C61.0476 60.0091 62.4282 62.8862 63.569 65.3196C64.6026 67.531 65.4406 69.3764 65.4406 69.3764L64.7318 69.4836Z" fill="#2F2E41"/>
<path d="M236.998 43.3705C236.928 50.1443 235.257 56.8051 232.12 62.8062C228.983 68.8074 224.47 73.9778 218.952 77.8931C218.856 77.9597 218.756 78.03 218.657 78.1002C218.553 78.1742 218.446 78.2482 218.339 78.3184C217.719 78.7474 217.086 79.1579 216.442 79.5499C215.534 80.1046 214.604 80.626 213.654 81.1142C213.625 81.129 213.592 81.1438 213.562 81.1586C213.016 81.4396 212.465 81.7058 211.908 81.9573C211.89 81.9647 211.875 81.9721 211.857 81.9795C211.727 82.0387 211.591 82.1016 211.458 82.157C210.428 82.6156 209.376 83.0335 208.305 83.4033C207.393 83.725 206.468 84.0135 205.529 84.2687C203.609 84.7992 201.654 85.1922 199.678 85.4447C197.993 85.6617 196.297 85.7778 194.599 85.7923C194.458 85.796 194.318 85.796 194.178 85.796C193.251 85.796 192.328 85.7664 191.416 85.7072C190.619 85.6555 189.829 85.5852 189.046 85.489C187.839 85.3448 186.647 85.1525 185.473 84.901C185.421 84.8937 185.37 84.8826 185.318 84.8715C185.277 84.8641 185.233 84.853 185.192 84.8456C184.011 84.5978 182.848 84.2946 181.708 83.9469C180.633 83.6215 179.579 83.2542 178.544 82.8449C178.278 82.7414 178.016 82.6378 177.754 82.5269C177.1 82.2532 176.454 81.9685 175.819 81.6615C175.635 81.5765 175.454 81.4877 175.273 81.3989C174.66 81.0994 174.055 80.7851 173.464 80.4522C172.752 80.0565 172.051 79.6411 171.364 79.206C170.496 78.6586 169.647 78.0818 168.824 77.4716C161.51 72.0883 156.092 64.5164 153.353 55.8485C150.613 47.1806 150.694 37.8649 153.582 29.2457C156.471 20.6265 162.018 13.1496 169.424 7.89387C176.83 2.63814 185.712 -0.124597 194.787 0.00431465C218.268 0.33106 237.251 19.8468 236.998 43.3705Z" fill="#F1F1F1"/>
<path d="M185.192 84.8454C184.011 84.5976 182.848 84.2944 181.707 83.9467L185.624 59.6169L189.681 59.4912L197.038 59.2582L200.811 59.1399C200.811 59.1399 203.488 70.922 205.529 84.2685C203.609 84.799 201.653 85.192 199.678 85.4445C197.993 85.6615 196.297 85.7776 194.598 85.7921C194.458 85.7958 194.317 85.7958 194.177 85.7958C193.251 85.7958 192.328 85.7662 191.416 85.707C190.618 85.6553 189.829 85.585 189.046 85.4888C187.839 85.3446 186.646 85.1523 185.472 84.9008C185.421 84.8935 185.369 84.8824 185.317 84.8713C185.277 84.8639 185.233 84.8528 185.192 84.8454Z" fill="#CBCBCB"/>
<path d="M185.473 84.9009C185.421 84.8935 185.37 84.8824 185.318 84.8714C185.277 84.864 185.233 84.8529 185.192 84.8455C184.011 84.5977 182.848 84.2944 181.708 83.9468C180.633 83.6214 179.579 83.254 178.544 82.8448C178.278 82.7412 178.016 82.6377 177.754 82.5268C177.1 82.2531 176.454 81.9683 175.819 81.6614C175.635 81.5763 175.454 81.4876 175.273 81.3988L174.948 63.182L184.916 58.9033C184.916 58.9033 184.949 59.1696 189.681 59.4913C190.582 62.435 185.473 84.9009 185.473 84.9009Z" fill="#2F2E41"/>
<path d="M215.264 62.3203L213.385 72.2127L213.562 81.1584C213.016 81.4395 212.465 81.7057 211.909 81.9572C211.89 81.9646 211.875 81.972 211.857 81.9794C211.728 82.0386 211.591 82.1014 211.458 82.1569C210.428 82.6155 209.376 83.0334 208.306 83.4032C207.394 83.7249 206.468 84.0134 205.529 84.2685C203.609 84.7991 201.654 85.1921 199.678 85.4445C197.993 85.6616 196.297 85.7777 194.599 85.7922L194.403 69.9384C193.99 64.8276 195.359 61.4476 197.039 59.2583C205.991 58.0601 205.792 57.9529 205.792 57.9529L215.283 62.2316L215.264 62.3203Z" fill="#2F2E41"/>
<path d="M179.219 64.6096L178.544 82.8449C178.278 82.7414 178.016 82.6378 177.754 82.5269C177.1 82.2532 176.454 81.9685 175.819 81.6615C175.635 81.5765 175.454 81.4877 175.273 81.399C174.66 81.0994 174.055 80.7851 173.464 80.4523C172.751 80.0566 172.051 79.6411 171.364 79.206L174.948 63.1821L179.219 64.6096Z" fill="#2F2E41"/>
<path d="M218.952 77.8931C218.856 77.9597 218.756 78.03 218.656 78.1002C218.553 78.1742 218.446 78.2482 218.339 78.3184C217.719 78.7474 217.086 79.1579 216.441 79.5499C215.533 80.1046 214.604 80.6261 213.654 81.1142C213.625 81.129 213.591 81.1438 213.562 81.1586C212.999 81.4481 212.431 81.722 211.857 81.9802L211.856 81.9795L211.181 63.6813L215.264 62.3204L215.452 62.2576L218.952 77.8931Z" fill="#2F2E41"/>
<path d="M204.367 45.3867C206.007 39.7809 202.812 33.9075 197.231 32.2682C191.649 30.6289 185.794 33.8444 184.154 39.4503C182.513 45.0561 185.708 50.9295 191.289 52.5688C196.871 54.2081 202.726 50.9926 204.367 45.3867Z" fill="#9F616A"/>
<path d="M183.653 45.0705V40.954C183.653 40.954 180.34 37.0443 183.985 36.0594C183.985 36.0594 184.979 26.2107 193.595 30.8068C193.595 30.8068 205.525 28.837 204.199 35.7311C204.199 35.7311 207.182 33.9313 206.187 38.5273L204.265 45.9308C204.265 45.9308 205.193 41.0403 202.211 40.3837L200.554 39.3988C200.554 39.3988 195.915 43.9949 188.956 38.4139C188.956 38.4139 185.973 37.7009 186.304 40.6555C186.636 43.6101 183.653 45.0705 183.653 45.0705Z" fill="#2F2E41"/>
<path d="M161.323 172.332C161.328 179.247 159.662 186.06 156.468 192.19C153.274 198.32 148.646 203.585 142.979 207.534C142.876 207.608 142.769 207.682 142.662 207.752C142.041 208.181 141.409 208.591 140.764 208.983C139.856 209.538 138.927 210.06 137.977 210.548C137.401 210.844 136.822 211.125 136.231 211.391C136.083 211.457 135.932 211.528 135.781 211.591C134.751 212.049 133.698 212.467 132.628 212.837C129.832 213.819 126.94 214.503 124.001 214.878C122.177 215.113 120.339 215.231 118.5 215.23C117.574 215.23 116.651 215.2 115.739 215.141C114.941 215.089 114.152 215.019 113.369 214.923C112.11 214.771 110.866 214.568 109.64 214.305C109.6 214.298 109.555 214.286 109.515 214.279C106.969 213.74 104.478 212.963 102.076 211.96C101.423 211.687 100.777 211.402 100.142 211.095C99.3409 210.718 98.5558 210.315 97.7867 209.886C91.1769 206.227 85.6503 200.883 81.7672 194.395C77.884 187.907 75.7825 180.506 75.6757 172.942C75.5688 165.378 77.4605 157.92 81.1588 151.324C84.8571 144.729 90.2306 139.23 96.7344 135.386C103.238 131.542 110.641 129.488 118.192 129.435C125.744 129.381 133.175 131.328 139.733 135.079C146.291 138.831 151.742 144.252 155.533 150.794C159.325 157.336 161.322 164.767 161.323 172.332Z" fill="#F1F1F1"/>
<path d="M117.324 182.904C122.605 182.904 126.886 178.615 126.886 173.325C126.886 168.034 122.605 163.745 117.324 163.745C112.043 163.745 107.762 168.034 107.762 173.325C107.762 178.615 112.043 182.904 117.324 182.904Z" fill="#FFB8B8"/>
<path d="M113.369 214.923C112.11 214.771 110.866 214.568 109.64 214.305L110.803 188.093L110.969 187.919L113.35 185.401H120.922L123.716 188.111L123.953 188.344L129.929 194.08L132.628 212.837C129.832 213.819 126.94 214.503 124.001 214.878C122.176 215.113 120.339 215.231 118.5 215.23C117.574 215.23 116.651 215.2 115.739 215.141C114.941 215.089 114.151 215.019 113.369 214.923Z" fill="#CBCBCB"/>
<path d="M100.142 211.095C99.3407 210.718 98.5557 210.315 97.7866 209.886C97.7091 202.785 97.6573 198.07 97.6573 198.07L98.5581 197.519C98.5688 197.514 98.5799 197.509 98.5912 197.504L108.813 191.284L110.958 187.793L110.969 187.919L111.6 195.278C113.501 201.779 114.885 208.421 115.739 215.141C114.941 215.089 114.151 215.019 113.369 214.922C112.11 214.771 110.866 214.567 109.64 214.305C109.6 214.298 109.555 214.286 109.515 214.279C106.969 213.74 104.478 212.963 102.076 211.96C101.423 211.687 100.777 211.402 100.142 211.095Z" fill="#2F2E41"/>
<path d="M132.628 212.837C129.832 213.819 126.94 214.503 124.001 214.878C123.593 212.491 123.444 210.067 123.554 207.648C124.351 194.879 122.513 187.793 123.31 187.793L123.716 188.111L128.733 192.083L135.337 194.509H135.341L139.886 196.177L140.687 196.473V196.854C140.69 198.17 140.698 202.778 140.764 208.983C139.856 209.538 138.927 210.059 137.977 210.548C137.401 210.843 136.822 211.125 136.231 211.391C136.083 211.457 135.932 211.528 135.781 211.591C134.751 212.049 133.698 212.467 132.628 212.837Z" fill="#2F2E41"/>
<path d="M108.277 176.322C108.277 176.322 109.09 174.892 108.901 170.117C108.712 165.343 115.97 168.043 122.035 167.588C128.1 167.132 126.816 175.559 126.816 175.559C126.816 175.559 127.253 175.058 128.19 170.991C129.127 166.924 127 162.871 127 162.871C126.374 158.597 122.998 159.967 122.998 159.967C124.623 160.601 124.311 161.957 124.311 161.957C122.935 159.539 119.559 160.909 119.559 160.909C115.056 158.079 110.493 161.806 110.493 161.806C105.053 163.043 108.243 167.376 108.243 167.376C102.773 170.145 108.277 176.322 108.277 176.322Z" fill="#2F2E41"/>
<path d="M93.1459 206.905C93.2863 203.654 93.349 201.558 93.2751 201.265C92.895 199.742 98.0854 197.7 98.5578 197.519C98.5685 197.514 98.5796 197.509 98.591 197.504L99.6469 198.07L100.142 211.095C99.3405 210.718 98.5554 210.315 97.7863 209.886C96.1768 208.994 94.6267 207.998 93.1459 206.905Z" fill="#2F2E41"/>
<path d="M140.764 208.983C139.856 209.538 138.927 210.059 137.976 210.548C137.401 210.843 136.821 211.124 136.231 211.391C136.083 211.457 135.932 211.528 135.78 211.59L134.119 195.16L135.09 194.45C135.09 194.45 135.178 194.472 135.337 194.509H135.341C136.12 194.701 138.512 195.337 139.885 196.177C140.192 196.351 140.463 196.58 140.686 196.853C140.822 197.017 140.889 197.226 140.874 197.438C140.83 197.867 141.569 201.935 142.661 207.752C142.041 208.181 141.409 208.591 140.764 208.983Z" fill="#2F2E41"/>
<path d="M58.333 181.071H42.4532V109.755H43.1916V180.332H58.333V181.071Z" fill="#F1F1F1"/>
<path d="M194.55 181.071H178.67V180.332H193.811V109.094H194.55V181.071Z" fill="#F1F1F1"/>
<path d="M194.178 94.0641C199.568 94.0641 203.937 89.687 203.937 84.2876C203.937 78.8883 199.568 74.5112 194.178 74.5112C188.788 74.5112 184.418 78.8883 184.418 84.2876C184.418 89.687 188.788 94.0641 194.178 94.0641Z" fill="#6C63FF"/>
<path d="M193.247 88.4145L190.326 84.652L192.025 83.3285L193.408 85.1099L198.08 80.1692L199.643 81.6518L193.247 88.4145Z" fill="white"/>
<path d="M42.8226 94.8267C48.2124 94.8267 52.5818 90.4497 52.5818 85.0503C52.5818 79.651 48.2124 75.2739 42.8226 75.2739C37.4327 75.2739 33.0634 79.651 33.0634 85.0503C33.0634 90.4497 37.4327 94.8267 42.8226 94.8267Z" fill="#6C63FF"/>
<path d="M41.8923 89.1774L38.9712 85.415L40.6701 84.0914L42.0529 85.8728L46.7254 80.9321L48.2877 82.4147L41.8923 89.1774Z" fill="white"/>
<path d="M118.5 225C123.89 225 128.259 220.623 128.259 215.224C128.259 209.824 123.89 205.447 118.5 205.447C113.11 205.447 108.741 209.824 108.741 215.224C108.741 220.623 113.11 225 118.5 225Z" fill="#6C63FF"/>
<path d="M117.57 219.35L114.649 215.588L116.348 214.265L117.73 216.046L122.403 211.105L123.965 212.588L117.57 219.35Z" fill="white"/>
</g>
<defs>
<clipPath id="clip0">
<rect width="237" height="225" fill="white"/>
</clipPath>
</defs>
</svg>
