<svg width="331" height="295" viewBox="0 0 331 295" fill="none" xmlns="http://www.w3.org/2000/svg">
<g clip-path="url(#clip0)">
<path d="M64.7184 293.822C68.0431 291.008 70.0625 286.562 69.5329 282.234C69.0033 277.905 65.7231 273.926 61.4682 273.007C57.2133 272.088 52.3631 274.632 51.0707 278.796C50.3595 270.768 49.5399 262.404 45.2795 255.567C41.4218 249.377 34.7402 244.948 27.4988 244.155C20.2575 243.363 12.6333 246.356 8.11709 252.082C3.60093 257.808 2.49516 266.132 5.65817 272.706C7.98824 277.549 12.2811 281.153 16.7789 284.085C31.1284 293.439 48.929 296.599 65.8666 294.102L64.7184 293.822Z" fill="#F2F2F2"/>
<path d="M15.278 246.522C21.253 251.397 26.7345 256.85 31.6431 262.802C36.5525 268.747 40.8746 275.156 44.5489 281.937C46.6026 285.741 48.4475 289.655 50.0754 293.66C50.4073 294.475 49.0866 294.83 48.7584 294.024C45.875 286.962 42.3078 280.201 38.1078 273.836C33.9281 267.494 29.1443 261.574 23.8236 256.158C20.8141 253.096 17.6389 250.202 14.3123 247.489C13.6304 246.933 14.6018 245.97 15.278 246.522H15.278Z" fill="white"/>
<path d="M302.729 122.057H257.249C256.563 122.057 255.905 121.783 255.42 121.297C254.935 120.811 254.662 120.152 254.661 119.465V113.998C254.662 113.311 254.935 112.652 255.42 112.166C255.905 111.679 256.563 111.406 257.249 111.405H302.729C303.415 111.406 304.073 111.679 304.558 112.166C305.043 112.652 305.316 113.311 305.317 113.998V119.465C305.316 120.152 305.043 120.811 304.558 121.297C304.073 121.783 303.415 122.057 302.729 122.057Z" fill="#6C63FF"/>
<path d="M296.592 113.698L277.21 96.1905C276.792 95.8131 276.256 95.5944 275.694 95.5728C275.132 95.5512 274.58 95.7279 274.135 96.0721L231.717 110.103C231.113 110.304 230.612 110.737 230.326 111.307C230.039 111.877 229.99 112.538 230.189 113.144L231.9 118.335C231.998 118.636 232.155 118.914 232.361 119.154C232.567 119.393 232.818 119.59 233.1 119.732C233.382 119.874 233.689 119.959 234.004 119.982C234.319 120.006 234.636 119.966 234.935 119.866L273.845 106.995L289.72 121.335C290.159 121.734 290.732 121.955 291.326 121.954C291.368 121.954 291.41 121.953 291.453 121.951C291.768 121.935 292.077 121.857 292.363 121.721C292.648 121.585 292.903 121.394 293.114 121.159L296.768 117.099C297.194 116.624 297.415 116 297.382 115.362C297.349 114.725 297.065 114.126 296.592 113.698Z" fill="#6C63FF"/>
<path d="M81.9672 244.619C81.3791 244.62 80.8153 244.854 80.3994 245.271C79.9835 245.687 79.7496 246.252 79.749 246.841V292.404C79.7496 292.993 79.9835 293.558 80.3994 293.975C80.8153 294.392 81.3791 294.626 81.9672 294.627H87.4241C88.0123 294.626 88.5761 294.392 88.992 293.975C89.4078 293.558 89.6418 292.993 89.6424 292.404V246.841C89.6418 246.252 89.4078 245.687 88.992 245.271C88.5761 244.854 88.0123 244.62 87.4241 244.619H81.9672Z" fill="#6C63FF"/>
<path d="M98.9562 294.997H93.4994C92.8133 294.996 92.1555 294.723 91.6703 294.237C91.1851 293.751 90.9122 293.092 90.9114 292.404V246.841C90.9122 246.154 91.1851 245.495 91.6703 245.009C92.1555 244.523 92.8133 244.249 93.4994 244.249H98.9562C99.6424 244.249 100.3 244.523 100.785 245.009C101.271 245.495 101.543 246.154 101.544 246.841V292.404C101.543 293.092 101.271 293.751 100.785 294.237C100.3 294.723 99.6424 294.996 98.9562 294.997Z" fill="#6C63FF"/>
<path d="M107.891 250.374C107.891 250.374 109.952 268.946 89.139 268.316C68.3258 267.685 76.4235 249.435 76.4235 249.435C76.4235 249.435 80.773 246.011 91.7677 249.323C102.762 252.635 107.891 250.374 107.891 250.374Z" fill="#CCCCCC"/>
<path d="M98.9464 218.766C97.8032 218.768 96.6898 218.401 95.7714 217.719C94.8531 217.037 94.1787 216.076 93.8484 214.98C93.5181 213.883 93.5494 212.709 93.9378 211.632C94.3262 210.555 95.0509 209.632 96.0044 209L131.655 185.362C131.938 185.174 132.256 185.044 132.59 184.979C132.923 184.914 133.266 184.915 133.599 184.983C133.933 185.051 134.249 185.184 134.531 185.374C134.812 185.565 135.054 185.809 135.242 186.093L138.253 190.651C138.631 191.225 138.767 191.926 138.63 192.599C138.493 193.273 138.095 193.864 137.523 194.244L101.873 217.883C101.005 218.459 99.9874 218.767 98.9464 218.766Z" fill="#6C63FF"/>
<path d="M92.4733 196.884C102.887 196.884 111.329 188.426 111.329 177.994C111.329 167.561 102.887 159.104 92.4733 159.104C82.0597 159.104 73.6179 167.561 73.6179 177.994C73.6179 188.426 82.0597 196.884 92.4733 196.884Z" fill="#6C63FF"/>
<path d="M92.4871 185.923C93.7094 185.889 95.2305 185.847 96.4024 184.989C96.7514 184.723 97.0381 184.384 97.2424 183.996C97.4468 183.607 97.5639 183.179 97.5855 182.74C97.6067 182.428 97.5556 182.116 97.4363 181.827C97.317 181.538 97.1327 181.281 96.8977 181.076C96.2856 180.558 95.3919 180.436 94.4287 180.72L95.4266 173.414L94.694 173.313L93.5209 181.902L94.1326 181.621C94.8418 181.295 95.8154 181.129 96.4204 181.642C96.569 181.775 96.6847 181.942 96.7586 182.128C96.8325 182.314 96.8626 182.514 96.8466 182.714C96.8286 183.04 96.7407 183.359 96.5888 183.649C96.4369 183.938 96.2245 184.191 95.9662 184.391C95.0542 185.058 93.8417 185.144 92.4666 185.183L92.4871 185.923Z" fill="#2F2E41"/>
<path d="M103.032 174.044H99.0497V174.784H103.032V174.044Z" fill="#2F2E41"/>
<path d="M90.4619 174.044H86.4794V174.784H90.4619V174.044Z" fill="#2F2E41"/>
<path d="M73.4272 254.287C73.4272 254.287 71.7992 198.834 94.591 202.64C117.383 206.445 107.886 259.995 107.886 259.995C107.886 259.995 103.002 269.781 91.0637 258.908C79.1251 248.035 73.4272 254.287 73.4272 254.287Z" fill="#2F2E41"/>
<path d="M81.8381 162.039C85.5069 159.543 90.1373 161.239 93.7022 163.02C97.1643 164.749 101.066 166.95 104.983 165.284C106.513 164.633 107.756 163.361 107.973 161.658C108.23 159.629 107.006 157.73 105.644 156.351C104.164 154.932 102.44 153.794 100.555 152.991C98.7066 152.158 96.76 151.565 94.762 151.226C90.8041 150.541 86.7402 150.814 82.9086 152.02C79.077 153.227 75.5886 155.334 72.7341 158.164C69.9726 160.986 67.839 164.362 66.4737 168.069C65.1084 171.776 64.5423 175.731 64.8128 179.673C65.1244 183.876 66.464 188.161 69.1516 191.459C71.6732 194.554 75.449 196.73 79.4789 196.912C80.4663 196.958 81.4556 196.878 82.4227 196.672C83.1189 196.524 83.4164 197.595 82.7175 197.744C78.5203 198.64 74.1723 197.308 70.8434 194.685C67.3391 191.924 65.189 187.743 64.2463 183.436C62.4422 175.192 64.7022 166.322 69.8813 159.723C72.4387 156.436 75.7515 153.817 79.5373 152.089C83.4473 150.34 87.7185 149.555 91.9936 149.799C96.2569 150.014 100.393 151.327 104.002 153.611C107.229 155.701 110.867 160.131 108.235 164.051C107.25 165.516 105.616 166.409 103.919 166.776C101.972 167.155 99.9583 166.98 98.1061 166.269C93.889 164.777 89.9888 161.443 85.2685 161.948C84.2398 162.055 83.2535 162.416 82.3979 162.998C81.8058 163.401 81.2502 162.439 81.8381 162.039H81.8381Z" fill="#2F2E41"/>
<path d="M242.933 76.0041C242.079 75.4545 241.407 74.6636 241.002 73.7313C240.597 72.7991 240.477 71.7674 240.657 70.7668C240.837 69.7661 241.309 68.8414 242.014 68.1096C242.718 67.3778 243.624 66.8718 244.616 66.6555L286.389 57.5454C287.012 57.4102 287.662 57.5281 288.198 57.8731C288.734 58.2181 289.112 58.7621 289.248 59.3857L289.067 59.4251L289.248 59.3857L290.409 64.7274C290.476 65.0363 290.482 65.3555 290.426 65.6666C290.37 65.9778 290.253 66.2748 290.082 66.5408C289.912 66.8068 289.691 67.0366 289.431 67.2169C289.172 67.3972 288.88 67.5247 288.572 67.5919L246.798 76.7021C246.617 76.7416 246.434 76.7714 246.25 76.7914C245.087 76.9185 243.916 76.6404 242.933 76.0041Z" fill="#6C63FF"/>
<path d="M239.513 72.9844C239.488 72.8852 239.466 72.7848 239.447 72.6833C239.103 70.8708 239.731 68.9626 241.213 67.3098C242.823 65.5933 244.926 64.4201 247.23 63.952L266.274 59.7778C266.588 59.709 266.913 59.704 267.228 59.7629C267.544 59.8219 267.845 59.9437 268.113 60.121C268.381 60.2984 268.611 60.5278 268.789 60.7957C268.967 61.0635 269.089 61.3644 269.149 61.6805L270.811 70.4491C270.931 71.0653 270.804 71.7042 270.459 72.228C270.113 72.7519 269.576 73.1189 268.963 73.2499L249.798 77.4503C248.934 77.6413 248.052 77.7386 247.167 77.7404C243.392 77.7404 240.248 75.898 239.513 72.9844Z" fill="#2F2E41"/>
<path d="M242.846 53.3644C253.259 53.3644 261.701 44.9071 261.701 34.4746C261.701 24.042 253.259 15.5847 242.846 15.5847C232.432 15.5847 223.99 24.042 223.99 34.4746C223.99 44.9071 232.432 53.3644 242.846 53.3644Z" fill="#6C63FF"/>
<path d="M258.757 41.293C259.98 41.259 261.501 41.2165 262.673 40.3589C263.022 40.0931 263.308 39.754 263.513 39.3654C263.717 38.9769 263.834 38.5483 263.856 38.1096C263.877 37.7979 263.826 37.4854 263.707 37.1967C263.587 36.908 263.403 36.6509 263.168 36.4454C262.556 35.9272 261.662 35.8057 260.699 36.0893L261.697 28.7832L260.964 28.6826L259.791 37.2719L260.403 36.9907C261.112 36.6648 262.086 36.4989 262.691 37.0111C262.839 37.145 262.955 37.3114 263.029 37.4975C263.103 37.6835 263.133 37.884 263.117 38.0836C263.099 38.4101 263.011 38.7288 262.859 39.0182C262.707 39.3076 262.495 39.5608 262.236 39.7606C261.324 40.428 260.112 40.5141 258.737 40.5526L258.757 41.293Z" fill="#2F2E41"/>
<path d="M256.732 29.4131H252.75V30.1539H256.732V29.4131Z" fill="#2F2E41"/>
<path d="M241.527 15.5288C241.388 13.2958 240.772 11.1188 239.72 9.14514C238.669 7.17146 237.206 5.4472 235.431 4.08912C233.598 2.72882 231.482 1.80004 229.24 1.37182C226.999 0.943592 224.691 1.02694 222.486 1.61566C220.295 2.1859 218.263 3.24688 216.541 4.71862C214.819 6.19036 213.454 8.03444 212.547 10.1119C211.634 12.1738 211.179 14.4096 211.212 16.6649C211.313 19.1176 211.921 21.5225 212.998 23.7272C214.11 26.154 215.512 28.4308 216.73 30.8032C217.93 33.1426 218.965 35.563 219.827 38.0469C221.583 43.108 222.618 48.3914 222.904 53.7417C223.357 62.1757 222.551 74.4888 213.047 77.7255C210.631 78.5486 208.024 78.7018 205.49 78.6951C202.821 78.7278 200.159 78.4154 197.57 77.7658C193.084 76.5656 188.825 73.7472 186.913 69.3685C186.472 68.3573 186.177 67.2887 186.036 66.1946C185.996 65.8946 186.319 65.6418 186.59 65.639C186.736 65.6424 186.875 65.7021 186.978 65.8055C187.082 65.909 187.141 66.0483 187.145 66.1946C187.764 70.8607 191.645 74.439 195.859 76.0477C198.321 76.9417 200.908 77.443 203.525 77.5334C206.13 77.6653 208.835 77.6448 211.386 77.0443C213.656 76.552 215.722 75.3754 217.306 73.6727C218.718 72.0442 219.771 70.1356 220.397 68.0715C221.897 63.4842 222.054 58.4406 221.79 53.6594C221.492 48.3267 220.434 43.0641 218.649 38.0315C217.747 35.4905 216.659 33.0197 215.394 30.6393C214.158 28.3109 212.786 26.0484 211.745 23.6214C210.729 21.3908 210.17 18.9783 210.102 16.5272C210.093 14.2635 210.543 12.0217 211.424 9.93687C212.289 7.84379 213.587 5.9578 215.231 4.40273C216.876 2.84766 218.83 1.65868 220.966 0.913869C223.139 0.15612 225.446 -0.13811 227.739 0.0500667C230.032 0.238243 232.261 0.904668 234.281 2.00657C236.204 3.11364 237.888 4.59144 239.237 6.35455C240.586 8.11766 241.572 10.1311 242.14 12.2785C242.416 13.3421 242.582 14.4312 242.636 15.5288C242.672 16.2435 241.563 16.2415 241.527 15.5288H241.527Z" fill="#2F2E41"/>
<path d="M237.84 15.9188C237.537 13.8579 236.506 11.9742 234.935 10.6101C233.264 9.20745 231.123 8.49543 228.947 8.61904C228.234 8.65479 228.236 7.54352 228.947 7.50787C231.312 7.40103 233.634 8.16881 235.471 9.66517C237.308 11.1615 238.531 13.2821 238.909 15.6234C239.016 16.323 237.947 16.6245 237.84 15.9188Z" fill="#2F2E41"/>
<path d="M235.509 15.9831C235.34 15.4701 235.381 14.9108 235.624 14.4283C235.867 13.9458 236.291 13.5795 236.803 13.4101L242.069 11.6681C242.581 11.4988 243.139 11.5401 243.621 11.7831C244.102 12.0261 244.468 12.4508 244.637 12.9638C244.806 13.4768 244.765 14.0361 244.522 14.5186C244.28 15.0012 243.856 15.3674 243.344 15.5368L238.078 17.2788C237.824 17.3628 237.557 17.3958 237.29 17.3762C237.024 17.3565 236.764 17.2844 236.526 17.1641C236.287 17.0438 236.074 16.8776 235.9 16.6749C235.726 16.4723 235.593 16.2372 235.509 15.9832V15.9831Z" fill="#2F2E41"/>
<path d="M276.633 41.6503C276.292 41.7222 275.979 41.8888 275.729 42.1309C275.479 42.373 275.302 42.6808 275.219 43.019C275.135 43.3572 275.148 43.7121 275.257 44.0431C275.365 44.3741 275.565 44.6677 275.832 44.8903L283.97 51.6642C284.089 51.7651 284.188 51.8881 284.26 52.0265C284.327 52.1663 284.365 52.3184 284.371 52.4734L284.879 64.8964C284.888 65.3029 285.033 65.6945 285.291 66.0082C285.549 66.322 285.905 66.5396 286.302 66.6262L286.316 66.6295C286.708 66.7254 287.12 66.6873 287.488 66.5212C287.855 66.3551 288.157 66.0705 288.344 65.7129L291.28 60.3499C291.378 60.1733 291.523 60.0269 291.698 59.9263C291.873 59.8257 292.072 59.7747 292.274 59.7787C292.422 59.7795 292.569 59.8111 292.705 59.8714C292.841 59.9318 292.962 60.0196 293.063 60.1294L307.149 75.1876C307.352 75.4062 307.606 75.572 307.887 75.6705C308.169 75.7691 308.47 75.7975 308.765 75.7534C309.059 75.7095 309.338 75.5956 309.579 75.4211C309.82 75.2466 310.015 75.0167 310.149 74.7507L330.803 33.3517C330.96 33.04 331.025 32.6905 330.991 32.3434C330.958 31.9962 330.828 31.6655 330.615 31.3893C330.403 31.1131 330.117 30.9026 329.79 30.782C329.463 30.6614 329.109 30.6356 328.769 30.7076L328.1 30.8477L276.633 41.6502L276.633 41.6503ZM276.303 44.3214C276.143 44.1874 276.023 44.0109 275.958 43.8121C275.894 43.6133 275.886 43.4002 275.936 43.1973C275.987 42.9943 276.093 42.8097 276.244 42.6646C276.394 42.5194 276.582 42.4196 276.786 42.3766L328.238 31.5779L328.922 31.4339C329.126 31.3918 329.338 31.408 329.533 31.4806C329.729 31.5531 329.9 31.6792 330.027 31.8444C330.154 32.0096 330.233 32.2073 330.253 32.415C330.274 32.6226 330.236 32.8319 330.143 33.019L309.489 74.418C309.409 74.5778 309.291 74.7159 309.146 74.8206C309.002 74.9252 308.834 74.9933 308.657 75.0191C308.48 75.0448 308.3 75.0274 308.132 74.9684C307.963 74.9094 307.811 74.8105 307.689 74.6801L293.603 59.622C293.465 59.4713 293.302 59.3456 293.122 59.2504L328.915 33.2366C329.056 33.1364 329.157 32.9901 329.201 32.823C329.246 32.6559 329.231 32.4784 329.158 32.3213C329.086 32.1643 328.961 32.0374 328.806 31.9628C328.65 31.8882 328.473 31.8704 328.306 31.9126C328.265 31.9223 328.225 31.9361 328.186 31.9537L284.727 51.3884C284.643 51.2802 284.547 51.1819 284.441 51.0953L276.303 44.3214V44.3214Z" fill="#CCCCCC"/>
<path d="M276.633 41.6503C276.292 41.7222 275.979 41.8888 275.729 42.1309C275.479 42.373 275.302 42.6808 275.219 43.019C275.135 43.3572 275.148 43.7121 275.257 44.0431C275.365 44.3741 275.565 44.6677 275.832 44.8903L283.97 51.6642C284.089 51.7651 284.188 51.8881 284.26 52.0265C284.327 52.1663 284.365 52.3184 284.371 52.4734L284.879 64.8964C284.888 65.3029 285.033 65.6945 285.291 66.0082C285.549 66.322 285.905 66.5396 286.302 66.6262L286.316 66.6295C286.708 66.7254 287.12 66.6873 287.488 66.5212C287.855 66.3551 288.157 66.0705 288.344 65.7129L291.28 60.3499C291.378 60.1733 291.523 60.0269 291.698 59.9263C291.873 59.8257 292.072 59.7747 292.274 59.7787C292.422 59.7795 292.569 59.8111 292.705 59.8714C292.841 59.9318 292.962 60.0196 293.063 60.1294L307.149 75.1876C307.352 75.4062 307.606 75.572 307.887 75.6705C308.169 75.7691 308.47 75.7975 308.765 75.7534C309.059 75.7095 309.338 75.5956 309.579 75.4211C309.82 75.2466 310.015 75.0167 310.149 74.7507L330.803 33.3517C330.96 33.04 331.025 32.6905 330.991 32.3434C330.958 31.9962 330.828 31.6655 330.615 31.3893C330.403 31.1131 330.117 30.9026 329.79 30.782C329.463 30.6614 329.109 30.6356 328.769 30.7076L328.1 30.8477L276.633 41.6502L276.633 41.6503ZM276.303 44.3214C276.143 44.1874 276.023 44.0109 275.958 43.8121C275.894 43.6133 275.886 43.4002 275.936 43.1973C275.987 42.9943 276.093 42.8097 276.244 42.6646C276.394 42.5194 276.582 42.4196 276.786 42.3766L328.238 31.5779L328.922 31.4339C329.126 31.3918 329.338 31.408 329.533 31.4806C329.729 31.5531 329.9 31.6792 330.027 31.8444C330.154 32.0096 330.233 32.2073 330.253 32.415C330.274 32.6226 330.236 32.8319 330.143 33.019L309.489 74.4179C309.409 74.5778 309.291 74.7159 309.146 74.8206C309.002 74.9252 308.834 74.9933 308.657 75.019C308.48 75.0448 308.3 75.0274 308.131 74.9684C307.963 74.9094 307.811 74.8104 307.689 74.6801L293.603 59.6219C293.465 59.4713 293.302 59.3456 293.122 59.2504C292.864 59.1117 292.576 59.0383 292.283 59.0364C292.242 59.0346 292.2 59.0364 292.158 59.0381L292.154 59.0373C291.84 59.0536 291.536 59.15 291.269 59.3174C291.003 59.4847 290.784 59.7175 290.633 59.9935L287.697 65.3601C287.584 65.5755 287.403 65.7467 287.182 65.8459C286.96 65.945 286.712 65.9663 286.477 65.9064L286.469 65.9047C286.231 65.8544 286.017 65.7243 285.862 65.5357C285.707 65.3471 285.62 65.1113 285.617 64.8671L285.109 52.4441C285.105 52.3128 285.086 52.1824 285.053 52.0553L285.054 52.0517C285.023 51.9297 284.978 51.8114 284.922 51.6988C284.868 51.5886 284.803 51.4846 284.727 51.3884C284.643 51.2802 284.547 51.1819 284.441 51.0953L276.303 44.3214V44.3214Z" fill="#3F3D56"/>
<path d="M284.727 51.3884L328.186 31.9537C328.224 31.9361 328.264 31.9223 328.305 31.9125C328.473 31.8704 328.65 31.8881 328.806 31.9628C328.961 32.0374 329.086 32.1642 329.158 32.3213C329.231 32.4784 329.246 32.6558 329.201 32.823C329.157 32.9901 329.055 33.1364 328.915 33.2365L293.122 59.2503L292.49 59.7103L292.058 59.1104L292.154 59.0373L292.158 59.0381L328.479 32.6358L285.054 52.0517L285.053 52.0553L284.864 52.1376L284.562 51.4611L284.727 51.3884Z" fill="#3F3D56"/>
<path d="M230.429 110.361C229.89 110.362 229.373 110.577 228.992 110.958C228.611 111.34 228.396 111.858 228.396 112.398V119.806C228.396 120.346 228.611 120.864 228.992 121.246C229.373 121.628 229.89 121.843 230.429 121.843H254.091C254.63 121.843 255.147 121.628 255.528 121.246C255.909 120.864 256.124 120.346 256.124 119.806V112.398C256.124 111.858 255.909 111.34 255.528 110.958C255.147 110.577 254.63 110.362 254.091 110.361H230.429Z" fill="#2F2E41"/>
<path d="M227.64 72.785C226.51 76.0656 226.299 79.5935 227.03 82.9855C228.911 92.221 228.211 103.139 226.362 114.806C226.362 116.033 227.216 117.028 228.268 117.028H257.176C258.229 117.028 259.082 116.033 259.082 114.806V80.1744C259.082 69.9406 252.138 61.5661 243.453 61.1216C243.211 61.1068 242.967 61.0994 242.722 61.0994C235.946 61.0994 230.12 65.9256 227.64 72.785Z" fill="#2F2E41"/>
<path d="M236.846 117.732V74.9024C236.846 73.539 237.387 72.2313 238.349 71.2672C239.311 70.3031 240.617 69.7615 241.978 69.7615C243.339 69.7615 244.644 70.3031 245.606 71.2672C246.568 72.2313 247.109 73.539 247.109 74.9024V117.732C247.108 118.37 246.855 118.982 246.404 119.434C245.954 119.885 245.343 120.139 244.706 120.14H239.249C238.612 120.139 238.001 119.885 237.551 119.434C237.1 118.982 236.847 118.37 236.846 117.732Z" fill="#6C63FF"/>
<path d="M245.624 87.0552L237.867 86.7133C237.231 86.6844 236.632 86.4039 236.202 85.9331C235.771 85.4623 235.545 84.8398 235.572 84.2021L236.117 71.806C236.152 70.9786 236.349 70.1662 236.697 69.4152C237.045 68.6642 237.538 67.9895 238.147 67.4295C238.756 66.8696 239.469 66.4355 240.246 66.1521C241.023 65.8688 241.847 65.7416 242.673 65.7781C243.499 65.8145 244.31 66.0137 245.058 66.3644C245.807 66.7151 246.48 67.2103 247.037 67.8217C247.595 68.4331 248.026 69.1486 248.307 69.9274C248.588 70.7061 248.713 71.5328 248.675 72.36L248.13 84.7561C248.103 85.3751 247.839 85.9599 247.392 86.3886C246.945 86.8172 246.351 87.0569 245.732 87.0576C245.696 87.0576 245.66 87.0568 245.624 87.0552Z" fill="#2F2E41"/>
<path d="M259.082 94.9901C260.001 94.9901 260.746 92.5855 260.746 89.6194C260.746 86.6533 260.001 84.2488 259.082 84.2488C258.163 84.2488 257.418 86.6533 257.418 89.6194C257.418 92.5855 258.163 94.9901 259.082 94.9901Z" fill="#2F2E41"/>
<path d="M167.905 156.475C173.01 156.475 177.148 152.329 177.148 147.215C177.148 142.101 173.01 137.955 167.905 137.955C162.801 137.955 158.663 142.101 158.663 147.215C158.663 152.329 162.801 156.475 167.905 156.475Z" fill="#CCCCCC"/>
<path d="M259.309 156.475H188.324C187.54 156.475 186.787 156.162 186.233 155.607C185.678 155.051 185.366 154.297 185.366 153.511C185.366 152.726 185.678 151.972 186.233 151.416C186.787 150.861 187.54 150.548 188.324 150.548H259.309C260.094 150.548 260.846 150.861 261.401 151.416C261.955 151.972 262.267 152.726 262.267 153.511C262.267 154.297 261.955 155.051 261.401 155.607C260.846 156.162 260.094 156.475 259.309 156.475Z" fill="#CCCCCC"/>
<path d="M240.084 143.881H188.324C187.54 143.881 186.787 143.569 186.233 143.013C185.678 142.458 185.366 141.704 185.366 140.918C185.366 140.132 185.678 139.379 186.233 138.823C186.787 138.267 187.54 137.955 188.324 137.955H240.084C240.868 137.955 241.621 138.267 242.175 138.823C242.73 139.379 243.042 140.132 243.042 140.918C243.042 141.704 242.73 142.458 242.175 143.013C241.621 143.569 240.868 143.881 240.084 143.881Z" fill="#CCCCCC"/>
<path d="M167.905 191.662C173.01 191.662 177.148 187.516 177.148 182.402C177.148 177.288 173.01 173.142 167.905 173.142C162.801 173.142 158.663 177.288 158.663 182.402C158.663 187.516 162.801 191.662 167.905 191.662Z" fill="#CCCCCC"/>
<path d="M259.309 191.662H188.324C187.54 191.662 186.787 191.349 186.233 190.794C185.678 190.238 185.366 189.484 185.366 188.698C185.366 187.913 185.678 187.159 186.233 186.603C186.787 186.048 187.54 185.735 188.324 185.735H259.309C260.094 185.735 260.846 186.048 261.401 186.603C261.955 187.159 262.267 187.913 262.267 188.698C262.267 189.484 261.955 190.238 261.401 190.794C260.846 191.349 260.094 191.662 259.309 191.662Z" fill="#CCCCCC"/>
<path d="M240.084 179.068H188.324C187.54 179.068 186.787 178.756 186.233 178.2C185.678 177.645 185.366 176.891 185.366 176.105C185.366 175.319 185.678 174.566 186.233 174.01C186.787 173.454 187.54 173.142 188.324 173.142H240.084C240.868 173.142 241.621 173.454 242.175 174.01C242.73 174.566 243.042 175.319 243.042 176.105C243.042 176.891 242.73 177.645 242.175 178.2C241.621 178.756 240.868 179.068 240.084 179.068Z" fill="#CCCCCC"/>
<path d="M167.905 227.219C173.01 227.219 177.148 223.073 177.148 217.959C177.148 212.845 173.01 208.699 167.905 208.699C162.801 208.699 158.663 212.845 158.663 217.959C158.663 223.073 162.801 227.219 167.905 227.219Z" fill="#CCCCCC"/>
<path d="M259.309 227.219H188.324C187.54 227.219 186.787 226.907 186.233 226.351C185.678 225.795 185.366 225.041 185.366 224.256C185.366 223.47 185.678 222.716 186.233 222.16C186.787 221.605 187.54 221.292 188.324 221.292H259.309C260.094 221.292 260.846 221.605 261.401 222.16C261.955 222.716 262.267 223.47 262.267 224.256C262.267 225.041 261.955 225.795 261.401 226.351C260.846 226.907 260.094 227.219 259.309 227.219Z" fill="#CCCCCC"/>
<path d="M240.084 214.626H188.324C187.54 214.626 186.787 214.314 186.233 213.758C185.678 213.202 185.366 212.448 185.366 211.663C185.366 210.877 185.678 210.123 186.233 209.567C186.787 209.012 187.54 208.699 188.324 208.699H240.084C240.868 208.699 241.621 209.012 242.175 209.567C242.73 210.123 243.042 210.877 243.042 211.663C243.042 212.448 242.73 213.202 242.175 213.758C241.621 214.314 240.868 214.626 240.084 214.626Z" fill="#CCCCCC"/>
<path d="M284.038 243.886H136.892C135.225 243.884 133.628 243.221 132.449 242.04C131.271 240.86 130.608 239.259 130.607 237.59V127.584C130.608 125.915 131.271 124.314 132.449 123.134C133.628 121.953 135.225 121.289 136.892 121.288H284.038C285.704 121.289 287.302 121.953 288.48 123.134C289.658 124.314 290.321 125.915 290.323 127.584V237.59C290.321 239.259 289.658 240.86 288.48 242.04C287.302 243.221 285.704 243.884 284.038 243.886ZM136.892 122.028C135.421 122.03 134.012 122.616 132.972 123.657C131.932 124.699 131.348 126.111 131.346 127.584V237.59C131.348 239.063 131.932 240.475 132.972 241.516C134.012 242.558 135.421 243.144 136.892 243.146H284.038C285.508 243.144 286.918 242.558 287.957 241.516C288.997 240.475 289.582 239.063 289.583 237.59V127.584C289.582 126.111 288.997 124.699 287.957 123.657C286.918 122.616 285.508 122.03 284.038 122.028H136.892Z" fill="#3F3D56"/>
<path d="M133.195 143.881C144.629 143.881 153.899 134.595 153.899 123.139C153.899 111.684 144.629 102.398 133.195 102.398C121.76 102.398 112.491 111.684 112.491 123.139C112.491 134.595 121.76 143.881 133.195 143.881Z" fill="#6C63FF"/>
<path d="M131.142 131.052C130.676 131.053 130.223 130.902 129.85 130.622L129.827 130.605L124.962 126.873C124.736 126.7 124.547 126.484 124.405 126.238C124.263 125.991 124.171 125.72 124.133 125.438C124.096 125.156 124.115 124.869 124.188 124.595C124.261 124.32 124.388 124.062 124.56 123.836C124.733 123.611 124.948 123.421 125.194 123.279C125.44 123.136 125.711 123.044 125.993 123.007C126.274 122.969 126.56 122.988 126.834 123.061C127.109 123.135 127.366 123.262 127.591 123.435L130.743 125.856L138.19 116.125C138.363 115.899 138.578 115.71 138.824 115.568C139.07 115.425 139.341 115.333 139.623 115.296C139.904 115.259 140.19 115.277 140.464 115.351C140.739 115.424 140.996 115.551 141.221 115.724L141.175 115.787L141.222 115.725C141.677 116.075 141.974 116.591 142.049 117.16C142.124 117.73 141.97 118.305 141.622 118.761L132.862 130.207C132.659 130.471 132.399 130.684 132.101 130.831C131.802 130.977 131.474 131.053 131.142 131.052Z" fill="white"/>
<path d="M133.036 247.159C132.672 247.16 132.312 247.082 131.98 246.932H131.98L92.9735 229.402C92.336 229.116 91.761 228.707 91.2814 228.198C90.8017 227.689 90.4268 227.091 90.1781 226.437C89.9294 225.783 89.8118 225.087 89.8319 224.387C89.852 223.688 90.0095 222.999 90.2954 222.361C90.5813 221.722 90.99 221.147 91.4981 220.667C92.0061 220.186 92.6037 219.811 93.2565 219.563C93.9094 219.314 94.6048 219.197 95.3029 219.217C96.0011 219.238 96.6883 219.396 97.3254 219.683L136.332 237.213C136.642 237.353 136.922 237.552 137.155 237.799C137.388 238.047 137.57 238.338 137.691 238.657C137.812 238.975 137.869 239.314 137.86 239.654C137.85 239.994 137.773 240.329 137.634 240.64L135.401 245.628C135.195 246.084 134.863 246.471 134.443 246.743C134.024 247.015 133.535 247.159 133.036 247.159Z" fill="#6C63FF"/>
<path d="M141.231 295H0.369714C0.27166 295 0.177621 294.961 0.108286 294.892C0.0389516 294.822 0 294.728 0 294.63C0 294.531 0.0389516 294.437 0.108286 294.368C0.177621 294.298 0.27166 294.259 0.369714 294.259H141.231C141.329 294.259 141.423 294.298 141.492 294.368C141.561 294.437 141.6 294.531 141.6 294.63C141.6 294.728 141.561 294.822 141.492 294.892C141.423 294.961 141.329 295 141.231 295Z" fill="#3F3D56"/>
</g>
<defs>
<clipPath id="clip0">
<rect width="331" height="295" fill="white"/>
</clipPath>
</defs>
</svg>
