<svg width="361" height="270" viewBox="0 0 361 270" fill="none" xmlns="http://www.w3.org/2000/svg">
<g filter="url(#filter0_d_4012:5051)">
<g clip-path="url(#clip0_4012:5051)">
<rect x="2" y="2" width="353" height="262" rx="4" fill="white"/>
<g clip-path="url(#clip1_4012:5051)">
<path d="M133.553 54.2615C133.553 54.2615 160.748 75.0884 202.091 36.146C238.808 1.56222 268.789 56.1276 268.998 82.2581C269.27 116.107 232.281 143.192 250.232 165.424C268.183 187.657 214.633 224.37 185.773 192.597C149.871 153.073 140.145 185.186 119.682 185.186C104.995 185.186 74.841 148.358 95.2035 120.959C112.338 97.9031 102.993 90.2513 98.4678 82.2581C91.9398 70.7301 107.443 39.4399 133.553 54.2615Z" fill="#F2FAFF"/>
<path d="M242.437 64.2021H114.877V158.81H242.437V64.2021Z" fill="#52B6C3"/>
<path d="M242.437 64.2021H118.166V158.81H242.437V64.2021Z" fill="#F6F8FB"/>
<path d="M240.976 65.6748H119.264V72.301H240.976V65.6748Z" fill="white"/>
<path d="M240.976 71.9326H119.264V157.337H240.976V71.9326Z" fill="#153E90"/>
<path d="M154.353 75.2451H139.367V92.1788H154.353V75.2451Z" fill="#E8E7E7"/>
<path d="M171.165 75.2451H156.18V92.1788H171.165V75.2451Z" fill="#E8E7E7"/>
<path d="M187.613 75.2451H172.627V92.1788H187.613V75.2451Z" fill="#E8E7E7"/>
<path d="M204.425 75.2451H189.439V92.1788H204.425V75.2451Z" fill="white"/>
<path d="M220.874 75.2451H205.889V92.1788H220.874V75.2451Z" fill="white"/>
<path d="M237.687 75.2451H222.701V92.1788H237.687V75.2451Z" fill="white"/>
<path d="M154.353 94.7559H139.367V111.689H154.353V94.7559Z" fill="white"/>
<path d="M171.165 94.7559H156.18V111.689H171.165V94.7559Z" fill="white"/>
<path d="M187.613 94.7559H172.627V111.689H187.613V94.7559Z" fill="#F6F8FB"/>
<path d="M204.425 94.7559H189.439V111.689H204.425V94.7559Z" fill="white"/>
<path d="M220.874 94.7559H205.889V111.689H220.874V94.7559Z" fill="white"/>
<path d="M237.687 94.7559H222.701V111.689H237.687V94.7559Z" fill="white"/>
<path d="M154.353 113.53H139.367V130.464H154.353V113.53Z" fill="white"/>
<path d="M171.165 113.53H156.18V130.464H171.165V113.53Z" fill="white"/>
<path d="M187.613 113.53H172.627V130.464H187.613V113.53Z" fill="#F6F8FB"/>
<path d="M204.425 113.53H189.439V130.464H204.425V113.53Z" fill="white"/>
<path d="M220.874 113.53H205.889V130.464H220.874V113.53Z" fill="#F6F8FB"/>
<path d="M237.687 113.53H222.701V130.464H237.687V113.53Z" fill="white"/>
<path d="M154.718 132.673H139.732V149.606H154.718V132.673Z" fill="#F6F8FB"/>
<path d="M171.531 132.673H156.545V149.606H171.531V132.673Z" fill="#F6F8FB"/>
<path d="M187.978 132.673H172.992V149.606H187.978V132.673Z" fill="white"/>
<path d="M204.792 132.673H189.807V149.606H204.792V132.673Z" fill="white"/>
<path d="M221.24 132.673H206.254V149.606H221.24V132.673Z" fill="#E8E7E7"/>
<path d="M238.052 132.673H223.066V149.606H238.052V132.673Z" fill="white"/>
<path d="M122.736 70.4597C123.443 70.4597 124.016 69.8828 124.016 69.1712C124.016 68.4597 123.443 67.8828 122.736 67.8828C122.03 67.8828 121.457 68.4597 121.457 69.1712C121.457 69.8828 122.03 70.4597 122.736 70.4597Z" fill="#52B6C3"/>
<path d="M126.756 70.4597C127.462 70.4597 128.035 69.8828 128.035 69.1712C128.035 68.4597 127.462 67.8828 126.756 67.8828C126.049 67.8828 125.477 68.4597 125.477 69.1712C125.477 69.8828 126.049 70.4597 126.756 70.4597Z" fill="#52B6C3"/>
<path d="M130.777 70.4597C131.484 70.4597 132.057 69.8828 132.057 69.1712C132.057 68.4597 131.484 67.8828 130.777 67.8828C130.071 67.8828 129.498 68.4597 129.498 69.1712C129.498 69.8828 130.071 70.4597 130.777 70.4597Z" fill="#52B6C3"/>
<path d="M124.563 94.3877H134.797C135.711 94.3877 136.442 95.1239 136.442 96.0442C136.442 96.9646 135.711 97.7008 134.797 97.7008H124.563C123.649 97.7008 122.918 96.9646 122.918 96.0442C122.918 95.1608 123.649 94.3877 124.563 94.3877Z" fill="white"/>
<path d="M124.563 113.53H134.797C135.711 113.53 136.442 114.267 136.442 115.187C136.442 116.107 135.711 116.843 134.797 116.843H124.563C123.649 116.843 122.918 116.107 122.918 115.187C122.918 114.303 123.649 113.53 124.563 113.53Z" fill="white"/>
<path d="M124.563 132.673H134.797C135.711 132.673 136.442 133.409 136.442 134.329C136.442 135.25 135.711 135.986 134.797 135.986H124.563C123.649 135.986 122.918 135.25 122.918 134.329C122.918 133.446 123.649 132.673 124.563 132.673Z" fill="white"/>
<path d="M142.107 95.8604H147.955C148.65 95.8604 149.235 96.4493 149.235 97.1488C149.235 97.8482 148.65 98.4372 147.955 98.4372H142.107C141.413 98.4372 140.828 97.8482 140.828 97.1488C140.828 96.4493 141.413 95.8604 142.107 95.8604Z" fill="#52B6C3"/>
<path d="M141.742 100.646H144.3C144.812 100.646 145.214 101.05 145.214 101.566C145.214 102.081 144.812 102.486 144.3 102.486H141.742C141.23 102.486 140.828 102.081 140.828 101.566C140.828 101.087 141.23 100.646 141.742 100.646Z" fill="#52B6C3"/>
<path d="M159.104 95.8604H164.952C165.574 95.8604 166.049 96.3389 166.049 96.9647C166.049 97.5905 165.574 98.0691 164.952 98.0691H159.104C158.483 98.0691 158.008 97.5905 158.008 96.9647C158.008 96.3757 158.483 95.8604 159.104 95.8604Z" fill="#52B6C3"/>
<path d="M208.811 135.249H214.659C215.281 135.249 215.756 135.728 215.756 136.353C215.756 136.979 215.281 137.458 214.659 137.458H208.811C208.19 137.458 207.715 136.979 207.715 136.353C207.715 135.764 208.19 135.249 208.811 135.249Z" fill="white"/>
<path d="M225.261 115.37H231.109C231.73 115.37 232.205 115.849 232.205 116.474C232.205 117.1 231.73 117.579 231.109 117.579H225.261C224.639 117.579 224.164 117.1 224.164 116.474C224.164 115.885 224.639 115.37 225.261 115.37Z" fill="#F6F8FB"/>
<path d="M224.895 96.2285H230.743C231.365 96.2285 231.84 96.7071 231.84 97.3329C231.84 97.9587 231.365 98.4372 230.743 98.4372H224.895C224.274 98.4372 223.799 97.9587 223.799 97.3329C223.799 96.7439 224.274 96.2285 224.895 96.2285Z" fill="#F6F8FB"/>
<path d="M208.446 96.2285H214.294C214.916 96.2285 215.391 96.7071 215.391 97.3329C215.391 97.9587 214.916 98.4372 214.294 98.4372H208.446C207.825 98.4372 207.35 97.9587 207.35 97.3329C207.35 96.7439 207.825 96.2285 208.446 96.2285Z" fill="#F6F8FB"/>
<path d="M159.47 102.486C160.277 102.486 160.932 101.827 160.932 101.014C160.932 100.2 160.277 99.541 159.47 99.541C158.662 99.541 158.008 100.2 158.008 101.014C158.008 101.827 158.662 102.486 159.47 102.486Z" fill="#52B6C3"/>
<path d="M192.73 99.9098C193.537 99.9098 194.192 99.2506 194.192 98.4373C194.192 97.6241 193.537 96.9648 192.73 96.9648C191.922 96.9648 191.268 97.6241 191.268 98.4373C191.268 99.2506 191.922 99.9098 192.73 99.9098Z" fill="#52B6C3"/>
<path d="M197.847 99.9098C198.654 99.9098 199.309 99.2506 199.309 98.4373C199.309 97.6241 198.654 96.9648 197.847 96.9648C197.039 96.9648 196.385 97.6241 196.385 98.4373C196.385 99.2506 197.039 99.9098 197.847 99.9098Z" fill="#52B6C3"/>
<path d="M197.847 118.315C198.654 118.315 199.309 117.656 199.309 116.843C199.309 116.029 198.654 115.37 197.847 115.37C197.039 115.37 196.385 116.029 196.385 116.843C196.385 117.656 197.039 118.315 197.847 118.315Z" fill="#52B6C3"/>
<path d="M192.73 118.315C193.537 118.315 194.192 117.656 194.192 116.843C194.192 116.029 193.537 115.37 192.73 115.37C191.922 115.37 191.268 116.029 191.268 116.843C191.268 117.656 191.922 118.315 192.73 118.315Z" fill="#52B6C3"/>
<path d="M197.482 137.09C198.289 137.09 198.944 136.43 198.944 135.617C198.944 134.804 198.289 134.145 197.482 134.145C196.674 134.145 196.02 134.804 196.02 135.617C196.02 136.43 196.674 137.09 197.482 137.09Z" fill="#52B6C3"/>
<path d="M192.364 137.09C193.172 137.09 193.826 136.43 193.826 135.617C193.826 134.804 193.172 134.145 192.364 134.145C191.557 134.145 190.902 134.804 190.902 135.617C190.902 136.43 191.557 137.09 192.364 137.09Z" fill="#52B6C3"/>
<path d="M147.773 137.458C148.58 137.458 149.235 136.798 149.235 135.985C149.235 135.172 148.58 134.513 147.773 134.513C146.965 134.513 146.311 135.172 146.311 135.985C146.311 136.798 146.965 137.458 147.773 137.458Z" fill="#52B6C3"/>
<path d="M142.655 137.458C143.463 137.458 144.117 136.798 144.117 135.985C144.117 135.172 143.463 134.513 142.655 134.513C141.848 134.513 141.193 135.172 141.193 135.985C141.193 136.798 141.848 137.458 142.655 137.458Z" fill="#52B6C3"/>
<path d="M192.73 80.0309C193.537 80.0309 194.192 79.3717 194.192 78.5584C194.192 77.7452 193.537 77.0859 192.73 77.0859C191.922 77.0859 191.268 77.7452 191.268 78.5584C191.268 79.3717 191.922 80.0309 192.73 80.0309Z" fill="#52B6C3"/>
<path d="M175.552 80.0309C176.359 80.0309 177.014 79.3717 177.014 78.5584C177.014 77.7452 176.359 77.0859 175.552 77.0859C174.744 77.0859 174.09 77.7452 174.09 78.5584C174.09 79.3717 174.744 80.0309 175.552 80.0309Z" fill="white"/>
<path d="M180.669 80.0309C181.476 80.0309 182.131 79.3717 182.131 78.5584C182.131 77.7452 181.476 77.0859 180.669 77.0859C179.862 77.0859 179.207 77.7452 179.207 78.5584C179.207 79.3717 179.862 80.0309 180.669 80.0309Z" fill="white"/>
<path d="M159.105 80.0309C159.912 80.0309 160.567 79.3717 160.567 78.5584C160.567 77.7452 159.912 77.0859 159.105 77.0859C158.297 77.0859 157.643 77.7452 157.643 78.5584C157.643 79.3717 158.297 80.0309 159.105 80.0309Z" fill="white"/>
<path d="M164.222 80.0309C165.029 80.0309 165.684 79.3717 165.684 78.5584C165.684 77.7452 165.029 77.0859 164.222 77.0859C163.414 77.0859 162.76 77.7452 162.76 78.5584C162.76 79.3717 163.414 80.0309 164.222 80.0309Z" fill="white"/>
<path d="M142.655 80.0309C143.463 80.0309 144.117 79.3717 144.117 78.5584C144.117 77.7452 143.463 77.0859 142.655 77.0859C141.848 77.0859 141.193 77.7452 141.193 78.5584C141.193 79.3717 141.848 80.0309 142.655 80.0309Z" fill="white"/>
<path d="M147.773 80.0309C148.58 80.0309 149.235 79.3717 149.235 78.5584C149.235 77.7452 148.58 77.0859 147.773 77.0859C146.965 77.0859 146.311 77.7452 146.311 78.5584C146.311 79.3717 146.965 80.0309 147.773 80.0309Z" fill="white"/>
<path d="M202.137 86.7139H203.123V87.4512H202.137V89.1016H201.229V87.4512H197.991V86.9189L201.175 81.9922H202.137V86.7139ZM199.017 86.7139H201.229V83.2275L201.121 83.4229L199.017 86.7139Z" fill="#153E90"/>
<path d="M168.911 89.3018H164.253V88.6523L166.714 85.918C167.078 85.5046 167.329 85.1693 167.466 84.9121C167.606 84.6517 167.676 84.3831 167.676 84.1064C167.676 83.7354 167.563 83.431 167.339 83.1934C167.114 82.9557 166.815 82.8369 166.44 82.8369C165.991 82.8369 165.641 82.9655 165.391 83.2227C165.143 83.4766 165.02 83.8314 165.02 84.2871H164.116C164.116 83.6328 164.326 83.1038 164.746 82.7002C165.169 82.2965 165.734 82.0947 166.44 82.0947C167.101 82.0947 167.624 82.2689 168.008 82.6172C168.392 82.9622 168.584 83.4229 168.584 83.999C168.584 84.6989 168.138 85.5322 167.246 86.499L165.342 88.5645H168.911V89.3018Z" fill="#153E90"/>
<path d="M152.702 101.769L149.758 108.37H148.811L151.745 102.003H147.897V101.261H152.702V101.769Z" fill="#153E90"/>
<path d="M194.896 108.388H193.987V102.367L192.166 103.036V102.216L194.754 101.244H194.896V108.388ZM202 105.355C202 106.413 201.819 107.2 201.458 107.714C201.097 108.228 200.532 108.485 199.764 108.485C199.005 108.485 198.444 108.235 198.079 107.733C197.715 107.229 197.526 106.477 197.513 105.478V104.271C197.513 103.227 197.693 102.45 198.055 101.942C198.416 101.435 198.982 101.181 199.754 101.181C200.519 101.181 201.082 101.426 201.443 101.918C201.805 102.406 201.99 103.161 202 104.184V105.355ZM201.097 104.12C201.097 103.355 200.989 102.799 200.774 102.45C200.56 102.099 200.219 101.923 199.754 101.923C199.292 101.923 198.955 102.097 198.743 102.445C198.532 102.794 198.423 103.329 198.416 104.052V105.497C198.416 106.265 198.527 106.833 198.748 107.201C198.973 107.566 199.311 107.748 199.764 107.748C200.21 107.748 200.54 107.576 200.755 107.23C200.973 106.885 201.087 106.342 201.097 105.6V104.12Z" fill="#153E90"/>
<path d="M178.448 127.673H177.54V121.652L175.719 122.321V121.501L178.307 120.529H178.448V127.673ZM181.51 124.108L181.871 120.563H185.514V121.398H182.638L182.423 123.337C182.771 123.132 183.167 123.029 183.609 123.029C184.257 123.029 184.771 123.244 185.152 123.674C185.533 124.1 185.724 124.678 185.724 125.407C185.724 126.14 185.525 126.717 185.128 127.141C184.734 127.561 184.182 127.771 183.473 127.771C182.844 127.771 182.332 127.596 181.935 127.248C181.537 126.9 181.311 126.418 181.256 125.803H182.11C182.166 126.21 182.311 126.517 182.545 126.726C182.779 126.931 183.089 127.033 183.473 127.033C183.893 127.033 184.221 126.89 184.459 126.604C184.7 126.317 184.82 125.922 184.82 125.417C184.82 124.942 184.69 124.561 184.43 124.274C184.173 123.985 183.829 123.84 183.399 123.84C183.006 123.84 182.696 123.926 182.472 124.099L182.232 124.294L181.51 124.108Z" fill="#153E90"/>
<path d="M228.702 127.673H227.794V121.652L225.973 122.321V121.501L228.561 120.529H228.702V127.673ZM235.66 122.419C235.66 122.774 235.566 123.09 235.377 123.366C235.191 123.643 234.939 123.859 234.62 124.016C234.991 124.175 235.284 124.408 235.499 124.714C235.717 125.02 235.826 125.367 235.826 125.754C235.826 126.369 235.618 126.859 235.201 127.224C234.788 127.588 234.243 127.771 233.565 127.771C232.882 127.771 232.333 127.588 231.92 127.224C231.51 126.856 231.305 126.366 231.305 125.754C231.305 125.37 231.409 125.023 231.617 124.714C231.829 124.405 232.12 124.17 232.491 124.011C232.175 123.854 231.926 123.638 231.744 123.361C231.562 123.085 231.471 122.771 231.471 122.419C231.471 121.82 231.663 121.345 232.047 120.993C232.431 120.642 232.937 120.466 233.565 120.466C234.19 120.466 234.695 120.642 235.079 120.993C235.466 121.345 235.66 121.82 235.66 122.419ZM234.923 125.734C234.923 125.337 234.796 125.013 234.542 124.763C234.291 124.512 233.963 124.387 233.556 124.387C233.149 124.387 232.822 124.51 232.574 124.758C232.33 125.005 232.208 125.331 232.208 125.734C232.208 126.138 232.327 126.455 232.564 126.687C232.805 126.918 233.139 127.033 233.565 127.033C233.989 127.033 234.321 126.918 234.562 126.687C234.802 126.452 234.923 126.135 234.923 125.734ZM233.565 121.208C233.211 121.208 232.923 121.319 232.701 121.54C232.483 121.758 232.374 122.056 232.374 122.434C232.374 122.795 232.481 123.088 232.696 123.312C232.914 123.534 233.204 123.645 233.565 123.645C233.927 123.645 234.215 123.534 234.43 123.312C234.648 123.088 234.757 122.795 234.757 122.434C234.757 122.072 234.645 121.778 234.42 121.55C234.195 121.322 233.91 121.208 233.565 121.208Z" fill="#153E90"/>
<path d="M163.692 146.041H159.034V145.392L161.495 142.657C161.86 142.244 162.11 141.909 162.247 141.651C162.387 141.391 162.457 141.122 162.457 140.846C162.457 140.475 162.345 140.17 162.12 139.933C161.896 139.695 161.596 139.576 161.222 139.576C160.772 139.576 160.423 139.705 160.172 139.962C159.924 140.216 159.801 140.571 159.801 141.026H158.897C158.897 140.372 159.107 139.843 159.527 139.439C159.951 139.036 160.515 138.834 161.222 138.834C161.882 138.834 162.405 139.008 162.789 139.356C163.173 139.701 163.365 140.162 163.365 140.738C163.365 141.438 162.919 142.271 162.027 143.238L160.123 145.304H163.692V146.041ZM169.107 143.009C169.107 144.067 168.927 144.853 168.565 145.367C168.204 145.882 167.639 146.139 166.871 146.139C166.113 146.139 165.551 145.888 165.187 145.387C164.822 144.882 164.633 144.13 164.62 143.131V141.925C164.62 140.88 164.801 140.104 165.162 139.596C165.523 139.088 166.09 138.834 166.861 138.834C167.626 138.834 168.189 139.08 168.551 139.571C168.912 140.06 169.098 140.815 169.107 141.837V143.009ZM168.204 141.773C168.204 141.008 168.097 140.452 167.882 140.104C167.667 139.752 167.327 139.576 166.861 139.576C166.399 139.576 166.062 139.75 165.851 140.099C165.639 140.447 165.53 140.982 165.523 141.705V143.15C165.523 143.919 165.634 144.487 165.855 144.854C166.08 145.219 166.419 145.401 166.871 145.401C167.317 145.401 167.647 145.229 167.862 144.884C168.08 144.539 168.194 143.995 168.204 143.253V141.773Z" fill="#153E90"/>
</g>
<path d="M136.094 238H134.957L130.275 230.811H130.229C130.291 231.654 130.322 232.428 130.322 233.131V238H129.402V229.434H130.527L135.197 236.594H135.244C135.236 236.488 135.219 236.15 135.191 235.58C135.164 235.006 135.154 234.596 135.162 234.35V229.434H136.094V238ZM143.846 234.783C143.846 235.83 143.582 236.648 143.055 237.238C142.527 237.824 141.799 238.117 140.869 238.117C140.295 238.117 139.785 237.982 139.34 237.713C138.895 237.443 138.551 237.057 138.309 236.553C138.066 236.049 137.945 235.459 137.945 234.783C137.945 233.736 138.207 232.922 138.73 232.34C139.254 231.754 139.98 231.461 140.91 231.461C141.809 231.461 142.521 231.76 143.049 232.357C143.58 232.955 143.846 233.764 143.846 234.783ZM138.953 234.783C138.953 235.604 139.117 236.229 139.445 236.658C139.773 237.088 140.256 237.303 140.893 237.303C141.529 237.303 142.012 237.09 142.34 236.664C142.672 236.234 142.838 235.607 142.838 234.783C142.838 233.967 142.672 233.348 142.34 232.926C142.012 232.5 141.525 232.287 140.881 232.287C140.244 232.287 139.764 232.496 139.439 232.914C139.115 233.332 138.953 233.955 138.953 234.783ZM153.654 235.721C153.654 236.475 153.381 237.062 152.834 237.484C152.287 237.906 151.545 238.117 150.607 238.117C149.592 238.117 148.811 237.986 148.264 237.725V236.764C148.615 236.912 148.998 237.029 149.412 237.115C149.826 237.201 150.236 237.244 150.643 237.244C151.307 237.244 151.807 237.119 152.143 236.869C152.479 236.615 152.646 236.264 152.646 235.814C152.646 235.518 152.586 235.275 152.465 235.088C152.348 234.896 152.148 234.721 151.867 234.561C151.59 234.4 151.166 234.219 150.596 234.016C149.799 233.73 149.229 233.393 148.885 233.002C148.545 232.611 148.375 232.102 148.375 231.473C148.375 230.812 148.623 230.287 149.119 229.896C149.615 229.506 150.271 229.311 151.088 229.311C151.939 229.311 152.723 229.467 153.438 229.779L153.127 230.646C152.42 230.35 151.732 230.201 151.064 230.201C150.537 230.201 150.125 230.314 149.828 230.541C149.531 230.768 149.383 231.082 149.383 231.484C149.383 231.781 149.438 232.025 149.547 232.217C149.656 232.404 149.84 232.578 150.098 232.738C150.359 232.895 150.758 233.068 151.293 233.26C152.191 233.58 152.809 233.924 153.145 234.291C153.484 234.658 153.654 235.135 153.654 235.721ZM156.232 238H155.26V228.883H156.232V238ZM163.838 234.783C163.838 235.83 163.574 236.648 163.047 237.238C162.52 237.824 161.791 238.117 160.861 238.117C160.287 238.117 159.777 237.982 159.332 237.713C158.887 237.443 158.543 237.057 158.301 236.553C158.059 236.049 157.938 235.459 157.938 234.783C157.938 233.736 158.199 232.922 158.723 232.34C159.246 231.754 159.973 231.461 160.902 231.461C161.801 231.461 162.514 231.76 163.041 232.357C163.572 232.955 163.838 233.764 163.838 234.783ZM158.945 234.783C158.945 235.604 159.109 236.229 159.438 236.658C159.766 237.088 160.248 237.303 160.885 237.303C161.521 237.303 162.004 237.09 162.332 236.664C162.664 236.234 162.83 235.607 162.83 234.783C162.83 233.967 162.664 233.348 162.332 232.926C162.004 232.5 161.518 232.287 160.873 232.287C160.236 232.287 159.756 232.496 159.432 232.914C159.107 233.332 158.945 233.955 158.945 234.783ZM167.623 237.314C167.795 237.314 167.961 237.303 168.121 237.279C168.281 237.252 168.408 237.225 168.502 237.197V237.941C168.396 237.992 168.24 238.033 168.033 238.064C167.83 238.1 167.646 238.117 167.482 238.117C166.24 238.117 165.619 237.463 165.619 236.154V232.334H164.699V231.865L165.619 231.461L166.029 230.09H166.592V231.578H168.455V232.334H166.592V236.113C166.592 236.5 166.684 236.797 166.867 237.004C167.051 237.211 167.303 237.314 167.623 237.314ZM173.934 236.248C173.934 236.846 173.711 237.307 173.266 237.631C172.82 237.955 172.195 238.117 171.391 238.117C170.539 238.117 169.875 237.982 169.398 237.713V236.811C169.707 236.967 170.037 237.09 170.389 237.18C170.744 237.27 171.086 237.314 171.414 237.314C171.922 237.314 172.312 237.234 172.586 237.074C172.859 236.91 172.996 236.662 172.996 236.33C172.996 236.08 172.887 235.867 172.668 235.691C172.453 235.512 172.031 235.301 171.402 235.059C170.805 234.836 170.379 234.643 170.125 234.479C169.875 234.311 169.688 234.121 169.562 233.91C169.441 233.699 169.381 233.447 169.381 233.154C169.381 232.631 169.594 232.219 170.02 231.918C170.445 231.613 171.029 231.461 171.771 231.461C172.463 231.461 173.139 231.602 173.799 231.883L173.453 232.674C172.809 232.408 172.225 232.275 171.701 232.275C171.24 232.275 170.893 232.348 170.658 232.492C170.424 232.637 170.307 232.836 170.307 233.09C170.307 233.262 170.35 233.408 170.436 233.529C170.525 233.65 170.668 233.766 170.863 233.875C171.059 233.984 171.434 234.143 171.988 234.35C172.75 234.627 173.264 234.906 173.529 235.188C173.799 235.469 173.934 235.822 173.934 236.248ZM184.17 238L183.104 235.275H179.67L178.615 238H177.607L180.994 229.398H181.832L185.201 238H184.17ZM182.793 234.379L181.797 231.725C181.668 231.389 181.535 230.977 181.398 230.488C181.312 230.863 181.189 231.275 181.029 231.725L180.021 234.379H182.793ZM187.639 238L185.201 231.578H186.244L187.627 235.387C187.939 236.277 188.123 236.855 188.178 237.121H188.225C188.268 236.914 188.402 236.486 188.629 235.838C188.859 235.186 189.373 233.766 190.17 231.578H191.213L188.775 238H187.639ZM196.193 238L196 237.086H195.953C195.633 237.488 195.312 237.762 194.992 237.906C194.676 238.047 194.279 238.117 193.803 238.117C193.166 238.117 192.666 237.953 192.303 237.625C191.943 237.297 191.764 236.83 191.764 236.225C191.764 234.928 192.801 234.248 194.875 234.186L195.965 234.15V233.752C195.965 233.248 195.855 232.877 195.637 232.639C195.422 232.396 195.076 232.275 194.6 232.275C194.064 232.275 193.459 232.439 192.783 232.768L192.484 232.023C192.801 231.852 193.146 231.717 193.521 231.619C193.9 231.521 194.279 231.473 194.658 231.473C195.424 231.473 195.99 231.643 196.357 231.982C196.729 232.322 196.914 232.867 196.914 233.617V238H196.193ZM193.996 237.314C194.602 237.314 195.076 237.148 195.42 236.816C195.768 236.484 195.941 236.02 195.941 235.422V234.842L194.969 234.883C194.195 234.91 193.637 235.031 193.293 235.246C192.953 235.457 192.783 235.787 192.783 236.236C192.783 236.588 192.889 236.855 193.1 237.039C193.314 237.223 193.613 237.314 193.996 237.314ZM199.896 238H198.924V231.578H199.896V238ZM198.842 229.838C198.842 229.615 198.896 229.453 199.006 229.352C199.115 229.246 199.252 229.193 199.416 229.193C199.572 229.193 199.707 229.246 199.82 229.352C199.934 229.457 199.99 229.619 199.99 229.838C199.99 230.057 199.934 230.221 199.82 230.33C199.707 230.436 199.572 230.488 199.416 230.488C199.252 230.488 199.115 230.436 199.006 230.33C198.896 230.221 198.842 230.057 198.842 229.838ZM202.932 238H201.959V228.883H202.932V238ZM208.943 238L208.75 237.086H208.703C208.383 237.488 208.062 237.762 207.742 237.906C207.426 238.047 207.029 238.117 206.553 238.117C205.916 238.117 205.416 237.953 205.053 237.625C204.693 237.297 204.514 236.83 204.514 236.225C204.514 234.928 205.551 234.248 207.625 234.186L208.715 234.15V233.752C208.715 233.248 208.605 232.877 208.387 232.639C208.172 232.396 207.826 232.275 207.35 232.275C206.814 232.275 206.209 232.439 205.533 232.768L205.234 232.023C205.551 231.852 205.896 231.717 206.271 231.619C206.65 231.521 207.029 231.473 207.408 231.473C208.174 231.473 208.74 231.643 209.107 231.982C209.479 232.322 209.664 232.867 209.664 233.617V238H208.943ZM206.746 237.314C207.352 237.314 207.826 237.148 208.17 236.816C208.518 236.484 208.691 236.02 208.691 235.422V234.842L207.719 234.883C206.945 234.91 206.387 235.031 206.043 235.246C205.703 235.457 205.533 235.787 205.533 236.236C205.533 236.588 205.639 236.855 205.85 237.039C206.064 237.223 206.363 237.314 206.746 237.314ZM214.662 231.473C215.506 231.473 216.16 231.762 216.625 232.34C217.094 232.914 217.328 233.729 217.328 234.783C217.328 235.838 217.092 236.658 216.619 237.244C216.15 237.826 215.498 238.117 214.662 238.117C214.244 238.117 213.861 238.041 213.514 237.889C213.17 237.732 212.881 237.494 212.646 237.174H212.576L212.371 238H211.674V228.883H212.646V231.098C212.646 231.594 212.631 232.039 212.6 232.434H212.646C213.1 231.793 213.771 231.473 214.662 231.473ZM214.521 232.287C213.857 232.287 213.379 232.479 213.086 232.861C212.793 233.24 212.646 233.881 212.646 234.783C212.646 235.686 212.797 236.332 213.098 236.723C213.398 237.109 213.881 237.303 214.545 237.303C215.143 237.303 215.588 237.086 215.881 236.652C216.174 236.215 216.32 235.588 216.32 234.771C216.32 233.936 216.174 233.312 215.881 232.902C215.588 232.492 215.135 232.287 214.521 232.287ZM220.006 238H219.033V228.883H220.006V238ZM224.781 238.117C223.832 238.117 223.082 237.828 222.531 237.25C221.984 236.672 221.711 235.869 221.711 234.842C221.711 233.807 221.965 232.984 222.473 232.375C222.984 231.766 223.67 231.461 224.529 231.461C225.334 231.461 225.971 231.727 226.439 232.258C226.908 232.785 227.143 233.482 227.143 234.35V234.965H222.719C222.738 235.719 222.928 236.291 223.287 236.682C223.65 237.072 224.16 237.268 224.816 237.268C225.508 237.268 226.191 237.123 226.867 236.834V237.701C226.523 237.85 226.197 237.955 225.889 238.018C225.584 238.084 225.215 238.117 224.781 238.117ZM224.518 232.275C224.002 232.275 223.59 232.443 223.281 232.779C222.977 233.115 222.797 233.58 222.742 234.174H226.1C226.1 233.561 225.963 233.092 225.689 232.768C225.416 232.439 225.025 232.275 224.518 232.275Z" fill="#414141"/>
</g>
<rect x="2.5" y="2.5" width="352" height="261" rx="3.5" stroke="#F7F7F7"/>
</g>
<defs>
<filter id="filter0_d_4012:5051" x="0" y="0" width="361" height="270" filterUnits="userSpaceOnUse" color-interpolation-filters="sRGB">
<feFlood flood-opacity="0" result="BackgroundImageFix"/>
<feColorMatrix in="SourceAlpha" type="matrix" values="0 0 0 0 0 0 0 0 0 0 0 0 0 0 0 0 0 0 127 0" result="hardAlpha"/>
<feOffset dx="2" dy="2"/>
<feGaussianBlur stdDeviation="2"/>
<feColorMatrix type="matrix" values="0 0 0 0 0.7375 0 0 0 0 0.7375 0 0 0 0 0.7375 0 0 0 0.25 0"/>
<feBlend mode="normal" in2="BackgroundImageFix" result="effect1_dropShadow_4012:5051"/>
<feBlend mode="normal" in="SourceGraphic" in2="effect1_dropShadow_4012:5051" result="shape"/>
</filter>
<clipPath id="clip0_4012:5051">
<rect x="2" y="2" width="353" height="262" rx="4" fill="white"/>
</clipPath>
<clipPath id="clip1_4012:5051">
<rect width="180" height="180" fill="white" transform="translate(89 25)"/>
</clipPath>
</defs>
</svg>
