<svg width="320" height="224" viewBox="0 0 320 224" fill="none" xmlns="http://www.w3.org/2000/svg">
<path d="M270.186 155.558C269.854 155.191 269.607 154.756 269.462 154.284C269.316 153.811 269.276 153.313 269.344 152.823C269.412 152.333 269.587 151.864 269.855 151.449C270.124 151.034 270.48 150.683 270.899 150.421L268.22 138.705L274.063 140.894L275.711 151.684C276.104 152.417 276.215 153.269 276.023 154.079C275.831 154.889 275.348 155.6 274.667 156.078C273.986 156.555 273.154 156.766 272.328 156.67C271.502 156.574 270.739 156.179 270.186 155.558Z" fill="#FFB8B8"/>
<path d="M269.781 146.259L264.645 136.317L265.339 111.283L265.669 111.979C266.054 112.791 275.066 131.892 274.424 138.286L275.454 144.13L269.781 146.259Z" fill="#3F3D56"/>
<path d="M266.432 219.733H270.551L272.51 203.828L266.432 203.829L266.432 219.733Z" fill="#FFB8B8"/>
<path d="M265.382 218.387L273.493 218.386H273.493C274.864 218.387 276.179 218.932 277.148 219.902C278.118 220.873 278.662 222.189 278.662 223.561V223.729L265.382 223.73L265.382 218.387Z" fill="#2F2E41"/>
<path d="M225.737 216.599L229.705 217.704L235.849 202.907L229.993 201.276L225.737 216.599Z" fill="#FFB8B8"/>
<path d="M225.085 215.021L232.899 217.196L232.9 217.196C234.221 217.564 235.341 218.442 236.016 219.637C236.69 220.832 236.862 222.246 236.495 223.568L236.45 223.73L223.655 220.168L225.085 215.021Z" fill="#2F2E41"/>
<path d="M262.326 213.533L254.014 153.949L236.06 213.196L221.944 208.37L242.176 129.037L242.309 129.027L263.504 127.551L278.817 208.717L262.326 213.533Z" fill="#2F2E41"/>
<path d="M260.127 100.96C260.127 100.96 252.4 96.9238 241.986 98.6055C241.986 98.6055 236.443 111.994 241.986 117.324L243.498 130.725C243.498 130.725 257.608 139.134 262.311 129.38L261.639 118.281C261.639 118.281 264.998 112.958 262.311 109.061C260.7 106.68 259.931 103.829 260.127 100.96Z" fill="#6C63FF"/>
<path d="M261.106 161.918L262.462 133.744L258.624 100.228L258.8 100.201C263.835 99.4409 265.45 108.125 265.516 108.495L274.28 158.1L261.106 161.918Z" fill="#3F3D56"/>
<path d="M244.02 162.211L228.527 160.488L228.531 160.318C228.586 158.022 229.92 104.034 233.656 100.21C237.415 96.3637 244.507 98.028 244.807 98.1011L244.957 98.1372L243.682 120.982L244.02 162.211Z" fill="#3F3D56"/>
<path d="M246.874 129.944C246.404 130.098 245.907 130.147 245.417 130.088C244.926 130.029 244.455 129.863 244.036 129.602C243.616 129.341 243.259 128.991 242.99 128.576C242.72 128.162 242.545 127.694 242.475 127.204L230.694 124.893L235.066 120.438L245.583 123.315C246.412 123.253 247.236 123.498 247.896 124.003C248.557 124.508 249.01 125.239 249.169 126.056C249.328 126.873 249.183 127.72 248.759 128.436C248.336 129.153 247.665 129.689 246.874 129.944Z" fill="#FFB8B8"/>
<path d="M240.587 127.239L236.748 126.413C231.081 128.119 221.189 122.112 217.191 119.444C216.439 118.942 216.195 117.947 216.466 116.488C216.866 114.447 217.99 112.619 219.63 111.342L233.711 100.165L237.265 99.5701L238.32 105.559L229.349 115.205L242.555 122.402L240.587 127.239Z" fill="#3F3D56"/>
<path d="M239.068 93.5355V85.7697C239.068 82.4842 240.372 79.3332 242.693 77.01C245.013 74.6868 248.161 73.3816 251.442 73.3816C254.724 73.3816 257.872 74.6868 260.192 77.01C262.513 79.3332 263.816 82.4842 263.816 85.7697V93.5355C263.816 93.9766 263.641 94.3996 263.329 94.7116C263.017 95.0235 262.595 95.199 262.154 95.1995H240.731C240.29 95.199 239.867 95.0235 239.556 94.7116C239.244 94.3996 239.069 93.9766 239.068 93.5355Z" fill="#2F2E41"/>
<path d="M250.946 95.1231C255.956 95.1231 260.018 91.0567 260.018 86.0406C260.018 81.0244 255.956 76.958 250.946 76.958C245.935 76.958 241.873 81.0244 241.873 86.0406C241.873 91.0567 245.935 95.1231 250.946 95.1231Z" fill="#FFB8B8"/>
<path d="M241.624 86.0057C241.537 85.9055 241.473 85.7879 241.436 85.6607C241.399 85.5335 241.389 85.3998 241.408 85.2686L242.483 77.7766C242.504 77.6242 242.563 77.4795 242.654 77.3556C242.745 77.2317 242.866 77.1325 243.005 77.067C248.49 74.4969 254.053 74.4936 259.538 77.0573C259.684 77.1263 259.809 77.232 259.901 77.364C259.994 77.496 260.051 77.6497 260.066 77.8102L260.783 85.3119C260.796 85.4402 260.781 85.5696 260.74 85.6919C260.7 85.8141 260.634 85.9266 260.548 86.0219C260.461 86.1173 260.355 86.1934 260.238 86.2456C260.12 86.2977 259.993 86.3246 259.864 86.3245H258.045C257.869 86.3241 257.697 86.2738 257.549 86.1793C257.401 86.0849 257.283 85.9503 257.208 85.7912L256.423 84.1069C256.372 83.9978 256.287 83.9082 256.181 83.8517C256.075 83.7952 255.953 83.7747 255.834 83.7934C255.716 83.8121 255.606 83.869 255.523 83.9554C255.439 84.0419 255.386 84.1532 255.371 84.2726L255.216 85.5145C255.188 85.738 255.079 85.9436 254.91 86.0927C254.742 86.2418 254.524 86.3243 254.299 86.3245H242.322C242.19 86.3246 242.059 86.2961 241.938 86.2411C241.818 86.1861 241.711 86.1058 241.624 86.0057Z" fill="#2F2E41"/>
<path d="M203.525 14.9272H0V141.809H203.525V14.9272Z" fill="#E6E6E6"/>
<path d="M50.9235 39.3708H13.6478V63.6277H50.9235V39.3708Z" fill="white"/>
<path d="M97.2412 39.3708H59.9656V63.6277H97.2412V39.3708Z" fill="white"/>
<path d="M143.559 39.3708H106.283V63.6277H143.559V39.3708Z" fill="white"/>
<path d="M189.877 39.3708H152.601V63.6277H189.877V39.3708Z" fill="white"/>
<path d="M50.9235 73.7034H13.6478V97.9602H50.9235V73.7034Z" fill="white"/>
<path d="M97.2412 73.7034H59.9656V97.9602H97.2412V73.7034Z" fill="white"/>
<path d="M143.559 73.7034H106.283V97.9602H143.559V73.7034Z" fill="white"/>
<path d="M189.877 73.7034H152.601V97.9602H189.877V73.7034Z" fill="white"/>
<path d="M50.9235 108.036H13.6478V132.293H50.9235V108.036Z" fill="white"/>
<path d="M97.2412 108.036H59.9656V132.293H97.2412V108.036Z" fill="white"/>
<path d="M143.559 108.036H106.283V132.293H143.559V108.036Z" fill="white"/>
<path d="M189.877 108.036H152.601V132.293H189.877V108.036Z" fill="white"/>
<path d="M53.3044 29.8546C56.3924 29.8546 58.8957 27.3485 58.8957 24.2569C58.8957 21.1654 56.3924 18.6592 53.3044 18.6592C50.2163 18.6592 47.713 21.1654 47.713 24.2569C47.713 27.3485 50.2163 29.8546 53.3044 29.8546Z" fill="white"/>
<path d="M145.748 29.8546C148.836 29.8546 151.339 27.3484 151.339 24.2569C151.339 21.1654 148.836 18.6592 145.748 18.6592C142.66 18.6592 140.156 21.1654 140.156 24.2569C140.156 27.3484 142.66 29.8546 145.748 29.8546Z" fill="white"/>
<path d="M55.5406 0H51.0675V25.7496H55.5406V0Z" fill="#E6E6E6"/>
<path d="M147.985 0H143.511V25.7496H147.985V0Z" fill="#E6E6E6"/>
<path d="M179.669 51.4992C179.667 53.5258 178.935 55.4836 177.606 57.0129C176.278 58.5422 174.443 59.5403 172.439 59.8238C170.435 60.1072 168.395 59.657 166.696 58.5559C164.997 57.4548 163.751 55.7767 163.189 53.83C162.626 51.8832 162.784 49.7986 163.634 47.9592C164.483 46.1198 165.967 44.6491 167.813 43.8173C169.659 42.9856 171.743 42.8487 173.682 43.4318C175.62 44.0149 177.284 45.2787 178.366 46.9912C179.219 48.3398 179.67 49.9033 179.669 51.4992Z" fill="#6C63FF"/>
<path d="M178.366 46.9912L170.068 55.2968C169.547 54.4885 166.641 50.732 166.641 50.732C167.014 50.3553 167.411 50.0041 167.831 49.681L170.24 52.897L177.394 45.7346C177.757 46.1218 178.082 46.5426 178.366 46.9912Z" fill="white"/>
<path d="M87.0333 85.832C87.0314 87.8585 86.299 89.8163 84.9708 91.3456C83.6426 92.875 81.8077 93.873 79.8034 94.1565C77.799 94.44 75.7598 93.9898 74.0604 92.8887C72.361 91.7875 71.1156 90.1094 70.5531 88.1627C69.9905 86.216 70.1485 84.1314 70.9981 82.292C71.8477 80.4525 73.3319 78.9818 75.1778 78.1501C77.0237 77.3184 79.1074 77.1815 81.0461 77.7645C82.9847 78.3476 84.6481 79.6115 85.7306 81.324C86.583 82.6726 87.0348 84.236 87.0333 85.832Z" fill="#6C63FF"/>
<path d="M85.7304 81.324L77.4328 89.6295C76.9113 88.8212 74.0059 85.0648 74.0059 85.0648C74.3782 84.688 74.7755 84.3369 75.1952 84.0138L77.6044 87.2298L84.7587 80.0674C85.1215 80.4546 85.4468 80.8754 85.7304 81.324Z" fill="white"/>
<path d="M40.7154 85.8318C40.7135 87.8583 39.9811 89.8161 38.6529 91.3455C37.3247 92.8748 35.4898 93.8729 33.4854 94.1564C31.4811 94.4398 29.4418 93.9896 27.7424 92.8885C26.0431 91.7874 24.7977 90.1093 24.2351 88.1625C23.6725 86.2158 23.8305 84.1312 24.6802 82.2917C25.5298 80.4523 27.0139 78.9816 28.8598 78.1498C30.7057 77.3181 32.7895 77.1812 34.7281 77.7643C36.6668 78.3474 38.3302 79.6113 39.4126 81.3238C40.2651 82.6724 40.7169 84.2358 40.7154 85.8318Z" fill="#6C63FF"/>
<path d="M39.4126 81.324L31.115 89.6295C30.5935 88.8212 27.6881 85.0648 27.6881 85.0648C28.0605 84.688 28.4578 84.3369 28.8774 84.0138L31.2867 87.2298L38.4409 80.0674C38.8038 80.4546 39.1291 80.8754 39.4126 81.324Z" fill="white"/>
<path d="M319.63 224H178.899C178.801 224 178.707 223.961 178.638 223.892C178.568 223.822 178.53 223.728 178.53 223.63C178.53 223.532 178.568 223.438 178.638 223.369C178.707 223.299 178.801 223.26 178.899 223.26H319.63C319.728 223.26 319.822 223.299 319.892 223.369C319.961 223.438 320 223.532 320 223.63C320 223.728 319.961 223.822 319.892 223.892C319.822 223.961 319.728 224 319.63 224Z" fill="#3F3D56"/>
</svg>
