<svg width="197" height="144" viewBox="0 0 197 144" fill="none" xmlns="http://www.w3.org/2000/svg">
<g clip-path="url(#clip0)">
<path d="M119.82 68.1432C119.209 68.1422 118.621 67.9092 118.175 67.4911C117.729 67.0731 117.459 66.5013 117.419 65.8916L117.061 60.4332C117.02 59.7957 117.233 59.1677 117.654 58.6873C118.076 58.207 118.671 57.9137 119.308 57.8719L162.086 55.0713C163.447 54.9832 164.788 55.439 165.813 56.3386C166.838 57.2381 167.464 58.5078 167.553 59.8685C167.642 61.2292 167.187 62.5697 166.288 63.5952C165.389 64.6207 164.12 65.2474 162.759 65.3375L119.981 68.1379C119.927 68.1414 119.873 68.1431 119.82 68.1432Z" fill="#6C63FF"/>
<path d="M128.255 68.8469C127.632 68.8458 127.033 68.6038 126.585 68.1715C126.136 67.7392 125.872 67.1501 125.848 66.5276L125.543 58.3749C125.531 58.0588 125.582 57.7434 125.692 57.4468C125.802 57.1502 125.97 56.8782 126.185 56.6464C126.4 56.4145 126.659 56.2272 126.947 56.0954C127.234 55.9635 127.545 55.8896 127.861 55.8778L163.039 54.5634C163.677 54.5396 164.299 54.7704 164.768 55.205C165.236 55.6396 165.513 56.2424 165.537 56.8809L165.842 65.0336C165.853 65.3497 165.803 65.6651 165.693 65.9617C165.583 66.2583 165.415 66.5303 165.2 66.7622C164.985 66.994 164.726 67.1813 164.438 67.3131C164.15 67.445 163.84 67.5189 163.523 67.5307L128.346 68.8451C128.316 68.8463 128.285 68.8469 128.255 68.8469Z" fill="#2F2E41"/>
<path d="M169.477 144H164.005C163.366 143.999 162.754 143.745 162.302 143.294C161.85 142.842 161.596 142.23 161.595 141.591V96.0003C161.596 95.3616 161.85 94.7493 162.302 94.2977C162.754 93.8461 163.366 93.592 164.005 93.5913H169.477C170.116 93.592 170.728 93.8461 171.18 94.2977C171.632 94.7493 171.886 95.3616 171.887 96.0003V141.591C171.886 142.23 171.632 142.842 171.18 143.294C170.728 143.745 170.116 143.999 169.477 144Z" fill="#2F2E41"/>
<path d="M155.738 144H150.267C149.628 143.999 149.015 143.745 148.563 143.294C148.112 142.842 147.858 142.23 147.857 141.591V96.0003C147.858 95.3616 148.112 94.7493 148.563 94.2977C149.015 93.8461 149.628 93.592 150.267 93.5913H155.738C156.377 93.592 156.99 93.8461 157.442 94.2977C157.893 94.7493 158.148 95.3616 158.148 96.0003V141.591C158.148 142.23 157.893 142.842 157.442 143.294C156.99 143.745 156.377 143.999 155.738 144Z" fill="#2F2E41"/>
<path d="M161.166 46.0125C171.609 46.0125 180.074 37.5501 180.074 27.1112C180.074 16.6723 171.609 8.20996 161.166 8.20996C150.724 8.20996 142.259 16.6723 142.259 27.1112C142.259 37.5501 150.724 46.0125 161.166 46.0125Z" fill="#6C63FF"/>
<path d="M150.932 33.5649C150.324 33.3651 149.766 33.0374 149.295 32.604C148.983 32.2945 148.742 31.9205 148.59 31.5083C148.438 31.0961 148.377 30.6555 148.413 30.2176C148.433 29.9055 148.525 29.6023 148.681 29.3316C148.838 29.0608 149.055 28.8299 149.315 28.6569C149.991 28.2233 150.896 28.222 151.816 28.6277L151.782 21.2489L152.523 21.2454L152.564 29.9199L151.993 29.5607C151.33 29.1448 150.384 28.852 149.716 29.2808C149.55 29.3941 149.414 29.544 149.316 29.7187C149.218 29.8935 149.162 30.0885 149.152 30.2885C149.127 30.6147 149.172 30.9425 149.285 31.2495C149.398 31.5566 149.576 31.8357 149.807 32.0678C150.626 32.8496 151.82 33.0941 153.182 33.3126L153.065 34.0444C152.341 33.9485 151.627 33.7881 150.932 33.5649Z" fill="#2F2E41"/>
<path d="M144.139 20.8768L144.042 21.6116L148.001 22.1343L148.098 21.3995L144.139 20.8768Z" fill="#2F2E41"/>
<path d="M156.635 22.5255L156.537 23.2603L160.497 23.7829L160.594 23.0482L156.635 22.5255Z" fill="#2F2E41"/>
<path d="M145.071 108.232H145.071C144.236 108.231 143.435 107.899 142.844 107.309C142.253 106.718 141.921 105.917 141.92 105.082C141.92 105.082 146.944 77.8329 149.815 61.8619C150.373 58.7562 152.005 55.9455 154.426 53.9211C156.847 51.8967 159.903 50.7875 163.059 50.7874H163.059C167.58 50.7874 171.916 52.5827 175.113 55.7785C178.309 58.9742 180.105 63.3086 180.105 67.8281V73.2095C180.105 82.4981 176.414 91.4063 169.844 97.9744C163.274 104.542 154.363 108.232 145.071 108.232Z" fill="#2F2E41"/>
<path d="M168.925 105.505C168.732 105.927 168.42 106.285 168.027 106.535C167.635 106.784 167.178 106.915 166.713 106.912L161.241 106.864C160.925 106.862 160.612 106.797 160.321 106.673C160.03 106.549 159.765 106.37 159.544 106.144C159.322 105.918 159.147 105.651 159.028 105.358C158.91 105.065 158.85 104.751 158.853 104.435L159.224 61.5805C159.23 60.9048 159.369 60.2367 159.632 59.6146C159.896 58.9924 160.28 58.4283 160.762 57.9545C161.244 57.4807 161.815 57.1065 162.441 56.8532C163.068 56.5999 163.738 56.4726 164.414 56.4785C165.09 56.4843 165.759 56.6233 166.381 56.8874C167.003 57.1514 167.567 57.5355 168.041 58.0176C168.514 58.4997 168.888 59.0704 169.141 59.697C169.394 60.3236 169.521 60.994 169.515 61.6697L169.144 104.524C169.141 104.862 169.067 105.197 168.925 105.505Z" fill="#6C63FF"/>
<path d="M171.343 94.0643C171.149 94.4871 170.837 94.8448 170.445 95.0945C170.052 95.3442 169.596 95.4751 169.131 95.4716L159.785 95.3905C159.146 95.3842 158.536 95.1249 158.088 94.6693C157.64 94.2138 157.391 93.5993 157.396 92.9607L157.701 57.7714C157.704 57.4551 157.769 57.1423 157.893 56.8511C158.016 56.5599 158.196 56.2959 158.422 56.0741C158.647 55.8524 158.915 55.6772 159.208 55.5587C159.501 55.4402 159.815 55.3806 160.132 55.3834L169.477 55.4644C169.794 55.4671 170.107 55.5321 170.398 55.6557C170.689 55.7793 170.953 55.959 171.175 56.1847C171.397 56.4103 171.572 56.6774 171.691 56.9707C171.809 57.264 171.869 57.5778 171.866 57.8942L171.561 93.0835C171.558 93.4222 171.484 93.7565 171.343 94.0643Z" fill="#2F2E41"/>
<path d="M155.709 15.9736C152.763 16.4735 149.473 17.0451 146.666 15.6793C144.456 14.6042 142.936 12.457 143.475 9.93408C144.546 4.91317 150.296 2.69337 154.917 3.14133C157.634 3.39497 160.19 4.54682 162.179 6.41479C162.273 6.50417 162.392 6.56432 162.519 6.58797C162.647 6.61162 162.779 6.59775 162.899 6.54804C163.019 6.49833 163.122 6.4149 163.196 6.30786C163.269 6.20081 163.31 6.07473 163.314 5.94487C163.294 4.09214 164.681 2.54611 166.324 1.84821C168.381 0.974406 170.771 1.28666 172.885 1.75427C178.669 3.04389 183.923 6.06639 187.944 10.4184C191.965 14.7705 194.563 20.245 195.391 26.1115C195.98 30.2415 195.664 34.45 194.466 38.446C193.344 42.1295 191.273 45.8317 187.863 47.8358C184.79 49.6416 180.321 50.1067 177.485 47.5731C175.214 45.5437 174.19 41.7497 176.054 39.1242C176.603 38.3628 177.348 37.7642 178.209 37.3917C179.071 37.0192 180.018 36.8868 180.949 37.0085C181.829 37.1477 182.651 37.5364 183.317 38.1286C183.983 38.7208 184.465 39.4916 184.706 40.3496C184.883 41.1734 184.829 42.03 184.549 42.8248C184.269 43.6195 183.774 44.3214 183.12 44.8527C182.631 45.2039 182.076 45.452 181.488 45.5817C180.9 45.7114 180.292 45.7201 179.7 45.6072C179.109 45.4944 178.546 45.2623 178.047 44.9251C177.549 44.588 177.124 44.1528 176.799 43.6462C176.347 42.9218 175.196 43.5883 175.651 44.317C176.172 45.1327 176.887 45.8072 177.732 46.2808C178.576 46.7544 179.525 47.0125 180.493 47.0323C181.458 47.0499 182.41 46.8107 183.252 46.3393C184.094 45.8678 184.796 45.181 185.285 44.3492C185.81 43.5004 186.102 42.5285 186.131 41.5312C186.161 40.5338 185.927 39.5463 185.453 38.668C184.936 37.7723 184.198 37.0233 183.31 36.4918C182.422 35.9603 181.413 35.6638 180.379 35.6305C179.306 35.6221 178.247 35.8746 177.294 36.3664C176.34 36.8582 175.521 37.5745 174.906 38.4534C173.91 39.9743 173.543 41.8214 173.881 43.6071C174.181 45.4231 175.06 47.0935 176.388 48.3686C177.925 49.7595 179.903 50.5639 181.975 50.6403C186.483 50.8974 190.507 48.3012 192.994 44.6923C195.574 40.9476 196.727 36.2486 196.96 31.7562C197.197 27.1773 196.397 22.604 194.622 18.3766C192.846 14.1493 190.139 10.3768 186.703 7.34001C183.434 4.48045 179.601 2.33953 175.452 1.05611C171.345 -0.201604 165.611 -1.11838 162.837 3.07675C162.273 3.92626 161.976 4.92518 161.984 5.94491L163.119 5.47499C159.106 1.64154 152.798 0.672882 147.787 3.02927C145.271 4.2128 143.089 6.41358 142.306 9.12713C141.495 11.9427 142.668 14.7061 145.076 16.3029C148.352 18.476 152.414 17.8742 156.063 17.2553C156.904 17.1124 156.547 15.8314 155.709 15.9736V15.9736Z" fill="#2F2E41"/>
<path d="M114.134 97.6701H6.47436C4.75785 97.6681 3.11221 96.9856 1.89846 95.7722C0.684702 94.5588 0.00195837 92.9137 0 91.1978V26.8446C0.00195837 25.1287 0.684702 23.4835 1.89846 22.2702C3.11221 21.0568 4.75785 20.3743 6.47436 20.3723H114.134C115.85 20.3743 117.496 21.0568 118.71 22.2702C119.923 23.4835 120.606 25.1287 120.608 26.8446V91.1978C120.606 92.9137 119.923 94.5588 118.71 95.7722C117.496 96.9856 115.85 97.6681 114.134 97.6701ZM6.47436 21.4819C5.05211 21.4835 3.68859 22.049 2.68291 23.0544C1.67723 24.0597 1.11152 25.4228 1.10989 26.8446V91.1978C1.11152 92.6195 1.67723 93.9826 2.68291 94.988C3.68859 95.9934 5.05211 96.5589 6.47436 96.5605H114.134C115.556 96.5589 116.919 95.9934 117.925 94.988C118.931 93.9826 119.497 92.6195 119.498 91.1978V26.8446C119.497 25.4228 118.931 24.0597 117.925 23.0544C116.919 22.049 115.556 21.4835 114.134 21.4819H6.47436Z" fill="#3F3D56"/>
<path d="M20.903 35.5362C19.9883 35.5362 19.0942 35.265 18.3337 34.757C17.5732 34.2491 16.9805 33.527 16.6305 32.6823C16.2804 31.8375 16.1889 30.908 16.3673 30.0112C16.5457 29.1144 16.9862 28.2906 17.6329 27.6441C18.2797 26.9976 19.1037 26.5573 20.0008 26.3789C20.8979 26.2005 21.8277 26.292 22.6727 26.6419C23.5178 26.9919 24.24 27.5844 24.7482 28.3447C25.2563 29.1049 25.5275 29.9987 25.5275 30.9131C25.5262 32.1388 25.0385 33.3139 24.1715 34.1806C23.3045 35.0473 22.1291 35.5348 20.903 35.5362ZM20.903 27.3996C20.2079 27.3996 19.5283 27.6056 18.9504 27.9917C18.3724 28.3778 17.9219 28.9265 17.6559 29.5685C17.3899 30.2105 17.3203 30.917 17.4559 31.5986C17.5915 32.2801 17.9262 32.9062 18.4178 33.3976C18.9093 33.8889 19.5355 34.2236 20.2173 34.3591C20.8991 34.4947 21.6058 34.4251 22.248 34.1592C22.8902 33.8933 23.4391 33.4429 23.8253 32.8651C24.2115 32.2873 24.4176 31.608 24.4176 30.9131C24.4166 29.9816 24.046 29.0885 23.3871 28.4298C22.7282 27.7711 21.8348 27.4006 20.903 27.3996Z" fill="#3F3D56"/>
<path d="M98.9652 35.5362C98.0506 35.5362 97.1565 35.265 96.396 34.757C95.6355 34.2491 95.0427 33.527 94.6927 32.6823C94.3427 31.8375 94.2511 30.908 94.4296 30.0112C94.608 29.1144 95.0484 28.2906 95.6952 27.6441C96.3419 26.9976 97.166 26.5573 98.063 26.3789C98.9601 26.2005 99.8899 26.292 100.735 26.6419C101.58 26.9919 102.302 27.5844 102.81 28.3447C103.319 29.1049 103.59 29.9987 103.59 30.9131C103.588 32.1388 103.101 33.3139 102.234 34.1806C101.367 35.0473 100.191 35.5348 98.9652 35.5362ZM98.9652 27.3996C98.2701 27.3996 97.5906 27.6056 97.0126 27.9917C96.4346 28.3778 95.9841 28.9265 95.7181 29.5685C95.4521 30.2105 95.3825 30.917 95.5181 31.5986C95.6537 32.2801 95.9885 32.9062 96.48 33.3976C96.9715 33.8889 97.5978 34.2236 98.2796 34.3591C98.9613 34.4947 99.668 34.4251 100.31 34.1592C100.952 33.8933 101.501 33.4429 101.888 32.8651C102.274 32.2873 102.48 31.608 102.48 30.9131C102.479 29.9816 102.108 29.0885 101.449 28.4298C100.79 27.7711 99.8971 27.4006 98.9652 27.3996Z" fill="#3F3D56"/>
<path d="M31.8168 63.6444H11.8388C11.0051 63.6434 10.2058 63.3119 9.61625 62.7225C9.02672 62.1332 8.69508 61.3342 8.69409 60.5007V48.6657C8.69508 47.8322 9.02672 47.0332 9.61625 46.4438C10.2058 45.8545 11.0051 45.523 11.8388 45.522H31.8168C32.6505 45.523 33.4498 45.8545 34.0393 46.4438C34.6289 47.0332 34.9605 47.8322 34.9615 48.6657V60.5007C34.9605 61.3342 34.6289 62.1332 34.0393 62.7225C33.4498 63.3119 32.6505 63.6434 31.8168 63.6444Z" fill="#E6E6E6"/>
<path d="M70.293 63.6444H50.315C49.4813 63.6434 48.682 63.3119 48.0924 62.7225C47.5029 62.1332 47.1713 61.3342 47.1703 60.5007V48.6657C47.1713 47.8322 47.5029 47.0332 48.0924 46.4438C48.682 45.8545 49.4813 45.523 50.315 45.522H70.293C71.1267 45.523 71.926 45.8545 72.5155 46.4438C73.1051 47.0332 73.4367 47.8322 73.4377 48.6657V60.5007C73.4367 61.3342 73.1051 62.1332 72.5155 62.7225C71.926 63.3119 71.1267 63.6434 70.293 63.6444Z" fill="#E6E6E6"/>
<path d="M88.7912 45.8918C88.0555 45.8926 87.3503 46.1851 86.8301 46.7052C86.3099 47.2252 86.0173 47.9303 86.0165 48.6657V60.5007C86.0173 61.2362 86.3099 61.9412 86.8301 62.4613C87.3503 62.9813 88.0555 63.2738 88.7912 63.2746H108.769C109.505 63.2738 110.21 62.9813 110.73 62.4613C111.251 61.9412 111.543 61.2362 111.544 60.5007V48.6657C111.543 47.9303 111.251 47.2252 110.73 46.7052C110.21 46.1851 109.505 45.8926 108.769 45.8918H88.7912Z" fill="#E6E6E6"/>
<path d="M32.0019 87.3146H12.0238C11.1901 87.3136 10.3908 86.982 9.8013 86.3927C9.21178 85.8034 8.88014 85.0043 8.87915 84.1709V72.3358C8.88014 71.5024 9.21178 70.7033 9.8013 70.114C10.3908 69.5247 11.1901 69.1931 12.0238 69.1921H32.0019C32.8356 69.1931 33.6349 69.5247 34.2244 70.114C34.8139 70.7033 35.1456 71.5024 35.1466 72.3358V84.1709C35.1456 85.0043 34.8139 85.8034 34.2244 86.3927C33.6349 86.982 32.8356 87.3136 32.0019 87.3146Z" fill="#E6E6E6"/>
<path d="M70.4781 87.3146H50.5C49.6663 87.3136 48.867 86.982 48.2775 86.3927C47.688 85.8034 47.3563 85.0043 47.3553 84.1709V72.3358C47.3563 71.5024 47.688 70.7033 48.2775 70.114C48.867 69.5247 49.6663 69.1931 50.5 69.1921H70.4781C71.3118 69.1931 72.1111 69.5247 72.7006 70.114C73.2901 70.7033 73.6217 71.5024 73.6227 72.3358V84.1709C73.6217 85.0043 73.2901 85.8034 72.7006 86.3927C72.1111 86.982 71.3118 87.3136 70.4781 87.3146Z" fill="#E6E6E6"/>
<path d="M108.954 87.3146H88.9762C88.1425 87.3136 87.3432 86.982 86.7537 86.3927C86.1642 85.8034 85.8325 85.0043 85.8315 84.1709V72.3358C85.8325 71.5024 86.1642 70.7033 86.7537 70.114C87.3432 69.5247 88.1425 69.1931 88.9762 69.1921H108.954C109.788 69.1931 110.587 69.5247 111.177 70.114C111.766 70.7033 112.098 71.5024 112.099 72.3358V84.1709C112.098 85.0043 111.766 85.8034 111.177 86.3927C110.587 86.982 109.788 87.3136 108.954 87.3146Z" fill="#E6E6E6"/>
<path d="M20.9029 32.2074C20.5596 32.207 20.2305 32.0705 19.9878 31.8278C19.745 31.5852 19.6084 31.2561 19.608 30.913V12.4207C19.608 12.0774 19.7445 11.7481 19.9873 11.5054C20.2301 11.2626 20.5595 11.1262 20.9029 11.1262C21.2463 11.1262 21.5757 11.2626 21.8185 11.5054C22.0613 11.7481 22.1978 12.0774 22.1978 12.4207V30.913C22.1974 31.2561 22.0608 31.5852 21.8181 31.8278C21.5753 32.0705 21.2462 32.207 20.9029 32.2074Z" fill="#3F3D56"/>
<path d="M98.9652 32.2074C98.6219 32.207 98.2928 32.0705 98.05 31.8278C97.8073 31.5852 97.6707 31.2561 97.6703 30.913V12.4207C97.6703 12.0774 97.8067 11.7481 98.0496 11.5054C98.2924 11.2626 98.6217 11.1262 98.9652 11.1262C99.3086 11.1262 99.6379 11.2626 99.8808 11.5054C100.124 11.7481 100.26 12.0774 100.26 12.4207V30.913C100.26 31.2561 100.123 31.5852 99.8803 31.8278C99.6376 32.0705 99.3085 32.207 98.9652 32.2074Z" fill="#3F3D56"/>
<path d="M21.0725 59.3805C20.5278 59.3814 19.9976 59.2052 19.5618 58.8785L19.5348 58.8583L13.8445 54.5068C13.3122 54.0989 12.9639 53.4963 12.876 52.8316C12.7882 52.1669 12.9681 51.4946 13.3762 50.9625C13.7842 50.4305 14.387 50.0822 15.0518 49.9944C15.7167 49.9066 16.3893 50.0865 16.9215 50.4944L20.6072 53.3199L29.3168 41.9609C29.5187 41.6976 29.7706 41.4766 30.058 41.3105C30.3454 41.1445 30.6627 41.0366 30.9917 40.9932C31.3208 40.9497 31.6552 40.9715 31.9759 41.0573C32.2966 41.143 32.5972 41.2911 32.8606 41.493L32.8614 41.4935L32.8073 41.5685L32.8628 41.4935C33.3943 41.9018 33.742 42.5043 33.8297 43.1686C33.9173 43.8329 33.7378 44.5049 33.3304 45.037L23.0861 58.3916C22.8491 58.6993 22.5443 58.9483 22.1955 59.1193C21.8467 59.2903 21.4632 59.3786 21.0747 59.3775L21.0725 59.3805Z" fill="#6C63FF"/>
<path d="M60.6586 82.6808C60.1139 82.6817 59.5836 82.5055 59.1478 82.1788L59.1208 82.1586L53.4305 77.8071C52.8983 77.3991 52.5499 76.7966 52.4621 76.1319C52.3743 75.4672 52.5542 74.7949 52.9622 74.2628C53.3703 73.7308 53.973 73.3825 54.6379 73.2947C55.3028 73.2069 55.9753 73.3868 56.5076 73.7947L60.1933 76.6202L68.9028 65.2612C69.1048 64.9978 69.3566 64.7768 69.644 64.6108C69.9314 64.4448 70.2487 64.3369 70.5778 64.2935C70.9069 64.25 71.2413 64.2718 71.562 64.3576C71.8826 64.4433 72.1833 64.5913 72.4467 64.7932L72.4474 64.7938L72.3934 64.8688L72.4489 64.7938C72.9804 65.2021 73.3281 65.8046 73.4157 66.4689C73.5034 67.1332 73.3238 67.8052 72.9165 68.3373L62.6721 81.6919C62.4351 81.9996 62.1304 82.2486 61.7816 82.4196C61.4328 82.5906 61.0493 82.6789 60.6608 82.6778L60.6586 82.6808Z" fill="#6C63FF"/>
<path d="M98.0249 59.3805C97.4802 59.3814 96.9499 59.2052 96.5141 58.8785L96.4871 58.8583L90.7968 54.5068C90.2646 54.0989 89.9163 53.4963 89.8284 52.8316C89.7406 52.1669 89.9205 51.4946 90.3285 50.9625C90.7366 50.4305 91.3394 50.0822 92.0042 49.9944C92.6691 49.9066 93.3417 50.0865 93.8739 50.4944L97.5596 53.3199L106.269 41.9609C106.471 41.6976 106.723 41.4766 107.01 41.3105C107.298 41.1445 107.615 41.0366 107.944 40.9932C108.273 40.9497 108.608 40.9715 108.928 41.0573C109.249 41.143 109.55 41.2911 109.813 41.493L109.814 41.4935L109.76 41.5685L109.815 41.4935C110.347 41.9018 110.694 42.5043 110.782 43.1686C110.87 43.8329 110.69 44.5049 110.283 45.037L100.038 58.3916C99.8014 58.6993 99.4967 58.9483 99.1479 59.1193C98.7991 59.2903 98.4156 59.3786 98.0271 59.3775L98.0249 59.3805Z" fill="#6C63FF"/>
</g>
<defs>
<clipPath id="clip0">
<rect width="197" height="144" fill="white"/>
</clipPath>
</defs>
</svg>
