<svg width="314" height="174" viewBox="0 0 314 174" fill="none" xmlns="http://www.w3.org/2000/svg">
<g clip-path="url(#clip0)">
<path d="M161.575 173.11C156.611 173.842 151.587 174.085 146.576 173.836C134.492 173.224 122.608 169.703 112.452 163.083C107.949 160.148 103.654 156.541 101.323 151.697C98.1592 145.118 99.2656 136.789 103.783 131.059C105.431 128.992 107.458 127.26 109.755 125.955C110.095 125.762 110.443 125.577 110.794 125.399C114.622 123.471 118.921 122.683 123.182 123.127C130.426 123.92 137.112 128.353 140.974 134.547C144.415 140.07 145.614 146.586 146.321 153.117C146.454 154.347 146.569 155.581 146.68 156.808C146.064 160.363 145.096 163.847 143.79 167.209C143.723 167.373 143.669 167.541 143.627 167.713C144.367 169.322 145.071 170.945 145.74 172.583C146.368 172.925 147.071 173.103 147.786 173.102H161.546L161.575 173.11Z" fill="#F2F2F2"/>
<path d="M145.454 173.425C145.363 173.465 145.265 173.488 145.165 173.49C145.065 173.492 144.966 173.474 144.873 173.438C144.78 173.401 144.695 173.347 144.623 173.277C144.552 173.207 144.495 173.124 144.456 173.032C144.396 172.891 144.341 172.75 144.282 172.609C143.749 171.312 143.19 170.027 142.606 168.754C135.121 152.332 123.958 137.86 109.984 126.463C109.904 126.407 109.84 126.33 109.8 126.24C109.759 126.151 109.744 126.053 109.754 125.955C109.775 125.843 109.82 125.738 109.887 125.646C109.953 125.554 110.04 125.479 110.14 125.425C110.24 125.372 110.351 125.342 110.464 125.337C110.577 125.333 110.69 125.354 110.794 125.399C110.85 125.424 110.902 125.457 110.949 125.496C116.928 130.374 122.413 135.83 127.325 141.786C132.238 147.735 136.563 154.148 140.241 160.934C141.244 162.787 142.196 164.666 143.098 166.571C143.275 166.949 143.453 167.331 143.627 167.713C144.367 169.321 145.071 170.945 145.739 172.583C145.751 172.609 145.762 172.639 145.773 172.665C145.807 172.735 145.826 172.811 145.828 172.889C145.83 172.967 145.815 173.045 145.785 173.117C145.755 173.189 145.71 173.253 145.653 173.306C145.596 173.36 145.528 173.4 145.454 173.425Z" fill="white"/>
<path d="M96.3832 124.539C104.352 124.539 110.813 118.067 110.813 110.084C110.813 102.1 104.352 95.6284 96.3832 95.6284C88.4139 95.6284 81.9536 102.1 81.9536 110.084C81.9536 118.067 88.4139 124.539 96.3832 124.539Z" fill="#153E90"/>
<path d="M94.953 115.598C94.6283 115.599 94.3123 115.494 94.0525 115.298L94.0364 115.286L90.6454 112.685C90.4882 112.565 90.3563 112.415 90.2572 112.243C90.1581 112.071 90.0937 111.882 90.0676 111.685C90.0416 111.489 90.0545 111.289 90.1056 111.098C90.1566 110.906 90.2449 110.726 90.3652 110.569C90.4856 110.412 90.6357 110.28 90.8071 110.18C90.9784 110.081 91.1676 110.017 91.3638 109.991C91.56 109.965 91.7594 109.978 91.9505 110.029C92.1417 110.08 92.3209 110.169 92.478 110.289L94.6744 111.977L99.865 105.195C99.9854 105.038 100.136 104.906 100.307 104.807C100.478 104.708 100.667 104.643 100.863 104.617C101.06 104.591 101.259 104.604 101.45 104.656C101.641 104.707 101.82 104.795 101.977 104.916L101.945 104.96L101.978 104.916C102.295 105.16 102.502 105.52 102.554 105.917C102.607 106.313 102.5 106.715 102.257 107.033L96.1516 115.009C96.0104 115.193 95.8288 115.342 95.6209 115.444C95.4131 115.546 95.1845 115.599 94.953 115.598Z" fill="white"/>
<path d="M313.559 174H0.440242C0.323625 174 0.211902 173.953 0.12956 173.87C0.0472186 173.788 0.000976562 173.676 0.000976562 173.559C0.000976562 173.442 0.0472186 173.33 0.12956 173.247C0.211902 173.164 0.323625 173.118 0.440242 173.117H313.559C313.676 173.118 313.788 173.164 313.87 173.247C313.952 173.33 313.998 173.442 313.998 173.559C313.998 173.676 313.952 173.788 313.87 173.87C313.788 173.953 313.676 174 313.559 174Z" fill="#3F3D56"/>
<path d="M61.2503 50.3881C67.1638 50.3881 71.9577 45.5856 71.9577 39.6615C71.9577 33.7373 67.1638 28.9348 61.2503 28.9348C55.3367 28.9348 50.5428 33.7373 50.5428 39.6615C50.5428 45.5856 55.3367 50.3881 61.2503 50.3881Z" fill="#2F2E41"/>
<path d="M52.8924 33.8781C54.6227 32.1447 54.9734 29.6857 53.6757 28.3856C52.378 27.0856 49.9233 27.4369 48.193 29.1703C46.4627 30.9037 46.1121 33.3627 47.4098 34.6628C48.7075 35.9628 51.1622 35.6115 52.8924 33.8781Z" fill="#2F2E41"/>
<path d="M72.4098 30.4717C73.1307 28.781 71.8909 26.6298 69.6407 25.6668C67.3904 24.7038 64.9817 25.2938 64.2608 26.9845C63.5399 28.6753 64.7797 30.8265 67.0299 31.7895C69.2802 32.7525 71.6889 32.1625 72.4098 30.4717Z" fill="#2F2E41"/>
<path d="M91.0658 101.591C91.3364 101.076 91.4909 100.507 91.5185 99.926C91.546 99.3446 91.446 98.7641 91.2254 98.2256C91.0049 97.687 90.6691 97.2035 90.2418 96.809C89.8145 96.4145 89.3061 96.1187 88.7523 95.9423L73.2808 63.1548L66.2037 68.1264L83.6371 98.7922C83.403 99.7438 83.5255 100.748 83.9814 101.615C84.4373 102.483 85.1948 103.152 86.1105 103.497C87.0262 103.842 88.0364 103.839 88.9497 103.487C89.863 103.136 90.6159 102.461 91.0658 101.591V101.591Z" fill="#FFB8B8"/>
<path d="M76.8286 68.6249L68.6117 72.3058C68.3779 72.4105 68.1243 72.4635 67.8682 72.4612C67.6121 72.4589 67.3595 72.4014 67.1277 72.2924C66.8958 72.1835 66.6901 72.0258 66.5245 71.8301C66.3589 71.6343 66.2374 71.4051 66.1683 71.1581L63.7452 62.5022C63.2171 61.3009 63.1861 59.9388 63.659 58.7146C64.1319 57.4904 65.07 56.504 66.2677 55.9717C67.4655 55.4394 68.825 55.4045 70.0483 55.8749C71.2716 56.3452 72.2589 57.2823 72.7935 58.4807L77.6039 66.0353C77.7416 66.2517 77.8311 66.4952 77.8663 66.7493C77.9015 67.0035 77.8817 67.2622 77.8081 67.5079C77.7346 67.7537 77.609 67.9807 77.4399 68.1734C77.2709 68.3662 77.0624 68.5201 76.8286 68.6249Z" fill="#CCCCCC"/>
<path d="M38.88 104.842C39.446 104.71 39.9763 104.456 40.4335 104.096C40.8908 103.737 41.2638 103.282 41.5264 102.763C41.789 102.243 41.9348 101.673 41.9534 101.091C41.9721 100.509 41.8632 99.9302 41.6344 99.3951L56.2868 66.2321L47.9049 64.1172L36.1377 97.3804C35.2659 97.8251 34.5872 98.5746 34.2302 99.4871C33.8732 100.4 33.8627 101.412 34.2007 102.331C34.5387 103.251 35.2018 104.014 36.0642 104.477C36.9266 104.94 37.9285 105.07 38.88 104.842H38.88Z" fill="#FFB8B8"/>
<path d="M34.8857 164.952L39.148 166.507L47.1623 150.777L40.8714 148.483L34.8857 164.952Z" fill="#FFB8B8"/>
<path d="M45.9274 173.47L32.5317 168.584L34.4162 163.399L42.6362 166.398C44.0089 166.898 45.1268 167.925 45.744 169.251C46.3612 170.577 46.4271 172.095 45.9274 173.47Z" fill="#2F2E41"/>
<path d="M44.9675 155.9C44.706 155.9 44.4477 155.842 44.2113 155.73L39.3129 153.406C38.9113 153.217 38.5948 152.885 38.4258 152.474C38.2568 152.063 38.2474 151.603 38.3996 151.186L52.2237 112.835C52.3382 112.518 52.5403 112.239 52.8065 112.032C53.0726 111.825 53.392 111.697 53.7275 111.665C54.063 111.632 54.4009 111.695 54.7019 111.847C55.0029 111.999 55.2547 112.234 55.4281 112.523L62.7399 124.731C62.9026 125.003 62.9902 125.314 62.9936 125.631C62.9969 125.948 62.916 126.26 62.7592 126.536L46.5215 155.003C46.3641 155.276 46.1376 155.503 45.8648 155.66C45.5919 155.818 45.2824 155.901 44.9675 155.9Z" fill="#2F2E41"/>
<path d="M61.5899 51.3259C66.6086 51.3259 70.6772 47.25 70.6772 42.2223C70.6772 37.1945 66.6086 33.1187 61.5899 33.1187C56.5711 33.1187 52.5026 37.1945 52.5026 42.2223C52.5026 47.25 56.5711 51.3259 61.5899 51.3259Z" fill="#FFB8B8"/>
<path d="M74.4454 83.6128L58.3553 79.18L49.7976 62.0341C49.3865 61.2104 49.1924 60.2951 49.2337 59.3751C49.275 58.4551 49.5504 57.561 50.0337 56.7776C50.517 55.9942 51.1922 55.3476 51.9951 54.8991C52.798 54.4507 53.7021 54.2153 54.6214 54.2153H67.4227C68.7515 54.2145 70.0337 54.7057 71.0228 55.5947C74.4568 58.6764 81.6714 67.5611 74.515 83.4578L74.4454 83.6128Z" fill="#CCCCCC"/>
<path d="M54.3035 72.163L46.1514 68.3403C45.9194 68.2315 45.7136 68.0739 45.5479 67.8783C45.3822 67.6827 45.2606 67.4535 45.1913 67.2066C45.122 66.9596 45.1066 66.7005 45.1462 66.447C45.1858 66.1936 45.2795 65.9516 45.4209 65.7377L50.3752 58.2421C50.9375 57.0565 51.9461 56.1427 53.18 55.7009C54.4138 55.2591 55.7721 55.3255 56.9572 55.8854C58.1422 56.4454 59.0573 57.4532 59.5018 58.688C59.9462 59.9228 59.8838 61.2837 59.3282 62.4725L56.7664 71.0579C56.6929 71.3037 56.5675 71.5307 56.3986 71.7236C56.2297 71.9164 56.0213 72.0705 55.7875 72.1754C55.5538 72.2803 55.3003 72.3335 55.0442 72.3313C54.7881 72.3292 54.5354 72.2718 54.3035 72.163Z" fill="#CCCCCC"/>
<path d="M64.1665 169.251H68.7022L70.8603 151.723L64.1654 151.724L64.1665 169.251Z" fill="#FFB8B8"/>
<path d="M77.4501 173.47L63.1942 173.47L63.1939 167.953L71.9419 167.952C73.4027 167.952 74.8037 168.533 75.8367 169.568C76.8697 170.603 77.45 172.006 77.4501 173.47Z" fill="#2F2E41"/>
<path d="M65.8787 162.572C65.4708 162.572 65.0752 162.432 64.7586 162.174C64.442 161.917 64.2237 161.558 64.1406 161.158C62.8367 155.004 56.0651 123.48 50.7798 107.243C45.4024 90.723 54.5605 83.1983 56.451 81.8577C56.6523 81.7153 56.8122 81.5218 56.9145 81.2971L58.288 78.2703C58.4304 77.9579 58.6594 77.693 58.9479 77.5072C59.2363 77.3215 59.572 77.2227 59.9149 77.2227H59.926C70.2222 77.2843 73.6836 80.5358 74.6938 81.931C74.8428 82.1388 74.945 82.3766 74.9931 82.6279C75.0413 82.8791 75.0343 83.1379 74.9727 83.3862L68.458 110.312C68.4177 110.479 68.4085 110.652 68.4311 110.822L74.9126 159.711C74.9438 159.946 74.9279 160.185 74.8659 160.414C74.804 160.643 74.6972 160.857 74.5517 161.044C74.4063 161.231 74.2252 161.387 74.0189 161.503C73.8126 161.619 73.5853 161.693 73.3502 161.72L66.0879 162.56C66.0184 162.568 65.9486 162.572 65.8787 162.572Z" fill="#2F2E41"/>
<path d="M52.0406 36.496C54.1172 37.9299 56.582 38.6929 59.104 38.6828C58.2043 39.3077 57.1802 39.7298 56.102 39.9201C59.4552 40.6406 62.9208 40.6602 66.2819 39.9774C67.029 39.8574 67.7499 39.6093 68.4129 39.2441C68.7434 39.0593 69.0312 38.8068 69.2579 38.5032C69.4845 38.1996 69.6448 37.8516 69.7283 37.4818C69.9517 36.2036 68.9575 35.0423 67.9243 34.2597C66.3424 33.0797 64.5184 32.2667 62.5844 31.8795C60.6504 31.4924 58.6546 31.5407 56.7416 32.0211C55.4924 32.3445 54.241 32.8911 53.4296 33.8961C52.6182 34.9011 52.3779 36.4504 53.1509 37.4853L52.0406 36.496Z" fill="#2F2E41"/>
<path d="M218.849 75.9836C221.506 75.9836 223.659 73.8263 223.659 71.1652C223.659 68.504 221.506 66.3467 218.849 66.3467C216.193 66.3467 214.04 68.504 214.04 71.1652C214.04 73.8263 216.193 75.9836 218.849 75.9836Z" fill="#153E90"/>
<path d="M218.373 73.0032C218.264 73.0035 218.159 72.9684 218.072 72.9034L218.067 72.8993L216.937 72.0323C216.884 71.9922 216.84 71.9421 216.807 71.8849C216.774 71.8277 216.752 71.7645 216.743 71.6989C216.735 71.6333 216.739 71.5666 216.756 71.5027C216.773 71.4387 216.802 71.3788 216.843 71.3263C216.883 71.2737 216.933 71.2297 216.99 71.1966C217.047 71.1635 217.11 71.142 217.176 71.1334C217.241 71.1248 217.308 71.1292 217.372 71.1464C217.436 71.1636 217.495 71.1933 217.548 71.2337L218.28 71.7961L220.01 69.5356C220.05 69.4832 220.1 69.4392 220.157 69.4061C220.214 69.3731 220.277 69.3516 220.343 69.343C220.408 69.3343 220.475 69.3386 220.538 69.3557C220.602 69.3728 220.662 69.4023 220.714 69.4425L220.703 69.4571L220.714 69.4427C220.82 69.524 220.889 69.6439 220.906 69.7761C220.924 69.9084 220.888 70.0421 220.807 70.148L218.772 72.8069C218.725 72.8682 218.665 72.9178 218.595 72.9518C218.526 72.9859 218.45 73.0035 218.373 73.0032Z" fill="white"/>
<path d="M218.849 90.0686C221.506 90.0686 223.659 87.9113 223.659 85.2501C223.659 82.5889 221.506 80.4316 218.849 80.4316C216.193 80.4316 214.04 82.5889 214.04 85.2501C214.04 87.9113 216.193 90.0686 218.849 90.0686Z" fill="#153E90"/>
<path d="M218.373 87.0882C218.264 87.0884 218.159 87.0534 218.072 86.9883L218.067 86.9843L216.937 86.1173C216.884 86.0772 216.84 86.0271 216.807 85.9699C216.774 85.9127 216.752 85.8494 216.743 85.7838C216.735 85.7183 216.739 85.6516 216.756 85.5876C216.773 85.5237 216.802 85.4638 216.843 85.4112C216.883 85.3587 216.933 85.3146 216.99 85.2815C217.047 85.2484 217.11 85.227 217.176 85.2184C217.241 85.2098 217.308 85.2142 217.372 85.2314C217.436 85.2486 217.495 85.2783 217.548 85.3186L218.28 85.881L220.01 83.6206C220.05 83.5681 220.1 83.5241 220.157 83.4911C220.214 83.458 220.277 83.4366 220.343 83.4279C220.408 83.4193 220.475 83.4236 220.538 83.4407C220.602 83.4578 220.662 83.4872 220.714 83.5275L220.703 83.5421L220.714 83.5277C220.82 83.6089 220.889 83.7288 220.906 83.8611C220.924 83.9933 220.888 84.1271 220.807 84.233L218.772 86.8919C218.725 86.9531 218.665 87.0027 218.595 87.0368C218.526 87.0708 218.45 87.0884 218.373 87.0882Z" fill="white"/>
<path d="M221.439 106.377C224.096 106.377 226.249 104.22 226.249 101.559C226.249 98.8975 224.096 96.7402 221.439 96.7402C218.783 96.7402 216.629 98.8975 216.629 101.559C216.629 104.22 218.783 106.377 221.439 106.377Z" fill="#153E90"/>
<path d="M220.962 103.397C220.854 103.397 220.749 103.362 220.662 103.297L220.657 103.293L219.527 102.426C219.474 102.386 219.43 102.336 219.397 102.278C219.364 102.221 219.342 102.158 219.333 102.092C219.325 102.027 219.329 101.96 219.346 101.896C219.363 101.832 219.392 101.772 219.432 101.72C219.473 101.667 219.523 101.623 219.58 101.59C219.637 101.557 219.7 101.536 219.766 101.527C219.831 101.518 219.898 101.523 219.962 101.54C220.025 101.557 220.085 101.587 220.137 101.627L220.87 102.19L222.6 99.9291C222.64 99.8767 222.69 99.8327 222.747 99.7997C222.804 99.7666 222.867 99.7452 222.933 99.7365C222.998 99.7279 223.064 99.7322 223.128 99.7493C223.192 99.7664 223.252 99.7958 223.304 99.836L223.293 99.8507L223.304 99.8363C223.41 99.9175 223.479 100.037 223.496 100.17C223.514 100.302 223.478 100.436 223.397 100.542L221.362 103.2C221.315 103.262 221.254 103.311 221.185 103.345C221.116 103.379 221.04 103.397 220.962 103.397Z" fill="white"/>
<path d="M267.819 141.789C267.769 141.789 267.738 141.788 267.727 141.787L261.755 141.788V140.906H267.749C267.887 140.911 270.718 140.991 273.327 137.82C277.214 133.095 280.406 121.397 273.539 92.5027C264.305 53.6507 272.006 19.3272 275.746 6.37348C275.93 5.73261 275.963 5.05759 275.842 4.40176C275.721 3.74594 275.45 3.12727 275.049 2.59464C274.648 2.06201 274.13 1.63002 273.534 1.33279C272.938 1.03557 272.281 0.881258 271.615 0.882049H182.435C181.757 0.88296 181.089 1.04401 180.485 1.35212C179.881 1.66024 179.357 2.10674 178.958 2.65539C177.373 4.83853 175.199 9.03253 173.839 16.616L172.972 16.4601C174.362 8.71188 176.607 4.39449 178.245 2.13684C178.727 1.47575 179.357 0.937723 180.085 0.566444C180.813 0.195165 181.618 0.0010981 182.435 2.40057e-06H271.615C272.417 -0.000771029 273.209 0.185356 273.927 0.54368C274.645 0.902003 275.27 1.4227 275.753 2.06465C276.235 2.70659 276.563 3.45218 276.708 4.24252C276.854 5.03285 276.814 5.84629 276.592 6.61854C272.871 19.505 265.21 53.6505 274.395 92.2986C281.359 121.599 278.011 133.55 273.977 138.417C271.315 141.627 268.383 141.789 267.819 141.789Z" fill="#E6E6E6"/>
<path d="M251.751 157.886C251.701 157.886 251.67 157.885 251.659 157.884L245.687 157.885V157.003H251.68C251.82 157.007 254.65 157.088 257.258 153.917C261.145 149.192 264.338 137.494 257.47 108.6C248.236 69.7479 255.938 35.4243 259.678 22.4707C259.862 21.8298 259.895 21.1548 259.774 20.4989C259.653 19.8431 259.381 19.2244 258.981 18.6918C258.58 18.1592 258.061 17.7272 257.465 17.43C256.869 17.1327 256.213 16.9784 255.547 16.9792H166.367C165.689 16.9801 165.021 17.1412 164.417 17.4493C163.812 17.7574 163.289 18.2039 162.889 18.7526C161.305 20.9357 159.131 25.1297 157.771 32.7132L156.904 32.5573C158.294 24.8091 160.539 20.4917 162.177 18.234C162.659 17.5729 163.289 17.0349 164.017 16.6636C164.745 16.2923 165.55 16.0983 166.367 16.0972H255.547C256.349 16.0964 257.141 16.2825 257.859 16.6409C258.577 16.9992 259.202 17.5199 259.685 18.1618C260.167 18.8038 260.494 19.5494 260.64 20.3397C260.785 21.13 260.746 21.9435 260.523 22.7157C256.803 35.6022 249.141 69.7477 258.327 108.396C265.291 137.696 261.943 149.648 257.908 154.514C255.247 157.724 252.315 157.886 251.751 157.886Z" fill="#CCCCCC"/>
<path d="M242.258 124.495C233.071 85.8468 240.734 51.6986 244.456 38.8147C244.677 38.0424 244.717 37.2291 244.571 36.4389C244.425 35.6487 244.098 34.9033 243.616 34.2614C243.133 33.6195 242.508 33.0987 241.791 32.74C241.073 32.3814 240.282 32.1948 239.479 32.1948H150.298C149.481 32.1956 148.676 32.3894 147.948 32.7603C147.221 33.1313 146.591 33.669 146.109 34.3298C142.509 39.2891 135.039 55.735 143.383 101.24C147.844 125.584 147.778 142.182 146.32 153.116C145.502 159.273 144.241 163.632 143.097 166.571L142.976 166.882C142.735 167.477 142.609 168.112 142.606 168.754C142.597 169.479 142.742 170.197 143.031 170.862C143.32 171.526 143.746 172.122 144.282 172.609C144.631 172.937 145.026 173.211 145.454 173.424C145.81 173.606 146.187 173.744 146.576 173.836C146.972 173.933 147.378 173.981 147.785 173.98H235.591C235.602 173.98 235.632 173.984 235.683 173.984C236.246 173.984 239.18 173.821 241.84 170.611C245.873 165.745 249.221 153.795 242.258 124.495ZM241.189 170.014C238.58 173.187 235.75 173.106 235.613 173.102H147.785C147.082 173.102 146.39 172.929 145.769 172.599C145.148 172.269 144.617 171.791 144.222 171.208C143.875 170.704 143.642 170.13 143.54 169.526C143.437 168.923 143.466 168.304 143.627 167.713C143.669 167.541 143.723 167.372 143.789 167.209C145.095 163.847 146.063 160.363 146.679 156.808C148.766 145.411 149.154 127.823 144.248 101.081C135.968 55.9129 143.29 39.7154 146.82 34.8487C147.22 34.3008 147.743 33.855 148.348 33.5473C148.952 33.2395 149.62 33.0784 150.298 33.077H239.479C240.145 33.0765 240.801 33.231 241.397 33.5282C241.992 33.8254 242.511 34.2572 242.911 34.7895C243.312 35.3219 243.583 35.9402 243.704 36.5956C243.825 37.2511 243.792 37.9257 243.609 38.5663C239.868 51.5206 232.169 85.8467 241.403 124.699C248.27 153.591 245.077 165.289 241.189 170.014Z" fill="#3F3D56"/>
<path d="M199.891 74.2787H153.943C153.009 74.2787 152.114 73.907 151.453 73.2454C150.793 72.5837 150.422 71.6863 150.422 70.7506C150.422 69.8149 150.793 68.9174 151.453 68.2558C152.114 67.5941 153.009 67.2224 153.943 67.2224H199.891C200.825 67.2224 201.721 67.5941 202.381 68.2558C203.042 68.9174 203.413 69.8149 203.413 70.7506C203.413 71.6863 203.042 72.5837 202.381 73.2454C201.721 73.907 200.825 74.2787 199.891 74.2787Z" fill="#CCCCCC"/>
<path d="M199.891 89.4755H153.943C153.009 89.4755 152.114 89.1038 151.453 88.4421C150.793 87.7805 150.422 86.8831 150.422 85.9474C150.422 85.0116 150.793 84.1142 151.453 83.4526C152.114 82.7909 153.009 82.4192 153.943 82.4192H199.891C200.825 82.4192 201.721 82.7909 202.381 83.4526C203.042 84.1142 203.413 85.0116 203.413 85.9474C203.413 86.8831 203.042 87.7805 202.381 88.4421C201.721 89.1038 200.825 89.4755 199.891 89.4755Z" fill="#CCCCCC"/>
<path d="M203.591 105.043H157.643C156.709 105.043 155.814 104.671 155.153 104.01C154.493 103.348 154.122 102.45 154.122 101.515C154.122 100.579 154.493 99.6816 155.153 99.0199C155.814 98.3583 156.709 97.9866 157.643 97.9866H203.591C204.525 97.9866 205.421 98.3583 206.081 99.0199C206.742 99.6816 207.113 100.579 207.113 101.515C207.113 102.45 206.742 103.348 206.081 104.01C205.421 104.671 204.525 105.043 203.591 105.043Z" fill="#CCCCCC"/>
<path d="M206.181 121.352H160.233C159.299 121.352 158.403 120.98 157.743 120.318C157.082 119.657 156.711 118.759 156.711 117.824C156.711 116.888 157.082 115.99 157.743 115.329C158.403 114.667 159.299 114.295 160.233 114.295H206.181C207.115 114.295 208.01 114.667 208.671 115.329C209.331 115.99 209.702 116.888 209.702 117.824C209.702 118.759 209.331 119.657 208.671 120.318C208.01 120.98 207.115 121.352 206.181 121.352Z" fill="#CCCCCC"/>
<path d="M206.2 46.884H173.183C172.72 46.8844 172.262 46.7935 171.834 46.6164C171.406 46.4393 171.018 46.1795 170.69 45.8519C170.363 45.5242 170.103 45.1351 169.926 44.7068C169.749 44.2785 169.657 43.8194 169.657 43.3558C169.657 42.8922 169.749 42.4331 169.926 42.0048C170.103 41.5765 170.363 41.1874 170.69 40.8597C171.018 40.5321 171.406 40.2723 171.834 40.0952C172.262 39.9181 172.72 39.8272 173.183 39.8276H206.2C207.134 39.8276 208.03 40.1994 208.69 40.861C209.351 41.5227 209.722 42.4201 209.722 43.3558C209.722 44.2915 209.351 45.1889 208.69 45.8506C208.03 46.5122 207.134 46.884 206.2 46.884Z" fill="#153E90"/>
<path d="M224.399 122.642C227.056 122.642 229.209 120.485 229.209 117.823C229.209 115.162 227.056 113.005 224.399 113.005C221.743 113.005 219.589 115.162 219.589 117.823C219.589 120.485 221.743 122.642 224.399 122.642Z" fill="#CCCCCC"/>
<path d="M208.401 137.29H162.453C161.519 137.29 160.623 136.918 159.963 136.256C159.302 135.595 158.931 134.697 158.931 133.762C158.931 132.826 159.302 131.928 159.963 131.267C160.623 130.605 161.519 130.233 162.453 130.233H208.401C209.335 130.233 210.23 130.605 210.891 131.267C211.551 131.928 211.922 132.826 211.922 133.762C211.922 134.697 211.551 135.595 210.891 136.256C210.23 136.918 209.335 137.29 208.401 137.29Z" fill="#CCCCCC"/>
<path d="M226.619 138.58C229.276 138.58 231.429 136.423 231.429 133.762C231.429 131.1 229.276 128.943 226.619 128.943C223.963 128.943 221.809 131.1 221.809 133.762C221.809 136.423 223.963 138.58 226.619 138.58Z" fill="#CCCCCC"/>
</g>
<defs>
<clipPath id="clip0">
<rect width="314" height="174" fill="white"/>
</clipPath>
</defs>
</svg>
