<svg width="185" height="136" viewBox="0 0 185 136" fill="none" xmlns="http://www.w3.org/2000/svg">
<g clip-path="url(#clip0_4012:4415)">
<path d="M43.2818 22.1087C43.2818 22.1087 69.3266 37.8445 108.921 8.42139C144.085 -17.7085 172.798 23.5187 172.999 43.2617C173.259 68.8365 137.834 89.3003 155.026 106.098C172.217 122.896 120.933 150.635 93.2931 126.629C58.9102 96.7661 49.5955 121.03 29.9975 121.03C15.9317 121.03 -12.9466 93.204 6.55461 72.5024C22.9647 55.0824 14.0149 49.301 9.68088 43.2617C3.42895 34.5516 18.2761 10.9101 43.2818 22.1087Z" fill="#F2FAFF"/>
<path d="M112.521 64.3578C111.947 64.3569 111.395 64.1368 110.976 63.7419C110.558 63.3471 110.304 62.8072 110.266 62.2313L109.931 57.0762C109.891 56.474 110.092 55.8809 110.487 55.4272C110.883 54.9736 111.442 54.6966 112.041 54.6571L152.213 52.0121C153.491 51.9289 154.75 52.3594 155.713 53.209C156.675 54.0586 157.263 55.2577 157.347 56.5428C157.431 57.828 157.003 59.0939 156.159 60.0625C155.315 61.031 154.123 61.6229 152.844 61.708L112.672 64.3528C112.622 64.3561 112.571 64.3577 112.521 64.3578Z" fill="#153E90"/>
<path d="M120.443 65.0218C119.858 65.0208 119.295 64.7922 118.874 64.3839C118.453 63.9756 118.205 63.4193 118.182 62.8314L117.896 55.1316C117.885 54.833 117.933 54.5352 118.036 54.255C118.139 53.9749 118.297 53.718 118.499 53.499C118.701 53.2801 118.944 53.1032 119.214 52.9787C119.484 52.8541 119.776 52.7843 120.073 52.7732L153.108 51.5319C153.707 51.5094 154.291 51.7273 154.731 52.1377C155.171 52.5482 155.431 53.1175 155.453 53.7205L155.74 61.4204C155.751 61.7189 155.703 62.0168 155.6 62.2969C155.497 62.577 155.339 62.8339 155.137 63.0529C154.935 63.2719 154.692 63.4487 154.422 63.5732C154.152 63.6978 153.86 63.7676 153.563 63.7787L120.528 65.0201C120.5 65.0213 120.471 65.0218 120.443 65.0218Z" fill="#52B6C3"/>
<path d="M159.155 136H154.017C153.417 135.999 152.842 135.759 152.417 135.333C151.993 134.906 151.755 134.328 151.754 133.725V90.6668C151.755 90.0636 151.993 89.4853 152.417 89.0587C152.842 88.6322 153.417 88.3923 154.017 88.3916H159.155C159.755 88.3923 160.331 88.6322 160.755 89.0587C161.179 89.4853 161.418 90.0636 161.418 90.6668V133.725C161.418 134.328 161.179 134.906 160.755 135.333C160.331 135.759 159.755 135.999 159.155 136V136Z" fill="#52B6C3"/>
<path d="M146.253 136H141.115C140.515 135.999 139.939 135.759 139.515 135.333C139.091 134.906 138.852 134.328 138.852 133.725V90.6668C138.852 90.0636 139.091 89.4853 139.515 89.0587C139.939 88.6322 140.515 88.3923 141.115 88.3916H146.253C146.853 88.3923 147.428 88.6322 147.852 89.0587C148.277 89.4853 148.515 90.0636 148.516 90.6668V133.725C148.515 134.328 148.277 134.906 147.852 135.333C147.428 135.759 146.853 135.999 146.253 136V136Z" fill="#52B6C3"/>
<path d="M151.349 43.4563C161.155 43.4563 169.105 35.464 169.105 25.6051C169.105 15.7462 161.155 7.75391 151.349 7.75391C141.543 7.75391 133.594 15.7462 133.594 25.6051C133.594 35.464 141.543 43.4563 151.349 43.4563Z" fill="#153E90"/>
<path d="M141.738 31.7005C141.167 31.5118 140.643 31.2024 140.2 30.793C139.907 30.5007 139.682 30.1475 139.539 29.7582C139.396 29.3689 139.339 28.9528 139.373 28.5392C139.391 28.2445 139.477 27.9581 139.624 27.7024C139.771 27.4467 139.975 27.2286 140.22 27.0652C140.855 26.6557 141.704 26.6545 142.568 27.0376L142.536 20.0688L143.232 20.0654L143.271 28.2581L142.734 27.9188C142.112 27.526 141.223 27.2495 140.596 27.6545C140.441 27.7615 140.312 27.903 140.22 28.0681C140.128 28.2331 140.075 28.4173 140.066 28.6062C140.042 28.9143 140.085 29.2238 140.191 29.5138C140.298 29.8038 140.465 30.0674 140.681 30.2866C141.45 31.025 142.572 31.2559 143.851 31.4623L143.741 32.1534C143.061 32.0629 142.391 31.9113 141.738 31.7005V31.7005Z" fill="white"/>
<path d="M135.357 19.7172L135.266 20.4111L138.983 20.9048L139.075 20.2108L135.357 19.7172Z" fill="white"/>
<path d="M147.095 21.2738L147.004 21.9678L150.722 22.4614L150.813 21.7675L147.095 21.2738Z" fill="white"/>
<path d="M136.233 102.219H136.233C135.448 102.219 134.696 101.905 134.141 101.347C133.586 100.789 133.274 100.033 133.273 99.2442C133.273 99.2442 137.991 73.5088 140.687 58.4251C141.211 55.492 142.744 52.8374 145.017 50.9255C147.291 49.0135 150.161 47.9659 153.125 47.9658H153.125C157.37 47.9658 161.442 49.6614 164.444 52.6797C167.446 55.6979 169.133 59.7915 169.133 64.0599V69.1423C169.133 77.9149 165.666 86.3282 159.497 92.5314C153.327 98.7346 144.958 102.219 136.233 102.219V102.219Z" fill="#52B6C3"/>
<path d="M158.635 99.6434C158.453 100.043 158.16 100.381 157.791 100.616C157.423 100.852 156.994 100.976 156.557 100.972L151.419 100.928C151.122 100.925 150.828 100.864 150.555 100.747C150.281 100.63 150.033 100.46 149.825 100.247C149.616 100.034 149.452 99.782 149.341 99.505C149.229 99.228 149.173 98.9316 149.176 98.6328L149.525 58.1596C149.53 57.5214 149.66 56.8905 149.908 56.3029C150.156 55.7153 150.516 55.1825 150.969 54.735C151.421 54.2876 151.957 53.9341 152.546 53.6949C153.134 53.4557 153.764 53.3355 154.399 53.341C155.034 53.3465 155.661 53.4778 156.245 53.7272C156.83 53.9766 157.359 54.3393 157.804 54.7946C158.249 55.2499 158.6 55.7889 158.838 56.3807C159.075 56.9726 159.195 57.6056 159.189 58.2438L158.84 98.7171C158.838 99.0369 158.768 99.3526 158.635 99.6434Z" fill="#153E90"/>
<path d="M160.906 88.8388C160.724 89.238 160.431 89.5759 160.062 89.8117C159.694 90.0475 159.265 90.1712 158.828 90.1678L150.052 90.0912C149.452 90.0853 148.879 89.8404 148.458 89.4102C148.038 88.9799 147.804 88.3996 147.809 87.7964L148.095 54.5621C148.098 54.2633 148.159 53.968 148.275 53.6929C148.391 53.4179 148.56 53.1685 148.772 52.9591C148.984 52.7497 149.235 52.5842 149.51 52.4723C149.786 52.3604 150.081 52.3041 150.378 52.3067L159.154 52.3832C159.451 52.3858 159.745 52.4472 160.019 52.5639C160.292 52.6806 160.54 52.8504 160.749 53.0635C160.957 53.2766 161.121 53.5288 161.233 53.8059C161.344 54.0829 161.4 54.3792 161.397 54.678L161.111 87.9124C161.108 88.2323 161.039 88.548 160.906 88.8388Z" fill="#52B6C3"/>
<path d="M146.225 15.0862C143.458 15.5583 140.369 16.0982 137.732 14.8082C135.657 13.7928 134.23 11.7649 134.736 9.38218C135.742 4.64021 141.141 2.54374 145.481 2.96682C148.033 3.20636 150.432 4.29422 152.301 6.05841C152.389 6.14283 152.5 6.19964 152.62 6.22197C152.74 6.24431 152.864 6.23121 152.977 6.18426C153.09 6.13731 153.186 6.05852 153.256 5.95742C153.325 5.85632 153.363 5.73725 153.366 5.6146C153.348 3.8648 154.65 2.40466 156.193 1.74553C158.125 0.920272 160.369 1.21518 162.354 1.65681C167.787 2.87478 172.72 5.72937 176.496 9.83964C180.273 13.9499 182.712 19.1203 183.49 24.6609C184.043 28.5614 183.746 32.5361 182.621 36.3101C181.568 39.7889 179.622 43.2855 176.42 45.1782C173.534 46.8838 169.338 47.323 166.675 44.9301C164.541 43.0134 163.58 39.4303 165.33 36.9507C165.846 36.2316 166.545 35.6662 167.355 35.3144C168.164 34.9626 169.053 34.8376 169.927 34.9525C170.754 35.0839 171.526 35.451 172.151 36.0103C172.777 36.5697 173.23 37.2977 173.456 38.1079C173.622 38.886 173.571 39.695 173.308 40.4456C173.045 41.1962 172.581 41.8591 171.966 42.3608C171.507 42.6926 170.986 42.9269 170.433 43.0494C169.881 43.1719 169.31 43.1801 168.755 43.0735C168.199 42.9669 167.671 42.7477 167.203 42.4293C166.734 42.1109 166.335 41.6999 166.03 41.2214C165.606 40.5373 164.525 41.1667 164.952 41.855C165.441 42.6253 166.113 43.2623 166.906 43.7096C167.699 44.1569 168.59 44.4007 169.499 44.4194C170.405 44.436 171.299 44.2101 172.09 43.7649C172.881 43.3196 173.54 42.6709 173.999 41.8854C174.492 41.0837 174.766 40.1658 174.794 39.2239C174.822 38.282 174.602 37.3493 174.157 36.5198C173.671 35.6738 172.978 34.9664 172.145 34.4645C171.311 33.9625 170.364 33.6825 169.392 33.651C168.385 33.6431 167.39 33.8816 166.495 34.3461C165.599 34.8105 164.83 35.487 164.252 36.3171C163.318 37.7535 162.973 39.498 163.29 41.1845C163.572 42.8996 164.397 44.4772 165.644 45.6815C167.087 46.9951 168.945 47.7548 170.891 47.827C175.124 48.0697 178.903 45.6178 181.238 42.2094C183.661 38.6728 184.745 34.2348 184.963 29.9919C185.185 25.6674 184.435 21.3482 182.767 17.3557C181.099 13.3632 178.557 9.80034 175.33 6.93223C172.261 4.23153 168.662 2.20956 164.765 0.997438C160.909 -0.190404 155.523 -1.05625 152.919 2.90582C152.389 3.70814 152.11 4.65156 152.118 5.61463L153.184 5.17083C149.415 1.55035 143.491 0.635499 138.786 2.86098C136.422 3.97876 134.373 6.05727 133.639 8.62006C132.876 11.2792 133.979 13.8891 136.239 15.3972C139.316 17.4496 143.131 16.8812 146.557 16.2966C147.347 16.1617 147.012 14.9518 146.225 15.0862Z" fill="#414141"/>
<path d="M107.181 92.2436H6.07998C4.46803 92.2418 2.92263 91.5972 1.78281 90.4512C0.642994 89.3052 0.00183907 87.7515 0 86.1309V25.353C0.00183907 23.7323 0.642994 22.1786 1.78281 21.0326C2.92263 19.8867 4.46803 19.2421 6.07998 19.2402H107.181C108.793 19.2421 110.339 19.8867 111.479 21.0326C112.618 22.1786 113.26 23.7323 113.261 25.353V86.1309C113.26 87.7515 112.618 89.3052 111.479 90.4512C110.339 91.5972 108.793 92.2418 107.181 92.2436ZM6.07998 20.2881C4.74437 20.2897 3.4639 20.8238 2.51949 21.7733C1.57507 22.7228 1.04382 24.0102 1.04228 25.353V86.1309C1.04382 87.4737 1.57507 88.7611 2.51949 89.7106C3.4639 90.6601 4.74437 91.1942 6.07998 91.1957H107.181C108.517 91.1942 109.797 90.6601 110.742 89.7106C111.686 88.7611 112.218 87.4737 112.219 86.1309V25.353C112.218 24.0102 111.686 22.7228 110.742 21.7733C109.797 20.8238 108.517 20.2897 107.181 20.2881H6.07998Z" fill="#414141"/>
<path d="M19.628 33.5616C18.7691 33.5616 17.9294 33.3055 17.2152 32.8257C16.5011 32.346 15.9444 31.664 15.6157 30.8662C15.287 30.0684 15.201 29.1905 15.3686 28.3435C15.5362 27.4966 15.9498 26.7186 16.5572 26.1079C17.1645 25.4973 17.9383 25.0815 18.7808 24.913C19.6232 24.7445 20.4964 24.831 21.2899 25.1615C22.0835 25.4919 22.7618 26.0516 23.239 26.7696C23.7162 27.4876 23.9709 28.3318 23.9709 29.1953C23.9696 30.3529 23.5116 31.4627 22.6974 32.2813C21.8833 33.0998 20.7794 33.5603 19.628 33.5616V33.5616ZM19.628 25.877C18.9752 25.877 18.3371 26.0716 17.7943 26.4362C17.2515 26.8009 16.8285 27.3191 16.5787 27.9255C16.3289 28.5318 16.2635 29.199 16.3909 29.8427C16.5182 30.4864 16.8326 31.0777 17.2942 31.5418C17.7557 32.0058 18.3439 32.3219 18.9841 32.4499C19.6243 32.578 20.288 32.5122 20.8911 32.2611C21.4942 32.0099 22.0097 31.5846 22.3723 31.0389C22.735 30.4932 22.9286 29.8516 22.9286 29.1953C22.9276 28.3156 22.5795 27.4721 21.9608 26.85C21.342 26.2279 20.5031 25.878 19.628 25.877Z" fill="#414141"/>
<path d="M92.9366 33.5616C92.0777 33.5616 91.238 33.3055 90.5238 32.8257C89.8097 32.346 89.253 31.664 88.9243 30.8662C88.5956 30.0684 88.5096 29.1905 88.6772 28.3435C88.8448 27.4966 89.2584 26.7186 89.8657 26.1079C90.4731 25.4973 91.2469 25.0815 92.0893 24.913C92.9318 24.7445 93.805 24.831 94.5985 25.1615C95.3921 25.4919 96.0703 26.0516 96.5475 26.7696C97.0247 27.4876 97.2794 28.3318 97.2794 29.1953C97.2781 30.3529 96.8202 31.4627 96.006 32.2813C95.1919 33.0998 94.088 33.5603 92.9366 33.5616V33.5616ZM92.9366 25.877C92.2838 25.877 91.6457 26.0716 91.1029 26.4362C90.5601 26.8009 90.1371 27.3191 89.8873 27.9255C89.6375 28.5318 89.5721 29.199 89.6995 29.8427C89.8268 30.4864 90.1412 31.0777 90.6027 31.5418C91.0643 32.0058 91.6524 32.3219 92.2927 32.4499C92.9329 32.578 93.5966 32.5122 94.1997 32.2611C94.8028 32.0099 95.3182 31.5846 95.6809 31.0389C96.0436 30.4932 96.2372 29.8516 96.2372 29.1953C96.2362 28.3156 95.8881 27.4721 95.2693 26.85C94.6506 26.2279 93.8117 25.878 92.9366 25.877V25.877Z" fill="#414141"/>
<path d="M29.8783 60.1088H11.1172C10.3343 60.1079 9.58366 59.7948 9.03004 59.2382C8.47643 58.6816 8.16499 57.9269 8.16406 57.1398V45.9622C8.16499 45.1751 8.47643 44.4204 9.03004 43.8638C9.58366 43.3072 10.3343 42.9941 11.1172 42.9932H29.8783C30.6612 42.9941 31.4118 43.3072 31.9654 43.8638C32.5191 44.4204 32.8305 45.1751 32.8314 45.9622V57.1398C32.8305 57.9269 32.5191 58.6816 31.9654 59.2382C31.4118 59.7948 30.6612 60.1079 29.8783 60.1088V60.1088Z" fill="#E8E7E7"/>
<path d="M66.0111 60.1088H47.25C46.4671 60.1079 45.7165 59.7948 45.1629 59.2382C44.6092 58.6816 44.2978 57.9269 44.2969 57.1398V45.9622C44.2978 45.1751 44.6092 44.4204 45.1629 43.8638C45.7165 43.3072 46.4671 42.9941 47.25 42.9932H66.0111C66.794 42.9941 67.5446 43.3072 68.0982 43.8638C68.6519 44.4204 68.9633 45.1751 68.9642 45.9622V57.1398C68.9633 57.9269 68.6519 58.6816 68.0982 59.2382C67.5446 59.7948 66.794 60.1079 66.0111 60.1088V60.1088Z" fill="#E8E7E7"/>
<path d="M83.383 43.3428C82.6922 43.3435 82.0299 43.6198 81.5414 44.1109C81.0529 44.602 80.7781 45.2679 80.7773 45.9625V57.1401C80.7781 57.8346 81.0529 58.5005 81.5414 58.9917C82.0299 59.4828 82.6922 59.759 83.383 59.7598H102.144C102.835 59.759 103.497 59.4828 103.986 58.9917C104.474 58.5005 104.749 57.8346 104.75 57.1401V45.9625C104.749 45.2679 104.474 44.602 103.986 44.1109C103.497 43.6198 102.835 43.3435 102.144 43.3428H83.383Z" fill="#E8E7E7"/>
<path d="M30.0541 82.4633H11.293C10.51 82.4624 9.75944 82.1492 9.20583 81.5926C8.65221 81.036 8.34077 80.2814 8.33984 79.4942V68.3167C8.34078 67.5295 8.65221 66.7749 9.20583 66.2183C9.75944 65.6617 10.51 65.3486 11.293 65.3477H30.0541C30.837 65.3486 31.5876 65.6617 32.1412 66.2183C32.6948 66.7749 33.0063 67.5295 33.0072 68.3167V79.4942C33.0063 80.2814 32.6948 81.036 32.1412 81.5926C31.5876 82.1492 30.837 82.4624 30.0541 82.4633V82.4633Z" fill="#E8E7E7"/>
<path d="M66.1869 82.4633H47.4258C46.6429 82.4624 45.8923 82.1492 45.3386 81.5926C44.785 81.036 44.4736 80.2814 44.4727 79.4942V68.3167C44.4736 67.5295 44.785 66.7749 45.3386 66.2183C45.8923 65.6617 46.6429 65.3486 47.4258 65.3477H66.1869C66.9698 65.3486 67.7204 65.6617 68.274 66.2183C68.8276 66.7749 69.1391 67.5295 69.14 68.3167V79.4942C69.1391 80.2814 68.8276 81.036 68.274 81.5926C67.7204 82.1492 66.9698 82.4624 66.1869 82.4633V82.4633Z" fill="#E8E7E7"/>
<path d="M102.316 82.4633H83.5547C82.7718 82.4624 82.0212 82.1492 81.4675 81.5926C80.9139 81.036 80.6025 80.2814 80.6016 79.4942V68.3167C80.6025 67.5295 80.9139 66.7749 81.4675 66.2183C82.0212 65.6617 82.7718 65.3486 83.5547 65.3477H102.316C103.099 65.3486 103.849 65.6617 104.403 66.2183C104.957 66.7749 105.268 67.5295 105.269 68.3167V79.4942C105.268 80.2814 104.957 81.036 104.403 81.5926C103.849 82.1492 103.099 82.4624 102.316 82.4633V82.4633Z" fill="#E8E7E7"/>
<path d="M19.6301 30.4178C19.3077 30.4174 18.9986 30.2885 18.7707 30.0593C18.5427 29.8301 18.4145 29.5194 18.4141 29.1953V11.7304C18.4141 11.4061 18.5422 11.0952 18.7702 10.8659C18.9983 10.6366 19.3076 10.5078 19.6301 10.5078C19.9526 10.5078 20.2618 10.6366 20.4899 10.8659C20.7179 11.0952 20.8461 11.4061 20.8461 11.7304V29.1953C20.8457 29.5194 20.7174 29.8301 20.4895 30.0593C20.2615 30.2885 19.9524 30.4174 19.6301 30.4178V30.4178Z" fill="#414141"/>
<path d="M92.9387 30.4178C92.6163 30.4174 92.3072 30.2885 92.0792 30.0593C91.8513 29.8301 91.723 29.5194 91.7227 29.1953V11.7304C91.7227 11.4061 91.8508 11.0952 92.0788 10.8659C92.3069 10.6366 92.6162 10.5078 92.9387 10.5078C93.2612 10.5078 93.5705 10.6366 93.7985 10.8659C94.0265 11.0952 94.1547 11.4061 94.1547 11.7304V29.1953C94.1543 29.5194 94.026 29.8301 93.7981 30.0593C93.5701 30.2885 93.261 30.4174 92.9387 30.4178V30.4178Z" fill="#414141"/>
<path d="M19.788 56.0816C19.2764 56.0825 18.7785 55.9161 18.3692 55.6076L18.3439 55.5884L13.0002 51.4787C12.5004 51.0934 12.1732 50.5243 12.0908 49.8966C12.0083 49.2689 12.1772 48.6339 12.5604 48.1314C12.9436 47.6288 13.5097 47.2999 14.134 47.217C14.7584 47.1341 15.39 47.304 15.8898 47.6892L19.351 50.3577L27.53 39.6298C27.7197 39.3811 27.9562 39.1724 28.2261 39.0156C28.496 38.8587 28.794 38.7569 29.103 38.7159C29.412 38.6748 29.7261 38.6954 30.0272 38.7764C30.3283 38.8574 30.6106 38.9972 30.858 39.1879L30.8587 39.1884L30.808 39.2592L30.8601 39.1884C31.3592 39.574 31.6857 40.143 31.768 40.7704C31.8504 41.3978 31.6817 42.0324 31.2992 42.535L21.6789 55.1477C21.4563 55.4383 21.1701 55.6735 20.8426 55.835C20.515 55.9964 20.1549 56.0799 19.79 56.0788L19.788 56.0816Z" fill="#153E90"/>
<path d="M56.9638 78.0875C56.4522 78.0884 55.9543 77.922 55.545 77.6134L55.5197 77.5943L50.176 73.4845C49.6762 73.0993 49.349 72.5302 49.2666 71.9025C49.1841 71.2747 49.353 70.6397 49.7362 70.1372C50.1194 69.6347 50.6854 69.3058 51.3098 69.2229C51.9342 69.14 52.5658 69.3098 53.0656 69.6951L56.5268 72.3636L64.7058 61.6357C64.8955 61.387 65.132 61.1782 65.4019 61.0214C65.6718 60.8646 65.9697 60.7628 66.2788 60.7217C66.5878 60.6807 66.9019 60.7012 67.203 60.7822C67.5041 60.8632 67.7864 61.003 68.0338 61.1937L68.0345 61.1942L67.9837 61.2651L68.0359 61.1942C68.535 61.5799 68.8615 62.1488 68.9438 62.7763C69.0262 63.4037 68.8575 64.0383 68.475 64.5409L58.8547 77.1536C58.6321 77.4442 58.3459 77.6794 58.0184 77.8408C57.6908 78.0023 57.3306 78.0857 56.9658 78.0847L56.9638 78.0875Z" fill="#153E90"/>
<path d="M92.0536 56.0816C91.5421 56.0825 91.0441 55.9161 90.6349 55.6076L90.6095 55.5884L85.2658 51.4787C84.766 51.0934 84.4389 50.5243 84.3564 49.8966C84.2739 49.2689 84.4429 48.6339 84.8261 48.1314C85.2092 47.6288 85.7753 47.2999 86.3997 47.217C87.0241 47.1341 87.6556 47.304 88.1555 47.6892L91.6167 50.3577L99.7957 39.6298C99.9853 39.3811 100.222 39.1724 100.492 39.0156C100.762 38.8587 101.06 38.7569 101.369 38.7159C101.678 38.6748 101.992 38.6954 102.293 38.7764C102.594 38.8574 102.876 38.9972 103.124 39.1879L103.124 39.1884L103.074 39.2592L103.126 39.1884C103.625 39.574 103.951 40.143 104.034 40.7704C104.116 41.3978 103.947 42.0324 103.565 42.535L93.9445 55.1477C93.7219 55.4383 93.4358 55.6735 93.1082 55.835C92.7806 55.9964 92.4205 56.0799 92.0557 56.0788L92.0536 56.0816Z" fill="#153E90"/>
</g>
<defs>
<clipPath id="clip0_4012:4415">
<rect width="185" height="136" fill="white"/>
</clipPath>
</defs>
</svg>
