<svg width="237" height="213" viewBox="0 0 237 213" fill="none" xmlns="http://www.w3.org/2000/svg">
<g clip-path="url(#clip0)">
<path d="M58.7204 54.0309C54.6452 41.8787 42.0605 35.1246 33.7816 37.8875C25.5027 40.6504 19.5253 53.599 23.6005 65.7512C27.3726 76.9996 38.8026 83.4933 46.6656 82.3345C46.6089 82.4329 46.5715 82.5412 46.5556 82.6535L46.3152 84.654C46.2968 84.8065 46.3179 84.9611 46.3763 85.1032C46.4348 85.2453 46.5286 85.3702 46.649 85.4659C46.7694 85.5616 46.9124 85.625 47.0642 85.6502C47.2161 85.6753 47.3719 85.6613 47.5169 85.6094L51.5672 84.1606C51.7121 84.1088 51.8414 84.0209 51.9427 83.9052C52.044 83.7895 52.1139 83.6499 52.1459 83.4997C52.1779 83.3494 52.1709 83.1935 52.1255 83.0467C52.0801 82.9 51.9979 82.7672 51.8866 82.6611L50.4266 81.2689C50.3746 81.2215 50.3173 81.1804 50.2557 81.1464C57.2688 77.3762 62.5007 65.3038 58.7204 54.0309Z" fill="#F2F2F2"/>
<path d="M43.9676 45.0902C47.3519 46.8326 49.9364 49.8047 51.1877 53.3929C52.439 56.9812 52.2616 60.9117 50.692 64.3733C50.3415 65.1692 51.6304 65.5877 51.9785 64.797C53.6265 61.0516 53.7941 56.8232 52.4478 52.9597C51.1015 49.0962 48.3407 45.8833 44.7192 43.9653C43.9548 43.5612 43.1975 44.6832 43.9676 45.0902Z" fill="white"/>
<path d="M223.71 36.3171C219.635 24.1648 207.05 17.4108 198.772 20.1736C190.493 22.9365 184.515 35.8851 188.59 48.0373C192.363 59.2858 203.793 65.7795 211.656 64.6206C211.599 64.719 211.561 64.8273 211.546 64.9397L211.305 66.9401C211.287 67.0926 211.308 67.2472 211.366 67.3893C211.425 67.5314 211.519 67.6563 211.639 67.752C211.759 67.8477 211.902 67.9112 212.054 67.9363C212.206 67.9614 212.362 67.9474 212.507 67.8955L216.557 66.4467C216.702 66.3949 216.831 66.307 216.933 66.1913C217.034 66.0756 217.104 65.936 217.136 65.7858C217.168 65.6355 217.161 65.4796 217.115 65.3329C217.07 65.1861 216.988 65.0533 216.877 64.9472L215.417 63.555C215.365 63.5076 215.307 63.4665 215.246 63.4325C222.259 59.6623 227.491 47.5899 223.71 36.3171Z" fill="#F2F2F2"/>
<path d="M208.958 27.3766C212.342 29.119 214.926 32.091 216.178 35.6793C217.429 39.2676 217.251 43.1981 215.682 46.6596C215.331 47.4555 216.62 47.8741 216.968 47.0834C218.616 43.338 218.784 39.1096 217.438 35.2461C216.091 31.3826 213.331 28.1697 209.709 26.2517C208.945 25.8476 208.187 26.9695 208.958 27.3766Z" fill="white"/>
<path d="M127.898 16.7582C123.823 4.60598 111.238 -2.14806 102.959 0.614796C94.6801 3.37765 88.7027 16.3263 92.7779 28.4785C96.55 39.7269 107.98 46.2206 115.843 45.0618C115.786 45.1602 115.749 45.2685 115.733 45.3808L115.493 47.3813C115.474 47.5338 115.495 47.6884 115.554 47.8305C115.612 47.9726 115.706 48.0974 115.826 48.1932C115.947 48.2889 116.09 48.3523 116.242 48.3774C116.394 48.4026 116.549 48.3885 116.694 48.3367L120.745 46.8879C120.89 46.8361 121.019 46.7481 121.12 46.6325C121.221 46.5168 121.291 46.3772 121.323 46.2269C121.355 46.0767 121.348 45.9208 121.303 45.774C121.257 45.6273 121.175 45.4945 121.064 45.3884L119.604 43.9962C119.552 43.9488 119.495 43.9077 119.433 43.8737C126.446 40.1034 131.678 28.0311 127.898 16.7582Z" fill="#F2F2F2"/>
<path d="M113.145 7.81753C116.529 9.5599 119.114 12.532 120.365 16.1202C121.616 19.7085 121.439 23.639 119.869 27.1005C119.519 27.8965 120.808 28.315 121.156 27.5243C122.804 23.7789 122.972 19.5505 121.625 15.687C120.279 11.8235 117.518 8.61059 113.897 6.6926C113.132 6.28853 112.375 7.41046 113.145 7.81753Z" fill="white"/>
<path d="M107.459 75.2327C107.995 75.2327 108.43 74.7991 108.43 74.2642C108.43 73.7293 107.995 73.2957 107.459 73.2957C106.923 73.2957 106.488 73.7293 106.488 74.2642C106.488 74.7991 106.923 75.2327 107.459 75.2327Z" fill="#CCCCCC"/>
<path d="M105.39 114.084C106.449 114.084 107.308 113.228 107.308 112.171C107.308 111.114 106.449 110.258 105.39 110.258C104.331 110.258 103.472 111.114 103.472 112.171C103.472 113.228 104.331 114.084 105.39 114.084Z" fill="#CCCCCC"/>
<path d="M73.2811 106.717C73.8932 106.717 74.3894 106.222 74.3894 105.612C74.3894 105.001 73.8932 104.506 73.2811 104.506C72.669 104.506 72.1729 105.001 72.1729 105.612C72.1729 106.222 72.669 106.717 73.2811 106.717Z" fill="#CCCCCC"/>
<path d="M90.1177 88.6145C90.7805 88.6145 91.3178 88.0785 91.3178 87.4172C91.3178 86.756 90.7805 86.22 90.1177 86.22C89.4548 86.22 88.9175 86.756 88.9175 87.4172C88.9175 88.0785 89.4548 88.6145 90.1177 88.6145Z" fill="#CCCCCC"/>
<path d="M149.175 158.712C149.712 158.712 150.146 158.278 150.146 157.743C150.146 157.209 149.712 156.775 149.175 156.775C148.639 156.775 148.205 157.209 148.205 157.743C148.205 158.278 148.639 158.712 149.175 158.712Z" fill="#CCCCCC"/>
<path d="M117.38 138.797C118.439 138.797 119.298 137.94 119.298 136.883C119.298 135.827 118.439 134.97 117.38 134.97C116.321 134.97 115.462 135.827 115.462 136.883C115.462 137.94 116.321 138.797 117.38 138.797Z" fill="#CCCCCC"/>
<path d="M139.22 113.611C139.832 113.611 140.328 113.116 140.328 112.505C140.328 111.894 139.832 111.399 139.22 111.399C138.608 111.399 138.112 111.894 138.112 112.505C138.112 113.116 138.608 113.611 139.22 113.611Z" fill="#CCCCCC"/>
<path d="M146.508 137.372C147.171 137.372 147.708 136.836 147.708 136.175C147.708 135.514 147.171 134.978 146.508 134.978C145.845 134.978 145.308 135.514 145.308 136.175C145.308 136.836 145.845 137.372 146.508 137.372Z" fill="#CCCCCC"/>
<path d="M211.153 199.037C212.212 198.152 210.781 194.707 207.956 191.342C205.132 187.977 201.984 185.966 200.925 186.851C199.866 187.735 201.297 191.18 204.121 194.545C206.946 197.91 210.094 199.921 211.153 199.037Z" fill="#2F2E41"/>
<path d="M189.093 206.078C197.892 206.078 205.025 198.962 205.025 190.184C205.025 181.406 197.892 174.291 189.093 174.291C180.294 174.291 173.161 181.406 173.161 190.184C173.161 198.962 180.294 206.078 189.093 206.078Z" fill="#2F2E41"/>
<path d="M195.837 202.657H190.997V211.308H195.837V202.657Z" fill="#2F2E41"/>
<path d="M186.157 202.657H181.317V211.308H186.157V202.657Z" fill="#2F2E41"/>
<path d="M191.803 212.918C194.031 212.918 195.837 212.242 195.837 211.409C195.837 210.575 194.031 209.9 191.803 209.9C189.576 209.9 187.77 210.575 187.77 211.409C187.77 212.242 189.576 212.918 191.803 212.918Z" fill="#2F2E41"/>
<path d="M182.123 212.716C184.351 212.716 186.156 212.041 186.156 211.208C186.156 210.374 184.351 209.699 182.123 209.699C179.895 209.699 178.09 210.374 178.09 211.208C178.09 212.041 179.895 212.716 182.123 212.716Z" fill="#2F2E41"/>
<path d="M184.091 170.206C185.514 164.49 191.793 161.127 198.117 162.693C204.441 164.26 208.414 170.163 206.991 175.878C205.568 181.593 200.849 181.612 194.525 180.045C188.201 178.479 182.668 175.921 184.091 170.206Z" fill="#E6E6E6"/>
<path d="M178.346 186.215C178.938 184.97 176.195 182.436 172.22 180.555C168.245 178.675 164.543 178.159 163.951 179.404C163.359 180.649 166.102 183.183 170.077 185.063C174.052 186.944 177.754 187.46 178.346 186.215Z" fill="#2F2E41"/>
<path d="M186.711 192.129C189.645 192.129 192.023 189.757 192.023 186.83C192.023 183.904 189.645 181.531 186.711 181.531C183.778 181.531 181.4 183.904 181.4 186.83C181.4 189.757 183.778 192.129 186.711 192.129Z" fill="white"/>
<path d="M184.528 186.697C185.506 186.697 186.299 185.907 186.299 184.931C186.299 183.956 185.506 183.165 184.528 183.165C183.551 183.165 182.758 183.956 182.758 184.931C182.758 185.907 183.551 186.697 184.528 186.697Z" fill="#3F3D56"/>
<path d="M190.044 197.87C190.127 198.327 190.119 198.795 190.021 199.248C189.923 199.702 189.736 200.132 189.472 200.513C189.207 200.895 188.87 201.22 188.479 201.472C188.088 201.723 187.652 201.895 187.194 201.978C186.737 202.061 186.267 202.054 185.813 201.956C185.358 201.858 184.927 201.672 184.545 201.408C184.162 201.144 183.836 200.807 183.584 200.417C183.332 200.028 183.159 199.592 183.076 199.136L183.075 199.129C182.726 197.209 184.214 196.53 186.139 196.182C188.063 195.835 189.695 195.95 190.044 197.87Z" fill="white"/>
<path d="M58.1093 179.073C59.68 174.973 59.9075 171.251 58.6174 170.759C57.3273 170.267 55.0081 173.192 53.4374 177.291C51.8666 181.391 51.6391 185.113 52.9292 185.605C54.2193 186.097 56.5385 183.172 58.1093 179.073Z" fill="#2F2E41"/>
<path d="M41.0475 206.078C49.8465 206.078 56.9795 198.962 56.9795 190.184C56.9795 181.406 49.8465 174.291 41.0475 174.291C32.2485 174.291 25.1155 181.406 25.1155 190.184C25.1155 198.962 32.2485 206.078 41.0475 206.078Z" fill="#2F2E41"/>
<path d="M38.6273 202.657H33.7872V211.308H38.6273V202.657Z" fill="#2F2E41"/>
<path d="M48.3076 202.657H43.4675V211.308H48.3076V202.657Z" fill="#2F2E41"/>
<path d="M37.8207 212.918C40.0483 212.918 41.8541 212.242 41.8541 211.409C41.8541 210.575 40.0483 209.9 37.8207 209.9C35.5931 209.9 33.7873 210.575 33.7873 211.409C33.7873 212.242 35.5931 212.918 37.8207 212.918Z" fill="#2F2E41"/>
<path d="M47.5009 212.716C49.7285 212.716 51.5343 212.041 51.5343 211.208C51.5343 210.374 49.7285 209.699 47.5009 209.699C45.2733 209.699 43.4675 210.374 43.4675 211.208C43.4675 212.041 45.2733 212.716 47.5009 212.716Z" fill="#2F2E41"/>
<path d="M41.4508 191.592C44.4581 191.592 46.896 189.16 46.896 186.16C46.896 183.16 44.4581 180.729 41.4508 180.729C38.4436 180.729 36.0057 183.16 36.0057 186.16C36.0057 189.16 38.4436 191.592 41.4508 191.592Z" fill="white"/>
<path d="M41.4507 187.971C42.4532 187.971 43.2658 187.16 43.2658 186.16C43.2658 185.16 42.4532 184.35 41.4507 184.35C40.4483 184.35 39.6357 185.16 39.6357 186.16C39.6357 187.16 40.4483 187.971 41.4507 187.971Z" fill="#3F3D56"/>
<path d="M25.5927 175.404C24.3063 169.656 28.4185 163.849 34.7776 162.432C41.1367 161.016 47.3347 164.527 48.6211 170.274C49.9076 176.021 45.6931 178.141 39.334 179.557C32.9749 180.974 26.8791 181.151 25.5927 175.404Z" fill="#E6E6E6"/>
<path d="M30.3002 186.215C30.8921 184.97 28.1495 182.436 24.1744 180.555C20.1993 178.675 16.4971 178.159 15.9052 179.404C15.3134 180.649 18.056 183.183 22.0311 185.063C26.0062 186.944 29.7084 187.46 30.3002 186.215Z" fill="#2F2E41"/>
<path d="M33.2216 195.918C33.2216 197.473 37.2366 200.545 41.6918 200.545C46.147 200.545 50.3242 196.165 50.3242 194.61C50.3242 193.054 46.147 194.912 41.6918 194.912C37.2366 194.912 33.2216 194.362 33.2216 195.918Z" fill="white"/>
<path d="M117.15 190.947C125.949 190.947 133.082 183.831 133.082 175.054C133.082 166.276 125.949 159.16 117.15 159.16C108.351 159.16 101.218 166.276 101.218 175.054C101.218 183.831 108.351 190.947 117.15 190.947Z" fill="#2F2E41"/>
<path d="M114.73 187.527H109.889V196.178H114.73V187.527Z" fill="#2F2E41"/>
<path d="M124.41 187.527H119.57V196.178H124.41V187.527Z" fill="#2F2E41"/>
<path d="M113.923 197.787C116.15 197.787 117.956 197.111 117.956 196.278C117.956 195.445 116.15 194.769 113.923 194.769C111.695 194.769 109.889 195.445 109.889 196.278C109.889 197.111 111.695 197.787 113.923 197.787Z" fill="#2F2E41"/>
<path d="M123.603 197.586C125.831 197.586 127.637 196.91 127.637 196.077C127.637 195.244 125.831 194.568 123.603 194.568C121.376 194.568 119.57 195.244 119.57 196.077C119.57 196.91 121.376 197.586 123.603 197.586Z" fill="#2F2E41"/>
<path d="M101.695 160.273C100.409 154.526 104.521 148.718 110.88 147.302C117.239 145.885 123.437 149.396 124.724 155.144C126.01 160.891 121.796 163.011 115.437 164.427C109.077 165.844 102.982 166.02 101.695 160.273Z" fill="#6C63FF"/>
<path d="M134.318 168.109C137.768 164.664 139.687 160.996 138.603 159.915C137.519 158.834 133.843 160.751 130.392 164.196C126.942 167.64 125.024 171.309 126.108 172.389C127.192 173.47 130.868 171.553 134.318 168.109Z" fill="#2F2E41"/>
<path d="M104.308 173.496C105.392 172.416 103.474 168.747 100.023 165.303C96.573 161.858 92.8972 159.941 91.8132 161.022C90.7292 162.103 92.6475 165.771 96.0978 169.216C99.5482 172.66 103.224 174.577 104.308 173.496Z" fill="#2F2E41"/>
<path d="M214.008 74.184C213.48 57.8875 202.291 45.0241 189.018 45.4528C159.477 46.326 158.756 100.366 187.276 104.248L186.672 109.036L195.481 108.752L194.568 104.012C206.041 101.483 214.488 88.9588 214.008 74.184Z" fill="#FF6584"/>
<path d="M174.328 83.2194L171 83.3269C169.696 77.1404 169.489 70.7736 170.39 64.5159L173.718 64.4084C172.489 70.9589 172.692 77.2293 174.328 83.2194Z" fill="white"/>
<path d="M195.913 103.938L185.93 104.26L186.002 106.473L195.985 106.151L195.913 103.938Z" fill="#3F3D56"/>
<path d="M166.916 188.678L165.911 188.209L190.627 104.596L191.632 105.065L166.916 188.678Z" fill="#3F3D56"/>
<path d="M234.465 87.9647C240.501 72.8122 235.389 56.5627 223.048 51.6704C195.614 40.708 173.329 89.9687 197.925 104.885L195.456 109.035L203.646 112.281L204.705 107.572C216.237 109.821 228.993 101.702 234.465 87.9647Z" fill="#6C63FF"/>
<path d="M194.467 80.4482L191.373 79.2217C192.653 73.03 195.011 67.1101 198.341 61.7312L201.435 62.9577C197.687 68.4743 195.364 74.3045 194.467 80.4482Z" fill="white"/>
<path d="M196.685 104.36L195.866 106.417L205.148 110.097L205.968 108.039L196.685 104.36Z" fill="#3F3D56"/>
<path d="M166.721 186.477L165.757 185.93L200.263 107.374L201.228 107.921L166.721 186.477Z" fill="#3F3D56"/>
<path d="M46.9046 75.237C40.3741 60.2899 25.2112 52.4639 13.0373 57.757C-14.0868 69.462 5.26835 119.94 33.2067 113.029L34.4201 117.701L42.4991 114.188L39.8945 110.121C49.6173 103.54 52.8252 88.7883 46.9046 75.237Z" fill="#6C63FF"/>
<path d="M13.3833 98.2655L10.3312 99.5926C6.82658 94.3254 4.27526 88.4858 2.79315 82.3392L5.84525 81.0122C7.13067 87.5519 9.64334 93.303 13.3833 98.2655Z" fill="white"/>
<path d="M41.1163 109.556L31.96 113.537L32.8468 115.567L42.0032 111.586L41.1163 109.556Z" fill="#3F3D56"/>
<path d="M62.301 188.892C62.1581 188.928 62.0071 188.905 61.8811 188.829C61.755 188.753 61.6643 188.631 61.6289 188.488L37.5065 112.239L38.5836 111.973L62.706 188.222C62.7235 188.292 62.727 188.366 62.7161 188.437C62.7052 188.509 62.6803 188.578 62.6427 188.641C62.6051 188.703 62.5555 188.757 62.4969 188.8C62.4383 188.844 62.3717 188.875 62.301 188.892Z" fill="#3F3D56"/>
<path d="M68.7477 213H10.6683C10.5702 213 10.4761 212.961 10.4068 212.892C10.3374 212.823 10.2984 212.729 10.2984 212.631C10.2984 212.533 10.3374 212.439 10.4068 212.37C10.4761 212.301 10.5702 212.262 10.6683 212.262H68.7477C68.8459 212.262 68.94 212.301 69.0093 212.37C69.0787 212.439 69.1177 212.533 69.1177 212.631C69.1177 212.729 69.0787 212.823 69.0093 212.892C68.94 212.961 68.8459 213 68.7477 213Z" fill="#CCCCCC"/>
<path d="M216.351 213H158.271C158.173 213 158.079 212.961 158.01 212.892C157.941 212.823 157.902 212.729 157.902 212.631C157.902 212.533 157.941 212.439 158.01 212.37C158.079 212.301 158.173 212.262 158.271 212.262H216.351C216.449 212.262 216.543 212.301 216.612 212.37C216.682 212.439 216.721 212.533 216.721 212.631C216.721 212.729 216.682 212.823 216.612 212.892C216.543 212.961 216.449 213 216.351 213Z" fill="#CCCCCC"/>
<path d="M147.173 197.869H89.0941C88.9959 197.869 88.9018 197.831 88.8325 197.761C88.7631 197.692 88.7241 197.598 88.7241 197.5C88.7241 197.403 88.7631 197.309 88.8325 197.239C88.9018 197.17 88.9959 197.131 89.0941 197.131H147.173C147.272 197.131 147.366 197.17 147.435 197.239C147.504 197.309 147.543 197.403 147.543 197.5C147.543 197.598 147.504 197.692 147.435 197.761C147.366 197.831 147.272 197.869 147.173 197.869Z" fill="#CCCCCC"/>
<path d="M116.479 178.233C119.487 178.233 121.925 175.801 121.925 172.801C121.925 169.801 119.487 167.369 116.479 167.369C113.472 167.369 111.034 169.801 111.034 172.801C111.034 175.801 113.472 178.233 116.479 178.233Z" fill="white"/>
<path d="M116.479 174.612C117.482 174.612 118.294 173.801 118.294 172.801C118.294 171.801 117.482 170.991 116.479 170.991C115.477 170.991 114.664 171.801 114.664 172.801C114.664 173.801 115.477 174.612 116.479 174.612Z" fill="#3F3D56"/>
<path d="M120.802 182.847C120.97 183.769 120.764 184.72 120.23 185.49C119.695 186.261 118.876 186.788 117.952 186.955C117.028 187.123 116.075 186.918 115.303 186.385C114.531 185.852 114.002 185.034 113.834 184.113L113.833 184.106C113.484 182.186 114.972 181.507 116.897 181.159C118.821 180.812 120.453 180.928 120.802 182.847Z" fill="white"/>
</g>
<defs>
<clipPath id="clip0">
<rect width="237" height="213" fill="white"/>
</clipPath>
</defs>
</svg>
