<svg width="14" height="14" viewBox="0 0 14 14" fill="none" xmlns="http://www.w3.org/2000/svg">
<path d="M6.99998 0.333344C3.324 0.333344 0.333313 3.32403 0.333313 7.00001C0.333313 10.676 3.324 13.6667 6.99998 13.6667C10.676 13.6667 13.6666 10.676 13.6666 7.00001C13.6666 3.32403 10.676 0.333344 6.99998 0.333344ZM6.99998 1.33334C10.1355 1.33334 12.6666 3.86447 12.6666 7.00001C12.6666 10.1355 10.1355 12.6667 6.99998 12.6667C3.86444 12.6667 1.33331 10.1355 1.33331 7.00001C1.33331 3.86447 3.86444 1.33334 6.99998 1.33334ZM6.99217 3.32618C6.85967 3.32825 6.73342 3.38283 6.64113 3.47792C6.54885 3.57301 6.49808 3.70085 6.49998 3.83334V7.83334C6.49904 7.8996 6.51128 7.96538 6.53599 8.02687C6.5607 8.08835 6.59738 8.14431 6.6439 8.1915C6.69042 8.23868 6.74586 8.27615 6.80699 8.30172C6.86812 8.3273 6.93372 8.34047 6.99998 8.34047C7.06624 8.34047 7.13184 8.3273 7.19297 8.30172C7.2541 8.27615 7.30954 8.23868 7.35606 8.1915C7.40258 8.14431 7.43926 8.08835 7.46397 8.02687C7.48868 7.96538 7.50092 7.8996 7.49998 7.83334V3.83334C7.50094 3.76642 7.48846 3.69999 7.46327 3.63798C7.43808 3.57597 7.4007 3.51965 7.35334 3.47236C7.30599 3.42506 7.24962 3.38775 7.18758 3.36264C7.12554 3.33754 7.05909 3.32514 6.99217 3.32618ZM6.99998 9.33334C6.82317 9.33334 6.6536 9.40358 6.52858 9.52861C6.40355 9.65363 6.33331 9.8232 6.33331 10C6.33331 10.1768 6.40355 10.3464 6.52858 10.4714C6.6536 10.5964 6.82317 10.6667 6.99998 10.6667C7.17679 10.6667 7.34636 10.5964 7.47139 10.4714C7.59641 10.3464 7.66665 10.1768 7.66665 10C7.66665 9.8232 7.59641 9.65363 7.47139 9.52861C7.34636 9.40358 7.17679 9.33334 6.99998 9.33334Z" fill="#EB5757"/>
</svg>
