<svg width="16" height="16" viewBox="0 0 16 16" fill="none" xmlns="http://www.w3.org/2000/svg">
<path d="M3.20833 0.5C1.72003 0.5 0.5 1.72003 0.5 3.20833V12.7917C0.5 14.28 1.72003 15.5 3.20833 15.5H12.7917C14.28 15.5 15.5 14.28 15.5 12.7917V3.20833C15.5 1.72003 14.28 0.5 12.7917 0.5H3.20833ZM3.20833 1.75H12.7917C13.6042 1.75 14.25 2.39581 14.25 3.20833V3.83333H1.75V3.20833C1.75 2.39581 2.39581 1.75 3.20833 1.75ZM1.75 5.08333H14.25V12.7917C14.25 13.6042 13.6042 14.25 12.7917 14.25H3.20833C2.39581 14.25 1.75 13.6042 1.75 12.7917V5.08333ZM4.45833 6.75C4.18207 6.75 3.91711 6.85975 3.72176 7.0551C3.52641 7.25045 3.41667 7.5154 3.41667 7.79167C3.41667 8.06793 3.52641 8.33289 3.72176 8.52824C3.91711 8.72359 4.18207 8.83333 4.45833 8.83333C4.7346 8.83333 4.99955 8.72359 5.1949 8.52824C5.39025 8.33289 5.5 8.06793 5.5 7.79167C5.5 7.5154 5.39025 7.25045 5.1949 7.0551C4.99955 6.85975 4.7346 6.75 4.45833 6.75ZM8 6.75C7.72373 6.75 7.45878 6.85975 7.26343 7.0551C7.06808 7.25045 6.95833 7.5154 6.95833 7.79167C6.95833 8.06793 7.06808 8.33289 7.26343 8.52824C7.45878 8.72359 7.72373 8.83333 8 8.83333C8.27627 8.83333 8.54122 8.72359 8.73657 8.52824C8.93192 8.33289 9.04167 8.06793 9.04167 7.79167C9.04167 7.5154 8.93192 7.25045 8.73657 7.0551C8.54122 6.85975 8.27627 6.75 8 6.75ZM11.5417 6.75C11.2654 6.75 11.0004 6.85975 10.8051 7.0551C10.6097 7.25045 10.5 7.5154 10.5 7.79167C10.5 8.06793 10.6097 8.33289 10.8051 8.52824C11.0004 8.72359 11.2654 8.83333 11.5417 8.83333C11.8179 8.83333 12.0829 8.72359 12.2782 8.52824C12.4736 8.33289 12.5833 8.06793 12.5833 7.79167C12.5833 7.5154 12.4736 7.25045 12.2782 7.0551C12.0829 6.85975 11.8179 6.75 11.5417 6.75ZM4.45833 10.5C4.18207 10.5 3.91711 10.6097 3.72176 10.8051C3.52641 11.0004 3.41667 11.2654 3.41667 11.5417C3.41667 11.8179 3.52641 12.0829 3.72176 12.2782C3.91711 12.4736 4.18207 12.5833 4.45833 12.5833C4.7346 12.5833 4.99955 12.4736 5.1949 12.2782C5.39025 12.0829 5.5 11.8179 5.5 11.5417C5.5 11.2654 5.39025 11.0004 5.1949 10.8051C4.99955 10.6097 4.7346 10.5 4.45833 10.5ZM8 10.5C7.72373 10.5 7.45878 10.6097 7.26343 10.8051C7.06808 11.0004 6.95833 11.2654 6.95833 11.5417C6.95833 11.8179 7.06808 12.0829 7.26343 12.2782C7.45878 12.4736 7.72373 12.5833 8 12.5833C8.27627 12.5833 8.54122 12.4736 8.73657 12.2782C8.93192 12.0829 9.04167 11.8179 9.04167 11.5417C9.04167 11.2654 8.93192 11.0004 8.73657 10.8051C8.54122 10.6097 8.27627 10.5 8 10.5Z" fill="#52B6C3"/>
</svg>
