<svg width="36" height="36" viewBox="0 0 36 36" fill="none" xmlns="http://www.w3.org/2000/svg">
<path d="M18 3C9.729 3 3 9.729 3 18C3 26.271 9.729 33 18 33C19.281 33 20.5181 32.8218 21.7061 32.5181C21.5471 32.0936 21.3784 31.6471 21.2021 31.1836C21.1046 30.9271 21.0045 30.6646 20.9048 30.4028C19.9703 30.6218 19.0005 30.75 18 30.75C10.9695 30.75 5.25 25.0305 5.25 18C5.25 10.9695 10.9695 5.25 18 5.25C24.7785 5.25 30.3219 10.5712 30.7119 17.2529C30.7202 17.2529 30.7271 17.2515 30.7354 17.2515H30.7456C31.5849 17.2537 32.3285 17.3708 32.9795 17.5928C32.762 9.51077 26.1338 3 18 3ZM18.3574 8.98389C18.0593 8.98854 17.7752 9.11134 17.5676 9.3253C17.36 9.53925 17.2457 9.82688 17.25 10.125V18H12.375C12.2259 17.9979 12.0779 18.0254 11.9396 18.081C11.8012 18.1366 11.6753 18.2191 11.5692 18.3238C11.463 18.4285 11.3787 18.5532 11.3211 18.6908C11.2636 18.8283 11.234 18.9759 11.234 19.125C11.234 19.2741 11.2636 19.4217 11.3211 19.5592C11.3787 19.6968 11.463 19.8215 11.5692 19.9262C11.6753 20.0309 11.8012 20.1134 11.9396 20.169C12.0779 20.2246 12.2259 20.2521 12.375 20.25H18.375C18.6734 20.25 18.9595 20.1314 19.1705 19.9205C19.3814 19.7095 19.5 19.4234 19.5 19.125V10.125C19.5022 9.97443 19.4741 9.82495 19.4174 9.68543C19.3607 9.54591 19.2766 9.41919 19.1701 9.31278C19.0635 9.20636 18.9367 9.12242 18.7971 9.06593C18.6575 9.00943 18.508 8.98153 18.3574 8.98389ZM24.3838 18.7515C20.1148 18.759 20.0824 22.1123 20.3877 23.9663C20.7574 26.2178 22.8958 31.217 23.6938 33.605C23.8723 34.139 24.367 34.4955 24.9258 34.4985C25.6518 34.4925 26.2369 33.9011 26.2324 33.1743L26.25 29.6353C26.2695 29.003 26.7428 28.5 27.375 28.5C28.0072 28.5 28.4805 29.003 28.5 29.6353V33.1743C28.4963 33.9018 29.0997 34.4925 29.8257 34.4985C30.3844 34.4955 30.8791 34.1404 31.0576 33.6064C31.8556 31.2184 33.9926 26.2193 34.3623 23.9678C34.6668 22.1138 35.0057 18.7612 30.7427 18.7515C30.0947 18.7537 29.2751 19.1084 28.5776 19.5659C28.9256 19.9852 29.1213 20.3026 29.1431 20.3379C29.3561 20.6934 29.2422 21.1547 28.8867 21.3677C28.766 21.4404 28.6327 21.4746 28.5015 21.4746C28.2472 21.4746 27.9986 21.3446 27.8584 21.1113C27.8344 21.0723 26.255 18.759 24.3838 18.7515Z" fill="#153E90"/>
</svg>
