<svg width="16" height="9" viewBox="0 0 16 9" fill="none" xmlns="http://www.w3.org/2000/svg">
<path d="M7.99281 8.16668C7.8627 8.16478 7.73845 8.11223 7.64646 8.0202L1.14646 1.5202C1.09847 1.47413 1.06016 1.41894 1.03377 1.35788C1.00738 1.29682 0.993439 1.2311 0.992763 1.16458C0.992086 1.09806 1.00469 1.03207 1.02983 0.970487C1.05498 0.908899 1.09216 0.852947 1.1392 0.805908C1.18624 0.758869 1.24219 0.721688 1.30378 0.696543C1.36536 0.671399 1.43135 0.658796 1.49787 0.659472C1.56439 0.660148 1.63011 0.674091 1.69117 0.700482C1.75223 0.726874 1.80742 0.765184 1.85349 0.81317L7.99998 6.95965L14.1465 0.81317C14.1925 0.765184 14.2477 0.726874 14.3088 0.700482C14.3698 0.674091 14.4356 0.66015 14.5021 0.659473C14.5686 0.658797 14.6346 0.6714 14.6962 0.696545C14.7578 0.721689 14.8137 0.758869 14.8608 0.805908C14.9078 0.852947 14.945 0.908899 14.9701 0.970487C14.9953 1.03207 15.0079 1.09806 15.0072 1.16458C15.0065 1.2311 14.9926 1.29682 14.9662 1.35788C14.9398 1.41894 14.9015 1.47413 14.8535 1.5202L8.35349 8.0202C8.30622 8.06749 8.24994 8.10482 8.18799 8.12998C8.12604 8.15514 8.05967 8.16762 7.99281 8.16668Z" fill="#52B6C3"/>
</svg>
