<svg width="10" height="16" viewBox="0 0 10 16" fill="none" xmlns="http://www.w3.org/2000/svg">
<path d="M8.55795 0.493482C8.68233 0.495382 8.80331 0.53435 8.90542 0.605402C9.00753 0.676453 9.08611 0.776354 9.13112 0.892322C9.17612 1.00829 9.1855 1.13505 9.15806 1.25638C9.13061 1.37771 9.06759 1.48809 8.97705 1.5734L2.35596 7.99999L8.97705 14.4266C9.03728 14.4834 9.0856 14.5517 9.11922 14.6274C9.15283 14.7031 9.17107 14.7847 9.17287 14.8675C9.17467 14.9503 9.16 15.0326 9.1297 15.1097C9.09941 15.1868 9.0541 15.2571 8.9964 15.3165C8.93871 15.3759 8.86978 15.4233 8.79362 15.4559C8.71747 15.4884 8.6356 15.5055 8.55278 15.5061C8.46996 15.5068 8.38784 15.491 8.31119 15.4596C8.23454 15.4282 8.16489 15.3819 8.10629 15.3234L1.02295 8.4484C0.962964 8.39014 0.915274 8.32043 0.882708 8.24341C0.850142 8.16639 0.833364 8.08362 0.833364 7.99999C0.833364 7.91637 0.850142 7.83359 0.882708 7.75657C0.915274 7.67955 0.962964 7.60985 1.02295 7.55159L8.10629 0.676587C8.16547 0.617374 8.23595 0.570655 8.31354 0.539201C8.39112 0.507747 8.47424 0.492199 8.55795 0.493482Z" fill="#52B6C3"/>
</svg>
