<svg width="130" height="130" viewBox="0 0 130 130" fill="none" xmlns="http://www.w3.org/2000/svg">
<g clip-path="url(#clip0)">
<path d="M32.1767 21.1333C32.1767 21.1333 51.8176 36.1749 81.6769 8.04986C108.195 -16.9273 129.847 22.4811 129.999 41.3531C130.195 65.7996 103.481 85.3606 116.445 101.418C129.409 117.474 90.7348 143.99 69.8912 121.042C43.9624 92.497 36.938 115.69 22.1588 115.69C11.5515 115.69 -10.2262 89.0921 4.48007 69.3038C16.8552 52.6523 10.106 47.126 6.83764 41.3531C2.12294 33.0273 13.3195 10.4288 32.1767 21.1333Z" fill="#F2FAFF"/>
<g clip-path="url(#clip1)">
<path d="M70.4432 51.4321H48.9584C48.488 51.4335 48.0236 51.3279 47.6003 51.1232C47.177 50.9186 46.8061 50.6203 46.5158 50.2511C46.2202 49.8784 46.0137 49.4434 45.9121 48.9791C45.8105 48.5148 45.8164 48.0335 45.9294 47.5718C47.9095 39.2974 47.9095 30.6741 45.9293 22.3997C45.8164 21.9381 45.8105 21.4568 45.9121 20.9925C46.0138 20.5282 46.2202 20.0932 46.5157 19.7205C46.8061 19.3513 47.177 19.053 47.6002 18.8484C48.0235 18.6437 48.488 18.5381 48.9584 18.5396H70.4432C71.185 18.5417 71.9019 18.8064 72.4663 19.2866C73.0307 19.7669 73.406 20.4314 73.5252 21.1618C74.9392 30.3238 74.9392 39.6478 73.5252 48.8098C73.406 49.5403 73.0307 50.2048 72.4663 50.685C71.9019 51.1652 71.185 51.4299 70.4432 51.4321Z" fill="white"/>
<path d="M48.9584 20.1524C48.7325 20.1516 48.5094 20.2022 48.3061 20.3005C48.1028 20.3987 47.9247 20.5418 47.7852 20.7191C47.6415 20.9007 47.5413 21.1126 47.4921 21.3387C47.4429 21.5647 47.446 21.799 47.5013 22.0237C49.5407 30.5453 49.5407 39.4263 47.5014 47.9479C47.4461 48.1726 47.443 48.4068 47.4921 48.6328C47.5413 48.8589 47.6415 49.0707 47.7851 49.2523L47.7852 49.2524C47.9247 49.4297 48.1028 49.5729 48.3061 49.6712C48.5094 49.7694 48.7325 49.82 48.9584 49.8193H70.4432C70.7994 49.8194 71.1442 49.6934 71.416 49.4637C71.6878 49.2339 71.869 48.9154 71.9274 48.5648C73.3163 39.5652 73.3163 30.4065 71.9274 21.4068C71.869 21.0562 71.6878 20.7377 71.416 20.508C71.1442 20.2783 70.7994 20.1522 70.4432 20.1523L48.9584 20.1524Z" fill="#153E90"/>
<path d="M65.7554 27.9074H54.4811C54.0525 27.907 53.6416 27.7369 53.3385 27.4346C53.0355 27.1322 52.865 26.7223 52.8646 26.2947V25.6645C52.865 25.2369 53.0355 24.827 53.3385 24.5246C53.6416 24.2223 54.0525 24.0522 54.4811 24.0518H65.7554C66.184 24.0522 66.5949 24.2223 66.8979 24.5246C67.201 24.827 67.3715 25.2369 67.3719 25.6645V26.2947C67.3715 26.7223 67.201 27.1322 66.8979 27.4346C66.5949 27.7369 66.184 27.907 65.7554 27.9074Z" fill="white"/>
<path d="M65.7554 35.8707H54.4811C54.0525 35.8702 53.6416 35.7002 53.3385 35.3978C53.0355 35.0955 52.865 34.6855 52.8646 34.258V33.6277C52.865 33.2002 53.0355 32.7902 53.3385 32.4879C53.6416 32.1855 54.0525 32.0155 54.4811 32.015H65.7554C66.184 32.0155 66.5949 32.1855 66.8979 32.4879C67.201 32.7902 67.3715 33.2002 67.3719 33.6277V34.258C67.3715 34.6855 67.201 35.0955 66.8979 35.3978C66.5949 35.7002 66.184 35.8702 65.7554 35.8707Z" fill="white"/>
<path d="M65.7554 43.8339H54.4811C54.0525 43.8335 53.6416 43.6634 53.3385 43.3611C53.0355 43.0587 52.865 42.6488 52.8646 42.2212V41.591C52.865 41.1634 53.0355 40.7535 53.3385 40.4511C53.6416 40.1488 54.0525 39.9787 54.4811 39.9783H65.7554C66.184 39.9787 66.5949 40.1488 66.8979 40.4511C67.201 40.7535 67.3715 41.1634 67.3719 41.591V42.2212C67.3715 42.6488 67.201 43.0587 66.8979 43.3611C66.5949 43.6634 66.184 43.8335 65.7554 43.8339Z" fill="white"/>
<path d="M110.857 71.8607H89.3727C88.9023 71.8621 88.4379 71.7564 88.0146 71.5518C87.5913 71.3471 87.2204 71.0489 86.9301 70.6797C86.6345 70.307 86.4281 69.872 86.3264 69.4077C86.2248 68.9434 86.2307 68.4621 86.3437 68.0004C88.3238 59.726 88.3238 51.1027 86.3436 42.8283C86.2307 42.3666 86.2248 41.8854 86.3265 41.4211C86.4281 40.9568 86.6345 40.5218 86.9301 40.1491C87.2204 39.7799 87.5913 39.4816 88.0146 39.277C88.4378 39.0723 88.9023 38.9667 89.3727 38.9682H110.857C111.599 38.9703 112.316 39.235 112.881 39.7152C113.445 40.1954 113.82 40.8599 113.939 41.5904C115.353 50.7524 115.353 60.0764 113.939 69.2384C113.82 69.9689 113.445 70.6334 112.881 71.1136C112.316 71.5938 111.599 71.8585 110.857 71.8607Z" fill="white"/>
<path d="M89.373 40.5809C89.1471 40.5802 88.9241 40.6308 88.7208 40.729C88.5174 40.8272 88.3393 40.9704 88.1998 41.1477C88.0561 41.3293 87.9559 41.5412 87.9067 41.7672C87.8575 41.9933 87.8607 42.2276 87.9159 42.4523C89.9553 50.9739 89.9553 59.8549 87.916 68.3765C87.8607 68.6011 87.8576 68.8354 87.9067 69.0614C87.9559 69.2875 88.0561 69.4993 88.1997 69.6809L88.1998 69.681C88.3393 69.8583 88.5175 70.0015 88.7208 70.0997C88.9241 70.198 89.1471 70.2486 89.373 70.2479H110.858C111.214 70.248 111.559 70.122 111.831 69.8922C112.102 69.6625 112.284 69.344 112.342 68.9934C113.731 59.9938 113.731 50.8351 112.342 41.8354C112.284 41.4848 112.102 41.1663 111.831 40.9366C111.559 40.7068 111.214 40.5808 110.858 40.5809L89.373 40.5809Z" fill="#153E90"/>
<path d="M68.0184 95.1114H46.5336C46.0429 95.1129 45.5583 95.0026 45.1167 94.7891C44.6751 94.5756 44.2882 94.2644 43.9853 93.8792C43.6771 93.4906 43.4617 93.037 43.3558 92.5528C43.2498 92.0687 43.2559 91.5668 43.3737 91.0853C45.3489 82.8315 45.3488 74.2298 43.3736 65.976C43.2558 65.4946 43.2497 64.9927 43.3557 64.5086C43.4617 64.0245 43.677 63.5709 43.9852 63.1823C44.2881 62.7971 44.6751 62.4859 45.1167 62.2723C45.5583 62.0588 46.0429 61.9486 46.5336 61.9501H68.0184C68.7923 61.9524 69.5403 62.2287 70.1291 62.7298C70.7179 63.2308 71.1093 63.9242 71.2336 64.6862C72.6497 73.8618 72.6497 83.1996 71.2336 92.3752C71.1093 93.1373 70.7179 93.8306 70.1291 94.3317C69.5403 94.8328 68.7923 95.1091 68.0184 95.1114Z" fill="#153E90"/>
<path d="M106.17 52.3678H94.8953C94.4667 52.3673 94.0559 52.1972 93.7528 51.8949C93.4497 51.5925 93.2793 51.1826 93.2788 50.755V50.1248C93.2793 49.6972 93.4497 49.2873 93.7528 48.985C94.0559 48.6826 94.4667 48.5126 94.8953 48.5121H106.17C106.598 48.5126 107.009 48.6826 107.312 48.985C107.615 49.2873 107.786 49.6972 107.786 50.1248V50.7551C107.786 51.1826 107.615 51.5925 107.312 51.8949C107.009 52.1972 106.598 52.3673 106.17 52.3678Z" fill="white"/>
<path d="M106.17 60.3313H94.8953C94.4667 60.3308 94.0559 60.1607 93.7528 59.8584C93.4497 59.556 93.2793 59.1461 93.2788 58.7185V58.0883C93.2793 57.6607 93.4497 57.2508 93.7528 56.9485C94.0559 56.6461 94.4667 56.4761 94.8953 56.4756H106.17C106.598 56.4761 107.009 56.6461 107.312 56.9485C107.615 57.2508 107.786 57.6607 107.786 58.0883V58.7185C107.786 59.1461 107.615 59.556 107.312 59.8584C107.009 60.1607 106.598 60.3308 106.17 60.3313Z" fill="white"/>
<path d="M57.3359 84.6023C60.7583 84.6023 63.5328 81.8344 63.5328 78.42C63.5328 75.0056 60.7583 72.2377 57.3359 72.2377C53.9134 72.2377 51.139 75.0056 51.139 78.42C51.139 81.8344 53.9134 84.6023 57.3359 84.6023Z" fill="white"/>
<path d="M60.3001 77.6138H58.1446V75.4634C58.1446 75.2495 58.0595 75.0444 57.9079 74.8932C57.7563 74.7419 57.5507 74.657 57.3364 74.657C57.122 74.657 56.9164 74.7419 56.7648 74.8932C56.6132 75.0444 56.5281 75.2495 56.5281 75.4634V77.6138H54.3726C54.1582 77.6138 53.9527 77.6987 53.8011 77.8499C53.6495 78.0012 53.5643 78.2063 53.5643 78.4201C53.5643 78.634 53.6495 78.8391 53.8011 78.9903C53.9527 79.1416 54.1582 79.2265 54.3726 79.2265H56.5281V81.3769C56.5281 81.5908 56.6132 81.7959 56.7648 81.9471C56.9164 82.0983 57.122 82.1833 57.3364 82.1833C57.5507 82.1833 57.7563 82.0983 57.9079 81.9471C58.0595 81.7959 58.1446 81.5908 58.1446 81.3769V79.2265H60.3001C60.5145 79.2265 60.72 79.1416 60.8716 78.9903C61.0232 78.8391 61.1084 78.634 61.1084 78.4201C61.1084 78.2063 61.0232 78.0012 60.8716 77.8499C60.72 77.6987 60.5145 77.6138 60.3001 77.6138Z" fill="#52B6C3"/>
<path d="M65.1497 21.5694H53.8336C53.5121 21.5691 53.204 21.4415 52.9767 21.2148C52.7494 20.988 52.6215 20.6805 52.6212 20.3598V18.2095C52.6215 17.8888 52.7494 17.5813 52.9767 17.3546C53.204 17.1278 53.5121 17.0002 53.8336 16.9999H65.1497C65.4711 17.0002 65.7793 17.1278 66.0066 17.3546C66.2339 17.5813 66.3617 17.8888 66.3621 18.2095V20.3598C66.3617 20.6805 66.2339 20.988 66.0066 21.2148C65.7793 21.4415 65.4711 21.5691 65.1497 21.5694Z" fill="#52B6C3"/>
<path d="M106.103 42.2668H94.787C94.4655 42.2665 94.1573 42.1389 93.93 41.9121C93.7027 41.6854 93.5749 41.3779 93.5745 41.0572V38.9069C93.5749 38.5862 93.7027 38.2787 93.93 38.0519C94.1573 37.8252 94.4655 37.6976 94.787 37.6973H106.103C106.424 37.6976 106.733 37.8252 106.96 38.0519C107.187 38.2787 107.315 38.5862 107.315 38.9069V41.0572C107.315 41.3779 107.187 41.6854 106.96 41.9121C106.733 42.1389 106.424 42.2665 106.103 42.2668Z" fill="#52B6C3"/>
<path d="M37.1998 112.687L17.3594 104.463C16.9245 104.284 16.5362 104.009 16.224 103.658C15.9119 103.307 15.6841 102.889 15.5579 102.437C15.4283 101.98 15.405 101.499 15.4897 101.032C15.5744 100.564 15.765 100.122 16.0468 99.7387C21.0577 92.8555 24.374 84.8923 25.7276 76.4932C25.8009 76.0236 25.9806 75.5769 26.253 75.1871C26.5254 74.7973 26.8833 74.4745 27.2996 74.2435C27.7097 74.0137 28.1669 73.8802 28.6365 73.8532C29.1061 73.8263 29.5756 73.9065 30.0094 74.0879L49.8499 82.3119C50.5341 82.5978 51.0944 83.1167 51.4309 83.7762C51.7674 84.4358 51.8584 85.193 51.6876 85.9132C49.4697 94.9152 45.8838 103.526 41.0544 111.445C40.6634 112.074 40.0614 112.544 39.3555 112.771C38.6496 112.999 37.8856 112.969 37.1998 112.687Z" fill="white"/>
<path d="M29.3895 75.5774C29.1812 75.4902 28.9557 75.4516 28.7302 75.4645C28.5047 75.4773 28.2851 75.5413 28.0881 75.6516C27.8856 75.7644 27.7116 75.9217 27.5792 76.1116C27.4468 76.3015 27.3596 76.5191 27.3242 76.7477C25.9302 85.3978 22.5147 93.599 17.3542 100.688C17.2168 100.874 17.1237 101.089 17.0822 101.317C17.0407 101.544 17.0517 101.778 17.1145 102.001L17.1146 102.001C17.1752 102.218 17.2846 102.419 17.4346 102.587C17.5846 102.756 17.7711 102.888 17.98 102.974L37.8204 111.198C38.1493 111.334 38.5161 111.35 38.8555 111.242C39.1949 111.134 39.4847 110.909 39.6735 110.607C44.4172 102.828 47.9396 94.3704 50.1181 85.528C50.199 85.1818 50.1542 84.8183 49.9915 84.5021C49.8289 84.1859 49.559 83.9376 49.23 83.8014L29.3895 75.5774Z" fill="#153E90"/>
<path d="M39.9545 93.8843L29.543 89.5687C29.1474 89.4042 28.8334 89.0899 28.6698 88.6947C28.5062 88.2995 28.5065 87.8557 28.6705 87.4606L28.9129 86.8787C29.0777 86.484 29.3928 86.1707 29.7889 86.0075C30.1851 85.8443 30.6299 85.8445 31.0259 86.0081L41.4373 90.3238C41.8329 90.4882 42.147 90.8026 42.3106 91.1978C42.4742 91.593 42.4739 92.0368 42.3099 92.4318L42.0675 93.0138C41.9026 93.4085 41.5876 93.7218 41.1914 93.885C40.7953 94.0482 40.3505 94.048 39.9545 93.8843Z" fill="white"/>
<path d="M36.8918 101.238L26.4804 96.9225C26.0848 96.758 25.7707 96.4437 25.6071 96.0485C25.4436 95.6533 25.4438 95.2094 25.6078 94.8144L25.8502 94.2324C26.0151 93.8378 26.3301 93.5244 26.7263 93.3612C27.1224 93.198 27.5672 93.1983 27.9632 93.3619L38.3747 97.6775C38.7703 97.842 39.0843 98.1563 39.2479 98.5515C39.4115 98.9467 39.4112 99.3906 39.2472 99.7856L39.0048 100.368C38.84 100.762 38.5249 101.076 38.1288 101.239C37.7326 101.402 37.2878 101.402 36.8918 101.238Z" fill="white"/>
<path d="M44.1253 83.5492C43.9695 83.5491 43.8151 83.5189 43.6707 83.4604L33.1796 79.2288C32.8818 79.1083 32.644 78.8748 32.5185 78.5796C32.3929 78.2843 32.3899 77.9515 32.51 77.6541L33.318 75.6604C33.4385 75.363 33.6726 75.1256 33.9686 75.0003C34.2646 74.8751 34.5984 74.8722 34.8965 74.9925L45.3876 79.2241C45.6854 79.3446 45.9232 79.5781 46.0487 79.8733C46.1743 80.1685 46.1773 80.5013 46.0572 80.7988L45.2492 82.7925C45.1585 83.0157 45.0031 83.207 44.8029 83.3417C44.6027 83.4765 44.3668 83.5488 44.1253 83.5492Z" fill="#52B6C3"/>
</g>
</g>
<defs>
<clipPath id="clip0">
<rect width="130" height="130" fill="white"/>
</clipPath>
<clipPath id="clip1">
<rect width="100" height="95.6044" fill="white" transform="translate(15.0004 16.9999)"/>
</clipPath>
</defs>
</svg>
