<svg width="130" height="130" viewBox="0 0 130 130" fill="none" xmlns="http://www.w3.org/2000/svg">
<g clip-path="url(#clip0)">
<path d="M32.177 21.1333C32.177 21.1333 51.8179 36.1749 81.6771 8.04986C108.195 -16.9273 129.847 22.4811 129.999 41.3531C130.195 65.7996 103.481 85.3606 116.445 101.418C129.41 117.474 90.7351 143.99 69.8914 121.042C43.9627 92.497 36.9383 115.69 22.159 115.69C11.5518 115.69 -10.2259 89.0921 4.48031 69.3038C16.8554 52.6523 10.1063 47.126 6.83789 41.3531C2.12319 33.0273 13.3197 10.4288 32.177 21.1333Z" fill="#F2FAFF"/>
<g clip-path="url(#clip1)">
<path d="M70.443 51.2145H48.9582C48.4879 51.2159 48.0234 51.1109 47.6001 50.9076C47.1768 50.7042 46.8059 50.4078 46.5156 50.041C46.22 49.6707 46.0136 49.2384 45.9119 48.777C45.8103 48.3156 45.8162 47.8374 45.9292 47.3786C47.9093 39.1565 47.9093 30.5878 45.9291 22.3657C45.8162 21.9069 45.8103 21.4287 45.912 20.9674C46.0136 20.506 46.22 20.0738 46.5156 19.7034C46.8059 19.3365 47.1768 19.0402 47.6001 18.8368C48.0233 18.6334 48.4878 18.5285 48.9582 18.5299H70.443C71.1848 18.532 71.9017 18.7951 72.4662 19.2723C73.0306 19.7495 73.4058 20.4098 73.525 21.1356C74.939 30.2397 74.939 39.5047 73.525 48.6088C73.4058 49.3346 73.0306 49.9949 72.4662 50.4721C71.9017 50.9493 71.1848 51.2124 70.443 51.2145Z" fill="#153E90"/>
<path d="M48.9579 20.1325C48.732 20.1318 48.5089 20.1821 48.3056 20.2797C48.1023 20.3773 47.9241 20.5195 47.7846 20.6957C47.641 20.8761 47.5408 21.0867 47.4916 21.3113C47.4424 21.536 47.4455 21.7688 47.5007 21.992C49.5401 30.4598 49.5402 39.2846 47.5009 47.7524C47.4456 47.9756 47.4424 48.2084 47.4916 48.433C47.5407 48.6576 47.6409 48.8681 47.7846 49.0485L47.7847 49.0486C47.9241 49.2248 48.1023 49.3671 48.3056 49.4647C48.5089 49.5623 48.732 49.6127 48.9579 49.6119H70.4427C70.7989 49.612 71.1436 49.4868 71.4154 49.2585C71.6872 49.0302 71.8685 48.7137 71.9269 48.3654C73.3158 39.4226 73.3158 30.3218 71.9269 21.3791C71.8685 21.0307 71.6872 20.7142 71.4154 20.4859C71.1436 20.2576 70.7989 20.1324 70.4427 20.1325L48.9579 20.1325Z" fill="white"/>
<path d="M61.75 28.4787H53.9785C53.6831 28.4784 53.3999 28.3688 53.191 28.174C52.9821 27.9792 52.8646 27.7151 52.8643 27.4396V27.0336C52.8646 26.7581 52.9821 26.494 53.191 26.2992C53.3999 26.1044 53.6831 25.9948 53.9785 25.9945H61.75C62.0454 25.9948 62.3286 26.1044 62.5375 26.2992C62.7464 26.494 62.8639 26.7581 62.8643 27.0336V27.4396C62.8639 27.7151 62.7464 27.9792 62.5375 28.174C62.3286 28.3688 62.0454 28.4784 61.75 28.4787Z" fill="#153E90"/>
<path d="M67.5088 28.9089C68.8943 28.9089 70.0175 27.8001 70.0175 26.4323C70.0175 25.0645 68.8943 23.9557 67.5088 23.9557C66.1232 23.9557 65 25.0645 65 26.4323C65 27.8001 66.1232 28.9089 67.5088 28.9089Z" fill="#153E90"/>
<path d="M67.2605 27.377C67.2041 27.3772 67.1491 27.3591 67.104 27.3257L67.1012 27.3236L66.5116 26.878C66.4842 26.8574 66.4612 26.8317 66.4439 26.8022C66.4266 26.7728 66.4153 26.7403 66.4108 26.7066C66.4062 26.6729 66.4084 26.6387 66.4173 26.6058C66.4262 26.5729 66.4415 26.5421 66.4625 26.5151C66.4834 26.4881 66.5096 26.4655 66.5394 26.4485C66.5692 26.4315 66.6022 26.4204 66.6363 26.416C66.6705 26.4116 66.7052 26.4139 66.7385 26.4227C66.7717 26.4315 66.8029 26.4468 66.8302 26.4675L67.2121 26.7566L68.1145 25.5948C68.1355 25.5678 68.1616 25.5452 68.1914 25.5282C68.2211 25.5112 68.254 25.5002 68.2881 25.4958C68.3222 25.4913 68.3569 25.4935 68.3901 25.5023C68.4233 25.5111 68.4545 25.5263 68.4818 25.5469L68.4762 25.5544L68.4819 25.547C68.537 25.5888 68.573 25.6504 68.5821 25.7184C68.5912 25.7864 68.5726 25.8551 68.5304 25.9096L67.4689 27.2761C67.4444 27.3076 67.4128 27.3331 67.3767 27.3506C67.3405 27.3681 67.3008 27.3772 67.2605 27.377Z" fill="white"/>
<path d="M67.5088 36.8583C68.8943 36.8583 70.0175 35.7495 70.0175 34.3817C70.0175 33.0139 68.8943 31.9052 67.5088 31.9052C66.1232 31.9052 65 33.0139 65 34.3817C65 35.7495 66.1232 36.8583 67.5088 36.8583Z" fill="#153E90"/>
<path d="M67.2605 35.3264C67.2041 35.3266 67.1491 35.3085 67.104 35.2751L67.1012 35.273L66.5116 34.8274C66.4842 34.8068 66.4612 34.7811 66.4439 34.7516C66.4266 34.7222 66.4153 34.6897 66.4108 34.656C66.4062 34.6223 66.4084 34.5881 66.4173 34.5552C66.4262 34.5223 66.4415 34.4915 66.4625 34.4645C66.4834 34.4375 66.5096 34.4149 66.5394 34.3979C66.5692 34.3809 66.6022 34.3698 66.6363 34.3654C66.6705 34.361 66.7052 34.3633 66.7385 34.3721C66.7717 34.3809 66.8029 34.3962 66.8302 34.4169L67.2121 34.706L68.1145 33.5442C68.1355 33.5172 68.1616 33.4946 68.1914 33.4776C68.2211 33.4606 68.254 33.4496 68.2881 33.4452C68.3222 33.4407 68.3569 33.4429 68.3901 33.4517C68.4233 33.4605 68.4545 33.4757 68.4818 33.4963L68.4762 33.5038L68.4819 33.4964C68.537 33.5382 68.573 33.5998 68.5821 33.6678C68.5912 33.7358 68.5726 33.8045 68.5304 33.859L67.4689 35.2255C67.4444 35.257 67.4128 35.2825 67.3767 35.3C67.3405 35.3175 67.3008 35.3266 67.2605 35.3264Z" fill="white"/>
<path d="M67.5088 45.8014C68.8943 45.8014 70.0175 44.6926 70.0175 43.3248C70.0175 41.9571 68.8943 40.8483 67.5088 40.8483C66.1232 40.8483 65 41.9571 65 43.3248C65 44.6926 66.1232 45.8014 67.5088 45.8014Z" fill="#153E90"/>
<path d="M67.2605 44.2696C67.2041 44.2697 67.1491 44.2516 67.104 44.2182L67.1012 44.2162L66.5116 43.7705C66.4842 43.7499 66.4612 43.7242 66.4439 43.6948C66.4266 43.6654 66.4153 43.6329 66.4108 43.5992C66.4062 43.5654 66.4084 43.5312 66.4173 43.4983C66.4262 43.4654 66.4415 43.4346 66.4625 43.4076C66.4834 43.3806 66.5096 43.358 66.5394 43.341C66.5692 43.324 66.6022 43.3129 66.6363 43.3085C66.6705 43.3041 66.7052 43.3064 66.7385 43.3152C66.7717 43.3241 66.8029 43.3393 66.8302 43.36L67.2121 43.6491L68.1145 42.4873C68.1355 42.4603 68.1616 42.4377 68.1914 42.4207C68.2211 42.4037 68.254 42.3927 68.2881 42.3883C68.3222 42.3838 68.3569 42.3861 68.3901 42.3948C68.4233 42.4036 68.4545 42.4188 68.4818 42.4394L68.4762 42.4469L68.4819 42.4395C68.537 42.4813 68.573 42.5429 68.5821 42.6109C68.5912 42.6789 68.5726 42.7476 68.5304 42.8021L67.4689 44.1686C67.4444 44.2001 67.4128 44.2256 67.3767 44.2431C67.3405 44.2606 67.3008 44.2697 67.2605 44.2696Z" fill="white"/>
<path d="M61.75 36.3918H53.9785C53.6831 36.3915 53.3999 36.2819 53.191 36.0871C52.9821 35.8923 52.8646 35.6282 52.8643 35.3527V34.9467C52.8646 34.6712 52.9821 34.4071 53.191 34.2123C53.3999 34.0175 53.6831 33.9079 53.9785 33.9076H61.75C62.0454 33.9079 62.3286 34.0175 62.5375 34.2123C62.7464 34.4071 62.8639 34.6712 62.8643 34.9467V35.3527C62.8639 35.6282 62.7464 35.8923 62.5375 36.0871C62.3286 36.2819 62.0454 36.3915 61.75 36.3918Z" fill="#153E90"/>
<path d="M61.75 44.3047H53.9785C53.6831 44.3044 53.3999 44.1948 53.191 44C52.9821 43.8052 52.8646 43.5411 52.8643 43.2656V42.8596C52.8646 42.5841 52.9821 42.32 53.191 42.1252C53.3999 41.9304 53.6831 41.8208 53.9785 41.8205H61.75C62.0454 41.8208 62.3286 41.9304 62.5375 42.1252C62.7464 42.32 62.8639 42.5841 62.8643 42.8596V43.2656C62.8639 43.5411 62.7464 43.8052 62.5375 44C62.3286 44.1948 62.0454 44.3044 61.75 44.3047Z" fill="#153E90"/>
<path d="M110.857 71.5139H89.3726C88.9023 71.5153 88.4378 71.4104 88.0145 71.207C87.5913 71.0037 87.2204 70.7073 86.9301 70.3404C86.6345 69.9701 86.428 69.5378 86.3264 69.0764C86.2248 68.6151 86.2307 68.1368 86.3436 67.678C88.3238 59.4559 88.3237 50.8872 86.3435 42.6651C86.2306 42.2064 86.2248 41.7281 86.3264 41.2668C86.428 40.8055 86.6345 40.3732 86.93 40.0029C87.2203 39.636 87.5912 39.3396 88.0145 39.1362C88.4378 38.9329 88.9023 38.8279 89.3726 38.8294H110.857C111.599 38.8315 112.316 39.0945 112.881 39.5717C113.445 40.0489 113.82 40.7092 113.939 41.435C115.353 50.5391 115.353 59.8042 113.939 68.9083C113.82 69.6341 113.445 70.2944 112.881 70.7716C112.316 71.2487 111.599 71.5118 110.857 71.5139Z" fill="#153E90"/>
<path d="M89.3729 40.432C89.147 40.4312 88.9239 40.4815 88.7206 40.5791C88.5173 40.6767 88.3392 40.819 88.1997 40.9951C88.056 41.1756 87.9558 41.3861 87.9066 41.6108C87.8574 41.8354 87.8605 42.0682 87.9158 42.2915C89.9551 50.7592 89.9552 59.584 87.9159 68.0518C87.8606 68.275 87.8575 68.5078 87.9066 68.7324C87.9558 68.957 88.056 69.1675 88.1996 69.3479L88.1997 69.3481C88.3392 69.5242 88.5173 69.6665 88.7206 69.7641C88.9239 69.8617 89.147 69.9121 89.3729 69.9113H110.858C111.214 69.9115 111.559 69.7862 111.83 69.5579C112.102 69.3297 112.284 69.0132 112.342 68.6648C113.731 59.722 113.731 50.6212 112.342 41.6785C112.284 41.3301 112.102 41.0136 111.83 40.7853C111.559 40.5571 111.214 40.4318 110.858 40.4319L89.3729 40.432Z" fill="white"/>
<path d="M68.0179 94.6179H46.5331C46.0424 94.6194 45.5578 94.5099 45.1162 94.2977C44.6746 94.0855 44.2876 93.7763 43.9848 93.3936C43.6765 93.0074 43.4612 92.5566 43.3552 92.0755C43.2492 91.5944 43.2554 91.0957 43.3731 90.6173C45.3483 82.4157 45.3483 73.8683 43.373 65.6668C43.2553 65.1884 43.2492 64.6897 43.3552 64.2086C43.4612 63.7276 43.6765 63.2768 43.9847 62.8907C44.2876 62.5079 44.6745 62.1987 45.1161 61.9865C45.5578 61.7743 46.0424 61.6648 46.5331 61.6663H68.0179C68.7918 61.6686 69.5398 61.9431 70.1286 62.441C70.7174 62.9389 71.1088 63.6279 71.233 64.3851C72.6491 73.5027 72.6491 82.7815 71.233 91.8991C71.1088 92.6563 70.7174 93.3453 70.1286 93.8432C69.5398 94.3411 68.7918 94.6156 68.0179 94.6179Z" fill="#153E90"/>
<path d="M57.3358 84.1752C60.7583 84.1752 63.5327 81.4248 63.5327 78.0319C63.5327 74.6391 60.7583 71.8887 57.3358 71.8887C53.9134 71.8887 51.1389 74.6391 51.1389 78.0319C51.1389 81.4248 53.9134 84.1752 57.3358 84.1752Z" fill="white"/>
<path d="M60.2993 77.2306H58.1439V75.0938C58.1439 74.8813 58.0587 74.6775 57.9071 74.5272C57.7555 74.377 57.5499 74.2925 57.3356 74.2925C57.1212 74.2925 56.9156 74.377 56.764 74.5272C56.6124 74.6775 56.5273 74.8813 56.5273 75.0938V77.2306H54.3718C54.1575 77.2306 53.9519 77.3151 53.8003 77.4653C53.6487 77.6156 53.5635 77.8194 53.5635 78.0319C53.5635 78.2444 53.6487 78.4482 53.8003 78.5985C53.9519 78.7488 54.1575 78.8332 54.3718 78.8332H56.5273V80.97C56.5273 81.1825 56.6124 81.3863 56.764 81.5366C56.9156 81.6869 57.1212 81.7713 57.3356 81.7713C57.5499 81.7713 57.7555 81.6869 57.9071 81.5366C58.0587 81.3863 58.1439 81.1825 58.1439 80.97V78.8332H60.2993C60.5137 78.8332 60.7193 78.7488 60.8708 78.5985C61.0224 78.4482 61.1076 78.2444 61.1076 78.0319C61.1076 77.8194 61.0224 77.6156 60.8708 77.4653C60.7193 77.3151 60.5137 77.2306 60.2993 77.2306Z" fill="#52B6C3"/>
<path d="M65.1495 21.5407H53.8335C53.512 21.5403 53.2038 21.4136 52.9766 21.1882C52.7493 20.9629 52.6214 20.6574 52.621 20.3387V18.2019C52.6214 17.8833 52.7493 17.5778 52.9766 17.3524C53.2038 17.1271 53.512 17.0004 53.8335 17H65.1495C65.471 17.0004 65.7792 17.1271 66.0065 17.3524C66.2338 17.5778 66.3616 17.8833 66.362 18.2019V20.3387C66.3616 20.6574 66.2338 20.9629 66.0065 21.1882C65.7792 21.4136 65.471 21.5403 65.1495 21.5407Z" fill="#52B6C3"/>
<path d="M106.103 42.1072H94.7867C94.4653 42.1068 94.1571 41.9801 93.9298 41.7548C93.7025 41.5294 93.5746 41.2239 93.5743 40.9053V38.7685C93.5746 38.4498 93.7025 38.1443 93.9298 37.919C94.1571 37.6936 94.4653 37.5669 94.7867 37.5665H106.103C106.424 37.5669 106.732 37.6936 106.96 37.919C107.187 38.1443 107.315 38.4498 107.315 38.7685V40.9053C107.315 41.2239 107.187 41.5294 106.96 41.7548C106.732 41.9801 106.424 42.1068 106.103 42.1072Z" fill="#52B6C3"/>
<path d="M37.1998 112.082L17.3593 103.91C16.9244 103.733 16.5361 103.459 16.224 103.11C15.9118 102.761 15.684 102.347 15.5579 101.897C15.4282 101.443 15.4049 100.965 15.4896 100.501C15.5743 100.036 15.7649 99.5965 16.0468 99.2158C21.0576 92.3762 24.374 84.4632 25.7275 76.1172C25.8008 75.6507 25.9805 75.2068 26.2529 74.8194C26.5253 74.4321 26.8833 74.1114 27.2995 73.8818C27.7096 73.6534 28.1668 73.5208 28.6364 73.494C29.106 73.4672 29.5756 73.547 30.0094 73.7272L49.8498 81.8992C50.534 82.1833 51.0943 82.699 51.4308 83.3543C51.7673 84.0096 51.8583 84.7621 51.6875 85.4777C49.4696 94.4229 45.8837 102.979 41.0544 110.848C40.6634 111.473 40.0613 111.94 39.3554 112.166C38.6495 112.392 37.8856 112.362 37.1998 112.082Z" fill="#153E90"/>
<path d="M29.3893 75.2071C29.181 75.1205 28.9556 75.0821 28.73 75.0949C28.5045 75.1077 28.2849 75.1713 28.0879 75.2809C27.8855 75.3929 27.7114 75.5493 27.579 75.738C27.4467 75.9267 27.3594 76.1429 27.324 76.3701C25.93 84.9655 22.5146 93.1149 17.354 100.159C17.2166 100.344 17.1236 100.558 17.082 100.784C17.0405 101.01 17.0515 101.242 17.1143 101.464L17.1144 101.464C17.175 101.68 17.2845 101.879 17.4344 102.046C17.5844 102.214 17.7709 102.345 17.9798 102.43L37.8202 110.602C38.1492 110.738 38.516 110.753 38.8553 110.646C39.1947 110.539 39.4846 110.315 39.6733 110.016C44.417 102.286 47.9394 93.8814 50.118 85.0948C50.1988 84.7509 50.154 84.3897 49.9913 84.0755C49.8287 83.7613 49.5588 83.5145 49.2298 83.3791L29.3893 75.2071Z" fill="white"/>
<path d="M31.3935 99.4001L24.6454 96.7602C24.389 96.6595 24.1854 96.4673 24.0794 96.2255C23.9734 95.9837 23.9735 95.7123 24.0798 95.4706L24.2369 95.1146C24.3438 94.8732 24.548 94.6815 24.8048 94.5817C25.0615 94.4818 25.3498 94.482 25.6065 94.5821L32.3546 97.222C32.611 97.3226 32.8146 97.5149 32.9206 97.7567C33.0266 97.9984 33.0265 98.2699 32.9202 98.5116L32.7631 98.8676C32.6562 99.109 32.452 99.3007 32.1952 99.4005C31.9385 99.5003 31.6502 99.5002 31.3935 99.4001Z" fill="#153E90"/>
<path d="M34.3935 93.438L27.6454 90.7981C27.389 90.6974 27.1854 90.5052 27.0794 90.2634C26.9734 90.0216 26.9735 89.7502 27.0798 89.5085L27.2369 89.1525C27.3438 88.9111 27.548 88.7194 27.8048 88.6196C28.0615 88.5197 28.3498 88.5199 28.6065 88.62L35.3546 91.2599C35.611 91.3606 35.8146 91.5528 35.9206 91.7946C36.0266 92.0363 36.0265 92.3078 35.9202 92.5495L35.7631 92.9055C35.6562 93.1469 35.452 93.3386 35.1952 93.4384C34.9385 93.5383 34.6502 93.5381 34.3935 93.438Z" fill="#153E90"/>
<path d="M37.3935 87.476L30.6454 84.836C30.389 84.7354 30.1854 84.5431 30.0794 84.3014C29.9734 84.0596 29.9735 83.7881 30.0798 83.5465L30.2369 83.1905C30.3438 82.949 30.548 82.7574 30.8048 82.6575C31.0615 82.5577 31.3498 82.5578 31.6065 82.6579L38.3546 85.2979C38.611 85.3985 38.8146 85.5908 38.9206 85.8326C39.0266 86.0743 39.0265 86.3458 38.9202 86.5874L38.7631 86.9435C38.6562 87.1849 38.452 87.3766 38.1952 87.4764C37.9385 87.5762 37.6502 87.5761 37.3935 87.476Z" fill="#153E90"/>
<path d="M44.1251 83.1287C43.9693 83.1286 43.8149 83.0986 43.6705 83.0404L33.1794 78.8355C32.8816 78.7158 32.6438 78.4838 32.5183 78.1904C32.3927 77.8971 32.3897 77.5663 32.5098 77.2708L33.3178 75.2897C33.4383 74.9942 33.6724 74.7583 33.9684 74.6338C34.2644 74.5093 34.5982 74.5065 34.8963 74.626L45.3874 78.8308C45.6852 78.9506 45.923 79.1826 46.0485 79.476C46.1741 79.7693 46.1771 80.1001 46.057 80.3956L45.249 82.3767C45.1583 82.5985 45.0029 82.7886 44.8027 82.9225C44.6025 83.0564 44.3666 83.1282 44.1251 83.1287Z" fill="#52B6C3"/>
<path d="M101.886 50.3397H94.1143C93.8188 50.3394 93.5356 50.2298 93.3267 50.035C93.1178 49.8402 93.0003 49.5761 93 49.3006V48.8945C93.0003 48.6191 93.1178 48.3549 93.3267 48.1601C93.5356 47.9653 93.8188 47.8558 94.1143 47.8555H101.886C102.181 47.8558 102.464 47.9653 102.673 48.1601C102.882 48.3549 103 48.6191 103 48.8945V49.3006C103 49.5761 102.882 49.8402 102.673 50.035C102.464 50.2298 102.181 50.3394 101.886 50.3397Z" fill="#153E90"/>
<path d="M107.644 50.7698C109.03 50.7698 110.153 49.661 110.153 48.2932C110.153 46.9254 109.03 45.8167 107.644 45.8167C106.259 45.8167 105.136 46.9254 105.136 48.2932C105.136 49.661 106.259 50.7698 107.644 50.7698Z" fill="#153E90"/>
<path d="M107.396 49.2379C107.34 49.2381 107.285 49.22 107.24 49.1866L107.237 49.1845L106.647 48.7389C106.62 48.7183 106.597 48.6926 106.58 48.6631C106.562 48.6337 106.551 48.6012 106.546 48.5675C106.542 48.5338 106.544 48.4996 106.553 48.4667C106.562 48.4338 106.577 48.403 106.598 48.376C106.619 48.349 106.645 48.3264 106.675 48.3094C106.705 48.2924 106.738 48.2813 106.772 48.2769C106.806 48.2725 106.841 48.2748 106.874 48.2836C106.907 48.2924 106.939 48.3077 106.966 48.3284L107.348 48.6175L108.25 47.4557C108.271 47.4287 108.297 47.4061 108.327 47.3891C108.357 47.3721 108.39 47.3611 108.424 47.3567C108.458 47.3522 108.493 47.3544 108.526 47.3632C108.559 47.372 108.59 47.3872 108.618 47.4078L108.612 47.4153L108.618 47.4079C108.673 47.4497 108.709 47.5113 108.718 47.5793C108.727 47.6473 108.708 47.716 108.666 47.7705L107.605 49.137C107.58 49.1685 107.549 49.194 107.512 49.2115C107.476 49.229 107.437 49.2381 107.396 49.2379Z" fill="white"/>
<path d="M107.644 58.7192C109.03 58.7192 110.153 57.6104 110.153 56.2427C110.153 54.8749 109.03 53.7661 107.644 53.7661C106.259 53.7661 105.136 54.8749 105.136 56.2427C105.136 57.6104 106.259 58.7192 107.644 58.7192Z" fill="#153E90"/>
<path d="M107.396 57.1874C107.34 57.1875 107.285 57.1695 107.24 57.1361L107.237 57.134L106.647 56.6884C106.62 56.6678 106.597 56.642 106.58 56.6126C106.562 56.5832 106.551 56.5507 106.546 56.517C106.542 56.4833 106.544 56.449 106.553 56.4162C106.562 56.3833 106.577 56.3525 106.598 56.3255C106.619 56.2985 106.645 56.2758 106.675 56.2588C106.705 56.2418 106.738 56.2308 106.772 56.2264C106.806 56.2219 106.841 56.2242 106.874 56.2331C106.907 56.2419 106.939 56.2571 106.966 56.2779L107.348 56.5669L108.25 55.4051C108.271 55.3782 108.297 55.3556 108.327 55.3386C108.357 55.3216 108.39 55.3106 108.424 55.3061C108.458 55.3017 108.493 55.3039 108.526 55.3127C108.559 55.3215 108.59 55.3366 108.618 55.3573L108.612 55.3648L108.618 55.3574C108.673 55.3992 108.709 55.4608 108.718 55.5288C108.727 55.5967 108.708 55.6655 108.666 55.7199L107.605 57.0865C107.58 57.118 107.549 57.1435 107.512 57.161C107.476 57.1785 107.437 57.1875 107.396 57.1874Z" fill="white"/>
<path d="M101.886 58.2527H94.1143C93.8188 58.2524 93.5356 58.1428 93.3267 57.948C93.1178 57.7532 93.0003 57.4891 93 57.2136V56.8076C93.0003 56.5321 93.1178 56.268 93.3267 56.0732C93.5356 55.8784 93.8188 55.7688 94.1143 55.7685H101.886C102.181 55.7688 102.464 55.8784 102.673 56.0732C102.882 56.268 103 56.5321 103 56.8076V57.2136C103 57.4891 102.882 57.7532 102.673 57.948C102.464 58.1428 102.181 58.2524 101.886 58.2527Z" fill="#153E90"/>
<path d="M42.6951 90.3853C44.0037 90.8313 45.4287 90.1429 45.8779 88.8478C46.3271 87.5527 45.6304 86.1413 44.3218 85.6953C43.0132 85.2493 41.5882 85.9377 41.139 87.2328C40.6898 88.528 41.3865 89.9394 42.6951 90.3853Z" fill="#153E90"/>
<path d="M42.9637 88.8551C42.9103 88.837 42.8643 88.8022 42.8327 88.756L42.8307 88.7532L42.4202 88.1414C42.401 88.113 42.3878 88.0813 42.3811 88.0478C42.3744 88.0144 42.3744 87.98 42.3812 87.9466C42.388 87.9132 42.4013 87.8815 42.4205 87.8532C42.4397 87.825 42.4643 87.8007 42.4929 87.7819C42.5216 87.7631 42.5537 87.75 42.5875 87.7435C42.6213 87.737 42.656 87.7372 42.6897 87.744C42.7235 87.7508 42.7555 87.7641 42.784 87.7832C42.8125 87.8023 42.837 87.8268 42.8559 87.8552L43.1217 88.2519L44.3558 87.4421C44.3844 87.4234 44.4165 87.4103 44.4502 87.4038C44.4839 87.3973 44.5186 87.3975 44.5522 87.4042C44.5859 87.411 44.6179 87.4243 44.6464 87.4433C44.6749 87.4623 44.6994 87.4867 44.7184 87.515L44.7106 87.5204L44.7185 87.5152C44.7568 87.5725 44.7705 87.6424 44.7568 87.7097C44.7431 87.777 44.7029 87.8361 44.6452 87.8741L43.1937 88.8266C43.1601 88.8485 43.1219 88.8625 43.0821 88.8674C43.0422 88.8723 43.0017 88.8681 42.9637 88.8551Z" fill="white"/>
<path d="M40.3699 97.0234C41.6785 97.4694 43.1035 96.781 43.5527 95.4859C44.0019 94.1907 43.3052 92.7793 41.9966 92.3334C40.688 91.8874 39.263 92.5758 38.8138 93.8709C38.3646 95.166 39.0613 96.5774 40.3699 97.0234Z" fill="#153E90"/>
<path d="M40.6385 95.4931C40.5851 95.475 40.5391 95.4403 40.5075 95.3941L40.5055 95.3912L40.095 94.7795C40.0759 94.7511 40.0626 94.7193 40.0559 94.6859C40.0492 94.6525 40.0492 94.6181 40.056 94.5847C40.0628 94.5513 40.0761 94.5196 40.0953 94.4913C40.1145 94.463 40.1391 94.4388 40.1678 94.42C40.1964 94.4011 40.2285 94.3881 40.2623 94.3816C40.2961 94.3751 40.3308 94.3753 40.3645 94.3821C40.3983 94.3889 40.4303 94.4022 40.4588 94.4213C40.4873 94.4404 40.5118 94.4648 40.5307 94.4933L40.7965 94.8899L42.0306 94.0802C42.0592 94.0614 42.0913 94.0484 42.125 94.0419C42.1587 94.0354 42.1934 94.0355 42.227 94.0423C42.2607 94.0491 42.2927 94.0623 42.3212 94.0814C42.3497 94.1004 42.3742 94.1247 42.3932 94.1531L42.3854 94.1584L42.3933 94.1533C42.4316 94.2105 42.4454 94.2805 42.4316 94.3478C42.4179 94.4151 42.3777 94.4742 42.32 94.5122L40.8685 95.4646C40.8349 95.4865 40.7967 95.5005 40.7569 95.5055C40.717 95.5104 40.6765 95.5062 40.6385 95.4931Z" fill="white"/>
<path d="M37.3699 102.985C38.6785 103.431 40.1035 102.743 40.5527 101.448C41.0019 100.153 40.3052 98.7414 38.9966 98.2954C37.688 97.8494 36.263 98.5378 35.8138 99.8329C35.3646 101.128 36.0613 102.539 37.3699 102.985Z" fill="#153E90"/>
<path d="M37.6385 101.455C37.5851 101.437 37.5391 101.402 37.5075 101.356L37.5055 101.353L37.095 100.741C37.0759 100.713 37.0626 100.681 37.0559 100.648C37.0492 100.615 37.0492 100.58 37.056 100.547C37.0628 100.513 37.0761 100.482 37.0953 100.453C37.1145 100.425 37.1391 100.401 37.1678 100.382C37.1964 100.363 37.2285 100.35 37.2623 100.344C37.2961 100.337 37.3308 100.337 37.3645 100.344C37.3983 100.351 37.4303 100.364 37.4588 100.383C37.4873 100.402 37.5118 100.427 37.5307 100.455L37.7965 100.852L39.0306 100.042C39.0592 100.023 39.0913 100.01 39.125 100.004C39.1587 99.9974 39.1934 99.9976 39.227 100.004C39.2607 100.011 39.2927 100.024 39.3212 100.043C39.3497 100.062 39.3742 100.087 39.3932 100.115L39.3854 100.12L39.3933 100.115C39.4316 100.173 39.4454 100.243 39.4316 100.31C39.4179 100.377 39.3777 100.436 39.32 100.474L37.8685 101.427C37.8349 101.449 37.7967 101.463 37.7569 101.468C37.717 101.472 37.6765 101.468 37.6385 101.455Z" fill="white"/>
</g>
</g>
<defs>
<clipPath id="clip0">
<rect width="130" height="130" fill="white"/>
</clipPath>
<clipPath id="clip1">
<rect width="100" height="95" fill="white" transform="translate(15 17)"/>
</clipPath>
</defs>
</svg>
