<svg width="186" height="130" viewBox="0 0 186 130" fill="none" xmlns="http://www.w3.org/2000/svg">
<g clip-path="url(#clip0)">
<path d="M157.295 71.8327C151.268 81.5728 152.397 94.8421 155.044 105.305C155.93 108.808 156.951 112.506 156.193 116.426C155.267 121.22 151.89 124.985 148.473 127.14C142.243 131.061 135.128 130.952 129.948 126.853C125.474 123.313 122.528 117.137 117.96 113.787C110.323 108.178 99.8351 111.577 90.7286 116.819C84.2887 120.519 77.2005 125.227 71.2481 122.561C67.0605 120.689 64.4491 115.408 63.2304 109.662C62.6422 106.887 62.2863 103.857 60.9375 101.743C60.1348 100.487 59.0314 99.6457 57.8874 98.9557C47.4468 92.6668 33.3207 97.9249 23.2522 90.8032C16.4516 85.9949 12.5857 76.0632 11.3149 65.4432C10.0442 54.8232 11.0891 43.4597 12.3972 32.2715C13.3283 24.317 14.5877 15.8074 18.7672 9.33834C23.1888 2.49589 30.1584 -0.564139 36.2164 0.0852039C42.2744 0.734547 47.5345 4.56891 52.0683 9.25555C57.7347 15.1126 62.8453 22.593 70.1789 24.4826C75.1741 25.77 80.6293 24.2797 85.9414 23.4372C94.8106 22.0281 103.556 22.4323 112.24 22.9615C120.554 23.468 128.918 24.0979 136.664 27.0199C142.145 29.0897 146.352 33.3981 151.468 36.2C154.802 38.0263 158.564 38.2584 161.671 40.6935C165.498 43.6934 168.81 49.2307 167.277 56.2306C165.817 62.8896 160.493 66.6639 157.295 71.8327Z" fill="#F2FAFF"/>
<path d="M163.719 126.732L160.617 126.732L159.142 114.746L163.72 114.746L163.719 126.732Z" fill="#FFB8B8"/>
<path d="M164.51 129.744L154.509 129.743V129.617C154.509 128.582 154.919 127.59 155.649 126.859C156.379 126.128 157.369 125.717 158.401 125.717H158.402L164.51 125.717L164.51 129.744Z" fill="#414141"/>
<path d="M177.408 119.092L175.395 121.456L165.337 114.8L168.308 111.311L177.408 119.092Z" fill="#FFB8B8"/>
<path d="M180.209 120.444L173.717 128.066L173.621 127.984C172.836 127.313 172.349 126.356 172.267 125.325C172.186 124.294 172.516 123.273 173.186 122.486L173.187 122.486L177.151 117.83L180.209 120.444Z" fill="#414141"/>
<path d="M141.696 67.7849L140.731 76.7061L179.759 76.1484L162.739 48.3615L148.842 47.8613L141.696 67.7849Z" fill="#414141"/>
<path opacity="0.28" d="M141.696 67.7849L140.731 76.7061L179.759 76.1484L162.739 48.3615L148.842 47.8613L141.696 67.7849Z" fill="black"/>
<path d="M149.371 69.3162L147.993 77.479V84.7754L159.102 88.4086C159.102 88.4086 157.802 116.749 159.535 118.554L159.493 122.912L164.339 123.132L164.379 120.066L166.433 97.1434L167.644 80.3139L165.681 67.5543L149.371 69.3162Z" fill="#153E90"/>
<path d="M157.978 76.3428L147.993 84.7754C147.993 84.7754 147.409 99.9895 148.893 101.774C150.168 103.306 166.745 116.524 166.745 116.524C166.745 116.524 169.691 119.232 171.342 119.275C172.993 119.318 174.913 115.849 174.913 115.849L171.089 112.938C171.089 112.938 161.183 103.673 158.242 99.9895C157.055 98.5027 157.055 98.354 157.055 98.354L157.46 92.1709L161.541 80.6957L157.978 76.3428Z" fill="#153E90"/>
<path d="M147.377 35.9512L143.072 35.5526L139.167 36.2045L130.899 36.2072L130.194 42.2115L137.74 43.9032L139.579 43.0003L147.244 45.9263L147.377 35.9512Z" fill="#153E90"/>
<path d="M152.519 35.9321C152.519 35.9321 161.655 35.0744 163.733 36.7099C165.81 38.3455 170.262 70.7586 170.262 70.7586L152.519 71.7619L149.338 69.5691L150.241 53.3872L152.519 35.9321Z" fill="#E8E7E7"/>
<path d="M155.308 35.7302L145.23 35.9518L135.834 78.49L143.254 80.1257L155.308 35.7302Z" fill="#153E90"/>
<path d="M162.472 35.3706L170.41 37.86L169.96 55.3376L179.76 76.2334L168.239 77.4493L159.132 54.8858L162.472 35.3706Z" fill="#153E90"/>
<path d="M175.562 78.356C175.84 78.1105 176.062 77.8069 176.21 77.4665C176.359 77.1261 176.431 76.7572 176.422 76.3859C176.413 76.0145 176.322 75.6496 176.157 75.317C175.992 74.9844 175.756 74.6921 175.466 74.4607L177.063 68.8786L173.914 67.0788L171.769 74.9936C171.414 75.5076 171.258 76.1345 171.333 76.7554C171.408 77.3764 171.708 77.9483 172.175 78.3627C172.643 78.7772 173.246 79.0054 173.87 79.0042C174.494 79.003 175.096 78.7723 175.562 78.356Z" fill="#FFB8B8"/>
<path d="M165.81 38.3453L170.508 37.9371C170.508 37.9371 174.725 42.3561 175.684 45.7777C176.643 49.1992 177.682 59.9045 177.682 59.9045L177.249 75.5652L171.758 71.8293L171.39 58.3591L165.81 38.3453Z" fill="#153E90"/>
<path d="M164.677 30.474C166.441 27.241 165.255 23.1875 162.028 21.4201C158.801 19.6528 154.756 20.841 152.992 24.074C151.228 27.307 152.414 31.3605 155.64 33.1279C158.867 34.8952 162.913 33.707 164.677 30.474Z" fill="#FFB8B8"/>
<path d="M158.092 24.4888C157.218 24.2866 156.311 24.5107 155.427 24.656C154.542 24.8013 153.567 24.8492 152.818 24.3545C152.265 23.9892 151.925 23.3849 151.606 22.8035C151.473 22.5959 151.384 22.3629 151.346 22.1192C151.308 21.6893 151.581 21.297 151.871 20.9778C153.217 19.4949 155.185 18.6833 157.169 18.4255C158.805 18.1812 160.477 18.3857 162.007 19.0174C163.513 19.6793 164.808 20.8914 165.4 22.4288C165.673 23.2157 165.843 24.0345 165.907 24.865C165.996 25.476 166.008 26.096 165.941 26.7099C165.861 27.165 165.742 27.6123 165.584 28.0465L164.603 31.0143C164.533 31.2947 164.401 31.556 164.217 31.7793C164.123 31.8886 163.996 31.9644 163.855 31.9953C163.714 32.0263 163.567 32.0106 163.436 31.9508C163.514 31.6284 163.526 31.2934 163.471 30.9663C163.44 30.8033 163.362 30.6532 163.245 30.5353C163.129 30.4175 162.979 30.3374 162.817 30.3053C162.455 30.2668 162.147 30.5476 161.804 30.6686C161.647 30.7152 161.482 30.7304 161.319 30.7133C161.156 30.6962 160.998 30.6471 160.855 30.5688C160.711 30.4906 160.584 30.3847 160.48 30.2573C160.377 30.1298 160.3 29.9833 160.254 29.826C160.245 29.7943 160.236 29.7622 160.23 29.7299C160.175 29.3906 160.266 29.0274 160.138 28.7087C159.988 28.3354 159.589 28.1398 159.289 27.8716C159.016 27.6188 158.82 27.2931 158.725 26.9327C158.63 26.5724 158.64 26.1924 158.753 25.8373C158.833 25.5903 159.06 25.4781 159.015 25.1943C158.955 24.8221 158.407 24.5619 158.092 24.4888Z" fill="black"/>
<path d="M84.0641 52.6898H0V0H84.0641V52.6898Z" fill="white"/>
<path d="M84.0641 52.6898H0V0H84.0641V52.6898ZM0.383855 52.3052H83.6802V0.384598H0.383855V52.3052Z" fill="#52B6C3"/>
<path d="M73.7958 125.667H25.814V72.9777H73.7958V125.667Z" fill="white"/>
<path d="M73.7958 125.667H25.814V72.9777H73.7958V125.667ZM26.1979 125.283H73.4119V73.3623H26.1979V125.283Z" fill="#52B6C3"/>
<path d="M67.2706 120.69H57.2904V121.096H67.2706V120.69Z" fill="#414141"/>
<path d="M67.2706 121.907H57.2904V122.312H67.2706V121.907Z" fill="#414141"/>
<path d="M67.2706 123.123H57.2904V123.528H67.2706V123.123Z" fill="#414141"/>
<path d="M49.8048 82.3996V86.6302C52.3101 86.6302 54.7592 87.3745 56.8423 88.7691C58.9254 90.1637 60.549 92.1458 61.5078 94.465C62.4665 96.7841 62.7174 99.3359 62.2286 101.798C61.7398 104.26 60.5334 106.521 58.7619 108.296L61.7476 111.288C64.1096 108.921 65.7182 105.906 66.3699 102.623C67.0216 99.3406 66.6871 95.9381 65.4088 92.846C64.1304 89.7538 61.9656 87.1109 59.1882 85.2515C56.4107 83.3921 53.1453 82.3996 49.8048 82.3996Z" fill="#E8E7E7"/>
<path d="M61.7482 111.288L58.7625 108.297C56.5969 110.467 53.7195 111.777 50.6635 111.985C47.6075 112.193 44.5799 111.283 42.1417 109.426L39.586 112.795C42.8375 115.271 46.8744 116.483 50.9492 116.206C55.0239 115.929 58.8604 114.182 61.7482 111.288Z" fill="#757575"/>
<path d="M37.1382 99.3219C37.1382 97.6552 37.4658 96.0048 38.1024 94.465C38.739 92.9251 39.672 91.526 40.8483 90.3475C42.0246 89.1689 43.421 88.2341 44.9578 87.5963C46.4947 86.9584 48.1419 86.6302 49.8054 86.6302V82.3996C46.2697 82.3996 42.8232 83.5113 39.9517 85.578C37.0801 87.6447 34.9283 90.5623 33.7996 93.9194C32.6708 97.2765 32.6221 100.904 33.6602 104.29C34.6983 107.677 36.7709 110.651 39.5859 112.795L42.1415 109.425C40.5855 108.243 39.3239 106.715 38.4559 104.962C37.5878 103.209 37.1368 101.279 37.1382 99.3219Z" fill="#52B6C3"/>
<path d="M144.809 92.9762H96.8269V40.2864H144.809V92.9762Z" fill="white"/>
<path d="M144.809 92.9762H96.8269V40.2864H144.809V92.9762ZM97.2107 92.5916H144.425V40.671H97.2107V92.5916Z" fill="#52B6C3"/>
<path d="M112.374 72.4967H103.737V86.3422H112.374V72.4967Z" fill="#757575"/>
<path d="M124.849 63.0739H116.212V86.342H124.849V63.0739Z" fill="#E8E7E7"/>
<path d="M137.324 52.113H128.687V86.3421H137.324V52.113Z" fill="#52B6C3"/>
<path d="M140.203 86.7265H101.434V46.5359H101.817V86.3418H140.203V86.7265Z" fill="#414141"/>
<path d="M130.856 41.6893C132.316 41.6893 133.499 40.5035 133.499 39.0407C133.499 37.5779 132.316 36.3922 130.856 36.3922C129.396 36.3922 128.213 37.5779 128.213 39.0407C128.213 40.5035 129.396 41.6893 130.856 41.6893Z" fill="#FFB8B8"/>
<path d="M72.3897 41.6706H11.6746C11.6242 41.6706 11.5759 41.6505 11.5403 41.6148C11.5046 41.5791 11.4846 41.5307 11.4846 41.4802V12.3232C11.4846 12.2727 11.5046 12.2243 11.5403 12.1886C11.5759 12.1529 11.6242 12.1328 11.6746 12.1328C11.725 12.1328 11.7733 12.1529 11.809 12.1886C11.8446 12.2243 11.8646 12.2727 11.8646 12.3232V41.2899H72.3897C72.4147 41.2898 72.4395 41.2946 72.4626 41.3042C72.4857 41.3137 72.5068 41.3277 72.5245 41.3454C72.5422 41.3631 72.5563 41.3841 72.5658 41.4072C72.5754 41.4304 72.5804 41.4552 72.5804 41.4802C72.5804 41.5053 72.5754 41.5301 72.5658 41.5532C72.5563 41.5764 72.5422 41.5974 72.5245 41.6151C72.5068 41.6328 72.4857 41.6468 72.4626 41.6563C72.4395 41.6658 72.4147 41.6707 72.3897 41.6706Z" fill="#414141"/>
<path d="M24.6465 39.5761H19.1242C18.9747 39.576 18.8313 39.5164 18.7256 39.4104C18.6198 39.3045 18.5603 39.1609 18.5602 39.011V31.3838C18.5603 31.234 18.6198 31.0904 18.7256 30.9844C18.8313 30.8785 18.9747 30.8189 19.1242 30.8187H24.6465C24.796 30.8189 24.9394 30.8785 25.0451 30.9844C25.1509 31.0904 25.2103 31.234 25.2105 31.3838V39.011C25.2104 39.1609 25.1509 39.3045 25.0451 39.4104C24.9394 39.5164 24.796 39.576 24.6465 39.5761Z" fill="#52B6C3"/>
<path d="M34.7174 39.5761H29.1951C29.0456 39.5759 28.9022 39.5164 28.7965 39.4104C28.6907 39.3045 28.6313 39.1608 28.6311 39.011V24.1494C28.6313 23.9996 28.6907 23.856 28.7965 23.75C28.9022 23.6441 29.0456 23.5845 29.1951 23.5844H34.7174C34.8669 23.5845 35.0103 23.6441 35.116 23.75C35.2218 23.856 35.2813 23.9996 35.2814 24.1494V39.011C35.2813 39.1608 35.2218 39.3045 35.116 39.4104C35.0103 39.5164 34.8669 39.5759 34.7174 39.5761Z" fill="#52B6C3"/>
<path d="M44.7875 39.5761H39.2652C39.1157 39.576 38.9723 39.5164 38.8666 39.4104C38.7608 39.3045 38.7013 39.1609 38.7011 39.011V31.3838C38.7013 31.234 38.7608 31.0904 38.8666 30.9844C38.9723 30.8785 39.1157 30.8189 39.2652 30.8187H44.7875C44.937 30.8189 45.0804 30.8785 45.1861 30.9844C45.2918 31.0904 45.3513 31.234 45.3515 31.3838V39.011C45.3513 39.1609 45.2918 39.3045 45.1861 39.4104C45.0804 39.5164 44.937 39.576 44.7875 39.5761Z" fill="#52B6C3"/>
<path d="M54.8582 39.5763H49.3359C49.1898 39.5795 49.0484 39.5245 48.9427 39.4233C48.8369 39.3222 48.7755 39.1832 48.7719 39.0368V21.2684C48.7755 21.122 48.8369 20.983 48.9427 20.8819C49.0484 20.7807 49.1898 20.7257 49.3359 20.7289H54.8582C55.0043 20.7257 55.1458 20.7807 55.2515 20.8819C55.3572 20.983 55.4186 21.122 55.4223 21.2684V39.0368C55.4186 39.1832 55.3572 39.3222 55.2515 39.4233C55.1458 39.5245 55.0043 39.5795 54.8582 39.5763Z" fill="#52B6C3"/>
<path d="M64.9292 39.5758H59.4069C59.2573 39.5757 59.114 39.5161 59.0082 39.4101C58.9025 39.3042 58.843 39.1606 58.8428 39.0107V16.1533C58.843 16.0035 58.9025 15.8598 59.0082 15.7539C59.114 15.648 59.2573 15.5884 59.4069 15.5882H64.9292C65.0787 15.5884 65.222 15.648 65.3278 15.7539C65.4335 15.8598 65.493 16.0035 65.4932 16.1533V39.0107C65.493 39.1606 65.4335 39.3042 65.3278 39.4101C65.222 39.5161 65.0787 39.5757 64.9292 39.5758Z" fill="#52B6C3"/>
<path d="M21.8857 28.534C22.5153 28.534 23.0257 28.0226 23.0257 27.3918C23.0257 26.7609 22.5153 26.2495 21.8857 26.2495C21.256 26.2495 20.7456 26.7609 20.7456 27.3918C20.7456 28.0226 21.256 28.534 21.8857 28.534Z" fill="#414141"/>
<path d="M31.9557 21.1097C32.5854 21.1097 33.0958 20.5983 33.0958 19.9674C33.0958 19.3365 32.5854 18.8251 31.9557 18.8251C31.3261 18.8251 30.8157 19.3365 30.8157 19.9674C30.8157 20.5983 31.3261 21.1097 31.9557 21.1097Z" fill="#414141"/>
<path d="M42.0267 28.534C42.6563 28.534 43.1667 28.0226 43.1667 27.3918C43.1667 26.7609 42.6563 26.2495 42.0267 26.2495C41.397 26.2495 40.8866 26.7609 40.8866 27.3918C40.8866 28.0226 41.397 28.534 42.0267 28.534Z" fill="#414141"/>
<path d="M52.0974 17.4925C52.727 17.4925 53.2375 16.9811 53.2375 16.3503C53.2375 15.7194 52.727 15.208 52.0974 15.208C51.4678 15.208 50.9573 15.7194 50.9573 16.3503C50.9573 16.9811 51.4678 17.4925 52.0974 17.4925Z" fill="#414141"/>
<path d="M62.1675 13.3043C62.7971 13.3043 63.3076 12.7928 63.3076 12.162C63.3076 11.5311 62.7971 11.0197 62.1675 11.0197C61.5379 11.0197 61.0274 11.5311 61.0274 12.162C61.0274 12.7928 61.5379 13.3043 62.1675 13.3043Z" fill="#414141"/>
<path d="M42.0503 27.6481L31.9559 20.0726L21.9992 27.5446L21.7714 27.2398L31.9559 19.5967L42.0023 27.1363L51.9859 16.19L52.026 16.1737L62.0964 12.1082L62.2385 12.4615L52.208 16.5107L42.0503 27.6481Z" fill="#414141"/>
</g>
<defs>
<clipPath id="clip0">
<rect width="185.391" height="130" fill="white"/>
</clipPath>
</defs>
</svg>
