<svg width="10" height="16" viewBox="0 0 10 16" fill="none" xmlns="http://www.w3.org/2000/svg">
<path d="M1.44204 0.493482C1.31766 0.495382 1.19667 0.53435 1.09457 0.605402C0.992459 0.676453 0.913874 0.776354 0.868868 0.892322C0.823861 1.00829 0.814481 1.13505 0.841926 1.25638C0.869371 1.37771 0.932394 1.48809 1.02293 1.5734L7.64402 7.99999L1.02293 14.4266C0.962707 14.4834 0.914384 14.5517 0.880769 14.6274C0.847153 14.7031 0.828916 14.7847 0.827116 14.8675C0.825315 14.9503 0.839988 15.0326 0.870282 15.1097C0.900576 15.1868 0.945887 15.2571 1.00358 15.3165C1.06128 15.3759 1.1302 15.4233 1.20636 15.4559C1.28252 15.4884 1.36438 15.5055 1.4472 15.5061C1.53002 15.5068 1.61214 15.491 1.68879 15.4596C1.76544 15.4282 1.83509 15.3819 1.8937 15.3234L8.97703 8.4484C9.03702 8.39014 9.08471 8.32043 9.11728 8.24341C9.14984 8.16639 9.16662 8.08362 9.16662 7.99999C9.16662 7.91637 9.14984 7.83359 9.11728 7.75657C9.08471 7.67955 9.03702 7.60985 8.97703 7.55159L1.8937 0.676587C1.83451 0.617374 1.76404 0.570655 1.68645 0.539201C1.60886 0.507747 1.52575 0.492199 1.44204 0.493482Z" fill="#52B6C3"/>
</svg>
