<svg width="185" height="160" viewBox="0 0 185 160" fill="none" xmlns="http://www.w3.org/2000/svg">
<path d="M132.257 54.0006C116.456 53.9285 102.254 60.7764 92.5 71.6863C82.7458 60.7764 68.5442 53.9285 52.7429 54.0006C23.0713 54.136 -0.576251 78.3973 0.0106942 108.069C0.579947 136.847 24.0816 160 52.99 160C54.1116 160 55.2247 159.965 56.3293 159.896C80.4195 158.397 104.581 158.397 128.671 159.896C129.775 159.965 130.888 160 132.01 160C160.918 160 184.42 136.847 184.989 108.069C185.576 78.3973 161.929 54.136 132.257 54.0006Z" fill="#F2FAFF"/>
<g clip-path="url(#clip0)">
<path d="M67.4529 83.267C75.647 83.267 82.2896 77.0129 82.2896 69.2982C82.2896 61.5834 75.647 55.3293 67.4529 55.3293C59.2588 55.3293 52.6162 61.5834 52.6162 69.2982C52.6162 77.0129 59.2588 83.267 67.4529 83.267Z" fill="#153E90"/>
<path d="M31.3693 103.288C31.0549 103.147 30.7869 102.928 30.5934 102.655C30.3998 102.382 30.2878 102.065 30.2692 101.737L30.0534 97.8903C30.0267 97.4066 30.2051 96.9326 30.5492 96.5725C30.8933 96.2124 31.3751 95.9955 31.8888 95.9694L65.9434 94.2756C66.4572 94.2506 66.9606 94.4185 67.3431 94.7424C67.7256 95.0664 67.9559 95.52 67.9836 96.0037L68.1995 99.8506C68.2261 100.334 68.0477 100.808 67.7036 101.168C67.3596 101.528 66.8778 101.745 66.3641 101.771L32.3095 103.465C31.9853 103.482 31.6619 103.421 31.3693 103.288Z" fill="#153E90"/>
<path d="M54.8445 103.364C54.5131 103.213 54.234 102.977 54.0395 102.682C53.845 102.388 53.743 102.048 53.7454 101.702L53.7051 94.4589C53.7069 94.2189 53.759 93.9815 53.8584 93.7604C53.9577 93.5393 54.1024 93.3388 54.2841 93.1704C54.4658 93.0019 54.681 92.8689 54.9174 92.7788C55.1538 92.6888 55.4067 92.6434 55.6617 92.6455L71.1974 93.9349C71.6087 93.9373 72.1278 94.5372 72.5451 95.0187C72.676 95.1699 72.7891 95.3004 72.8717 95.3794C72.908 95.414 72.9425 95.45 72.9752 95.4867C73.272 95.8196 73.4328 96.2413 73.4286 96.676L73.3946 100.528C73.3897 101.012 73.181 101.475 72.8142 101.815C72.4473 102.154 71.9524 102.343 71.4379 102.34L55.6819 103.544C55.392 103.543 55.106 103.481 54.8445 103.364Z" fill="#52B6C3"/>
<path d="M64.5612 158H60.4696C59.9551 157.999 59.4619 157.807 59.0981 157.464C58.7343 157.122 58.5297 156.657 58.5291 156.173V123.544C58.5297 123.059 58.7343 122.595 59.0981 122.252C59.4619 121.91 59.9551 121.717 60.4696 121.717H64.5612C65.0757 121.717 65.569 121.91 65.9328 122.252C66.2966 122.595 66.5012 123.059 66.5018 123.544V156.173C66.5012 156.657 66.2966 157.122 65.9328 157.464C65.569 157.807 65.0757 157.999 64.5612 158Z" fill="#153E90"/>
<path d="M75.3535 158H71.2619C70.7474 157.999 70.2541 157.807 69.8903 157.464C69.5265 157.122 69.3219 156.657 69.3214 156.173V123.544C69.3219 123.059 69.5266 122.595 69.8904 122.252C70.2542 121.91 70.7474 121.717 71.2619 121.717H75.3535C75.868 121.717 76.3612 121.91 76.725 122.252C77.0888 122.595 77.2935 123.059 77.294 123.544V156.173C77.2935 156.657 77.0888 157.122 76.725 157.464C76.3612 157.807 75.868 157.999 75.3535 158Z" fill="#153E90"/>
<path d="M69.4282 74.4757L69.4437 73.9536C68.4122 73.9266 67.5028 73.8657 66.8195 73.3957C66.6258 73.2549 66.4666 73.0764 66.3526 72.8725C66.2387 72.6685 66.1728 72.4439 66.1594 72.2138C66.1474 72.0732 66.1699 71.9319 66.2254 71.8009C66.2808 71.6698 66.3676 71.5526 66.4789 71.4583C66.9325 71.0976 67.6624 71.2144 68.1944 71.444L68.6532 71.6421L67.7734 65.5892L67.2241 65.6601L67.9724 70.8088C67.6661 70.7018 67.3362 70.6687 67.0129 70.7126C66.6895 70.7564 66.3829 70.8757 66.1211 71.0597C65.9449 71.2044 65.8067 71.3856 65.7172 71.589C65.6278 71.7924 65.5895 72.0125 65.6053 72.2321C65.6215 72.5413 65.7093 72.8433 65.8625 73.1172C66.0158 73.391 66.2308 73.6299 66.4925 73.8173C67.3704 74.4214 68.5114 74.4514 69.4282 74.4757Z" fill="white"/>
<path d="M64.5073 66.1039H61.5212V66.6259H64.5073V66.1039Z" fill="white"/>
<path d="M73.9334 66.1039H70.9474V66.6259H73.9334V66.1039Z" fill="white"/>
<path d="M84.3568 115.818L70.6626 90.1077H70.8557C71.3334 90.1072 71.7914 89.9283 72.1293 89.6102C72.4671 89.2922 72.6571 88.861 72.6576 88.4112V87.8892C72.6571 87.4394 72.4671 87.0082 72.1293 86.6901C71.7914 86.372 71.3334 86.1931 70.8557 86.1926H64.7568C64.2791 86.1931 63.8211 86.372 63.4832 86.6901C63.1454 87.0082 62.9554 87.4394 62.9549 87.8892V88.4112C62.9563 88.8261 63.1195 89.2262 63.4135 89.5353C63.7075 89.8444 64.1118 90.0411 64.5498 90.088L50.8161 115.832C50.163 117.057 49.8534 118.418 49.9169 119.787C49.9803 121.156 50.4147 122.486 51.1786 123.653C51.9425 124.819 53.0107 125.781 54.2814 126.449C55.5521 127.117 56.9831 127.467 58.4383 127.467H76.7201C78.1772 127.467 79.6101 127.117 80.8825 126.448C82.155 125.78 83.2247 124.816 83.99 123.649C84.7553 122.481 85.1907 121.149 85.2549 119.778C85.3191 118.408 85.0099 117.045 84.3568 115.818Z" fill="#52B6C3"/>
<path d="M68.0945 95.9266L98.9844 82.3232C99.4506 82.1184 99.9841 82.0962 100.468 82.2613C100.951 82.4264 101.346 82.7655 101.564 83.204L103.298 86.6934C103.515 87.1324 103.539 87.6347 103.364 88.0901C103.188 88.5454 102.828 88.9167 102.362 89.1224L71.4723 102.726C71.0061 102.931 70.4726 102.953 69.9889 102.788C69.5052 102.623 69.1109 102.284 68.8925 101.845L67.1589 98.3557C67.0504 98.1385 66.9887 97.9033 66.9774 97.6635C66.9661 97.4238 67.0055 97.1843 67.0932 96.959C67.1617 96.7803 67.2593 96.6127 67.3824 96.4623C67.5708 96.2327 67.815 96.049 68.0945 95.9266Z" fill="#153E90"/>
<path d="M67.0349 95.8429L80.6346 88.2107C81.0982 88.0013 81.6311 87.9735 82.1164 88.1334C82.6017 88.2933 82.9999 88.6279 83.2236 89.0638L86.6532 95.5511C86.7642 95.768 86.8284 96.0035 86.8423 96.244C86.8561 96.4844 86.8194 96.7251 86.7341 96.9521C86.6488 97.1791 86.5166 97.3879 86.3452 97.5667C86.1739 97.7454 85.9666 97.8905 85.7355 97.9935L71.2077 103.277C70.8273 103.45 70.0804 103.127 69.4803 102.868C69.2922 102.787 69.1296 102.717 69.0185 102.68C68.9697 102.664 68.9218 102.646 68.8753 102.626C68.453 102.451 68.1112 102.139 67.9115 101.747L66.1381 98.2758C65.982 97.9697 65.9194 97.6289 65.9571 97.2912C65.9948 96.9536 66.1314 96.6325 66.3517 96.3637C66.5331 96.1422 66.7671 95.9638 67.0349 95.8429Z" fill="#52B6C3"/>
<path d="M55.7349 62.0328C55.5364 62.0322 55.3462 61.9576 55.2059 61.8255C55.0656 61.6933 54.9866 61.5142 54.9861 61.3273C54.9852 61.2718 54.9918 61.2164 55.0058 61.1625L58.8837 45.0803C58.9131 44.9592 58.9757 44.8475 59.0653 44.7563C59.1549 44.6651 59.2684 44.5977 59.3944 44.5608C59.5204 44.5239 59.6545 44.5188 59.7832 44.546C59.912 44.5732 60.0309 44.6318 60.128 44.7159L72.9845 55.9248C73.0812 56.0093 73.1526 56.1161 73.1917 56.2347C73.2308 56.3534 73.2361 56.4795 73.2072 56.6007C73.1782 56.7218 73.1161 56.8337 73.0268 56.9251C72.9375 57.0166 72.8244 57.0843 72.6986 57.1217L55.9603 62.001C55.8872 62.022 55.8113 62.0327 55.7349 62.0328Z" fill="#414141"/>
<path d="M66.2505 50.2766L58.1749 48.7634L58.3019 48.2354L65.4414 49.5718L66.2505 50.2766Z" fill="white"/>
<path d="M72.6091 55.8226L57.1688 52.9298L57.2959 52.399L71.7997 55.1149L72.6091 55.8226Z" fill="white"/>
<path d="M67.086 58.5871L65.9271 58.9245L56.1664 57.0957L56.2935 56.5649L67.086 58.5871Z" fill="white"/>
<path d="M104.733 62.2788C106.079 62.2788 107.17 61.2515 107.17 59.9842C107.17 58.7169 106.079 57.6896 104.733 57.6896C103.387 57.6896 102.296 58.7169 102.296 59.9842C102.296 61.2515 103.387 62.2788 104.733 62.2788Z" fill="#153E90"/>
<path d="M73.3999 3.27801C74.3612 3.27801 75.1406 2.5442 75.1406 1.639C75.1406 0.733807 74.3612 0 73.3999 0C72.4385 0 71.6591 0.733807 71.6591 1.639C71.6591 2.5442 72.4385 3.27801 73.3999 3.27801Z" fill="#C41974"/>
<path d="M35.4517 54.0843C36.4131 54.0843 37.1924 53.3505 37.1924 52.4453C37.1924 51.5401 36.4131 50.8063 35.4517 50.8063C34.4903 50.8063 33.7109 51.5401 33.7109 52.4453C33.7109 53.3505 34.4903 54.0843 35.4517 54.0843Z" fill="#C41974"/>
<path d="M96.3777 48.512C97.3391 48.512 98.1184 47.7782 98.1184 46.873C98.1184 45.9678 97.3391 45.234 96.3777 45.234C95.4163 45.234 94.637 45.9678 94.637 46.873C94.637 47.7782 95.4163 48.512 96.3777 48.512Z" fill="#153E90"/>
<path d="M43.4591 70.8011C44.4204 70.8011 45.1998 70.0673 45.1998 69.1621C45.1998 68.2569 44.4204 67.5231 43.4591 67.5231C42.4977 67.5231 41.7183 68.2569 41.7183 69.1621C41.7183 70.0673 42.4977 70.8011 43.4591 70.8011Z" fill="#153E90"/>
<path d="M98.4664 75.3902C99.4278 75.3902 100.207 74.6564 100.207 73.7512C100.207 72.846 99.4278 72.1122 98.4664 72.1122C97.505 72.1122 96.7256 72.846 96.7256 73.7512C96.7256 74.6564 97.505 75.3902 98.4664 75.3902Z" fill="#E8E7E7"/>
<path d="M83.1477 17.0446C84.1091 17.0446 84.8884 16.3108 84.8884 15.4056C84.8884 14.5004 84.1091 13.7666 83.1477 13.7666C82.1863 13.7666 81.407 14.5004 81.407 15.4056C81.407 16.3108 82.1863 17.0446 83.1477 17.0446Z" fill="#BCBCBC"/>
<path d="M17.354 35.0652C19.1767 35.1733 20.9463 35.6866 22.5176 36.5629C24.089 37.4392 25.4174 38.6537 26.394 40.1067C26.6676 40.5187 27.0249 40.9713 26.8355 41.4784C26.7694 41.6728 26.6353 41.8403 26.4551 41.9537C26.2748 42.0671 26.059 42.1195 25.843 42.1024C25.5737 42.0478 25.3309 41.9113 25.1521 41.714C24.9733 41.5166 24.8685 41.2694 24.8538 41.0103C24.839 40.7513 24.9152 40.4949 25.0706 40.2807C25.2259 40.0665 25.4518 39.9064 25.7134 39.825C26.9776 39.3173 28.253 40.1019 29.2828 40.7281C31.6291 42.1549 34.2099 43.4453 37.0531 43.6079C39.6836 43.7584 42.5045 42.7873 43.9677 40.6395C44.2237 40.2638 43.5881 39.9165 43.3334 40.2904C41.8823 42.4205 38.9488 43.1855 36.3981 42.8563C34.8781 42.6304 33.4104 42.1613 32.0586 41.4691C31.3575 41.1266 30.6776 40.7469 30.0114 40.3477C29.3774 39.9312 28.7055 39.5686 28.0034 39.264C26.8326 38.8111 25.2826 38.8465 24.4648 39.8891C23.7018 40.8617 24.2915 42.481 25.5676 42.7544C25.8476 42.8064 26.1368 42.7921 26.4095 42.713C26.6821 42.6338 26.9296 42.4921 27.1298 42.3007C27.33 42.1093 27.4767 41.8741 27.5565 41.6162C27.6364 41.3583 27.6471 41.0857 27.5876 40.823C27.4603 40.2502 27.0022 39.6897 26.6476 39.2216C25.5822 37.8105 24.1942 36.6425 22.5858 35.8034C20.9774 34.9644 19.1895 34.4758 17.3539 34.3736C16.8814 34.3516 16.8826 35.0432 17.3539 35.0652L17.354 35.0652Z" fill="#BCBCBC"/>
<path d="M120.306 56.0009C119.084 55.2606 118.067 54.2584 117.336 53.0763C116.606 51.8942 116.183 50.5659 116.103 49.2004C116.083 48.8144 116.021 48.3697 116.361 48.0867C116.487 47.9758 116.649 47.9083 116.821 47.8954C116.993 47.8824 117.164 47.9248 117.307 48.0155C117.472 48.1517 117.584 48.3351 117.627 48.5374C117.67 48.7397 117.641 48.9497 117.545 49.135C117.448 49.3202 117.29 49.4705 117.094 49.5625C116.898 49.6546 116.675 49.6834 116.46 49.6444C115.373 49.5357 114.81 48.5253 114.353 47.7146C113.311 45.8673 112.049 44.0293 110.142 42.8788C108.377 41.8142 106.018 41.4592 104.118 42.4168C103.785 42.5844 104.083 43.0574 104.414 42.8907C106.299 41.941 108.651 42.4803 110.287 43.6398C111.25 44.3514 112.076 45.2128 112.73 46.1869C113.076 46.6806 113.392 47.1925 113.69 47.7129C113.959 48.2334 114.276 48.7305 114.638 49.1983C115.265 49.9401 116.356 50.4812 117.353 50.0556C117.575 49.9473 117.768 49.7916 117.914 49.6009C118.061 49.4102 118.159 49.1898 118.199 48.9573C118.239 48.7248 118.221 48.4867 118.146 48.262C118.071 48.0373 117.941 47.8322 117.767 47.6631C117.594 47.5249 117.387 47.4292 117.165 47.3847C116.943 47.3402 116.713 47.3483 116.495 47.4081C116.277 47.468 116.079 47.5779 115.917 47.7278C115.755 47.8778 115.636 48.0631 115.569 48.2673C115.466 48.7474 115.464 49.2417 115.562 49.7226C115.721 51.0914 116.204 52.4091 116.976 53.5788C117.748 54.7485 118.788 55.7404 120.021 56.4813C120.34 56.669 120.624 56.1882 120.306 56.0009L120.306 56.0009Z" fill="#BCBCBC"/>
<path d="M60.2367 10.6222C58.787 10.5362 57.3796 10.128 56.1298 9.43096C54.8801 8.73397 53.8235 7.76804 53.0468 6.61236C52.8291 6.28474 52.545 5.92471 52.6957 5.52145C52.7482 5.36683 52.8548 5.23355 52.9982 5.14339C53.1416 5.05323 53.3132 5.01153 53.485 5.02511C53.6992 5.06853 53.8923 5.17709 54.0345 5.33406C54.1767 5.49103 54.2601 5.68769 54.2718 5.8937C54.2835 6.09971 54.2229 6.30362 54.0993 6.474C53.9758 6.64438 53.7961 6.77174 53.5881 6.83646C52.5826 7.24026 51.5682 6.61621 50.7492 6.11817C48.883 4.98333 46.8304 3.95703 44.5691 3.8277C42.4768 3.70806 40.2333 4.48041 39.0695 6.18863C38.8659 6.48749 39.3715 6.76365 39.574 6.46626C40.7282 4.77213 43.0613 4.16367 45.09 4.42552C46.2989 4.60514 47.4663 4.97827 48.5414 5.52877C49.099 5.80122 49.6398 6.10323 50.1697 6.42071C50.6739 6.75195 51.2083 7.0404 51.7667 7.28266C52.6979 7.64281 53.9306 7.61468 54.5811 6.78548C54.7191 6.58898 54.8063 6.36482 54.8358 6.13092C54.8653 5.89701 54.8363 5.65985 54.7511 5.43839C54.6658 5.21692 54.5268 5.01731 54.3449 4.8555C54.1631 4.69369 53.9436 4.57418 53.704 4.50651C53.4813 4.46519 53.2513 4.47653 53.0344 4.53951C52.8176 4.6025 52.6207 4.71517 52.4615 4.86741C52.3022 5.01966 52.1856 5.20672 52.1221 5.41184C52.0586 5.61695 52.0501 5.83371 52.0974 6.04267C52.2563 6.50896 52.5103 6.9416 52.845 7.31638C53.6924 8.43866 54.7963 9.36768 56.0756 10.035C57.3549 10.7023 58.7768 11.0909 60.2368 11.1722C60.6126 11.1897 60.6116 10.6396 60.2368 10.6222L60.2367 10.6222Z" fill="#BCBCBC"/>
<path d="M61.5633 28.0488H59.8225V33.4341H61.5633V28.0488Z" fill="#BCBCBC"/>
<path d="M33.4173 24.2908L34.6272 23.1517L30.6521 19.4092L29.4423 20.5482L33.4173 24.2908Z" fill="#BCBCBC"/>
<path d="M82.3611 35.6077L83.5709 36.7467L87.546 33.0042L86.3362 31.8651L82.3611 35.6077Z" fill="#BCBCBC"/>
<path d="M32.9238 82.1526L34.1336 83.2916L38.1087 79.5491L36.8989 78.41L32.9238 82.1526Z" fill="#C41974"/>
</g>
<g clip-path="url(#clip1)">
<path d="M137.595 111.647C132.495 111.647 128.36 107.767 128.36 102.982C128.36 98.1972 132.495 94.3181 137.595 94.3181C142.696 94.3181 146.831 98.1972 146.831 102.982C146.831 107.767 142.696 111.647 137.595 111.647Z" fill="#153E90"/>
<path d="M160.056 124.065C160.252 123.977 160.419 123.841 160.539 123.672C160.66 123.503 160.729 123.306 160.741 123.103L160.875 120.717C160.892 120.417 160.781 120.123 160.567 119.899C160.352 119.676 160.052 119.542 159.733 119.525L138.535 118.475C138.216 118.459 137.902 118.563 137.664 118.764C137.426 118.965 137.283 119.247 137.265 119.547L137.131 121.933C137.115 122.233 137.226 122.527 137.44 122.75C137.654 122.973 137.954 123.108 138.274 123.124L159.471 124.175C159.673 124.185 159.874 124.147 160.056 124.065Z" fill="#153E90"/>
<path d="M145.444 124.112C145.65 124.018 145.824 123.872 145.945 123.689C146.066 123.507 146.129 123.296 146.128 123.081L146.153 118.588C146.152 118.44 146.119 118.292 146.058 118.155C145.996 118.018 145.906 117.894 145.793 117.789C145.68 117.685 145.546 117.602 145.398 117.546C145.251 117.491 145.094 117.462 144.935 117.464L135.265 118.263C135.009 118.265 134.686 118.637 134.426 118.936C134.345 119.029 134.274 119.11 134.223 119.159C134.2 119.181 134.179 119.203 134.158 119.226C133.974 119.432 133.874 119.694 133.876 119.964L133.897 122.353C133.9 122.653 134.03 122.94 134.259 123.151C134.487 123.362 134.795 123.479 135.115 123.477L144.923 124.223C145.103 124.223 145.281 124.185 145.444 124.112Z" fill="#52B6C3"/>
<path d="M139.396 158H141.943C142.263 158 142.57 157.88 142.796 157.668C143.023 157.455 143.15 157.167 143.15 156.867V136.628C143.15 136.328 143.023 136.04 142.796 135.827C142.57 135.615 142.263 135.495 141.943 135.495H139.396C139.075 135.495 138.768 135.615 138.542 135.827C138.316 136.04 138.188 136.328 138.188 136.628V156.867C138.188 157.167 138.316 157.455 138.542 157.668C138.768 157.88 139.075 158 139.396 158Z" fill="#153E90"/>
<path d="M132.678 158H135.225C135.545 158 135.852 157.88 136.078 157.668C136.305 157.455 136.432 157.167 136.433 156.867V136.628C136.432 136.328 136.305 136.04 136.078 135.827C135.852 135.615 135.545 135.495 135.225 135.495H132.678C132.358 135.495 132.051 135.615 131.824 135.827C131.598 136.04 131.47 136.328 131.47 136.628V156.867C131.47 157.167 131.598 157.455 131.824 157.668C132.051 157.88 132.358 158 132.678 158Z" fill="#153E90"/>
<path d="M136.366 106.194L136.357 105.87C136.999 105.853 137.565 105.815 137.99 105.524C138.111 105.437 138.21 105.326 138.281 105.199C138.351 105.073 138.392 104.933 138.401 104.791C138.408 104.704 138.394 104.616 138.36 104.535C138.325 104.453 138.271 104.381 138.202 104.322C137.92 104.098 137.465 104.171 137.134 104.313L136.849 104.436L137.396 100.682L137.738 100.726L137.272 103.919C137.463 103.853 137.668 103.832 137.87 103.86C138.071 103.887 138.262 103.961 138.425 104.075C138.534 104.165 138.62 104.277 138.676 104.403C138.732 104.529 138.756 104.666 138.746 104.802C138.736 104.994 138.681 105.181 138.586 105.351C138.49 105.521 138.356 105.669 138.193 105.785C137.647 106.16 136.937 106.179 136.366 106.194Z" fill="white"/>
<path d="M139.429 101.001H141.288V101.325H139.429V101.001Z" fill="white"/>
<path d="M133.562 101.001H135.421V101.325H133.562V101.001Z" fill="white"/>
<path d="M127.074 131.837L135.598 115.89H135.478C135.18 115.889 134.895 115.778 134.685 115.581C134.475 115.384 134.356 115.116 134.356 114.837V114.514C134.356 114.235 134.475 113.967 134.685 113.77C134.895 113.573 135.18 113.462 135.478 113.461H139.274C139.571 113.462 139.856 113.573 140.067 113.77C140.277 113.967 140.395 114.235 140.395 114.514V114.837C140.395 115.095 140.293 115.343 140.11 115.535C139.927 115.726 139.675 115.848 139.403 115.877L147.951 131.846C148.358 132.605 148.55 133.449 148.511 134.298C148.471 135.147 148.201 135.973 147.726 136.696C147.25 137.419 146.585 138.016 145.794 138.431C145.003 138.845 144.113 139.062 143.207 139.062H131.827C130.92 139.062 130.028 138.844 129.236 138.43C128.444 138.015 127.779 137.418 127.302 136.694C126.826 135.969 126.555 135.143 126.515 134.293C126.475 133.443 126.667 132.597 127.074 131.837Z" fill="#52B6C3"/>
<path d="M137.197 119.499L117.969 111.061C117.679 110.934 117.347 110.92 117.046 111.023C116.745 111.125 116.499 111.336 116.363 111.608L115.284 113.772C115.149 114.044 115.134 114.356 115.243 114.638C115.352 114.921 115.577 115.151 115.867 115.278L135.094 123.716C135.384 123.843 135.716 123.857 136.017 123.754C136.318 123.652 136.564 123.442 136.7 123.17L137.779 121.005C137.846 120.871 137.885 120.725 137.892 120.576C137.899 120.427 137.874 120.279 137.82 120.139C137.777 120.028 137.716 119.924 137.64 119.831C137.522 119.689 137.37 119.575 137.197 119.499Z" fill="#153E90"/>
<path d="M137.856 119.447L129.391 114.713C129.102 114.583 128.77 114.566 128.468 114.665C128.166 114.764 127.918 114.972 127.779 115.242L125.644 119.266C125.575 119.401 125.535 119.547 125.527 119.696C125.518 119.845 125.541 119.994 125.594 120.135C125.647 120.276 125.729 120.405 125.836 120.516C125.943 120.627 126.072 120.717 126.216 120.781L135.258 124.058C135.495 124.165 135.96 123.965 136.334 123.804C136.451 123.754 136.552 123.71 136.621 123.688C136.651 123.678 136.681 123.666 136.71 123.654C136.973 123.546 137.186 123.352 137.31 123.109L138.414 120.956C138.511 120.766 138.55 120.555 138.527 120.345C138.503 120.136 138.418 119.937 138.281 119.77C138.168 119.633 138.022 119.522 137.856 119.447Z" fill="#52B6C3"/>
<path d="M144.889 98.476C145.013 98.4757 145.131 98.4294 145.219 98.3474C145.306 98.2655 145.355 98.1544 145.355 98.0385C145.356 98.004 145.352 97.9697 145.343 97.9362L142.929 87.9612C142.911 87.8861 142.872 87.8168 142.816 87.7602C142.76 87.7037 142.69 87.6619 142.611 87.639C142.533 87.6161 142.45 87.6129 142.369 87.6298C142.289 87.6467 142.215 87.683 142.155 87.7352L134.152 94.6876C134.092 94.7399 134.048 94.8062 134.023 94.8798C133.999 94.9534 133.996 95.0316 134.014 95.1068C134.032 95.1819 134.07 95.2513 134.126 95.308C134.182 95.3647 134.252 95.4067 134.33 95.4299L144.749 98.4563C144.794 98.4693 144.842 98.476 144.889 98.476Z" fill="#414141"/>
<path d="M138.344 91.1842L143.371 90.2456L143.292 89.9181L138.848 90.747L138.344 91.1842Z" fill="white"/>
<path d="M134.386 94.6242L143.997 92.8299L143.918 92.5007L134.89 94.1852L134.386 94.6242Z" fill="white"/>
<path d="M137.824 96.3389L138.546 96.5481L144.621 95.4138L144.542 95.0846L137.824 96.3389Z" fill="white"/>
<path d="M114.391 98.6287C113.553 98.6287 112.874 97.9915 112.874 97.2055C112.874 96.4194 113.553 95.7822 114.391 95.7822C115.229 95.7822 115.908 96.4194 115.908 97.2055C115.908 97.9915 115.229 98.6287 114.391 98.6287Z" fill="#153E90"/>
<path d="M133.894 62.0332C133.296 62.0332 132.81 61.578 132.81 61.0166C132.81 60.4551 133.296 60 133.894 60C134.492 60 134.977 60.4551 134.977 61.0166C134.977 61.578 134.492 62.0332 133.894 62.0332Z" fill="#C41974"/>
<path d="M157.515 93.546C156.916 93.546 156.431 93.0909 156.431 92.5294C156.431 91.968 156.916 91.5128 157.515 91.5128C158.113 91.5128 158.598 91.968 158.598 92.5294C158.598 93.0909 158.113 93.546 157.515 93.546Z" fill="#C41974"/>
<path d="M119.591 90.0898C118.993 90.0898 118.508 89.6347 118.508 89.0732C118.508 88.5118 118.993 88.0566 119.591 88.0566C120.19 88.0566 120.675 88.5118 120.675 89.0732C120.675 89.6347 120.19 90.0898 119.591 90.0898Z" fill="#153E90"/>
<path d="M152.53 103.915C151.932 103.915 151.447 103.46 151.447 102.898C151.447 102.337 151.932 101.881 152.53 101.881C153.129 101.881 153.614 102.337 153.614 102.898C153.614 103.46 153.129 103.915 152.53 103.915Z" fill="#153E90"/>
<path d="M118.291 106.761C117.693 106.761 117.208 106.306 117.208 105.744C117.208 105.183 117.693 104.728 118.291 104.728C118.89 104.728 119.375 105.183 119.375 105.744C119.375 106.306 118.89 106.761 118.291 106.761Z" fill="#E8E7E7"/>
<path d="M127.827 70.572C127.228 70.572 126.743 70.1169 126.743 69.5554C126.743 68.994 127.228 68.5388 127.827 68.5388C128.425 68.5388 128.91 68.994 128.91 69.5554C128.91 70.1169 128.425 70.572 127.827 70.572Z" fill="#BCBCBC"/>
<path d="M168.78 81.7492C167.645 81.8163 166.544 82.1347 165.566 82.6782C164.587 83.2218 163.761 83.975 163.153 84.8763C162.982 85.1318 162.76 85.4126 162.878 85.727C162.919 85.8476 163.003 85.9516 163.115 86.0219C163.227 86.0922 163.361 86.1247 163.496 86.1141C163.663 86.0803 163.814 85.9956 163.926 85.8732C164.037 85.7508 164.102 85.5974 164.111 85.4367C164.121 85.2761 164.073 85.1171 163.977 84.9842C163.88 84.8513 163.739 84.752 163.576 84.7015C162.789 84.3866 161.996 84.8733 161.355 85.2617C159.894 86.1467 158.288 86.9471 156.518 87.0479C154.881 87.1412 153.125 86.5389 152.214 85.2067C152.055 84.9737 152.45 84.7583 152.609 84.9902C153.512 86.3114 155.338 86.7859 156.926 86.5817C157.872 86.4416 158.785 86.1506 159.627 85.7213C160.063 85.5089 160.486 85.2733 160.901 85.0257C161.296 84.7674 161.714 84.5425 162.151 84.3536C162.88 84.0727 163.844 84.0946 164.354 84.7413C164.828 85.3446 164.461 86.3489 163.667 86.5185C163.493 86.5508 163.313 86.5419 163.143 86.4928C162.973 86.4437 162.819 86.3558 162.695 86.2371C162.57 86.1184 162.479 85.9725 162.429 85.8125C162.379 85.6526 162.373 85.4835 162.41 85.3206C162.489 84.9653 162.774 84.6176 162.995 84.3273C163.658 83.452 164.522 82.7276 165.523 82.2071C166.524 81.6867 167.637 81.3837 168.78 81.3203C169.074 81.3066 169.073 81.7356 168.78 81.7492L168.78 81.7492Z" fill="#BCBCBC"/>
<path d="M104.697 94.7349C105.458 94.2757 106.091 93.654 106.546 92.9208C107 92.1877 107.263 91.3638 107.313 90.5168C107.326 90.2774 107.364 90.0016 107.153 89.826C107.074 89.7572 106.973 89.7154 106.866 89.7074C106.759 89.6994 106.653 89.7256 106.564 89.7819C106.461 89.8664 106.391 89.9801 106.365 90.1056C106.338 90.2311 106.356 90.3613 106.416 90.4762C106.476 90.5911 106.575 90.6843 106.697 90.7414C106.819 90.7986 106.957 90.8164 107.091 90.7922C107.768 90.7248 108.118 90.0981 108.403 89.5952C109.051 88.4495 109.836 87.3094 111.024 86.5958C112.122 85.9355 113.591 85.7153 114.774 86.3093C114.981 86.4132 114.795 86.7066 114.589 86.6032C113.416 86.0142 111.952 86.3487 110.933 87.0678C110.334 87.5092 109.82 88.0435 109.413 88.6477C109.198 88.9539 109.001 89.2714 108.815 89.5942C108.648 89.9171 108.45 90.2254 108.225 90.5155C107.835 90.9756 107.156 91.3112 106.535 91.0473C106.397 90.9801 106.277 90.8835 106.186 90.7652C106.094 90.647 106.034 90.5103 106.009 90.3661C105.984 90.2218 105.995 90.0742 106.042 89.9348C106.088 89.7954 106.169 89.6682 106.278 89.5633C106.385 89.4776 106.514 89.4182 106.652 89.3906C106.79 89.363 106.934 89.368 107.069 89.4052C107.205 89.4423 107.328 89.5104 107.429 89.6034C107.53 89.6964 107.604 89.8114 107.646 89.9381C107.71 90.2358 107.711 90.5424 107.65 90.8407C107.551 91.6897 107.25 92.507 106.77 93.2326C106.29 93.9581 105.642 94.5733 104.875 95.0328C104.676 95.1492 104.499 94.851 104.697 94.7349L104.697 94.7349Z" fill="#BCBCBC"/>
<path d="M142.087 66.5883C142.99 66.535 143.866 66.2818 144.644 65.8495C145.422 65.4172 146.079 64.818 146.563 64.1012C146.698 63.898 146.875 63.6747 146.781 63.4246C146.749 63.3287 146.682 63.246 146.593 63.1901C146.504 63.1342 146.397 63.1083 146.29 63.1167C146.157 63.1437 146.037 63.211 145.948 63.3084C145.86 63.4057 145.808 63.5277 145.8 63.6555C145.793 63.7833 145.831 63.9097 145.908 64.0154C145.985 64.1211 146.096 64.2001 146.226 64.2402C146.852 64.4907 147.483 64.1036 147.993 63.7947C149.155 63.0908 150.432 62.4543 151.84 62.374C153.142 62.2998 154.539 62.7789 155.263 63.8384C155.39 64.0238 155.075 64.1951 154.949 64.0106C154.231 62.9598 152.778 62.5824 151.516 62.7448C150.763 62.8562 150.036 63.0877 149.367 63.4291C149.02 63.5981 148.683 63.7854 148.354 63.9824C148.04 64.1878 147.707 64.3667 147.36 64.517C146.78 64.7404 146.013 64.7229 145.608 64.2086C145.522 64.0867 145.468 63.9477 145.449 63.8026C145.431 63.6575 145.449 63.5104 145.502 63.3731C145.555 63.2357 145.642 63.1119 145.755 63.0115C145.868 62.9112 146.005 62.837 146.154 62.7951C146.292 62.7694 146.436 62.7765 146.571 62.8155C146.705 62.8546 146.828 62.9245 146.927 63.0189C147.026 63.1134 147.099 63.2294 147.138 63.3566C147.178 63.4838 147.183 63.6183 147.154 63.7479C147.055 64.0371 146.897 64.3054 146.688 64.5379C146.161 65.234 145.474 65.8102 144.678 66.2241C143.881 66.638 142.996 66.8791 142.087 66.9295C141.853 66.9404 141.854 66.5991 142.087 66.5883L142.087 66.5883Z" fill="#BCBCBC"/>
<path d="M141.261 77.3973H142.345V80.7376H141.261V77.3973Z" fill="#BCBCBC"/>
<path d="M158.781 75.0664L158.028 74.3599L160.502 72.0385L161.255 72.745L158.781 75.0664Z" fill="#BCBCBC"/>
<path d="M128.316 82.0859L127.563 82.7924L125.089 80.471L125.842 79.7645L128.316 82.0859Z" fill="#BCBCBC"/>
<path d="M159.088 110.955L158.335 111.662L155.861 109.341L156.614 108.634L159.088 110.955Z" fill="#C41974"/>
</g>
<defs>
<clipPath id="clip0">
<rect width="103.444" height="158" fill="white" transform="translate(17)"/>
</clipPath>
<clipPath id="clip1">
<rect width="64.3889" height="98" fill="white" transform="matrix(-1 0 0 1 169 60)"/>
</clipPath>
</defs>
</svg>
