<svg width="84" height="44" viewBox="0 0 84 44" fill="none" xmlns="http://www.w3.org/2000/svg">
<g filter="url(#filter0_d)">
<rect x="8" y="4" width="70" height="32" rx="16" fill="white"/>
<rect x="8.15" y="4.15" width="69.7" height="31.7" rx="15.85" stroke="#F7F7F7" stroke-width="0.3"/>
</g>
<g filter="url(#filter1_d)">
<circle cx="20" cy="20" r="18" fill="#52B6C3"/>
</g>
<path d="M24.4423 19.5769C24.0616 19.4359 23.6808 19.2949 23.427 19.2949H20V17.8846H23.8077C23.8077 17.0385 23.3 16.4744 22.5385 16.4744H17.4616C17.4616 17.3205 17.9693 17.8846 18.7308 17.8846V19.2949C18.0962 19.2949 17.4616 19.0128 17.2077 18.4487L15.8116 15.9103C15.4308 15.3462 14.9231 15.0641 14.4154 15.0641H13.6539V14.0769C13.6539 13.6539 13.527 13.3718 13.4 12.9487L13.0193 11.9615C12.6385 11.2564 11.877 10.8333 11.1154 10.8333H9.84619L16.1923 20.7051C16.7 21.5513 17.5885 22.1154 18.477 22.1154H20V23.5257H18.7308V26.3462H17.9693C16.827 26.3462 15.6847 26.9103 14.9231 27.7564H13.6539V29.1667H27.6154V27.7564H26.3462C25.5847 26.9103 24.4423 26.3462 23.3 26.3462H22.5385V23.5257H21.2693V22.1154H23.3C23.5539 22.1154 23.9347 22.2564 24.1885 22.3974L26.3462 23.6667C27.4885 24.3718 28.8847 24.3718 30.027 23.6667H30.1539L24.4423 19.5769Z" fill="white"/>
<path d="M53.2083 10C52.4104 10 51.75 10.6604 51.75 11.4583V16.9971C50.0195 18.4728 49.25 21.0749 49.25 23.9583V26.0417C49.25 27.2999 50.2834 28.3333 51.5417 28.3333H55.2917C55.334 28.3338 55.3763 28.33 55.4178 28.3219C56.1896 28.8529 57.065 29.1667 58 29.1667C58.9664 29.1667 59.8811 28.8632 60.6888 28.3333C60.6953 28.3334 60.7018 28.3334 60.7083 28.3333H64.4583C65.7166 28.3333 66.75 27.2999 66.75 26.0417V23.9583C66.75 20.9179 65.8952 18.7743 64.25 17.041V11.4583C64.25 10.6604 63.5896 10 62.7917 10H53.2083ZM53.2083 11.25H62.7917C62.9146 11.25 63 11.3354 63 11.4583V17.0833H58.7178C58.6833 17.0783 58.6484 17.0761 58.6136 17.0768C58.5894 17.0776 58.5652 17.0798 58.5412 17.0833H57.4523C57.424 17.0792 57.3955 17.077 57.3669 17.0768C57.3391 17.0771 57.3113 17.0793 57.2839 17.0833H53V11.4583C53 11.3354 53.0854 11.25 53.2083 11.25ZM57.7917 12.5C57.4467 12.5 57.1667 12.78 57.1667 13.125V13.75H56.5417C56.1967 13.75 55.9167 14.03 55.9167 14.375C55.9167 14.72 56.1967 15 56.5417 15H57.1667V15.625C57.1667 15.97 57.4467 16.25 57.7917 16.25C58.1367 16.25 58.4167 15.97 58.4167 15.625V15H59.0417C59.3867 15 59.6667 14.72 59.6667 14.375C59.6667 14.03 59.3867 13.75 59.0417 13.75H58.4167V13.125C58.4167 12.78 58.1367 12.5 57.7917 12.5ZM52.1951 18.3065C52.2535 18.3241 52.3141 18.3332 52.375 18.3333H57.056C56.2811 18.9621 55.1572 19.6864 53.8529 19.9089C52.9461 20.0634 52.2434 20.8178 52.1789 21.7399C52.1657 21.803 52.1624 21.8678 52.1691 21.932C52.1705 21.9552 52.1732 21.9783 52.1772 22.0011C52.3676 23.9628 53.0323 25.7116 54.0352 27.0044C54.0565 27.0319 54.0802 27.0562 54.1019 27.0833H51.5417C50.9591 27.0833 50.5 26.6243 50.5 26.0417V23.9583C50.5 21.5625 51.1143 19.512 52.1951 18.3065ZM63.7267 18.3244C64.9237 19.7474 65.5 21.3959 65.5 23.9583V26.0417C65.5 26.6243 65.0409 27.0833 64.4583 27.0833H62.0658C63.1413 25.772 63.8179 23.9504 63.8309 21.9336C63.8326 21.9141 63.8334 21.8946 63.8333 21.875C63.8339 21.831 63.8298 21.7871 63.8211 21.744C63.7584 20.8201 63.0552 20.0636 62.1471 19.9089C60.8428 19.6864 59.7189 18.9621 58.944 18.3333H63.625C63.6591 18.3331 63.6931 18.3301 63.7267 18.3244ZM58 19.1927C58.8849 19.9433 60.2436 20.8521 61.9372 21.141C62.3209 21.2063 62.5833 21.5054 62.5833 21.875C62.5833 25.3517 60.3061 27.9167 58 27.9167C56.9007 27.9167 55.8634 27.3211 55.0231 26.2378C54.1884 25.1617 53.5849 23.6157 53.4183 21.853C53.4287 21.4938 53.6869 21.205 54.0628 21.141C55.7564 20.8521 57.1151 19.9433 58 19.1927ZM55.9167 21.6667C55.6957 21.6667 55.4837 21.7545 55.3274 21.9107C55.1711 22.067 55.0833 22.279 55.0833 22.5C55.0833 22.721 55.1711 22.933 55.3274 23.0893C55.4837 23.2455 55.6957 23.3333 55.9167 23.3333C56.1377 23.3333 56.3496 23.2455 56.5059 23.0893C56.6622 22.933 56.75 22.721 56.75 22.5C56.75 22.279 56.6622 22.067 56.5059 21.9107C56.3496 21.7545 56.1377 21.6667 55.9167 21.6667ZM60.0833 21.6667C59.8623 21.6667 59.6504 21.7545 59.4941 21.9107C59.3378 22.067 59.25 22.279 59.25 22.5C59.25 22.721 59.3378 22.933 59.4941 23.0893C59.6504 23.2455 59.8623 23.3333 60.0833 23.3333C60.3043 23.3333 60.5163 23.2455 60.6726 23.0893C60.8289 22.933 60.9167 22.721 60.9167 22.5C60.9167 22.279 60.8289 22.067 60.6726 21.9107C60.5163 21.7545 60.3043 21.6667 60.0833 21.6667Z" fill="#BCBCBC"/>
<defs>
<filter id="filter0_d" x="6" y="2" width="78" height="40" filterUnits="userSpaceOnUse" color-interpolation-filters="sRGB">
<feFlood flood-opacity="0" result="BackgroundImageFix"/>
<feColorMatrix in="SourceAlpha" type="matrix" values="0 0 0 0 0 0 0 0 0 0 0 0 0 0 0 0 0 0 127 0" result="hardAlpha"/>
<feOffset dx="2" dy="2"/>
<feGaussianBlur stdDeviation="2"/>
<feColorMatrix type="matrix" values="0 0 0 0 0.7375 0 0 0 0 0.7375 0 0 0 0 0.7375 0 0 0 0.25 0"/>
<feBlend mode="normal" in2="BackgroundImageFix" result="effect1_dropShadow"/>
<feBlend mode="normal" in="SourceGraphic" in2="effect1_dropShadow" result="shape"/>
</filter>
<filter id="filter1_d" x="0" y="0" width="44" height="44" filterUnits="userSpaceOnUse" color-interpolation-filters="sRGB">
<feFlood flood-opacity="0" result="BackgroundImageFix"/>
<feColorMatrix in="SourceAlpha" type="matrix" values="0 0 0 0 0 0 0 0 0 0 0 0 0 0 0 0 0 0 127 0" result="hardAlpha"/>
<feOffset dx="2" dy="2"/>
<feGaussianBlur stdDeviation="2"/>
<feColorMatrix type="matrix" values="0 0 0 0 0.7375 0 0 0 0 0.7375 0 0 0 0 0.7375 0 0 0 0.25 0"/>
<feBlend mode="normal" in2="BackgroundImageFix" result="effect1_dropShadow"/>
<feBlend mode="normal" in="SourceGraphic" in2="effect1_dropShadow" result="shape"/>
</filter>
</defs>
</svg>
