<svg width="84" height="44" viewBox="0 0 84 44" fill="none" xmlns="http://www.w3.org/2000/svg">
<g filter="url(#filter0_d)">
<rect x="2" y="4" width="70" height="32" rx="16" fill="white"/>
<rect x="2.15" y="4.15" width="69.7" height="31.7" rx="15.85" stroke="#F7F7F7" stroke-width="0.3"/>
</g>
<g filter="url(#filter1_d)">
<circle cx="60" cy="20" r="18" fill="#52B6C3"/>
</g>
<path d="M26.4423 19.5769C26.0616 19.4359 25.6808 19.2949 25.427 19.2949H22V17.8846H25.8077C25.8077 17.0385 25.3 16.4744 24.5385 16.4744H19.4616C19.4616 17.3205 19.9693 17.8846 20.7308 17.8846V19.2949C20.0962 19.2949 19.4616 19.0128 19.2077 18.4487L17.8116 15.9103C17.4308 15.3462 16.9231 15.0641 16.4154 15.0641H15.6539V14.0769C15.6539 13.6539 15.527 13.3718 15.4 12.9487L15.0193 11.9615C14.6385 11.2564 13.877 10.8333 13.1154 10.8333H11.8462L18.1923 20.7051C18.7 21.5513 19.5885 22.1154 20.477 22.1154H22V23.5257H20.7308V26.3462H19.9693C18.827 26.3462 17.6847 26.9103 16.9231 27.7564H15.6539V29.1667H29.6154V27.7564H28.3462C27.5847 26.9103 26.4423 26.3462 25.3 26.3462H24.5385V23.5257H23.2693V22.1154H25.3C25.5539 22.1154 25.9347 22.2564 26.1885 22.3974L28.3462 23.6667C29.4885 24.3718 30.8847 24.3718 32.027 23.6667H32.1539L26.4423 19.5769Z" fill="#BCBCBC"/>
<path d="M55.2083 10C54.4104 10 53.75 10.6604 53.75 11.4583V16.9971C52.0195 18.4728 51.25 21.0749 51.25 23.9583V26.0417C51.25 27.2999 52.2834 28.3333 53.5417 28.3333H57.2917C57.334 28.3338 57.3763 28.33 57.4178 28.3219C58.1896 28.8529 59.065 29.1667 60 29.1667C60.9664 29.1667 61.8811 28.8632 62.6888 28.3333C62.6953 28.3334 62.7018 28.3334 62.7083 28.3333H66.4583C67.7166 28.3333 68.75 27.2999 68.75 26.0417V23.9583C68.75 20.9179 67.8952 18.7743 66.25 17.041V11.4583C66.25 10.6604 65.5896 10 64.7917 10H55.2083ZM55.2083 11.25H64.7917C64.9146 11.25 65 11.3354 65 11.4583V17.0833H60.7178C60.6833 17.0783 60.6484 17.0761 60.6136 17.0768C60.5894 17.0776 60.5652 17.0798 60.5412 17.0833H59.4523C59.424 17.0792 59.3955 17.077 59.3669 17.0768C59.3391 17.0771 59.3113 17.0793 59.2839 17.0833H55V11.4583C55 11.3354 55.0854 11.25 55.2083 11.25ZM59.7917 12.5C59.4467 12.5 59.1667 12.78 59.1667 13.125V13.75H58.5417C58.1967 13.75 57.9167 14.03 57.9167 14.375C57.9167 14.72 58.1967 15 58.5417 15H59.1667V15.625C59.1667 15.97 59.4467 16.25 59.7917 16.25C60.1367 16.25 60.4167 15.97 60.4167 15.625V15H61.0417C61.3867 15 61.6667 14.72 61.6667 14.375C61.6667 14.03 61.3867 13.75 61.0417 13.75H60.4167V13.125C60.4167 12.78 60.1367 12.5 59.7917 12.5ZM54.1951 18.3065C54.2535 18.3241 54.3141 18.3332 54.375 18.3333H59.056C58.2811 18.9621 57.1572 19.6864 55.8529 19.9089C54.9461 20.0634 54.2434 20.8178 54.1789 21.7399C54.1657 21.803 54.1624 21.8678 54.1691 21.932C54.1705 21.9552 54.1732 21.9783 54.1772 22.0011C54.3676 23.9628 55.0323 25.7116 56.0352 27.0044C56.0565 27.0319 56.0802 27.0562 56.1019 27.0833H53.5417C52.9591 27.0833 52.5 26.6243 52.5 26.0417V23.9583C52.5 21.5625 53.1143 19.512 54.1951 18.3065ZM65.7267 18.3244C66.9237 19.7474 67.5 21.3959 67.5 23.9583V26.0417C67.5 26.6243 67.0409 27.0833 66.4583 27.0833H64.0658C65.1413 25.772 65.8179 23.9504 65.8309 21.9336C65.8326 21.9141 65.8334 21.8946 65.8333 21.875C65.8339 21.831 65.8298 21.7871 65.8211 21.744C65.7584 20.8201 65.0552 20.0636 64.1471 19.9089C62.8428 19.6864 61.7189 18.9621 60.944 18.3333H65.625C65.6591 18.3331 65.6931 18.3301 65.7267 18.3244ZM60 19.1927C60.8849 19.9433 62.2436 20.8521 63.9372 21.141C64.3209 21.2063 64.5833 21.5054 64.5833 21.875C64.5833 25.3517 62.3061 27.9167 60 27.9167C58.9007 27.9167 57.8634 27.3211 57.0231 26.2378C56.1884 25.1617 55.5849 23.6157 55.4183 21.853C55.4287 21.4938 55.6869 21.205 56.0628 21.141C57.7564 20.8521 59.1151 19.9433 60 19.1927ZM57.9167 21.6667C57.6957 21.6667 57.4837 21.7545 57.3274 21.9107C57.1711 22.067 57.0833 22.279 57.0833 22.5C57.0833 22.721 57.1711 22.933 57.3274 23.0893C57.4837 23.2455 57.6957 23.3333 57.9167 23.3333C58.1377 23.3333 58.3496 23.2455 58.5059 23.0893C58.6622 22.933 58.75 22.721 58.75 22.5C58.75 22.279 58.6622 22.067 58.5059 21.9107C58.3496 21.7545 58.1377 21.6667 57.9167 21.6667ZM62.0833 21.6667C61.8623 21.6667 61.6504 21.7545 61.4941 21.9107C61.3378 22.067 61.25 22.279 61.25 22.5C61.25 22.721 61.3378 22.933 61.4941 23.0893C61.6504 23.2455 61.8623 23.3333 62.0833 23.3333C62.3043 23.3333 62.5163 23.2455 62.6726 23.0893C62.8289 22.933 62.9167 22.721 62.9167 22.5C62.9167 22.279 62.8289 22.067 62.6726 21.9107C62.5163 21.7545 62.3043 21.6667 62.0833 21.6667Z" fill="white"/>
<defs>
<filter id="filter0_d" x="0" y="2" width="78" height="40" filterUnits="userSpaceOnUse" color-interpolation-filters="sRGB">
<feFlood flood-opacity="0" result="BackgroundImageFix"/>
<feColorMatrix in="SourceAlpha" type="matrix" values="0 0 0 0 0 0 0 0 0 0 0 0 0 0 0 0 0 0 127 0" result="hardAlpha"/>
<feOffset dx="2" dy="2"/>
<feGaussianBlur stdDeviation="2"/>
<feColorMatrix type="matrix" values="0 0 0 0 0.7375 0 0 0 0 0.7375 0 0 0 0 0.7375 0 0 0 0.25 0"/>
<feBlend mode="normal" in2="BackgroundImageFix" result="effect1_dropShadow"/>
<feBlend mode="normal" in="SourceGraphic" in2="effect1_dropShadow" result="shape"/>
</filter>
<filter id="filter1_d" x="40" y="0" width="44" height="44" filterUnits="userSpaceOnUse" color-interpolation-filters="sRGB">
<feFlood flood-opacity="0" result="BackgroundImageFix"/>
<feColorMatrix in="SourceAlpha" type="matrix" values="0 0 0 0 0 0 0 0 0 0 0 0 0 0 0 0 0 0 127 0" result="hardAlpha"/>
<feOffset dx="2" dy="2"/>
<feGaussianBlur stdDeviation="2"/>
<feColorMatrix type="matrix" values="0 0 0 0 0.7375 0 0 0 0 0.7375 0 0 0 0 0.7375 0 0 0 0.25 0"/>
<feBlend mode="normal" in2="BackgroundImageFix" result="effect1_dropShadow"/>
<feBlend mode="normal" in="SourceGraphic" in2="effect1_dropShadow" result="shape"/>
</filter>
</defs>
</svg>
