<svg width="176" height="130" viewBox="0 0 176 130" fill="none" xmlns="http://www.w3.org/2000/svg">
<g clip-path="url(#clip0)">
<path d="M17.7031 13.0172C16.6077 13.4684 15.4835 14.0474 14.8815 15.0624C14.244 16.1347 14.3203 17.4662 14.439 18.7068C15.4733 29.4665 18.1983 40.9096 13.4928 50.6559C11.2087 55.3843 7.3884 59.1735 4.34976 63.4676C1.31113 67.7617 -0.983112 73.123 0.427683 78.1746C2.15048 84.3473 8.58045 87.7695 12.9146 92.5197C15.7514 95.6254 17.7404 99.3994 20.3874 102.667C23.0343 105.934 26.6613 108.812 30.8869 109.004C36.9642 109.282 41.9088 104.072 47.8673 102.865C53.9717 101.63 60.1185 104.774 65.0682 108.538C70.0178 112.302 74.5198 116.862 80.2868 119.212C86.6557 121.809 93.8352 121.412 100.54 122.972C106.644 124.395 112.264 127.42 118.324 129.032C124.384 130.645 131.487 130.547 136.183 126.428C142.302 121.042 141.821 111.447 145.729 104.321C149.36 97.701 156.466 93.7486 161.25 87.8957C169.857 77.3616 169.576 61.2608 162.267 49.8042C154.959 38.3476 141.721 31.4107 128.184 29.6045C122.08 28.7915 115.794 28.9026 109.925 27.0526C94.2167 22.1037 84.8685 4.37177 68.8309 0.681962C58.6365 -1.65952 48.722 2.39557 40.0385 7.38657C32.5012 11.7194 25.5473 9.78696 17.7031 13.0172Z" fill="#F2FAFF"/>
<path d="M7.22473 58.5674C8.059 58.1464 11.2435 58.4259 11.2435 58.4259C11.2435 58.4259 9.59188 61.1454 8.75761 61.5663C8.55781 61.684 8.33581 61.7596 8.10537 61.7885C7.87493 61.8174 7.64096 61.7989 7.41799 61.7343C7.19502 61.6697 6.98779 61.5603 6.80915 61.4129C6.63051 61.2655 6.48428 61.0832 6.37953 60.8773C6.27477 60.6714 6.21372 60.4464 6.20016 60.2161C6.1866 59.9859 6.22082 59.7553 6.30071 59.5387C6.38059 59.3221 6.50443 59.1242 6.66455 58.9571C6.82466 58.79 7.01764 58.6573 7.23152 58.5674H7.22473Z" fill="#52B6C3"/>
<path d="M10.578 53.7613C11.5089 53.859 14.0287 55.8123 14.0287 55.8123C14.0287 55.8123 11.146 57.2031 10.2236 57.1072C9.79203 57.0424 9.40223 56.8149 9.1353 56.472C8.86838 56.129 8.7449 55.6971 8.79056 55.266C8.83622 54.835 9.04749 54.438 9.38043 54.1577C9.71336 53.8775 10.1423 53.7355 10.578 53.7613Z" fill="#52B6C3"/>
<path d="M18.5266 49.8884C19.2795 50.439 20.4631 53.3891 20.4631 53.3891C20.4631 53.3891 17.2735 53.1483 16.5206 52.5994C16.1813 52.3271 15.9607 51.9355 15.9047 51.5058C15.8486 51.0762 15.9615 50.6416 16.2198 50.2925C16.4782 49.9434 16.862 49.7066 17.2917 49.6313C17.7213 49.5561 18.1636 49.6481 18.5266 49.8884Z" fill="#52B6C3"/>
<path d="M25.2069 48.3041C26.0428 48.72 27.7114 51.4294 27.7114 51.4294C27.7114 51.4294 24.5269 51.7274 23.6909 51.3115C23.48 51.2201 23.29 51.0869 23.1326 50.9202C22.9752 50.7535 22.8536 50.5567 22.7752 50.3418C22.6968 50.1269 22.6633 49.8984 22.6767 49.6702C22.6901 49.4421 22.7502 49.219 22.8532 49.0146C22.9562 48.8102 23.1 48.6288 23.2759 48.4814C23.4518 48.334 23.6561 48.2237 23.8763 48.1573C24.0965 48.0908 24.3281 48.0695 24.5568 48.0948C24.7855 48.12 25.0067 48.1913 25.2069 48.3041Z" fill="#52B6C3"/>
<path d="M15.8002 58.8771C16.0782 57.99 15.2643 54.9197 15.2643 54.9197C15.2643 54.9197 12.8429 56.9935 12.5648 57.8806C12.4865 58.0947 12.4527 58.3224 12.4656 58.5498C12.4784 58.7773 12.5377 58.9998 12.6397 59.2038C12.7417 59.4079 12.8844 59.5892 13.0591 59.7369C13.2338 59.8846 13.4369 59.9956 13.6561 60.0631C13.8752 60.1306 14.1059 60.1533 14.3342 60.1297C14.5624 60.1061 14.7835 60.0367 14.9839 59.9259C15.1844 59.815 15.3601 59.6649 15.5004 59.4846C15.6407 59.3043 15.7427 59.0977 15.8002 58.8771Z" fill="#52B6C3"/>
<path d="M23.5891 56.9192C23.5891 55.99 21.885 53.3035 21.885 53.3035C21.885 53.3035 20.1995 55.9968 20.2012 56.9293C20.2025 57.3757 20.3825 57.8034 20.7014 58.1181C21.0204 58.4328 21.4522 58.6089 21.9019 58.6076C22.3516 58.6062 22.7824 58.4276 23.0995 58.111C23.4165 57.7943 23.5939 57.3656 23.5925 56.9192H23.5891Z" fill="#52B6C3"/>
<path d="M30.8956 53.9972C31.0516 53.0815 29.8307 50.1475 29.8307 50.1475C29.8307 50.1475 27.7094 52.5243 27.5551 53.44C27.503 53.8696 27.6196 54.3026 27.8806 54.6492C28.1416 54.9958 28.527 55.2292 28.9569 55.3011C29.3867 55.3731 29.8279 55.2779 30.1889 55.0354C30.5499 54.7929 30.803 54.4217 30.8956 53.9989V53.9972Z" fill="#52B6C3"/>
<path d="M33.0116 47.7773C33.0116 47.7773 27.2243 53.1993 21.0131 53.3609C18.4048 53.4124 15.8838 54.3026 13.8285 55.8976C12.857 56.66 11.958 57.5091 11.1426 58.4344" stroke="#414141" stroke-miterlimit="10"/>
<path d="M22.2622 12.3757C22.9218 13.0338 23.6323 16.1294 23.6323 16.1294C23.6323 16.1294 20.519 15.4056 19.8594 14.7458C19.5681 14.4246 19.4124 14.0046 19.4245 13.5726C19.4366 13.1407 19.6155 12.7299 19.9243 12.4253C20.2331 12.1207 20.648 11.9457 21.0832 11.9364C21.5185 11.9272 21.9406 12.0844 22.2622 12.3757Z" fill="#52B6C3"/>
<path d="M27.9006 14.0638C28.0939 14.9728 26.9968 17.9539 26.9968 17.9539C26.9968 17.9539 24.7805 15.6663 24.5872 14.7557C24.5298 14.5354 24.518 14.3059 24.5525 14.081C24.587 13.8561 24.667 13.6405 24.7877 13.4472C24.9085 13.2538 25.0675 13.0868 25.2551 12.9562C25.4427 12.8255 25.655 12.734 25.8792 12.6871C26.1034 12.6401 26.3349 12.6388 26.5597 12.6832C26.7844 12.7276 26.9978 12.8167 27.1869 12.9453C27.3759 13.0738 27.5368 13.239 27.6598 13.431C27.7827 13.6229 27.8652 13.8376 27.9023 14.0621L27.9006 14.0638Z" fill="#52B6C3"/>
<path d="M34.0555 20.3916C33.7605 21.272 31.2967 23.297 31.2967 23.297C31.2967 23.297 30.5472 20.2115 30.8422 19.3295C30.9841 18.9054 31.2899 18.5546 31.6923 18.3543C32.0948 18.154 32.5609 18.1206 32.9881 18.2614C33.4153 18.4023 33.7687 18.7058 33.9705 19.1053C34.1722 19.5048 34.2059 19.9675 34.064 20.3916H34.0555Z" fill="#52B6C3"/>
<path d="M37.6314 26.2075C37.4906 27.1249 35.4066 29.5337 35.4066 29.5337C35.4066 29.5337 34.1417 26.6182 34.2824 25.7008C34.3059 25.4741 34.3754 25.2545 34.487 25.0552C34.5985 24.856 34.7496 24.6813 34.9311 24.5418C35.1126 24.4023 35.3208 24.3008 35.543 24.2435C35.7653 24.1862 35.9969 24.1743 36.2239 24.2085C36.4509 24.2428 36.6685 24.3224 36.8635 24.4426C37.0586 24.5628 37.227 24.7211 37.3586 24.9078C37.4903 25.0946 37.5823 25.3059 37.6292 25.5291C37.676 25.7522 37.6768 25.9824 37.6314 26.2058V26.2075Z" fill="#52B6C3"/>
<path d="M24.602 20.5732C25.538 20.5631 28.2307 18.8489 28.2307 18.8489C28.2307 18.8489 25.499 17.1987 24.563 17.2088C24.1133 17.2139 23.684 17.3963 23.3697 17.7157C23.0553 18.0351 22.8817 18.4654 22.8868 18.912C22.892 19.3586 23.0756 19.7849 23.3973 20.097C23.7189 20.4092 24.1523 20.5817 24.602 20.5765V20.5732Z" fill="#52B6C3"/>
<path d="M28.8676 27.3295C29.7561 27.0416 31.8095 24.6067 31.8095 24.6067C31.8095 24.6067 28.7048 23.8439 27.8163 24.1318C27.597 24.194 27.3926 24.2994 27.2153 24.4418C27.038 24.5842 26.8915 24.7606 26.7844 24.9605C26.6774 25.1605 26.612 25.3798 26.5923 25.6054C26.5726 25.831 26.5989 26.0582 26.6696 26.2734C26.7403 26.4887 26.8541 26.6876 27.004 26.8582C27.1539 27.0288 27.3369 27.1676 27.5421 27.2664C27.7473 27.3651 27.9705 27.4218 28.1982 27.4329C28.4259 27.4441 28.6536 27.4095 28.8676 27.3312V27.3295Z" fill="#52B6C3"/>
<path d="M33.9201 33.3322C34.8459 33.1975 37.2843 31.1432 37.2843 31.1432C37.2843 31.1432 34.3542 29.8701 33.43 30.0049C33.2024 30.0282 32.9819 30.0969 32.7818 30.2071C32.5817 30.3173 32.4061 30.4665 32.2656 30.6458C32.1251 30.8252 32.0226 31.0309 31.9642 31.2506C31.9059 31.4703 31.8929 31.6994 31.9262 31.9242C31.9594 32.1491 32.038 32.3649 32.1575 32.5587C32.2769 32.7525 32.4346 32.9203 32.621 33.052C32.8075 33.1837 33.0188 33.2766 33.2424 33.325C33.4659 33.3735 33.697 33.3765 33.9218 33.3339L33.9201 33.3322Z" fill="#52B6C3"/>
<path d="M40.5305 33.4187C40.5305 33.4187 33.5596 29.6178 31.4875 23.7952C30.6362 21.3468 29.0076 19.2387 26.8464 17.7875C25.8151 17.1062 24.7231 16.5202 23.584 16.0369" stroke="#414141" stroke-miterlimit="10"/>
<g opacity="0.1">
<path opacity="0.1" d="M129.709 63.6979H91.3868V67.0656H129.709V63.6979Z" fill="black"/>
<path opacity="0.1" d="M64.3304 51.1032L62.7576 54.0859L86.8685 66.6244L88.4413 63.6418L64.3304 51.1032Z" fill="black"/>
<path opacity="0.1" d="M88.5041 70.4313C91.3136 70.4313 93.5911 68.1703 93.5911 65.3813C93.5911 62.5923 91.3136 60.3314 88.5041 60.3314C85.6946 60.3314 83.4171 62.5923 83.4171 65.3813C83.4171 68.1703 85.6946 70.4313 88.5041 70.4313Z" fill="black"/>
</g>
<path d="M81.1973 117.634C110.025 117.634 133.395 94.4344 133.395 65.8168C133.395 37.1992 110.025 14 81.1973 14C52.3695 14 29 37.1992 29 65.8168C29 94.4344 52.3695 117.634 81.1973 117.634Z" fill="#153E90"/>
<path d="M81.1978 107.008C104.114 107.008 122.692 88.5659 122.692 65.8166C122.692 43.0672 104.114 24.6251 81.1978 24.6251C58.2813 24.6251 39.7039 43.0672 39.7039 65.8166C39.7039 88.5659 58.2813 107.008 81.1978 107.008Z" fill="#F7F7F7"/>
<path opacity="0.3" d="M82.369 31.903H80.0231V68.2911H82.369V31.903Z" fill="#414141"/>
<path d="M116.826 64.3615H83.6896V67.2735H116.826V64.3615Z" fill="#414141"/>
<path d="M81.1542 64.3125L60.3043 53.4736L58.9439 56.0524L79.7938 66.8914L81.1542 64.3125Z" fill="#414141"/>
<path d="M81.1978 70.1838C83.6271 70.1838 85.5965 68.2288 85.5965 65.8172C85.5965 63.4056 83.6271 61.4506 81.1978 61.4506C78.7685 61.4506 76.7992 63.4056 76.7992 65.8172C76.7992 68.2288 78.7685 70.1838 81.1978 70.1838Z" fill="#414141"/>
<g opacity="0.1">
<path opacity="0.1" d="M44.2432 70.431C44.2432 44.1209 65.7273 22.7934 92.2305 22.7934C99.6693 22.7869 107.007 24.4999 113.664 27.7968C120.32 31.0936 126.112 35.8838 130.58 41.7878C122.413 27.0556 106.644 17.0702 88.5001 17.0702C61.9968 17.0702 40.5127 38.3977 40.5127 64.7077C40.4972 75.0435 43.8833 85.1014 50.156 93.3509C46.266 86.3295 44.2317 78.4442 44.2432 70.431Z" fill="black"/>
</g>
<g opacity="0.1">
<path opacity="0.1" d="M112.937 79.3599C112.937 79.3599 112.58 80.0721 112.089 80.9275C111.341 80.5303 110.617 80.0883 109.922 79.604L109.773 79.4996L109.693 79.4424L110.541 78.5129L112.937 79.3599Z" fill="black"/>
</g>
<g opacity="0.1">
<path opacity="0.1" d="M107.36 80.2824C107.14 80.4902 106.961 80.7369 106.832 81.0098C105.627 80.4693 104.36 79.7873 103.899 79.5347L103.863 79.5162C104.093 79.2286 104.357 78.9691 104.648 78.7433C104.648 78.7433 107.98 79.7435 107.36 80.2824Z" fill="black"/>
</g>
<path d="M153.348 74.7859C153.348 74.7859 146.253 81.8288 150.259 92.2788C154.264 102.729 143.395 120.107 143.395 120.107C143.395 120.107 143.512 120.09 143.734 120.053C158.305 117.5 165.543 100.958 157.441 88.6681C154.421 84.0979 151.949 78.7383 153.348 74.7859Z" fill="#52B6C3"/>
<path opacity="0.1" d="M153.348 74.9038C153.348 74.9038 146.253 81.9468 150.259 92.3967C154.264 102.847 143.395 120.223 143.395 120.223C143.395 120.223 143.512 120.207 143.734 120.17C158.305 117.616 165.543 101.074 157.441 88.7843C154.421 84.2158 151.949 78.8562 153.348 74.9038Z" fill="black"/>
<path d="M153.346 74.7859C153.346 74.7859 149.341 83.4179 153.346 90.4608C157.351 97.5038 154.024 117.267 143.391 120.107" stroke="white" stroke-miterlimit="10" stroke-linecap="round"/>
<path d="M165.984 103.271C165.984 103.271 157.889 101.992 157.151 109.193C156.414 116.394 141.58 117.392 141.58 117.392L141.858 117.576C154.101 125.555 165.806 122.658 164.041 112.063C163.39 108.126 163.444 104.17 165.984 103.271Z" fill="#52B6C3"/>
<path d="M165.983 103.271C165.983 103.271 159.699 104.639 160.218 110.312C160.737 115.985 150.892 122.784 141.586 117.394" stroke="white" stroke-miterlimit="10" stroke-linecap="round" stroke-linejoin="round"/>
<path d="M158.862 117.655C158.862 117.655 152.486 116.389 150.786 114.7C149.085 113.012 141.434 110.059 140.585 112.175C139.735 114.291 129.108 121.459 136.334 122.725C143.559 123.99 153.336 124.408 155.461 123.566C157.585 122.725 158.862 117.655 158.862 117.655Z" fill="#BCBCBC"/>
<path opacity="0.2" d="M136.332 121.935C143.559 123.201 153.334 123.619 155.459 122.777C157.078 122.134 158.203 119.047 158.647 117.609L158.859 117.653C158.859 117.653 157.584 122.717 155.459 123.56C153.334 124.403 143.557 123.982 136.332 122.718C134.246 122.353 133.649 121.494 133.875 120.409C134.051 121.117 134.779 121.663 136.332 121.935Z" fill="black"/>
</g>
<defs>
<clipPath id="clip0">
<rect width="176" height="130" fill="white"/>
</clipPath>
</defs>
</svg>
